<svg xmlns="http://www.w3.org/2000/svg" width="256" height="256" fill="none"><rect width="256" height="256" rx="32" fill="#f8f5ed"/><g clip-path="url(#A)" fill="#000"><path d="M68 153c33.137 0 60-26.863 60-60s-26.863-60-60-60v120zm120-50c-33.137 0-60 26.863-60 60s26.863 60 60 60V103zm5-40c0 13.807-11.193 25-25 25s-25-11.193-25-25 11.193-25 25-25 25 11.193 25 25zm-80 130c0 13.807-11.193 25-25 25s-25-11.193-25-25 11.193-25 25-25 25 11.193 25 25z"/></g><defs><clipPath id="A"><path fill="#fff" transform="translate(63 33)" d="M0 0h130v190H0z"/></clipPath></defs></svg>