<svg width="282" height="144" viewBox="0 0 282 144" fill="none" xmlns="http://www.w3.org/2000/svg">
<rect width="282" height="144" fill="url(#paint0_radial_3813_6569)"/>
<g filter="url(#filter0_b_3813_6569)">
<rect x="138" width="2" height="144" rx="1" fill="#FFDA6E"/>
</g>
<rect x="20.5" y="12" width="89" height="32" rx="6" fill="white" fill-opacity="0.04"/>
<path d="M31.384 33L28.78 26.056H30.334L32.266 31.586L34.198 26.056H35.738L33.148 33H31.384ZM39.8501 33.168C39.1687 33.168 38.5621 33.0187 38.0301 32.72C37.5074 32.412 37.0967 31.9873 36.7981 31.446C36.4994 30.9047 36.3501 30.2747 36.3501 29.556C36.3501 28.828 36.4947 28.1887 36.7841 27.638C37.0827 27.0873 37.4934 26.658 38.0161 26.35C38.5481 26.042 39.1641 25.888 39.8641 25.888C40.5454 25.888 41.1381 26.042 41.6421 26.35C42.1461 26.6487 42.5381 27.05 42.8181 27.554C43.0981 28.058 43.2381 28.6133 43.2381 29.22C43.2381 29.3133 43.2334 29.416 43.2241 29.528C43.2241 29.6307 43.2194 29.7473 43.2101 29.878H37.8061C37.8527 30.55 38.0721 31.0633 38.4641 31.418C38.8654 31.7633 39.3274 31.936 39.8501 31.936C40.2701 31.936 40.6201 31.8427 40.9001 31.656C41.1894 31.46 41.4041 31.1987 41.5441 30.872H43.0281C42.8414 31.5253 42.4681 32.0713 41.9081 32.51C41.3574 32.9487 40.6714 33.168 39.8501 33.168ZM39.8501 27.106C39.3554 27.106 38.9167 27.2553 38.5341 27.554C38.1514 27.8433 37.9181 28.282 37.8341 28.87H41.7541C41.7261 28.3287 41.5347 27.8993 41.1801 27.582C40.8254 27.2647 40.3821 27.106 39.8501 27.106ZM44.7778 33V26.056H46.1078L46.2338 27.372C46.4765 26.9147 46.8125 26.5553 47.2418 26.294C47.6805 26.0233 48.2078 25.888 48.8238 25.888V27.442H48.4178C48.0072 27.442 47.6385 27.512 47.3118 27.652C46.9945 27.7827 46.7378 28.0113 46.5418 28.338C46.3552 28.6553 46.2618 29.0987 46.2618 29.668V33H44.7778ZM52.8682 33.168C51.9909 33.168 51.2675 32.9533 50.6982 32.524C50.1289 32.0947 49.8022 31.5253 49.7182 30.816H51.2162C51.2909 31.1333 51.4682 31.4087 51.7482 31.642C52.0282 31.866 52.3969 31.978 52.8542 31.978C53.3022 31.978 53.6289 31.8847 53.8342 31.698C54.0395 31.5113 54.1422 31.2967 54.1422 31.054C54.1422 30.6993 53.9975 30.4613 53.7082 30.34C53.4282 30.2093 53.0362 30.0927 52.5322 29.99C52.1402 29.906 51.7482 29.794 51.3562 29.654C50.9735 29.514 50.6515 29.318 50.3902 29.066C50.1382 28.8047 50.0122 28.4547 50.0122 28.016C50.0122 27.4093 50.2455 26.9053 50.7122 26.504C51.1789 26.0933 51.8322 25.888 52.6722 25.888C53.4469 25.888 54.0722 26.0747 54.5482 26.448C55.0335 26.8213 55.3182 27.3487 55.4022 28.03H53.9742C53.9275 27.7313 53.7875 27.498 53.5542 27.33C53.3302 27.162 53.0269 27.078 52.6442 27.078C52.2709 27.078 51.9815 27.1573 51.7762 27.316C51.5709 27.4653 51.4682 27.6613 51.4682 27.904C51.4682 28.1467 51.6082 28.338 51.8882 28.478C52.1775 28.618 52.5555 28.744 53.0222 28.856C53.4889 28.9587 53.9182 29.08 54.3102 29.22C54.7115 29.3507 55.0335 29.5467 55.2762 29.808C55.5189 30.0693 55.6402 30.452 55.6402 30.956C55.6495 31.5907 55.4022 32.118 54.8982 32.538C54.4035 32.958 53.7269 33.168 52.8682 33.168ZM58.1003 24.74C57.8203 24.74 57.5869 24.656 57.4003 24.488C57.2229 24.3107 57.1343 24.0913 57.1343 23.83C57.1343 23.5687 57.2229 23.354 57.4003 23.186C57.5869 23.0087 57.8203 22.92 58.1003 22.92C58.3803 22.92 58.6089 23.0087 58.7863 23.186C58.9729 23.354 59.0663 23.5687 59.0663 23.83C59.0663 24.0913 58.9729 24.3107 58.7863 24.488C58.6089 24.656 58.3803 24.74 58.1003 24.74ZM57.3583 33V26.056H58.8423V33H57.3583ZM64.0493 33.168C63.3866 33.168 62.7893 33.0187 62.2573 32.72C61.7346 32.412 61.3193 31.9873 61.0113 31.446C60.7033 30.8953 60.5493 30.256 60.5493 29.528C60.5493 28.8 60.7033 28.1653 61.0113 27.624C61.3286 27.0733 61.7533 26.6487 62.2853 26.35C62.8173 26.042 63.4099 25.888 64.0633 25.888C64.7259 25.888 65.3186 26.042 65.8413 26.35C66.3733 26.6487 66.7933 27.0733 67.1013 27.624C67.4186 28.1653 67.5773 28.8 67.5773 29.528C67.5773 30.256 67.4186 30.8953 67.1013 31.446C66.7933 31.9873 66.3733 32.412 65.8413 32.72C65.3093 33.0187 64.7119 33.168 64.0493 33.168ZM64.0493 31.894C64.4039 31.894 64.7306 31.8053 65.0293 31.628C65.3373 31.4507 65.5846 31.1893 65.7713 30.844C65.9579 30.4893 66.0513 30.0507 66.0513 29.528C66.0513 29.0053 65.9579 28.5713 65.7713 28.226C65.5939 27.8713 65.3513 27.6053 65.0433 27.428C64.7446 27.2507 64.4179 27.162 64.0633 27.162C63.7086 27.162 63.3773 27.2507 63.0693 27.428C62.7706 27.6053 62.5279 27.8713 62.3413 28.226C62.1546 28.5713 62.0613 29.0053 62.0613 29.528C62.0613 30.0507 62.1546 30.4893 62.3413 30.844C62.5279 31.1893 62.7706 31.4507 63.0693 31.628C63.3679 31.8053 63.6946 31.894 64.0493 31.894ZM69.1821 33V26.056H70.4981L70.6101 27.274C70.8248 26.8447 71.1375 26.5087 71.5481 26.266C71.9681 26.014 72.4488 25.888 72.9901 25.888C73.8301 25.888 74.4881 26.1493 74.9641 26.672C75.4495 27.1947 75.6921 27.974 75.6921 29.01V33H74.2221V29.164C74.2221 27.82 73.6715 27.148 72.5701 27.148C72.0195 27.148 71.5621 27.344 71.1981 27.736C70.8435 28.128 70.6661 28.688 70.6661 29.416V33H69.1821ZM80.8833 28.072V26.784H86.6373V28.072H80.8833ZM80.8833 31.082V29.794H86.6373V31.082H80.8833ZM91.3992 33L95.0112 23.2H96.6352L100.219 33H98.6512L97.8112 30.606H93.8072L92.9672 33H91.3992ZM94.2272 29.43H97.3912L95.8092 24.964L94.2272 29.43Z" fill="white"/>
<rect x="1" y="56" width="128" height="32" rx="6" fill="white" fill-opacity="0.04"/>
<path d="M9.938 77V66.92H11.422V77H9.938ZM16.5493 77.168C15.8866 77.168 15.2893 77.0187 14.7573 76.72C14.2346 76.412 13.8193 75.9873 13.5113 75.446C13.2033 74.8953 13.0493 74.256 13.0493 73.528C13.0493 72.8 13.2033 72.1653 13.5113 71.624C13.8286 71.0733 14.2533 70.6487 14.7853 70.35C15.3173 70.042 15.9099 69.888 16.5633 69.888C17.2259 69.888 17.8186 70.042 18.3413 70.35C18.8733 70.6487 19.2933 71.0733 19.6013 71.624C19.9186 72.1653 20.0773 72.8 20.0773 73.528C20.0773 74.256 19.9186 74.8953 19.6013 75.446C19.2933 75.9873 18.8733 76.412 18.3413 76.72C17.8093 77.0187 17.2119 77.168 16.5493 77.168ZM16.5493 75.894C16.9039 75.894 17.2306 75.8053 17.5293 75.628C17.8373 75.4507 18.0846 75.1893 18.2713 74.844C18.4579 74.4893 18.5513 74.0507 18.5513 73.528C18.5513 73.0053 18.4579 72.5713 18.2713 72.226C18.0939 71.8713 17.8513 71.6053 17.5433 71.428C17.2446 71.2507 16.9179 71.162 16.5633 71.162C16.2086 71.162 15.8773 71.2507 15.5693 71.428C15.2706 71.6053 15.0279 71.8713 14.8413 72.226C14.6546 72.5713 14.5613 73.0053 14.5613 73.528C14.5613 74.0507 14.6546 74.4893 14.8413 74.844C15.0279 75.1893 15.2706 75.4507 15.5693 75.628C15.8679 75.8053 16.1946 75.894 16.5493 75.894ZM25.2941 80.248C24.6968 80.248 24.1368 80.1453 23.6141 79.94C23.1008 79.744 22.6668 79.4407 22.3121 79.03C21.9575 78.6287 21.7335 78.1247 21.6401 77.518H23.1101C23.2315 77.9567 23.4835 78.3067 23.8661 78.568C24.2581 78.8293 24.7295 78.96 25.2801 78.96C25.8775 78.96 26.3908 78.764 26.8201 78.372C27.2495 77.9893 27.4641 77.4107 27.4641 76.636V75.698C27.2495 76.062 26.9275 76.384 26.4981 76.664C26.0781 76.944 25.5508 77.084 24.9161 77.084C24.2628 77.084 23.6701 76.93 23.1381 76.622C22.6155 76.3047 22.2001 75.8753 21.8921 75.334C21.5841 74.7833 21.4301 74.1673 21.4301 73.486C21.4301 72.7953 21.5841 72.1793 21.8921 71.638C22.2001 71.0967 22.6155 70.672 23.1381 70.364C23.6701 70.0467 24.2675 69.888 24.9301 69.888C25.4995 69.888 26.0035 70.014 26.4421 70.266C26.8808 70.5087 27.2215 70.812 27.4641 71.176L27.6041 70.056H28.9481V76.58C28.9481 77.364 28.7848 78.0267 28.4581 78.568C28.1408 79.1187 27.7068 79.534 27.1561 79.814C26.6055 80.1033 25.9848 80.248 25.2941 80.248ZM25.1821 75.81C25.6208 75.81 26.0081 75.712 26.3441 75.516C26.6801 75.3107 26.9461 75.0353 27.1421 74.69C27.3381 74.3353 27.4361 73.934 27.4361 73.486C27.4361 73.0287 27.3381 72.6273 27.1421 72.282C26.9461 71.9367 26.6801 71.666 26.3441 71.47C26.0081 71.274 25.6208 71.176 25.1821 71.176C24.7528 71.176 24.3701 71.274 24.0341 71.47C23.6981 71.666 23.4321 71.9367 23.2361 72.282C23.0401 72.6273 22.9421 73.0287 22.9421 73.486C22.9421 73.934 23.0401 74.3353 23.2361 74.69C23.4321 75.0353 23.6981 75.3107 24.0341 75.516C24.3701 75.712 24.7528 75.81 25.1821 75.81ZM34.4406 80.248C33.8433 80.248 33.2833 80.1453 32.7606 79.94C32.2473 79.744 31.8133 79.4407 31.4586 79.03C31.104 78.6287 30.88 78.1247 30.7866 77.518H32.2566C32.378 77.9567 32.63 78.3067 33.0126 78.568C33.4046 78.8293 33.876 78.96 34.4266 78.96C35.024 78.96 35.5373 78.764 35.9666 78.372C36.396 77.9893 36.6106 77.4107 36.6106 76.636V75.698C36.396 76.062 36.074 76.384 35.6446 76.664C35.2246 76.944 34.6973 77.084 34.0626 77.084C33.4093 77.084 32.8166 76.93 32.2846 76.622C31.762 76.3047 31.3466 75.8753 31.0386 75.334C30.7306 74.7833 30.5766 74.1673 30.5766 73.486C30.5766 72.7953 30.7306 72.1793 31.0386 71.638C31.3466 71.0967 31.762 70.672 32.2846 70.364C32.8166 70.0467 33.414 69.888 34.0766 69.888C34.646 69.888 35.15 70.014 35.5886 70.266C36.0273 70.5087 36.368 70.812 36.6106 71.176L36.7506 70.056H38.0946V76.58C38.0946 77.364 37.9313 78.0267 37.6046 78.568C37.2873 79.1187 36.8533 79.534 36.3026 79.814C35.752 80.1033 35.1313 80.248 34.4406 80.248ZM34.3286 75.81C34.7673 75.81 35.1546 75.712 35.4906 75.516C35.8266 75.3107 36.0926 75.0353 36.2886 74.69C36.4846 74.3353 36.5826 73.934 36.5826 73.486C36.5826 73.0287 36.4846 72.6273 36.2886 72.282C36.0926 71.9367 35.8266 71.666 35.4906 71.47C35.1546 71.274 34.7673 71.176 34.3286 71.176C33.8993 71.176 33.5166 71.274 33.1806 71.47C32.8446 71.666 32.5786 71.9367 32.3826 72.282C32.1866 72.6273 32.0886 73.0287 32.0886 73.486C32.0886 73.934 32.1866 74.3353 32.3826 74.69C32.5786 75.0353 32.8446 75.3107 33.1806 75.516C33.5166 75.712 33.8993 75.81 34.3286 75.81ZM43.2231 77.168C42.5418 77.168 41.9351 77.0187 41.4031 76.72C40.8804 76.412 40.4698 75.9873 40.1711 75.446C39.8724 74.9047 39.7231 74.2747 39.7231 73.556C39.7231 72.828 39.8678 72.1887 40.1571 71.638C40.4558 71.0873 40.8664 70.658 41.3891 70.35C41.9211 70.042 42.5371 69.888 43.2371 69.888C43.9184 69.888 44.5111 70.042 45.0151 70.35C45.5191 70.6487 45.9111 71.05 46.1911 71.554C46.4711 72.058 46.6111 72.6133 46.6111 73.22C46.6111 73.3133 46.6064 73.416 46.5971 73.528C46.5971 73.6307 46.5924 73.7473 46.5831 73.878H41.1791C41.2258 74.55 41.4451 75.0633 41.8371 75.418C42.2384 75.7633 42.7004 75.936 43.2231 75.936C43.6431 75.936 43.9931 75.8427 44.2731 75.656C44.5624 75.46 44.7771 75.1987 44.9171 74.872H46.4011C46.2144 75.5253 45.8411 76.0713 45.2811 76.51C44.7304 76.9487 44.0444 77.168 43.2231 77.168ZM43.2231 71.106C42.7284 71.106 42.2898 71.2553 41.9071 71.554C41.5244 71.8433 41.2911 72.282 41.2071 72.87H45.1271C45.0991 72.3287 44.9078 71.8993 44.5531 71.582C44.1984 71.2647 43.7551 71.106 43.2231 71.106ZM51.3149 77.168C50.6429 77.168 50.0502 77.0093 49.5369 76.692C49.0236 76.3747 48.6222 75.9407 48.3329 75.39C48.0436 74.8393 47.8989 74.214 47.8989 73.514C47.8989 72.814 48.0436 72.1933 48.3329 71.652C48.6222 71.1013 49.0236 70.672 49.5369 70.364C50.0596 70.0467 50.6569 69.888 51.3289 69.888C51.8796 69.888 52.3602 69.9953 52.7709 70.21C53.1909 70.4247 53.5176 70.728 53.7509 71.12V66.92H55.2349V77H53.9049L53.7509 75.922C53.5269 76.2487 53.2189 76.538 52.8269 76.79C52.4349 77.042 51.9309 77.168 51.3149 77.168ZM51.5809 75.88C52.2156 75.88 52.7336 75.6607 53.1349 75.222C53.5456 74.7833 53.7509 74.2187 53.7509 73.528C53.7509 72.828 53.5456 72.2633 53.1349 71.834C52.7336 71.3953 52.2156 71.176 51.5809 71.176C50.9462 71.176 50.4236 71.3953 50.0129 71.834C49.6022 72.2633 49.3969 72.828 49.3969 73.528C49.3969 73.9853 49.4902 74.3913 49.6769 74.746C49.8636 75.1007 50.1202 75.3807 50.4469 75.586C50.7829 75.782 51.1609 75.88 51.5809 75.88ZM56.952 78.918V77.518H64.638V78.918H56.952ZM67.2018 68.74C66.9218 68.74 66.6885 68.656 66.5018 68.488C66.3245 68.3107 66.2358 68.0913 66.2358 67.83C66.2358 67.5687 66.3245 67.354 66.5018 67.186C66.6885 67.0087 66.9218 66.92 67.2018 66.92C67.4818 66.92 67.7105 67.0087 67.8878 67.186C68.0745 67.354 68.1678 67.5687 68.1678 67.83C68.1678 68.0913 68.0745 68.3107 67.8878 68.488C67.7105 68.656 67.4818 68.74 67.2018 68.74ZM66.4598 77V70.056H67.9438V77H66.4598ZM69.9028 77V70.056H71.2188L71.3308 71.274C71.5455 70.8447 71.8582 70.5087 72.2688 70.266C72.6888 70.014 73.1695 69.888 73.7108 69.888C74.5508 69.888 75.2088 70.1493 75.6848 70.672C76.1702 71.1947 76.4128 71.974 76.4128 73.01V77H74.9428V73.164C74.9428 71.82 74.3922 71.148 73.2908 71.148C72.7402 71.148 72.2828 71.344 71.9188 71.736C71.5642 72.128 71.3868 72.688 71.3868 73.416V77H69.9028ZM81.604 72.072V70.784H87.358V72.072H81.604ZM81.604 75.082V73.794H87.358V75.082H81.604ZM95.0459 77V68.404H92.1479V67.2H99.4139V68.404H96.5299V77H95.0459ZM100.008 77V70.056H101.338L101.464 71.372C101.707 70.9147 102.043 70.5553 102.472 70.294C102.911 70.0233 103.438 69.888 104.054 69.888V71.442H103.648C103.238 71.442 102.869 71.512 102.542 71.652C102.225 71.7827 101.968 72.0113 101.772 72.338C101.586 72.6553 101.492 73.0987 101.492 73.668V77H100.008ZM107.889 77.168C107.049 77.168 106.386 76.9067 105.901 76.384C105.425 75.8613 105.187 75.082 105.187 74.046V70.056H106.671V73.892C106.671 75.236 107.221 75.908 108.323 75.908C108.873 75.908 109.326 75.712 109.681 75.32C110.035 74.928 110.213 74.368 110.213 73.64V70.056H111.697V77H110.381L110.269 75.782C110.054 76.2113 109.737 76.552 109.317 76.804C108.906 77.0467 108.43 77.168 107.889 77.168ZM116.832 77.168C116.151 77.168 115.544 77.0187 115.012 76.72C114.49 76.412 114.079 75.9873 113.78 75.446C113.482 74.9047 113.332 74.2747 113.332 73.556C113.332 72.828 113.477 72.1887 113.766 71.638C114.065 71.0873 114.476 70.658 114.998 70.35C115.53 70.042 116.146 69.888 116.846 69.888C117.528 69.888 118.12 70.042 118.624 70.35C119.128 70.6487 119.52 71.05 119.8 71.554C120.08 72.058 120.22 72.6133 120.22 73.22C120.22 73.3133 120.216 73.416 120.206 73.528C120.206 73.6307 120.202 73.7473 120.192 73.878H114.788C114.835 74.55 115.054 75.0633 115.446 75.418C115.848 75.7633 116.31 75.936 116.832 75.936C117.252 75.936 117.602 75.8427 117.882 75.656C118.172 75.46 118.386 75.1987 118.526 74.872H120.01C119.824 75.5253 119.45 76.0713 118.89 76.51C118.34 76.9487 117.654 77.168 116.832 77.168ZM116.832 71.106C116.338 71.106 115.899 71.2553 115.516 71.554C115.134 71.8433 114.9 72.282 114.816 72.87H118.736C118.708 72.3287 118.517 71.8993 118.162 71.582C117.808 71.2647 117.364 71.106 116.832 71.106Z" fill="white"/>
<rect x="5.5" y="100" width="119" height="32" rx="6" fill="white" fill-opacity="0.04"/>
<path d="M16.79 121.168C16.202 121.168 15.7167 121.07 15.334 120.874C14.9513 120.678 14.6667 120.421 14.48 120.104C14.2933 119.777 14.2 119.423 14.2 119.04C14.2 118.368 14.4613 117.836 14.984 117.444C15.5067 117.052 16.2533 116.856 17.224 116.856H19.044V116.73C19.044 116.189 18.8947 115.783 18.596 115.512C18.3067 115.241 17.9287 115.106 17.462 115.106C17.0513 115.106 16.692 115.209 16.384 115.414C16.0853 115.61 15.9033 115.904 15.838 116.296H14.354C14.4007 115.792 14.5687 115.363 14.858 115.008C15.1567 114.644 15.53 114.369 15.978 114.182C16.4353 113.986 16.9347 113.888 17.476 113.888C18.4467 113.888 19.198 114.145 19.73 114.658C20.262 115.162 20.528 115.853 20.528 116.73V121H19.24L19.114 119.81C18.918 120.193 18.6333 120.515 18.26 120.776C17.8867 121.037 17.3967 121.168 16.79 121.168ZM17.084 119.964C17.4853 119.964 17.8213 119.871 18.092 119.684C18.372 119.488 18.5867 119.231 18.736 118.914C18.8947 118.597 18.9927 118.247 19.03 117.864H17.378C16.79 117.864 16.37 117.967 16.118 118.172C15.8753 118.377 15.754 118.634 15.754 118.942C15.754 119.259 15.8707 119.511 16.104 119.698C16.3467 119.875 16.6733 119.964 17.084 119.964ZM24.8203 121.168C23.9803 121.168 23.3176 120.907 22.8323 120.384C22.3563 119.861 22.1183 119.082 22.1183 118.046V114.056H23.6023V117.892C23.6023 119.236 24.153 119.908 25.2543 119.908C25.805 119.908 26.2576 119.712 26.6123 119.32C26.967 118.928 27.1443 118.368 27.1443 117.64V114.056H28.6283V121H27.3123L27.2003 119.782C26.9856 120.211 26.6683 120.552 26.2483 120.804C25.8376 121.047 25.3616 121.168 24.8203 121.168ZM33.4281 121C32.7468 121 32.2055 120.837 31.8041 120.51C31.4028 120.174 31.2021 119.581 31.2021 118.732V115.302H30.0121V114.056H31.2021L31.3841 112.292H32.6861V114.056H34.6461V115.302H32.6861V118.732C32.6861 119.115 32.7655 119.381 32.9241 119.53C33.0921 119.67 33.3768 119.74 33.7781 119.74H34.5761V121H33.4281ZM36.1763 121V110.92H37.6603V115.176C37.8936 114.775 38.2156 114.462 38.6263 114.238C39.0463 114.005 39.5083 113.888 40.0123 113.888C40.8429 113.888 41.4963 114.149 41.9723 114.672C42.4483 115.195 42.6863 115.974 42.6863 117.01V121H41.2163V117.164C41.2163 115.82 40.6796 115.148 39.6063 115.148C39.0463 115.148 38.5796 115.344 38.2063 115.736C37.8423 116.128 37.6603 116.688 37.6603 117.416V121H36.1763ZM47.6821 121.168C47.0194 121.168 46.4221 121.019 45.8901 120.72C45.3674 120.412 44.9521 119.987 44.6441 119.446C44.3361 118.895 44.1821 118.256 44.1821 117.528C44.1821 116.8 44.3361 116.165 44.6441 115.624C44.9614 115.073 45.3861 114.649 45.9181 114.35C46.4501 114.042 47.0428 113.888 47.6961 113.888C48.3588 113.888 48.9514 114.042 49.4741 114.35C50.0061 114.649 50.4261 115.073 50.7341 115.624C51.0514 116.165 51.2101 116.8 51.2101 117.528C51.2101 118.256 51.0514 118.895 50.7341 119.446C50.4261 119.987 50.0061 120.412 49.4741 120.72C48.9421 121.019 48.3448 121.168 47.6821 121.168ZM47.6821 119.894C48.0368 119.894 48.3634 119.805 48.6621 119.628C48.9701 119.451 49.2174 119.189 49.4041 118.844C49.5908 118.489 49.6841 118.051 49.6841 117.528C49.6841 117.005 49.5908 116.571 49.4041 116.226C49.2268 115.871 48.9841 115.605 48.6761 115.428C48.3774 115.251 48.0508 115.162 47.6961 115.162C47.3414 115.162 47.0101 115.251 46.7021 115.428C46.4034 115.605 46.1608 115.871 45.9741 116.226C45.7874 116.571 45.6941 117.005 45.6941 117.528C45.6941 118.051 45.7874 118.489 45.9741 118.844C46.1608 119.189 46.4034 119.451 46.7021 119.628C47.0008 119.805 47.3274 119.894 47.6821 119.894ZM52.815 121V114.056H54.145L54.271 115.372C54.5136 114.915 54.8496 114.555 55.279 114.294C55.7176 114.023 56.245 113.888 56.861 113.888V115.442H56.455C56.0443 115.442 55.6756 115.512 55.349 115.652C55.0316 115.783 54.775 116.011 54.579 116.338C54.3923 116.655 54.299 117.099 54.299 117.668V121H52.815ZM61.5767 116.072V114.784H67.3307V116.072H61.5767ZM61.5767 119.082V117.794H67.3307V119.082H61.5767ZM72.7225 121V111.2H74.4725L77.7905 117.724L81.0945 111.2H82.8445V121H81.3605V113.762L78.3645 119.6H77.2165L74.2065 113.776V121H72.7225ZM87.1318 121.168C86.5438 121.168 86.0585 121.07 85.6758 120.874C85.2931 120.678 85.0085 120.421 84.8218 120.104C84.6351 119.777 84.5418 119.423 84.5418 119.04C84.5418 118.368 84.8031 117.836 85.3258 117.444C85.8485 117.052 86.5951 116.856 87.5658 116.856H89.3858V116.73C89.3858 116.189 89.2365 115.783 88.9378 115.512C88.6485 115.241 88.2705 115.106 87.8038 115.106C87.3931 115.106 87.0338 115.209 86.7258 115.414C86.4271 115.61 86.2451 115.904 86.1798 116.296H84.6958C84.7425 115.792 84.9105 115.363 85.1998 115.008C85.4985 114.644 85.8718 114.369 86.3198 114.182C86.7771 113.986 87.2765 113.888 87.8178 113.888C88.7885 113.888 89.5398 114.145 90.0718 114.658C90.6038 115.162 90.8698 115.853 90.8698 116.73V121H89.5818L89.4558 119.81C89.2598 120.193 88.9751 120.515 88.6018 120.776C88.2285 121.037 87.7385 121.168 87.1318 121.168ZM87.4258 119.964C87.8271 119.964 88.1631 119.871 88.4338 119.684C88.7138 119.488 88.9285 119.231 89.0778 118.914C89.2365 118.597 89.3345 118.247 89.3718 117.864H87.7198C87.1318 117.864 86.7118 117.967 86.4598 118.172C86.2171 118.377 86.0958 118.634 86.0958 118.942C86.0958 119.259 86.2125 119.511 86.4458 119.698C86.6885 119.875 87.0151 119.964 87.4258 119.964ZM92.6001 121V114.056H93.9301L94.0561 115.372C94.2988 114.915 94.6348 114.555 95.0641 114.294C95.5028 114.023 96.0301 113.888 96.6461 113.888V115.442H96.2401C95.8294 115.442 95.4608 115.512 95.1341 115.652C94.8168 115.783 94.5601 116.011 94.3641 116.338C94.1774 116.655 94.0841 117.099 94.0841 117.668V121H92.6001ZM99.8645 121L97.2605 114.056H98.8145L100.746 119.586L102.678 114.056H104.218L101.628 121H99.8645ZM106.278 112.74C105.998 112.74 105.765 112.656 105.578 112.488C105.401 112.311 105.312 112.091 105.312 111.83C105.312 111.569 105.401 111.354 105.578 111.186C105.765 111.009 105.998 110.92 106.278 110.92C106.558 110.92 106.787 111.009 106.964 111.186C107.151 111.354 107.244 111.569 107.244 111.83C107.244 112.091 107.151 112.311 106.964 112.488C106.787 112.656 106.558 112.74 106.278 112.74ZM105.536 121V114.056H107.02V121H105.536ZM108.979 121V114.056H110.295L110.407 115.274C110.622 114.845 110.934 114.509 111.345 114.266C111.765 114.014 112.246 113.888 112.787 113.888C113.627 113.888 114.285 114.149 114.761 114.672C115.246 115.195 115.489 115.974 115.489 117.01V121H114.019V117.164C114.019 115.82 113.468 115.148 112.367 115.148C111.816 115.148 111.359 115.344 110.995 115.736C110.64 116.128 110.463 116.688 110.463 117.416V121H108.979Z" fill="white"/>
<rect x="171.5" y="12" width="88" height="32" rx="6" fill="white" fill-opacity="0.04"/>
<path d="M182.384 33L179.78 26.056H181.334L183.266 31.586L185.198 26.056H186.738L184.148 33H182.384ZM190.85 33.168C190.169 33.168 189.562 33.0187 189.03 32.72C188.507 32.412 188.097 31.9873 187.798 31.446C187.499 30.9047 187.35 30.2747 187.35 29.556C187.35 28.828 187.495 28.1887 187.784 27.638C188.083 27.0873 188.493 26.658 189.016 26.35C189.548 26.042 190.164 25.888 190.864 25.888C191.545 25.888 192.138 26.042 192.642 26.35C193.146 26.6487 193.538 27.05 193.818 27.554C194.098 28.058 194.238 28.6133 194.238 29.22C194.238 29.3133 194.233 29.416 194.224 29.528C194.224 29.6307 194.219 29.7473 194.21 29.878H188.806C188.853 30.55 189.072 31.0633 189.464 31.418C189.865 31.7633 190.327 31.936 190.85 31.936C191.27 31.936 191.62 31.8427 191.9 31.656C192.189 31.46 192.404 31.1987 192.544 30.872H194.028C193.841 31.5253 193.468 32.0713 192.908 32.51C192.357 32.9487 191.671 33.168 190.85 33.168ZM190.85 27.106C190.355 27.106 189.917 27.2553 189.534 27.554C189.151 27.8433 188.918 28.282 188.834 28.87H192.754C192.726 28.3287 192.535 27.8993 192.18 27.582C191.825 27.2647 191.382 27.106 190.85 27.106ZM195.778 33V26.056H197.108L197.234 27.372C197.477 26.9147 197.813 26.5553 198.242 26.294C198.681 26.0233 199.208 25.888 199.824 25.888V27.442H199.418C199.007 27.442 198.639 27.512 198.312 27.652C197.995 27.7827 197.738 28.0113 197.542 28.338C197.355 28.6553 197.262 29.0987 197.262 29.668V33H195.778ZM203.868 33.168C202.991 33.168 202.268 32.9533 201.698 32.524C201.129 32.0947 200.802 31.5253 200.718 30.816H202.216C202.291 31.1333 202.468 31.4087 202.748 31.642C203.028 31.866 203.397 31.978 203.854 31.978C204.302 31.978 204.629 31.8847 204.834 31.698C205.04 31.5113 205.142 31.2967 205.142 31.054C205.142 30.6993 204.998 30.4613 204.708 30.34C204.428 30.2093 204.036 30.0927 203.532 29.99C203.14 29.906 202.748 29.794 202.356 29.654C201.974 29.514 201.652 29.318 201.39 29.066C201.138 28.8047 201.012 28.4547 201.012 28.016C201.012 27.4093 201.246 26.9053 201.712 26.504C202.179 26.0933 202.832 25.888 203.672 25.888C204.447 25.888 205.072 26.0747 205.548 26.448C206.034 26.8213 206.318 27.3487 206.402 28.03H204.974C204.928 27.7313 204.788 27.498 204.554 27.33C204.33 27.162 204.027 27.078 203.644 27.078C203.271 27.078 202.982 27.1573 202.776 27.316C202.571 27.4653 202.468 27.6613 202.468 27.904C202.468 28.1467 202.608 28.338 202.888 28.478C203.178 28.618 203.556 28.744 204.022 28.856C204.489 28.9587 204.918 29.08 205.31 29.22C205.712 29.3507 206.034 29.5467 206.276 29.808C206.519 30.0693 206.64 30.452 206.64 30.956C206.65 31.5907 206.402 32.118 205.898 32.538C205.404 32.958 204.727 33.168 203.868 33.168ZM209.1 24.74C208.82 24.74 208.587 24.656 208.4 24.488C208.223 24.3107 208.134 24.0913 208.134 23.83C208.134 23.5687 208.223 23.354 208.4 23.186C208.587 23.0087 208.82 22.92 209.1 22.92C209.38 22.92 209.609 23.0087 209.786 23.186C209.973 23.354 210.066 23.5687 210.066 23.83C210.066 24.0913 209.973 24.3107 209.786 24.488C209.609 24.656 209.38 24.74 209.1 24.74ZM208.358 33V26.056H209.842V33H208.358ZM215.049 33.168C214.387 33.168 213.789 33.0187 213.257 32.72C212.735 32.412 212.319 31.9873 212.011 31.446C211.703 30.8953 211.549 30.256 211.549 29.528C211.549 28.8 211.703 28.1653 212.011 27.624C212.329 27.0733 212.753 26.6487 213.285 26.35C213.817 26.042 214.41 25.888 215.063 25.888C215.726 25.888 216.319 26.042 216.841 26.35C217.373 26.6487 217.793 27.0733 218.101 27.624C218.419 28.1653 218.577 28.8 218.577 29.528C218.577 30.256 218.419 30.8953 218.101 31.446C217.793 31.9873 217.373 32.412 216.841 32.72C216.309 33.0187 215.712 33.168 215.049 33.168ZM215.049 31.894C215.404 31.894 215.731 31.8053 216.029 31.628C216.337 31.4507 216.585 31.1893 216.771 30.844C216.958 30.4893 217.051 30.0507 217.051 29.528C217.051 29.0053 216.958 28.5713 216.771 28.226C216.594 27.8713 216.351 27.6053 216.043 27.428C215.745 27.2507 215.418 27.162 215.063 27.162C214.709 27.162 214.377 27.2507 214.069 27.428C213.771 27.6053 213.528 27.8713 213.341 28.226C213.155 28.5713 213.061 29.0053 213.061 29.528C213.061 30.0507 213.155 30.4893 213.341 30.844C213.528 31.1893 213.771 31.4507 214.069 31.628C214.368 31.8053 214.695 31.894 215.049 31.894ZM220.182 33V26.056H221.498L221.61 27.274C221.825 26.8447 222.137 26.5087 222.548 26.266C222.968 26.014 223.449 25.888 223.99 25.888C224.83 25.888 225.488 26.1493 225.964 26.672C226.449 27.1947 226.692 27.974 226.692 29.01V33H225.222V29.164C225.222 27.82 224.671 27.148 223.57 27.148C223.019 27.148 222.562 27.344 222.198 27.736C221.843 28.128 221.666 28.688 221.666 29.416V33H220.182ZM231.883 28.072V26.784H237.637V28.072H231.883ZM231.883 31.082V29.794H237.637V31.082H231.883ZM243.029 33V23.2H246.725C247.742 23.2 248.512 23.438 249.035 23.914C249.558 24.39 249.819 24.9873 249.819 25.706C249.819 26.3313 249.651 26.8307 249.315 27.204C248.979 27.568 248.573 27.8153 248.097 27.946C248.47 28.0207 248.802 28.17 249.091 28.394C249.39 28.618 249.623 28.898 249.791 29.234C249.959 29.57 250.043 29.934 250.043 30.326C250.043 30.83 249.917 31.2873 249.665 31.698C249.422 32.0993 249.063 32.4167 248.587 32.65C248.111 32.8833 247.528 33 246.837 33H243.029ZM244.513 27.4H246.543C247.112 27.4 247.546 27.2693 247.845 27.008C248.144 26.7373 248.293 26.3687 248.293 25.902C248.293 25.4447 248.144 25.0807 247.845 24.81C247.556 24.5393 247.112 24.404 246.515 24.404H244.513V27.4ZM244.513 31.782H246.641C247.238 31.782 247.7 31.642 248.027 31.362C248.363 31.082 248.531 30.69 248.531 30.186C248.531 29.682 248.358 29.2853 248.013 28.996C247.668 28.6973 247.201 28.548 246.613 28.548H244.513V31.782Z" fill="white"/>
<rect x="149" y="56" width="133" height="32" rx="6" fill="white" fill-opacity="0.04"/>
<path d="M157.938 77V66.92H159.422V77H157.938ZM164.549 77.168C163.887 77.168 163.289 77.0187 162.757 76.72C162.235 76.412 161.819 75.9873 161.511 75.446C161.203 74.8953 161.049 74.256 161.049 73.528C161.049 72.8 161.203 72.1653 161.511 71.624C161.829 71.0733 162.253 70.6487 162.785 70.35C163.317 70.042 163.91 69.888 164.563 69.888C165.226 69.888 165.819 70.042 166.341 70.35C166.873 70.6487 167.293 71.0733 167.601 71.624C167.919 72.1653 168.077 72.8 168.077 73.528C168.077 74.256 167.919 74.8953 167.601 75.446C167.293 75.9873 166.873 76.412 166.341 76.72C165.809 77.0187 165.212 77.168 164.549 77.168ZM164.549 75.894C164.904 75.894 165.231 75.8053 165.529 75.628C165.837 75.4507 166.085 75.1893 166.271 74.844C166.458 74.4893 166.551 74.0507 166.551 73.528C166.551 73.0053 166.458 72.5713 166.271 72.226C166.094 71.8713 165.851 71.6053 165.543 71.428C165.245 71.2507 164.918 71.162 164.563 71.162C164.209 71.162 163.877 71.2507 163.569 71.428C163.271 71.6053 163.028 71.8713 162.841 72.226C162.655 72.5713 162.561 73.0053 162.561 73.528C162.561 74.0507 162.655 74.4893 162.841 74.844C163.028 75.1893 163.271 75.4507 163.569 75.628C163.868 75.8053 164.195 75.894 164.549 75.894ZM173.294 80.248C172.697 80.248 172.137 80.1453 171.614 79.94C171.101 79.744 170.667 79.4407 170.312 79.03C169.957 78.6287 169.733 78.1247 169.64 77.518H171.11C171.231 77.9567 171.483 78.3067 171.866 78.568C172.258 78.8293 172.729 78.96 173.28 78.96C173.877 78.96 174.391 78.764 174.82 78.372C175.249 77.9893 175.464 77.4107 175.464 76.636V75.698C175.249 76.062 174.927 76.384 174.498 76.664C174.078 76.944 173.551 77.084 172.916 77.084C172.263 77.084 171.67 76.93 171.138 76.622C170.615 76.3047 170.2 75.8753 169.892 75.334C169.584 74.7833 169.43 74.1673 169.43 73.486C169.43 72.7953 169.584 72.1793 169.892 71.638C170.2 71.0967 170.615 70.672 171.138 70.364C171.67 70.0467 172.267 69.888 172.93 69.888C173.499 69.888 174.003 70.014 174.442 70.266C174.881 70.5087 175.221 70.812 175.464 71.176L175.604 70.056H176.948V76.58C176.948 77.364 176.785 78.0267 176.458 78.568C176.141 79.1187 175.707 79.534 175.156 79.814C174.605 80.1033 173.985 80.248 173.294 80.248ZM173.182 75.81C173.621 75.81 174.008 75.712 174.344 75.516C174.68 75.3107 174.946 75.0353 175.142 74.69C175.338 74.3353 175.436 73.934 175.436 73.486C175.436 73.0287 175.338 72.6273 175.142 72.282C174.946 71.9367 174.68 71.666 174.344 71.47C174.008 71.274 173.621 71.176 173.182 71.176C172.753 71.176 172.37 71.274 172.034 71.47C171.698 71.666 171.432 71.9367 171.236 72.282C171.04 72.6273 170.942 73.0287 170.942 73.486C170.942 73.934 171.04 74.3353 171.236 74.69C171.432 75.0353 171.698 75.3107 172.034 75.516C172.37 75.712 172.753 75.81 173.182 75.81ZM182.441 80.248C181.843 80.248 181.283 80.1453 180.761 79.94C180.247 79.744 179.813 79.4407 179.459 79.03C179.104 78.6287 178.88 78.1247 178.787 77.518H180.257C180.378 77.9567 180.63 78.3067 181.013 78.568C181.405 78.8293 181.876 78.96 182.427 78.96C183.024 78.96 183.537 78.764 183.967 78.372C184.396 77.9893 184.611 77.4107 184.611 76.636V75.698C184.396 76.062 184.074 76.384 183.645 76.664C183.225 76.944 182.697 77.084 182.063 77.084C181.409 77.084 180.817 76.93 180.285 76.622C179.762 76.3047 179.347 75.8753 179.039 75.334C178.731 74.7833 178.577 74.1673 178.577 73.486C178.577 72.7953 178.731 72.1793 179.039 71.638C179.347 71.0967 179.762 70.672 180.285 70.364C180.817 70.0467 181.414 69.888 182.077 69.888C182.646 69.888 183.15 70.014 183.589 70.266C184.027 70.5087 184.368 70.812 184.611 71.176L184.751 70.056H186.095V76.58C186.095 77.364 185.931 78.0267 185.605 78.568C185.287 79.1187 184.853 79.534 184.303 79.814C183.752 80.1033 183.131 80.248 182.441 80.248ZM182.329 75.81C182.767 75.81 183.155 75.712 183.491 75.516C183.827 75.3107 184.093 75.0353 184.289 74.69C184.485 74.3353 184.583 73.934 184.583 73.486C184.583 73.0287 184.485 72.6273 184.289 72.282C184.093 71.9367 183.827 71.666 183.491 71.47C183.155 71.274 182.767 71.176 182.329 71.176C181.899 71.176 181.517 71.274 181.181 71.47C180.845 71.666 180.579 71.9367 180.383 72.282C180.187 72.6273 180.089 73.0287 180.089 73.486C180.089 73.934 180.187 74.3353 180.383 74.69C180.579 75.0353 180.845 75.3107 181.181 75.516C181.517 75.712 181.899 75.81 182.329 75.81ZM191.223 77.168C190.542 77.168 189.935 77.0187 189.403 76.72C188.88 76.412 188.47 75.9873 188.171 75.446C187.872 74.9047 187.723 74.2747 187.723 73.556C187.723 72.828 187.868 72.1887 188.157 71.638C188.456 71.0873 188.866 70.658 189.389 70.35C189.921 70.042 190.537 69.888 191.237 69.888C191.918 69.888 192.511 70.042 193.015 70.35C193.519 70.6487 193.911 71.05 194.191 71.554C194.471 72.058 194.611 72.6133 194.611 73.22C194.611 73.3133 194.606 73.416 194.597 73.528C194.597 73.6307 194.592 73.7473 194.583 73.878H189.179C189.226 74.55 189.445 75.0633 189.837 75.418C190.238 75.7633 190.7 75.936 191.223 75.936C191.643 75.936 191.993 75.8427 192.273 75.656C192.562 75.46 192.777 75.1987 192.917 74.872H194.401C194.214 75.5253 193.841 76.0713 193.281 76.51C192.73 76.9487 192.044 77.168 191.223 77.168ZM191.223 71.106C190.728 71.106 190.29 71.2553 189.907 71.554C189.524 71.8433 189.291 72.282 189.207 72.87H193.127C193.099 72.3287 192.908 71.8993 192.553 71.582C192.198 71.2647 191.755 71.106 191.223 71.106ZM199.315 77.168C198.643 77.168 198.05 77.0093 197.537 76.692C197.024 76.3747 196.622 75.9407 196.333 75.39C196.044 74.8393 195.899 74.214 195.899 73.514C195.899 72.814 196.044 72.1933 196.333 71.652C196.622 71.1013 197.024 70.672 197.537 70.364C198.06 70.0467 198.657 69.888 199.329 69.888C199.88 69.888 200.36 69.9953 200.771 70.21C201.191 70.4247 201.518 70.728 201.751 71.12V66.92H203.235V77H201.905L201.751 75.922C201.527 76.2487 201.219 76.538 200.827 76.79C200.435 77.042 199.931 77.168 199.315 77.168ZM199.581 75.88C200.216 75.88 200.734 75.6607 201.135 75.222C201.546 74.7833 201.751 74.2187 201.751 73.528C201.751 72.828 201.546 72.2633 201.135 71.834C200.734 71.3953 200.216 71.176 199.581 71.176C198.946 71.176 198.424 71.3953 198.013 71.834C197.602 72.2633 197.397 72.828 197.397 73.528C197.397 73.9853 197.49 74.3913 197.677 74.746C197.864 75.1007 198.12 75.3807 198.447 75.586C198.783 75.782 199.161 75.88 199.581 75.88ZM204.952 78.918V77.518H212.638V78.918H204.952ZM215.202 68.74C214.922 68.74 214.688 68.656 214.502 68.488C214.324 68.3107 214.236 68.0913 214.236 67.83C214.236 67.5687 214.324 67.354 214.502 67.186C214.688 67.0087 214.922 66.92 215.202 66.92C215.482 66.92 215.71 67.0087 215.888 67.186C216.074 67.354 216.168 67.5687 216.168 67.83C216.168 68.0913 216.074 68.3107 215.888 68.488C215.71 68.656 215.482 68.74 215.202 68.74ZM214.46 77V70.056H215.944V77H214.46ZM217.903 77V70.056H219.219L219.331 71.274C219.546 70.8447 219.858 70.5087 220.269 70.266C220.689 70.014 221.17 69.888 221.711 69.888C222.551 69.888 223.209 70.1493 223.685 70.672C224.17 71.1947 224.413 71.974 224.413 73.01V77H222.943V73.164C222.943 71.82 222.392 71.148 221.291 71.148C220.74 71.148 220.283 71.344 219.919 71.736C219.564 72.128 219.387 72.688 219.387 73.416V77H217.903ZM229.604 72.072V70.784H235.358V72.072H229.604ZM229.604 75.082V73.794H235.358V75.082H229.604ZM240.75 77V67.2H246.896V68.404H242.234V71.498H246.098V72.688H242.234V77H240.75ZM250.114 77.168C249.526 77.168 249.041 77.07 248.658 76.874C248.276 76.678 247.991 76.4213 247.804 76.104C247.618 75.7773 247.524 75.4227 247.524 75.04C247.524 74.368 247.786 73.836 248.308 73.444C248.831 73.052 249.578 72.856 250.548 72.856H252.368V72.73C252.368 72.1887 252.219 71.7827 251.92 71.512C251.631 71.2413 251.253 71.106 250.786 71.106C250.376 71.106 250.016 71.2087 249.708 71.414C249.41 71.61 249.228 71.904 249.162 72.296H247.678C247.725 71.792 247.893 71.3627 248.182 71.008C248.481 70.644 248.854 70.3687 249.302 70.182C249.76 69.986 250.259 69.888 250.8 69.888C251.771 69.888 252.522 70.1447 253.054 70.658C253.586 71.162 253.852 71.8527 253.852 72.73V77H252.564L252.438 75.81C252.242 76.1927 251.958 76.5147 251.584 76.776C251.211 77.0373 250.721 77.168 250.114 77.168ZM250.408 75.964C250.81 75.964 251.146 75.8707 251.416 75.684C251.696 75.488 251.911 75.2313 252.06 74.914C252.219 74.5967 252.317 74.2467 252.354 73.864H250.702C250.114 73.864 249.694 73.9667 249.442 74.172C249.2 74.3773 249.078 74.634 249.078 74.942C249.078 75.2593 249.195 75.5113 249.428 75.698C249.671 75.8753 249.998 75.964 250.408 75.964ZM255.583 77V66.92H257.067V77H255.583ZM261.718 77.168C260.84 77.168 260.117 76.9533 259.548 76.524C258.978 76.0947 258.652 75.5253 258.568 74.816H260.066C260.14 75.1333 260.318 75.4087 260.598 75.642C260.878 75.866 261.246 75.978 261.704 75.978C262.152 75.978 262.478 75.8847 262.684 75.698C262.889 75.5113 262.992 75.2967 262.992 75.054C262.992 74.6993 262.847 74.4613 262.558 74.34C262.278 74.2093 261.886 74.0927 261.382 73.99C260.99 73.906 260.598 73.794 260.206 73.654C259.823 73.514 259.501 73.318 259.24 73.066C258.988 72.8047 258.862 72.4547 258.862 72.016C258.862 71.4093 259.095 70.9053 259.562 70.504C260.028 70.0933 260.682 69.888 261.522 69.888C262.296 69.888 262.922 70.0747 263.398 70.448C263.883 70.8213 264.168 71.3487 264.252 72.03H262.824C262.777 71.7313 262.637 71.498 262.404 71.33C262.18 71.162 261.876 71.078 261.494 71.078C261.12 71.078 260.831 71.1573 260.626 71.316C260.42 71.4653 260.318 71.6613 260.318 71.904C260.318 72.1467 260.458 72.338 260.738 72.478C261.027 72.618 261.405 72.744 261.872 72.856C262.338 72.9587 262.768 73.08 263.16 73.22C263.561 73.3507 263.883 73.5467 264.126 73.808C264.368 74.0693 264.49 74.452 264.49 74.956C264.499 75.5907 264.252 76.118 263.748 76.538C263.253 76.958 262.576 77.168 261.718 77.168ZM269.358 77.168C268.677 77.168 268.07 77.0187 267.538 76.72C267.015 76.412 266.605 75.9873 266.306 75.446C266.007 74.9047 265.858 74.2747 265.858 73.556C265.858 72.828 266.003 72.1887 266.292 71.638C266.591 71.0873 267.001 70.658 267.524 70.35C268.056 70.042 268.672 69.888 269.372 69.888C270.053 69.888 270.646 70.042 271.15 70.35C271.654 70.6487 272.046 71.05 272.326 71.554C272.606 72.058 272.746 72.6133 272.746 73.22C272.746 73.3133 272.741 73.416 272.732 73.528C272.732 73.6307 272.727 73.7473 272.718 73.878H267.314C267.361 74.55 267.58 75.0633 267.972 75.418C268.373 75.7633 268.835 75.936 269.358 75.936C269.778 75.936 270.128 75.8427 270.408 75.656C270.697 75.46 270.912 75.1987 271.052 74.872H272.536C272.349 75.5253 271.976 76.0713 271.416 76.51C270.865 76.9487 270.179 77.168 269.358 77.168ZM269.358 71.106C268.863 71.106 268.425 71.2553 268.042 71.554C267.659 71.8433 267.426 72.282 267.342 72.87H271.262C271.234 72.3287 271.043 71.8993 270.688 71.582C270.333 71.2647 269.89 71.106 269.358 71.106Z" fill="white"/>
<rect x="157.5" y="100" width="116" height="32" rx="6" fill="white" fill-opacity="0.04"/>
<path d="M168.79 121.168C168.202 121.168 167.717 121.07 167.334 120.874C166.951 120.678 166.667 120.421 166.48 120.104C166.293 119.777 166.2 119.423 166.2 119.04C166.2 118.368 166.461 117.836 166.984 117.444C167.507 117.052 168.253 116.856 169.224 116.856H171.044V116.73C171.044 116.189 170.895 115.783 170.596 115.512C170.307 115.241 169.929 115.106 169.462 115.106C169.051 115.106 168.692 115.209 168.384 115.414C168.085 115.61 167.903 115.904 167.838 116.296H166.354C166.401 115.792 166.569 115.363 166.858 115.008C167.157 114.644 167.53 114.369 167.978 114.182C168.435 113.986 168.935 113.888 169.476 113.888C170.447 113.888 171.198 114.145 171.73 114.658C172.262 115.162 172.528 115.853 172.528 116.73V121H171.24L171.114 119.81C170.918 120.193 170.633 120.515 170.26 120.776C169.887 121.037 169.397 121.168 168.79 121.168ZM169.084 119.964C169.485 119.964 169.821 119.871 170.092 119.684C170.372 119.488 170.587 119.231 170.736 118.914C170.895 118.597 170.993 118.247 171.03 117.864H169.378C168.79 117.864 168.37 117.967 168.118 118.172C167.875 118.377 167.754 118.634 167.754 118.942C167.754 119.259 167.871 119.511 168.104 119.698C168.347 119.875 168.673 119.964 169.084 119.964ZM176.82 121.168C175.98 121.168 175.318 120.907 174.832 120.384C174.356 119.861 174.118 119.082 174.118 118.046V114.056H175.602V117.892C175.602 119.236 176.153 119.908 177.254 119.908C177.805 119.908 178.258 119.712 178.612 119.32C178.967 118.928 179.144 118.368 179.144 117.64V114.056H180.628V121H179.312L179.2 119.782C178.986 120.211 178.668 120.552 178.248 120.804C177.838 121.047 177.362 121.168 176.82 121.168ZM185.428 121C184.747 121 184.205 120.837 183.804 120.51C183.403 120.174 183.202 119.581 183.202 118.732V115.302H182.012V114.056H183.202L183.384 112.292H184.686V114.056H186.646V115.302H184.686V118.732C184.686 119.115 184.765 119.381 184.924 119.53C185.092 119.67 185.377 119.74 185.778 119.74H186.576V121H185.428ZM188.176 121V110.92H189.66V115.176C189.894 114.775 190.216 114.462 190.626 114.238C191.046 114.005 191.508 113.888 192.012 113.888C192.843 113.888 193.496 114.149 193.972 114.672C194.448 115.195 194.686 115.974 194.686 117.01V121H193.216V117.164C193.216 115.82 192.68 115.148 191.606 115.148C191.046 115.148 190.58 115.344 190.206 115.736C189.842 116.128 189.66 116.688 189.66 117.416V121H188.176ZM199.682 121.168C199.019 121.168 198.422 121.019 197.89 120.72C197.367 120.412 196.952 119.987 196.644 119.446C196.336 118.895 196.182 118.256 196.182 117.528C196.182 116.8 196.336 116.165 196.644 115.624C196.961 115.073 197.386 114.649 197.918 114.35C198.45 114.042 199.043 113.888 199.696 113.888C200.359 113.888 200.951 114.042 201.474 114.35C202.006 114.649 202.426 115.073 202.734 115.624C203.051 116.165 203.21 116.8 203.21 117.528C203.21 118.256 203.051 118.895 202.734 119.446C202.426 119.987 202.006 120.412 201.474 120.72C200.942 121.019 200.345 121.168 199.682 121.168ZM199.682 119.894C200.037 119.894 200.363 119.805 200.662 119.628C200.97 119.451 201.217 119.189 201.404 118.844C201.591 118.489 201.684 118.051 201.684 117.528C201.684 117.005 201.591 116.571 201.404 116.226C201.227 115.871 200.984 115.605 200.676 115.428C200.377 115.251 200.051 115.162 199.696 115.162C199.341 115.162 199.01 115.251 198.702 115.428C198.403 115.605 198.161 115.871 197.974 116.226C197.787 116.571 197.694 117.005 197.694 117.528C197.694 118.051 197.787 118.489 197.974 118.844C198.161 119.189 198.403 119.451 198.702 119.628C199.001 119.805 199.327 119.894 199.682 119.894ZM204.815 121V114.056H206.145L206.271 115.372C206.514 114.915 206.85 114.555 207.279 114.294C207.718 114.023 208.245 113.888 208.861 113.888V115.442H208.455C208.044 115.442 207.676 115.512 207.349 115.652C207.032 115.783 206.775 116.011 206.579 116.338C206.392 116.655 206.299 117.099 206.299 117.668V121H204.815ZM213.577 116.072V114.784H219.331V116.072H213.577ZM213.577 119.082V117.794H219.331V119.082H213.577ZM224.723 121V111.2H227.901C229.049 111.2 229.991 111.401 230.729 111.802C231.475 112.203 232.026 112.773 232.381 113.51C232.745 114.238 232.927 115.106 232.927 116.114C232.927 117.113 232.745 117.981 232.381 118.718C232.026 119.446 231.475 120.011 230.729 120.412C229.991 120.804 229.049 121 227.901 121H224.723ZM226.207 119.74H227.845C228.731 119.74 229.431 119.595 229.945 119.306C230.467 119.017 230.841 118.601 231.065 118.06C231.298 117.519 231.415 116.87 231.415 116.114C231.415 115.358 231.298 114.705 231.065 114.154C230.841 113.603 230.467 113.183 229.945 112.894C229.431 112.595 228.731 112.446 227.845 112.446H226.207V119.74ZM236.862 121.168C236.274 121.168 235.789 121.07 235.406 120.874C235.024 120.678 234.739 120.421 234.552 120.104C234.366 119.777 234.272 119.423 234.272 119.04C234.272 118.368 234.534 117.836 235.056 117.444C235.579 117.052 236.326 116.856 237.296 116.856H239.116V116.73C239.116 116.189 238.967 115.783 238.668 115.512C238.379 115.241 238.001 115.106 237.534 115.106C237.124 115.106 236.764 115.209 236.456 115.414C236.158 115.61 235.976 115.904 235.91 116.296H234.426C234.473 115.792 234.641 115.363 234.93 115.008C235.229 114.644 235.602 114.369 236.05 114.182C236.508 113.986 237.007 113.888 237.548 113.888C238.519 113.888 239.27 114.145 239.802 114.658C240.334 115.162 240.6 115.853 240.6 116.73V121H239.312L239.186 119.81C238.99 120.193 238.706 120.515 238.332 120.776C237.959 121.037 237.469 121.168 236.862 121.168ZM237.156 119.964C237.558 119.964 237.894 119.871 238.164 119.684C238.444 119.488 238.659 119.231 238.808 118.914C238.967 118.597 239.065 118.247 239.102 117.864H237.45C236.862 117.864 236.442 117.967 236.19 118.172C235.948 118.377 235.826 118.634 235.826 118.942C235.826 119.259 235.943 119.511 236.176 119.698C236.419 119.875 236.746 119.964 237.156 119.964ZM242.331 121V114.056H243.647L243.759 115.274C243.973 114.845 244.286 114.509 244.697 114.266C245.117 114.014 245.597 113.888 246.139 113.888C246.979 113.888 247.637 114.149 248.113 114.672C248.598 115.195 248.841 115.974 248.841 117.01V121H247.371V117.164C247.371 115.82 246.82 115.148 245.719 115.148C245.168 115.148 244.711 115.344 244.347 115.736C243.992 116.128 243.815 116.688 243.815 117.416V121H242.331ZM251.428 112.74C251.148 112.74 250.915 112.656 250.728 112.488C250.551 112.311 250.462 112.091 250.462 111.83C250.462 111.569 250.551 111.354 250.728 111.186C250.915 111.009 251.148 110.92 251.428 110.92C251.708 110.92 251.937 111.009 252.114 111.186C252.301 111.354 252.394 111.569 252.394 111.83C252.394 112.091 252.301 112.311 252.114 112.488C251.937 112.656 251.708 112.74 251.428 112.74ZM250.686 121V114.056H252.17V121H250.686ZM257.377 121.168C256.696 121.168 256.089 121.019 255.557 120.72C255.035 120.412 254.624 119.987 254.325 119.446C254.027 118.905 253.877 118.275 253.877 117.556C253.877 116.828 254.022 116.189 254.311 115.638C254.61 115.087 255.021 114.658 255.543 114.35C256.075 114.042 256.691 113.888 257.391 113.888C258.073 113.888 258.665 114.042 259.169 114.35C259.673 114.649 260.065 115.05 260.345 115.554C260.625 116.058 260.765 116.613 260.765 117.22C260.765 117.313 260.761 117.416 260.751 117.528C260.751 117.631 260.747 117.747 260.737 117.878H255.333C255.38 118.55 255.599 119.063 255.991 119.418C256.393 119.763 256.855 119.936 257.377 119.936C257.797 119.936 258.147 119.843 258.427 119.656C258.717 119.46 258.931 119.199 259.071 118.872H260.555C260.369 119.525 259.995 120.071 259.435 120.51C258.885 120.949 258.199 121.168 257.377 121.168ZM257.377 115.106C256.883 115.106 256.444 115.255 256.061 115.554C255.679 115.843 255.445 116.282 255.361 116.87H259.281C259.253 116.329 259.062 115.899 258.707 115.582C258.353 115.265 257.909 115.106 257.377 115.106ZM262.305 121V110.92H263.789V121H262.305Z" fill="white"/>
<defs>
<filter id="filter0_b_3813_6569" x="114" y="-24" width="50" height="192" filterUnits="userSpaceOnUse" color-interpolation-filters="sRGB">
<feFlood flood-opacity="0" result="BackgroundImageFix"/>
<feGaussianBlur in="BackgroundImageFix" stdDeviation="12"/>
<feComposite in2="SourceAlpha" operator="in" result="effect1_backgroundBlur_3813_6569"/>
<feBlend mode="normal" in="SourceGraphic" in2="effect1_backgroundBlur_3813_6569" result="shape"/>
</filter>
<radialGradient id="paint0_radial_3813_6569" cx="0" cy="0" r="1" gradientUnits="userSpaceOnUse" gradientTransform="translate(141 72) rotate(90) scale(72 141)">
<stop stop-color="#FFDA6E" stop-opacity="0.15"/>
<stop offset="1" stop-color="#FFDA6E" stop-opacity="0"/>
</radialGradient>
</defs>
</svg>
