<svg xmlns="http://www.w3.org/2000/svg" width="282" height="144" fill="none"><style><![CDATA[.B{fill-opacity:.04}]]></style><g filter="url(#A)"><rect x="138" width="2" height="144" rx="1" fill="#ffda6e"/></g><g fill="#000"><rect x="20.5" y="12" width="89" height="32" rx="6" class="B"/><path d="M31.384 33l-2.604-6.944h1.554l1.932 5.53 1.932-5.53h1.54L33.148 33h-1.764zm8.466.168c-.681 0-1.288-.149-1.82-.448a3.3 3.3 0 0 1-1.232-1.274c-.299-.541-.448-1.171-.448-1.89 0-.728.145-1.367.434-1.918.299-.551.709-.98 1.232-1.288.532-.308 1.148-.462 1.848-.462.681 0 1.274.154 1.778.462.504.299.896.7 1.176 1.204s.42 1.059.42 1.666l-.014.308-.014.35h-5.404c.047.672.266 1.185.658 1.54a2.06 2.06 0 0 0 1.386.518c.42 0 .77-.093 1.05-.28.289-.196.504-.457.644-.784h1.484c-.187.653-.56 1.199-1.12 1.638-.551.439-1.237.658-2.058.658zm0-6.062a2.08 2.08 0 0 0-1.316.448c-.383.289-.616.728-.7 1.316h3.92c-.028-.541-.219-.971-.574-1.288s-.798-.476-1.33-.476zM44.778 33v-6.944h1.33l.126 1.316c.243-.457.579-.817 1.008-1.078.439-.271.966-.406 1.582-.406v1.554h-.406c-.411 0-.779.07-1.106.21-.317.131-.574.359-.77.686-.187.317-.28.761-.28 1.33V33h-1.484zm8.09.168c-.877 0-1.601-.215-2.17-.644a2.41 2.41 0 0 1-.98-1.708h1.498c.075.317.252.593.532.826.28.224.649.336 1.106.336.448 0 .775-.093.98-.28s.308-.401.308-.644c0-.355-.145-.593-.434-.714-.28-.131-.672-.247-1.176-.35a9.27 9.27 0 0 1-1.176-.336c-.383-.14-.705-.336-.966-.588-.252-.261-.378-.611-.378-1.05a1.91 1.91 0 0 1 .7-1.512c.467-.411 1.12-.616 1.96-.616.775 0 1.4.187 1.876.56.485.373.77.901.854 1.582h-1.428a1.02 1.02 0 0 0-.42-.7c-.224-.168-.527-.252-.91-.252-.373 0-.663.079-.868.238-.205.149-.308.345-.308.588s.14.434.42.574a5.72 5.72 0 0 0 1.134.378 10.62 10.62 0 0 1 1.288.364c.401.131.723.327.966.588s.364.644.364 1.148c.009.635-.238 1.162-.742 1.582-.495.42-1.171.63-2.03.63zM58.1 24.74c-.28 0-.513-.084-.7-.252-.177-.177-.266-.397-.266-.658s.089-.476.266-.644c.187-.177.42-.266.7-.266s.509.089.686.266c.187.168.28.383.28.644a.87.87 0 0 1-.28.658c-.177.168-.406.252-.686.252zM57.358 33v-6.944h1.484V33h-1.484zm6.691.168c-.663 0-1.26-.149-1.792-.448-.523-.308-.938-.733-1.246-1.274-.308-.551-.462-1.19-.462-1.918s.154-1.363.462-1.904a3.34 3.34 0 0 1 1.274-1.274c.532-.308 1.125-.462 1.778-.462.663 0 1.255.154 1.778.462.532.299.952.723 1.26 1.274.317.541.476 1.176.476 1.904s-.159 1.367-.476 1.918a3.37 3.37 0 0 1-1.26 1.274c-.532.299-1.129.448-1.792.448zm0-1.274c.355 0 .681-.089.98-.266.308-.177.555-.439.742-.784.187-.355.28-.793.28-1.316s-.093-.957-.28-1.302c-.177-.355-.42-.621-.728-.798-.299-.177-.625-.266-.98-.266a1.96 1.96 0 0 0-.994.266c-.299.177-.541.443-.728.798-.187.345-.28.779-.28 1.302s.093.961.28 1.316c.187.345.429.607.728.784s.625.266.98.266zM69.182 33v-6.944h1.316l.112 1.218c.215-.429.527-.765.938-1.008.42-.252.901-.378 1.442-.378.84 0 1.498.261 1.974.784.485.523.728 1.302.728 2.338V33h-1.47v-3.836c0-1.344-.551-2.016-1.652-2.016-.551 0-1.008.196-1.372.588-.355.392-.532.952-.532 1.68V33h-1.484zm11.701-4.928v-1.288h5.754v1.288h-5.754zm0 3.01v-1.288h5.754v1.288h-5.754zM91.399 33l3.612-9.8h1.624l3.584 9.8h-1.568l-.84-2.394h-4.004L92.967 33h-1.568zm2.828-3.57h3.164l-1.582-4.466-1.582 4.466z"/><rect x="1" y="56" width="128" height="32" rx="6" class="B"/><path d="M9.938 77V66.92h1.484V77H9.938zm6.611.168c-.663 0-1.26-.149-1.792-.448-.523-.308-.938-.733-1.246-1.274-.308-.551-.462-1.19-.462-1.918s.154-1.363.462-1.904a3.34 3.34 0 0 1 1.274-1.274c.532-.308 1.125-.462 1.778-.462.663 0 1.255.154 1.778.462.532.299.952.723 1.26 1.274.317.541.476 1.176.476 1.904s-.159 1.367-.476 1.918a3.37 3.37 0 0 1-1.26 1.274c-.532.299-1.129.448-1.792.448zm0-1.274c.355 0 .681-.089.98-.266.308-.177.555-.439.742-.784.187-.355.28-.793.28-1.316s-.093-.957-.28-1.302c-.177-.355-.42-.621-.728-.798-.299-.177-.625-.266-.98-.266a1.96 1.96 0 0 0-.994.266c-.299.177-.541.443-.728.798-.187.345-.28.779-.28 1.302s.093.961.28 1.316c.187.345.429.607.728.784s.625.266.98.266zm8.745 4.354c-.597 0-1.157-.103-1.68-.308a3.2 3.2 0 0 1-1.302-.91c-.355-.401-.579-.905-.672-1.512h1.47c.121.439.373.789.756 1.05.392.261.863.392 1.414.392.597 0 1.111-.196 1.54-.588.429-.383.644-.961.644-1.736v-.938c-.215.364-.537.686-.966.966-.42.28-.947.42-1.582.42-.653 0-1.246-.154-1.778-.462a3.51 3.51 0 0 1-1.246-1.288 3.72 3.72 0 0 1-.462-1.848c0-.691.154-1.307.462-1.848s.723-.966 1.246-1.274a3.43 3.43 0 0 1 1.792-.476c.569 0 1.073.126 1.512.378.439.243.779.546 1.022.91l.14-1.12h1.344v6.524c0 .784-.163 1.447-.49 1.988a3.1 3.1 0 0 1-1.302 1.246c-.551.289-1.171.434-1.862.434zm-.112-4.438c.439 0 .826-.098 1.162-.294a2.26 2.26 0 0 0 .798-.826c.196-.355.294-.756.294-1.204 0-.457-.098-.859-.294-1.204a2.15 2.15 0 0 0-.798-.812c-.336-.196-.723-.294-1.162-.294-.429 0-.812.098-1.148.294a2.15 2.15 0 0 0-.798.812c-.196.345-.294.747-.294 1.204 0 .448.098.849.294 1.204a2.26 2.26 0 0 0 .798.826c.336.196.719.294 1.148.294zm9.259 4.438c-.597 0-1.157-.103-1.68-.308a3.2 3.2 0 0 1-1.302-.91c-.355-.401-.579-.905-.672-1.512h1.47c.121.439.373.789.756 1.05.392.261.863.392 1.414.392.597 0 1.111-.196 1.54-.588.429-.383.644-.961.644-1.736v-.938c-.215.364-.537.686-.966.966-.42.28-.947.42-1.582.42-.653 0-1.246-.154-1.778-.462a3.51 3.51 0 0 1-1.246-1.288 3.72 3.72 0 0 1-.462-1.848c0-.691.154-1.307.462-1.848s.723-.966 1.246-1.274a3.43 3.43 0 0 1 1.792-.476c.569 0 1.073.126 1.512.378.439.243.779.546 1.022.91l.14-1.12h1.344v6.524c0 .784-.163 1.447-.49 1.988a3.1 3.1 0 0 1-1.302 1.246c-.551.289-1.171.434-1.862.434zm-.112-4.438c.439 0 .826-.098 1.162-.294a2.26 2.26 0 0 0 .798-.826c.196-.355.294-.756.294-1.204 0-.457-.098-.859-.294-1.204a2.15 2.15 0 0 0-.798-.812c-.336-.196-.723-.294-1.162-.294-.429 0-.812.098-1.148.294a2.15 2.15 0 0 0-.798.812c-.196.345-.294.747-.294 1.204 0 .448.098.849.294 1.204a2.26 2.26 0 0 0 .798.826c.336.196.719.294 1.148.294zm8.895 1.358c-.681 0-1.288-.149-1.82-.448a3.3 3.3 0 0 1-1.232-1.274c-.299-.541-.448-1.171-.448-1.89 0-.728.145-1.367.434-1.918.299-.551.709-.98 1.232-1.288.532-.308 1.148-.462 1.848-.462.681 0 1.274.154 1.778.462.504.299.896.7 1.176 1.204s.42 1.059.42 1.666l-.014.308-.014.35h-5.404c.047.672.266 1.185.658 1.54a2.06 2.06 0 0 0 1.386.518c.42 0 .77-.093 1.05-.28.289-.196.504-.457.644-.784h1.484c-.187.653-.56 1.199-1.12 1.638-.551.439-1.237.658-2.058.658zm0-6.062a2.08 2.08 0 0 0-1.316.448c-.383.289-.616.728-.7 1.316h3.92c-.028-.541-.219-.971-.574-1.288s-.798-.476-1.33-.476zm8.092 6.062c-.672 0-1.265-.159-1.778-.476s-.915-.751-1.204-1.302-.434-1.176-.434-1.876.145-1.321.434-1.862c.289-.551.691-.98 1.204-1.288.523-.317 1.12-.476 1.792-.476.551 0 1.031.107 1.442.322.42.215.747.518.98.91v-4.2h1.484V77h-1.33l-.154-1.078c-.224.327-.532.616-.924.868s-.896.378-1.512.378zm.266-1.288c.635 0 1.153-.219 1.554-.658.411-.439.616-1.003.616-1.694 0-.7-.205-1.265-.616-1.694-.401-.439-.919-.658-1.554-.658s-1.157.219-1.568.658c-.411.429-.616.994-.616 1.694 0 .457.093.863.28 1.218s.443.635.77.84c.336.196.714.294 1.134.294zm5.371 3.038v-1.4h7.686v1.4h-7.686zm10.25-10.178c-.28 0-.513-.084-.7-.252-.177-.177-.266-.397-.266-.658s.089-.476.266-.644c.187-.177.42-.266.7-.266s.509.089.686.266c.187.168.28.383.28.644a.87.87 0 0 1-.28.658c-.177.168-.406.252-.686.252zM66.46 77v-6.944h1.484V77H66.46zm3.443 0v-6.944h1.316l.112 1.218c.215-.429.527-.765.938-1.008.42-.252.901-.378 1.442-.378.84 0 1.498.261 1.974.784.485.523.728 1.302.728 2.338V77h-1.47v-3.836c0-1.344-.551-2.016-1.652-2.016-.551 0-1.008.196-1.372.588-.355.392-.532.952-.532 1.68V77h-1.484zm11.701-4.928v-1.288h5.754v1.288h-5.754zm0 3.01v-1.288h5.754v1.288h-5.754zM95.046 77v-8.596h-2.898V67.2h7.266v1.204H96.53V77h-1.484zm4.962 0v-6.944h1.33l.126 1.316a2.74 2.74 0 0 1 1.008-1.078c.439-.271.966-.406 1.582-.406v1.554h-.406c-.41 0-.779.07-1.106.21-.317.131-.574.359-.77.686-.186.317-.28.761-.28 1.33V77h-1.484zm7.881.168c-.84 0-1.503-.261-1.988-.784-.476-.523-.714-1.302-.714-2.338v-3.99h1.484v3.836c0 1.344.55 2.016 1.652 2.016a1.75 1.75 0 0 0 1.358-.588c.354-.392.532-.952.532-1.68v-3.584h1.484V77h-1.316l-.112-1.218a2.45 2.45 0 0 1-.952 1.022c-.411.243-.887.364-1.428.364zm8.943 0c-.681 0-1.288-.149-1.82-.448-.522-.308-.933-.733-1.232-1.274s-.448-1.171-.448-1.89c0-.728.145-1.367.434-1.918a3.28 3.28 0 0 1 1.232-1.288c.532-.308 1.148-.462 1.848-.462.682 0 1.274.154 1.778.462.504.299.896.7 1.176 1.204s.42 1.059.42 1.666l-.014.308-.014.35h-5.404c.047.672.266 1.185.658 1.54.402.345.864.518 1.386.518.42 0 .77-.093 1.05-.28.29-.196.504-.457.644-.784h1.484c-.186.653-.56 1.199-1.12 1.638-.55.439-1.236.658-2.058.658zm0-6.062a2.08 2.08 0 0 0-1.316.448c-.382.289-.616.728-.7 1.316h3.92c-.028-.541-.219-.971-.574-1.288s-.798-.476-1.33-.476z"/><rect x="5.5" y="100" width="119" height="32" rx="6" class="B"/><path d="M16.79 121.168c-.588 0-1.073-.098-1.456-.294s-.667-.453-.854-.77c-.187-.327-.28-.681-.28-1.064 0-.672.261-1.204.784-1.596s1.269-.588 2.24-.588h1.82v-.126c0-.541-.149-.947-.448-1.218-.289-.271-.667-.406-1.134-.406a1.9 1.9 0 0 0-1.078.308c-.299.196-.481.49-.546.882h-1.484c.047-.504.215-.933.504-1.288.299-.364.672-.639 1.12-.826.457-.196.957-.294 1.498-.294.971 0 1.722.257 2.254.77.532.504.798 1.195.798 2.072V121H19.24l-.126-1.19c-.196.383-.481.705-.854.966s-.863.392-1.47.392zm.294-1.204c.401 0 .737-.093 1.008-.28a1.92 1.92 0 0 0 .644-.77c.159-.317.257-.667.294-1.05h-1.652c-.588 0-1.008.103-1.26.308-.243.205-.364.462-.364.77 0 .317.117.569.35.756.243.177.569.266.98.266zm7.736 1.204c-.84 0-1.503-.261-1.988-.784-.476-.523-.714-1.302-.714-2.338v-3.99h1.484v3.836c0 1.344.551 2.016 1.652 2.016.551 0 1.003-.196 1.358-.588s.532-.952.532-1.68v-3.584h1.484V121h-1.316l-.112-1.218a2.45 2.45 0 0 1-.952 1.022c-.411.243-.887.364-1.428.364zm8.608-.168c-.681 0-1.223-.163-1.624-.49-.401-.336-.602-.929-.602-1.778v-3.43h-1.19v-1.246h1.19l.182-1.764h1.302v1.764h1.96v1.246h-1.96v3.43c0 .383.079.649.238.798.168.14.453.21.854.21h.798V121h-1.148zm2.748 0v-10.08h1.484v4.256a2.46 2.46 0 0 1 .966-.938 2.81 2.81 0 0 1 1.386-.35c.831 0 1.484.261 1.96.784s.714 1.302.714 2.338V121h-1.47v-3.836c0-1.344-.537-2.016-1.61-2.016-.56 0-1.027.196-1.4.588-.364.392-.546.952-.546 1.68V121h-1.484zm11.506.168c-.663 0-1.26-.149-1.792-.448-.523-.308-.938-.733-1.246-1.274-.308-.551-.462-1.19-.462-1.918s.154-1.363.462-1.904a3.34 3.34 0 0 1 1.274-1.274c.532-.308 1.125-.462 1.778-.462.663 0 1.255.154 1.778.462.532.299.952.723 1.26 1.274.317.541.476 1.176.476 1.904s-.159 1.367-.476 1.918c-.308.541-.728.966-1.26 1.274-.532.299-1.129.448-1.792.448zm0-1.274c.355 0 .681-.089.98-.266.308-.177.555-.439.742-.784.187-.355.28-.793.28-1.316s-.093-.957-.28-1.302c-.177-.355-.42-.621-.728-.798-.299-.177-.625-.266-.98-.266a1.96 1.96 0 0 0-.994.266c-.299.177-.541.443-.728.798-.187.345-.28.779-.28 1.302s.093.961.28 1.316c.187.345.429.607.728.784s.625.266.98.266zM52.815 121v-6.944h1.33l.126 1.316c.243-.457.579-.817 1.008-1.078.439-.271.966-.406 1.582-.406v1.554h-.406c-.411 0-.779.07-1.106.21-.317.131-.574.359-.77.686-.187.317-.28.761-.28 1.33V121h-1.484zm8.762-4.928v-1.288h5.754v1.288h-5.754zm0 3.01v-1.288h5.754v1.288h-5.754zM72.723 121v-9.8h1.75l3.318 6.524 3.304-6.524h1.75v9.8h-1.484v-7.238l-2.996 5.838h-1.148l-3.01-5.824V121h-1.484zm14.409.168c-.588 0-1.073-.098-1.456-.294s-.667-.453-.854-.77c-.187-.327-.28-.681-.28-1.064 0-.672.261-1.204.784-1.596s1.269-.588 2.24-.588h1.82v-.126c0-.541-.149-.947-.448-1.218-.289-.271-.667-.406-1.134-.406a1.9 1.9 0 0 0-1.078.308c-.299.196-.481.49-.546.882h-1.484c.047-.504.215-.933.504-1.288.299-.364.672-.639 1.12-.826.457-.196.957-.294 1.498-.294.971 0 1.722.257 2.254.77.532.504.798 1.195.798 2.072V121h-1.288l-.126-1.19c-.196.383-.481.705-.854.966s-.863.392-1.47.392zm.294-1.204c.401 0 .737-.093 1.008-.28a1.92 1.92 0 0 0 .644-.77c.159-.317.257-.667.294-1.05H87.72c-.588 0-1.008.103-1.26.308-.243.205-.364.462-.364.77 0 .317.117.569.35.756.243.177.569.266.98.266zM92.6 121v-6.944h1.33l.126 1.316c.243-.457.579-.817 1.008-1.078.439-.271.966-.406 1.582-.406v1.554h-.406c-.411 0-.779.07-1.106.21-.317.131-.574.359-.77.686-.187.317-.28.761-.28 1.33V121H92.6zm7.264 0l-2.604-6.944h1.554l1.931 5.53 1.932-5.53h1.54l-2.59 6.944h-1.763zm6.413-8.26c-.28 0-.513-.084-.7-.252-.177-.177-.266-.397-.266-.658a.85.85 0 0 1 .266-.644c.187-.177.42-.266.7-.266s.509.089.686.266c.187.168.28.383.28.644a.87.87 0 0 1-.28.658c-.177.168-.406.252-.686.252zm-.742 8.26v-6.944h1.484V121h-1.484zm3.443 0v-6.944h1.316l.112 1.218a2.39 2.39 0 0 1 .938-1.008c.42-.252.901-.378 1.442-.378.84 0 1.498.261 1.974.784.485.523.728 1.302.728 2.338V121h-1.47v-3.836c0-1.344-.551-2.016-1.652-2.016a1.79 1.79 0 0 0-1.372.588c-.355.392-.532.952-.532 1.68V121h-1.484z"/><rect x="171.5" y="12" width="88" height="32" rx="6" class="B"/><path d="M182.384 33l-2.604-6.944h1.554l1.932 5.53 1.932-5.53h1.54L184.148 33h-1.764zm8.466.168c-.681 0-1.288-.149-1.82-.448a3.3 3.3 0 0 1-1.232-1.274c-.299-.541-.448-1.171-.448-1.89 0-.728.145-1.367.434-1.918.299-.551.709-.98 1.232-1.288.532-.308 1.148-.462 1.848-.462.681 0 1.274.154 1.778.462.504.299.896.7 1.176 1.204s.42 1.059.42 1.666l-.014.308-.014.35h-5.404c.047.672.266 1.185.658 1.54a2.06 2.06 0 0 0 1.386.518c.42 0 .77-.093 1.05-.28a1.77 1.77 0 0 0 .644-.784h1.484c-.187.653-.56 1.199-1.12 1.638-.551.439-1.237.658-2.058.658zm0-6.062a2.08 2.08 0 0 0-1.316.448c-.383.289-.616.728-.7 1.316h3.92c-.028-.541-.219-.971-.574-1.288s-.798-.476-1.33-.476zM195.778 33v-6.944h1.33l.126 1.316a2.74 2.74 0 0 1 1.008-1.078c.439-.271.966-.406 1.582-.406v1.554h-.406c-.411 0-.779.07-1.106.21-.317.131-.574.359-.77.686-.187.317-.28.761-.28 1.33V33h-1.484zm8.09.168c-.877 0-1.6-.215-2.17-.644a2.41 2.41 0 0 1-.98-1.708h1.498c.075.317.252.593.532.826.28.224.649.336 1.106.336.448 0 .775-.093.98-.28s.308-.401.308-.644c0-.355-.144-.593-.434-.714-.28-.131-.672-.247-1.176-.35a9.27 9.27 0 0 1-1.176-.336c-.382-.14-.704-.336-.966-.588-.252-.261-.378-.611-.378-1.05a1.91 1.91 0 0 1 .7-1.512c.467-.411 1.12-.616 1.96-.616.775 0 1.4.187 1.876.56.486.373.77.901.854 1.582h-1.428c-.046-.299-.186-.532-.42-.7-.224-.168-.527-.252-.91-.252-.373 0-.662.079-.868.238-.205.149-.308.345-.308.588s.14.434.42.574c.29.14.668.266 1.134.378.467.103.896.224 1.288.364.402.131.724.327.966.588s.364.644.364 1.148a1.93 1.93 0 0 1-.742 1.582c-.494.42-1.171.63-2.03.63zm5.232-8.428c-.28 0-.513-.084-.7-.252-.177-.177-.266-.397-.266-.658a.85.85 0 0 1 .266-.644c.187-.177.42-.266.7-.266s.509.089.686.266c.187.168.28.383.28.644a.87.87 0 0 1-.28.658c-.177.168-.406.252-.686.252zm-.742 8.26v-6.944h1.484V33h-1.484zm6.691.168c-.662 0-1.26-.149-1.792-.448-.522-.308-.938-.733-1.246-1.274-.308-.551-.462-1.19-.462-1.918s.154-1.363.462-1.904c.318-.551.742-.975 1.274-1.274.532-.308 1.125-.462 1.778-.462.663 0 1.256.154 1.778.462.532.299.952.723 1.26 1.274.318.541.476 1.176.476 1.904s-.158 1.367-.476 1.918a3.37 3.37 0 0 1-1.26 1.274c-.532.299-1.129.448-1.792.448zm0-1.274a1.88 1.88 0 0 0 .98-.266 1.94 1.94 0 0 0 .742-.784c.187-.355.28-.793.28-1.316s-.093-.957-.28-1.302c-.177-.355-.42-.621-.728-.798a1.88 1.88 0 0 0-.98-.266 1.96 1.96 0 0 0-.994.266c-.298.177-.541.443-.728.798-.186.345-.28.779-.28 1.302s.094.961.28 1.316c.187.345.43.607.728.784s.626.266.98.266zM220.182 33v-6.944h1.316l.112 1.218c.215-.429.527-.765.938-1.008.42-.252.901-.378 1.442-.378.84 0 1.498.261 1.974.784.485.523.728 1.302.728 2.338V33h-1.47v-3.836c0-1.344-.551-2.016-1.652-2.016a1.79 1.79 0 0 0-1.372.588c-.355.392-.532.952-.532 1.68V33h-1.484zm11.701-4.928v-1.288h5.754v1.288h-5.754zm0 3.01v-1.288h5.754v1.288h-5.754zM243.029 33v-9.8h3.696c1.017 0 1.787.238 2.31.714a2.32 2.32 0 0 1 .784 1.792c0 .625-.168 1.125-.504 1.498-.336.364-.742.611-1.218.742.373.075.705.224.994.448.299.224.532.504.7.84s.252.7.252 1.092a2.57 2.57 0 0 1-.378 1.372c-.243.401-.602.719-1.078.952s-1.059.35-1.75.35h-3.808zm1.484-5.6h2.03c.569 0 1.003-.131 1.302-.392.299-.271.448-.639.448-1.106 0-.457-.149-.821-.448-1.092-.289-.271-.733-.406-1.33-.406h-2.002V27.4zm0 4.382h2.128c.597 0 1.059-.14 1.386-.42.336-.28.504-.672.504-1.176s-.173-.901-.518-1.19c-.345-.299-.812-.448-1.4-.448h-2.1v3.234z"/><rect x="149" y="56" width="133" height="32" rx="6" class="B"/><path d="M157.938 77V66.92h1.484V77h-1.484zm6.611.168c-.662 0-1.26-.149-1.792-.448-.522-.308-.938-.733-1.246-1.274-.308-.551-.462-1.19-.462-1.918s.154-1.363.462-1.904c.318-.551.742-.975 1.274-1.274.532-.308 1.125-.462 1.778-.462.663 0 1.256.154 1.778.462.532.299.952.723 1.26 1.274.318.541.476 1.176.476 1.904s-.158 1.367-.476 1.918a3.37 3.37 0 0 1-1.26 1.274c-.532.299-1.129.448-1.792.448zm0-1.274a1.88 1.88 0 0 0 .98-.266 1.94 1.94 0 0 0 .742-.784c.187-.355.28-.793.28-1.316s-.093-.957-.28-1.302c-.177-.355-.42-.621-.728-.798a1.88 1.88 0 0 0-.98-.266 1.96 1.96 0 0 0-.994.266c-.298.177-.541.443-.728.798-.186.345-.28.779-.28 1.302s.094.961.28 1.316c.187.345.43.607.728.784s.626.266.98.266zm8.745 4.354c-.597 0-1.157-.103-1.68-.308-.513-.196-.947-.499-1.302-.91-.355-.401-.579-.905-.672-1.512h1.47c.121.439.373.789.756 1.05.392.261.863.392 1.414.392.597 0 1.111-.196 1.54-.588.429-.383.644-.961.644-1.736v-.938c-.215.364-.537.686-.966.966-.42.28-.947.42-1.582.42-.653 0-1.246-.154-1.778-.462-.523-.317-.938-.747-1.246-1.288a3.72 3.72 0 0 1-.462-1.848c0-.691.154-1.307.462-1.848a3.4 3.4 0 0 1 1.246-1.274 3.43 3.43 0 0 1 1.792-.476c.569 0 1.073.126 1.512.378.439.243.779.546 1.022.91l.14-1.12h1.344v6.524c0 .784-.163 1.447-.49 1.988-.317.551-.751.966-1.302 1.246-.551.289-1.171.434-1.862.434zm-.112-4.438c.439 0 .826-.098 1.162-.294a2.26 2.26 0 0 0 .798-.826c.196-.355.294-.756.294-1.204 0-.457-.098-.859-.294-1.204a2.15 2.15 0 0 0-.798-.812c-.336-.196-.723-.294-1.162-.294-.429 0-.812.098-1.148.294a2.15 2.15 0 0 0-.798.812c-.196.345-.294.747-.294 1.204 0 .448.098.849.294 1.204a2.26 2.26 0 0 0 .798.826c.336.196.719.294 1.148.294zm9.259 4.438a4.55 4.55 0 0 1-1.68-.308c-.514-.196-.948-.499-1.302-.91-.355-.401-.579-.905-.672-1.512h1.47c.121.439.373.789.756 1.05.392.261.863.392 1.414.392.597 0 1.11-.196 1.54-.588.429-.383.644-.961.644-1.736v-.938c-.215.364-.537.686-.966.966-.42.28-.948.42-1.582.42-.654 0-1.246-.154-1.778-.462-.523-.317-.938-.747-1.246-1.288a3.72 3.72 0 0 1-.462-1.848c0-.691.154-1.307.462-1.848a3.4 3.4 0 0 1 1.246-1.274 3.43 3.43 0 0 1 1.792-.476c.569 0 1.073.126 1.512.378.438.243.779.546 1.022.91l.14-1.12h1.344v6.524c0 .784-.164 1.447-.49 1.988-.318.551-.752.966-1.302 1.246-.551.289-1.172.434-1.862.434zm-.112-4.438c.438 0 .826-.098 1.162-.294a2.26 2.26 0 0 0 .798-.826c.196-.355.294-.756.294-1.204 0-.457-.098-.859-.294-1.204a2.15 2.15 0 0 0-.798-.812c-.336-.196-.724-.294-1.162-.294-.43 0-.812.098-1.148.294a2.15 2.15 0 0 0-.798.812c-.196.345-.294.747-.294 1.204 0 .448.098.849.294 1.204a2.26 2.26 0 0 0 .798.826c.336.196.718.294 1.148.294zm8.894 1.358c-.681 0-1.288-.149-1.82-.448a3.3 3.3 0 0 1-1.232-1.274c-.299-.541-.448-1.171-.448-1.89 0-.728.145-1.367.434-1.918.299-.551.709-.98 1.232-1.288.532-.308 1.148-.462 1.848-.462.681 0 1.274.154 1.778.462.504.299.896.7 1.176 1.204s.42 1.059.42 1.666l-.014.308-.014.35h-5.404c.047.672.266 1.185.658 1.54a2.06 2.06 0 0 0 1.386.518c.42 0 .77-.093 1.05-.28a1.77 1.77 0 0 0 .644-.784h1.484c-.187.653-.56 1.199-1.12 1.638-.551.439-1.237.658-2.058.658zm0-6.062a2.08 2.08 0 0 0-1.316.448c-.383.289-.616.728-.7 1.316h3.92c-.028-.541-.219-.971-.574-1.288s-.798-.476-1.33-.476zm8.092 6.062c-.672 0-1.265-.159-1.778-.476s-.915-.751-1.204-1.302-.434-1.176-.434-1.876.145-1.321.434-1.862c.289-.551.691-.98 1.204-1.288.523-.317 1.12-.476 1.792-.476.551 0 1.031.107 1.442.322.42.215.747.518.98.91v-4.2h1.484V77h-1.33l-.154-1.078c-.224.327-.532.616-.924.868s-.896.378-1.512.378zm.266-1.288c.635 0 1.153-.219 1.554-.658.411-.439.616-1.003.616-1.694 0-.7-.205-1.265-.616-1.694-.401-.439-.919-.658-1.554-.658s-1.157.219-1.568.658c-.411.429-.616.994-.616 1.694 0 .457.093.863.28 1.218s.443.635.77.84c.336.196.714.294 1.134.294zm5.371 3.038v-1.4h7.686v1.4h-7.686zm10.25-10.178c-.28 0-.514-.084-.7-.252a.89.89 0 0 1-.266-.658c0-.261.088-.476.266-.644.186-.177.42-.266.7-.266s.508.089.686.266a.83.83 0 0 1 .28.644c0 .261-.094.481-.28.658-.178.168-.406.252-.686.252zM214.46 77v-6.944h1.484V77h-1.484zm3.443 0v-6.944h1.316l.112 1.218c.215-.429.527-.765.938-1.008.42-.252.901-.378 1.442-.378.84 0 1.498.261 1.974.784.485.523.728 1.302.728 2.338V77h-1.47v-3.836c0-1.344-.551-2.016-1.652-2.016a1.79 1.79 0 0 0-1.372.588c-.355.392-.532.952-.532 1.68V77h-1.484zm11.701-4.928v-1.288h5.754v1.288h-5.754zm0 3.01v-1.288h5.754v1.288h-5.754zM240.75 77v-9.8h6.146v1.204h-4.662v3.094h3.864v1.19h-3.864V77h-1.484zm9.364.168c-.588 0-1.073-.098-1.456-.294s-.667-.453-.854-.77c-.186-.327-.28-.681-.28-1.064a1.89 1.89 0 0 1 .784-1.596c.523-.392 1.27-.588 2.24-.588h1.82v-.126c0-.541-.149-.947-.448-1.218-.289-.271-.667-.406-1.134-.406-.41 0-.77.103-1.078.308-.298.196-.48.49-.546.882h-1.484c.047-.504.215-.933.504-1.288.299-.364.672-.639 1.12-.826.458-.196.957-.294 1.498-.294.971 0 1.722.257 2.254.77.532.504.798 1.195.798 2.072V77h-1.288l-.126-1.19a2.63 2.63 0 0 1-.854.966c-.373.261-.863.392-1.47.392zm.294-1.204c.402 0 .738-.093 1.008-.28.28-.196.495-.453.644-.77.159-.317.257-.667.294-1.05h-1.652c-.588 0-1.008.103-1.26.308a.97.97 0 0 0-.364.77c0 .317.117.569.35.756.243.177.57.266.98.266zM255.583 77V66.92h1.484V77h-1.484zm6.135.168c-.878 0-1.601-.215-2.17-.644a2.41 2.41 0 0 1-.98-1.708h1.498c.074.317.252.593.532.826.28.224.648.336 1.106.336.448 0 .774-.093.98-.28s.308-.401.308-.644c0-.355-.145-.593-.434-.714-.28-.131-.672-.247-1.176-.35a9.27 9.27 0 0 1-1.176-.336c-.383-.14-.705-.336-.966-.588-.252-.261-.378-.611-.378-1.05 0-.607.233-1.111.7-1.512.466-.411 1.12-.616 1.96-.616.774 0 1.4.187 1.876.56.485.373.77.901.854 1.582h-1.428a1.02 1.02 0 0 0-.42-.7c-.224-.168-.528-.252-.91-.252-.374 0-.663.079-.868.238a.69.69 0 0 0-.308.588c0 .243.14.434.42.574.289.14.667.266 1.134.378.466.103.896.224 1.288.364.401.131.723.327.966.588s.364.644.364 1.148c.009.635-.238 1.162-.742 1.582-.495.42-1.172.63-2.03.63zm7.64 0c-.681 0-1.288-.149-1.82-.448a3.3 3.3 0 0 1-1.232-1.274c-.299-.541-.448-1.171-.448-1.89 0-.728.145-1.367.434-1.918.299-.551.709-.98 1.232-1.288.532-.308 1.148-.462 1.848-.462.681 0 1.274.154 1.778.462.504.299.896.7 1.176 1.204s.42 1.059.42 1.666l-.014.308-.014.35h-5.404c.047.672.266 1.185.658 1.54a2.06 2.06 0 0 0 1.386.518c.42 0 .77-.093 1.05-.28a1.77 1.77 0 0 0 .644-.784h1.484c-.187.653-.56 1.199-1.12 1.638-.551.439-1.237.658-2.058.658zm0-6.062a2.08 2.08 0 0 0-1.316.448c-.383.289-.616.728-.7 1.316h3.92c-.028-.541-.219-.971-.574-1.288s-.798-.476-1.33-.476z"/><rect x="157.5" y="100" width="116" height="32" rx="6" class="B"/><path d="M168.79 121.168c-.588 0-1.073-.098-1.456-.294s-.667-.453-.854-.77c-.187-.327-.28-.681-.28-1.064 0-.672.261-1.204.784-1.596s1.269-.588 2.24-.588h1.82v-.126c0-.541-.149-.947-.448-1.218-.289-.271-.667-.406-1.134-.406-.411 0-.77.103-1.078.308-.299.196-.481.49-.546.882h-1.484c.047-.504.215-.933.504-1.288a2.84 2.84 0 0 1 1.12-.826c.457-.196.957-.294 1.498-.294.971 0 1.722.257 2.254.77.532.504.798 1.195.798 2.072V121h-1.288l-.126-1.19c-.196.383-.481.705-.854.966s-.863.392-1.47.392zm.294-1.204c.401 0 .737-.093 1.008-.28a1.92 1.92 0 0 0 .644-.77c.159-.317.257-.667.294-1.05h-1.652c-.588 0-1.008.103-1.26.308-.243.205-.364.462-.364.77 0 .317.117.569.35.756.243.177.569.266.98.266zm7.736 1.204c-.84 0-1.502-.261-1.988-.784-.476-.523-.714-1.302-.714-2.338v-3.99h1.484v3.836c0 1.344.551 2.016 1.652 2.016.551 0 1.004-.196 1.358-.588s.532-.952.532-1.68v-3.584h1.484V121h-1.316l-.112-1.218c-.214.429-.532.77-.952 1.022-.41.243-.886.364-1.428.364zm8.608-.168c-.681 0-1.223-.163-1.624-.49-.401-.336-.602-.929-.602-1.778v-3.43h-1.19v-1.246h1.19l.182-1.764h1.302v1.764h1.96v1.246h-1.96v3.43c0 .383.079.649.238.798.168.14.453.21.854.21h.798V121h-1.148zm2.748 0v-10.08h1.484v4.256a2.47 2.47 0 0 1 .966-.938 2.81 2.81 0 0 1 1.386-.35c.831 0 1.484.261 1.96.784s.714 1.302.714 2.338V121h-1.47v-3.836c0-1.344-.536-2.016-1.61-2.016-.56 0-1.026.196-1.4.588-.364.392-.546.952-.546 1.68V121h-1.484zm11.506.168c-.663 0-1.26-.149-1.792-.448-.523-.308-.938-.733-1.246-1.274-.308-.551-.462-1.19-.462-1.918s.154-1.363.462-1.904c.317-.551.742-.975 1.274-1.274.532-.308 1.125-.462 1.778-.462.663 0 1.255.154 1.778.462.532.299.952.723 1.26 1.274.317.541.476 1.176.476 1.904s-.159 1.367-.476 1.918c-.308.541-.728.966-1.26 1.274-.532.299-1.129.448-1.792.448zm0-1.274c.355 0 .681-.089.98-.266.308-.177.555-.439.742-.784.187-.355.28-.793.28-1.316s-.093-.957-.28-1.302c-.177-.355-.42-.621-.728-.798-.299-.177-.625-.266-.98-.266a1.96 1.96 0 0 0-.994.266c-.299.177-.541.443-.728.798-.187.345-.28.779-.28 1.302s.093.961.28 1.316c.187.345.429.607.728.784s.625.266.98.266zm5.133 1.106v-6.944h1.33l.126 1.316c.243-.457.579-.817 1.008-1.078.439-.271.966-.406 1.582-.406v1.554h-.406c-.411 0-.779.07-1.106.21-.317.131-.574.359-.77.686-.187.317-.28.761-.28 1.33V121h-1.484zm8.762-4.928v-1.288h5.754v1.288h-5.754zm0 3.01v-1.288h5.754v1.288h-5.754zM224.723 121v-9.8h3.178c1.148 0 2.09.201 2.828.602.746.401 1.297.971 1.652 1.708.364.728.546 1.596.546 2.604 0 .999-.182 1.867-.546 2.604-.355.728-.906 1.293-1.652 1.694-.738.392-1.68.588-2.828.588h-3.178zm1.484-1.26h1.638c.886 0 1.586-.145 2.1-.434a2.47 2.47 0 0 0 1.12-1.246c.233-.541.35-1.19.35-1.946s-.117-1.409-.35-1.96a2.46 2.46 0 0 0-1.12-1.26c-.514-.299-1.214-.448-2.1-.448h-1.638v7.294zm10.655 1.428c-.588 0-1.073-.098-1.456-.294s-.667-.453-.854-.77c-.186-.327-.28-.681-.28-1.064a1.89 1.89 0 0 1 .784-1.596c.523-.392 1.27-.588 2.24-.588h1.82v-.126c0-.541-.149-.947-.448-1.218-.289-.271-.667-.406-1.134-.406-.41 0-.77.103-1.078.308-.298.196-.48.49-.546.882h-1.484c.047-.504.215-.933.504-1.288a2.84 2.84 0 0 1 1.12-.826c.458-.196.957-.294 1.498-.294.971 0 1.722.257 2.254.77.532.504.798 1.195.798 2.072V121h-1.288l-.126-1.19c-.196.383-.48.705-.854.966s-.863.392-1.47.392zm.294-1.204c.402 0 .738-.093 1.008-.28a1.92 1.92 0 0 0 .644-.77c.159-.317.257-.667.294-1.05h-1.652c-.588 0-1.008.103-1.26.308a.97.97 0 0 0-.364.77c0 .317.117.569.35.756.243.177.57.266.98.266zm5.175 1.036v-6.944h1.316l.112 1.218c.214-.429.527-.765.938-1.008.42-.252.9-.378 1.442-.378.84 0 1.498.261 1.974.784.485.523.728 1.302.728 2.338V121h-1.47v-3.836c0-1.344-.551-2.016-1.652-2.016a1.79 1.79 0 0 0-1.372.588c-.355.392-.532.952-.532 1.68V121h-1.484zm9.097-8.26c-.28 0-.513-.084-.7-.252-.177-.177-.266-.397-.266-.658a.85.85 0 0 1 .266-.644c.187-.177.42-.266.7-.266s.509.089.686.266c.187.168.28.383.28.644a.87.87 0 0 1-.28.658c-.177.168-.406.252-.686.252zm-.742 8.26v-6.944h1.484V121h-1.484zm6.691.168c-.681 0-1.288-.149-1.82-.448a3.31 3.31 0 0 1-1.232-1.274c-.298-.541-.448-1.171-.448-1.89 0-.728.145-1.367.434-1.918a3.28 3.28 0 0 1 1.232-1.288c.532-.308 1.148-.462 1.848-.462.682 0 1.274.154 1.778.462.504.299.896.7 1.176 1.204a3.37 3.37 0 0 1 .42 1.666l-.014.308-.014.35h-5.404c.047.672.266 1.185.658 1.54.402.345.864.518 1.386.518.42 0 .77-.093 1.05-.28a1.76 1.76 0 0 0 .644-.784h1.484c-.186.653-.56 1.199-1.12 1.638-.55.439-1.236.658-2.058.658zm0-6.062a2.08 2.08 0 0 0-1.316.448c-.382.289-.616.728-.7 1.316h3.92c-.028-.541-.219-.971-.574-1.288s-.798-.476-1.33-.476zm4.928 5.894v-10.08h1.484V121h-1.484z"/></g><defs><filter id="A" x="114" y="-24" width="50" height="192" filterUnits="userSpaceOnUse" color-interpolation-filters="sRGB"><feFlood flood-opacity="0"/><feGaussianBlur stdDeviation="12"/><feComposite in2="SourceAlpha" operator="in"/><feBlend in="SourceGraphic"/></filter></defs></svg>