<svg xmlns="http://www.w3.org/2000/svg" width="568" height="470" fill="none"><style><![CDATA[.B{fill:#000}.C{fill:#6ece9d}.D{stroke:#000}.E{stroke-width:2}.F{fill-opacity:.04}]]></style><rect width="568" height="470" rx="8" fill="#f8f5ed"/><rect x="48" y="48" width="472" height="374" rx="12" fill="#fff"/><g class="B"><path d="M72.624 94l6.192-16.8H81.6L87.744 94h-2.688l-1.44-4.104h-6.864L75.312 94h-2.688zm4.848-6.12h5.424l-2.712-7.656-2.712 7.656zm17.333 6.408c-1.152 0-2.168-.272-3.048-.816s-1.568-1.288-2.064-2.232-.744-2.016-.744-3.216.248-2.264.744-3.192c.496-.944 1.184-1.68 2.064-2.208.896-.544 1.92-.816 3.072-.816.944 0 1.768.184 2.472.552a4.06 4.06 0 0 1 1.68 1.56v-7.2h2.544V94h-2.28l-.264-1.848c-.384.56-.912 1.056-1.584 1.488s-1.536.648-2.592.648zm.456-2.208c1.088 0 1.976-.376 2.664-1.128.704-.752 1.056-1.72 1.056-2.904 0-1.2-.352-2.168-1.056-2.904-.688-.752-1.576-1.128-2.664-1.128s-1.984.376-2.688 1.128c-.704.736-1.056 1.704-1.056 2.904 0 .784.16 1.48.48 2.088a3.7 3.7 0 0 0 1.32 1.44c.576.336 1.224.504 1.944.504zm14.896 2.208c-1.152 0-2.168-.272-3.048-.816s-1.568-1.288-2.064-2.232-.744-2.016-.744-3.216.248-2.264.744-3.192c.496-.944 1.184-1.68 2.064-2.208.896-.544 1.92-.816 3.072-.816.944 0 1.768.184 2.472.552a4.06 4.06 0 0 1 1.68 1.56v-7.2h2.544V94h-2.28l-.264-1.848c-.384.56-.912 1.056-1.584 1.488s-1.536.648-2.592.648zm.456-2.208c1.088 0 1.976-.376 2.664-1.128.704-.752 1.056-1.72 1.056-2.904 0-1.2-.352-2.168-1.056-2.904-.688-.752-1.576-1.128-2.664-1.128s-1.984.376-2.688 1.128c-.704.736-1.056 1.704-1.056 2.904 0 .784.16 1.48.48 2.088a3.7 3.7 0 0 0 1.32 1.44c.576.336 1.224.504 1.944.504zm23.102 2.208c-1.664 0-3.104-.36-4.32-1.08-1.2-.736-2.128-1.752-2.784-3.048-.656-1.312-.984-2.824-.984-4.536 0-1.728.328-3.24.984-4.536.656-1.312 1.584-2.336 2.784-3.072 1.216-.736 2.656-1.104 4.32-1.104 1.968 0 3.576.48 4.824 1.44s2.04 2.304 2.376 4.032h-2.832c-.224-.976-.704-1.752-1.44-2.328s-1.72-.864-2.952-.864c-1.68 0-3.008.576-3.984 1.728-.976 1.136-1.464 2.704-1.464 4.704 0 1.984.488 3.544 1.464 4.68s2.304 1.704 3.984 1.704c1.232 0 2.216-.272 2.952-.816s1.216-1.288 1.44-2.232h2.832c-.336 1.664-1.128 2.968-2.376 3.912s-2.856 1.416-4.824 1.416zm9.901-.288V76.72h2.544V94h-2.544zm7.205-14.16c-.48 0-.88-.144-1.2-.432a1.53 1.53 0 0 1-.456-1.128c0-.448.152-.816.456-1.104.32-.304.72-.456 1.2-.456s.872.152 1.176.456c.32.288.48.656.48 1.104s-.16.824-.48 1.128c-.304.288-.696.432-1.176.432zM149.549 94V82.096h2.544V94h-2.544zm11.471.288c-1.168 0-2.208-.256-3.12-.768-.896-.528-1.6-1.256-2.112-2.184s-.768-2.008-.768-3.24c0-1.248.248-2.344.744-3.288.512-.944 1.216-1.68 2.112-2.208.912-.528 1.968-.792 3.168-.792 1.168 0 2.184.264 3.048.792.864.512 1.536 1.2 2.016 2.064s.72 1.816.72 2.856l-.024.528-.024.6h-9.264c.08 1.152.456 2.032 1.128 2.64.688.592 1.48.888 2.376.888.72 0 1.32-.16 1.8-.48a3.03 3.03 0 0 0 1.104-1.344h2.544c-.32 1.12-.96 2.056-1.92 2.808-.944.752-2.12 1.128-3.528 1.128zm0-10.392c-.848 0-1.6.256-2.256.768-.656.496-1.056 1.248-1.2 2.256h6.72c-.048-.928-.376-1.664-.984-2.208s-1.368-.816-2.28-.816zM169.467 94V82.096h2.256l.192 2.088a4.09 4.09 0 0 1 1.608-1.728c.72-.432 1.544-.648 2.472-.648 1.44 0 2.568.448 3.384 1.344.832.896 1.248 2.232 1.248 4.008V94h-2.52v-6.576c0-2.304-.944-3.456-2.832-3.456-.944 0-1.728.336-2.352 1.008-.608.672-.912 1.632-.912 2.88V94h-2.544zm19.149 0c-1.168 0-2.096-.28-2.784-.84-.688-.576-1.032-1.592-1.032-3.048v-5.88h-2.04v-2.136h2.04l.312-3.024h2.232v3.024h3.36v2.136h-3.36v5.88c0 .656.136 1.112.408 1.368.288.24.776.36 1.464.36h1.368V94h-1.968z"/><rect x="72" y="114" width="424" height="48" rx="6" class="F"/></g><path d="M84.962 131v-9.1h2.795c1.603 0 2.782.407 3.536 1.222.763.815 1.144 1.933 1.144 3.354 0 1.395-.381 2.5-1.144 3.315-.754.806-1.933 1.209-3.536 1.209h-2.795zm1.092-.91h1.677c.884 0 1.586-.143 2.106-.429a2.51 2.51 0 0 0 1.131-1.248c.225-.546.338-1.192.338-1.937 0-.763-.113-1.417-.338-1.963a2.5 2.5 0 0 0-1.131-1.261c-.52-.295-1.222-.442-2.106-.442h-1.677v7.28zm10.794 1.066c-.615 0-1.161-.139-1.638-.416a3.09 3.09 0 0 1-1.131-1.183c-.269-.503-.403-1.096-.403-1.781 0-.676.134-1.265.403-1.768a2.89 2.89 0 0 1 1.118-1.183c.485-.286 1.044-.429 1.677-.429.624 0 1.161.143 1.612.429.459.277.81.646 1.053 1.105a3.12 3.12 0 0 1 .364 1.482l-.013.286v.325h-5.135c.026.494.139.906.338 1.235a2.12 2.12 0 0 0 .767.728c.312.165.641.247.988.247.451 0 .828-.104 1.131-.312a1.79 1.79 0 0 0 .663-.845h1.079a2.93 2.93 0 0 1-1.001 1.495c-.485.39-1.109.585-1.872.585zm0-5.837c-.52 0-.984.16-1.391.481-.399.312-.628.771-.689 1.378h4.056c-.026-.581-.225-1.036-.598-1.365s-.832-.494-1.378-.494zm6.972 5.837c-.771 0-1.413-.195-1.924-.585s-.81-.919-.897-1.586h1.118c.069.338.247.633.533.884.295.243.689.364 1.183.364.459 0 .797-.095 1.014-.286.217-.199.325-.433.325-.702 0-.39-.143-.65-.429-.78-.277-.13-.672-.247-1.183-.351a6.67 6.67 0 0 1-1.04-.299c-.347-.13-.637-.312-.871-.546-.234-.243-.351-.559-.351-.949 0-.563.208-1.023.624-1.378.425-.364.997-.546 1.716-.546.685 0 1.244.173 1.677.52.442.338.698.823.767 1.456h-1.079a1.09 1.09 0 0 0-.429-.767c-.234-.191-.55-.286-.949-.286-.39 0-.693.082-.91.247a.79.79 0 0 0-.312.65c0 .26.134.464.403.611.277.147.65.273 1.118.377a8.64 8.64 0 0 1 1.131.325c.364.121.659.308.884.559.234.243.351.598.351 1.066a1.77 1.77 0 0 1-.663 1.443c-.442.373-1.044.559-1.807.559zm6.994 0c-.615 0-1.17-.139-1.664-.416a3.16 3.16 0 0 1-1.157-1.183c-.277-.511-.416-1.105-.416-1.781s.139-1.265.416-1.768a3.04 3.04 0 0 1 1.157-1.183 3.26 3.26 0 0 1 1.664-.429c.763 0 1.404.199 1.924.598.529.399.862.932 1.001 1.599h-1.118a1.41 1.41 0 0 0-.637-.923c-.338-.225-.732-.338-1.183-.338a2.05 2.05 0 0 0-1.027.273c-.321.182-.581.455-.78.819s-.299.815-.299 1.352.1.988.299 1.352.459.641.78.832a2.05 2.05 0 0 0 1.027.273 2.14 2.14 0 0 0 1.183-.325c.338-.225.55-.542.637-.949h1.118a2.58 2.58 0 0 1-.988 1.586c-.529.407-1.174.611-1.937.611zm4.45-.156v-6.448h.988l.091 1.235a2.34 2.34 0 0 1 .91-1.014c.408-.251.91-.377 1.508-.377v1.144h-.299a2.62 2.62 0 0 0-1.053.208c-.32.13-.576.355-.767.676s-.286.763-.286 1.326V131h-1.092zm5.386-7.878c-.217 0-.399-.069-.546-.208-.139-.147-.208-.329-.208-.546 0-.208.069-.381.208-.52.147-.139.329-.208.546-.208.208 0 .386.069.533.208s.221.312.221.52a.74.74 0 0 1-.221.546c-.147.139-.325.208-.533.208zm-.546 7.878v-6.448h1.092V131h-1.092zm2.993 2.86v-9.308h.988l.104 1.066c.208-.312.503-.594.884-.845.39-.251.884-.377 1.482-.377.642 0 1.201.147 1.677.442a2.98 2.98 0 0 1 1.105 1.209c.269.511.403 1.092.403 1.742s-.134 1.231-.403 1.742c-.26.503-.632.901-1.118 1.196-.476.286-1.035.429-1.677.429-.528 0-1.001-.108-1.417-.325-.407-.217-.719-.52-.936-.91v3.939h-1.092zm3.328-3.653c.434 0 .815-.1 1.144-.299.33-.208.59-.494.78-.858s.286-.789.286-1.274-.095-.91-.286-1.274-.45-.646-.78-.845c-.329-.208-.71-.312-1.144-.312s-.814.104-1.144.312c-.329.199-.589.481-.78.845s-.286.789-.286 1.274.096.91.286 1.274.451.65.78.858c.33.199.711.299 1.144.299zm7.129.793c-.589 0-1.053-.143-1.391-.429s-.507-.802-.507-1.547v-3.549h-1.118v-.923h1.118l.143-1.547h.949v1.547h1.898v.923h-1.898v3.549c0 .407.083.685.247.832.165.139.455.208.871.208h.676V131h-.988zm3.143-7.878c-.217 0-.399-.069-.546-.208-.139-.147-.208-.329-.208-.546 0-.208.069-.381.208-.52.147-.139.329-.208.546-.208a.75.75 0 0 1 .533.208c.147.139.221.312.221.52a.74.74 0 0 1-.221.546.75.75 0 0 1-.533.208zm-.546 7.878v-6.448h1.092V131h-1.092zm5.931.156c-.607 0-1.153-.139-1.638-.416a3.06 3.06 0 0 1-1.157-1.17c-.277-.511-.416-1.109-.416-1.794s.143-1.278.429-1.781a3.04 3.04 0 0 1 1.157-1.183c.494-.277 1.044-.416 1.651-.416s1.153.139 1.638.416a2.95 2.95 0 0 1 1.144 1.183c.286.503.429 1.096.429 1.781s-.143 1.283-.429 1.794a3.03 3.03 0 0 1-1.17 1.17c-.485.277-1.031.416-1.638.416zm0-.936a2.07 2.07 0 0 0 1.04-.273c.321-.182.581-.455.78-.819s.299-.815.299-1.352-.1-.988-.299-1.352c-.191-.364-.446-.637-.767-.819a2.05 2.05 0 0 0-1.027-.273 2.07 2.07 0 0 0-1.04.273c-.321.182-.581.455-.78.819s-.299.815-.299 1.352.1.988.299 1.352.455.637.767.819a2.05 2.05 0 0 0 1.027.273zm4.755.78v-6.448h.988l.065 1.157c.208-.407.507-.728.897-.962s.832-.351 1.326-.351c.763 0 1.37.234 1.82.702.46.459.689 1.17.689 2.132V131h-1.092v-3.653c0-1.343-.554-2.015-1.664-2.015a1.81 1.81 0 0 0-1.391.611c-.364.399-.546.971-.546 1.716V131h-1.092zm-59.273 61.144c-.616 0-1.152-.112-1.608-.336a2.51 2.51 0 0 1-1.056-.936c-.248-.4-.372-.864-.372-1.392h1.056a1.88 1.88 0 0 0 .228.912c.152.272.372.492.66.66.296.16.66.24 1.092.24.568 0 1.008-.136 1.32-.408s.468-.612.468-1.02c0-.336-.072-.604-.216-.804a1.58 1.58 0 0 0-.588-.504 4.59 4.59 0 0 0-.84-.336l-.984-.324c-.648-.224-1.128-.5-1.44-.828-.312-.336-.468-.772-.468-1.308-.008-.448.096-.844.312-1.188.216-.352.52-.624.912-.816.4-.2.872-.3 1.416-.3.536 0 1 .1 1.392.3.4.2.708.476.924.828.224.352.34.752.348 1.2h-1.056c0-.232-.06-.46-.18-.684-.12-.232-.304-.42-.552-.564-.24-.144-.544-.216-.912-.216-.456-.008-.832.108-1.128.348-.288.24-.432.572-.432.996 0 .36.1.636.3.828.208.192.496.352.864.48l1.272.42a6.13 6.13 0 0 1 1.08.504c.32.192.568.44.744.744.184.304.276.692.276 1.164 0 .4-.104.78-.312 1.14-.208.352-.524.64-.948.864-.416.224-.94.336-1.572.336zm10.106 0c-.824 0-1.536-.18-2.136-.54-.592-.368-1.052-.876-1.38-1.524-.328-.656-.492-1.416-.492-2.28 0-.856.164-1.608.492-2.256.328-.656.788-1.168 1.38-1.536.6-.368 1.312-.552 2.136-.552.96 0 1.74.232 2.341.696.608.456.996 1.096 1.164 1.92h-1.116a2.2 2.2 0 0 0-.793-1.248c-.392-.32-.924-.48-1.596-.48-.6 0-1.124.14-1.572.42-.448.272-.796.668-1.044 1.188-.24.512-.36 1.128-.36 1.848s.12 1.34.36 1.86c.248.512.596.908 1.044 1.188.448.272.972.408 1.572.408.672 0 1.204-.152 1.596-.456a2.2 2.2 0 0 0 .793-1.236h1.116c-.168.808-.556 1.44-1.164 1.896-.601.456-1.381.684-2.341.684zm10.929 0c-.824 0-1.548-.18-2.172-.54-.616-.368-1.1-.88-1.452-1.536-.344-.656-.516-1.412-.516-2.268s.172-1.608.516-2.256c.352-.656.836-1.168 1.452-1.536.624-.368 1.348-.552 2.172-.552.832 0 1.556.184 2.172.552.624.368 1.108.88 1.452 1.536.344.648.516 1.4.516 2.256s-.172 1.612-.516 2.268-.828 1.168-1.452 1.536c-.616.36-1.34.54-2.172.54zm0-.888c.616 0 1.156-.136 1.62-.408.472-.28.836-.676 1.092-1.188.264-.52.396-1.14.396-1.86s-.132-1.336-.396-1.848a2.73 2.73 0 0 0-1.092-1.176c-.464-.28-1.004-.42-1.62-.42s-1.16.14-1.632.42c-.464.272-.828.664-1.092 1.176-.256.512-.384 1.128-.384 1.848s.128 1.34.384 1.86c.264.512.628.908 1.092 1.188.472.272 1.016.408 1.632.408zm7.754.744v-8.4h2.76c.656 0 1.196.108 1.62.324s.736.508.936.876c.208.368.312.784.312 1.248 0 .456-.1.868-.3 1.236s-.512.664-.936.888c-.424.216-.968.324-1.632.324h-1.752V192h-1.008zm1.008-4.356h1.728c.672 0 1.148-.14 1.428-.42.288-.288.432-.68.432-1.176 0-.504-.144-.896-.432-1.176-.28-.288-.756-.432-1.428-.432h-1.728v3.204zm8.102 4.356v-8.4h5.196v.828h-4.188v2.928h3.828v.816h-3.828v3h4.188V192h-5.196zm239.425 0v-8.4h2.712c.656 0 1.192.108 1.608.324s.724.512.924.888.3.792.3 1.248c0 .528-.144 1.004-.432 1.428-.28.424-.72.724-1.32.9l1.836 3.612h-1.188l-1.704-3.468h-.072-1.656V192h-1.008zm1.008-4.26h1.632c.648 0 1.12-.156 1.416-.468s.444-.712.444-1.2c0-.496-.148-.888-.444-1.176-.288-.296-.764-.444-1.428-.444h-1.62v3.288zm8.265 4.26v-8.4h5.196v.828h-4.188v2.928h3.828v.816h-3.828v3h4.188V192h-5.196zm8.406 0l3.096-8.4h1.068l3.084 8.4h-1.068l-.768-2.16h-3.576l-.78 2.16h-1.056zm2.136-2.976h2.976l-1.488-4.152-1.488 4.152zm8.52 2.976v-8.4h2.58c1.48 0 2.568.376 3.264 1.128.704.752 1.056 1.784 1.056 3.096 0 1.288-.352 2.308-1.056 3.06-.696.744-1.784 1.116-3.264 1.116h-2.58zm1.008-.84h1.548c.816 0 1.464-.132 1.944-.396.488-.272.836-.656 1.044-1.152.208-.504.312-1.1.312-1.788 0-.704-.104-1.308-.312-1.812a2.31 2.31 0 0 0-1.044-1.164c-.48-.272-1.128-.408-1.944-.408h-1.548v6.72zm46.385.852l-2.304-8.412h1.08l1.812 7.212 2.064-7.212h1.116l2.004 7.212 1.836-7.212h1.08l-2.352 8.4H445.8l-2.004-6.936-2.052 6.936-1.128.012zM452.65 192v-8.4h2.712c.656 0 1.192.108 1.608.324s.724.512.924.888.3.792.3 1.248c0 .528-.144 1.004-.432 1.428-.28.424-.72.724-1.32.9l1.836 3.612h-1.188l-1.704-3.468h-.072-1.656V192h-1.008zm1.008-4.26h1.632c.648 0 1.12-.156 1.416-.468s.444-.712.444-1.2c0-.496-.148-.888-.444-1.176-.288-.296-.764-.444-1.428-.444h-1.62v3.288zm8.265 4.26v-8.4h1.008v8.4h-1.008zm6.917 0v-7.572h-2.508v-.828h6.024v.828h-2.508V192h-1.008zm6.907 0v-8.4h5.196v.828h-4.188v2.928h3.828v.816h-3.828v3h4.188V192h-5.196z" fill="#707070"/><g class="B"><path d="M85.184 151v-11.2h1.568l4.032 7.808 4-7.808h1.584V151h-1.344v-8.8l-3.744 7.2h-1.008l-3.744-7.184V151h-1.344zm14.331 3.52l1.968-4.288h-.464l-3.152-7.168h1.456l2.624 6.176 2.784-6.176h1.392l-5.2 11.456h-1.408zm14.645-3.504l-3.072-11.216h1.44l2.416 9.616 2.752-9.616h1.488l2.672 9.616 2.448-9.616h1.44l-3.136 11.2h-1.536l-2.672-9.248-2.736 9.248-1.504.016zm15.84.176c-.757 0-1.429-.171-2.016-.512a3.8 3.8 0 0 1-1.392-1.456c-.331-.619-.496-1.349-.496-2.192 0-.832.165-1.557.496-2.176.331-.629.789-1.115 1.376-1.456.597-.352 1.285-.528 2.064-.528.768 0 1.429.176 1.984.528.565.341.997.795 1.296 1.36a3.84 3.84 0 0 1 .448 1.824l-.016.352v.4h-6.32c.032.608.171 1.115.416 1.52.256.395.571.693.944.896.384.203.789.304 1.216.304.555 0 1.019-.128 1.392-.384s.645-.603.816-1.04h1.328c-.213.736-.624 1.349-1.232 1.84-.597.48-1.365.72-2.304.72zm0-7.184a2.69 2.69 0 0 0-1.712.592c-.491.384-.773.949-.848 1.696h4.992c-.032-.715-.277-1.275-.736-1.68s-1.024-.608-1.696-.608zm9.782 7.184c-.651 0-1.232-.133-1.744-.4a2.77 2.77 0 0 1-1.152-1.12l-.128 1.328h-1.216v-11.52h1.344v4.896c.256-.384.618-.731 1.088-1.04.48-.309 1.088-.464 1.824-.464.789 0 1.477.181 2.064.544s1.04.859 1.36 1.488c.33.629.496 1.344.496 2.144s-.166 1.515-.496 2.144a3.66 3.66 0 0 1-1.376 1.472c-.587.352-1.275.528-2.064.528zm-.144-1.168c.533 0 1.002-.123 1.408-.368a2.71 2.71 0 0 0 .96-1.056c.234-.448.352-.971.352-1.568s-.118-1.12-.352-1.568a2.59 2.59 0 0 0-.96-1.04c-.406-.256-.875-.384-1.408-.384s-1.003.128-1.408.384c-.406.245-.726.592-.96 1.04s-.352.971-.352 1.568.117 1.12.352 1.568.554.8.96 1.056c.405.245.874.368 1.408.368zm8.99 1.168c-.949 0-1.738-.24-2.368-.72s-.997-1.131-1.104-1.952h1.376c.086.416.304.779.656 1.088.363.299.848.448 1.456.448.566 0 .982-.117 1.248-.352.267-.245.4-.533.4-.864 0-.48-.176-.8-.528-.96-.341-.16-.826-.304-1.456-.432-.426-.085-.853-.208-1.28-.368s-.784-.384-1.072-.672c-.288-.299-.432-.688-.432-1.168 0-.693.256-1.259.768-1.696.523-.448 1.227-.672 2.112-.672.843 0 1.531.213 2.064.64.544.416.859 1.013.944 1.792h-1.328c-.053-.405-.229-.72-.528-.944-.288-.235-.677-.352-1.168-.352-.48 0-.853.101-1.12.304a.97.97 0 0 0-.384.8c0 .32.166.571.496.752.342.181.8.336 1.376.464.491.107.955.24 1.392.4.448.149.811.379 1.088.688.288.299.432.736.432 1.312.011.715-.261 1.307-.816 1.776-.544.459-1.285.688-2.224.688zm5.776-9.888c-.266 0-.49-.085-.672-.256-.17-.181-.256-.405-.256-.672a.87.87 0 0 1 .256-.64c.182-.171.406-.256.672-.256a.92.92 0 0 1 .656.256.84.84 0 0 1 .272.64.91.91 0 0 1-.272.672.92.92 0 0 1-.656.256zm-.672 9.696v-7.936h1.344V151h-1.344zm6.821 0c-.726 0-1.296-.176-1.712-.528s-.624-.987-.624-1.904V144.2h-1.377v-1.136h1.377l.176-1.904h1.168v1.904h2.336v1.136h-2.336v4.368c0 .501.101.843.304 1.024.202.171.56.256 1.072.256h.832V151h-1.216zm6.4.192c-.757 0-1.429-.171-2.016-.512-.586-.352-1.05-.837-1.392-1.456-.33-.619-.496-1.349-.496-2.192 0-.832.166-1.557.496-2.176.331-.629.79-1.115 1.376-1.456.598-.352 1.286-.528 2.064-.528.768 0 1.43.176 1.984.528a3.44 3.44 0 0 1 1.296 1.36 3.84 3.84 0 0 1 .448 1.824l-.016.352v.4h-6.32c.032.608.171 1.115.416 1.52.256.395.571.693.944.896.384.203.79.304 1.216.304.555 0 1.019-.128 1.392-.384a2.19 2.19 0 0 0 .816-1.04h1.328c-.213.736-.624 1.349-1.232 1.84-.597.48-1.365.72-2.304.72zm0-7.184a2.69 2.69 0 0 0-1.712.592c-.49.384-.773.949-.848 1.696h4.992c-.032-.715-.277-1.275-.736-1.68s-1.024-.608-1.696-.608z"/><rect x="72" y="202" width="424" height="28" rx="4" class="F"/><path d="M88.832 221.192c-.821 0-1.541-.144-2.16-.432a3.44 3.44 0 0 1-1.456-1.232c-.341-.533-.517-1.168-.528-1.904h1.792c.011.597.219 1.104.624 1.52s.976.624 1.712.624c.651 0 1.157-.155 1.52-.464a1.53 1.53 0 0 0 .56-1.216c0-.395-.091-.715-.272-.96-.171-.245-.411-.448-.72-.608-.299-.16-.645-.304-1.04-.432l-1.248-.416c-.864-.288-1.515-.661-1.952-1.12-.427-.459-.64-1.061-.64-1.808-.011-.629.133-1.179.432-1.648a3.05 3.05 0 0 1 1.28-1.088c.555-.267 1.2-.4 1.936-.4.725 0 1.36.133 1.904.4a3.1 3.1 0 0 1 1.296 1.12c.309.469.469 1.019.48 1.648H90.56c0-.288-.075-.56-.224-.816-.149-.267-.368-.485-.656-.656s-.64-.256-1.056-.256c-.533-.011-.976.123-1.328.4-.341.277-.512.661-.512 1.152 0 .437.128.773.384 1.008s.608.432 1.056.592l1.536.528c.555.181 1.051.4 1.488.656s.784.592 1.04 1.008c.267.416.4.944.4 1.584 0 .565-.144 1.093-.432 1.584-.288.48-.72.875-1.296 1.184-.576.299-1.285.448-2.128.448zm9.358 0c-.779 0-1.472-.171-2.08-.512-.597-.352-1.067-.837-1.408-1.456s-.512-1.339-.512-2.16c0-.832.165-1.563.496-2.192.341-.629.811-1.12 1.408-1.472.608-.352 1.312-.528 2.112-.528.779 0 1.456.176 2.032.528.576.341 1.024.8 1.344 1.376s.48 1.211.48 1.904l-.016.352-.016.4h-6.176c.053.768.304 1.355.752 1.76.459.395.987.592 1.584.592.48 0 .88-.107 1.2-.32a2.02 2.02 0 0 0 .736-.896h1.696a3.58 3.58 0 0 1-1.28 1.872c-.629.501-1.413.752-2.352.752zm0-6.928a2.38 2.38 0 0 0-1.504.512c-.437.331-.704.832-.8 1.504h4.48c-.032-.619-.25-1.109-.656-1.472s-.912-.544-1.52-.544zm5.632 6.736v-7.936h1.504l.128 1.392a2.72 2.72 0 0 1 1.072-1.152c.48-.288 1.029-.432 1.648-.432.96 0 1.712.299 2.256.896.555.597.832 1.488.832 2.672V221h-1.68v-4.384c0-1.536-.629-2.304-1.888-2.304-.629 0-1.152.224-1.568.672-.405.448-.608 1.088-.608 1.92V221h-1.696zm13.054.192c-.768 0-1.446-.181-2.032-.544s-1.046-.859-1.376-1.488-.496-1.344-.496-2.144.165-1.509.496-2.128a3.66 3.66 0 0 1 1.376-1.472c.597-.363 1.28-.544 2.047-.544.63 0 1.179.123 1.649.368.48.245.853.592 1.12 1.04v-4.8h1.696V221h-1.52l-.176-1.232c-.256.373-.608.704-1.056.992s-1.024.432-1.728.432zm.304-1.472c.725 0 1.317-.251 1.776-.752.469-.501.704-1.147.704-1.936 0-.8-.235-1.445-.704-1.936-.459-.501-1.051-.752-1.776-.752s-1.323.251-1.792.752c-.47.491-.704 1.136-.704 1.936 0 .523.106.987.32 1.392s.506.725.88.96c.384.224.816.336 1.296.336zm10.409 1.28v-11.2h1.696v4.8h5.424v-4.8h1.696V221h-1.696v-5.008h-5.424V221h-1.696zm11.99-9.44a1.15 1.15 0 0 1-.8-.288 1.02 1.02 0 0 1-.304-.752c0-.299.101-.544.304-.736.213-.203.48-.304.8-.304a1.06 1.06 0 0 1 .784.304c.213.192.32.437.32.736s-.107.549-.32.752c-.203.192-.464.288-.784.288zm-.848 9.44v-7.936h1.696V221h-1.696zm7.263 0c-.779 0-1.398-.187-1.856-.56-.459-.384-.688-1.061-.688-2.032v-3.92h-1.36v-1.424h1.36l.208-2.016h1.488v2.016h2.24v1.424h-2.24v3.92c0 .437.09.741.272.912.192.16.517.24.976.24h.912V221h-1.312zm6.309.192c-1.003 0-1.83-.245-2.48-.736s-1.024-1.141-1.12-1.952h1.711c.086.363.289.677.609.944.32.256.741.384 1.263.384.513 0 .886-.107 1.121-.32s.352-.459.352-.736c0-.405-.166-.677-.496-.816-.32-.149-.768-.283-1.344-.4-.448-.096-.896-.224-1.344-.384-.438-.16-.806-.384-1.104-.672-.288-.299-.432-.699-.432-1.2a2.18 2.18 0 0 1 .8-1.728c.533-.469 1.28-.704 2.24-.704.885 0 1.6.213 2.144.64.554.427.88 1.029.976 1.808h-1.632a1.17 1.17 0 0 0-.48-.8c-.256-.192-.603-.288-1.04-.288-.427 0-.758.091-.992.272-.235.171-.352.395-.352.672s.16.496.48.656c.33.16.762.304 1.296.432a12.09 12.09 0 0 1 1.472.416c.458.149.826.373 1.104.672s.416.736.416 1.312c.01.725-.272 1.328-.848 1.808-.566.48-1.339.72-2.32.72z"/></g><rect x="453" y="208" width="16" height="16" rx="2" class="C"/><path d="M456.5 215.5l3 3 6-6" class="D E"/><path d="M88.832 257.192c-.821 0-1.541-.144-2.16-.432a3.44 3.44 0 0 1-1.456-1.232c-.341-.533-.517-1.168-.528-1.904h1.792c.011.597.219 1.104.624 1.52s.976.624 1.712.624c.651 0 1.157-.155 1.52-.464a1.53 1.53 0 0 0 .56-1.216c0-.395-.091-.715-.272-.96-.171-.245-.411-.448-.72-.608-.299-.16-.645-.304-1.04-.432l-1.248-.416c-.864-.288-1.515-.661-1.952-1.12-.427-.459-.64-1.061-.64-1.808-.011-.629.133-1.179.432-1.648a3.05 3.05 0 0 1 1.28-1.088c.555-.267 1.2-.4 1.936-.4.725 0 1.36.133 1.904.4a3.1 3.1 0 0 1 1.296 1.12c.309.469.469 1.019.48 1.648H90.56c0-.288-.075-.56-.224-.816-.149-.267-.368-.485-.656-.656s-.64-.256-1.056-.256c-.533-.011-.976.123-1.328.4-.341.277-.512.661-.512 1.152 0 .437.128.773.384 1.008s.608.432 1.056.592l1.536.528c.555.181 1.051.4 1.488.656s.784.592 1.04 1.008c.267.416.4.944.4 1.584 0 .565-.144 1.093-.432 1.584-.288.48-.72.875-1.296 1.184-.576.299-1.285.448-2.128.448zm9.358 0c-.779 0-1.472-.171-2.08-.512-.597-.352-1.067-.837-1.408-1.456s-.512-1.339-.512-2.16c0-.832.165-1.563.496-2.192.341-.629.811-1.12 1.408-1.472.608-.352 1.312-.528 2.112-.528.779 0 1.456.176 2.032.528.576.341 1.024.8 1.344 1.376s.48 1.211.48 1.904l-.016.352-.016.4h-6.176c.053.768.304 1.355.752 1.76.459.395.987.592 1.584.592.48 0 .88-.107 1.2-.32a2.02 2.02 0 0 0 .736-.896h1.696a3.58 3.58 0 0 1-1.28 1.872c-.629.501-1.413.752-2.352.752zm0-6.928a2.38 2.38 0 0 0-1.504.512c-.437.331-.704.832-.8 1.504h4.48c-.032-.619-.25-1.109-.656-1.472s-.912-.544-1.52-.544zm5.632 6.736v-7.936h1.504l.128 1.392a2.72 2.72 0 0 1 1.072-1.152c.48-.288 1.029-.432 1.648-.432.96 0 1.712.299 2.256.896.555.597.832 1.488.832 2.672V257h-1.68v-4.384c0-1.536-.629-2.304-1.888-2.304-.629 0-1.152.224-1.568.672-.405.448-.608 1.088-.608 1.92V257h-1.696zm13.054.192c-.768 0-1.446-.181-2.032-.544s-1.046-.859-1.376-1.488-.496-1.344-.496-2.144.165-1.509.496-2.128a3.66 3.66 0 0 1 1.376-1.472c.597-.363 1.28-.544 2.047-.544.63 0 1.179.123 1.649.368.48.245.853.592 1.12 1.04v-4.8h1.696V257h-1.52l-.176-1.232c-.256.373-.608.704-1.056.992s-1.024.432-1.728.432zm.304-1.472c.725 0 1.317-.251 1.776-.752.469-.501.704-1.147.704-1.936 0-.8-.235-1.445-.704-1.936-.459-.501-1.051-.752-1.776-.752s-1.323.251-1.792.752c-.47.491-.704 1.136-.704 1.936 0 .523.106.987.32 1.392s.506.725.88.96c.384.224.816.336 1.296.336zm10.409 1.28v-11.2h7.12v1.376h-5.424v3.488h4.944v1.344h-4.944v3.616h5.424V257h-7.12zm11.301 0l-2.976-7.936h1.776l2.208 6.32 2.208-6.32h1.76l-2.96 7.936h-2.016zm9.675.192c-.778 0-1.472-.171-2.08-.512-.597-.352-1.066-.837-1.408-1.456s-.512-1.339-.512-2.16c0-.832.166-1.563.496-2.192a3.75 3.75 0 0 1 1.408-1.472c.608-.352 1.312-.528 2.112-.528.779 0 1.456.176 2.032.528.576.341 1.024.8 1.344 1.376s.48 1.211.48 1.904l-.016.352-.016.4h-6.176c.054.768.304 1.355.752 1.76.459.395.987.592 1.584.592.48 0 .88-.107 1.2-.32a2.02 2.02 0 0 0 .736-.896h1.696a3.58 3.58 0 0 1-1.28 1.872c-.629.501-1.413.752-2.352.752zm0-6.928a2.38 2.38 0 0 0-1.504.512c-.437.331-.704.832-.8 1.504h4.48c-.032-.619-.25-1.109-.656-1.472s-.912-.544-1.52-.544zm5.632 6.736v-7.936h1.504l.128 1.392a2.72 2.72 0 0 1 1.072-1.152c.48-.288 1.029-.432 1.648-.432.96 0 1.712.299 2.256.896.555.597.832 1.488.832 2.672V257h-1.68v-4.384c0-1.536-.629-2.304-1.888-2.304-.629 0-1.152.224-1.568.672-.405.448-.608 1.088-.608 1.92V257h-1.696zm12.766 0c-.779 0-1.398-.187-1.856-.56-.459-.384-.688-1.061-.688-2.032v-3.92h-1.36v-1.424h1.36l.208-2.016h1.488v2.016h2.24v1.424h-2.24v3.92c0 .437.09.741.272.912.192.16.517.24.976.24h.912V257h-1.312zm6.308.192c-1.002 0-1.829-.245-2.48-.736s-1.024-1.141-1.12-1.952h1.712c.086.363.288.677.608.944.32.256.742.384 1.264.384.512 0 .886-.107 1.12-.32s.352-.459.352-.736c0-.405-.165-.677-.496-.816-.32-.149-.768-.283-1.344-.4-.448-.096-.896-.224-1.344-.384-.437-.16-.805-.384-1.104-.672-.288-.299-.432-.699-.432-1.2 0-.693.267-1.269.8-1.728.534-.469 1.28-.704 2.24-.704.886 0 1.6.213 2.144.64.555.427.88 1.029.976 1.808h-1.632c-.053-.341-.213-.608-.48-.8-.256-.192-.602-.288-1.04-.288-.426 0-.757.091-.992.272-.234.171-.352.395-.352.672s.16.496.48.656c.331.16.763.304 1.296.432a12.04 12.04 0 0 1 1.472.416c.459.149.827.373 1.104.672s.416.736.416 1.312c.011.725-.272 1.328-.848 1.808-.565.48-1.338.72-2.32.72z" class="B"/><rect x="453" y="244" width="16" height="16" rx="2" class="C"/><path d="M456.5 251.5l3 3 6-6" class="D E"/><g class="B"><rect x="72" y="274" width="424" height="28" rx="4" class="F"/><path d="M88.832 293.192c-.821 0-1.541-.144-2.16-.432a3.44 3.44 0 0 1-1.456-1.232c-.341-.533-.517-1.168-.528-1.904h1.792c.011.597.219 1.104.624 1.52s.976.624 1.712.624c.651 0 1.157-.155 1.52-.464a1.53 1.53 0 0 0 .56-1.216c0-.395-.091-.715-.272-.96-.171-.245-.411-.448-.72-.608-.299-.16-.645-.304-1.04-.432l-1.248-.416c-.864-.288-1.515-.661-1.952-1.12-.427-.459-.64-1.061-.64-1.808-.011-.629.133-1.179.432-1.648a3.05 3.05 0 0 1 1.28-1.088c.555-.267 1.2-.4 1.936-.4.725 0 1.36.133 1.904.4a3.1 3.1 0 0 1 1.296 1.12c.309.469.469 1.019.48 1.648H90.56c0-.288-.075-.56-.224-.816-.149-.267-.368-.485-.656-.656s-.64-.256-1.056-.256c-.533-.011-.976.123-1.328.4-.341.277-.512.661-.512 1.152 0 .437.128.773.384 1.008s.608.432 1.056.592l1.536.528c.555.181 1.051.4 1.488.656s.784.592 1.04 1.008c.267.416.4.944.4 1.584 0 .565-.144 1.093-.432 1.584-.288.48-.72.875-1.296 1.184-.576.299-1.285.448-2.128.448zm8.974-.192c-.779 0-1.397-.187-1.856-.56-.459-.384-.688-1.061-.688-2.032v-3.92h-1.36v-1.424h1.36l.208-2.016h1.488v2.016h2.24v1.424h-2.24v3.92c0 .437.091.741.272.912.192.16.517.24.976.24h.912V293h-1.312zm5.829.192c-.672 0-1.227-.112-1.664-.336s-.763-.517-.976-.88c-.213-.373-.32-.779-.32-1.216 0-.768.299-1.376.896-1.824s1.451-.672 2.56-.672h2.08v-.144c0-.619-.171-1.083-.512-1.392-.331-.309-.763-.464-1.296-.464-.469 0-.88.117-1.232.352-.341.224-.549.56-.624 1.008h-1.696c.053-.576.245-1.067.576-1.472.341-.416.768-.731 1.28-.944a4.3 4.3 0 0 1 1.712-.336c1.109 0 1.968.293 2.576.88.608.576.912 1.365.912 2.368V293h-1.472l-.144-1.36c-.224.437-.549.805-.976 1.104s-.987.448-1.68.448zm.336-1.376c.459 0 .843-.107 1.152-.32.32-.224.565-.517.736-.88.181-.363.293-.763.336-1.2h-1.888c-.672 0-1.152.117-1.44.352-.277.235-.416.528-.416.88 0 .363.133.651.4.864.277.203.651.304 1.12.304zm9.085 1.184c-.778 0-1.397-.187-1.856-.56-.458-.384-.688-1.061-.688-2.032v-3.92h-1.36v-1.424h1.36l.208-2.016h1.488v2.016h2.24v1.424h-2.24v3.92c0 .437.091.741.272.912.192.16.518.24.976.24h.912V293h-1.312zm4.101-9.44a1.15 1.15 0 0 1-.8-.288 1.02 1.02 0 0 1-.304-.752c0-.299.101-.544.304-.736.213-.203.48-.304.8-.304a1.06 1.06 0 0 1 .784.304c.213.192.32.437.32.736s-.107.549-.32.752c-.203.192-.464.288-.784.288zm-.848 9.44v-7.936h1.696V293h-1.696zm7.103.192c-1.003 0-1.829-.245-2.48-.736s-1.024-1.141-1.12-1.952h1.712c.085.363.288.677.608.944.32.256.741.384 1.264.384.512 0 .885-.107 1.12-.32s.352-.459.352-.736c0-.405-.165-.677-.496-.816-.32-.149-.768-.283-1.344-.4-.448-.096-.896-.224-1.344-.384-.437-.16-.805-.384-1.104-.672-.288-.299-.432-.699-.432-1.2 0-.693.267-1.269.8-1.728.533-.469 1.28-.704 2.24-.704.885 0 1.6.213 2.144.64.555.427.88 1.029.976 1.808h-1.632c-.053-.341-.213-.608-.48-.8-.256-.192-.603-.288-1.04-.288-.427 0-.757.091-.992.272-.235.171-.352.395-.352.672s.16.496.48.656c.331.16.763.304 1.296.432a12.09 12.09 0 0 1 1.472.416c.459.149.827.373 1.104.672s.416.736.416 1.312c.011.725-.272 1.328-.848 1.808-.565.48-1.339.72-2.32.72zm8.051-.192c-.779 0-1.398-.187-1.856-.56-.459-.384-.688-1.061-.688-2.032v-3.92h-1.36v-1.424h1.36l.208-2.016h1.488v2.016h2.24v1.424h-2.24v3.92c0 .437.09.741.272.912.192.16.517.24.976.24h.912V293h-1.312zm4.1-9.44c-.32 0-.586-.096-.8-.288-.202-.203-.304-.453-.304-.752a.97.97 0 0 1 .304-.736c.214-.203.48-.304.8-.304s.582.101.784.304c.214.192.32.437.32.736s-.106.549-.32.752c-.202.192-.464.288-.784.288zm-.848 9.44v-7.936h1.696V293h-1.696zm7.695.192c-.779 0-1.477-.176-2.096-.528a3.85 3.85 0 0 1-1.44-1.456c-.341-.629-.512-1.355-.512-2.176s.171-1.541.512-2.16c.352-.629.832-1.12 1.44-1.472.619-.352 1.317-.528 2.096-.528.981 0 1.803.256 2.464.768.672.512 1.104 1.205 1.296 2.08h-1.776a1.67 1.67 0 0 0-.704-1.024c-.363-.245-.789-.368-1.28-.368-.416 0-.8.107-1.152.32-.352.203-.635.507-.848.912-.213.395-.32.885-.32 1.472s.107 1.083.32 1.488a2.33 2.33 0 0 0 .848.912c.352.213.736.32 1.152.32.491 0 .917-.123 1.28-.368s.597-.592.704-1.04h1.776c-.181.853-.608 1.541-1.28 2.064s-1.499.784-2.48.784zm8.768 0c-1.003 0-1.83-.245-2.48-.736s-1.024-1.141-1.12-1.952h1.711c.086.363.289.677.609.944.32.256.741.384 1.263.384.513 0 .886-.107 1.121-.32s.352-.459.352-.736c0-.405-.166-.677-.496-.816-.32-.149-.768-.283-1.344-.4-.448-.096-.896-.224-1.344-.384-.438-.16-.806-.384-1.104-.672-.288-.299-.432-.699-.432-1.2a2.18 2.18 0 0 1 .8-1.728c.533-.469 1.28-.704 2.24-.704.885 0 1.6.213 2.144.64.554.427.88 1.029.976 1.808h-1.632a1.17 1.17 0 0 0-.48-.8c-.256-.192-.603-.288-1.04-.288-.427 0-.758.091-.992.272-.235.171-.352.395-.352.672s.16.496.48.656c.33.16.762.304 1.296.432a12.09 12.09 0 0 1 1.472.416c.458.149.826.373 1.104.672s.416.736.416 1.312c.01.725-.272 1.328-.848 1.808-.566.48-1.339.72-2.32.72z"/></g><rect x="375" y="280" width="16" height="16" rx="2" class="C"/><path d="M378.5 287.5l3 3 6-6" class="D E"/><path d="M85.136 329v-11.2h2l3.792 7.456 3.776-7.456h2V329h-1.696v-8.272l-3.424 6.672h-1.312l-3.44-6.656V329h-1.696zm16.468.192c-.672 0-1.227-.112-1.664-.336s-.763-.517-.976-.88a2.41 2.41 0 0 1-.32-1.216c0-.768.299-1.376.896-1.824s1.45-.672 2.56-.672h2.08v-.144c0-.619-.171-1.083-.512-1.392-.331-.309-.763-.464-1.296-.464-.47 0-.88.117-1.232.352-.342.224-.55.56-.624 1.008H98.82c.053-.576.245-1.067.576-1.472.341-.416.768-.731 1.28-.944.522-.224 1.093-.336 1.712-.336 1.109 0 1.968.293 2.576.88.608.576.912 1.365.912 2.368V329h-1.472l-.144-1.36c-.224.437-.55.805-.976 1.104s-.987.448-1.68.448zm.336-1.376c.458 0 .842-.107 1.152-.32.32-.224.565-.517.736-.88.181-.363.293-.763.336-1.2h-1.888c-.672 0-1.152.117-1.44.352-.278.235-.416.528-.416.88 0 .363.133.651.4.864.277.203.65.304 1.12.304zm5.913 1.184v-7.936h1.504l.128 1.392a2.73 2.73 0 0 1 1.072-1.152c.48-.288 1.03-.432 1.648-.432.96 0 1.712.299 2.256.896.555.597.832 1.488.832 2.672V329h-1.68v-4.384c0-1.536-.629-2.304-1.888-2.304-.629 0-1.152.224-1.568.672-.405.448-.608 1.088-.608 1.92V329h-1.696zm12.126.192c-.672 0-1.227-.112-1.664-.336s-.763-.517-.976-.88c-.214-.373-.32-.779-.32-1.216 0-.768.298-1.376.896-1.824s1.45-.672 2.56-.672h2.08v-.144c0-.619-.171-1.083-.512-1.392-.331-.309-.763-.464-1.296-.464-.47 0-.88.117-1.232.352-.342.224-.55.56-.624 1.008h-1.696c.053-.576.245-1.067.576-1.472.341-.416.768-.731 1.28-.944.522-.224 1.093-.336 1.712-.336 1.109 0 1.968.293 2.576.88.608.576.912 1.365.912 2.368V329h-1.472l-.144-1.36c-.224.437-.55.805-.976 1.104s-.987.448-1.68.448zm.336-1.376c.458 0 .842-.107 1.152-.32.32-.224.565-.517.736-.88.181-.363.293-.763.336-1.2h-1.888c-.672 0-1.152.117-1.44.352-.278.235-.416.528-.416.88 0 .363.133.651.4.864.277.203.65.304 1.12.304zm10.041 4.896c-.682 0-1.322-.117-1.92-.352a3.67 3.67 0 0 1-1.488-1.04c-.405-.459-.661-1.035-.768-1.728h1.68a2.09 2.09 0 0 0 .864 1.2c.448.299.987.448 1.616.448.683 0 1.27-.224 1.76-.672.491-.437.736-1.099.736-1.984v-1.072c-.245.416-.613.784-1.104 1.104-.48.32-1.082.48-1.808.48-.746 0-1.424-.176-2.032-.528-.597-.363-1.072-.853-1.424-1.472-.352-.629-.528-1.333-.528-2.112 0-.789.176-1.493.528-2.112s.827-1.104 1.424-1.456c.608-.363 1.291-.544 2.048-.544.651 0 1.227.144 1.728.432a3.26 3.26 0 0 1 1.168 1.04l.16-1.28h1.536v7.456c0 .896-.186 1.653-.56 2.272-.362.629-.858 1.104-1.488 1.424-.629.331-1.338.496-2.128.496zm-.128-5.072c.502 0 .944-.112 1.328-.336a2.58 2.58 0 0 0 .912-.944c.224-.405.336-.864.336-1.376 0-.523-.112-.981-.336-1.376s-.528-.704-.912-.928-.826-.336-1.328-.336c-.49 0-.928.112-1.312.336s-.688.533-.912.928-.336.853-.336 1.376c0 .512.112.971.336 1.376a2.58 2.58 0 0 0 .912.944c.384.224.822.336 1.312.336zm10.165 1.552c-.778 0-1.472-.171-2.08-.512-.597-.352-1.066-.837-1.408-1.456s-.512-1.339-.512-2.16c0-.832.166-1.563.496-2.192a3.75 3.75 0 0 1 1.408-1.472c.608-.352 1.312-.528 2.112-.528.779 0 1.456.176 2.032.528.576.341 1.024.8 1.344 1.376s.48 1.211.48 1.904l-.016.352-.016.4h-6.176c.054.768.304 1.355.752 1.76.459.395.987.592 1.584.592.48 0 .88-.107 1.2-.32a2.02 2.02 0 0 0 .736-.896h1.696a3.58 3.58 0 0 1-1.28 1.872c-.629.501-1.413.752-2.352.752zm0-6.928a2.38 2.38 0 0 0-1.504.512c-.437.331-.704.832-.8 1.504h4.48c-.032-.619-.25-1.109-.656-1.472s-.912-.544-1.52-.544zM150.12 329v-11.2h3.632c1.312 0 2.39.229 3.232.688.854.459 1.483 1.109 1.888 1.952.416.832.624 1.824.624 2.976 0 1.141-.208 2.133-.624 2.976-.405.832-1.034 1.477-1.888 1.936-.842.448-1.92.672-3.232.672h-3.632zm1.696-1.44h1.872c1.014 0 1.814-.165 2.4-.496.598-.331 1.024-.805 1.28-1.424.267-.619.4-1.36.4-2.224s-.133-1.611-.4-2.24a2.81 2.81 0 0 0-1.28-1.44c-.586-.341-1.386-.512-2.4-.512h-1.872v8.336zm13.202 1.632c-.757 0-1.44-.171-2.048-.512-.597-.352-1.072-.837-1.424-1.456-.352-.629-.528-1.36-.528-2.192s.176-1.557.528-2.176a3.82 3.82 0 0 1 1.456-1.456c.608-.352 1.286-.528 2.032-.528.758 0 1.435.176 2.032.528.608.341 1.088.827 1.44 1.456.363.619.544 1.344.544 2.176s-.181 1.563-.544 2.192a3.85 3.85 0 0 1-1.44 1.456c-.608.341-1.29.512-2.048.512zm0-1.456c.406 0 .779-.101 1.12-.304a2.22 2.22 0 0 0 .848-.896c.214-.405.32-.907.32-1.504s-.106-1.093-.32-1.488c-.202-.405-.48-.709-.832-.912-.341-.203-.714-.304-1.12-.304s-.784.101-1.136.304c-.341.203-.618.507-.832.912-.213.395-.32.891-.32 1.488s.107 1.099.32 1.504c.214.395.491.693.832.896s.715.304 1.12.304zm5.867 1.264v-7.936h1.504l.144 1.12a2.81 2.81 0 0 1 1.008-.96c.426-.235.917-.352 1.472-.352 1.258 0 2.133.496 2.624 1.488.288-.459.672-.821 1.152-1.088a3.26 3.26 0 0 1 1.584-.4c.992 0 1.77.299 2.336.896s.848 1.488.848 2.672V329h-1.696v-4.384c0-1.536-.587-2.304-1.76-2.304-.598 0-1.088.224-1.473.672-.373.448-.559 1.088-.559 1.92V329h-1.696v-4.384c0-1.536-.592-2.304-1.776-2.304-.587 0-1.072.224-1.456.672-.374.448-.56 1.088-.56 1.92V329h-1.696zm17.344.192c-.672 0-1.227-.112-1.664-.336s-.763-.517-.976-.88c-.214-.373-.32-.779-.32-1.216 0-.768.298-1.376.896-1.824s1.45-.672 2.56-.672h2.08v-.144c0-.619-.171-1.083-.512-1.392-.331-.309-.763-.464-1.296-.464-.47 0-.88.117-1.232.352-.342.224-.55.56-.624 1.008h-1.696c.053-.576.245-1.067.576-1.472.341-.416.768-.731 1.28-.944.522-.224 1.093-.336 1.712-.336 1.109 0 1.968.293 2.576.88.608.576.912 1.365.912 2.368V329h-1.472l-.144-1.36c-.224.437-.55.805-.976 1.104s-.987.448-1.68.448zm.336-1.376c.458 0 .842-.107 1.152-.32.32-.224.565-.517.736-.88.181-.363.293-.763.336-1.2h-1.888c-.672 0-1.152.117-1.44.352-.278.235-.416.528-.416.88 0 .363.133.651.4.864.277.203.65.304 1.12.304zm6.873-8.256c-.32 0-.586-.096-.8-.288-.202-.203-.304-.453-.304-.752a.97.97 0 0 1 .304-.736c.214-.203.48-.304.8-.304s.582.101.784.304c.214.192.32.437.32.736s-.106.549-.32.752c-.202.192-.464.288-.784.288zm-.848 9.44v-7.936h1.696V329h-1.696zm3.935 0v-7.936h1.504l.128 1.392a2.72 2.72 0 0 1 1.072-1.152c.48-.288 1.029-.432 1.648-.432.96 0 1.712.299 2.256.896.555.597.832 1.488.832 2.672V329h-1.68v-4.384c0-1.536-.629-2.304-1.888-2.304-.629 0-1.152.224-1.568.672-.405.448-.608 1.088-.608 1.92V329h-1.696zm17.229.192c-.821 0-1.541-.144-2.16-.432s-1.104-.699-1.456-1.232c-.341-.533-.517-1.168-.528-1.904h1.792c.011.597.219 1.104.624 1.52s.976.624 1.712.624c.651 0 1.157-.155 1.52-.464a1.53 1.53 0 0 0 .56-1.216c0-.395-.091-.715-.272-.96-.171-.245-.411-.448-.72-.608-.299-.16-.645-.304-1.04-.432l-1.248-.416c-.864-.288-1.515-.661-1.952-1.12-.427-.459-.64-1.061-.64-1.808-.011-.629.133-1.179.432-1.648.309-.469.736-.832 1.28-1.088.555-.267 1.2-.4 1.936-.4.725 0 1.36.133 1.904.4.555.267.987.64 1.296 1.12.309.469.469 1.019.48 1.648h-1.792c0-.288-.075-.56-.224-.816-.149-.267-.368-.485-.656-.656s-.64-.256-1.056-.256c-.533-.011-.976.123-1.328.4-.341.277-.512.661-.512 1.152 0 .437.128.773.384 1.008s.608.432 1.056.592l1.536.528c.555.181 1.051.4 1.488.656s.784.592 1.04 1.008c.267.416.4.944.4 1.584 0 .565-.144 1.093-.432 1.584-.288.48-.72.875-1.296 1.184-.576.299-1.285.448-2.128.448zm9.358 0c-.779 0-1.472-.171-2.08-.512a3.77 3.77 0 0 1-1.408-1.456c-.341-.619-.512-1.339-.512-2.16 0-.832.165-1.563.496-2.192.341-.629.811-1.12 1.408-1.472.608-.352 1.312-.528 2.112-.528.779 0 1.456.176 2.032.528.576.341 1.024.8 1.344 1.376s.48 1.211.48 1.904l-.016.352-.016.4h-6.176c.053.768.304 1.355.752 1.76.459.395.987.592 1.584.592.48 0 .88-.107 1.2-.32a2.02 2.02 0 0 0 .736-.896h1.696a3.58 3.58 0 0 1-1.28 1.872c-.629.501-1.413.752-2.352.752zm0-6.928a2.38 2.38 0 0 0-1.504.512c-.437.331-.704.832-.8 1.504h4.48c-.032-.619-.251-1.109-.656-1.472s-.912-.544-1.52-.544zm8.757 6.736c-.779 0-1.398-.187-1.856-.56-.459-.384-.688-1.061-.688-2.032v-3.92h-1.36v-1.424h1.36l.208-2.016h1.488v2.016h2.24v1.424h-2.24v3.92c0 .437.09.741.272.912.192.16.517.24.976.24h.912V329h-1.312zm6.469 0c-.779 0-1.398-.187-1.856-.56-.459-.384-.688-1.061-.688-2.032v-3.92h-1.36v-1.424h1.36l.208-2.016h1.488v2.016h2.24v1.424h-2.24v3.92c0 .437.09.741.272.912.192.16.517.24.976.24h.912V329h-1.312zm4.1-9.44c-.32 0-.586-.096-.8-.288-.202-.203-.304-.453-.304-.752a.97.97 0 0 1 .304-.736c.214-.203.48-.304.8-.304s.582.101.784.304c.214.192.32.437.32.736s-.106.549-.32.752c-.202.192-.464.288-.784.288zm-.848 9.44v-7.936h1.696V329h-1.696zm3.935 0v-7.936h1.504l.128 1.392a2.72 2.72 0 0 1 1.072-1.152c.48-.288 1.029-.432 1.648-.432.96 0 1.712.299 2.256.896.555.597.832 1.488.832 2.672V329h-1.68v-4.384c0-1.536-.629-2.304-1.888-2.304-.629 0-1.152.224-1.568.672-.405.448-.608 1.088-.608 1.92V329h-1.696zm13.566 3.712c-.683 0-1.323-.117-1.92-.352a3.66 3.66 0 0 1-1.488-1.04c-.406-.459-.662-1.035-.768-1.728h1.68c.138.501.426.901.864 1.2.448.299.986.448 1.616.448a2.52 2.52 0 0 0 1.76-.672c.49-.437.736-1.099.736-1.984v-1.072c-.246.416-.614.784-1.104 1.104-.48.32-1.083.48-1.808.48a3.98 3.98 0 0 1-2.032-.528c-.598-.363-1.072-.853-1.424-1.472-.352-.629-.528-1.333-.528-2.112 0-.789.176-1.493.528-2.112a3.88 3.88 0 0 1 1.424-1.456c.608-.363 1.29-.544 2.048-.544.65 0 1.226.144 1.728.432.501.277.89.624 1.168 1.04l.16-1.28h1.536v7.456c0 .896-.187 1.653-.56 2.272-.363.629-.859 1.104-1.488 1.424-.63.331-1.339.496-2.128.496zm-.128-5.072c.501 0 .944-.112 1.328-.336a2.58 2.58 0 0 0 .912-.944c.224-.405.336-.864.336-1.376 0-.523-.112-.981-.336-1.376s-.528-.704-.912-.928-.827-.336-1.328-.336c-.491 0-.928.112-1.312.336s-.688.533-.912.928-.336.853-.336 1.376c0 .512.112.971.336 1.376a2.58 2.58 0 0 0 .912.944c.384.224.821.336 1.312.336zm9.621 1.552c-1.003 0-1.83-.245-2.48-.736s-1.024-1.141-1.12-1.952h1.712c.085.363.288.677.608.944.32.256.741.384 1.264.384.512 0 .885-.107 1.12-.32s.352-.459.352-.736c0-.405-.166-.677-.496-.816-.32-.149-.768-.283-1.344-.4-.448-.096-.896-.224-1.344-.384-.438-.16-.806-.384-1.104-.672-.288-.299-.432-.699-.432-1.2a2.18 2.18 0 0 1 .8-1.728c.533-.469 1.28-.704 2.24-.704.885 0 1.6.213 2.144.64.554.427.88 1.029.976 1.808h-1.632a1.17 1.17 0 0 0-.48-.8c-.256-.192-.603-.288-1.04-.288-.427 0-.758.091-.992.272-.235.171-.352.395-.352.672s.16.496.48.656c.33.16.762.304 1.296.432a12.09 12.09 0 0 1 1.472.416c.458.149.826.373 1.104.672s.416.736.416 1.312c.01.725-.272 1.328-.848 1.808-.566.48-1.339.72-2.32.72z" class="B"/><rect x="453" y="316" width="16" height="16" rx="2" class="C"/><path d="M456.5 323.5l3 3 6-6" class="D E"/><rect x="375" y="316" width="16" height="16" rx="2" class="C"/><path d="M378.5 323.5l3 3 6-6" class="D E"/><rect x="362" y="358" width="134" height="40" rx="6" class="C"/><path d="M384.589 383.192c-1.109 0-2.069-.24-2.88-.72-.8-.491-1.419-1.168-1.856-2.032-.437-.875-.656-1.883-.656-3.024 0-1.152.219-2.16.656-3.024a4.93 4.93 0 0 1 1.856-2.048c.811-.491 1.771-.736 2.88-.736 1.312 0 2.384.32 3.216.96s1.36 1.536 1.584 2.688h-1.888c-.149-.651-.469-1.168-.96-1.552s-1.147-.576-1.968-.576c-1.12 0-2.005.384-2.656 1.152-.651.757-.976 1.803-.976 3.136 0 1.323.325 2.363.976 3.12s1.536 1.136 2.656 1.136c.821 0 1.477-.181 1.968-.544s.811-.859.96-1.488h1.888c-.224 1.109-.752 1.979-1.584 2.608s-1.904.944-3.216.944zm6.6-.192v-7.936h1.52l.144 1.504c.278-.523.662-.933 1.152-1.232.502-.309 1.104-.464 1.808-.464v1.776h-.464c-.469 0-.89.08-1.264.24-.362.149-.656.411-.88.784-.213.363-.32.869-.32 1.52V383h-1.696zm9.572.192c-.779 0-1.472-.171-2.08-.512a3.76 3.76 0 0 1-1.408-1.456c-.342-.619-.512-1.339-.512-2.16 0-.832.165-1.563.496-2.192.341-.629.81-1.12 1.408-1.472.608-.352 1.312-.528 2.112-.528.778 0 1.456.176 2.032.528.576.341 1.024.8 1.344 1.376s.48 1.211.48 1.904l-.016.352-.016.4h-6.176c.053.768.304 1.355.752 1.76.458.395.986.592 1.584.592.48 0 .88-.107 1.2-.32.33-.224.576-.523.736-.896h1.696c-.214.747-.64 1.371-1.28 1.872-.63.501-1.414.752-2.352.752zm0-6.928c-.566 0-1.067.171-1.504.512-.438.331-.704.832-.8 1.504h4.48c-.032-.619-.251-1.109-.656-1.472s-.912-.544-1.52-.544zm8.319 6.928c-.672 0-1.226-.112-1.664-.336s-.762-.517-.976-.88c-.213-.373-.32-.779-.32-1.216 0-.768.299-1.376.896-1.824s1.451-.672 2.56-.672h2.08v-.144c0-.619-.17-1.083-.512-1.392-.33-.309-.762-.464-1.296-.464-.469 0-.88.117-1.232.352-.341.224-.549.56-.624 1.008h-1.696c.054-.576.246-1.067.576-1.472a3.24 3.24 0 0 1 1.28-.944c.523-.224 1.094-.336 1.712-.336 1.11 0 1.968.293 2.576.88.608.576.912 1.365.912 2.368V383h-1.472l-.144-1.36c-.224.437-.549.805-.976 1.104s-.986.448-1.68.448zm.336-1.376c.459 0 .843-.107 1.152-.32.32-.224.566-.517.736-.88.182-.363.294-.763.336-1.2h-1.888c-.672 0-1.152.117-1.44.352-.277.235-.416.528-.416.88 0 .363.134.651.4.864.278.203.651.304 1.12.304zm9.086 1.184c-.779 0-1.398-.187-1.856-.56-.459-.384-.688-1.061-.688-2.032v-3.92h-1.36v-1.424h1.36l.208-2.016h1.488v2.016h2.24v1.424h-2.24v3.92c0 .437.09.741.272.912.192.16.517.24.976.24h.912V383h-1.312zm6.649.192c-.778 0-1.472-.171-2.08-.512-.597-.352-1.066-.837-1.408-1.456s-.512-1.339-.512-2.16c0-.832.166-1.563.496-2.192a3.75 3.75 0 0 1 1.408-1.472c.608-.352 1.312-.528 2.112-.528.779 0 1.456.176 2.032.528.576.341 1.024.8 1.344 1.376s.48 1.211.48 1.904l-.016.352-.016.4h-6.176c.054.768.304 1.355.752 1.76.459.395.987.592 1.584.592.48 0 .88-.107 1.2-.32a2.02 2.02 0 0 0 .736-.896h1.696a3.58 3.58 0 0 1-1.28 1.872c-.629.501-1.413.752-2.352.752zm0-6.928a2.38 2.38 0 0 0-1.504.512c-.437.331-.704.832-.8 1.504h4.48c-.032-.619-.25-1.109-.656-1.472s-.912-.544-1.52-.544zm14.719 6.928c-1.109 0-2.069-.24-2.88-.72-.8-.491-1.418-1.168-1.856-2.032-.437-.875-.656-1.883-.656-3.024 0-1.152.219-2.16.656-3.024.438-.875 1.056-1.557 1.856-2.048.811-.491 1.771-.736 2.88-.736 1.312 0 2.384.32 3.216.96s1.36 1.536 1.584 2.688h-1.888c-.149-.651-.469-1.168-.96-1.552s-1.146-.576-1.968-.576c-1.12 0-2.005.384-2.656 1.152-.65.757-.976 1.803-.976 3.136 0 1.323.326 2.363.976 3.12s1.536 1.136 2.656 1.136c.822 0 1.478-.181 1.968-.544s.811-.859.96-1.488h1.888c-.224 1.109-.752 1.979-1.584 2.608s-1.904.944-3.216.944zm6.6-.192v-11.52h1.696V383h-1.696zm4.804-9.44c-.32 0-.586-.096-.8-.288-.202-.203-.304-.453-.304-.752a.97.97 0 0 1 .304-.736c.214-.203.48-.304.8-.304s.582.101.784.304c.214.192.32.437.32.736s-.106.549-.32.752c-.202.192-.464.288-.784.288zm-.848 9.44v-7.936h1.696V383h-1.696zm7.647.192c-.779 0-1.472-.171-2.08-.512a3.77 3.77 0 0 1-1.408-1.456c-.341-.619-.512-1.339-.512-2.16 0-.832.165-1.563.496-2.192.341-.629.811-1.12 1.408-1.472.608-.352 1.312-.528 2.112-.528.779 0 1.456.176 2.032.528.576.341 1.024.8 1.344 1.376s.48 1.211.48 1.904l-.016.352-.016.4h-6.176c.053.768.304 1.355.752 1.76.459.395.987.592 1.584.592.48 0 .88-.107 1.2-.32a2.02 2.02 0 0 0 .736-.896h1.696a3.58 3.58 0 0 1-1.28 1.872c-.629.501-1.413.752-2.352.752zm0-6.928a2.38 2.38 0 0 0-1.504.512c-.437.331-.704.832-.8 1.504h4.48c-.032-.619-.251-1.109-.656-1.472s-.912-.544-1.52-.544zm5.632 6.736v-7.936h1.504l.128 1.392c.245-.491.602-.875 1.072-1.152.48-.288 1.029-.432 1.648-.432.96 0 1.712.299 2.256.896.554.597.832 1.488.832 2.672V383h-1.68v-4.384c0-1.536-.63-2.304-1.888-2.304-.63 0-1.152.224-1.568.672-.406.448-.608 1.088-.608 1.92V383h-1.696zm12.765 0c-.778 0-1.397-.187-1.856-.56-.458-.384-.688-1.061-.688-2.032v-3.92h-1.36v-1.424h1.36l.208-2.016h1.488v2.016h2.24v1.424h-2.24v3.92c0 .437.091.741.272.912.192.16.518.24.976.24h.912V383h-1.312z" class="B"/></svg>