<svg xmlns="http://www.w3.org/2000/svg" width="192" height="192" fill="none"><g clip-path="url(#B)"><rect width="192" height="192" rx="24" fill="#fff" fill-opacity=".04"/><g filter="url(#A)"><path d="M60 111c19.882 0 36-16.118 36-36S79.882 39 60 39v72z" fill="#fff"/><path d="M132 81c-19.882 0-36 16.118-36 36s16.118 36 36 36V81z" fill="#fff"/><path d="M135 57c0 8.284-6.716 15-15 15s-15-6.716-15-15 6.716-15 15-15 15 6.716 15 15z" fill="#fff"/><path d="M87 135c0 8.284-6.716 15-15 15s-15-6.716-15-15 6.716-15 15-15 15 6.716 15 15z" fill="#fff"/></g></g><defs><filter id="A" x="-7" y="-25" width="206" height="242" filterUnits="userSpaceOnUse" color-interpolation-filters="sRGB"><feFlood flood-opacity="0" result="A"/><feColorMatrix in="SourceAlpha" values="0 0 0 0 0 0 0 0 0 0 0 0 0 0 0 0 0 0 127 0" result="B"/><feOffset/><feGaussianBlur stdDeviation="32"/><feComposite in2="B" operator="out"/><feColorMatrix values="0 0 0 0 1 0 0 0 0 1 0 0 0 0 1 0 0 0 0.25 0"/><feBlend in2="A"/><feBlend in="SourceGraphic"/></filter><clipPath id="B"><rect width="192" height="192" rx="24" fill="#fff"/></clipPath></defs></svg>