<svg xmlns="http://www.w3.org/2000/svg" width="488" height="320" fill="none"><style><![CDATA[.B{fill-opacity:.04}]]></style><path fill="url(#A)" fill-opacity=".15" d="M0 0h488v320H0z"/><g fill="#fff"><rect x="72" width="78" height="40" rx="6" class="B"/><path d="M89.136 25.5V14.3h3.92c.875 0 1.6.149 2.176.448.576.288 1.003.688 1.28 1.2.288.501.432 1.072.432 1.712a3.47 3.47 0 0 1-.416 1.68c-.267.501-.688.901-1.264 1.2s-1.312.448-2.208.448h-2.224V25.5h-1.696zm1.696-5.904h2.144c.8 0 1.371-.171 1.712-.512.352-.352.528-.827.528-1.424 0-.619-.176-1.099-.528-1.44-.341-.352-.912-.528-1.712-.528h-2.144v3.904zm9.975 6.096c-.672 0-1.227-.112-1.664-.336s-.763-.517-.976-.88a2.41 2.41 0 0 1-.32-1.216c0-.768.299-1.376.896-1.824s1.451-.672 2.56-.672h2.08v-.144c0-.619-.171-1.083-.512-1.392-.331-.309-.763-.464-1.296-.464-.469 0-.88.117-1.232.352-.341.224-.55.56-.624 1.008h-1.696c.053-.576.245-1.067.576-1.472.341-.416.768-.731 1.28-.944.523-.224 1.093-.336 1.712-.336 1.109 0 1.968.293 2.576.88.608.576.912 1.365.912 2.368v4.88h-1.472l-.144-1.36c-.224.437-.549.805-.976 1.104s-.987.448-1.68.448zm.336-1.376c.459 0 .843-.107 1.152-.32.32-.224.565-.517.736-.88a3.41 3.41 0 0 0 .336-1.2h-1.888c-.672 0-1.152.117-1.44.352-.278.235-.416.528-.416.88 0 .363.133.651.4.864.277.203.651.304 1.12.304zm10.041 4.896c-.682 0-1.322-.117-1.92-.352a3.67 3.67 0 0 1-1.488-1.04c-.405-.459-.661-1.035-.768-1.728h1.68a2.09 2.09 0 0 0 .864 1.2c.448.299.987.448 1.616.448.683 0 1.27-.224 1.76-.672.491-.437.736-1.099.736-1.984v-1.072c-.245.416-.613.784-1.104 1.104-.48.32-1.082.48-1.808.48-.746 0-1.424-.176-2.032-.528-.597-.363-1.072-.853-1.424-1.472-.352-.629-.528-1.333-.528-2.112 0-.789.176-1.493.528-2.112a3.89 3.89 0 0 1 1.424-1.456c.608-.363 1.291-.544 2.048-.544.651 0 1.227.144 1.728.432.502.277.891.624 1.168 1.04l.16-1.28h1.536v7.456c0 .896-.186 1.653-.56 2.272-.362.629-.858 1.104-1.488 1.424-.629.331-1.338.496-2.128.496zm-.128-5.072c.502 0 .944-.112 1.328-.336a2.58 2.58 0 0 0 .912-.944c.224-.405.336-.864.336-1.376 0-.523-.112-.981-.336-1.376s-.528-.704-.912-.928-.826-.336-1.328-.336c-.49 0-.928.112-1.312.336s-.688.533-.912.928-.336.853-.336 1.376c0 .512.112.971.336 1.376a2.58 2.58 0 0 0 .912.944c.384.224.822.336 1.312.336zm10.166 1.552c-.779 0-1.472-.171-2.08-.512-.598-.352-1.067-.837-1.408-1.456s-.512-1.339-.512-2.16c0-.832.165-1.563.496-2.192.341-.629.81-1.12 1.408-1.472.608-.352 1.312-.528 2.112-.528.778 0 1.456.176 2.032.528.576.341 1.024.8 1.344 1.376s.48 1.211.48 1.904l-.016.352-.016.4h-6.176c.053.768.304 1.355.752 1.76.458.395.986.592 1.584.592.48 0 .88-.107 1.2-.32.33-.224.576-.523.736-.896h1.696c-.214.747-.64 1.371-1.28 1.872-.63.501-1.414.752-2.352.752zm0-6.928c-.566 0-1.067.171-1.504.512-.438.331-.704.832-.8 1.504h4.48c-.032-.619-.251-1.109-.656-1.472s-.912-.544-1.52-.544zm8.799 6.928c-1.002 0-1.829-.245-2.48-.736s-1.024-1.141-1.12-1.952h1.712c.086.363.288.677.608.944.32.256.742.384 1.264.384.512 0 .886-.107 1.12-.32s.352-.459.352-.736c0-.405-.165-.677-.496-.816-.32-.149-.768-.283-1.344-.4-.448-.096-.896-.224-1.344-.384-.437-.16-.805-.384-1.104-.672-.288-.299-.432-.699-.432-1.2 0-.693.267-1.269.8-1.728.534-.469 1.28-.704 2.24-.704.886 0 1.6.213 2.144.64.555.427.88 1.029.976 1.808h-1.632c-.053-.341-.213-.608-.48-.8-.256-.192-.602-.288-1.04-.288-.426 0-.757.091-.992.272-.234.171-.352.395-.352.672s.16.496.48.656c.331.16.763.304 1.296.432.534.117 1.024.256 1.472.416.459.149.827.373 1.104.672s.416.736.416 1.312c.011.725-.272 1.328-.848 1.808-.565.48-1.338.72-2.32.72z"/><rect x="166" width="123" height="40" rx="6" class="B"/><path d="M183.136 25.5V14.3h7.12v1.376h-5.424v3.488h4.944v1.344h-4.944v3.616h5.424V25.5h-7.12zm9.077 0v-7.936h1.504l.128 1.392a2.72 2.72 0 0 1 1.072-1.152c.48-.288 1.029-.432 1.648-.432.96 0 1.712.299 2.256.896.554.597.832 1.488.832 2.672v4.56h-1.68v-4.384c0-1.536-.63-2.304-1.888-2.304-.63 0-1.152.224-1.568.672-.406.448-.608 1.088-.608 1.92V25.5h-1.696zm12.765 0c-.779 0-1.397-.187-1.856-.56-.459-.384-.688-1.061-.688-2.032v-3.92h-1.36v-1.424h1.36l.208-2.016h1.488v2.016h2.24v1.424h-2.24v3.92c0 .437.091.741.272.912.192.16.517.24.976.24h.912v1.44h-1.312zm3.141 0v-7.936h1.52l.144 1.504c.277-.523.661-.933 1.152-1.232.501-.309 1.104-.464 1.808-.464v1.776h-.464a3.18 3.18 0 0 0-1.264.24c-.363.149-.656.411-.88.784-.213.363-.32.869-.32 1.52V25.5h-1.696zm7.006 3.52l1.904-4.176h-.464l-3.136-7.28h1.84l2.432 5.872 2.544-5.872h1.792l-5.12 11.456h-1.792zm12.402-3.52V14.3h3.92c.874 0 1.6.149 2.176.448.576.288 1.002.688 1.28 1.2.288.501.432 1.072.432 1.712 0 .608-.139 1.168-.416 1.68-.267.501-.688.901-1.264 1.2s-1.312.448-2.208.448h-2.224V25.5h-1.696zm1.696-5.904h2.144c.8 0 1.37-.171 1.712-.512.352-.352.528-.827.528-1.424 0-.619-.176-1.099-.528-1.44-.342-.352-.912-.528-1.712-.528h-2.144v3.904zm9.975 6.096c-.672 0-1.227-.112-1.664-.336s-.763-.517-.976-.88c-.214-.373-.32-.779-.32-1.216 0-.768.298-1.376.896-1.824s1.45-.672 2.56-.672h2.08v-.144c0-.619-.171-1.083-.512-1.392-.331-.309-.763-.464-1.296-.464-.47 0-.88.117-1.232.352-.342.224-.55.56-.624 1.008h-1.696c.053-.576.245-1.067.576-1.472.341-.416.768-.731 1.28-.944.522-.224 1.093-.336 1.712-.336 1.109 0 1.968.293 2.576.88.608.576.912 1.365.912 2.368v4.88h-1.472l-.144-1.36c-.224.437-.55.805-.976 1.104s-.987.448-1.68.448zm.336-1.376c.458 0 .842-.107 1.152-.32.32-.224.565-.517.736-.88a3.41 3.41 0 0 0 .336-1.2h-1.888c-.672 0-1.152.117-1.44.352-.278.235-.416.528-.416.88 0 .363.133.651.4.864.277.203.65.304 1.12.304zm10.041 4.896a5.2 5.2 0 0 1-1.92-.352c-.587-.224-1.083-.571-1.488-1.04-.405-.459-.661-1.035-.768-1.728h1.68a2.09 2.09 0 0 0 .864 1.2c.448.299.987.448 1.616.448a2.52 2.52 0 0 0 1.76-.672c.491-.437.736-1.099.736-1.984v-1.072c-.245.416-.613.784-1.104 1.104-.48.32-1.083.48-1.808.48a3.98 3.98 0 0 1-2.032-.528c-.597-.363-1.072-.853-1.424-1.472-.352-.629-.528-1.333-.528-2.112 0-.789.176-1.493.528-2.112a3.89 3.89 0 0 1 1.424-1.456c.608-.363 1.291-.544 2.048-.544.651 0 1.227.144 1.728.432.501.277.891.624 1.168 1.04l.16-1.28h1.536v7.456c0 .896-.187 1.653-.56 2.272-.363.629-.859 1.104-1.488 1.424-.629.331-1.339.496-2.128.496zm-.128-5.072c.501 0 .944-.112 1.328-.336a2.58 2.58 0 0 0 .912-.944c.224-.405.336-.864.336-1.376 0-.523-.112-.981-.336-1.376s-.528-.704-.912-.928-.827-.336-1.328-.336c-.491 0-.928.112-1.312.336s-.688.533-.912.928-.336.853-.336 1.376c0 .512.112.971.336 1.376a2.58 2.58 0 0 0 .912.944c.384.224.821.336 1.312.336zm10.165 1.552c-.779 0-1.472-.171-2.08-.512a3.77 3.77 0 0 1-1.408-1.456c-.341-.619-.512-1.339-.512-2.16 0-.832.165-1.563.496-2.192.341-.629.811-1.12 1.408-1.472.608-.352 1.312-.528 2.112-.528.779 0 1.456.176 2.032.528.576.341 1.024.8 1.344 1.376s.48 1.211.48 1.904l-.016.352-.016.4h-6.176c.053.768.304 1.355.752 1.76.459.395.987.592 1.584.592.48 0 .88-.107 1.2-.32.331-.224.576-.523.736-.896h1.696c-.213.747-.64 1.371-1.28 1.872-.629.501-1.413.752-2.352.752zm0-6.928c-.565 0-1.067.171-1.504.512-.437.331-.704.832-.8 1.504h4.48c-.032-.619-.251-1.109-.656-1.472s-.912-.544-1.52-.544zm8.8 6.928c-1.003 0-1.829-.245-2.48-.736s-1.024-1.141-1.12-1.952h1.712c.085.363.288.677.608.944.32.256.741.384 1.264.384.512 0 .885-.107 1.12-.32s.352-.459.352-.736c0-.405-.165-.677-.496-.816-.32-.149-.768-.283-1.344-.4-.448-.096-.896-.224-1.344-.384-.437-.16-.805-.384-1.104-.672-.288-.299-.432-.699-.432-1.2 0-.693.267-1.269.8-1.728.533-.469 1.28-.704 2.24-.704.885 0 1.6.213 2.144.64.555.427.88 1.029.976 1.808h-1.632c-.053-.341-.213-.608-.48-.8-.256-.192-.603-.288-1.04-.288-.427 0-.757.091-.992.272-.235.171-.352.395-.352.672s.16.496.48.656c.331.16.763.304 1.296.432.533.117 1.024.256 1.472.416.459.149.827.373 1.104.672s.416.736.416 1.312c.011.725-.272 1.328-.848 1.808-.565.48-1.339.72-2.32.72z"/><rect x="305" width="111" height="40" rx="6" class="B"/><path d="M322.136 25.5V14.3h7.12v1.376h-5.424v3.488h4.944v1.344h-4.944v3.616h5.424V25.5h-7.12zm8.309 0l2.816-3.968-2.816-3.968h1.808l2.128 3.04 2.112-3.04h1.824l-2.816 3.968 2.816 3.968h-1.824l-2.112-3.04-2.128 3.04h-1.808zm10.212-9.44a1.15 1.15 0 0 1-.8-.288 1.02 1.02 0 0 1-.304-.752c0-.299.101-.544.304-.736.213-.203.48-.304.8-.304s.581.101.784.304c.213.192.32.437.32.736s-.107.549-.32.752c-.203.192-.464.288-.784.288zm-.848 9.44v-7.936h1.696V25.5h-1.696zm7.263 0c-.779 0-1.397-.187-1.856-.56-.459-.384-.688-1.061-.688-2.032v-3.92h-1.36v-1.424h1.36l.208-2.016h1.488v2.016h2.24v1.424h-2.24v3.92c0 .437.091.741.272.912.192.16.517.24.976.24h.912v1.44h-1.312zm7.236 0V14.3h3.92c.875 0 1.6.149 2.176.448.576.288 1.003.688 1.28 1.2.288.501.432 1.072.432 1.712 0 .608-.139 1.168-.416 1.68-.267.501-.688.901-1.264 1.2s-1.312.448-2.208.448h-2.224V25.5h-1.696zm1.696-5.904h2.144c.8 0 1.371-.171 1.712-.512.352-.352.528-.827.528-1.424 0-.619-.176-1.099-.528-1.44-.341-.352-.912-.528-1.712-.528h-2.144v3.904zm9.975 6.096c-.672 0-1.227-.112-1.664-.336s-.763-.517-.976-.88c-.214-.373-.32-.779-.32-1.216 0-.768.298-1.376.896-1.824s1.45-.672 2.56-.672h2.08v-.144c0-.619-.171-1.083-.512-1.392-.331-.309-.763-.464-1.296-.464-.47 0-.88.117-1.232.352-.342.224-.55.56-.624 1.008h-1.696c.053-.576.245-1.067.576-1.472.341-.416.768-.731 1.28-.944.522-.224 1.093-.336 1.712-.336 1.109 0 1.968.293 2.576.88.608.576.912 1.365.912 2.368v4.88h-1.472l-.144-1.36c-.224.437-.55.805-.976 1.104s-.987.448-1.68.448zm.336-1.376c.458 0 .842-.107 1.152-.32.32-.224.565-.517.736-.88a3.41 3.41 0 0 0 .336-1.2h-1.888c-.672 0-1.152.117-1.44.352-.278.235-.416.528-.416.88 0 .363.133.651.4.864.277.203.65.304 1.12.304zm10.041 4.896c-.682 0-1.322-.117-1.92-.352a3.67 3.67 0 0 1-1.488-1.04c-.405-.459-.661-1.035-.768-1.728h1.68a2.09 2.09 0 0 0 .864 1.2c.448.299.987.448 1.616.448.683 0 1.27-.224 1.76-.672.491-.437.736-1.099.736-1.984v-1.072c-.245.416-.613.784-1.104 1.104-.48.32-1.082.48-1.808.48-.746 0-1.424-.176-2.032-.528-.597-.363-1.072-.853-1.424-1.472-.352-.629-.528-1.333-.528-2.112 0-.789.176-1.493.528-2.112a3.89 3.89 0 0 1 1.424-1.456c.608-.363 1.291-.544 2.048-.544.651 0 1.227.144 1.728.432.502.277.891.624 1.168 1.04l.16-1.28h1.536v7.456c0 .896-.186 1.653-.56 2.272-.362.629-.858 1.104-1.488 1.424-.629.331-1.338.496-2.128.496zm-.128-5.072c.502 0 .944-.112 1.328-.336a2.58 2.58 0 0 0 .912-.944c.224-.405.336-.864.336-1.376 0-.523-.112-.981-.336-1.376s-.528-.704-.912-.928-.826-.336-1.328-.336c-.49 0-.928.112-1.312.336s-.688.533-.912.928-.336.853-.336 1.376c0 .512.112.971.336 1.376a2.58 2.58 0 0 0 .912.944c.384.224.822.336 1.312.336zm10.165 1.552c-.778 0-1.472-.171-2.08-.512-.597-.352-1.066-.837-1.408-1.456s-.512-1.339-.512-2.16c0-.832.166-1.563.496-2.192a3.75 3.75 0 0 1 1.408-1.472c.608-.352 1.312-.528 2.112-.528.779 0 1.456.176 2.032.528.576.341 1.024.8 1.344 1.376s.48 1.211.48 1.904l-.016.352-.016.4h-6.176c.054.768.304 1.355.752 1.76.459.395.987.592 1.584.592.48 0 .88-.107 1.2-.32.331-.224.576-.523.736-.896h1.696c-.213.747-.64 1.371-1.28 1.872-.629.501-1.413.752-2.352.752zm0-6.928a2.38 2.38 0 0 0-1.504.512c-.437.331-.704.832-.8 1.504h4.48c-.032-.619-.25-1.109-.656-1.472s-.912-.544-1.52-.544zm8.8 6.928c-1.003 0-1.829-.245-2.48-.736s-1.024-1.141-1.12-1.952h1.712c.085.363.288.677.608.944.32.256.741.384 1.264.384.512 0 .885-.107 1.12-.32s.352-.459.352-.736c0-.405-.165-.677-.496-.816-.32-.149-.768-.283-1.344-.4-.448-.096-.896-.224-1.344-.384-.437-.16-.805-.384-1.104-.672-.288-.299-.432-.699-.432-1.2 0-.693.267-1.269.8-1.728.533-.469 1.28-.704 2.24-.704.885 0 1.6.213 2.144.64.555.427.88 1.029.976 1.808h-1.632c-.053-.341-.213-.608-.48-.8-.256-.192-.603-.288-1.04-.288-.427 0-.757.091-.992.272-.235.171-.352.395-.352.672s.16.496.48.656c.331.16.763.304 1.296.432.533.117 1.024.256 1.472.416.459.149.827.373 1.104.672s.416.736.416 1.312c.011.725-.272 1.328-.848 1.808-.565.48-1.339.72-2.32.72z"/><rect x="23.5" y="56" width="101" height="40" rx="6" class="B"/><path d="M40.636 81.5V70.3h3.856c.885 0 1.611.149 2.176.448.576.299 1.003.704 1.28 1.216.277.501.416 1.061.416 1.68a3.35 3.35 0 0 1-.56 1.888c-.363.565-.933.971-1.712 1.216l2.384 4.752h-1.968l-2.176-4.512h-2V81.5h-1.696zm1.696-5.792h2.064c.768 0 1.328-.187 1.68-.56.363-.373.544-.859.544-1.456s-.176-1.072-.528-1.424c-.352-.363-.923-.544-1.712-.544h-2.048v3.984zm11.202 5.984c-.779 0-1.472-.171-2.08-.512a3.77 3.77 0 0 1-1.408-1.456c-.341-.619-.512-1.339-.512-2.16 0-.832.165-1.563.496-2.192.341-.629.811-1.12 1.408-1.472.608-.352 1.312-.528 2.112-.528.779 0 1.456.176 2.032.528.576.341 1.024.8 1.344 1.376s.48 1.211.48 1.904l-.016.352-.016.4h-6.176c.053.768.304 1.355.752 1.76.459.395.987.592 1.584.592.48 0 .88-.107 1.2-.32a2.02 2.02 0 0 0 .736-.896h1.696c-.213.747-.64 1.371-1.28 1.872-.629.501-1.413.752-2.352.752zm0-6.928c-.565 0-1.067.171-1.504.512-.437.331-.704.832-.8 1.504h4.48c-.032-.619-.251-1.109-.656-1.472s-.912-.544-1.52-.544zm6.032 6.736v-6.512H58.43v-1.424h1.136v-1.152c0-.864.213-1.483.64-1.856.437-.384 1.051-.576 1.84-.576h.832v1.44h-.576c-.373 0-.64.08-.8.24-.16.149-.24.405-.24.768v1.136h1.824v1.424h-1.824V81.5h-1.696zm8.531.192c-.779 0-1.472-.171-2.08-.512a3.77 3.77 0 0 1-1.408-1.456c-.341-.619-.512-1.339-.512-2.16 0-.832.165-1.563.496-2.192.341-.629.811-1.12 1.408-1.472.608-.352 1.312-.528 2.112-.528.779 0 1.456.176 2.032.528.576.341 1.024.8 1.344 1.376s.48 1.211.48 1.904l-.016.352-.016.4h-6.176c.053.768.304 1.355.752 1.76.459.395.987.592 1.584.592.48 0 .88-.107 1.2-.32a2.02 2.02 0 0 0 .736-.896h1.696c-.213.747-.64 1.371-1.28 1.872-.629.501-1.413.752-2.352.752zm0-6.928c-.565 0-1.067.171-1.504.512-.437.331-.704.832-.8 1.504h4.48c-.032-.619-.251-1.109-.656-1.472s-.912-.544-1.52-.544zm5.632 6.736v-7.936h1.52l.144 1.504c.277-.523.661-.933 1.152-1.232.501-.309 1.104-.464 1.808-.464v1.776h-.464c-.469 0-.891.08-1.264.24-.363.149-.656.411-.88.784-.213.363-.32.869-.32 1.52V81.5h-1.696zm6.078 0v-7.936h1.52l.144 1.504c.277-.523.661-.933 1.152-1.232.501-.309 1.104-.464 1.808-.464v1.776h-.464c-.469 0-.891.08-1.264.24-.363.149-.656.411-.88.784-.213.363-.32.869-.32 1.52V81.5h-1.696zm9.571.192c-.779 0-1.472-.171-2.08-.512a3.77 3.77 0 0 1-1.408-1.456c-.341-.619-.512-1.339-.512-2.16 0-.832.165-1.563.496-2.192a3.74 3.74 0 0 1 1.408-1.472c.608-.352 1.312-.528 2.112-.528.779 0 1.456.176 2.032.528.576.341 1.024.8 1.344 1.376s.48 1.211.48 1.904l-.016.352-.016.4h-6.176c.053.768.304 1.355.752 1.76.459.395.987.592 1.584.592.48 0 .88-.107 1.2-.32a2.02 2.02 0 0 0 .736-.896h1.696c-.213.747-.64 1.371-1.28 1.872-.629.501-1.413.752-2.352.752zm0-6.928c-.565 0-1.067.171-1.504.512-.437.331-.704.832-.8 1.504h4.48c-.032-.619-.251-1.109-.656-1.472s-.912-.544-1.52-.544zM95.01 81.5v-7.936h1.52l.144 1.504c.277-.523.661-.933 1.152-1.232.501-.309 1.104-.464 1.808-.464v1.776h-.464a3.18 3.18 0 0 0-1.264.24c-.363.149-.656.411-.88.784-.213.363-.32.869-.32 1.52V81.5H95.01zm9.246.192c-1.003 0-1.83-.245-2.48-.736s-1.024-1.141-1.12-1.952h1.712c.085.363.288.677.608.944.32.256.741.384 1.264.384.512 0 .885-.107 1.12-.32s.352-.459.352-.736c0-.405-.166-.677-.496-.816-.32-.149-.768-.283-1.344-.4-.448-.096-.896-.224-1.344-.384-.438-.16-.806-.384-1.104-.672-.288-.299-.432-.699-.432-1.2a2.18 2.18 0 0 1 .8-1.728c.533-.469 1.28-.704 2.24-.704.885 0 1.6.213 2.144.64.554.427.88 1.029.976 1.808h-1.632a1.17 1.17 0 0 0-.48-.8c-.256-.192-.603-.288-1.04-.288-.427 0-.758.091-.992.272-.235.171-.352.395-.352.672s.16.496.48.656c.33.16.762.304 1.296.432.533.117 1.024.256 1.472.416.458.149.826.373 1.104.672s.416.736.416 1.312a2.21 2.21 0 0 1-.848 1.808c-.566.48-1.339.72-2.32.72z"/><rect x="140.5" y="56" width="94" height="40" rx="6" class="B"/><path d="M161.332 81.692c-.821 0-1.541-.144-2.16-.432s-1.104-.699-1.456-1.232c-.341-.533-.517-1.168-.528-1.904h1.792c.011.597.219 1.104.624 1.52s.976.624 1.712.624c.651 0 1.157-.155 1.52-.464a1.53 1.53 0 0 0 .56-1.216c0-.395-.091-.715-.272-.96-.171-.245-.411-.448-.72-.608-.299-.16-.645-.304-1.04-.432l-1.248-.416c-.864-.288-1.515-.661-1.952-1.12-.427-.459-.64-1.061-.64-1.808-.011-.629.133-1.179.432-1.648.309-.469.736-.832 1.28-1.088.555-.267 1.2-.4 1.936-.4.725 0 1.36.133 1.904.4.555.267.987.64 1.296 1.12.309.469.469 1.019.48 1.648h-1.792c0-.288-.075-.56-.224-.816-.149-.267-.368-.485-.656-.656s-.64-.256-1.056-.256c-.533-.011-.976.123-1.328.4-.341.277-.512.661-.512 1.152 0 .437.128.773.384 1.008s.608.432 1.056.592l1.536.528c.555.181 1.051.4 1.488.656s.784.592 1.04 1.008c.267.416.4.944.4 1.584 0 .565-.144 1.093-.432 1.584-.288.48-.72.875-1.296 1.184-.576.299-1.285.448-2.128.448zm9.358 0c-.757 0-1.44-.171-2.048-.512a3.89 3.89 0 0 1-1.424-1.456c-.352-.629-.528-1.36-.528-2.192s.176-1.557.528-2.176a3.82 3.82 0 0 1 1.456-1.456c.608-.352 1.286-.528 2.032-.528.758 0 1.435.176 2.032.528.608.341 1.088.827 1.44 1.456.363.619.544 1.344.544 2.176s-.181 1.563-.544 2.192a3.85 3.85 0 0 1-1.44 1.456c-.608.341-1.29.512-2.048.512zm0-1.456a2.15 2.15 0 0 0 1.12-.304 2.22 2.22 0 0 0 .848-.896c.214-.405.32-.907.32-1.504s-.106-1.093-.32-1.488c-.202-.405-.48-.709-.832-.912a2.15 2.15 0 0 0-1.12-.304 2.24 2.24 0 0 0-1.136.304c-.341.203-.618.507-.832.912-.213.395-.32.891-.32 1.488s.107 1.099.32 1.504c.214.395.491.693.832.896s.715.304 1.12.304zm8.794 1.456c-.96 0-1.717-.299-2.272-.896-.544-.597-.816-1.488-.816-2.672v-4.56h1.696v4.384c0 1.536.63 2.304 1.888 2.304.63 0 1.147-.224 1.552-.672s.608-1.088.608-1.92v-4.096h1.696V81.5h-1.504l-.128-1.392c-.245.491-.608.88-1.088 1.168-.469.277-1.013.416-1.632.416zm6.51-.192v-7.936h1.52l.144 1.504c.277-.523.661-.933 1.152-1.232.501-.309 1.104-.464 1.808-.464v1.776h-.464a3.18 3.18 0 0 0-1.264.24c-.363.149-.656.411-.88.784-.213.363-.32.869-.32 1.52V81.5h-1.696zm9.619.192c-.778 0-1.477-.176-2.096-.528a3.85 3.85 0 0 1-1.44-1.456c-.341-.629-.512-1.355-.512-2.176s.171-1.541.512-2.16a3.82 3.82 0 0 1 1.44-1.472c.619-.352 1.318-.528 2.096-.528.982 0 1.803.256 2.464.768.672.512 1.104 1.205 1.296 2.08h-1.776c-.106-.437-.341-.779-.704-1.024s-.789-.368-1.28-.368a2.18 2.18 0 0 0-1.152.32c-.352.203-.634.507-.848.912-.213.395-.32.885-.32 1.472s.107 1.083.32 1.488c.214.395.496.699.848.912a2.18 2.18 0 0 0 1.152.32c.491 0 .918-.123 1.28-.368a1.67 1.67 0 0 0 .704-1.04h1.776c-.181.853-.608 1.541-1.28 2.064s-1.498.784-2.48.784zm9.312 0c-.779 0-1.472-.171-2.08-.512-.598-.352-1.067-.837-1.408-1.456s-.512-1.339-.512-2.16c0-.832.165-1.563.496-2.192.341-.629.81-1.12 1.408-1.472.608-.352 1.312-.528 2.112-.528.778 0 1.456.176 2.032.528.576.341 1.024.8 1.344 1.376s.48 1.211.48 1.904l-.016.352-.016.4h-6.176c.053.768.304 1.355.752 1.76.458.395.986.592 1.584.592.48 0 .88-.107 1.2-.32.33-.224.576-.523.736-.896h1.696c-.214.747-.64 1.371-1.28 1.872-.63.501-1.414.752-2.352.752zm0-6.928c-.566 0-1.067.171-1.504.512-.438.331-.704.832-.8 1.504h4.48c-.032-.619-.251-1.109-.656-1.472s-.912-.544-1.52-.544zm8.799 6.928c-1.002 0-1.829-.245-2.48-.736s-1.024-1.141-1.12-1.952h1.712c.086.363.288.677.608.944.32.256.742.384 1.264.384.512 0 .886-.107 1.12-.32s.352-.459.352-.736c0-.405-.165-.677-.496-.816-.32-.149-.768-.283-1.344-.4-.448-.096-.896-.224-1.344-.384-.437-.16-.805-.384-1.104-.672-.288-.299-.432-.699-.432-1.2 0-.693.267-1.269.8-1.728.534-.469 1.28-.704 2.24-.704.886 0 1.6.213 2.144.64.555.427.88 1.029.976 1.808h-1.632c-.053-.341-.213-.608-.48-.8-.256-.192-.602-.288-1.04-.288-.426 0-.757.091-.992.272-.234.171-.352.395-.352.672s.16.496.48.656c.331.16.763.304 1.296.432.534.117 1.024.256 1.472.416.459.149.827.373 1.104.672s.416.736.416 1.312c.011.725-.272 1.328-.848 1.808-.565.48-1.338.72-2.32.72z"/><rect x="250.5" y="56" width="79" height="40" rx="6" class="B"/><path d="M267.636 81.5V70.3h2l3.792 7.456 3.776-7.456h2v11.2h-1.696v-8.272l-3.424 6.672h-1.312l-3.44-6.656V81.5h-1.696zm17.492.192c-.779 0-1.472-.171-2.08-.512-.598-.352-1.067-.837-1.408-1.456s-.512-1.339-.512-2.16c0-.832.165-1.563.496-2.192.341-.629.81-1.12 1.408-1.472.608-.352 1.312-.528 2.112-.528.778 0 1.456.176 2.032.528.576.341 1.024.8 1.344 1.376s.48 1.211.48 1.904l-.016.352-.016.4h-6.176c.053.768.304 1.355.752 1.76.458.395.986.592 1.584.592.48 0 .88-.107 1.2-.32.33-.224.576-.523.736-.896h1.696c-.214.747-.64 1.371-1.28 1.872-.63.501-1.414.752-2.352.752zm0-6.928c-.566 0-1.067.171-1.504.512-.438.331-.704.832-.8 1.504h4.48c-.032-.619-.251-1.109-.656-1.472s-.912-.544-1.52-.544zm9.248 6.928c-.768 0-1.446-.181-2.032-.544s-1.046-.859-1.376-1.488-.496-1.344-.496-2.144.165-1.509.496-2.128a3.66 3.66 0 0 1 1.376-1.472c.597-.363 1.28-.544 2.047-.544.63 0 1.179.123 1.649.368.48.245.853.592 1.12 1.04v-4.8h1.696V81.5h-1.52l-.176-1.232c-.256.373-.608.704-1.056.992s-1.024.432-1.728.432zm.304-1.472c.725 0 1.317-.251 1.776-.752.469-.501.704-1.147.704-1.936 0-.8-.235-1.445-.704-1.936-.459-.501-1.051-.752-1.776-.752s-1.323.251-1.792.752c-.47.491-.704 1.136-.704 1.936 0 .523.106.987.32 1.392a2.46 2.46 0 0 0 .88.96c.384.224.816.336 1.296.336zm7.274-8.16a1.15 1.15 0 0 1-.8-.288 1.02 1.02 0 0 1-.304-.752c0-.299.101-.544.304-.736.213-.203.48-.304.8-.304s.581.101.784.304c.213.192.32.437.32.736s-.107.549-.32.752c-.203.192-.464.288-.784.288zm-.848 9.44v-7.936h1.696V81.5h-1.696zm6.623.192c-.672 0-1.227-.112-1.664-.336s-.763-.517-.976-.88c-.214-.373-.32-.779-.32-1.216 0-.768.298-1.376.896-1.824s1.45-.672 2.56-.672h2.08v-.144c0-.619-.171-1.083-.512-1.392-.331-.309-.763-.464-1.296-.464-.47 0-.88.117-1.232.352-.342.224-.55.56-.624 1.008h-1.696c.053-.576.245-1.067.576-1.472.341-.416.768-.731 1.28-.944.522-.224 1.093-.336 1.712-.336 1.109 0 1.968.293 2.576.88.608.576.912 1.365.912 2.368v4.88h-1.472l-.144-1.36c-.224.437-.55.805-.976 1.104s-.987.448-1.68.448zm.336-1.376c.458 0 .842-.107 1.152-.32.32-.224.565-.517.736-.88a3.41 3.41 0 0 0 .336-1.2h-1.888c-.672 0-1.152.117-1.44.352-.278.235-.416.528-.416.88 0 .363.133.651.4.864.277.203.65.304 1.12.304z"/><rect x="345.5" y="56" width="119" height="40" rx="6" class="B"/><path d="M367.628 81.692c-1.109 0-2.069-.24-2.88-.72-.8-.491-1.419-1.168-1.856-2.032-.437-.875-.656-1.883-.656-3.024 0-1.152.219-2.16.656-3.024a4.93 4.93 0 0 1 1.856-2.048c.811-.491 1.771-.736 2.88-.736 1.312 0 2.384.32 3.216.96s1.36 1.536 1.584 2.688h-1.888c-.149-.651-.469-1.168-.96-1.552s-1.147-.576-1.968-.576c-1.12 0-2.005.384-2.656 1.152-.651.757-.976 1.803-.976 3.136 0 1.323.325 2.363.976 3.12s1.536 1.136 2.656 1.136c.821 0 1.477-.181 1.968-.544a2.5 2.5 0 0 0 .96-1.488h1.888c-.224 1.109-.752 1.979-1.584 2.608s-1.904.944-3.216.944zm9.288 0c-.672 0-1.226-.112-1.664-.336s-.762-.517-.976-.88c-.213-.373-.32-.779-.32-1.216 0-.768.299-1.376.896-1.824s1.451-.672 2.56-.672h2.08v-.144c0-.619-.17-1.083-.512-1.392-.33-.309-.762-.464-1.296-.464-.469 0-.88.117-1.232.352-.341.224-.549.56-.624 1.008h-1.696c.054-.576.246-1.067.576-1.472.342-.416.768-.731 1.28-.944.523-.224 1.094-.336 1.712-.336 1.11 0 1.968.293 2.576.88.608.576.912 1.365.912 2.368v4.88h-1.472l-.144-1.36c-.224.437-.549.805-.976 1.104s-.986.448-1.68.448zm.336-1.376c.459 0 .843-.107 1.152-.32a2.19 2.19 0 0 0 .736-.88 3.37 3.37 0 0 0 .336-1.2h-1.888c-.672 0-1.152.117-1.44.352-.277.235-.416.528-.416.88a1.05 1.05 0 0 0 .4.864c.278.203.651.304 1.12.304zm5.914 1.184v-7.936h1.504l.144 1.12c.256-.405.592-.725 1.008-.96.426-.235.917-.352 1.472-.352 1.258 0 2.133.496 2.624 1.488.288-.459.672-.821 1.152-1.088a3.26 3.26 0 0 1 1.584-.4c.992 0 1.77.299 2.336.896s.848 1.488.848 2.672v4.56h-1.696v-4.384c0-1.536-.587-2.304-1.76-2.304a1.85 1.85 0 0 0-1.472.672c-.374.448-.56 1.088-.56 1.92V81.5h-1.696v-4.384c0-1.536-.592-2.304-1.776-2.304-.587 0-1.072.224-1.456.672-.374.448-.56 1.088-.56 1.92V81.5h-1.696zm14.656 3.52V73.564h1.52l.176 1.232c.256-.373.608-.704 1.056-.992s1.024-.432 1.728-.432c.768 0 1.445.181 2.032.544a3.78 3.78 0 0 1 1.376 1.488c.341.629.512 1.344.512 2.144s-.171 1.515-.512 2.144c-.331.619-.789 1.109-1.376 1.472-.587.352-1.269.528-2.048.528-.619 0-1.168-.123-1.648-.368a2.84 2.84 0 0 1-1.12-1.04v4.736h-1.696zm4.176-4.8c.725 0 1.323-.245 1.792-.736.469-.501.704-1.152.704-1.952 0-.523-.107-.987-.32-1.392a2.35 2.35 0 0 0-.88-.944c-.373-.235-.805-.352-1.296-.352-.725 0-1.323.251-1.792.752-.459.501-.688 1.147-.688 1.936 0 .8.229 1.451.688 1.952.469.491 1.067.736 1.792.736zm8.746 1.472c-.672 0-1.226-.112-1.664-.336s-.762-.517-.976-.88c-.213-.373-.32-.779-.32-1.216 0-.768.299-1.376.896-1.824s1.451-.672 2.56-.672h2.08v-.144c0-.619-.17-1.083-.512-1.392-.33-.309-.762-.464-1.296-.464-.469 0-.88.117-1.232.352-.341.224-.549.56-.624 1.008h-1.696c.054-.576.246-1.067.576-1.472.342-.416.768-.731 1.28-.944.523-.224 1.094-.336 1.712-.336 1.11 0 1.968.293 2.576.88.608.576.912 1.365.912 2.368v4.88h-1.472l-.144-1.36c-.224.437-.549.805-.976 1.104s-.986.448-1.68.448zm.336-1.376c.459 0 .843-.107 1.152-.32a2.19 2.19 0 0 0 .736-.88 3.37 3.37 0 0 0 .336-1.2h-1.888c-.672 0-1.152.117-1.44.352-.277.235-.416.528-.416.88a1.05 1.05 0 0 0 .4.864c.278.203.651.304 1.12.304zm6.874-8.256a1.15 1.15 0 0 1-.8-.288 1.02 1.02 0 0 1-.304-.752c0-.299.101-.544.304-.736.213-.203.48-.304.8-.304s.581.101.784.304c.213.192.32.437.32.736s-.107.549-.32.752c-.203.192-.464.288-.784.288zm-.848 9.44v-7.936h1.696V81.5h-1.696zm8.063 3.712a5.2 5.2 0 0 1-1.92-.352c-.587-.224-1.083-.571-1.488-1.04-.406-.459-.662-1.035-.768-1.728h1.68a2.08 2.08 0 0 0 .864 1.2c.448.299.986.448 1.616.448a2.52 2.52 0 0 0 1.76-.672c.49-.437.736-1.099.736-1.984v-1.072c-.246.416-.614.784-1.104 1.104-.48.32-1.083.48-1.808.48a3.98 3.98 0 0 1-2.032-.528c-.598-.363-1.072-.853-1.424-1.472-.352-.629-.528-1.333-.528-2.112 0-.789.176-1.493.528-2.112s.826-1.104 1.424-1.456c.608-.363 1.29-.544 2.048-.544.65 0 1.226.144 1.728.432.501.277.89.624 1.168 1.04l.16-1.28h1.536v7.456c0 .896-.187 1.653-.56 2.272-.363.629-.859 1.104-1.488 1.424-.63.331-1.339.496-2.128.496zm-.128-5.072c.501 0 .944-.112 1.328-.336a2.58 2.58 0 0 0 .912-.944c.224-.405.336-.864.336-1.376 0-.523-.112-.981-.336-1.376s-.528-.704-.912-.928-.827-.336-1.328-.336c-.491 0-.928.112-1.312.336s-.688.533-.912.928-.336.853-.336 1.376c0 .512.112.971.336 1.376a2.58 2.58 0 0 0 .912.944c.384.224.821.336 1.312.336zm6.453 1.36v-7.936h1.504l.128 1.392c.245-.491.603-.875 1.072-1.152.48-.288 1.029-.432 1.648-.432.96 0 1.712.299 2.256.896.555.597.832 1.488.832 2.672v4.56h-1.68v-4.384c0-1.536-.629-2.304-1.888-2.304-.629 0-1.152.224-1.568.672-.405.448-.608 1.088-.608 1.92V81.5h-1.696zm12.605.192c-1.002 0-1.829-.245-2.48-.736s-1.024-1.141-1.12-1.952h1.712c.086.363.288.677.608.944.32.256.742.384 1.264.384.512 0 .886-.107 1.12-.32s.352-.459.352-.736c0-.405-.165-.677-.496-.816-.32-.149-.768-.283-1.344-.4-.448-.096-.896-.224-1.344-.384-.437-.16-.805-.384-1.104-.672-.288-.299-.432-.699-.432-1.2 0-.693.267-1.269.8-1.728.534-.469 1.28-.704 2.24-.704.886 0 1.6.213 2.144.64.555.427.88 1.029.976 1.808h-1.632c-.053-.341-.213-.608-.48-.8-.256-.192-.602-.288-1.04-.288-.426 0-.757.091-.992.272-.234.171-.352.395-.352.672s.16.496.48.656c.331.16.763.304 1.296.432.534.117 1.024.256 1.472.416.459.149.827.373 1.104.672s.416.736.416 1.312c.011.725-.272 1.328-.848 1.808-.565.48-1.338.72-2.32.72z"/><rect x="58.5" y="112" width="95" height="40" rx="6" class="B"/><path d="M80.628 137.692c-1.109 0-2.069-.24-2.88-.72-.8-.491-1.419-1.168-1.856-2.032-.437-.875-.656-1.883-.656-3.024 0-1.152.219-2.16.656-3.024.437-.875 1.056-1.557 1.856-2.048.811-.491 1.771-.736 2.88-.736 1.312 0 2.384.32 3.216.96s1.36 1.536 1.584 2.688H83.54c-.149-.651-.469-1.168-.96-1.552s-1.147-.576-1.968-.576c-1.12 0-2.005.384-2.656 1.152-.651.757-.976 1.803-.976 3.136 0 1.323.325 2.363.976 3.12s1.536 1.136 2.656 1.136c.821 0 1.477-.181 1.968-.544s.811-.859.96-1.488h1.888c-.224 1.109-.752 1.979-1.584 2.608s-1.904.944-3.216.944zm10.312 0c-.757 0-1.44-.171-2.048-.512-.597-.352-1.072-.837-1.424-1.456-.352-.629-.528-1.36-.528-2.192s.176-1.557.528-2.176c.363-.629.848-1.115 1.456-1.456.608-.352 1.285-.528 2.032-.528.757 0 1.435.176 2.032.528.608.341 1.088.827 1.44 1.456.363.619.544 1.344.544 2.176s-.181 1.563-.544 2.192a3.85 3.85 0 0 1-1.44 1.456c-.608.341-1.291.512-2.048.512zm0-1.456a2.15 2.15 0 0 0 1.12-.304c.352-.203.635-.501.848-.896.213-.405.32-.907.32-1.504s-.107-1.093-.32-1.488c-.203-.405-.48-.709-.832-.912a2.15 2.15 0 0 0-1.12-.304c-.405 0-.784.101-1.136.304-.341.203-.619.507-.832.912-.213.395-.32.891-.32 1.488s.107 1.099.32 1.504c.213.395.491.693.832.896a2.15 2.15 0 0 0 1.12.304zm5.866 1.264v-7.936h1.504l.128 1.392a2.72 2.72 0 0 1 1.072-1.152c.48-.288 1.03-.432 1.648-.432.96 0 1.712.299 2.256.896.555.597.832 1.488.832 2.672v4.56h-1.68v-4.384c0-1.536-.629-2.304-1.888-2.304-.629 0-1.152.224-1.568.672-.405.448-.608 1.088-.608 1.92v4.096h-1.696zm12.766 0c-.779 0-1.397-.187-1.856-.56-.459-.384-.688-1.061-.688-2.032v-3.92h-1.36v-1.424h1.36l.208-2.016h1.488v2.016h2.24v1.424h-2.24v3.92c0 .437.091.741.272.912.192.16.517.24.976.24h.912v1.44h-1.312zm6.65.192c-.779 0-1.472-.171-2.08-.512a3.76 3.76 0 0 1-1.408-1.456c-.342-.619-.512-1.339-.512-2.16 0-.832.165-1.563.496-2.192.341-.629.81-1.12 1.408-1.472.608-.352 1.312-.528 2.112-.528.778 0 1.456.176 2.032.528.576.341 1.024.8 1.344 1.376s.48 1.211.48 1.904l-.016.352-.016.4h-6.176c.053.768.304 1.355.752 1.76.458.395.986.592 1.584.592.48 0 .88-.107 1.2-.32.33-.224.576-.523.736-.896h1.696c-.214.747-.64 1.371-1.28 1.872-.63.501-1.414.752-2.352.752zm0-6.928c-.566 0-1.067.171-1.504.512-.438.331-.704.832-.8 1.504h4.48c-.032-.619-.251-1.109-.656-1.472s-.912-.544-1.52-.544zm5.631 6.736v-7.936h1.504l.128 1.392a2.73 2.73 0 0 1 1.072-1.152c.48-.288 1.03-.432 1.648-.432.96 0 1.712.299 2.256.896.555.597.832 1.488.832 2.672v4.56h-1.68v-4.384c0-1.536-.629-2.304-1.888-2.304-.629 0-1.152.224-1.568.672-.405.448-.608 1.088-.608 1.92v4.096h-1.696zm12.766 0c-.779 0-1.398-.187-1.856-.56-.459-.384-.688-1.061-.688-2.032v-3.92h-1.36v-1.424h1.36l.208-2.016h1.488v2.016h2.24v1.424h-2.24v3.92c0 .437.09.741.272.912.192.16.517.24.976.24h.912v1.44h-1.312z"/><rect x="169.5" y="112" width="79" height="40" rx="6" class="B"/><path d="M189.26 137.5v-9.824h-3.312V126.3h8.304v1.376h-3.296v9.824h-1.696zm8.79.192c-.779 0-1.472-.171-2.08-.512a3.76 3.76 0 0 1-1.408-1.456c-.342-.619-.512-1.339-.512-2.16 0-.832.165-1.563.496-2.192.341-.629.81-1.12 1.408-1.472.608-.352 1.312-.528 2.112-.528.778 0 1.456.176 2.032.528.576.341 1.024.8 1.344 1.376s.48 1.211.48 1.904l-.016.352-.016.4h-6.176c.053.768.304 1.355.752 1.76.458.395.986.592 1.584.592.48 0 .88-.107 1.2-.32.33-.224.576-.523.736-.896h1.696c-.214.747-.64 1.371-1.28 1.872-.63.501-1.414.752-2.352.752zm0-6.928c-.566 0-1.067.171-1.504.512-.438.331-.704.832-.8 1.504h4.48c-.032-.619-.251-1.109-.656-1.472s-.912-.544-1.52-.544zm5.631 6.736v-7.936h1.52l.144 1.504c.278-.523.662-.933 1.152-1.232.502-.309 1.104-.464 1.808-.464v1.776h-.464c-.469 0-.89.08-1.264.24-.362.149-.656.411-.88.784-.213.363-.32.869-.32 1.52v3.808h-1.696zm6.079 0v-7.936h1.504l.144 1.12a2.81 2.81 0 0 1 1.008-.96c.426-.235.917-.352 1.472-.352 1.258 0 2.133.496 2.624 1.488.288-.459.672-.821 1.152-1.088a3.26 3.26 0 0 1 1.584-.4c.992 0 1.77.299 2.336.896s.848 1.488.848 2.672v4.56h-1.696v-4.384c0-1.536-.587-2.304-1.76-2.304-.598 0-1.088.224-1.473.672-.373.448-.559 1.088-.559 1.92v4.096h-1.696v-4.384c0-1.536-.592-2.304-1.776-2.304-.587 0-1.072.224-1.456.672-.374.448-.56 1.088-.56 1.92v4.096h-1.696zm17.824.192c-1.003 0-1.83-.245-2.48-.736s-1.024-1.141-1.12-1.952h1.712c.085.363.288.677.608.944.32.256.741.384 1.264.384.512 0 .885-.107 1.12-.32s.352-.459.352-.736c0-.405-.166-.677-.496-.816-.32-.149-.768-.283-1.344-.4-.448-.096-.896-.224-1.344-.384-.438-.16-.806-.384-1.104-.672-.288-.299-.432-.699-.432-1.2a2.18 2.18 0 0 1 .8-1.728c.533-.469 1.28-.704 2.24-.704.885 0 1.6.213 2.144.64.554.427.88 1.029.976 1.808h-1.632a1.17 1.17 0 0 0-.48-.8c-.256-.192-.603-.288-1.04-.288-.427 0-.758.091-.992.272-.235.171-.352.395-.352.672s.16.496.48.656c.33.16.762.304 1.296.432a12.09 12.09 0 0 1 1.472.416c.458.149.826.373 1.104.672s.416.736.416 1.312c.01.725-.272 1.328-.848 1.808-.566.48-1.339.72-2.32.72z"/><rect x="264.5" y="112" width="165" height="40" rx="6" class="B"/><path d="M286.628 137.692c-1.109 0-2.069-.24-2.88-.72-.8-.491-1.419-1.168-1.856-2.032-.437-.875-.656-1.883-.656-3.024 0-1.152.219-2.16.656-3.024a4.93 4.93 0 0 1 1.856-2.048c.811-.491 1.771-.736 2.88-.736 1.312 0 2.384.32 3.216.96s1.36 1.536 1.584 2.688h-1.888c-.149-.651-.469-1.168-.96-1.552s-1.147-.576-1.968-.576c-1.12 0-2.005.384-2.656 1.152-.651.757-.976 1.803-.976 3.136 0 1.323.325 2.363.976 3.12s1.536 1.136 2.656 1.136c.821 0 1.477-.181 1.968-.544s.811-.859.96-1.488h1.888c-.224 1.109-.752 1.979-1.584 2.608s-1.904.944-3.216.944zm10.312 0c-.757 0-1.44-.171-2.048-.512-.597-.352-1.072-.837-1.424-1.456-.352-.629-.528-1.36-.528-2.192s.176-1.557.528-2.176a3.82 3.82 0 0 1 1.456-1.456c.608-.352 1.286-.528 2.032-.528.758 0 1.435.176 2.032.528.608.341 1.088.827 1.44 1.456.363.619.544 1.344.544 2.176s-.181 1.563-.544 2.192a3.85 3.85 0 0 1-1.44 1.456c-.608.341-1.29.512-2.048.512zm0-1.456c.406 0 .779-.101 1.12-.304a2.22 2.22 0 0 0 .848-.896c.214-.405.32-.907.32-1.504s-.106-1.093-.32-1.488c-.202-.405-.48-.709-.832-.912-.341-.203-.714-.304-1.12-.304s-.784.101-1.136.304c-.341.203-.618.507-.832.912-.213.395-.32.891-.32 1.488s.107 1.099.32 1.504c.214.395.491.693.832.896s.715.304 1.12.304zm5.866 1.264v-7.936h1.504l.128 1.392a2.73 2.73 0 0 1 1.072-1.152c.48-.288 1.03-.432 1.648-.432.96 0 1.712.299 2.256.896.555.597.832 1.488.832 2.672v4.56h-1.68v-4.384c0-1.536-.629-2.304-1.888-2.304-.629 0-1.152.224-1.568.672-.405.448-.608 1.088-.608 1.92v4.096h-1.696zm11.537 0l-2.976-7.936h1.776l2.208 6.32 2.208-6.32h1.76l-2.96 7.936h-2.016zm9.675.192c-.778 0-1.472-.171-2.08-.512-.597-.352-1.066-.837-1.408-1.456s-.512-1.339-.512-2.16c0-.832.166-1.563.496-2.192a3.75 3.75 0 0 1 1.408-1.472c.608-.352 1.312-.528 2.112-.528.779 0 1.456.176 2.032.528.576.341 1.024.8 1.344 1.376s.48 1.211.48 1.904l-.016.352-.016.4h-6.176c.054.768.304 1.355.752 1.76.459.395.987.592 1.584.592.48 0 .88-.107 1.2-.32a2.02 2.02 0 0 0 .736-.896h1.696a3.58 3.58 0 0 1-1.28 1.872c-.629.501-1.413.752-2.352.752zm0-6.928a2.38 2.38 0 0 0-1.504.512c-.437.331-.704.832-.8 1.504h4.48c-.032-.619-.25-1.109-.656-1.472s-.912-.544-1.52-.544zm5.632 6.736v-7.936h1.52l.144 1.504c.277-.523.661-.933 1.152-1.232.501-.309 1.104-.464 1.808-.464v1.776h-.464a3.18 3.18 0 0 0-1.264.24c-.363.149-.656.411-.88.784-.213.363-.32.869-.32 1.52v3.808h-1.696zm9.246.192c-1.002 0-1.829-.245-2.48-.736s-1.024-1.141-1.12-1.952h1.712c.086.363.288.677.608.944.32.256.742.384 1.264.384.512 0 .886-.107 1.12-.32s.352-.459.352-.736c0-.405-.165-.677-.496-.816-.32-.149-.768-.283-1.344-.4-.448-.096-.896-.224-1.344-.384-.437-.16-.805-.384-1.104-.672-.288-.299-.432-.699-.432-1.2 0-.693.267-1.269.8-1.728.534-.469 1.28-.704 2.24-.704.886 0 1.6.213 2.144.64.555.427.88 1.029.976 1.808h-1.632c-.053-.341-.213-.608-.48-.8-.256-.192-.602-.288-1.04-.288-.426 0-.757.091-.992.272-.234.171-.352.395-.352.672s.16.496.48.656c.331.16.763.304 1.296.432a12.04 12.04 0 0 1 1.472.416c.459.149.827.373 1.104.672s.416.736.416 1.312c.011.725-.272 1.328-.848 1.808-.565.48-1.338.72-2.32.72zm5.98-9.632a1.15 1.15 0 0 1-.8-.288 1.02 1.02 0 0 1-.304-.752c0-.299.101-.544.304-.736.213-.203.48-.304.8-.304a1.06 1.06 0 0 1 .784.304c.213.192.32.437.32.736s-.107.549-.32.752c-.203.192-.464.288-.784.288zm-.848 9.44v-7.936h1.696v7.936h-1.696zm7.647.192c-.758 0-1.44-.171-2.048-.512a3.88 3.88 0 0 1-1.424-1.456c-.352-.629-.528-1.36-.528-2.192s.176-1.557.528-2.176c.362-.629.848-1.115 1.456-1.456a3.98 3.98 0 0 1 2.032-.528c.757 0 1.434.176 2.032.528.608.341 1.088.827 1.44 1.456.362.619.544 1.344.544 2.176s-.182 1.563-.544 2.192a3.85 3.85 0 0 1-1.44 1.456c-.608.341-1.291.512-2.048.512zm0-1.456c.405 0 .778-.101 1.12-.304.352-.203.634-.501.848-.896.213-.405.32-.907.32-1.504s-.107-1.093-.32-1.488c-.203-.405-.48-.709-.832-.912-.342-.203-.715-.304-1.12-.304s-.784.101-1.136.304c-.342.203-.619.507-.832.912-.214.395-.32.891-.32 1.488s.106 1.099.32 1.504c.213.395.49.693.832.896s.714.304 1.12.304zm5.866 1.264v-7.936h1.504l.128 1.392c.245-.491.602-.875 1.072-1.152.48-.288 1.029-.432 1.648-.432.96 0 1.712.299 2.256.896.554.597.832 1.488.832 2.672v4.56h-1.68v-4.384c0-1.536-.63-2.304-1.888-2.304-.63 0-1.152.224-1.568.672-.406.448-.608 1.088-.608 1.92v4.096h-1.696zm18.397.192c-1.056 0-1.979-.24-2.768-.72s-1.403-1.152-1.84-2.016-.656-1.872-.656-3.024c0-1.141.224-2.149.672-3.024s1.082-1.557 1.904-2.048c.832-.501 1.813-.752 2.944-.752 1.28 0 2.346.309 3.2.928s1.408 1.472 1.664 2.56h-1.92c-.171-.597-.507-1.067-1.008-1.408s-1.147-.512-1.936-.512c-1.174 0-2.096.379-2.768 1.136s-1.008 1.803-1.008 3.136.33 2.373.992 3.12 1.541 1.12 2.64 1.12c1.109 0 1.941-.315 2.496-.944.565-.629.896-1.467.992-2.512h-3.04v-1.312h4.752v6.08h-1.552l-.144-1.648c-.374.587-.843 1.04-1.408 1.36s-1.302.48-2.208.48zm11.018 0c-.757 0-1.44-.171-2.048-.512-.597-.352-1.072-.837-1.424-1.456-.352-.629-.528-1.36-.528-2.192s.176-1.557.528-2.176a3.82 3.82 0 0 1 1.456-1.456 3.98 3.98 0 0 1 2.032-.528c.757 0 1.435.176 2.032.528.608.341 1.088.827 1.44 1.456.363.619.544 1.344.544 2.176s-.181 1.563-.544 2.192a3.85 3.85 0 0 1-1.44 1.456c-.608.341-1.291.512-2.048.512zm0-1.456a2.15 2.15 0 0 0 1.12-.304 2.22 2.22 0 0 0 .848-.896c.213-.405.32-.907.32-1.504s-.107-1.093-.32-1.488c-.203-.405-.48-.709-.832-.912a2.15 2.15 0 0 0-1.12-.304c-.405 0-.784.101-1.136.304-.341.203-.619.507-.832.912-.213.395-.32.891-.32 1.488s.107 1.099.32 1.504a2.26 2.26 0 0 0 .832.896 2.15 2.15 0 0 0 1.12.304zm8.554 1.456c-.672 0-1.227-.112-1.664-.336s-.763-.517-.976-.88c-.213-.373-.32-.779-.32-1.216 0-.768.299-1.376.896-1.824s1.451-.672 2.56-.672h2.08v-.144c0-.619-.171-1.083-.512-1.392-.331-.309-.763-.464-1.296-.464-.469 0-.88.117-1.232.352-.341.224-.549.56-.624 1.008h-1.696c.053-.576.245-1.067.576-1.472.341-.416.768-.731 1.28-.944a4.3 4.3 0 0 1 1.712-.336c1.109 0 1.968.293 2.576.88.608.576.912 1.365.912 2.368v4.88h-1.472l-.144-1.36c-.224.437-.549.805-.976 1.104s-.987.448-1.68.448zm.336-1.376c.459 0 .843-.107 1.152-.32.32-.224.565-.517.736-.88.181-.363.293-.763.336-1.2h-1.888c-.672 0-1.152.117-1.44.352-.277.235-.416.528-.416.88 0 .363.133.651.4.864.277.203.651.304 1.12.304zm5.914 1.184v-11.52h1.696v11.52h-1.696zm7.011.192c-1.002 0-1.829-.245-2.48-.736s-1.024-1.141-1.12-1.952h1.712c.086.363.288.677.608.944.32.256.742.384 1.264.384.512 0 .886-.107 1.12-.32s.352-.459.352-.736c0-.405-.165-.677-.496-.816-.32-.149-.768-.283-1.344-.4-.448-.096-.896-.224-1.344-.384-.437-.16-.805-.384-1.104-.672-.288-.299-.432-.699-.432-1.2 0-.693.267-1.269.8-1.728.534-.469 1.28-.704 2.24-.704.886 0 1.6.213 2.144.64.555.427.88 1.029.976 1.808h-1.632c-.053-.341-.213-.608-.48-.8-.256-.192-.602-.288-1.04-.288-.426 0-.757.091-.992.272-.234.171-.352.395-.352.672s.16.496.48.656c.331.16.763.304 1.296.432a12.04 12.04 0 0 1 1.472.416c.459.149.827.373 1.104.672s.416.736.416 1.312c.011.725-.272 1.328-.848 1.808-.565.48-1.338.72-2.32.72z"/><rect x="53" y="168" width="83" height="40" rx="6" class="B"/><path d="M70.136 193.5v-11.2h7.12v1.376h-5.424v3.488h4.944v1.344h-4.944v3.616h5.424v1.376h-7.12zm11.301 0l-2.976-7.936h1.776l2.208 6.32 2.208-6.32h1.76l-2.96 7.936h-2.016zm9.676.192c-.779 0-1.472-.171-2.08-.512a3.77 3.77 0 0 1-1.408-1.456c-.341-.619-.512-1.339-.512-2.16 0-.832.165-1.563.496-2.192.341-.629.811-1.12 1.408-1.472.608-.352 1.312-.528 2.112-.528.779 0 1.456.176 2.032.528.576.341 1.024.8 1.344 1.376s.48 1.211.48 1.904l-.016.352-.016.4h-6.176c.053.768.304 1.355.752 1.76.459.395.987.592 1.584.592.48 0 .88-.107 1.2-.32a2.02 2.02 0 0 0 .736-.896h1.696c-.213.747-.64 1.371-1.28 1.872-.629.501-1.413.752-2.352.752zm0-6.928a2.38 2.38 0 0 0-1.504.512c-.437.331-.704.832-.8 1.504h4.48c-.032-.619-.251-1.109-.656-1.472s-.912-.544-1.52-.544zm5.632 6.736v-7.936h1.504l.128 1.392a2.72 2.72 0 0 1 1.072-1.152c.48-.288 1.029-.432 1.648-.432.96 0 1.712.299 2.256.896.555.597.832 1.488.832 2.672v4.56h-1.68v-4.384c0-1.536-.629-2.304-1.888-2.304-.629 0-1.152.224-1.568.672-.405.448-.608 1.088-.608 1.92v4.096h-1.696zm12.765 0c-.778 0-1.397-.187-1.856-.56-.458-.384-.688-1.061-.688-2.032v-3.92h-1.36v-1.424h1.36l.208-2.016h1.488v2.016h2.24v1.424h-2.24v3.92c0 .437.091.741.272.912.192.16.518.24.976.24h.912v1.44h-1.312zm6.309.192c-1.003 0-1.829-.245-2.48-.736s-1.024-1.141-1.12-1.952h1.712c.085.363.288.677.608.944.32.256.741.384 1.264.384.512 0 .885-.107 1.12-.32s.352-.459.352-.736c0-.405-.165-.677-.496-.816-.32-.149-.768-.283-1.344-.4-.448-.096-.896-.224-1.344-.384-.437-.16-.805-.384-1.104-.672-.288-.299-.432-.699-.432-1.2 0-.693.267-1.269.8-1.728.533-.469 1.28-.704 2.24-.704.885 0 1.6.213 2.144.64.555.427.88 1.029.976 1.808h-1.632c-.053-.341-.213-.608-.48-.8-.256-.192-.603-.288-1.04-.288-.427 0-.757.091-.992.272-.235.171-.352.395-.352.672s.16.496.48.656c.331.16.763.304 1.296.432a12.09 12.09 0 0 1 1.472.416c.459.149.827.373 1.104.672s.416.736.416 1.312c.011.725-.272 1.328-.848 1.808-.565.48-1.339.72-2.32.72z"/><rect x="152" y="168" width="68" height="40" rx="6" class="B"/><path d="M171.76 193.5v-9.824h-3.312V182.3h8.304v1.376h-3.296v9.824h-1.696zm7.938.192c-.672 0-1.227-.112-1.664-.336s-.763-.517-.976-.88c-.214-.373-.32-.779-.32-1.216 0-.768.298-1.376.896-1.824s1.45-.672 2.56-.672h2.08v-.144c0-.619-.171-1.083-.512-1.392-.331-.309-.763-.464-1.296-.464-.47 0-.88.117-1.232.352-.342.224-.55.56-.624 1.008h-1.696c.053-.576.245-1.067.576-1.472.341-.416.768-.731 1.28-.944.522-.224 1.093-.336 1.712-.336 1.109 0 1.968.293 2.576.88.608.576.912 1.365.912 2.368v4.88h-1.472l-.144-1.36c-.224.437-.55.805-.976 1.104s-.987.448-1.68.448zm.336-1.376c.458 0 .842-.107 1.152-.32.32-.224.565-.517.736-.88.181-.363.293-.763.336-1.2h-1.888c-.672 0-1.152.117-1.44.352-.278.235-.416.528-.416.88 0 .363.133.651.4.864.277.203.65.304 1.12.304zm10.041 4.896c-.683 0-1.323-.117-1.92-.352a3.66 3.66 0 0 1-1.488-1.04c-.405-.459-.661-1.035-.768-1.728h1.68a2.09 2.09 0 0 0 .864 1.2c.448.299.987.448 1.616.448a2.52 2.52 0 0 0 1.76-.672c.491-.437.736-1.099.736-1.984v-1.072c-.245.416-.613.784-1.104 1.104-.48.32-1.083.48-1.808.48a3.98 3.98 0 0 1-2.032-.528c-.597-.363-1.072-.853-1.424-1.472-.352-.629-.528-1.333-.528-2.112 0-.789.176-1.493.528-2.112s.827-1.104 1.424-1.456c.608-.363 1.291-.544 2.048-.544.651 0 1.227.144 1.728.432.501.277.891.624 1.168 1.04l.16-1.28h1.536v7.456c0 .896-.187 1.653-.56 2.272-.363.629-.859 1.104-1.488 1.424-.629.331-1.339.496-2.128.496zm-.128-5.072c.501 0 .944-.112 1.328-.336a2.58 2.58 0 0 0 .912-.944c.224-.405.336-.864.336-1.376 0-.523-.112-.981-.336-1.376s-.528-.704-.912-.928-.827-.336-1.328-.336c-.491 0-.928.112-1.312.336s-.688.533-.912.928-.336.853-.336 1.376c0 .512.112.971.336 1.376a2.58 2.58 0 0 0 .912.944c.384.224.821.336 1.312.336zm9.621 1.552c-1.003 0-1.829-.245-2.48-.736s-1.024-1.141-1.12-1.952h1.712c.085.363.288.677.608.944.32.256.741.384 1.264.384.512 0 .885-.107 1.12-.32s.352-.459.352-.736c0-.405-.165-.677-.496-.816-.32-.149-.768-.283-1.344-.4-.448-.096-.896-.224-1.344-.384-.437-.16-.805-.384-1.104-.672-.288-.299-.432-.699-.432-1.2 0-.693.267-1.269.8-1.728.533-.469 1.28-.704 2.24-.704.885 0 1.6.213 2.144.64.555.427.88 1.029.976 1.808h-1.632c-.053-.341-.213-.608-.48-.8-.256-.192-.603-.288-1.04-.288-.427 0-.757.091-.992.272-.235.171-.352.395-.352.672s.16.496.48.656c.331.16.763.304 1.296.432a12.09 12.09 0 0 1 1.472.416c.459.149.827.373 1.104.672s.416.736.416 1.312c.011.725-.272 1.328-.848 1.808-.565.48-1.339.72-2.32.72z"/><rect x="236" y="168" width="107" height="40" rx="6" class="B"/><path d="M258.128 193.692c-1.109 0-2.069-.24-2.88-.72-.8-.491-1.419-1.168-1.856-2.032-.437-.875-.656-1.883-.656-3.024 0-1.152.219-2.16.656-3.024a4.93 4.93 0 0 1 1.856-2.048c.811-.491 1.771-.736 2.88-.736 1.312 0 2.384.32 3.216.96s1.36 1.536 1.584 2.688h-1.888c-.149-.651-.469-1.168-.96-1.552s-1.147-.576-1.968-.576c-1.12 0-2.005.384-2.656 1.152-.651.757-.976 1.803-.976 3.136 0 1.323.325 2.363.976 3.12s1.536 1.136 2.656 1.136c.821 0 1.477-.181 1.968-.544s.811-.859.96-1.488h1.888c-.224 1.109-.752 1.979-1.584 2.608s-1.904.944-3.216.944zm10.312 0c-.757 0-1.44-.171-2.048-.512-.597-.352-1.072-.837-1.424-1.456-.352-.629-.528-1.36-.528-2.192s.176-1.557.528-2.176a3.82 3.82 0 0 1 1.456-1.456c.608-.352 1.286-.528 2.032-.528.758 0 1.435.176 2.032.528.608.341 1.088.827 1.44 1.456.363.619.544 1.344.544 2.176s-.181 1.563-.544 2.192a3.85 3.85 0 0 1-1.44 1.456c-.608.341-1.29.512-2.048.512zm0-1.456c.406 0 .779-.101 1.12-.304a2.22 2.22 0 0 0 .848-.896c.214-.405.32-.907.32-1.504s-.106-1.093-.32-1.488c-.202-.405-.48-.709-.832-.912-.341-.203-.714-.304-1.12-.304s-.784.101-1.136.304c-.341.203-.618.507-.832.912-.213.395-.32.891-.32 1.488s.107 1.099.32 1.504c.214.395.491.693.832.896s.715.304 1.12.304zm8.794 1.456c-.96 0-1.717-.299-2.272-.896-.544-.597-.816-1.488-.816-2.672v-4.56h1.696v4.384c0 1.536.63 2.304 1.888 2.304.63 0 1.147-.224 1.552-.672s.608-1.088.608-1.92v-4.096h1.696v7.936h-1.504l-.128-1.392c-.245.491-.608.88-1.088 1.168-.469.277-1.013.416-1.632.416zm6.51-.192v-7.936h1.504l.128 1.392a2.72 2.72 0 0 1 1.072-1.152c.48-.288 1.029-.432 1.648-.432.96 0 1.712.299 2.256.896.555.597.832 1.488.832 2.672v4.56h-1.68v-4.384c0-1.536-.629-2.304-1.888-2.304-.629 0-1.152.224-1.568.672-.405.448-.608 1.088-.608 1.92v4.096h-1.696zm12.765 0c-.778 0-1.397-.187-1.856-.56-.458-.384-.688-1.061-.688-2.032v-3.92h-1.36v-1.424h1.36l.208-2.016h1.488v2.016h2.24v1.424h-2.24v3.92c0 .437.091.741.272.912.192.16.518.24.976.24h.912v1.44h-1.312zm3.141 0v-7.936h1.52l.144 1.504c.277-.523.661-.933 1.152-1.232.501-.309 1.104-.464 1.808-.464v1.776h-.464a3.18 3.18 0 0 0-1.264.24c-.363.149-.656.411-.88.784-.213.363-.32.869-.32 1.52v3.808h-1.696zm7.038-9.44c-.32 0-.586-.096-.8-.288-.202-.203-.304-.453-.304-.752a.97.97 0 0 1 .304-.736c.214-.203.48-.304.8-.304s.582.101.784.304c.214.192.32.437.32.736s-.106.549-.32.752c-.202.192-.464.288-.784.288zm-.848 9.44v-7.936h1.696v7.936h-1.696zm7.647.192c-.779 0-1.472-.171-2.08-.512a3.77 3.77 0 0 1-1.408-1.456c-.341-.619-.512-1.339-.512-2.16 0-.832.165-1.563.496-2.192.341-.629.811-1.12 1.408-1.472.608-.352 1.312-.528 2.112-.528.779 0 1.456.176 2.032.528.576.341 1.024.8 1.344 1.376s.48 1.211.48 1.904l-.016.352-.016.4h-6.176c.053.768.304 1.355.752 1.76.459.395.987.592 1.584.592.48 0 .88-.107 1.2-.32a2.02 2.02 0 0 0 .736-.896h1.696a3.58 3.58 0 0 1-1.28 1.872c-.629.501-1.413.752-2.352.752zm0-6.928a2.38 2.38 0 0 0-1.504.512c-.437.331-.704.832-.8 1.504h4.48c-.032-.619-.251-1.109-.656-1.472s-.912-.544-1.52-.544zm8.8 6.928c-1.003 0-1.829-.245-2.48-.736s-1.024-1.141-1.12-1.952h1.712c.085.363.288.677.608.944.32.256.741.384 1.264.384.512 0 .885-.107 1.12-.32s.352-.459.352-.736c0-.405-.165-.677-.496-.816-.32-.149-.768-.283-1.344-.4-.448-.096-.896-.224-1.344-.384-.437-.16-.805-.384-1.104-.672-.288-.299-.432-.699-.432-1.2 0-.693.267-1.269.8-1.728.533-.469 1.28-.704 2.24-.704.885 0 1.6.213 2.144.64.555.427.88 1.029.976 1.808h-1.632c-.053-.341-.213-.608-.48-.8-.256-.192-.603-.288-1.04-.288-.427 0-.757.091-.992.272-.235.171-.352.395-.352.672s.16.496.48.656c.331.16.763.304 1.296.432a12.09 12.09 0 0 1 1.472.416c.459.149.827.373 1.104.672s.416.736.416 1.312c.011.725-.272 1.328-.848 1.808-.565.48-1.339.72-2.32.72z"/><rect x="359" y="168" width="76" height="40" rx="6" class="B"/><path d="M381.128 193.692c-1.109 0-2.069-.24-2.88-.72-.8-.491-1.419-1.168-1.856-2.032-.437-.875-.656-1.883-.656-3.024 0-1.152.219-2.16.656-3.024a4.93 4.93 0 0 1 1.856-2.048c.811-.491 1.771-.736 2.88-.736 1.312 0 2.384.32 3.216.96s1.36 1.536 1.584 2.688h-1.888c-.149-.651-.469-1.168-.96-1.552s-1.147-.576-1.968-.576c-1.12 0-2.005.384-2.656 1.152-.651.757-.976 1.803-.976 3.136 0 1.323.325 2.363.976 3.12s1.536 1.136 2.656 1.136c.821 0 1.477-.181 1.968-.544s.811-.859.96-1.488h1.888c-.224 1.109-.752 1.979-1.584 2.608s-1.904.944-3.216.944zm7.56-9.632c-.32 0-.586-.096-.8-.288-.202-.203-.304-.453-.304-.752a.97.97 0 0 1 .304-.736c.214-.203.48-.304.8-.304s.582.101.784.304c.214.192.32.437.32.736s-.106.549-.32.752c-.202.192-.464.288-.784.288zm-.848 9.44v-7.936h1.696v7.936h-1.696zm7.263 0c-.779 0-1.397-.187-1.856-.56-.459-.384-.688-1.061-.688-2.032v-3.92h-1.36v-1.424h1.36l.208-2.016h1.488v2.016h2.24v1.424h-2.24v3.92c0 .437.091.741.272.912.192.16.517.24.976.24h.912v1.44h-1.312zm4.101-9.44a1.15 1.15 0 0 1-.8-.288 1.02 1.02 0 0 1-.304-.752c0-.299.101-.544.304-.736.213-.203.48-.304.8-.304a1.06 1.06 0 0 1 .784.304c.213.192.32.437.32.736s-.107.549-.32.752c-.203.192-.464.288-.784.288zm-.848 9.44v-7.936h1.696v7.936h-1.696zm7.647.192c-.779 0-1.472-.171-2.08-.512a3.76 3.76 0 0 1-1.408-1.456c-.342-.619-.512-1.339-.512-2.16 0-.832.165-1.563.496-2.192.341-.629.81-1.12 1.408-1.472.608-.352 1.312-.528 2.112-.528.778 0 1.456.176 2.032.528.576.341 1.024.8 1.344 1.376s.48 1.211.48 1.904l-.016.352-.016.4h-6.176c.053.768.304 1.355.752 1.76.458.395.986.592 1.584.592.48 0 .88-.107 1.2-.32.33-.224.576-.523.736-.896h1.696c-.214.747-.64 1.371-1.28 1.872-.63.501-1.414.752-2.352.752zm0-6.928c-.566 0-1.067.171-1.504.512-.438.331-.704.832-.8 1.504h4.48c-.032-.619-.251-1.109-.656-1.472s-.912-.544-1.52-.544zm8.8 6.928c-1.003 0-1.83-.245-2.48-.736s-1.024-1.141-1.12-1.952h1.711c.086.363.289.677.609.944.32.256.741.384 1.263.384.513 0 .886-.107 1.121-.32s.352-.459.352-.736c0-.405-.166-.677-.496-.816-.32-.149-.768-.283-1.344-.4-.448-.096-.896-.224-1.344-.384-.438-.16-.806-.384-1.104-.672-.288-.299-.432-.699-.432-1.2a2.18 2.18 0 0 1 .8-1.728c.533-.469 1.28-.704 2.24-.704.885 0 1.6.213 2.144.64.554.427.88 1.029.976 1.808h-1.632a1.17 1.17 0 0 0-.48-.8c-.256-.192-.603-.288-1.04-.288-.427 0-.758.091-.992.272-.235.171-.352.395-.352.672s.16.496.48.656c.33.16.762.304 1.296.432a12.09 12.09 0 0 1 1.472.416c.458.149.826.373 1.104.672s.416.736.416 1.312c.01.725-.272 1.328-.848 1.808-.566.48-1.339.72-2.32.72z"/><rect x="29.5" y="224" width="116" height="40" rx="6" class="B"/><path d="M46.636 249.5v-11.2h1.696v9.856h5.088v1.344h-6.784zm11.233.192c-.672 0-1.227-.112-1.664-.336s-.763-.517-.976-.88a2.41 2.41 0 0 1-.32-1.216c0-.768.299-1.376.896-1.824s1.451-.672 2.56-.672h2.08v-.144c0-.619-.171-1.083-.512-1.392-.331-.309-.763-.464-1.296-.464-.469 0-.88.117-1.232.352-.341.224-.549.56-.624 1.008h-1.696c.053-.576.245-1.067.576-1.472.341-.416.768-.731 1.28-.944a4.3 4.3 0 0 1 1.712-.336c1.109 0 1.968.293 2.576.88.608.576.912 1.365.912 2.368v4.88h-1.472l-.144-1.36a3.02 3.02 0 0 1-.976 1.104c-.427.299-.987.448-1.68.448zm.336-1.376c.459 0 .843-.107 1.152-.32a2.19 2.19 0 0 0 .736-.88 3.4 3.4 0 0 0 .336-1.2h-1.888c-.672 0-1.152.117-1.44.352-.277.235-.416.528-.416.88 0 .363.133.651.4.864.277.203.651.304 1.12.304zm5.913 1.184v-7.936h1.504l.128 1.392a2.72 2.72 0 0 1 1.072-1.152 3.14 3.14 0 0 1 1.648-.432c.96 0 1.712.299 2.256.896.555.597.832 1.488.832 2.672v4.56h-1.68v-4.384c0-1.536-.629-2.304-1.888-2.304-.629 0-1.152.224-1.568.672-.405.448-.608 1.088-.608 1.92v4.096h-1.696zm13.566 3.712c-.683 0-1.323-.117-1.92-.352a3.66 3.66 0 0 1-1.488-1.04c-.405-.459-.661-1.035-.768-1.728h1.68a2.09 2.09 0 0 0 .864 1.2c.448.299.987.448 1.616.448a2.52 2.52 0 0 0 1.76-.672c.491-.437.736-1.099.736-1.984v-1.072c-.245.416-.613.784-1.104 1.104-.48.32-1.083.48-1.808.48-.747 0-1.424-.176-2.032-.528a4.01 4.01 0 0 1-1.424-1.472c-.352-.629-.528-1.333-.528-2.112 0-.789.176-1.493.528-2.112s.827-1.104 1.424-1.456c.608-.363 1.291-.544 2.048-.544.651 0 1.227.144 1.728.432.501.277.891.624 1.168 1.04l.16-1.28h1.536v7.456c0 .896-.187 1.653-.56 2.272-.363.629-.859 1.104-1.488 1.424-.629.331-1.339.496-2.128.496zm-.128-5.072c.501 0 .944-.112 1.328-.336a2.58 2.58 0 0 0 .912-.944c.224-.405.336-.864.336-1.376 0-.523-.112-.981-.336-1.376s-.528-.704-.912-.928-.827-.336-1.328-.336c-.491 0-.928.112-1.312.336s-.688.533-.912.928-.336.853-.336 1.376c0 .512.112.971.336 1.376a2.58 2.58 0 0 0 .912.944c.384.224.821.336 1.312.336zm9.381 1.552c-.96 0-1.717-.299-2.272-.896-.544-.597-.816-1.488-.816-2.672v-4.56h1.696v4.384c0 1.536.629 2.304 1.888 2.304.629 0 1.147-.224 1.552-.672s.608-1.088.608-1.92v-4.096h1.696v7.936h-1.504l-.128-1.392c-.245.491-.608.88-1.088 1.168-.469.277-1.013.416-1.632.416zm9.198 0c-.672 0-1.227-.112-1.664-.336s-.763-.517-.976-.88a2.41 2.41 0 0 1-.32-1.216c0-.768.299-1.376.896-1.824s1.451-.672 2.56-.672h2.08v-.144c0-.619-.171-1.083-.512-1.392-.331-.309-.763-.464-1.296-.464-.469 0-.88.117-1.232.352-.341.224-.549.56-.624 1.008h-1.696c.053-.576.245-1.067.576-1.472.341-.416.768-.731 1.28-.944a4.3 4.3 0 0 1 1.712-.336c1.109 0 1.968.293 2.576.88.608.576.912 1.365.912 2.368v4.88h-1.472l-.144-1.36a3.02 3.02 0 0 1-.976 1.104c-.427.299-.987.448-1.68.448zm.336-1.376c.459 0 .843-.107 1.152-.32a2.19 2.19 0 0 0 .736-.88 3.4 3.4 0 0 0 .336-1.2h-1.888c-.672 0-1.152.117-1.44.352-.277.235-.416.528-.416.88 0 .363.133.651.4.864.277.203.651.304 1.12.304zm10.042 4.896c-.683 0-1.323-.117-1.92-.352a3.66 3.66 0 0 1-1.488-1.04c-.406-.459-.662-1.035-.768-1.728h1.68c.138.501.426.901.864 1.2.448.299.986.448 1.616.448a2.52 2.52 0 0 0 1.76-.672c.49-.437.736-1.099.736-1.984v-1.072c-.246.416-.614.784-1.104 1.104-.48.32-1.083.48-1.808.48a3.98 3.98 0 0 1-2.032-.528c-.598-.363-1.072-.853-1.424-1.472-.352-.629-.528-1.333-.528-2.112 0-.789.176-1.493.528-2.112a3.88 3.88 0 0 1 1.424-1.456c.608-.363 1.29-.544 2.048-.544.65 0 1.226.144 1.728.432.501.277.89.624 1.168 1.04l.16-1.28h1.536v7.456c0 .896-.187 1.653-.561 2.272a3.54 3.54 0 0 1-1.487 1.424c-.63.331-1.339.496-2.128.496zm-.128-5.072c.501 0 .944-.112 1.328-.336a2.58 2.58 0 0 0 .912-.944c.224-.405.336-.864.336-1.376 0-.523-.112-.981-.336-1.376s-.528-.704-.912-.928-.827-.336-1.328-.336c-.491 0-.928.112-1.312.336s-.688.533-.912.928-.336.853-.336 1.376c0 .512.112.971.336 1.376a2.58 2.58 0 0 0 .912.944c.384.224.821.336 1.312.336zm10.165 1.552c-.779 0-1.472-.171-2.08-.512a3.76 3.76 0 0 1-1.408-1.456c-.342-.619-.512-1.339-.512-2.16 0-.832.165-1.563.496-2.192.341-.629.81-1.12 1.408-1.472.608-.352 1.312-.528 2.112-.528.778 0 1.456.176 2.032.528.576.341 1.024.8 1.344 1.376s.48 1.211.48 1.904l-.016.352-.016.4h-6.176c.053.768.304 1.355.752 1.76.458.395.986.592 1.584.592.48 0 .88-.107 1.2-.32.33-.224.576-.523.736-.896h1.696c-.214.747-.64 1.371-1.28 1.872-.63.501-1.414.752-2.352.752zm0-6.928c-.566 0-1.067.171-1.504.512-.438.331-.704.832-.8 1.504h4.48c-.032-.619-.251-1.109-.656-1.472s-.912-.544-1.52-.544zm8.799 6.928c-1.002 0-1.829-.245-2.48-.736s-1.024-1.141-1.12-1.952h1.712c.086.363.288.677.608.944.32.256.742.384 1.264.384.512 0 .886-.107 1.12-.32s.352-.459.352-.736c0-.405-.165-.677-.496-.816-.32-.149-.768-.283-1.344-.4-.448-.096-.896-.224-1.344-.384-.437-.16-.805-.384-1.104-.672-.288-.299-.432-.699-.432-1.2 0-.693.267-1.269.8-1.728.534-.469 1.28-.704 2.24-.704.886 0 1.6.213 2.144.64.555.427.88 1.029.976 1.808h-1.632c-.053-.341-.213-.608-.48-.8-.256-.192-.602-.288-1.04-.288-.426 0-.757.091-.992.272-.234.171-.352.395-.352.672s.16.496.48.656c.331.16.763.304 1.296.432a12.04 12.04 0 0 1 1.472.416c.459.149.827.373 1.104.672s.416.736.416 1.312c.011.725-.272 1.328-.848 1.808-.565.48-1.338.72-2.32.72z"/><rect x="161.5" y="224" width="179" height="40" rx="6" class="B"/><path d="M183.804 249.692c-1.109 0-2.08-.245-2.912-.736s-1.483-1.168-1.952-2.032c-.469-.875-.704-1.883-.704-3.024s.235-2.144.704-3.008c.469-.875 1.12-1.557 1.952-2.048s1.803-.736 2.912-.736 2.08.245 2.912.736a5.05 5.05 0 0 1 1.936 2.048c.469.864.704 1.867.704 3.008s-.235 2.149-.704 3.024c-.459.864-1.104 1.541-1.936 2.032s-1.803.736-2.912.736zm0-1.52c.768 0 1.435-.171 2-.512.576-.341 1.024-.832 1.344-1.472s.48-1.403.48-2.288-.16-1.648-.48-2.288-.768-1.131-1.344-1.472c-.565-.341-1.232-.512-2-.512s-1.44.171-2.016.512-1.024.832-1.344 1.472c-.309.64-.464 1.403-.464 2.288s.155 1.648.464 2.288c.32.64.768 1.131 1.344 1.472s1.248.512 2.016.512zm7.377 4.848v-11.456h1.52l.176 1.232c.256-.373.608-.704 1.056-.992s1.024-.432 1.728-.432c.768 0 1.446.181 2.032.544s1.046.859 1.376 1.488c.342.629.512 1.344.512 2.144s-.17 1.515-.512 2.144a3.8 3.8 0 0 1-1.376 1.472c-.586.352-1.269.528-2.048.528-.618 0-1.168-.123-1.648-.368-.469-.245-.842-.592-1.12-1.04v4.736h-1.696zm4.176-4.8c.726 0 1.323-.245 1.792-.736.47-.501.704-1.152.704-1.952 0-.523-.106-.987-.32-1.392s-.506-.72-.88-.944c-.373-.235-.805-.352-1.296-.352-.725 0-1.322.251-1.792.752-.458.501-.688 1.147-.688 1.936 0 .8.23 1.451.688 1.952.47.491 1.067.736 1.792.736zm9.771 1.472c-.779 0-1.472-.171-2.08-.512a3.76 3.76 0 0 1-1.408-1.456c-.342-.619-.512-1.339-.512-2.16 0-.832.165-1.563.496-2.192.341-.629.81-1.12 1.408-1.472.608-.352 1.312-.528 2.112-.528.778 0 1.456.176 2.032.528.576.341 1.024.8 1.344 1.376s.48 1.211.48 1.904l-.016.352-.016.4h-6.176c.053.768.304 1.355.752 1.76.458.395.986.592 1.584.592.48 0 .88-.107 1.2-.32.33-.224.576-.523.736-.896h1.696c-.214.747-.64 1.371-1.28 1.872-.63.501-1.414.752-2.352.752zm0-6.928c-.566 0-1.067.171-1.504.512-.438.331-.704.832-.8 1.504h4.48c-.032-.619-.251-1.109-.656-1.472s-.912-.544-1.52-.544zm5.632 6.736v-7.936h1.52l.144 1.504c.277-.523.661-.933 1.152-1.232.501-.309 1.104-.464 1.808-.464v1.776h-.464c-.47 0-.891.08-1.264.24-.363.149-.656.411-.88.784-.214.363-.32.869-.32 1.52v3.808h-1.696zm8.766.192c-.672 0-1.227-.112-1.664-.336s-.763-.517-.976-.88c-.214-.373-.32-.779-.32-1.216 0-.768.298-1.376.896-1.824s1.45-.672 2.56-.672h2.08v-.144c0-.619-.171-1.083-.512-1.392-.331-.309-.763-.464-1.296-.464-.47 0-.88.117-1.232.352-.342.224-.55.56-.624 1.008h-1.696c.053-.576.245-1.067.576-1.472.341-.416.768-.731 1.28-.944.522-.224 1.093-.336 1.712-.336 1.109 0 1.968.293 2.576.88.608.576.912 1.365.912 2.368v4.88h-1.472l-.144-1.36c-.224.437-.55.805-.976 1.104s-.987.448-1.68.448zm.336-1.376c.458 0 .842-.107 1.152-.32.32-.224.565-.517.736-.88.181-.363.293-.763.336-1.2h-1.888c-.672 0-1.152.117-1.44.352-.278.235-.416.528-.416.88 0 .363.133.651.4.864.277.203.65.304 1.12.304zm9.085 1.184c-.779 0-1.397-.187-1.856-.56-.459-.384-.688-1.061-.688-2.032v-3.92h-1.36v-1.424h1.36l.208-2.016h1.488v2.016h2.24v1.424h-2.24v3.92c0 .437.091.741.272.912.192.16.517.24.976.24h.912v1.44h-1.312zm4.101-9.44a1.15 1.15 0 0 1-.8-.288 1.02 1.02 0 0 1-.304-.752c0-.299.101-.544.304-.736.213-.203.48-.304.8-.304a1.06 1.06 0 0 1 .784.304c.213.192.32.437.32.736s-.107.549-.32.752c-.203.192-.464.288-.784.288zm-.848 9.44v-7.936h1.696v7.936H232.2zm3.935 0v-7.936h1.504l.128 1.392c.245-.491.602-.875 1.072-1.152.48-.288 1.029-.432 1.648-.432.96 0 1.712.299 2.256.896.554.597.832 1.488.832 2.672v4.56h-1.68v-4.384c0-1.536-.63-2.304-1.888-2.304-.63 0-1.152.224-1.568.672-.406.448-.608 1.088-.608 1.92v4.096h-1.696zm13.565 3.712c-.683 0-1.323-.117-1.92-.352a3.66 3.66 0 0 1-1.488-1.04c-.405-.459-.661-1.035-.768-1.728h1.68a2.09 2.09 0 0 0 .864 1.2c.448.299.987.448 1.616.448a2.52 2.52 0 0 0 1.76-.672c.491-.437.736-1.099.736-1.984v-1.072c-.245.416-.613.784-1.104 1.104-.48.32-1.083.48-1.808.48a3.98 3.98 0 0 1-2.032-.528c-.597-.363-1.072-.853-1.424-1.472-.352-.629-.528-1.333-.528-2.112 0-.789.176-1.493.528-2.112s.827-1.104 1.424-1.456c.608-.363 1.291-.544 2.048-.544.651 0 1.227.144 1.728.432.501.277.891.624 1.168 1.04l.16-1.28h1.536v7.456c0 .896-.187 1.653-.56 2.272-.363.629-.859 1.104-1.488 1.424-.629.331-1.339.496-2.128.496zm-.128-5.072c.501 0 .944-.112 1.328-.336a2.58 2.58 0 0 0 .912-.944c.224-.405.336-.864.336-1.376 0-.523-.112-.981-.336-1.376s-.528-.704-.912-.928-.827-.336-1.328-.336c-.491 0-.928.112-1.312.336s-.688.533-.912.928-.336.853-.336 1.376c0 .512.112.971.336 1.376a2.58 2.58 0 0 0 .912.944c.384.224.821.336 1.312.336zm14.244 1.552c-.821 0-1.541-.144-2.16-.432s-1.104-.699-1.456-1.232c-.341-.533-.517-1.168-.528-1.904h1.792c.011.597.219 1.104.624 1.52s.976.624 1.712.624c.651 0 1.158-.155 1.52-.464a1.53 1.53 0 0 0 .56-1.216c0-.395-.09-.715-.272-.96-.17-.245-.41-.448-.72-.608-.298-.16-.645-.304-1.04-.432l-1.248-.416c-.864-.288-1.514-.661-1.952-1.12-.426-.459-.64-1.061-.64-1.808-.01-.629.134-1.179.432-1.648.31-.469.736-.832 1.28-1.088.555-.267 1.2-.4 1.936-.4.726 0 1.36.133 1.904.4.555.267.987.64 1.296 1.12.31.469.47 1.019.48 1.648h-1.792c0-.288-.074-.56-.224-.816-.149-.267-.368-.485-.656-.656s-.64-.256-1.056-.256c-.533-.011-.976.123-1.328.4-.341.277-.512.661-.512 1.152 0 .437.128.773.384 1.008s.608.432 1.056.592l1.536.528c.555.181 1.051.4 1.488.656a2.94 2.94 0 0 1 1.04 1.008c.267.416.4.944.4 1.584 0 .565-.144 1.093-.432 1.584-.288.48-.72.875-1.296 1.184-.576.299-1.285.448-2.128.448zm6.575 3.328l1.904-4.176h-.464l-3.136-7.28h1.84l2.432 5.872 2.544-5.872h1.792l-5.12 11.456h-1.792zm11.052-3.328c-1.003 0-1.829-.245-2.48-.736s-1.024-1.141-1.12-1.952h1.712c.085.363.288.677.608.944.32.256.741.384 1.264.384.512 0 .885-.107 1.12-.32s.352-.459.352-.736c0-.405-.165-.677-.496-.816-.32-.149-.768-.283-1.344-.4-.448-.096-.896-.224-1.344-.384-.437-.16-.805-.384-1.104-.672-.288-.299-.432-.699-.432-1.2 0-.693.267-1.269.8-1.728.533-.469 1.28-.704 2.24-.704.885 0 1.6.213 2.144.64.555.427.88 1.029.976 1.808h-1.632c-.053-.341-.213-.608-.48-.8-.256-.192-.603-.288-1.04-.288-.427 0-.757.091-.992.272-.235.171-.352.395-.352.672s.16.496.48.656c.331.16.763.304 1.296.432a12.09 12.09 0 0 1 1.472.416c.459.149.827.373 1.104.672s.416.736.416 1.312c.011.725-.272 1.328-.848 1.808-.565.48-1.339.72-2.32.72zm8.051-.192c-.779 0-1.398-.187-1.856-.56-.459-.384-.688-1.061-.688-2.032v-3.92h-1.36v-1.424h1.36l.208-2.016h1.488v2.016h2.24v1.424h-2.24v3.92c0 .437.09.741.272.912.192.16.517.24.976.24h.912v1.44h-1.312zm6.649.192c-.778 0-1.472-.171-2.08-.512-.597-.352-1.066-.837-1.408-1.456s-.512-1.339-.512-2.16c0-.832.166-1.563.496-2.192a3.75 3.75 0 0 1 1.408-1.472c.608-.352 1.312-.528 2.112-.528.779 0 1.456.176 2.032.528.576.341 1.024.8 1.344 1.376s.48 1.211.48 1.904l-.016.352-.016.4h-6.176c.054.768.304 1.355.752 1.76.459.395.987.592 1.584.592.48 0 .88-.107 1.2-.32a2.02 2.02 0 0 0 .736-.896h1.696a3.58 3.58 0 0 1-1.28 1.872c-.629.501-1.413.752-2.352.752zm0-6.928a2.38 2.38 0 0 0-1.504.512c-.437.331-.704.832-.8 1.504h4.48c-.032-.619-.25-1.109-.656-1.472s-.912-.544-1.52-.544zm5.632 6.736v-7.936h1.504l.144 1.12a2.81 2.81 0 0 1 1.008-.96c.427-.235.917-.352 1.472-.352 1.259 0 2.133.496 2.624 1.488.288-.459.672-.821 1.152-1.088.491-.267 1.019-.4 1.584-.4.992 0 1.771.299 2.336.896s.848 1.488.848 2.672v4.56h-1.696v-4.384c0-1.536-.587-2.304-1.76-2.304a1.85 1.85 0 0 0-1.472.672c-.373.448-.56 1.088-.56 1.92v4.096h-1.696v-4.384c0-1.536-.592-2.304-1.776-2.304-.587 0-1.072.224-1.456.672-.373.448-.56 1.088-.56 1.92v4.096h-1.696zm17.824.192c-1.002 0-1.829-.245-2.48-.736s-1.024-1.141-1.12-1.952h1.712c.086.363.288.677.608.944.32.256.742.384 1.264.384.512 0 .886-.107 1.12-.32s.352-.459.352-.736c0-.405-.165-.677-.496-.816-.32-.149-.768-.283-1.344-.4-.448-.096-.896-.224-1.344-.384-.437-.16-.805-.384-1.104-.672-.288-.299-.432-.699-.432-1.2 0-.693.267-1.269.8-1.728.534-.469 1.28-.704 2.24-.704.886 0 1.6.213 2.144.64.555.427.88 1.029.976 1.808h-1.632c-.053-.341-.213-.608-.48-.8-.256-.192-.602-.288-1.04-.288-.426 0-.757.091-.992.272-.234.171-.352.395-.352.672s.16.496.48.656c.331.16.763.304 1.296.432a12.04 12.04 0 0 1 1.472.416c.459.149.827.373 1.104.672s.416.736.416 1.312c.011.725-.272 1.328-.848 1.808-.565.48-1.338.72-2.32.72z"/><rect x="356.5" y="224" width="102" height="40" rx="6" class="B"/><path d="M373.636 249.5v-11.2h4.224c1.163 0 2.043.272 2.64.816s.896 1.227.896 2.048c0 .715-.192 1.285-.576 1.712-.384.416-.848.699-1.392.848.427.085.805.256 1.136.512.341.256.608.576.8.96a2.75 2.75 0 0 1 .288 1.248c0 .576-.144 1.099-.432 1.568-.277.459-.688.821-1.232 1.088s-1.211.4-2 .4h-4.352zm1.696-6.4h2.32c.651 0 1.147-.149 1.488-.448.341-.309.512-.731.512-1.264 0-.523-.171-.939-.512-1.248-.331-.309-.837-.464-1.52-.464h-2.288v3.424zm0 5.008h2.432c.683 0 1.211-.16 1.584-.48.384-.32.576-.768.576-1.344s-.197-1.029-.592-1.36c-.395-.341-.928-.512-1.6-.512h-2.4v3.696zm8.115 1.392v-7.936h1.52l.144 1.504c.277-.523.661-.933 1.152-1.232.501-.309 1.104-.464 1.808-.464v1.776h-.464a3.18 3.18 0 0 0-1.264.24c-.363.149-.656.411-.88.784-.213.363-.32.869-.32 1.52v3.808h-1.696zm9.571.192c-.757 0-1.44-.171-2.048-.512-.597-.352-1.072-.837-1.424-1.456-.352-.629-.528-1.36-.528-2.192s.176-1.557.528-2.176a3.82 3.82 0 0 1 1.456-1.456c.608-.352 1.286-.528 2.032-.528.758 0 1.435.176 2.032.528.608.341 1.088.827 1.44 1.456.363.619.544 1.344.544 2.176s-.181 1.563-.544 2.192a3.85 3.85 0 0 1-1.44 1.456c-.608.341-1.29.512-2.048.512zm0-1.456c.406 0 .779-.101 1.12-.304a2.22 2.22 0 0 0 .848-.896c.214-.405.32-.907.32-1.504s-.106-1.093-.32-1.488c-.202-.405-.48-.709-.832-.912-.341-.203-.714-.304-1.12-.304s-.784.101-1.136.304c-.341.203-.618.507-.832.912-.213.395-.32.891-.32 1.488s.107 1.099.32 1.504c.214.395.491.693.832.896s.715.304 1.12.304zm7.154 1.264l-2.336-7.936h1.696l1.536 5.984 1.728-5.984h1.888l1.728 5.984 1.536-5.984h1.696l-2.336 7.936h-1.744l-1.824-6.24-1.824 6.24h-1.744zm14.037.192c-1.003 0-1.83-.245-2.48-.736s-1.024-1.141-1.12-1.952h1.712c.085.363.288.677.608.944.32.256.741.384 1.264.384.512 0 .885-.107 1.12-.32s.352-.459.352-.736c0-.405-.166-.677-.496-.816-.32-.149-.768-.283-1.344-.4-.448-.096-.896-.224-1.344-.384-.438-.16-.806-.384-1.104-.672-.288-.299-.432-.699-.432-1.2a2.18 2.18 0 0 1 .8-1.728c.533-.469 1.28-.704 2.24-.704.885 0 1.6.213 2.144.64.554.427.88 1.029.976 1.808h-1.632a1.17 1.17 0 0 0-.48-.8c-.256-.192-.603-.288-1.04-.288-.427 0-.758.091-.992.272-.235.171-.352.395-.352.672s.16.496.48.656c.33.16.762.304 1.296.432a12.09 12.09 0 0 1 1.472.416c.458.149.826.373 1.104.672s.416.736.416 1.312c.01.725-.272 1.328-.848 1.808-.566.48-1.339.72-2.32.72zm8.731 0c-.778 0-1.472-.171-2.08-.512-.597-.352-1.066-.837-1.408-1.456s-.512-1.339-.512-2.16c0-.832.166-1.563.496-2.192a3.75 3.75 0 0 1 1.408-1.472c.608-.352 1.312-.528 2.112-.528.779 0 1.456.176 2.032.528.576.341 1.024.8 1.344 1.376s.48 1.211.48 1.904l-.016.352-.016.4h-6.176c.054.768.304 1.355.752 1.76.459.395.987.592 1.584.592.48 0 .88-.107 1.2-.32a2.02 2.02 0 0 0 .736-.896h1.696a3.58 3.58 0 0 1-1.28 1.872c-.629.501-1.413.752-2.352.752zm0-6.928a2.38 2.38 0 0 0-1.504.512c-.437.331-.704.832-.8 1.504h4.48c-.032-.619-.25-1.109-.656-1.472s-.912-.544-1.52-.544zm5.632 6.736v-7.936h1.52l.144 1.504c.277-.523.661-.933 1.152-1.232.501-.309 1.104-.464 1.808-.464v1.776h-.464a3.18 3.18 0 0 0-1.264.24c-.363.149-.656.411-.88.784-.213.363-.32.869-.32 1.52v3.808h-1.696zm9.246.192c-1.003 0-1.829-.245-2.48-.736s-1.024-1.141-1.12-1.952h1.712c.085.363.288.677.608.944.32.256.741.384 1.264.384.512 0 .885-.107 1.12-.32s.352-.459.352-.736c0-.405-.165-.677-.496-.816-.32-.149-.768-.283-1.344-.4-.448-.096-.896-.224-1.344-.384-.437-.16-.805-.384-1.104-.672-.288-.299-.432-.699-.432-1.2 0-.693.267-1.269.8-1.728.533-.469 1.28-.704 2.24-.704.885 0 1.6.213 2.144.64.555.427.88 1.029.976 1.808h-1.632c-.053-.341-.213-.608-.48-.8-.256-.192-.603-.288-1.04-.288-.427 0-.757.091-.992.272-.235.171-.352.395-.352.672s.16.496.48.656c.331.16.763.304 1.296.432a12.09 12.09 0 0 1 1.472.416c.459.149.827.373 1.104.672s.416.736.416 1.312c.011.725-.272 1.328-.848 1.808-.565.48-1.339.72-2.32.72z"/><rect x="76" y="280" width="105" height="40" rx="6" class="B"/><path d="M93.136 305.5v-11.2h3.92c.875 0 1.6.149 2.176.448.576.288 1.003.688 1.28 1.2.288.501.432 1.072.432 1.712 0 .608-.139 1.168-.416 1.68-.267.501-.688.901-1.264 1.2s-1.312.448-2.208.448h-2.224v4.512h-1.696zm1.696-5.904h2.144c.8 0 1.371-.171 1.712-.512.352-.352.528-.827.528-1.424 0-.619-.176-1.099-.528-1.44-.341-.352-.912-.528-1.712-.528h-2.144v3.904zm7.724 5.904v-11.52h1.696v11.52h-1.696zm6.532.192c-.672 0-1.227-.112-1.664-.336s-.763-.517-.976-.88c-.213-.373-.32-.779-.32-1.216 0-.768.299-1.376.896-1.824s1.451-.672 2.56-.672h2.08v-.144c0-.619-.171-1.083-.512-1.392-.331-.309-.763-.464-1.296-.464-.469 0-.88.117-1.232.352-.341.224-.549.56-.624 1.008h-1.696c.053-.576.245-1.067.576-1.472.341-.416.768-.731 1.28-.944a4.3 4.3 0 0 1 1.712-.336c1.109 0 1.968.293 2.576.88.608.576.912 1.365.912 2.368v4.88h-1.472l-.144-1.36c-.224.437-.549.805-.976 1.104s-.987.448-1.68.448zm.336-1.376c.459 0 .843-.107 1.152-.32.32-.224.565-.517.736-.88.181-.363.293-.763.336-1.2h-1.888c-.672 0-1.152.117-1.44.352-.277.235-.416.528-.416.88 0 .363.133.651.4.864.277.203.651.304 1.12.304zm9.085 1.184c-.778 0-1.397-.187-1.856-.56-.458-.384-.688-1.061-.688-2.032v-3.92h-1.36v-1.424h1.36l.208-2.016h1.488v2.016h2.24v1.424h-2.24v3.92c0 .437.091.741.272.912.192.16.518.24.976.24h.912v1.44h-1.312zm3.541 0v-6.512h-1.136v-1.424h1.136v-1.152c0-.864.213-1.483.64-1.856.437-.384 1.051-.576 1.84-.576h.832v1.44h-.576c-.373 0-.64.08-.8.24-.16.149-.24.405-.24.768v1.136h1.824v1.424h-1.824v6.512h-1.696zm8.531.192c-.757 0-1.44-.171-2.048-.512-.597-.352-1.072-.837-1.424-1.456-.352-.629-.528-1.36-.528-2.192s.176-1.557.528-2.176a3.82 3.82 0 0 1 1.456-1.456 3.98 3.98 0 0 1 2.032-.528c.757 0 1.435.176 2.032.528.608.341 1.088.827 1.44 1.456.363.619.544 1.344.544 2.176s-.181 1.563-.544 2.192a3.85 3.85 0 0 1-1.44 1.456c-.608.341-1.291.512-2.048.512zm0-1.456a2.15 2.15 0 0 0 1.12-.304 2.22 2.22 0 0 0 .848-.896c.213-.405.32-.907.32-1.504s-.107-1.093-.32-1.488c-.203-.405-.48-.709-.832-.912a2.15 2.15 0 0 0-1.12-.304c-.405 0-.784.101-1.136.304-.341.203-.619.507-.832.912-.213.395-.32.891-.32 1.488s.107 1.099.32 1.504a2.26 2.26 0 0 0 .832.896 2.15 2.15 0 0 0 1.12.304zm5.866 1.264v-7.936h1.52l.144 1.504c.277-.523.661-.933 1.152-1.232.501-.309 1.104-.464 1.808-.464v1.776h-.464a3.18 3.18 0 0 0-1.264.24c-.363.149-.656.411-.88.784-.213.363-.32.869-.32 1.52v3.808h-1.696zm6.078 0v-7.936h1.504l.144 1.12a2.81 2.81 0 0 1 1.008-.96c.427-.235.917-.352 1.472-.352 1.259 0 2.133.496 2.624 1.488.288-.459.672-.821 1.152-1.088.491-.267 1.019-.4 1.584-.4.992 0 1.771.299 2.336.896s.848 1.488.848 2.672v4.56h-1.696v-4.384c0-1.536-.587-2.304-1.76-2.304a1.85 1.85 0 0 0-1.472.672c-.373.448-.56 1.088-.56 1.92v4.096h-1.696v-4.384c0-1.536-.592-2.304-1.776-2.304-.587 0-1.072.224-1.456.672-.373.448-.56 1.088-.56 1.92v4.096h-1.696zm17.824.192c-1.002 0-1.829-.245-2.48-.736s-1.024-1.141-1.12-1.952h1.712c.086.363.288.677.608.944.32.256.742.384 1.264.384.512 0 .886-.107 1.12-.32s.352-.459.352-.736c0-.405-.165-.677-.496-.816-.32-.149-.768-.283-1.344-.4-.448-.096-.896-.224-1.344-.384-.437-.16-.805-.384-1.104-.672-.288-.299-.432-.699-.432-1.2 0-.693.267-1.269.8-1.728.534-.469 1.28-.704 2.24-.704.886 0 1.6.213 2.144.64.555.427.88 1.029.976 1.808h-1.632c-.053-.341-.213-.608-.48-.8-.256-.192-.602-.288-1.04-.288-.426 0-.757.091-.992.272-.234.171-.352.395-.352.672s.16.496.48.656c.331.16.763.304 1.296.432a12.04 12.04 0 0 1 1.472.416c.459.149.827.373 1.104.672s.416.736.416 1.312c.011.725-.272 1.328-.848 1.808-.565.48-1.338.72-2.32.72z"/><rect x="197" y="280" width="93" height="40" rx="6" class="B"/><path d="M217.832 305.692c-.821 0-1.541-.144-2.16-.432s-1.104-.699-1.456-1.232c-.341-.533-.517-1.168-.528-1.904h1.792c.011.597.219 1.104.624 1.52s.976.624 1.712.624c.651 0 1.157-.155 1.52-.464a1.53 1.53 0 0 0 .56-1.216c0-.395-.091-.715-.272-.96-.171-.245-.411-.448-.72-.608-.299-.16-.645-.304-1.04-.432l-1.248-.416c-.864-.288-1.515-.661-1.952-1.12-.427-.459-.64-1.061-.64-1.808-.011-.629.133-1.179.432-1.648.309-.469.736-.832 1.28-1.088.555-.267 1.2-.4 1.936-.4.725 0 1.36.133 1.904.4.555.267.987.64 1.296 1.12.309.469.469 1.019.48 1.648h-1.792c0-.288-.075-.56-.224-.816-.149-.267-.368-.485-.656-.656s-.64-.256-1.056-.256c-.533-.011-.976.123-1.328.4-.341.277-.512.661-.512 1.152 0 .437.128.773.384 1.008s.608.432 1.056.592l1.536.528c.555.181 1.051.4 1.488.656s.784.592 1.04 1.008c.267.416.4.944.4 1.584 0 .565-.144 1.093-.432 1.584-.288.48-.72.875-1.296 1.184-.576.299-1.285.448-2.128.448zm9.406 0c-.778 0-1.477-.176-2.096-.528a3.85 3.85 0 0 1-1.44-1.456c-.341-.629-.512-1.355-.512-2.176s.171-1.541.512-2.16c.352-.629.832-1.12 1.44-1.472.619-.352 1.318-.528 2.096-.528.982 0 1.803.256 2.464.768.672.512 1.104 1.205 1.296 2.08h-1.776c-.106-.437-.341-.779-.704-1.024s-.789-.368-1.28-.368c-.416 0-.8.107-1.152.32-.352.203-.634.507-.848.912-.213.395-.32.885-.32 1.472s.107 1.083.32 1.488c.214.395.496.699.848.912s.736.32 1.152.32c.491 0 .918-.123 1.28-.368a1.67 1.67 0 0 0 .704-1.04h1.776c-.181.853-.608 1.541-1.28 2.064s-1.498.784-2.48.784zm5.6-.192v-7.936h1.52l.144 1.504c.277-.523.661-.933 1.152-1.232.501-.309 1.104-.464 1.808-.464v1.776h-.464c-.47 0-.891.08-1.264.24-.363.149-.656.411-.88.784-.214.363-.32.869-.32 1.52v3.808h-1.696zm9.571.192c-.779 0-1.472-.171-2.08-.512a3.77 3.77 0 0 1-1.408-1.456c-.341-.619-.512-1.339-.512-2.16 0-.832.165-1.563.496-2.192.341-.629.811-1.12 1.408-1.472.608-.352 1.312-.528 2.112-.528.779 0 1.456.176 2.032.528.576.341 1.024.8 1.344 1.376s.48 1.211.48 1.904l-.016.352-.016.4h-6.176c.053.768.304 1.355.752 1.76.459.395.987.592 1.584.592.48 0 .88-.107 1.2-.32a2.02 2.02 0 0 0 .736-.896h1.696a3.58 3.58 0 0 1-1.28 1.872c-.629.501-1.413.752-2.352.752zm0-6.928a2.38 2.38 0 0 0-1.504.512c-.437.331-.704.832-.8 1.504h4.48c-.032-.619-.251-1.109-.656-1.472s-.912-.544-1.52-.544zm9.344 6.928c-.779 0-1.472-.171-2.08-.512a3.76 3.76 0 0 1-1.408-1.456c-.342-.619-.512-1.339-.512-2.16 0-.832.165-1.563.496-2.192.341-.629.81-1.12 1.408-1.472.608-.352 1.312-.528 2.112-.528.778 0 1.456.176 2.032.528.576.341 1.024.8 1.344 1.376s.48 1.211.48 1.904l-.016.352-.016.4h-6.176c.053.768.304 1.355.752 1.76.458.395.986.592 1.584.592.48 0 .88-.107 1.2-.32.33-.224.576-.523.736-.896h1.696c-.214.747-.64 1.371-1.28 1.872-.63.501-1.414.752-2.352.752zm0-6.928c-.566 0-1.067.171-1.504.512-.438.331-.704.832-.8 1.504h4.48c-.032-.619-.251-1.109-.656-1.472s-.912-.544-1.52-.544zm5.632 6.736v-7.936h1.504l.128 1.392c.245-.491.602-.875 1.072-1.152.48-.288 1.029-.432 1.648-.432.96 0 1.712.299 2.256.896.554.597.832 1.488.832 2.672v4.56h-1.68v-4.384c0-1.536-.63-2.304-1.888-2.304-.63 0-1.152.224-1.568.672-.406.448-.608 1.088-.608 1.92v4.096h-1.696zm12.605.192c-1.003 0-1.829-.245-2.48-.736s-1.024-1.141-1.12-1.952h1.712c.085.363.288.677.608.944.32.256.741.384 1.264.384.512 0 .885-.107 1.12-.32s.352-.459.352-.736c0-.405-.165-.677-.496-.816-.32-.149-.768-.283-1.344-.4-.448-.096-.896-.224-1.344-.384-.437-.16-.805-.384-1.104-.672-.288-.299-.432-.699-.432-1.2 0-.693.267-1.269.8-1.728.533-.469 1.28-.704 2.24-.704.885 0 1.6.213 2.144.64.555.427.88 1.029.976 1.808h-1.632c-.053-.341-.213-.608-.48-.8-.256-.192-.603-.288-1.04-.288-.427 0-.757.091-.992.272-.235.171-.352.395-.352.672s.16.496.48.656c.331.16.763.304 1.296.432a12.09 12.09 0 0 1 1.472.416c.459.149.827.373 1.104.672s.416.736.416 1.312c.011.725-.272 1.328-.848 1.808-.565.48-1.339.72-2.32.72z"/><rect x="306" y="280" width="106" height="40" rx="6" class="B"/><path d="M323.136 305.5v-11.2h1.696v4.8l4.416-4.8h2.096l-4.144 4.464 4.24 6.736h-2.064l-3.392-5.44-1.152 1.248v4.192h-1.696zm12.836.192c-.779 0-1.472-.171-2.08-.512a3.76 3.76 0 0 1-1.408-1.456c-.342-.619-.512-1.339-.512-2.16 0-.832.165-1.563.496-2.192.341-.629.81-1.12 1.408-1.472.608-.352 1.312-.528 2.112-.528.778 0 1.456.176 2.032.528.576.341 1.024.8 1.344 1.376s.48 1.211.48 1.904l-.016.352-.016.4h-6.176c.053.768.304 1.355.752 1.76.458.395.986.592 1.584.592.48 0 .88-.107 1.2-.32.33-.224.576-.523.736-.896h1.696c-.214.747-.64 1.371-1.28 1.872-.63.501-1.414.752-2.352.752zm0-6.928c-.566 0-1.067.171-1.504.512-.438.331-.704.832-.8 1.504h4.48c-.032-.619-.251-1.109-.656-1.472s-.912-.544-1.52-.544zm6.2 10.256l1.904-4.176h-.464l-3.136-7.28h1.84l2.432 5.872 2.544-5.872h1.792l-5.12 11.456h-1.792zm9.89-3.52l-2.336-7.936h1.696l1.536 5.984 1.728-5.984h1.888l1.728 5.984 1.536-5.984h1.696l-2.336 7.936h-1.744l-1.824-6.24-1.824 6.24h-1.744zm14.285.192c-.758 0-1.44-.171-2.048-.512a3.88 3.88 0 0 1-1.424-1.456c-.352-.629-.528-1.36-.528-2.192s.176-1.557.528-2.176c.362-.629.848-1.115 1.456-1.456a3.98 3.98 0 0 1 2.032-.528c.757 0 1.434.176 2.032.528.608.341 1.088.827 1.44 1.456.362.619.543 1.344.543 2.176s-.181 1.563-.543 2.192a3.85 3.85 0 0 1-1.44 1.456c-.608.341-1.291.512-2.048.512zm0-1.456c.405 0 .778-.101 1.12-.304.352-.203.634-.501.848-.896.213-.405.32-.907.32-1.504s-.107-1.093-.32-1.488c-.203-.405-.48-.709-.832-.912-.342-.203-.715-.304-1.12-.304s-.784.101-1.136.304c-.342.203-.619.507-.832.912-.214.395-.32.891-.32 1.488s.106 1.099.32 1.504c.213.395.49.693.832.896s.714.304 1.12.304zm5.866 1.264v-7.936h1.52l.144 1.504c.277-.523.661-.933 1.152-1.232.501-.309 1.104-.464 1.808-.464v1.776h-.464c-.47 0-.891.08-1.264.24-.363.149-.656.411-.88.784-.214.363-.32.869-.32 1.52v3.808h-1.696zm9.475.192c-.768 0-1.445-.181-2.032-.544s-1.045-.859-1.376-1.488-.496-1.344-.496-2.144.165-1.509.496-2.128c.331-.629.789-1.12 1.376-1.472.597-.363 1.28-.544 2.048-.544.629 0 1.179.123 1.648.368.48.245.853.592 1.12 1.04v-4.8h1.696v11.52h-1.52l-.176-1.232c-.256.373-.608.704-1.056.992s-1.024.432-1.728.432zm.304-1.472c.725 0 1.317-.251 1.776-.752.469-.501.704-1.147.704-1.936 0-.8-.235-1.445-.704-1.936-.459-.501-1.051-.752-1.776-.752s-1.323.251-1.792.752c-.469.491-.704 1.136-.704 1.936 0 .523.107.987.32 1.392a2.47 2.47 0 0 0 .88.96c.384.224.816.336 1.296.336zm9.482 1.472c-1.002 0-1.829-.245-2.48-.736s-1.024-1.141-1.12-1.952h1.712c.086.363.288.677.608.944.32.256.742.384 1.264.384.512 0 .886-.107 1.12-.32s.352-.459.352-.736c0-.405-.165-.677-.496-.816-.32-.149-.768-.283-1.344-.4-.448-.096-.896-.224-1.344-.384-.437-.16-.805-.384-1.104-.672-.288-.299-.432-.699-.432-1.2 0-.693.267-1.269.8-1.728.534-.469 1.28-.704 2.24-.704.886 0 1.6.213 2.144.64.555.427.88 1.029.976 1.808h-1.632c-.053-.341-.213-.608-.48-.8-.256-.192-.602-.288-1.04-.288-.426 0-.757.091-.992.272-.234.171-.352.395-.352.672s.16.496.48.656c.331.16.763.304 1.296.432a12.04 12.04 0 0 1 1.472.416c.459.149.827.373 1.104.672s.416.736.416 1.312c.011.725-.272 1.328-.848 1.808-.565.48-1.338.72-2.32.72z"/></g><defs><radialGradient id="A" cx="0" cy="0" r="1" gradientUnits="userSpaceOnUse" gradientTransform="translate(244 160) rotate(90) scale(160 244)"><stop stop-color="#fff"/><stop offset="1" stop-color="#fff" stop-opacity="0"/></radialGradient></defs></svg>