<svg xmlns="http://www.w3.org/2000/svg" width="64" height="48" fill="none"><path d="M37.501 13.084C34.83 10.415 32.282 7.87 31.524 5c-.758 2.87-3.307 5.415-5.977 8.084C21.541 17.087 17 21.624 17 28.428c-.006 1.911.365 3.805 1.092 5.573s1.796 3.374 3.145 4.728 2.953 2.428 4.718 3.161S29.613 43 31.524 43s3.804-.377 5.569-1.11 3.369-1.807 4.718-3.161 2.418-2.961 3.145-4.728 1.098-3.661 1.092-5.573c0-6.804-4.541-11.341-8.548-15.344h0zM23.173 31.813c-.891-.03-4.177-5.695 1.92-11.727l4.035 4.407c.035.034.062.075.079.121s.025.094.023.143-.015.096-.038.139-.053.082-.091.112c-.963.987-5.067 5.103-5.577 6.526-.105.294-.259.283-.351.28h0zm8.351 7.466c-.656 0-1.306-.129-1.912-.38s-1.157-.619-1.621-1.083-.832-1.014-1.083-1.621-.38-1.256-.38-1.912c.018-1.211.459-2.378 1.245-3.3.901-1.101 3.75-4.199 3.75-4.199l3.743 4.189c.817.908 1.264 2.089 1.253 3.31 0 1.325-.526 2.595-1.463 3.532s-2.207 1.463-3.532 1.463h0zm9.561-8.101c-.108.235-.352.629-.681.641-.588.021-.65-.28-1.085-.922-.953-1.411-9.274-10.107-10.831-11.789-1.369-1.479-.193-2.522.353-3.069l2.682-2.682s5.958 5.653 8.439 9.515 1.627 7.204 1.122 8.307z" fill="#fff"/></svg>