<svg xmlns="http://www.w3.org/2000/svg" width="282" height="144" fill="none"><path fill="url(#A)" d="M0 0h282v144H0z"/><g fill="#fff"><rect x="24" width="137" height="44" rx="12" fill-opacity=".04"/><path d="M54 27.692c-1.056 0-1.979-.24-2.768-.72s-1.403-1.152-1.84-2.016-.656-1.872-.656-3.024c0-1.141.224-2.149.672-3.024s1.083-1.557 1.904-2.048c.832-.501 1.813-.752 2.944-.752 1.28 0 2.347.309 3.2.928s1.408 1.472 1.664 2.56H57.2a2.47 2.47 0 0 0-1.008-1.408c-.501-.341-1.147-.512-1.936-.512-1.173 0-2.096.379-2.768 1.136s-1.008 1.803-1.008 3.136.331 2.373.992 3.12 1.541 1.12 2.64 1.12c1.109 0 1.941-.315 2.496-.944.565-.629.896-1.467.992-2.512h-3.04V21.42h4.752v6.08H57.76l-.144-1.648c-.373.587-.843 1.04-1.408 1.36s-1.301.48-2.208.48zm11.018 0c-.779 0-1.472-.171-2.08-.512a3.77 3.77 0 0 1-1.408-1.456c-.341-.619-.512-1.339-.512-2.16 0-.832.165-1.563.496-2.192a3.74 3.74 0 0 1 1.408-1.472c.608-.352 1.312-.528 2.112-.528.779 0 1.456.176 2.032.528.576.341 1.024.8 1.344 1.376s.48 1.211.48 1.904l-.016.352-.016.4h-6.176c.053.768.304 1.355.752 1.76.459.395.987.592 1.584.592.48 0 .88-.107 1.2-.32a2.02 2.02 0 0 0 .736-.896h1.696a3.58 3.58 0 0 1-1.28 1.872c-.629.501-1.413.752-2.352.752zm0-6.928a2.38 2.38 0 0 0-1.504.512c-.437.331-.704.832-.8 1.504h4.48c-.032-.619-.251-1.109-.656-1.472s-.912-.544-1.52-.544zm8.757 6.736c-.779 0-1.397-.187-1.856-.56-.459-.384-.688-1.061-.688-2.032v-3.92h-1.36v-1.424h1.36l.208-2.016h1.488v2.016h2.24v1.424h-2.24v3.92c0 .437.091.741.272.912.192.16.517.24.976.24h.912v1.44h-1.312zm10.932.192c-.821 0-1.541-.144-2.16-.432s-1.104-.699-1.456-1.232c-.341-.533-.517-1.168-.528-1.904h1.792c.011.597.219 1.104.624 1.52s.976.624 1.712.624c.651 0 1.157-.155 1.52-.464a1.53 1.53 0 0 0 .56-1.216c0-.395-.091-.715-.272-.96a1.94 1.94 0 0 0-.72-.608c-.299-.16-.645-.304-1.04-.432l-1.248-.416c-.864-.288-1.515-.661-1.952-1.12-.427-.459-.64-1.061-.64-1.808-.011-.629.133-1.179.432-1.648.309-.469.736-.832 1.28-1.088.555-.267 1.2-.4 1.936-.4.725 0 1.36.133 1.904.4.555.267.987.64 1.296 1.12.309.469.469 1.019.48 1.648h-1.792c0-.288-.075-.56-.224-.816-.149-.267-.368-.485-.656-.656s-.64-.256-1.056-.256c-.533-.011-.976.123-1.328.4-.341.277-.512.661-.512 1.152 0 .437.128.773.384 1.008s.608.432 1.056.592l1.536.528a7.63 7.63 0 0 1 1.488.656c.437.256.784.592 1.04 1.008.267.416.4.944.4 1.584 0 .565-.144 1.093-.432 1.584-.288.48-.72.875-1.296 1.184-.576.299-1.285.448-2.128.448zm8.974-.192c-.779 0-1.397-.187-1.856-.56-.459-.384-.688-1.061-.688-2.032v-3.92h-1.36v-1.424h1.36l.208-2.016h1.488v2.016h2.24v1.424h-2.24v3.92c0 .437.091.741.272.912.192.16.517.24.976.24h.912v1.44h-1.312zm5.829.192c-.672 0-1.227-.112-1.664-.336s-.763-.517-.976-.88a2.41 2.41 0 0 1-.32-1.216c0-.768.299-1.376.896-1.824s1.451-.672 2.56-.672h2.08v-.144c0-.619-.171-1.083-.512-1.392-.331-.309-.763-.464-1.296-.464-.469 0-.88.117-1.232.352-.341.224-.549.56-.624 1.008h-1.696c.053-.576.245-1.067.576-1.472.341-.416.768-.731 1.28-.944a4.3 4.3 0 0 1 1.712-.336c1.109 0 1.968.293 2.576.88.608.576.912 1.365.912 2.368v4.88h-1.472l-.144-1.36c-.224.437-.549.805-.976 1.104s-.987.448-1.68.448zm.336-1.376c.459 0 .843-.107 1.152-.32.32-.224.565-.517.736-.88a3.41 3.41 0 0 0 .336-1.2h-1.888c-.672 0-1.152.117-1.44.352-.277.235-.416.528-.416.88 0 .363.133.651.4.864.277.203.651.304 1.12.304zm5.914 1.184v-7.936h1.52l.144 1.504c.277-.523.661-.933 1.152-1.232.501-.309 1.104-.464 1.808-.464v1.776h-.464c-.47 0-.891.08-1.264.24-.363.149-.656.411-.88.784-.214.363-.32.869-.32 1.52V27.5h-1.696zm9.406 0c-.779 0-1.398-.187-1.856-.56-.459-.384-.688-1.061-.688-2.032v-3.92h-1.36v-1.424h1.36l.208-2.016h1.488v2.016h2.24v1.424h-2.24v3.92c0 .437.09.741.272.912.192.16.517.24.976.24h.912v1.44h-1.312zm6.649.192c-.778 0-1.472-.171-2.08-.512-.597-.352-1.066-.837-1.408-1.456s-.512-1.339-.512-2.16c0-.832.166-1.563.496-2.192a3.75 3.75 0 0 1 1.408-1.472c.608-.352 1.312-.528 2.112-.528.779 0 1.456.176 2.032.528.576.341 1.024.8 1.344 1.376s.48 1.211.48 1.904l-.016.352-.016.4h-6.176c.054.768.304 1.355.752 1.76.459.395.987.592 1.584.592.48 0 .88-.107 1.2-.32a2.02 2.02 0 0 0 .736-.896h1.696a3.58 3.58 0 0 1-1.28 1.872c-.629.501-1.413.752-2.352.752zm0-6.928a2.38 2.38 0 0 0-1.504.512c-.437.331-.704.832-.8 1.504h4.48c-.032-.619-.25-1.109-.656-1.472s-.912-.544-1.52-.544zm9.248 6.928c-.768 0-1.445-.181-2.032-.544a3.78 3.78 0 0 1-1.376-1.488c-.331-.629-.496-1.344-.496-2.144s.165-1.509.496-2.128c.331-.629.789-1.12 1.376-1.472.597-.363 1.28-.544 2.048-.544.629 0 1.179.123 1.648.368.48.245.853.592 1.12 1.04v-4.8h1.696V27.5h-1.52l-.176-1.232c-.256.373-.608.704-1.056.992s-1.024.432-1.728.432zm.304-1.472c.725 0 1.317-.251 1.776-.752.469-.501.704-1.147.704-1.936 0-.8-.235-1.445-.704-1.936-.459-.501-1.051-.752-1.776-.752s-1.323.251-1.792.752c-.469.491-.704 1.136-.704 1.936 0 .523.107.987.32 1.392a2.47 2.47 0 0 0 .88.96c.384.224.816.336 1.296.336zM145 28l16 12.279-6.951 1.17 4.325 8.817L154.778 52l-4.35-8.879L145 47.823V28z"/><rect x="99" y="60" width="159" height="84" rx="6" fill-opacity=".04"/></g><path d="M107.71 78v-7h4.45v.86h-3.39v2.18h3.09v.84h-3.09v2.26h3.39V78h-4.45zm9.383 0l-2.59-7h1.13l2.1 5.9 2.11-5.9h1.12l-2.59 7h-1.28zm6.366 0v-7h4.45v.86h-3.39v2.18h3.09v.84h-3.09v2.26h3.39V78h-4.45zm7.313 0v-7h1.06l3.51 5.27V71h1.06v7h-1.06l-3.51-5.27V78h-1.06zm10.29 0v-6.14h-2.07V71h5.191v.86h-2.061V78h-1.06zm9.832 0v-7h1.06l3.51 5.27V71h1.06v7h-1.06l-3.51-5.27V78h-1.06zm8.201 0l2.58-7h1.16l2.56 7h-1.12l-.6-1.71h-2.86l-.6 1.71h-1.12zm2.02-2.55h2.26l-1.13-3.19-1.13 3.19zm6.856 2.55v-7h1.25l2.37 4.66 2.36-4.66h1.25v7h-1.06v-5.17l-2.14 4.17h-.82l-2.15-4.16V78h-1.06zm10.252 0v-7h4.45v.86h-3.39v2.18h3.09v.84h-3.09v2.26h3.39V78h-4.45z" fill="#adadad"/><path d="M112.362 95.168c-.971 0-1.811-.21-2.52-.63-.7-.429-1.241-1.022-1.624-1.778-.383-.765-.574-1.647-.574-2.646 0-1.008.191-1.89.574-2.646.383-.765.924-1.363 1.624-1.792.709-.429 1.549-.644 2.52-.644 1.148 0 2.086.28 2.814.84s1.19 1.344 1.386 2.352h-1.652c-.131-.569-.411-1.022-.84-1.358s-1.003-.504-1.722-.504c-.98 0-1.755.336-2.324 1.008-.569.663-.854 1.577-.854 2.744 0 1.157.285 2.067.854 2.73s1.344.994 2.324.994c.719 0 1.293-.159 1.722-.476s.709-.751.84-1.302h1.652c-.196.971-.658 1.731-1.386 2.282s-1.666.826-2.814.826zm5.775-.168V84.92h1.484V95h-1.484zm4.204-8.26c-.28 0-.514-.084-.7-.252a.89.89 0 0 1-.266-.658c0-.261.088-.476.266-.644.186-.177.42-.266.7-.266s.508.089.686.266a.83.83 0 0 1 .28.644c0 .261-.094.481-.28.658-.178.168-.406.252-.686.252zm-.742 8.26v-6.944h1.484V95h-1.484zm6.733.168c-.682 0-1.293-.154-1.834-.462a3.37 3.37 0 0 1-1.26-1.274c-.299-.551-.448-1.185-.448-1.904s.149-1.349.448-1.89c.308-.551.728-.98 1.26-1.288.541-.308 1.152-.462 1.834-.462.858 0 1.577.224 2.156.672a3.02 3.02 0 0 1 1.134 1.82h-1.554c-.094-.383-.299-.681-.616-.896s-.691-.322-1.12-.322a1.91 1.91 0 0 0-1.008.28 1.92 1.92 0 0 0-.742.798c-.187.345-.28.775-.28 1.288s.093.947.28 1.302c.186.345.434.611.742.798a1.91 1.91 0 0 0 1.008.28c.429 0 .802-.107 1.12-.322a1.47 1.47 0 0 0 .616-.91h1.554c-.159.747-.532 1.349-1.12 1.806s-1.312.686-2.17.686zm4.899-.168V84.92h1.484v6.006l2.66-2.87h1.778l-2.954 3.15L139.587 95h-1.876l-2.996-3.556V95h-1.484zm10.221.168c-.682 0-1.288-.149-1.82-.448-.523-.308-.934-.733-1.232-1.274s-.448-1.171-.448-1.89c0-.728.144-1.367.434-1.918.298-.551.709-.98 1.232-1.288.532-.308 1.148-.462 1.848-.462.681 0 1.274.154 1.778.462.504.299.896.7 1.176 1.204s.42 1.059.42 1.666l-.014.308-.014.35h-5.404c.046.672.266 1.185.658 1.54a2.06 2.06 0 0 0 1.386.518c.42 0 .77-.093 1.05-.28a1.77 1.77 0 0 0 .644-.784h1.484c-.187.653-.56 1.199-1.12 1.638-.551.439-1.237.658-2.058.658zm0-6.062c-.495 0-.934.149-1.316.448-.383.289-.616.728-.7 1.316h3.92c-.028-.541-.22-.971-.574-1.288s-.798-.476-1.33-.476zm8.091 6.062c-.672 0-1.264-.159-1.778-.476s-.914-.751-1.204-1.302-.434-1.176-.434-1.876.145-1.321.434-1.862c.29-.551.691-.98 1.204-1.288.523-.317 1.12-.476 1.792-.476.551 0 1.032.107 1.442.322.42.215.747.518.98.91v-4.2h1.484V95h-1.33l-.154-1.078c-.224.327-.532.616-.924.868s-.896.378-1.512.378zm.266-1.288c.635 0 1.153-.219 1.554-.658.411-.439.616-1.003.616-1.694 0-.7-.205-1.265-.616-1.694-.401-.439-.919-.658-1.554-.658s-1.157.219-1.568.658c-.41.429-.616.994-.616 1.694 0 .457.094.863.28 1.218s.444.635.77.84c.336.196.714.294 1.134.294zm8.549-5.39l1.344-3.29h1.036l-.784 3.29h-1.596zm2.45 0l1.344-3.29h1.036l-.784 3.29h-1.596zm8.149 6.678c-.924 0-1.731-.21-2.422-.63s-1.227-1.008-1.61-1.764-.574-1.638-.574-2.646c0-.999.196-1.881.588-2.646a4.35 4.35 0 0 1 1.666-1.792c.728-.439 1.587-.658 2.576-.658 1.12 0 2.053.271 2.8.812s1.232 1.288 1.456 2.24h-1.68c-.149-.523-.443-.933-.882-1.232s-1.003-.448-1.694-.448c-1.027 0-1.834.331-2.422.994s-.882 1.577-.882 2.744.289 2.077.868 2.73 1.349.98 2.31.98c.971 0 1.699-.275 2.184-.826.495-.551.784-1.283.868-2.198h-2.66V89.68h4.158V95h-1.358l-.126-1.442a3.49 3.49 0 0 1-1.232 1.19c-.495.28-1.139.42-1.932.42zm9.641 0c-.681 0-1.288-.149-1.82-.448a3.3 3.3 0 0 1-1.232-1.274c-.299-.541-.448-1.171-.448-1.89 0-.728.145-1.367.434-1.918.299-.551.709-.98 1.232-1.288.532-.308 1.148-.462 1.848-.462.681 0 1.274.154 1.778.462.504.299.896.7 1.176 1.204s.42 1.059.42 1.666l-.014.308-.014.35h-5.404c.047.672.266 1.185.658 1.54a2.06 2.06 0 0 0 1.386.518c.42 0 .77-.093 1.05-.28a1.77 1.77 0 0 0 .644-.784h1.484c-.187.653-.56 1.199-1.12 1.638-.551.439-1.237.658-2.058.658zm0-6.062a2.08 2.08 0 0 0-1.316.448c-.383.289-.616.728-.7 1.316h3.92c-.028-.541-.219-.971-.574-1.288s-.798-.476-1.33-.476zM188.26 95c-.681 0-1.223-.163-1.624-.49-.401-.336-.602-.929-.602-1.778v-3.43h-1.19v-1.246h1.19l.182-1.764h1.302v1.764h1.96v1.246h-1.96v3.43c0 .383.079.649.238.798.168.14.453.21.854.21h.798V95h-1.148zm9.566.168c-.719 0-1.349-.126-1.89-.378s-.966-.611-1.274-1.078c-.299-.467-.453-1.022-.462-1.666h1.568c.009.523.191.966.546 1.33s.854.546 1.498.546c.569 0 1.012-.135 1.33-.406a1.34 1.34 0 0 0 .49-1.064c0-.345-.08-.625-.238-.84-.15-.215-.36-.392-.63-.532-.262-.14-.565-.266-.91-.378l-1.092-.364c-.756-.252-1.326-.579-1.708-.98-.374-.401-.56-.929-.56-1.582-.01-.551.116-1.031.378-1.442.27-.411.644-.728 1.12-.952.485-.233 1.05-.35 1.694-.35.634 0 1.19.117 1.666.35.485.233.863.56 1.134.98.27.411.41.891.42 1.442h-1.568a1.4 1.4 0 0 0-.196-.714 1.54 1.54 0 0 0-.574-.574c-.252-.149-.56-.224-.924-.224-.467-.009-.854.107-1.162.35-.299.243-.448.579-.448 1.008 0 .383.112.677.336.882s.532.378.924.518l1.344.462a6.7 6.7 0 0 1 1.302.574c.382.224.686.518.91.882.233.364.35.826.35 1.386a2.69 2.69 0 0 1-.378 1.386c-.252.42-.63.765-1.134 1.036-.504.261-1.125.392-1.862.392zm7.852-.168c-.681 0-1.223-.163-1.624-.49-.401-.336-.602-.929-.602-1.778v-3.43h-1.19v-1.246h1.19l.182-1.764h1.302v1.764h1.96v1.246h-1.96v3.43c0 .383.079.649.238.798.168.14.453.21.854.21h.798V95h-1.148zm5.1.168c-.588 0-1.073-.098-1.456-.294s-.667-.453-.854-.77c-.186-.327-.28-.681-.28-1.064a1.89 1.89 0 0 1 .784-1.596c.523-.392 1.27-.588 2.24-.588h1.82v-.126c0-.541-.149-.947-.448-1.218-.289-.271-.667-.406-1.134-.406-.41 0-.77.103-1.078.308-.298.196-.48.49-.546.882h-1.484c.047-.504.215-.933.504-1.288.299-.364.672-.639 1.12-.826.458-.196.957-.294 1.498-.294.971 0 1.722.257 2.254.77.532.504.798 1.195.798 2.072V95h-1.288l-.126-1.19a2.63 2.63 0 0 1-.854.966c-.373.261-.863.392-1.47.392zm.294-1.204c.402 0 .738-.093 1.008-.28.28-.196.495-.453.644-.77.159-.317.257-.667.294-1.05h-1.652c-.588 0-1.008.103-1.26.308a.97.97 0 0 0-.364.77c0 .317.117.569.35.756.243.177.57.266.98.266zM216.247 95v-6.944h1.33l.126 1.316c.242-.457.578-.817 1.008-1.078.438-.271.966-.406 1.582-.406v1.554h-.406c-.411 0-.78.07-1.106.21-.318.131-.574.359-.77.686-.187.317-.28.761-.28 1.33V95h-1.484zm8.23 0c-.681 0-1.223-.163-1.624-.49-.401-.336-.602-.929-.602-1.778v-3.43h-1.19v-1.246h1.19l.182-1.764h1.302v1.764h1.96v1.246h-1.96v3.43c0 .383.079.649.238.798.168.14.453.21.854.21h.798V95h-1.148zm5.818.168c-.681 0-1.288-.149-1.82-.448-.522-.308-.933-.733-1.232-1.274s-.448-1.171-.448-1.89c0-.728.145-1.367.434-1.918a3.28 3.28 0 0 1 1.232-1.288c.532-.308 1.148-.462 1.848-.462.682 0 1.274.154 1.778.462.504.299.896.7 1.176 1.204s.42 1.059.42 1.666l-.014.308-.014.35h-5.404c.047.672.266 1.185.658 1.54.402.345.864.518 1.386.518.42 0 .77-.093 1.05-.28.29-.196.504-.457.644-.784h1.484c-.186.653-.56 1.199-1.12 1.638-.55.439-1.236.658-2.058.658zm0-6.062a2.08 2.08 0 0 0-1.316.448c-.382.289-.616.728-.7 1.316h3.92c-.028-.541-.219-.971-.574-1.288s-.798-.476-1.33-.476zm8.092 6.062c-.672 0-1.265-.159-1.778-.476s-.915-.751-1.204-1.302-.434-1.176-.434-1.876.145-1.321.434-1.862c.289-.551.691-.98 1.204-1.288.523-.317 1.12-.476 1.792-.476.551 0 1.031.107 1.442.322.42.215.747.518.98.91v-4.2h1.484V95h-1.33l-.154-1.078c-.224.327-.532.616-.924.868s-.896.378-1.512.378zm.266-1.288c.635 0 1.153-.219 1.554-.658.411-.439.616-1.003.616-1.694 0-.7-.205-1.265-.616-1.694-.401-.439-.919-.658-1.554-.658s-1.157.219-1.568.658c-.411.429-.616.994-.616 1.694 0 .457.093.863.28 1.218s.443.635.77.84c.336.196.714.294 1.134.294zm7.555-5.404l.784-3.29h1.596l-1.358 3.29h-1.022zm-2.45 0l.784-3.29h1.61l-1.358 3.29h-1.036z" fill="#fff"/><path d="M110.83 115.12c-.693 0-1.293-.15-1.8-.45-.5-.307-.887-.73-1.16-1.27-.273-.547-.41-1.177-.41-1.89 0-.72.137-1.35.41-1.89a3.08 3.08 0 0 1 1.16-1.28c.507-.307 1.107-.46 1.8-.46.82 0 1.49.2 2.01.6s.85.96.99 1.68h-1.18c-.093-.407-.293-.73-.6-.97s-.717-.36-1.23-.36c-.7 0-1.253.24-1.66.72-.407.473-.61 1.127-.61 1.96 0 .827.203 1.477.61 1.95s.96.71 1.66.71c.513 0 .923-.113 1.23-.34s.507-.537.6-.93h1.18c-.14.693-.47 1.237-.99 1.63s-1.19.59-2.01.59zm8.995 0c-.693 0-1.3-.153-1.82-.46a3.24 3.24 0 0 1-1.22-1.27c-.293-.547-.44-1.177-.44-1.89s.147-1.34.44-1.88a3.22 3.22 0 0 1 1.22-1.28c.52-.307 1.127-.46 1.82-.46s1.3.153 1.82.46.923.733 1.21 1.28c.293.54.44 1.167.44 1.88s-.147 1.343-.44 1.89c-.287.54-.69.963-1.21 1.27s-1.127.46-1.82.46zm0-.95c.48 0 .897-.107 1.25-.32.36-.213.64-.52.84-.92s.3-.877.3-1.43-.1-1.03-.3-1.43-.48-.707-.84-.92c-.353-.213-.77-.32-1.25-.32s-.9.107-1.26.32-.64.52-.84.92c-.193.4-.29.877-.29 1.43s.097 1.03.29 1.43c.2.4.48.707.84.92s.78.32 1.26.32zm6.251.83v-7h1.06l3.51 5.27V108h1.06v7h-1.06l-3.51-5.27V115h-1.06zm10.721 0l-2.59-7h1.13l2.1 5.9 2.11-5.9h1.12l-2.59 7h-1.28zm6.366 0v-7h4.45v.86h-3.39v2.18h3.09v.84h-3.09v2.26h3.39v.86h-4.45zm7.313 0v-7h2.41c.553 0 1.006.093 1.36.28.36.187.626.44.8.76.173.313.26.663.26 1.05 0 .433-.117.827-.35 1.18-.227.353-.584.607-1.07.76l1.49 2.97h-1.23l-1.36-2.82h-1.25V115h-1.06zm1.06-3.62h1.29c.48 0 .83-.117 1.05-.35.226-.233.34-.537.34-.91s-.11-.67-.33-.89c-.22-.227-.577-.34-1.07-.34h-1.28v2.49zm8.934 3.74c-.514 0-.964-.09-1.35-.27a2.15 2.15 0 0 1-.91-.77c-.214-.333-.324-.73-.33-1.19H159a1.34 1.34 0 0 0 .39.95c.253.26.61.39 1.07.39.406 0 .723-.097.95-.29.233-.2.35-.453.35-.76 0-.247-.057-.447-.17-.6a1.22 1.22 0 0 0-.45-.38c-.187-.1-.404-.19-.65-.27l-.78-.26c-.54-.18-.947-.413-1.22-.7-.267-.287-.4-.663-.4-1.13-.007-.393.083-.737.27-1.03.193-.293.46-.52.8-.68.346-.167.75-.25 1.21-.25.453 0 .85.083 1.19.25.346.167.616.4.81.7.193.293.293.637.3 1.03h-1.12a1 1 0 0 0-.14-.51c-.094-.167-.23-.303-.41-.41a1.27 1.27 0 0 0-.66-.16c-.334-.007-.61.077-.83.25-.214.173-.32.413-.32.72 0 .273.08.483.24.63s.38.27.66.37l.96.33c.346.113.656.25.93.41s.49.37.65.63c.166.26.25.59.25.99 0 .353-.09.683-.27.99-.18.3-.45.547-.81.74-.36.187-.804.28-1.33.28zm5.169-.12v-7h1.06v7h-1.06zm7.31.12c-.693 0-1.3-.153-1.82-.46a3.24 3.24 0 0 1-1.22-1.27c-.293-.547-.44-1.177-.44-1.89s.147-1.34.44-1.88a3.22 3.22 0 0 1 1.22-1.28c.52-.307 1.127-.46 1.82-.46s1.3.153 1.82.46.923.733 1.21 1.28c.293.54.44 1.167.44 1.88s-.147 1.343-.44 1.89c-.287.54-.69.963-1.21 1.27s-1.127.46-1.82.46zm0-.95c.48 0 .897-.107 1.25-.32.36-.213.64-.52.84-.92s.3-.877.3-1.43-.1-1.03-.3-1.43-.48-.707-.84-.92c-.353-.213-.77-.32-1.25-.32s-.9.107-1.26.32-.64.52-.84.92c-.193.4-.29.877-.29 1.43s.097 1.03.29 1.43c.2.4.48.707.84.92s.78.32 1.26.32zm6.251.83v-7h1.06l3.51 5.27V108h1.06v7h-1.06l-3.51-5.27V115h-1.06zm12.77 0v-7h2.41c.553 0 1.007.093 1.36.28.36.187.627.44.8.76.173.313.26.663.26 1.05 0 .433-.117.827-.35 1.18-.227.353-.583.607-1.07.76l1.49 2.97h-1.23l-1.36-2.82h-1.25V115h-1.06zm1.06-3.62h1.29c.48 0 .83-.117 1.05-.35.227-.233.34-.537.34-.91s-.11-.67-.33-.89c-.22-.227-.577-.34-1.07-.34h-1.28v2.49zm6.174 3.62l2.58-7h1.16l2.56 7h-1.12l-.6-1.71h-2.86l-.6 1.71h-1.12zm2.02-2.55h2.26l-1.13-3.19-1.13 3.19zm7.735 2.55v-6.14h-2.07V108h5.19v.86h-2.06V115h-1.06zm5.712 0v-7h4.45v.86h-3.39v2.18h3.09v.84h-3.09v2.26h3.39v.86h-4.45z" fill="#adadad"/><path d="M109.002 132v-8.12l-1.582.364v-1.092l2.17-.952h.952v9.8h-1.54zm6.877.168c-.653 0-1.246-.117-1.778-.35-.523-.243-.943-.579-1.26-1.008-.308-.429-.462-.933-.462-1.512a2.69 2.69 0 0 1 .49-1.582 2.49 2.49 0 0 1 1.33-.952c-.495-.196-.877-.481-1.148-.854-.271-.383-.406-.803-.406-1.26 0-.476.126-.91.378-1.302.252-.401.616-.719 1.092-.952.485-.243 1.073-.364 1.764-.364s1.274.121 1.75.364c.485.233.854.551 1.106.952.252.392.378.826.378 1.302 0 .448-.14.868-.42 1.26-.271.383-.653.667-1.148.854.551.177.989.499 1.316.966a2.58 2.58 0 0 1 .504 1.568c0 .579-.154 1.083-.462 1.512s-.728.765-1.26 1.008c-.523.233-1.111.35-1.764.35zm0-5.88c.541 0 .966-.14 1.274-.42.317-.28.476-.639.476-1.078 0-.495-.154-.873-.462-1.134s-.737-.392-1.288-.392-.98.131-1.288.392-.462.639-.462 1.134a1.39 1.39 0 0 0 .462 1.078c.308.28.737.42 1.288.42zm0 4.62c.672 0 1.176-.159 1.512-.476.336-.327.504-.742.504-1.246 0-.56-.182-.989-.546-1.288-.355-.308-.845-.462-1.47-.462s-1.12.154-1.484.462c-.364.299-.546.728-.546 1.288 0 .504.168.919.504 1.246.345.317.854.476 1.526.476zm7.226-4.032c-.439 0-.836-.098-1.19-.294-.346-.196-.621-.471-.826-.826-.206-.364-.308-.798-.308-1.302 0-.495.102-.919.308-1.274.205-.364.485-.644.84-.84s.751-.294 1.19-.294c.429 0 .816.098 1.162.294.354.196.634.476.84.84.205.355.308.779.308 1.274 0 .504-.103.938-.308 1.302a2.17 2.17 0 0 1-.84.826c-.346.196-.738.294-1.176.294zm-.7 5.124l5.614-9.8h1.456l-5.6 9.8h-1.47zm.7-6.188a1.03 1.03 0 0 0 .77-.336c.224-.233.336-.574.336-1.022s-.108-.784-.322-1.008c-.215-.233-.476-.35-.784-.35-.299 0-.56.117-.784.35-.224.224-.336.56-.336 1.008s.107.789.322 1.022a1.09 1.09 0 0 0 .798.336zm5.754 6.356c-.439 0-.836-.098-1.19-.294-.346-.196-.621-.471-.826-.826-.206-.364-.308-.798-.308-1.302 0-.495.102-.924.308-1.288s.485-.644.84-.84.751-.294 1.19-.294c.429 0 .816.098 1.162.294.354.196.634.476.84.84s.308.793.308 1.288c0 .504-.103.938-.308 1.302a2.17 2.17 0 0 1-.84.826c-.346.196-.738.294-1.176.294zm0-1.078a1.03 1.03 0 0 0 .77-.336c.224-.224.336-.56.336-1.008s-.108-.784-.322-1.008c-.215-.233-.476-.35-.784-.35-.299 0-.56.117-.784.35-.224.224-.336.56-.336 1.008s.107.784.322 1.008a1.09 1.09 0 0 0 .798.336z" fill="#fff"/><path d="M69 51a1 1 0 1 0-2 0h2zm23.707 24.707a1 1 0 0 0 0-1.414l-6.364-6.364a1 1 0 0 0-1.414 1.414L90.586 75l-5.657 5.657a1 1 0 0 0 1.414 1.414l6.364-6.364zM67 51c0 8.67 1.728 14.999 5.864 19.136S83.33 76 92 76v-2c-8.473 0-14.144-1.701-17.722-5.278S69 59.473 69 51h-2z" fill="#adadad"/><defs><radialGradient id="A" cx="0" cy="0" r="1" gradientUnits="userSpaceOnUse" gradientTransform="translate(141 72) rotate(90) scale(72 141)"><stop stop-color="#fff" stop-opacity=".15"/><stop offset="1" stop-color="#fff" stop-opacity="0"/></radialGradient></defs></svg>