<svg xmlns="http://www.w3.org/2000/svg" width="488" height="320" fill="none"><style><![CDATA[.B{fill:#fff}.C{fill:#6ece9d}.D{stroke-miterlimit:10}.E{stroke-linecap:round}.F{stroke-linejoin:round}.G{stroke:#adadad}.H{stroke-width:2}.I{stroke-opacity:.8}]]></style><g clip-path="url(#A)"><g clip-path="url(#B)"><g class="B"><path d="M0 68c0-6.627 5.373-12 12-12h464c6.627 0 12 5.373 12 12v252H0V68z" fill-opacity=".04"/><path d="M36.416 317.648l4-13.984h1.664l-4.016 13.984h-1.648zm9.84-1.456c-1.003 0-1.829-.245-2.48-.736s-1.024-1.141-1.12-1.952h1.712c.085.363.288.677.608.944.32.256.741.384 1.264.384.512 0 .885-.107 1.12-.32s.352-.459.352-.736c0-.405-.165-.677-.496-.816-.32-.149-.768-.283-1.344-.4-.448-.096-.896-.224-1.344-.384a3.1 3.1 0 0 1-1.104-.672c-.288-.299-.432-.699-.432-1.2 0-.693.267-1.269.8-1.728.533-.469 1.28-.704 2.24-.704.885 0 1.6.213 2.144.64.555.427.88 1.029.976 1.808H47.52c-.053-.341-.213-.608-.48-.8-.256-.192-.603-.288-1.04-.288-.427 0-.757.091-.992.272-.235.171-.352.395-.352.672s.16.496.48.656c.331.16.763.304 1.296.432a12.07 12.07 0 0 1 1.472.416c.459.149.827.373 1.104.672s.416.736.416 1.312a2.21 2.21 0 0 1-.848 1.808c-.565.48-1.339.72-2.32.72zm5.98-9.632a1.15 1.15 0 0 1-.8-.288 1.02 1.02 0 0 1-.304-.752c0-.299.101-.544.304-.736.213-.203.48-.304.8-.304a1.06 1.06 0 0 1 .784.304c.213.192.32.437.32.736s-.107.549-.32.752c-.203.192-.464.288-.784.288zm-.848 9.44v-7.936h1.696V316h-1.696zm8.063 3.712c-.683 0-1.323-.117-1.92-.352a3.66 3.66 0 0 1-1.488-1.04c-.405-.459-.661-1.035-.768-1.728h1.68a2.09 2.09 0 0 0 .864 1.2c.448.299.987.448 1.616.448a2.52 2.52 0 0 0 1.76-.672c.491-.437.736-1.099.736-1.984v-1.072c-.245.416-.613.784-1.104 1.104-.48.32-1.083.48-1.808.48a3.98 3.98 0 0 1-2.032-.528c-.597-.363-1.072-.853-1.424-1.472-.352-.629-.528-1.333-.528-2.112 0-.789.176-1.493.528-2.112s.827-1.104 1.424-1.456c.608-.363 1.291-.544 2.048-.544.651 0 1.227.144 1.728.432.501.277.891.624 1.168 1.04l.16-1.28h1.536v7.456c0 .896-.187 1.653-.56 2.272-.363.629-.859 1.104-1.488 1.424-.629.331-1.339.496-2.128.496zm-.128-5.072c.501 0 .944-.112 1.328-.336a2.58 2.58 0 0 0 .912-.944c.224-.405.336-.864.336-1.376 0-.523-.112-.981-.336-1.376s-.528-.704-.912-.928-.827-.336-1.328-.336c-.491 0-.928.112-1.312.336s-.688.533-.912.928-.336.853-.336 1.376c0 .512.112.971.336 1.376a2.58 2.58 0 0 0 .912.944c.384.224.821.336 1.312.336zm6.453 1.36v-7.936h1.504l.128 1.392a2.72 2.72 0 0 1 1.072-1.152 3.14 3.14 0 0 1 1.648-.432c.96 0 1.712.299 2.256.896.555.597.832 1.488.832 2.672V316h-1.68v-4.384c0-1.536-.629-2.304-1.888-2.304-.629 0-1.152.224-1.568.672-.405.448-.608 1.088-.608 1.92V316h-1.696zm12.366.192c-.96 0-1.717-.299-2.272-.896-.544-.597-.816-1.488-.816-2.672v-4.56h1.696v4.384c0 1.536.629 2.304 1.888 2.304.629 0 1.147-.224 1.552-.672s.608-1.088.608-1.92v-4.096h1.696V316H80.99l-.128-1.392c-.245.491-.608.88-1.088 1.168-.469.277-1.013.416-1.632.416zm6.509 3.328v-11.456h1.52l.176 1.232c.256-.373.608-.704 1.056-.992s1.024-.432 1.728-.432c.768 0 1.445.181 2.032.544s1.045.859 1.376 1.488c.341.629.512 1.344.512 2.144s-.171 1.515-.512 2.144c-.331.619-.789 1.109-1.376 1.472-.587.352-1.269.528-2.048.528-.619 0-1.168-.123-1.648-.368a2.84 2.84 0 0 1-1.12-1.04v4.736H84.65zm4.176-4.8c.725 0 1.323-.245 1.792-.736.469-.501.704-1.152.704-1.952 0-.523-.107-.987-.32-1.392s-.507-.72-.88-.944a2.38 2.38 0 0 0-1.296-.352c-.725 0-1.323.251-1.792.752-.459.501-.688 1.147-.688 1.936 0 .8.229 1.451.688 1.952.469.491 1.067.736 1.792.736zM431.288 316v-9.28l-1.808.416v-1.248l2.48-1.088h1.088V316h-1.76zm7.62.192c-.726 0-1.387-.128-1.984-.384a3.28 3.28 0 0 1-1.408-1.2c-.352-.533-.539-1.2-.56-2h1.68c.021.597.224 1.104.608 1.52.394.405.949.608 1.664.608.682 0 1.205-.187 1.568-.56.362-.384.544-.859.544-1.424 0-.683-.246-1.189-.736-1.52-.48-.331-1.072-.496-1.776-.496h-.832v-1.408h.848c.629 0 1.136-.149 1.52-.448.394-.299.592-.72.592-1.264a1.46 1.46 0 0 0-.464-1.12c-.299-.288-.726-.432-1.281-.432-.575 0-1.029.171-1.359.512-.331.331-.512.747-.544 1.248h-1.68c.021-.651.181-1.216.48-1.696.309-.48.73-.853 1.264-1.12s1.146-.4 1.839-.4c.747 0 1.371.133 1.873.4.512.256.896.608 1.152 1.056.266.437.4.917.4 1.44 0 .597-.166 1.12-.496 1.568s-.774.747-1.328.896c.64.139 1.168.453 1.584.944.416.48.624 1.104.624 1.872a3.48 3.48 0 0 1-.433 1.712c-.287.512-.714.923-1.279 1.232s-1.259.464-2.08.464zm6.465-.192l4.336-9.744h-5.824V304.8h7.568v1.232L447.149 316h-1.776zM36.416 273.648l4-13.984h1.664l-4.016 13.984h-1.648zM43.572 272v-11.52h1.696V272h-1.696zm7.556.192c-.757 0-1.44-.171-2.048-.512-.597-.352-1.072-.837-1.424-1.456-.352-.629-.528-1.36-.528-2.192s.176-1.557.528-2.176a3.82 3.82 0 0 1 1.456-1.456 3.98 3.98 0 0 1 2.032-.528c.757 0 1.435.176 2.032.528.608.341 1.088.827 1.44 1.456.363.619.544 1.344.544 2.176s-.181 1.563-.544 2.192a3.85 3.85 0 0 1-1.44 1.456c-.608.341-1.291.512-2.048.512zm0-1.456a2.15 2.15 0 0 0 1.12-.304 2.22 2.22 0 0 0 .848-.896c.213-.405.32-.907.32-1.504s-.107-1.093-.32-1.488c-.203-.405-.48-.709-.832-.912a2.15 2.15 0 0 0-1.12-.304c-.405 0-.784.101-1.136.304-.341.203-.619.507-.832.912-.213.395-.32.891-.32 1.488s.107 1.099.32 1.504a2.26 2.26 0 0 0 .832.896 2.15 2.15 0 0 0 1.12.304zm9.994 4.976c-.683 0-1.323-.117-1.92-.352a3.66 3.66 0 0 1-1.488-1.04c-.405-.459-.661-1.035-.768-1.728h1.68a2.09 2.09 0 0 0 .864 1.2c.448.299.987.448 1.616.448a2.52 2.52 0 0 0 1.76-.672c.491-.437.736-1.099.736-1.984v-1.072c-.245.416-.613.784-1.104 1.104-.48.32-1.083.48-1.808.48a3.98 3.98 0 0 1-2.032-.528 4.01 4.01 0 0 1-1.424-1.472c-.352-.629-.528-1.333-.528-2.112 0-.789.176-1.493.528-2.112s.827-1.104 1.424-1.456c.608-.363 1.291-.544 2.048-.544.651 0 1.227.144 1.728.432.501.277.891.624 1.168 1.04l.16-1.28h1.536v7.456c0 .896-.187 1.653-.56 2.272-.363.629-.859 1.104-1.488 1.424-.629.331-1.339.496-2.128.496zm-.128-5.072c.501 0 .944-.112 1.328-.336a2.58 2.58 0 0 0 .912-.944c.224-.405.336-.864.336-1.376 0-.523-.112-.981-.336-1.376s-.528-.704-.912-.928-.827-.336-1.328-.336c-.491 0-.928.112-1.312.336s-.688.533-.912.928-.336.853-.336 1.376c0 .512.112.971.336 1.376a2.58 2.58 0 0 0 .912.944c.384.224.821.336 1.312.336zm7.413-8.08a1.15 1.15 0 0 1-.8-.288 1.02 1.02 0 0 1-.304-.752c0-.299.101-.544.304-.736.213-.203.48-.304.8-.304a1.06 1.06 0 0 1 .784.304c.213.192.32.437.32.736s-.107.549-.32.752c-.203.192-.464.288-.784.288zm-.848 9.44v-7.936h1.696V272h-1.696zm3.935 0v-7.936h1.504l.128 1.392a2.72 2.72 0 0 1 1.072-1.152 3.14 3.14 0 0 1 1.648-.432c.96 0 1.712.299 2.256.896.555.597.832 1.488.832 2.672V272h-1.68v-4.384c0-1.536-.629-2.304-1.888-2.304-.629 0-1.152.224-1.568.672-.405.448-.608 1.088-.608 1.92V272h-1.696z"/></g><rect x="24" y="283" width="100.66" height="2" rx="1" class="C"/><g class="B"><path d="M428.811 272.192c-.822 0-1.515-.155-2.08-.464a3.93 3.93 0 0 1-1.376-1.232c-.342-.512-.587-1.088-.737-1.728a8.65 8.65 0 0 1-.223-1.968c0-1.237.17-2.32.512-3.248.352-.928.853-1.648 1.504-2.16.65-.523 1.44-.784 2.368-.784.736 0 1.365.144 1.888.432a3.17 3.17 0 0 1 1.216 1.152c.298.48.48 1.003.544 1.568h-1.584c-.096-.555-.326-.981-.688-1.28s-.827-.448-1.392-.448c-.779 0-1.424.368-1.936 1.104-.502.725-.768 1.845-.8 3.36.256-.469.65-.869 1.184-1.2.544-.331 1.168-.496 1.872-.496.629 0 1.216.149 1.76.448.554.299 1.002.72 1.344 1.264.352.533.528 1.168.528 1.904a3.73 3.73 0 0 1-.48 1.84c-.32.576-.774 1.045-1.36 1.408-.576.352-1.264.528-2.064.528zm-.096-1.472c.448 0 .848-.096 1.2-.288a2.18 2.18 0 0 0 .832-.784c.202-.341.304-.725.304-1.152 0-.683-.224-1.227-.672-1.632-.438-.405-.998-.608-1.68-.608-.448 0-.854.101-1.216.304a2.26 2.26 0 0 0-.832.816 2.07 2.07 0 0 0-.304 1.104 2.24 2.24 0 0 0 .304 1.168 2.3 2.3 0 0 0 .848.784c.362.192.768.288 1.216.288zm5.572 1.28v-1.216l2.08-1.744a22.85 22.85 0 0 0 1.76-1.728c.523-.576.933-1.136 1.232-1.68.299-.555.448-1.088.448-1.6a2.61 2.61 0 0 0-.176-.96c-.117-.309-.309-.555-.576-.736-.267-.192-.624-.288-1.072-.288-.672 0-1.179.213-1.52.64-.331.427-.491.939-.48 1.536h-1.648c.011-.789.176-1.451.496-1.984a3.27 3.27 0 0 1 1.312-1.216c.555-.277 1.179-.416 1.872-.416 1.056 0 1.899.299 2.528.896.64.587.96 1.408.96 2.464 0 .629-.155 1.253-.464 1.872a8.39 8.39 0 0 1-1.184 1.792 16.85 16.85 0 0 1-1.552 1.6l-1.584 1.36h5.12V272h-7.552zm12.964.192c-.725 0-1.386-.128-1.984-.384-.586-.267-1.056-.667-1.408-1.2s-.538-1.2-.56-2h1.68c.022.597.224 1.104.608 1.52.395.405.95.608 1.664.608.683 0 1.206-.187 1.568-.56.363-.384.544-.859.544-1.424 0-.683-.245-1.189-.736-1.52-.48-.331-1.072-.496-1.776-.496h-.832v-1.408h.848c.63 0 1.136-.149 1.52-.448.395-.299.592-.72.592-1.264 0-.459-.154-.832-.464-1.12-.298-.288-.725-.432-1.28-.432-.576 0-1.029.171-1.36.512-.33.331-.512.747-.544 1.248h-1.68c.022-.651.182-1.216.48-1.696a3.15 3.15 0 0 1 1.264-1.12c.534-.267 1.147-.4 1.84-.4.747 0 1.371.133 1.872.4.512.256.896.608 1.152 1.056a2.71 2.71 0 0 1 .4 1.44c0 .597-.165 1.12-.496 1.568a2.36 2.36 0 0 1-1.328.896c.64.139 1.168.453 1.584.944.416.48.624 1.104.624 1.872a3.49 3.49 0 0 1-.432 1.712c-.288.512-.714.923-1.28 1.232s-1.258.464-2.08.464zM36.416 229.648l4-13.984h1.664l-4.016 13.984h-1.648zm11.62-1.456c-.619 0-1.168-.123-1.648-.368a2.84 2.84 0 0 1-1.12-1.04L45.092 228h-1.52v-11.52h1.696v4.816c.256-.373.608-.704 1.056-.992s1.024-.432 1.728-.432c.768 0 1.445.181 2.032.544s1.045.859 1.376 1.488c.341.629.512 1.344.512 2.144s-.171 1.515-.512 2.144c-.331.619-.789 1.109-1.376 1.472-.587.352-1.269.528-2.048.528zm-.288-1.472c.725 0 1.323-.245 1.792-.736.469-.501.704-1.152.704-1.952 0-.523-.107-.987-.32-1.392s-.507-.72-.88-.944a2.38 2.38 0 0 0-1.296-.352c-.725 0-1.323.251-1.792.752-.459.501-.688 1.147-.688 1.936 0 .8.229 1.451.688 1.952.469.491 1.067.736 1.792.736zm6.058 1.28v-11.52h1.696V228h-1.696zm7.556.192c-.757 0-1.44-.171-2.048-.512-.597-.352-1.072-.837-1.424-1.456-.352-.629-.528-1.36-.528-2.192s.176-1.557.528-2.176a3.82 3.82 0 0 1 1.456-1.456 3.98 3.98 0 0 1 2.032-.528c.757 0 1.435.176 2.032.528.608.341 1.088.827 1.44 1.456.363.619.544 1.344.544 2.176s-.181 1.563-.544 2.192a3.85 3.85 0 0 1-1.44 1.456c-.608.341-1.291.512-2.048.512zm0-1.456a2.15 2.15 0 0 0 1.12-.304 2.22 2.22 0 0 0 .848-.896c.213-.405.32-.907.32-1.504s-.107-1.093-.32-1.488c-.203-.405-.48-.709-.832-.912a2.15 2.15 0 0 0-1.12-.304c-.405 0-.784.101-1.136.304-.341.203-.619.507-.832.912-.213.395-.32.891-.32 1.488s.107 1.099.32 1.504a2.26 2.26 0 0 0 .832.896 2.15 2.15 0 0 0 1.12.304zm9.994 4.976c-.683 0-1.323-.117-1.92-.352a3.66 3.66 0 0 1-1.488-1.04c-.405-.459-.661-1.035-.768-1.728h1.68a2.09 2.09 0 0 0 .864 1.2c.448.299.987.448 1.616.448a2.52 2.52 0 0 0 1.76-.672c.491-.437.736-1.099.736-1.984v-1.072c-.245.416-.613.784-1.104 1.104-.48.32-1.083.48-1.808.48a3.98 3.98 0 0 1-2.032-.528 4.01 4.01 0 0 1-1.424-1.472c-.352-.629-.528-1.333-.528-2.112 0-.789.176-1.493.528-2.112s.827-1.104 1.424-1.456c.608-.363 1.291-.544 2.048-.544.651 0 1.227.144 1.728.432.501.277.891.624 1.168 1.04l.16-1.28h1.536v7.456c0 .896-.187 1.653-.56 2.272-.363.629-.859 1.104-1.488 1.424-.629.331-1.339.496-2.128.496zm-.128-5.072c.501 0 .944-.112 1.328-.336a2.58 2.58 0 0 0 .912-.944c.224-.405.336-.864.336-1.376 0-.523-.112-.981-.336-1.376s-.528-.704-.912-.928-.827-.336-1.328-.336c-.491 0-.928.112-1.312.336s-.688.533-.912.928-.336.853-.336 1.376c0 .512.112.971.336 1.376a2.58 2.58 0 0 0 .912.944c.384.224.821.336 1.312.336z"/></g><rect x="24" y="239" width="124.309" height="2" rx="1" class="C"/><g class="B"><path d="M427.429 228v-9.28l-1.808.416v-1.248l2.48-1.088h1.088V228h-1.76zm4.643.096c-.32 0-.587-.101-.8-.304-.203-.213-.304-.464-.304-.752a1.02 1.02 0 0 1 .304-.752c.213-.213.48-.32.8-.32s.581.107.784.32a1.02 1.02 0 0 1 .304.752c0 .288-.101.539-.304.752a1.06 1.06 0 0 1-.784.304zm6.489.096c-.822 0-1.515-.155-2.08-.464a3.93 3.93 0 0 1-1.376-1.232c-.342-.512-.587-1.088-.737-1.728a8.65 8.65 0 0 1-.223-1.968c0-1.237.17-2.32.512-3.248.352-.928.853-1.648 1.504-2.16.65-.523 1.44-.784 2.368-.784.736 0 1.365.144 1.888.432a3.17 3.17 0 0 1 1.216 1.152c.298.48.48 1.003.544 1.568h-1.584c-.096-.555-.326-.981-.688-1.28s-.827-.448-1.392-.448c-.779 0-1.424.368-1.936 1.104-.502.725-.768 1.845-.8 3.36.256-.469.65-.869 1.184-1.2.544-.331 1.168-.496 1.872-.496.629 0 1.216.149 1.76.448.554.299 1.002.72 1.344 1.264.352.533.528 1.168.528 1.904a3.73 3.73 0 0 1-.48 1.84c-.32.576-.774 1.045-1.36 1.408-.576.352-1.264.528-2.064.528zm-.096-1.472c.448 0 .848-.096 1.2-.288a2.18 2.18 0 0 0 .832-.784c.202-.341.304-.725.304-1.152 0-.683-.224-1.227-.672-1.632-.438-.405-.998-.608-1.68-.608-.448 0-.854.101-1.216.304a2.26 2.26 0 0 0-.832.816 2.07 2.07 0 0 0-.304 1.104 2.24 2.24 0 0 0 .304 1.168 2.3 2.3 0 0 0 .848.784c.362.192.768.288 1.216.288zm6.029 1.28v-11.52h1.696v6.864l3.04-3.28h2.032l-3.376 3.6 3.872 4.336h-2.144l-3.424-4.064V228h-1.696zM36.416 185.648l4-13.984h1.664l-4.016 13.984h-1.648zm7.156 1.872v-11.456h1.52l.176 1.232c.256-.373.608-.704 1.056-.992s1.024-.432 1.728-.432c.768 0 1.445.181 2.032.544s1.045.859 1.376 1.488c.341.629.512 1.344.512 2.144s-.171 1.515-.512 2.144c-.331.619-.789 1.109-1.376 1.472-.587.352-1.269.528-2.048.528-.619 0-1.168-.123-1.648-.368a2.84 2.84 0 0 1-1.12-1.04v4.736h-1.696zm4.176-4.8c.725 0 1.323-.245 1.792-.736.469-.501.704-1.152.704-1.952 0-.523-.107-.987-.32-1.392s-.507-.72-.88-.944a2.38 2.38 0 0 0-1.296-.352c-.725 0-1.323.251-1.792.752-.459.501-.688 1.147-.688 1.936 0 .8.229 1.451.688 1.952.469.491 1.067.736 1.792.736zm6.058 1.28v-7.936h1.52l.144 1.504c.277-.523.661-.933 1.152-1.232.501-.309 1.104-.464 1.808-.464v1.776h-.464a3.18 3.18 0 0 0-1.264.24c-.363.149-.656.411-.88.784-.213.363-.32.869-.32 1.52V184h-1.696zm7.038-9.44a1.15 1.15 0 0 1-.8-.288 1.02 1.02 0 0 1-.304-.752c0-.299.101-.544.304-.736.213-.203.48-.304.8-.304a1.06 1.06 0 0 1 .784.304c.213.192.32.437.32.736s-.107.549-.32.752c-.203.192-.464.288-.784.288zm-.848 9.44v-7.936h1.696V184h-1.696zm7.695.192c-.779 0-1.477-.176-2.096-.528a3.85 3.85 0 0 1-1.44-1.456c-.341-.629-.512-1.355-.512-2.176s.171-1.541.512-2.16c.352-.629.832-1.12 1.44-1.472.619-.352 1.317-.528 2.096-.528.981 0 1.803.256 2.464.768.672.512 1.104 1.205 1.296 2.08h-1.776a1.67 1.67 0 0 0-.704-1.024c-.363-.245-.789-.368-1.28-.368-.416 0-.8.107-1.152.32-.352.203-.635.507-.848.912-.213.395-.32.885-.32 1.472s.107 1.083.32 1.488a2.33 2.33 0 0 0 .848.912c.352.213.736.32 1.152.32.491 0 .917-.123 1.28-.368s.597-.592.704-1.04h1.776c-.181.853-.608 1.541-1.28 2.064s-1.499.784-2.48.784zm6.559-9.632a1.15 1.15 0 0 1-.8-.288 1.02 1.02 0 0 1-.304-.752c0-.299.101-.544.304-.736.213-.203.48-.304.8-.304a1.06 1.06 0 0 1 .784.304c.213.192.32.437.32.736s-.107.549-.32.752c-.203.192-.464.288-.784.288zm-.848 9.44v-7.936h1.696V184h-1.696zm3.935 0v-7.936h1.504l.128 1.392a2.72 2.72 0 0 1 1.072-1.152 3.14 3.14 0 0 1 1.648-.432c.96 0 1.712.299 2.256.896.555.597.832 1.488.832 2.672V184h-1.68v-4.384c0-1.536-.629-2.304-1.888-2.304-.629 0-1.152.224-1.568.672-.405.448-.608 1.088-.608 1.92V184h-1.696zm13.566 3.712c-.683 0-1.323-.117-1.92-.352a3.66 3.66 0 0 1-1.488-1.04c-.405-.459-.661-1.035-.768-1.728h1.68a2.09 2.09 0 0 0 .864 1.2c.448.299.987.448 1.616.448a2.52 2.52 0 0 0 1.76-.672c.491-.437.736-1.099.736-1.984v-1.072c-.245.416-.613.784-1.104 1.104-.48.32-1.083.48-1.808.48a3.98 3.98 0 0 1-2.032-.528c-.597-.363-1.072-.853-1.424-1.472-.352-.629-.528-1.333-.528-2.112 0-.789.176-1.493.528-2.112s.827-1.104 1.424-1.456c.608-.363 1.291-.544 2.048-.544.651 0 1.227.144 1.728.432.501.277.891.624 1.168 1.04l.16-1.28h1.536v7.456c0 .896-.187 1.653-.56 2.272-.363.629-.859 1.104-1.488 1.424-.629.331-1.339.496-2.128.496zm-.128-5.072c.501 0 .944-.112 1.328-.336a2.58 2.58 0 0 0 .912-.944c.224-.405.336-.864.336-1.376 0-.523-.112-.981-.336-1.376s-.528-.704-.912-.928-.827-.336-1.328-.336c-.491 0-.928.112-1.312.336s-.688.533-.912.928-.336.853-.336 1.376c0 .512.112.971.336 1.376a2.58 2.58 0 0 0 .912.944c.384.224.821.336 1.312.336z"/></g><rect x="24" y="195" width="138.019" height="2" rx="1" class="C"/><g class="B"><path d="M428.429 184v-9.28l-1.808.416v-1.248l2.48-1.088h1.088V184h-1.76zm4.643.096c-.32 0-.587-.101-.8-.304-.203-.213-.304-.464-.304-.752a1.02 1.02 0 0 1 .304-.752c.213-.213.48-.32.8-.32s.581.107.784.32a1.02 1.02 0 0 1 .304.752c0 .288-.101.539-.304.752a1.06 1.06 0 0 1-.784.304zm6.137.096c-.736 0-1.366-.144-1.888-.432a3.28 3.28 0 0 1-1.232-1.152c-.288-.48-.464-1.003-.528-1.568h1.584c.096.555.325.981.688 1.28s.826.448 1.392.448c.778 0 1.418-.363 1.92-1.088.512-.736.784-1.861.816-3.376-.256.469-.656.869-1.2 1.2-.534.331-1.152.496-1.856.496a3.68 3.68 0 0 1-1.776-.448c-.555-.299-1.003-.715-1.344-1.248-.342-.544-.512-1.184-.512-1.92a3.73 3.73 0 0 1 .48-1.84c.32-.576.768-1.04 1.344-1.392.586-.363 1.28-.544 2.08-.544.821 0 1.514.155 2.08.464s1.018.72 1.36 1.232.586 1.088.735 1.728c.161.64.241 1.296.241 1.968 0 1.237-.176 2.32-.528 3.248-.342.928-.838 1.653-1.488 2.176-.651.512-1.44.768-2.368.768zm.08-5.648c.448 0 .848-.101 1.2-.304s.629-.469.832-.8c.213-.341.32-.715.32-1.12 0-.437-.107-.821-.32-1.152-.203-.341-.486-.608-.848-.8-.352-.192-.752-.288-1.2-.288s-.848.096-1.2.288a2.26 2.26 0 0 0-.848.8c-.203.331-.304.709-.304 1.136 0 .683.224 1.227.672 1.632s1.013.608 1.696.608zm6.205 5.456v-11.52h1.696v6.864l3.04-3.28h2.032l-3.376 3.6 3.872 4.336h-2.144l-3.424-4.064V184h-1.696zM36.416 141.648l4-13.984h1.664l-4.016 13.984h-1.648z"/></g><rect x="24" y="151" width="311.219" height="2" rx="1" class="C"/><path d="M426.365 140v-2.24h-5.616v-1.344l5.344-7.616h1.952v7.488h1.568v1.472h-1.568V140h-1.68zm-3.776-3.712h3.872v-5.616l-3.872 5.616zm9.249 3.808c-.32 0-.587-.101-.8-.304-.203-.213-.304-.464-.304-.752a1.02 1.02 0 0 1 .304-.752c.213-.213.48-.32.8-.32s.581.107.784.32c.202.203.304.453.304.752a1.06 1.06 0 0 1-1.088 1.056zm6.765.096c-.79 0-1.472-.139-2.048-.416-.576-.288-1.035-.677-1.376-1.168-.331-.501-.534-1.067-.608-1.696h1.664c.106.533.373.976.8 1.328.426.341.954.512 1.584.512.469 0 .874-.112 1.216-.336a2.42 2.42 0 0 0 .8-.928c.192-.384.288-.816.288-1.296 0-.757-.214-1.36-.64-1.808-.427-.459-.966-.688-1.616-.688-.555 0-1.03.133-1.424.4a2.29 2.29 0 0 0-.864.976h-1.616l.96-6.272h6.048v1.488h-4.768l-.576 2.992c.245-.277.581-.507 1.008-.688.437-.192.928-.288 1.472-.288.757 0 1.408.176 1.952.528a3.35 3.35 0 0 1 1.248 1.392c.298.587.448 1.237.448 1.952 0 .747-.16 1.424-.48 2.032a3.69 3.69 0 0 1-1.376 1.456c-.587.352-1.286.528-2.096.528zm5.891-.192v-11.52h1.696v6.864l3.04-3.28h2.032l-3.376 3.6 3.872 4.336h-2.144l-3.424-4.064V140h-1.696z" class="B"/><g class="D E F G H"><path d="M460.667 84.333l-5 5m5-5h-5m5 0v5m-13.334 8.334l5-5m-5 5v-5m0 5h5"/></g><path d="M25.278 96V83.4h4.41c.984 0 1.8.168 2.448.504.648.324 1.128.774 1.44 1.35.324.564.486 1.206.486 1.926 0 .684-.156 1.314-.468 1.89-.3.564-.774 1.014-1.422 1.35s-1.476.504-2.484.504h-2.502V96h-1.908zm1.908-6.642h2.412c.9 0 1.542-.192 1.926-.576.396-.396.594-.93.594-1.602 0-.696-.198-1.236-.594-1.62-.384-.396-1.026-.594-1.926-.594h-2.412v4.392zm11.222 6.858c-.756 0-1.38-.126-1.872-.378s-.858-.582-1.098-.99a2.71 2.71 0 0 1-.36-1.368c0-.864.336-1.548 1.008-2.052s1.632-.756 2.88-.756h2.34v-.162c0-.696-.192-1.218-.576-1.566-.372-.348-.858-.522-1.458-.522-.528 0-.99.132-1.386.396-.384.252-.618.63-.702 1.134h-1.908c.06-.648.276-1.2.648-1.656.384-.468.864-.822 1.44-1.062.588-.252 1.23-.378 1.926-.378 1.248 0 2.214.33 2.898.99.684.648 1.026 1.536 1.026 2.664V96h-1.656l-.162-1.53c-.252.492-.618.906-1.098 1.242s-1.11.504-1.89.504zm.378-1.548c.516 0 .948-.12 1.296-.36.36-.252.636-.582.828-.99a3.82 3.82 0 0 0 .378-1.35h-2.124c-.756 0-1.296.132-1.62.396-.312.264-.468.594-.468.99 0 .408.15.732.45.972.312.228.732.342 1.26.342zm11.297 5.508c-.768 0-1.488-.132-2.16-.396-.66-.252-1.218-.642-1.674-1.17-.456-.516-.744-1.164-.864-1.944h1.89c.156.564.48 1.014.972 1.35.504.336 1.11.504 1.818.504.768 0 1.428-.252 1.98-.756.552-.492.828-1.236.828-2.232v-1.206c-.276.468-.69.882-1.242 1.242-.54.36-1.218.54-2.034.54-.84 0-1.602-.198-2.286-.594-.672-.408-1.206-.96-1.602-1.656-.396-.708-.594-1.5-.594-2.376 0-.888.198-1.68.594-2.376s.93-1.242 1.602-1.638c.684-.408 1.452-.612 2.304-.612.732 0 1.38.162 1.944.486.564.312 1.002.702 1.314 1.17l.18-1.44h1.728v8.388c0 1.008-.21 1.86-.63 2.556-.408.708-.966 1.242-1.674 1.602-.708.372-1.506.558-2.394.558zm-.144-5.706c.564 0 1.062-.126 1.494-.378.432-.264.774-.618 1.026-1.062.252-.456.378-.972.378-1.548 0-.588-.126-1.104-.378-1.548s-.594-.792-1.026-1.044-.93-.378-1.494-.378c-.552 0-1.044.126-1.476.378s-.774.6-1.026 1.044-.378.96-.378 1.548c0 .576.126 1.092.378 1.548.252.444.594.798 1.026 1.062.432.252.924.378 1.476.378zm11.436 1.746c-.876 0-1.656-.192-2.34-.576a4.24 4.24 0 0 1-1.584-1.638c-.384-.696-.576-1.506-.576-2.43 0-.936.186-1.758.558-2.466a4.21 4.21 0 0 1 1.584-1.656c.684-.396 1.476-.594 2.376-.594.876 0 1.638.198 2.286.594a4.07 4.07 0 0 1 1.512 1.548c.36.648.54 1.362.54 2.142l-.018.396-.018.45h-6.948c.06.864.342 1.524.846 1.98a2.65 2.65 0 0 0 1.782.666c.54 0 .99-.12 1.35-.36a2.27 2.27 0 0 0 .828-1.008h1.908c-.24.84-.72 1.542-1.44 2.106-.708.564-1.59.846-2.646.846zm0-7.794c-.636 0-1.2.192-1.692.576-.492.372-.792.936-.9 1.692h5.04c-.036-.696-.282-1.248-.738-1.656s-1.026-.612-1.71-.612zm9.9 7.794c-1.128 0-2.058-.276-2.79-.828a3.1 3.1 0 0 1-1.26-2.196h1.926c.096.408.324.762.684 1.062.36.288.834.432 1.422.432.576 0 .996-.12 1.26-.36s.396-.516.396-.828c0-.456-.186-.762-.558-.918-.36-.168-.864-.318-1.512-.45a11.92 11.92 0 0 1-1.512-.432c-.492-.18-.906-.432-1.242-.756-.324-.336-.486-.786-.486-1.35 0-.78.3-1.428.9-1.944.6-.528 1.44-.792 2.52-.792.996 0 1.8.24 2.412.72.624.48.99 1.158 1.098 2.034h-1.836a1.31 1.31 0 0 0-.54-.9c-.288-.216-.678-.324-1.17-.324-.48 0-.852.102-1.116.306-.264.192-.396.444-.396.756s.18.558.54.738c.372.18.858.342 1.458.486a13.65 13.65 0 0 1 1.656.468c.516.168.93.42 1.242.756s.468.828.468 1.476c.012.816-.306 1.494-.954 2.034-.636.54-1.506.81-2.61.81z" class="B"/><g fill="#adadad"><path d="M89.278 96V83.4h8.01v1.548h-6.102v3.924h5.562v1.512h-5.562v4.068h6.102V96h-8.01zm10.211 0v-8.928h1.692l.144 1.566c.276-.552.678-.984 1.206-1.296.54-.324 1.158-.486 1.854-.486 1.08 0 1.926.336 2.538 1.008.624.672.936 1.674.936 3.006V96h-1.89v-4.932c0-1.728-.708-2.592-2.124-2.592-.708 0-1.296.252-1.764.756-.456.504-.684 1.224-.684 2.16V96h-1.908zm14.361 0c-.876 0-1.572-.21-2.088-.63-.516-.432-.774-1.194-.774-2.286v-4.41h-1.53v-1.602h1.53l.234-2.268h1.674v2.268h2.52v1.602h-2.52v4.41c0 .492.102.834.306 1.026.216.18.582.27 1.098.27h1.026V96h-1.476zm3.534 0v-8.928h1.71l.162 1.692a3.52 3.52 0 0 1 1.296-1.386c.564-.348 1.242-.522 2.034-.522v1.998h-.522c-.528 0-1.002.09-1.422.27a2.06 2.06 0 0 0-.99.882c-.24.408-.36.978-.36 1.71V96h-1.908zm7.882 3.96l2.142-4.698h-.522l-3.528-8.19h2.07l2.736 6.606 2.862-6.606h2.016l-5.76 12.888h-2.016zM139.217 96V83.4h4.41c.984 0 1.8.168 2.448.504.648.324 1.128.774 1.44 1.35.324.564.486 1.206.486 1.926 0 .684-.156 1.314-.468 1.89-.3.564-.774 1.014-1.422 1.35s-1.476.504-2.484.504h-2.502V96h-1.908zm1.908-6.642h2.412c.9 0 1.542-.192 1.926-.576.396-.396.594-.93.594-1.602 0-.696-.198-1.236-.594-1.62-.384-.396-1.026-.594-1.926-.594h-2.412v4.392zm11.222 6.858c-.756 0-1.38-.126-1.872-.378s-.858-.582-1.098-.99a2.71 2.71 0 0 1-.36-1.368c0-.864.336-1.548 1.008-2.052s1.632-.756 2.88-.756h2.34v-.162c0-.696-.192-1.218-.576-1.566-.372-.348-.858-.522-1.458-.522-.528 0-.99.132-1.386.396-.384.252-.618.63-.702 1.134h-1.908c.06-.648.276-1.2.648-1.656.384-.468.864-.822 1.44-1.062.588-.252 1.23-.378 1.926-.378 1.248 0 2.214.33 2.898.99.684.648 1.026 1.536 1.026 2.664V96h-1.656l-.162-1.53c-.252.492-.618.906-1.098 1.242s-1.11.504-1.89.504zm.378-1.548c.516 0 .948-.12 1.296-.36.36-.252.636-.582.828-.99a3.82 3.82 0 0 0 .378-1.35h-2.124c-.756 0-1.296.132-1.62.396-.312.264-.468.594-.468.99 0 .408.15.732.45.972.312.228.732.342 1.26.342zm11.297 5.508c-.768 0-1.488-.132-2.16-.396-.66-.252-1.218-.642-1.674-1.17-.456-.516-.744-1.164-.864-1.944h1.89c.156.564.48 1.014.972 1.35.504.336 1.11.504 1.818.504.768 0 1.428-.252 1.98-.756.552-.492.828-1.236.828-2.232v-1.206c-.276.468-.69.882-1.242 1.242-.54.36-1.218.54-2.034.54-.84 0-1.602-.198-2.286-.594-.672-.408-1.206-.96-1.602-1.656-.396-.708-.594-1.5-.594-2.376 0-.888.198-1.68.594-2.376s.93-1.242 1.602-1.638c.684-.408 1.452-.612 2.304-.612.732 0 1.38.162 1.944.486.564.312 1.002.702 1.314 1.17l.18-1.44h1.728v8.388c0 1.008-.21 1.86-.63 2.556-.408.708-.966 1.242-1.674 1.602-.708.372-1.506.558-2.394.558zm-.144-5.706c.564 0 1.062-.126 1.494-.378.432-.264.774-.618 1.026-1.062.252-.456.378-.972.378-1.548 0-.588-.126-1.104-.378-1.548s-.594-.792-1.026-1.044-.93-.378-1.494-.378c-.552 0-1.044.126-1.476.378s-.774.6-1.026 1.044-.378.96-.378 1.548c0 .576.126 1.092.378 1.548.252.444.594.798 1.026 1.062.432.252.924.378 1.476.378zm11.436 1.746c-.876 0-1.656-.192-2.34-.576a4.24 4.24 0 0 1-1.584-1.638c-.384-.696-.576-1.506-.576-2.43 0-.936.186-1.758.558-2.466a4.21 4.21 0 0 1 1.584-1.656c.684-.396 1.476-.594 2.376-.594.876 0 1.638.198 2.286.594a4.07 4.07 0 0 1 1.512 1.548c.36.648.54 1.362.54 2.142l-.018.396-.018.45h-6.948c.06.864.342 1.524.846 1.98a2.65 2.65 0 0 0 1.782.666c.54 0 .99-.12 1.35-.36a2.27 2.27 0 0 0 .828-1.008h1.908c-.24.84-.72 1.542-1.44 2.106-.708.564-1.59.846-2.646.846zm0-7.794c-.636 0-1.2.192-1.692.576-.492.372-.792.936-.9 1.692h5.04c-.036-.696-.282-1.248-.738-1.656s-1.026-.612-1.71-.612zm9.899 7.794c-1.128 0-2.058-.276-2.79-.828a3.1 3.1 0 0 1-1.26-2.196h1.926c.096.408.324.762.684 1.062.36.288.834.432 1.422.432.576 0 .996-.12 1.26-.36s.396-.516.396-.828c0-.456-.186-.762-.558-.918-.36-.168-.864-.318-1.512-.45a11.92 11.92 0 0 1-1.512-.432c-.492-.18-.906-.432-1.242-.756-.324-.336-.486-.786-.486-1.35 0-.78.3-1.428.9-1.944.6-.528 1.44-.792 2.52-.792.996 0 1.8.24 2.412.72.624.48.99 1.158 1.098 2.034h-1.836a1.31 1.31 0 0 0-.54-.9c-.288-.216-.678-.324-1.17-.324-.48 0-.852.102-1.116.306-.264.192-.396.444-.396.756s.18.558.54.738c.372.18.858.342 1.458.486a13.65 13.65 0 0 1 1.656.468c.516.168.93.42 1.242.756s.468.828.468 1.476c.012.816-.306 1.494-.954 2.034-.636.54-1.506.81-2.61.81zM203.278 96V83.4h8.01v1.548h-6.102v3.924h5.562v1.512h-5.562v4.068h6.102V96h-8.01zm9.347 0l3.168-4.464-3.168-4.464h2.034l2.394 3.42 2.376-3.42h2.052l-3.168 4.464L221.481 96h-2.052l-2.376-3.42-2.394 3.42h-2.034zm11.489-10.62c-.36 0-.66-.108-.9-.324a1.15 1.15 0 0 1-.342-.846 1.09 1.09 0 0 1 .342-.828c.24-.228.54-.342.9-.342s.654.114.882.342c.24.216.36.492.36.828a1.12 1.12 0 0 1-.36.846c-.228.216-.522.324-.882.324zM223.16 96v-8.928h1.908V96h-1.908zm8.171 0c-.876 0-1.572-.21-2.088-.63-.516-.432-.774-1.194-.774-2.286v-4.41h-1.53v-1.602h1.53l.234-2.268h1.674v2.268h2.52v1.602h-2.52v4.41c0 .492.102.834.306 1.026.216.18.582.27 1.098.27h1.026V96h-1.476zm8.14 0V83.4h4.41c.984 0 1.8.168 2.448.504.648.324 1.128.774 1.44 1.35.324.564.486 1.206.486 1.926 0 .684-.156 1.314-.468 1.89-.3.564-.774 1.014-1.422 1.35s-1.476.504-2.484.504h-2.502V96h-1.908zm1.908-6.642h2.412c.9 0 1.542-.192 1.926-.576.396-.396.594-.93.594-1.602 0-.696-.198-1.236-.594-1.62-.384-.396-1.026-.594-1.926-.594h-2.412v4.392zm11.222 6.858c-.756 0-1.38-.126-1.872-.378s-.858-.582-1.098-.99a2.71 2.71 0 0 1-.36-1.368c0-.864.336-1.548 1.008-2.052s1.632-.756 2.88-.756h2.34v-.162c0-.696-.192-1.218-.576-1.566-.372-.348-.858-.522-1.458-.522-.528 0-.99.132-1.386.396-.384.252-.618.63-.702 1.134h-1.908c.06-.648.276-1.2.648-1.656.384-.468.864-.822 1.44-1.062.588-.252 1.23-.378 1.926-.378 1.248 0 2.214.33 2.898.99.684.648 1.026 1.536 1.026 2.664V96h-1.656l-.162-1.53c-.252.492-.618.906-1.098 1.242s-1.11.504-1.89.504zm.378-1.548c.516 0 .948-.12 1.296-.36.36-.252.636-.582.828-.99a3.82 3.82 0 0 0 .378-1.35h-2.124c-.756 0-1.296.132-1.62.396-.312.264-.468.594-.468.99 0 .408.15.732.45.972.312.228.732.342 1.26.342zm11.297 5.508c-.768 0-1.488-.132-2.16-.396-.66-.252-1.218-.642-1.674-1.17-.456-.516-.744-1.164-.864-1.944h1.89c.156.564.48 1.014.972 1.35.504.336 1.11.504 1.818.504.768 0 1.428-.252 1.98-.756.552-.492.828-1.236.828-2.232v-1.206c-.276.468-.69.882-1.242 1.242-.54.36-1.218.54-2.034.54-.84 0-1.602-.198-2.286-.594-.672-.408-1.206-.96-1.602-1.656-.396-.708-.594-1.5-.594-2.376 0-.888.198-1.68.594-2.376s.93-1.242 1.602-1.638c.684-.408 1.452-.612 2.304-.612.732 0 1.38.162 1.944.486.564.312 1.002.702 1.314 1.17l.18-1.44h1.728v8.388c0 1.008-.21 1.86-.63 2.556-.408.708-.966 1.242-1.674 1.602-.708.372-1.506.558-2.394.558zm-.144-5.706c.564 0 1.062-.126 1.494-.378.432-.264.774-.618 1.026-1.062.252-.456.378-.972.378-1.548 0-.588-.126-1.104-.378-1.548s-.594-.792-1.026-1.044-.93-.378-1.494-.378c-.552 0-1.044.126-1.476.378s-.774.6-1.026 1.044-.378.96-.378 1.548c0 .576.126 1.092.378 1.548.252.444.594.798 1.026 1.062.432.252.924.378 1.476.378zm11.436 1.746c-.876 0-1.656-.192-2.34-.576a4.24 4.24 0 0 1-1.584-1.638c-.384-.696-.576-1.506-.576-2.43 0-.936.186-1.758.558-2.466a4.21 4.21 0 0 1 1.584-1.656c.684-.396 1.476-.594 2.376-.594.876 0 1.638.198 2.286.594a4.07 4.07 0 0 1 1.512 1.548c.36.648.54 1.362.54 2.142l-.018.396-.018.45h-6.948c.06.864.342 1.524.846 1.98a2.65 2.65 0 0 0 1.782.666c.54 0 .99-.12 1.35-.36a2.27 2.27 0 0 0 .828-1.008h1.908c-.24.84-.72 1.542-1.44 2.106-.708.564-1.59.846-2.646.846zm0-7.794c-.636 0-1.2.192-1.692.576-.492.372-.792.936-.9 1.692h5.04c-.036-.696-.282-1.248-.738-1.656s-1.026-.612-1.71-.612zm9.899 7.794c-1.128 0-2.058-.276-2.79-.828a3.1 3.1 0 0 1-1.26-2.196h1.926c.096.408.324.762.684 1.062.36.288.834.432 1.422.432.576 0 .996-.12 1.26-.36s.396-.516.396-.828c0-.456-.186-.762-.558-.918-.36-.168-.864-.318-1.512-.45a11.92 11.92 0 0 1-1.512-.432c-.492-.18-.906-.432-1.242-.756-.324-.336-.486-.786-.486-1.35 0-.78.3-1.428.9-1.944.6-.528 1.44-.792 2.52-.792.996 0 1.8.24 2.412.72.624.48.99 1.158 1.098 2.034h-1.836a1.31 1.31 0 0 0-.54-.9c-.288-.216-.678-.324-1.17-.324-.48 0-.852.102-1.116.306-.264.192-.396.444-.396.756s.18.558.54.738c.372.18.858.342 1.458.486a13.65 13.65 0 0 1 1.656.468c.516.168.93.42 1.242.756s.468.828.468 1.476c.012.816-.306 1.494-.954 2.034-.636.54-1.506.81-2.61.81z"/></g></g><rect width="488" height="40" rx="6" class="C"/><path d="M28.5 28.5l-6.404-6.404m0 0A6.48 6.48 0 0 0 24 17.5a6.5 6.5 0 1 0-13 0 6.5 6.5 0 0 0 6.5 6.5 6.48 6.48 0 0 0 4.596-1.904z" stroke="#000" class="D E F H I"/><rect x="40" y="6" width="188" height="28" rx="6" fill="#141414" fill-opacity=".8"/><path d="M218 16l-8 8m8 0l-8-8" stroke-width="1.5" class="D E F G"/><path d="M54.128 25.192c-1.109 0-2.069-.24-2.88-.72-.8-.491-1.419-1.168-1.856-2.032-.437-.875-.656-1.883-.656-3.024 0-1.152.219-2.16.656-3.024.437-.875 1.056-1.557 1.856-2.048.811-.491 1.771-.736 2.88-.736 1.312 0 2.384.32 3.216.96s1.36 1.536 1.584 2.688H57.04c-.149-.651-.469-1.168-.96-1.552s-1.147-.576-1.968-.576c-1.12 0-2.005.384-2.656 1.152-.651.757-.976 1.803-.976 3.136 0 1.323.325 2.363.976 3.12s1.536 1.136 2.656 1.136c.821 0 1.477-.181 1.968-.544s.811-.859.96-1.488h1.888c-.224 1.109-.752 1.979-1.584 2.608s-1.904.944-3.216.944zm10.312 0c-.757 0-1.44-.171-2.048-.512-.597-.352-1.072-.837-1.424-1.456-.352-.629-.528-1.36-.528-2.192s.176-1.557.528-2.176c.363-.629.848-1.115 1.456-1.456.608-.352 1.285-.528 2.032-.528.757 0 1.435.176 2.032.528.608.341 1.088.827 1.44 1.456.363.619.544 1.344.544 2.176s-.181 1.563-.544 2.192a3.85 3.85 0 0 1-1.44 1.456c-.608.341-1.291.512-2.048.512zm0-1.456c.405 0 .779-.101 1.12-.304.352-.203.635-.501.848-.896.213-.405.32-.907.32-1.504s-.107-1.093-.32-1.488c-.203-.405-.48-.709-.832-.912-.341-.203-.715-.304-1.12-.304a2.24 2.24 0 0 0-1.136.304c-.341.203-.619.507-.832.912-.213.395-.32.891-.32 1.488s.107 1.099.32 1.504c.213.395.491.693.832.896s.715.304 1.12.304zm8.794 1.456c-.96 0-1.717-.299-2.272-.896-.544-.597-.816-1.488-.816-2.672v-4.56h1.696v4.384c0 1.536.629 2.304 1.888 2.304.629 0 1.147-.224 1.552-.672s.608-1.088.608-1.92v-4.096h1.696V25h-1.504l-.128-1.392a2.8 2.8 0 0 1-1.088 1.168c-.469.277-1.013.416-1.632.416zm6.51-.192v-7.936h1.504l.128 1.392c.245-.491.603-.875 1.072-1.152a3.14 3.14 0 0 1 1.648-.432c.96 0 1.712.299 2.256.896.555.597.832 1.488.832 2.672V25h-1.68v-4.384c0-1.536-.629-2.304-1.888-2.304-.629 0-1.152.224-1.568.672-.405.448-.608 1.088-.608 1.92V25h-1.696zm12.766 0c-.779 0-1.397-.187-1.856-.56-.459-.384-.688-1.061-.688-2.032v-3.92h-1.36v-1.424h1.36l.208-2.016h1.488v2.016h2.24v1.424h-2.24v3.92c0 .437.091.741.272.912.192.16.517.24.976.24h.912V25h-1.312zm3.141 0v-7.936h1.52l.144 1.504a3.13 3.13 0 0 1 1.152-1.232c.501-.309 1.104-.464 1.808-.464v1.776h-.464a3.18 3.18 0 0 0-1.264.24c-.363.149-.656.411-.88.784-.213.363-.32.869-.32 1.52V25H95.65zm7.006 3.52l1.904-4.176h-.464l-3.136-7.28h1.84l2.432 5.872 2.544-5.872h1.792l-5.12 11.456h-1.792zm33.532-3.328c-1.056 0-1.979-.24-2.768-.72s-1.403-1.152-1.84-2.016-.656-1.872-.656-3.024c0-1.141.224-2.149.672-3.024s1.082-1.557 1.904-2.048c.832-.501 1.813-.752 2.944-.752 1.28 0 2.346.309 3.2.928s1.408 1.472 1.664 2.56h-1.92c-.171-.597-.507-1.067-1.008-1.408s-1.147-.512-1.936-.512c-1.174 0-2.096.379-2.768 1.136s-1.008 1.803-1.008 3.136.33 2.373.992 3.12 1.541 1.12 2.64 1.12c1.109 0 1.941-.315 2.496-.944.565-.629.896-1.467.992-2.512h-3.04V18.92h4.752V25h-1.552l-.144-1.648c-.374.587-.843 1.04-1.408 1.36s-1.302.48-2.208.48zm11.018 0c-.779 0-1.472-.171-2.08-.512a3.77 3.77 0 0 1-1.408-1.456c-.341-.619-.512-1.339-.512-2.16 0-.832.165-1.563.496-2.192.341-.629.811-1.12 1.408-1.472.608-.352 1.312-.528 2.112-.528.779 0 1.456.176 2.032.528.576.341 1.024.8 1.344 1.376s.48 1.211.48 1.904l-.016.352-.016.4h-6.176c.053.768.304 1.355.752 1.76.459.395.987.592 1.584.592.48 0 .88-.107 1.2-.32.331-.224.576-.523.736-.896h1.696c-.213.747-.64 1.371-1.28 1.872-.629.501-1.413.752-2.352.752zm0-6.928c-.565 0-1.067.171-1.504.512-.437.331-.704.832-.8 1.504h4.48c-.032-.619-.251-1.109-.656-1.472s-.912-.544-1.52-.544zM152.838 25v-7.936h1.52l.144 1.504c.277-.523.661-.933 1.152-1.232.501-.309 1.104-.464 1.808-.464v1.776h-.464c-.47 0-.891.08-1.264.24-.363.149-.656.411-.88.784-.214.363-.32.869-.32 1.52V25h-1.696zm6.078 0v-7.936h1.504l.144 1.12c.256-.405.592-.725 1.008-.96.426-.235.917-.352 1.472-.352 1.258 0 2.133.496 2.624 1.488.288-.459.672-.821 1.152-1.088a3.26 3.26 0 0 1 1.584-.4c.992 0 1.77.299 2.336.896s.848 1.488.848 2.672V25h-1.696v-4.384c0-1.536-.587-2.304-1.76-2.304a1.85 1.85 0 0 0-1.472.672c-.374.448-.56 1.088-.56 1.92V25h-1.696v-4.384c0-1.536-.592-2.304-1.776-2.304-.587 0-1.072.224-1.456.672-.374.448-.56 1.088-.56 1.92V25h-1.696zm17.344.192c-.672 0-1.227-.112-1.664-.336s-.763-.517-.976-.88c-.213-.373-.32-.779-.32-1.216 0-.768.299-1.376.896-1.824s1.451-.672 2.56-.672h2.08v-.144c0-.619-.171-1.083-.512-1.392-.331-.309-.763-.464-1.296-.464-.469 0-.88.117-1.232.352-.341.224-.549.56-.624 1.008h-1.696c.053-.576.245-1.067.576-1.472.341-.416.768-.731 1.28-.944a4.3 4.3 0 0 1 1.712-.336c1.109 0 1.968.293 2.576.88.608.576.912 1.365.912 2.368V25h-1.472l-.144-1.36c-.224.437-.549.805-.976 1.104s-.987.448-1.68.448zm.336-1.376c.459 0 .843-.107 1.152-.32.32-.224.565-.517.736-.88a3.41 3.41 0 0 0 .336-1.2h-1.888c-.672 0-1.152.117-1.44.352-.277.235-.416.528-.416.88 0 .363.133.651.4.864.277.203.651.304 1.12.304zM182.51 25v-7.936h1.504l.128 1.392a2.72 2.72 0 0 1 1.072-1.152c.48-.288 1.029-.432 1.648-.432.96 0 1.712.299 2.256.896.554.597.832 1.488.832 2.672V25h-1.68v-4.384c0-1.536-.63-2.304-1.888-2.304-.63 0-1.152.224-1.568.672-.406.448-.608 1.088-.608 1.92V25h-1.696zm10.115 3.52l1.904-4.176h-.464l-3.136-7.28h1.84l2.432 5.872 2.544-5.872h1.792l-5.12 11.456h-1.792z" class="B"/><path d="M115.954 15.56a1.15 1.15 0 0 1-.8-.288 1.02 1.02 0 0 1-.304-.752c0-.299.101-.544.304-.736.213-.203.48-.304.8-.304s.581.101.784.304c.213.192.32.437.32.736s-.107.549-.32.752c-.203.192-.464.288-.784.288zm-.848 9.44v-7.936h1.696V25h-1.696zm7.103.192c-1.003 0-1.83-.245-2.48-.736s-1.024-1.141-1.12-1.952h1.712c.085.363.288.677.608.944.32.256.741.384 1.264.384.512 0 .885-.107 1.12-.32s.352-.459.352-.736c0-.405-.166-.677-.496-.816-.32-.149-.768-.283-1.344-.4-.448-.096-.896-.224-1.344-.384-.438-.16-.806-.384-1.104-.672-.288-.299-.432-.699-.432-1.2a2.18 2.18 0 0 1 .8-1.728c.533-.469 1.28-.704 2.24-.704.885 0 1.6.213 2.144.64.554.427.88 1.029.976 1.808h-1.632a1.17 1.17 0 0 0-.48-.8c-.256-.192-.603-.288-1.04-.288-.427 0-.758.091-.992.272-.235.171-.352.395-.352.672s.16.496.48.656c.33.16.762.304 1.296.432.533.117 1.024.256 1.472.416.458.149.826.373 1.104.672s.416.736.416 1.312a2.21 2.21 0 0 1-.848 1.808c-.566.48-1.339.72-2.32.72z" class="C"/><rect x="234" y="6" width="198" height="28" rx="6" fill="#141414" fill-opacity=".8"/><path d="M422 16l-8 8m8 0l-8-8" stroke-width="1.5" class="D E F G"/><path d="M243.136 25V13.8h4.224c1.163 0 2.043.272 2.64.816s.896 1.227.896 2.048c0 .715-.192 1.285-.576 1.712-.384.416-.848.699-1.392.848a2.69 2.69 0 0 1 1.136.512c.341.256.608.576.8.96a2.75 2.75 0 0 1 .288 1.248c0 .576-.144 1.099-.432 1.568-.277.459-.688.821-1.232 1.088s-1.211.4-2 .4h-4.352zm1.696-6.4h2.32c.651 0 1.147-.149 1.488-.448.341-.309.512-.731.512-1.264 0-.523-.171-.939-.512-1.248-.331-.309-.837-.464-1.52-.464h-2.288V18.6zm0 5.008h2.432c.683 0 1.211-.16 1.584-.48.384-.32.576-.768.576-1.344s-.197-1.029-.592-1.36c-.395-.341-.928-.512-1.6-.512h-2.4v3.696zM252.947 25v-7.936h1.52l.144 1.504c.277-.523.661-.933 1.152-1.232.501-.309 1.104-.464 1.808-.464v1.776h-.464a3.18 3.18 0 0 0-1.264.24c-.363.149-.656.411-.88.784-.213.363-.32.869-.32 1.52V25h-1.696zm9.571.192c-.757 0-1.44-.171-2.048-.512a3.89 3.89 0 0 1-1.424-1.456c-.352-.629-.528-1.36-.528-2.192s.176-1.557.528-2.176a3.82 3.82 0 0 1 1.456-1.456c.608-.352 1.286-.528 2.032-.528.758 0 1.435.176 2.032.528.608.341 1.088.827 1.44 1.456.363.619.544 1.344.544 2.176s-.181 1.563-.544 2.192a3.85 3.85 0 0 1-1.44 1.456c-.608.341-1.29.512-2.048.512zm0-1.456a2.15 2.15 0 0 0 1.12-.304 2.22 2.22 0 0 0 .848-.896c.214-.405.32-.907.32-1.504s-.106-1.093-.32-1.488c-.202-.405-.48-.709-.832-.912a2.15 2.15 0 0 0-1.12-.304 2.24 2.24 0 0 0-1.136.304c-.341.203-.618.507-.832.912-.213.395-.32.891-.32 1.488s.107 1.099.32 1.504c.214.395.491.693.832.896s.715.304 1.12.304zM269.672 25l-2.336-7.936h1.696l1.536 5.984 1.728-5.984h1.888l1.728 5.984 1.536-5.984h1.696L276.808 25h-1.744l-1.824-6.24-1.824 6.24h-1.744zm14.037.192c-1.003 0-1.83-.245-2.48-.736s-1.024-1.141-1.12-1.952h1.712c.085.363.288.677.608.944.32.256.741.384 1.264.384.512 0 .885-.107 1.12-.32s.352-.459.352-.736c0-.405-.166-.677-.496-.816-.32-.149-.768-.283-1.344-.4-.448-.096-.896-.224-1.344-.384-.438-.16-.806-.384-1.104-.672-.288-.299-.432-.699-.432-1.2a2.18 2.18 0 0 1 .8-1.728c.533-.469 1.28-.704 2.24-.704.885 0 1.6.213 2.144.64.554.427.88 1.029.976 1.808h-1.632a1.17 1.17 0 0 0-.48-.8c-.256-.192-.603-.288-1.04-.288-.427 0-.758.091-.992.272-.235.171-.352.395-.352.672s.16.496.48.656c.33.16.762.304 1.296.432.533.117 1.024.256 1.472.416.458.149.826.373 1.104.672s.416.736.416 1.312a2.21 2.21 0 0 1-.848 1.808c-.566.48-1.339.72-2.32.72zm8.731 0c-.778 0-1.472-.171-2.08-.512-.597-.352-1.066-.837-1.408-1.456s-.512-1.339-.512-2.16c0-.832.166-1.563.496-2.192a3.75 3.75 0 0 1 1.408-1.472c.608-.352 1.312-.528 2.112-.528.779 0 1.456.176 2.032.528.576.341 1.024.8 1.344 1.376s.48 1.211.48 1.904l-.016.352-.016.4h-6.176c.054.768.304 1.355.752 1.76.459.395.987.592 1.584.592.48 0 .88-.107 1.2-.32.331-.224.576-.523.736-.896h1.696c-.213.747-.64 1.371-1.28 1.872-.629.501-1.413.752-2.352.752zm0-6.928a2.38 2.38 0 0 0-1.504.512c-.437.331-.704.832-.8 1.504h4.48c-.032-.619-.25-1.109-.656-1.472s-.912-.544-1.52-.544zM298.072 25v-7.936h1.52l.144 1.504c.277-.523.661-.933 1.152-1.232.501-.309 1.104-.464 1.808-.464v1.776h-.464a3.18 3.18 0 0 0-1.264.24c-.363.149-.656.411-.88.784-.213.363-.32.869-.32 1.52V25h-1.696zm55.642 0V13.8h7.024v1.376h-5.328v3.536h4.416v1.36h-4.416V25h-1.696zm9.584-9.44a1.15 1.15 0 0 1-.8-.288 1.02 1.02 0 0 1-.304-.752c0-.299.101-.544.304-.736.213-.203.48-.304.8-.304s.581.101.784.304c.213.192.32.437.32.736s-.107.549-.32.752c-.203.192-.464.288-.784.288zM362.45 25v-7.936h1.696V25h-1.696zm3.935 0v-7.936h1.52l.144 1.504c.277-.523.661-.933 1.152-1.232.501-.309 1.104-.464 1.808-.464v1.776h-.464c-.47 0-.891.08-1.264.24-.363.149-.656.411-.88.784-.214.363-.32.869-.32 1.52V25h-1.696zm9.571.192c-.779 0-1.472-.171-2.08-.512a3.77 3.77 0 0 1-1.408-1.456c-.341-.619-.512-1.339-.512-2.16 0-.832.165-1.563.496-2.192.341-.629.811-1.12 1.408-1.472.608-.352 1.312-.528 2.112-.528.779 0 1.456.176 2.032.528.576.341 1.024.8 1.344 1.376s.48 1.211.48 1.904l-.016.352-.016.4h-6.176c.053.768.304 1.355.752 1.76.459.395.987.592 1.584.592.48 0 .88-.107 1.2-.32.331-.224.576-.523.736-.896h1.696c-.213.747-.64 1.371-1.28 1.872-.629.501-1.413.752-2.352.752zm0-6.928c-.565 0-1.067.171-1.504.512-.437.331-.704.832-.8 1.504h4.48c-.032-.619-.251-1.109-.656-1.472s-.912-.544-1.52-.544zM381.988 25v-6.512h-1.136v-1.424h1.136v-1.152c0-.864.213-1.483.64-1.856.437-.384 1.05-.576 1.84-.576h.832v1.44h-.576c-.374 0-.64.08-.8.24-.16.149-.24.405-.24.768v1.136h1.824v1.424h-1.824V25h-1.696zm8.53.192c-.757 0-1.44-.171-2.048-.512a3.89 3.89 0 0 1-1.424-1.456c-.352-.629-.528-1.36-.528-2.192s.176-1.557.528-2.176a3.82 3.82 0 0 1 1.456-1.456c.608-.352 1.286-.528 2.032-.528.758 0 1.435.176 2.032.528.608.341 1.088.827 1.44 1.456.363.619.544 1.344.544 2.176s-.181 1.563-.544 2.192a3.85 3.85 0 0 1-1.44 1.456c-.608.341-1.29.512-2.048.512zm0-1.456a2.15 2.15 0 0 0 1.12-.304 2.22 2.22 0 0 0 .848-.896c.214-.405.32-.907.32-1.504s-.106-1.093-.32-1.488c-.202-.405-.48-.709-.832-.912a2.15 2.15 0 0 0-1.12-.304 2.24 2.24 0 0 0-1.136.304c-.341.203-.618.507-.832.912-.213.395-.32.891-.32 1.488s.107 1.099.32 1.504c.214.395.491.693.832.896s.715.304 1.12.304zM395.226 25l2.816-3.968-2.816-3.968h1.808l2.128 3.04 2.112-3.04h1.824l-2.816 3.968L403.098 25h-1.824l-2.112-3.04-2.128 3.04h-1.808z" class="B"/><path d="M309.141 15.56c-.32 0-.586-.096-.8-.288-.202-.203-.304-.453-.304-.752a.97.97 0 0 1 .304-.736c.214-.203.48-.304.8-.304s.582.101.784.304c.214.192.32.437.32.736s-.106.549-.32.752c-.202.192-.464.288-.784.288zm-.848 9.44v-7.936h1.696V25h-1.696zm7.103.192c-1.002 0-1.829-.245-2.48-.736s-1.024-1.141-1.12-1.952h1.712c.086.363.288.677.608.944.32.256.742.384 1.264.384.512 0 .886-.107 1.12-.32s.352-.459.352-.736c0-.405-.165-.677-.496-.816-.32-.149-.768-.283-1.344-.4-.448-.096-.896-.224-1.344-.384-.437-.16-.805-.384-1.104-.672-.288-.299-.432-.699-.432-1.2 0-.693.267-1.269.8-1.728.534-.469 1.28-.704 2.24-.704.886 0 1.6.213 2.144.64.555.427.88 1.029.976 1.808h-1.632c-.053-.341-.213-.608-.48-.8-.256-.192-.602-.288-1.04-.288-.426 0-.757.091-.992.272-.234.171-.352.395-.352.672s.16.496.48.656c.331.16.763.304 1.296.432.534.117 1.024.256 1.472.416.459.149.827.373 1.104.672s.416.736.416 1.312c.011.725-.272 1.328-.848 1.808-.565.48-1.338.72-2.32.72zm9.051-.192v-7.936h1.504l.128 1.392c.245-.491.603-.875 1.072-1.152.48-.288 1.029-.432 1.648-.432.96 0 1.712.299 2.256.896.555.597.832 1.488.832 2.672V25h-1.68v-4.384c0-1.536-.629-2.304-1.888-2.304-.629 0-1.152.224-1.568.672-.405.448-.608 1.088-.608 1.92V25h-1.696zm13.15.192c-.758 0-1.44-.171-2.048-.512-.598-.352-1.072-.837-1.424-1.456-.352-.629-.528-1.36-.528-2.192s.176-1.557.528-2.176c.362-.629.848-1.115 1.456-1.456a3.98 3.98 0 0 1 2.032-.528c.757 0 1.434.176 2.032.528.608.341 1.088.827 1.44 1.456.362.619.543 1.344.543 2.176s-.181 1.563-.543 2.192a3.85 3.85 0 0 1-1.44 1.456c-.608.341-1.291.512-2.048.512zm0-1.456c.405 0 .778-.101 1.12-.304.352-.203.634-.501.848-.896.213-.405.32-.907.32-1.504s-.107-1.093-.32-1.488c-.203-.405-.48-.709-.832-.912-.342-.203-.715-.304-1.12-.304s-.784.101-1.136.304c-.342.203-.619.507-.832.912-.214.395-.32.891-.32 1.488s.106 1.099.32 1.504c.213.395.49.693.832.896a2.15 2.15 0 0 0 1.12.304zM346.478 25c-.779 0-1.397-.187-1.856-.56-.459-.384-.688-1.061-.688-2.032v-3.92h-1.36v-1.424h1.36l.208-2.016h1.488v2.016h2.24v1.424h-2.24v3.92c0 .437.091.741.272.912.192.16.517.24.976.24h.912V25h-1.312z" fill="#e87b7b"/><path d="M473 15l-10 10m10 0l-10-10" stroke="#000" class="D E F H I"/></g><defs><clipPath id="A"><path d="M0 0h488v320H0z" class="B"/></clipPath><clipPath id="B"><path d="M0 68c0-6.627 5.373-12 12-12h464c6.627 0 12 5.373 12 12v252H0V68z" class="B"/></clipPath></defs></svg>