<svg xmlns="http://www.w3.org/2000/svg" width="282" height="144" fill="none"><style><![CDATA[.B{fill-opacity:.04}.C{stroke:#6ece9d}.D{stroke-width:2}.E{stroke-linecap:round}.F{stroke-linejoin:round}]]></style><path fill="url(#A)" d="M0 0h282v144H0z"/><g fill="#fff"><rect x="25" y="20" width="56" height="32" rx="6" class="B"/><path d="M33.994 41v-9.8h1.484v4.2h4.746v-4.2h1.484V41h-1.484v-4.382h-4.746V41h-1.484zm12.899.168c-.663 0-1.26-.149-1.792-.448-.523-.308-.938-.733-1.246-1.274-.308-.551-.462-1.19-.462-1.918s.154-1.363.462-1.904a3.34 3.34 0 0 1 1.274-1.274c.532-.308 1.125-.462 1.778-.462.663 0 1.255.154 1.778.462.532.299.952.723 1.26 1.274.317.541.476 1.176.476 1.904s-.159 1.367-.476 1.918a3.37 3.37 0 0 1-1.26 1.274c-.532.299-1.129.448-1.792.448zm0-1.274c.355 0 .681-.089.98-.266.308-.177.555-.439.742-.784.187-.355.28-.793.28-1.316s-.093-.957-.28-1.302c-.177-.355-.42-.621-.728-.798-.299-.177-.625-.266-.98-.266a1.96 1.96 0 0 0-.994.266c-.299.177-.541.443-.728.798-.187.345-.28.779-.28 1.302s.093.961.28 1.316c.187.345.429.607.728.784s.625.266.98.266zM52.026 41v-6.944h1.316l.126.98c.224-.355.518-.635.882-.84.373-.205.803-.308 1.288-.308 1.101 0 1.867.434 2.296 1.302.252-.401.588-.719 1.008-.952.429-.233.891-.35 1.386-.35.868 0 1.549.261 2.044.784s.742 1.302.742 2.338V41H61.63v-3.836c0-1.344-.513-2.016-1.54-2.016a1.62 1.62 0 0 0-1.288.588c-.327.392-.49.952-.49 1.68V41h-1.484v-3.836c0-1.344-.518-2.016-1.554-2.016-.513 0-.938.196-1.274.588-.327.392-.49.952-.49 1.68V41h-1.484zm16.072.168c-.681 0-1.288-.149-1.82-.448a3.3 3.3 0 0 1-1.232-1.274c-.299-.541-.448-1.171-.448-1.89 0-.728.145-1.367.434-1.918.299-.551.709-.98 1.232-1.288.532-.308 1.148-.462 1.848-.462.681 0 1.274.154 1.778.462.504.299.896.7 1.176 1.204s.42 1.059.42 1.666l-.014.308-.014.35h-5.404c.047.672.266 1.185.658 1.54a2.06 2.06 0 0 0 1.386.518c.42 0 .77-.093 1.05-.28.289-.196.504-.457.644-.784h1.484c-.187.653-.56 1.199-1.12 1.638-.551.439-1.237.658-2.058.658zm0-6.062a2.08 2.08 0 0 0-1.316.448c-.383.289-.616.728-.7 1.316h3.92c-.028-.541-.219-.971-.574-1.288s-.798-.476-1.33-.476z"/></g><path d="M12 132V60l82 26v46" class="C D E F"/><g fill="#fff"><rect x="41" y="104" width="24" height="24" rx="12" class="B"/><path d="M52.233 121v-8.12l-1.582.364v-1.092l2.17-.952h.952v9.8h-1.54z"/><rect x="109.5" y="36" width="63" height="32" rx="6" class="B"/><path d="M118.494 57v-9.8h3.43c.765 0 1.4.131 1.904.392.504.252.877.602 1.12 1.05.252.439.378.938.378 1.498 0 .532-.121 1.022-.364 1.47-.233.439-.602.789-1.106 1.05s-1.148.392-1.932.392h-1.946V57h-1.484zm1.484-5.166h1.876c.7 0 1.199-.149 1.498-.448.308-.308.462-.723.462-1.246 0-.541-.154-.961-.462-1.26-.299-.308-.798-.462-1.498-.462h-1.876v3.416zM126.737 57v-6.944h1.33l.126 1.316c.242-.457.578-.817 1.008-1.078.438-.271.966-.406 1.582-.406v1.554h-.406c-.411 0-.78.07-1.106.21-.318.131-.574.359-.77.686-.187.317-.28.761-.28 1.33V57h-1.484zm6.158-8.26c-.28 0-.513-.084-.7-.252-.177-.177-.266-.397-.266-.658a.85.85 0 0 1 .266-.644c.187-.177.42-.266.7-.266s.509.089.686.266c.187.168.28.383.28.644a.87.87 0 0 1-.28.658c-.177.168-.406.252-.686.252zm-.742 8.26v-6.944h1.484V57h-1.484zm6.733.168c-.681 0-1.292-.154-1.834-.462a3.37 3.37 0 0 1-1.26-1.274c-.298-.551-.448-1.185-.448-1.904s.15-1.349.448-1.89c.308-.551.728-.98 1.26-1.288.542-.308 1.153-.462 1.834-.462.859 0 1.578.224 2.156.672a3.02 3.02 0 0 1 1.134 1.82h-1.554c-.093-.383-.298-.681-.616-.896s-.69-.322-1.12-.322a1.91 1.91 0 0 0-1.008.28c-.308.177-.555.443-.742.798-.186.345-.28.775-.28 1.288s.094.947.28 1.302c.187.345.434.611.742.798a1.91 1.91 0 0 0 1.008.28c.43 0 .803-.107 1.12-.322s.523-.518.616-.91h1.554c-.158.747-.532 1.349-1.12 1.806s-1.311.686-2.17.686zm5.74-8.428c-.28 0-.514-.084-.7-.252a.89.89 0 0 1-.266-.658c0-.261.088-.476.266-.644.186-.177.42-.266.7-.266s.508.089.686.266a.83.83 0 0 1 .28.644c0 .261-.094.481-.28.658-.178.168-.406.252-.686.252zm-.742 8.26v-6.944h1.484V57h-1.484zm3.443 0v-6.944h1.316l.112 1.218a2.38 2.38 0 0 1 .938-1.008c.42-.252.9-.378 1.442-.378.84 0 1.498.261 1.974.784.485.523.728 1.302.728 2.338V57h-1.47v-3.836c0-1.344-.551-2.016-1.652-2.016a1.79 1.79 0 0 0-1.372.588c-.355.392-.532.952-.532 1.68V57h-1.484zm11.869 3.248c-.597 0-1.157-.103-1.68-.308-.513-.196-.947-.499-1.302-.91-.354-.401-.578-.905-.672-1.512h1.47a1.83 1.83 0 0 0 .756 1.05c.392.261.864.392 1.414.392.598 0 1.111-.196 1.54-.588.43-.383.644-.961.644-1.736v-.938c-.214.364-.536.686-.966.966-.42.28-.947.42-1.582.42-.653 0-1.246-.154-1.778-.462-.522-.317-.938-.747-1.246-1.288a3.72 3.72 0 0 1-.462-1.848c0-.691.154-1.307.462-1.848s.724-.966 1.246-1.274c.532-.317 1.13-.476 1.792-.476.57 0 1.074.126 1.512.378.439.243.78.546 1.022.91l.14-1.12h1.344v6.524c0 .784-.163 1.447-.49 1.988-.317.551-.751.966-1.302 1.246-.55.289-1.171.434-1.862.434zm-.112-4.438c.439 0 .826-.098 1.162-.294a2.26 2.26 0 0 0 .798-.826c.196-.355.294-.756.294-1.204 0-.457-.098-.859-.294-1.204a2.15 2.15 0 0 0-.798-.812c-.336-.196-.723-.294-1.162-.294-.429 0-.812.098-1.148.294a2.15 2.15 0 0 0-.798.812c-.196.345-.294.747-.294 1.204 0 .448.098.849.294 1.204a2.26 2.26 0 0 0 .798.826c.336.196.719.294 1.148.294z"/></g><path d="M100 132V86l82 13v33" class="C D E F"/><g fill="#fff"><rect x="129" y="104" width="24" height="24" rx="12" class="B"/><path d="M137.292 121v-1.064l1.82-1.526c.579-.513 1.092-1.017 1.54-1.512.457-.504.817-.994 1.078-1.47.261-.485.392-.952.392-1.4 0-.299-.051-.579-.154-.84-.103-.271-.271-.485-.504-.644-.233-.168-.546-.252-.938-.252-.588 0-1.031.187-1.33.56-.289.373-.429.821-.42 1.344h-1.442c.009-.691.154-1.269.434-1.736.289-.467.672-.821 1.148-1.064.485-.243 1.031-.364 1.638-.364.924 0 1.661.261 2.212.784.56.513.84 1.232.84 2.156 0 .551-.135 1.097-.406 1.638-.261.541-.607 1.064-1.036 1.568a14.82 14.82 0 0 1-1.358 1.4l-1.386 1.19h4.48V121h-6.608z"/><rect x="197.5" y="52" width="63" height="32" rx="6" class="B"/><path d="M209.728 73.168c-.719 0-1.349-.126-1.89-.378a3.01 3.01 0 0 1-1.274-1.078c-.299-.467-.453-1.022-.462-1.666h1.568c.009.523.191.966.546 1.33s.854.546 1.498.546c.569 0 1.013-.135 1.33-.406a1.34 1.34 0 0 0 .49-1.064c0-.345-.079-.625-.238-.84-.149-.215-.359-.392-.63-.532a5.57 5.57 0 0 0-.91-.378l-1.092-.364c-.756-.252-1.325-.579-1.708-.98-.373-.401-.56-.929-.56-1.582-.009-.551.117-1.031.378-1.442a2.67 2.67 0 0 1 1.12-.952c.485-.233 1.05-.35 1.694-.35.635 0 1.19.117 1.666.35.485.233.863.56 1.134.98.271.411.411.891.42 1.442h-1.568a1.39 1.39 0 0 0-.196-.714 1.54 1.54 0 0 0-.574-.574c-.252-.149-.56-.224-.924-.224-.467-.009-.854.107-1.162.35-.299.243-.448.579-.448 1.008 0 .383.112.677.336.882s.532.378.924.518l1.344.462a6.7 6.7 0 0 1 1.302.574c.383.224.686.518.91.882.233.364.35.826.35 1.386a2.69 2.69 0 0 1-.378 1.386c-.252.42-.63.765-1.134 1.036-.504.261-1.125.392-1.862.392zm5.78-8.428c-.28 0-.513-.084-.7-.252-.177-.177-.266-.397-.266-.658a.85.85 0 0 1 .266-.644c.187-.177.42-.266.7-.266s.509.089.686.266c.187.168.28.383.28.644a.87.87 0 0 1-.28.658c-.177.168-.406.252-.686.252zm-.742 8.26v-6.944h1.484V73h-1.484zm7.055 3.248c-.597 0-1.157-.103-1.68-.308-.513-.196-.947-.499-1.302-.91-.354-.401-.578-.905-.672-1.512h1.47a1.83 1.83 0 0 0 .756 1.05c.392.261.864.392 1.414.392.598 0 1.111-.196 1.54-.588.43-.383.644-.961.644-1.736v-.938c-.214.364-.536.686-.966.966-.42.28-.947.42-1.582.42-.653 0-1.246-.154-1.778-.462-.522-.317-.938-.747-1.246-1.288a3.72 3.72 0 0 1-.462-1.848c0-.691.154-1.307.462-1.848s.724-.966 1.246-1.274c.532-.317 1.13-.476 1.792-.476.57 0 1.074.126 1.512.378.439.243.78.546 1.022.91l.14-1.12h1.344v6.524c0 .784-.163 1.447-.49 1.988-.317.551-.751.966-1.302 1.246-.55.289-1.171.434-1.862.434zm-.112-4.438c.439 0 .826-.098 1.162-.294a2.26 2.26 0 0 0 .798-.826c.196-.355.294-.756.294-1.204 0-.457-.098-.859-.294-1.204a2.15 2.15 0 0 0-.798-.812c-.336-.196-.723-.294-1.162-.294-.429 0-.812.098-1.148.294a2.15 2.15 0 0 0-.798.812c-.196.345-.294.747-.294 1.204 0 .448.098.849.294 1.204a2.26 2.26 0 0 0 .798.826c.336.196.719.294 1.148.294zm5.647 1.19v-6.944h1.316l.112 1.218c.215-.429.527-.765.938-1.008.42-.252.901-.378 1.442-.378.84 0 1.498.261 1.974.784.485.523.728 1.302.728 2.338V73h-1.47v-3.836c0-1.344-.551-2.016-1.652-2.016a1.79 1.79 0 0 0-1.372.588c-.355.392-.532.952-.532 1.68V73h-1.484zm10.82.168c-.84 0-1.503-.261-1.988-.784-.476-.523-.714-1.302-.714-2.338v-3.99h1.484v3.836c0 1.344.55 2.016 1.652 2.016a1.75 1.75 0 0 0 1.358-.588c.354-.392.532-.952.532-1.68v-3.584h1.484V73h-1.316l-.112-1.218a2.45 2.45 0 0 1-.952 1.022c-.411.243-.887.364-1.428.364zm5.696 2.912V66.056h1.33l.154 1.078c.224-.327.532-.616.924-.868s.896-.378 1.512-.378c.672 0 1.264.159 1.778.476s.914.751 1.204 1.302c.298.551.448 1.176.448 1.876s-.15 1.325-.448 1.876a3.34 3.34 0 0 1-1.204 1.288c-.514.308-1.111.462-1.792.462-.542 0-1.022-.107-1.442-.322a2.48 2.48 0 0 1-.98-.91v4.144h-1.484zm3.654-4.2c.634 0 1.157-.215 1.568-.644.41-.439.616-1.008.616-1.708 0-.457-.094-.863-.28-1.218s-.444-.63-.77-.826c-.327-.205-.705-.308-1.134-.308-.635 0-1.158.219-1.568.658-.402.439-.602 1.003-.602 1.694 0 .7.2 1.269.602 1.708.41.429.933.644 1.568.644z"/></g><path d="M188 132V99h82v33" class="C D E F"/><g fill="#fff"><rect x="217" y="104" width="24" height="24" rx="12" class="B"/><path d="M228.487 121.168c-.634 0-1.213-.112-1.736-.336-.513-.233-.924-.583-1.232-1.05s-.471-1.05-.49-1.75h1.47a2 2 0 0 0 .532 1.33c.346.355.831.532 1.456.532.598 0 1.055-.163 1.372-.49.318-.336.476-.751.476-1.246 0-.597-.214-1.041-.644-1.33-.42-.289-.938-.434-1.554-.434h-.728v-1.232h.742c.551 0 .994-.131 1.33-.392.346-.261.518-.63.518-1.106 0-.401-.135-.728-.406-.98-.261-.252-.634-.378-1.12-.378-.504 0-.9.149-1.19.448-.289.289-.448.653-.476 1.092h-1.47c.019-.569.159-1.064.42-1.484.271-.42.64-.747 1.106-.98s1.004-.35 1.61-.35c.654 0 1.2.117 1.638.35.448.224.784.532 1.008.924a2.37 2.37 0 0 1 .35 1.26c0 .523-.144.98-.434 1.372s-.676.653-1.162.784c.56.121 1.022.397 1.386.826.364.42.546.966.546 1.638 0 .541-.126 1.041-.378 1.498-.252.448-.625.807-1.12 1.078s-1.101.406-1.82.406z"/></g><defs><radialGradient id="A" cx="0" cy="0" r="1" gradientUnits="userSpaceOnUse" gradientTransform="translate(141 72) rotate(90) scale(72 141)"><stop stop-color="#6ece9d" stop-opacity=".15"/><stop offset="1" stop-color="#6ece9d" stop-opacity="0"/></radialGradient></defs></svg>