<svg width="533" height="92" viewBox="0 0 533 92" fill="none" xmlns="http://www.w3.org/2000/svg">
<g clip-path="url(#clip0_3357_5860)">
<path d="M498.095 18.7242H86.5132L86.7564 18.4615C87.036 18.1565 87.2609 17.8056 87.4214 17.4242C87.5987 17.0131 87.6964 16.5721 87.7095 16.1246C87.7373 15.2125 87.4163 14.3242 86.8119 13.6406C86.2075 12.957 85.3651 12.5297 84.4566 12.4456L79.9258 12.0216L78.6528 9.74279L78.0015 8.57714L77.7066 8.04876C77.3926 7.47853 76.9288 7.00492 76.3652 6.67906C75.8017 6.35321 75.1599 6.18749 74.509 6.19981C73.8582 6.21213 73.2231 6.40202 72.6723 6.74897C72.1215 7.09592 71.676 7.58675 71.3838 8.16845C70.7027 7.87298 69.9769 7.57464 69.2066 7.27345C68.6597 7.0605 68.0684 6.84352 67.457 6.62568L67.7324 5.34413L67.8774 4.66847C67.9188 4.46119 67.9401 4.25038 67.9409 4.03901C67.9505 3.60596 67.8735 3.17537 67.7143 2.77254C67.5551 2.36971 67.3169 2.00278 67.0138 1.69332C66.7108 1.38386 66.3489 1.13812 65.9494 0.970547C65.55 0.802974 65.1211 0.716952 64.688 0.717539C64.2045 0.717197 63.726 0.824991 63.2895 1.03303L61.1831 2.03077L60.7671 2.22777L59.9077 1.72923L58.353 0.827228C57.6956 0.460072 56.9333 0.326423 56.1902 0.448068C55.4472 0.569714 54.7672 0.939481 54.2612 1.49709C53.8774 1.97041 53.6186 2.53261 53.5088 3.13204C48.5029 2.34561 43.4427 1.95581 38.3755 1.96627C24.1626 1.96627 13.7661 4.85201 7.54833 7.27291C6.1159 7.82534 4.70721 8.43636 3.3258 9.10434C1.68483 9.89783 0.700684 11.5927 0.700684 13.4154V56.9408C0.700684 57.8808 0.956404 58.7984 1.48035 59.5788C5.17922 65.0882 15.3655 77.9708 35.9949 89.737C37.4696 90.5781 39.2783 90.5773 40.7525 89.7353C40.8371 89.687 40.9215 89.6387 41.0059 89.5903C41.7598 89.1583 42.4993 88.7249 43.2246 88.2903C43.7791 87.9586 44.3252 87.6264 44.8629 87.2937C45.1818 87.0964 45.5489 86.9907 45.9238 86.9907H498.095C507.148 86.9907 515.83 83.3945 522.231 76.9933C528.632 70.5921 532.229 61.9101 532.229 52.8574C532.229 43.8047 528.632 35.1228 522.231 28.7215C515.83 22.3203 507.148 18.7242 498.095 18.7242Z" fill="white" fill-opacity="0.04"/>
<path d="M62.9658 42.6401C62.4656 42.2956 62.0716 41.8183 61.8281 41.2619C61.7036 40.9794 61.6193 40.6809 61.5776 40.375L42.8794 58.0026L26.3481 41.4714L32.9692 34.8508L42.853 44.735L65.7788 21.8095L63.8232 20.0886L42.853 41.0583L32.9692 31.174L22.6704 41.4714L42.8267 61.6266L62.9658 42.6401Z" fill="#6ECE9D"/>
<path d="M39.6357 71.84C39.55 71.506 39.3353 71.2197 39.0386 71.0441C26.5435 63.6506 19.9956 56.1061 17.1011 52.0651V22.2389C23.9029 19.7067 31.1198 18.4744 38.3764 18.6061C38.7205 18.6051 39.0502 18.4678 39.2932 18.2241C39.5362 17.9804 39.6726 17.6504 39.6726 17.3063C39.6726 16.9622 39.5362 16.6321 39.2932 16.3884C39.0502 16.1448 38.7205 16.0074 38.3764 16.0065C27.4995 16.0065 19.8227 18.2682 15.2983 20.1656L14.5014 20.4996V52.8888L14.7368 53.2248C17.6235 57.3459 24.4478 65.4318 37.7144 73.2814C38.011 73.457 38.3653 73.5076 38.6993 73.422C39.0332 73.3363 39.3195 73.1216 39.4951 72.8249C39.6707 72.5282 39.7213 72.1739 39.6357 71.84Z" fill="#6ECE9D"/>
<path d="M41.0571 81.5893C41.6755 81.2389 42.2827 80.8873 42.8789 80.5345C60.1162 70.3319 67.8399 59.2451 69.8872 55.9138L70.0796 55.6008V46.7889C69.6161 46.5234 69.225 46.1479 68.9409 45.6955L67.5669 43.4996H67.48V54.8611C65.3896 58.1716 58.687 67.4392 44.4966 76.4903C43.8887 76.877 43.2676 77.2632 42.6333 77.6488C42.0335 78.0135 41.4214 78.3771 40.7969 78.7397C40.0073 79.1978 39.2056 79.6546 38.3755 80.1081C19.9389 70.0309 11.6431 58.6105 9.27393 54.8561V17.7287C10.9399 16.8211 12.6633 16.0232 14.4331 15.34C22.0909 12.4997 30.2087 11.1029 38.3755 11.2204C42.5641 11.2098 46.7461 11.553 50.877 12.2462C50.8684 12.2225 50.8594 12.199 50.8504 12.1755C50.8293 12.1201 50.8081 12.0647 50.792 12.0068C50.5699 11.2153 50.6572 10.3689 51.0361 9.63946C46.8511 8.95226 42.6165 8.61154 38.3755 8.62079C29.8861 8.50377 21.4485 9.96048 13.4898 12.9172C11.362 13.7344 9.29999 14.7133 7.32178 15.8454L6.67432 16.2209V55.5949L6.8667 55.9084C9.06104 59.4806 17.7759 71.9738 37.7593 82.7317L38.3755 83.0637L38.9917 82.7317C39.0394 82.706 39.0857 82.6803 39.132 82.6545C39.1739 82.6312 39.2159 82.6079 39.2588 82.5846C39.8688 82.2543 40.4683 81.9225 41.0571 81.5893Z" fill="#6ECE9D"/>
<path d="M97.0405 64.2134C96.6616 64.2144 96.2852 64.2752 95.9253 64.3936C95.5436 64.5189 95.1819 64.6983 94.8511 64.9263C94.5303 65.1516 94.232 65.4074 93.9605 65.6902C94.0223 65.4091 94.0628 65.1237 94.0815 64.8364C94.0972 64.5523 94.105 64.2407 94.105 63.9019V60.918H92.7124V72.0171C92.9929 72.1209 93.28 72.2057 93.5718 72.271C93.8843 72.3423 94.2046 72.4024 94.5308 72.4517C94.8589 72.5005 95.1812 72.5361 95.4995 72.5581C95.8159 72.5796 96.1109 72.5905 96.3843 72.5908C96.9671 72.6082 97.5481 72.5165 98.0972 72.3203C98.5256 72.1586 98.9004 71.8804 99.1792 71.5171C99.4636 71.1238 99.6595 70.6735 99.7534 70.1973C99.8755 69.5985 99.9332 68.9885 99.9253 68.3774C100.019 67.2624 99.7734 66.1451 99.2202 65.1724C98.9637 64.8457 98.6306 64.5873 98.2504 64.42C97.8702 64.2528 97.4547 64.1818 97.0405 64.2134ZM98.269 70.1724C98.1672 70.5601 97.925 70.8961 97.5894 71.1152C97.2088 71.3184 96.7823 71.42 96.3511 71.4102C96.0991 71.4102 95.8355 71.4024 95.5562 71.3858C95.2703 71.3687 94.9859 71.3331 94.7046 71.2793C94.5054 71.2418 94.3037 71.186 94.1025 71.1331L94.0913 66.6254C94.4784 66.3202 94.8827 66.0375 95.3023 65.7788C95.6773 65.5489 96.1085 65.4269 96.5483 65.4263C96.9629 65.4015 97.3756 65.4984 97.7358 65.7051C98.0399 65.9293 98.2478 66.2602 98.3178 66.6314C98.4416 67.2048 98.4966 67.791 98.4819 68.3775C98.5012 68.983 98.4294 69.5881 98.269 70.1724Z" fill="white"/>
<path d="M106.435 70.3604C106.359 70.5679 106.277 70.8028 106.189 71.065C106.157 71.1606 106.125 71.238 106.094 71.3277H105.861C105.828 71.1637 105.784 71.002 105.73 70.8438C105.675 70.6856 105.621 70.524 105.566 70.3604L103.451 64.4092H101.958L104.861 72.0322C104.892 72.139 104.959 72.2318 105.05 72.2949C105.138 72.359 105.244 72.3934 105.353 72.3931H105.676L105.533 72.7373C105.342 73.2148 105.058 73.6496 104.697 74.0161C104.272 74.4086 103.761 74.695 103.205 74.8521L103.335 75.7705C103.785 75.7582 104.229 75.6579 104.64 75.4751C105.005 75.3086 105.338 75.0783 105.623 74.7949C105.9 74.5184 106.14 74.2071 106.337 73.8687C106.529 73.5385 106.693 73.1931 106.828 72.8359L110.025 64.4092H108.517L106.435 70.3604Z" fill="white"/>
<path d="M120.074 70.0005C119.998 70.23 119.919 70.4624 119.837 70.6973C119.755 70.9326 119.669 71.1646 119.583 71.3941H119.369C119.292 71.1753 119.216 70.9458 119.14 70.7056C119.064 70.4653 118.982 70.2303 118.894 70.0005L116.927 64.4102H115.435L118.353 72.0498C118.391 72.1527 118.46 72.2414 118.55 72.3037C118.637 72.364 118.74 72.3956 118.845 72.3941H120.107C120.215 72.398 120.321 72.3662 120.41 72.3037C120.496 72.2391 120.562 72.151 120.599 72.0498L123.517 64.4102H122.043L120.074 70.0005Z" fill="white"/>
<path d="M131.232 64.4506C130.751 64.2806 130.242 64.2002 129.732 64.2133C129.337 64.2133 128.911 64.2296 128.453 64.2621C127.994 64.2953 127.542 64.3391 127.099 64.3935C126.658 64.4482 126.25 64.5082 125.878 64.5736L126.009 65.6069C126.621 65.5522 127.241 65.5029 127.871 65.4589C128.499 65.4154 129.021 65.3936 129.435 65.3935C129.889 65.3421 130.345 65.4556 130.722 65.7133C130.847 65.8574 130.942 66.0254 131 66.2072C131.058 66.3889 131.078 66.5805 131.06 66.7704V67.4755H127.732C127.142 67.4389 126.56 67.6231 126.099 67.9921C125.902 68.1764 125.747 68.402 125.647 68.6527C125.546 68.9034 125.502 69.1731 125.517 69.4428V70.3119C125.503 70.7394 125.609 71.1622 125.822 71.5331C126.02 71.8642 126.314 72.1272 126.666 72.2875C127.057 72.4633 127.483 72.55 127.912 72.5414C128.326 72.5449 128.738 72.4812 129.132 72.3529C129.494 72.2348 129.841 72.0752 130.166 71.8774C130.451 71.7063 130.72 71.5088 130.968 71.2875C131.058 71.2064 131.134 71.1322 131.207 71.0589L131.371 72.3939H132.468V66.7704C132.494 66.2443 132.387 65.7202 132.158 65.246C131.954 64.8785 131.626 64.5962 131.232 64.4506ZM130.404 70.6396C130.038 70.8674 129.644 71.0466 129.232 71.1728C128.895 71.2792 128.544 71.337 128.191 71.3447C127.849 71.3758 127.508 71.2731 127.24 71.0581C127.132 70.934 127.05 70.7895 126.999 70.6331C126.949 70.4767 126.93 70.3117 126.945 70.1479V69.6396C126.928 69.3563 127.009 69.0759 127.173 68.8447C127.277 68.7384 127.402 68.6561 127.541 68.6037C127.68 68.5513 127.828 68.5301 127.976 68.5415L131.06 68.528V70.1403C130.857 70.3261 130.637 70.4932 130.404 70.6396Z" fill="white"/>
<path d="M138.388 71.2627C138.093 71.2817 137.801 71.1846 137.576 70.9922C137.475 70.8872 137.397 70.7621 137.348 70.6252C137.298 70.4883 137.278 70.3425 137.289 70.1973L137.306 60.918H135.912V70.5088C135.893 70.7832 135.931 71.0586 136.023 71.3179C136.115 71.5773 136.258 71.8152 136.445 72.0171C136.634 72.1952 136.857 72.3335 137.101 72.4236C137.344 72.5137 137.603 72.5538 137.863 72.5415C137.994 72.5415 138.156 72.5332 138.347 72.5171C138.539 72.5005 138.724 72.4759 138.904 72.4434C139.047 72.4212 139.188 72.3828 139.322 72.3286L139.158 71.2627H138.388Z" fill="white"/>
<path d="M144.994 70.0005C144.917 70.23 144.839 70.4624 144.757 70.6973C144.675 70.9326 144.589 71.1646 144.503 71.3941H144.289C144.212 71.1753 144.136 70.9458 144.06 70.7056C143.984 70.4653 143.902 70.2303 143.814 70.0005L141.847 64.4102H140.355L143.273 72.0498C143.311 72.1527 143.38 72.2414 143.47 72.3037C143.557 72.364 143.66 72.3957 143.765 72.3941H145.027C145.135 72.398 145.241 72.3662 145.33 72.3037C145.416 72.2392 145.482 72.151 145.519 72.0498L148.437 64.4102H146.962L144.994 70.0005Z" fill="white"/>
<path d="M152.406 64.4102H151.029V72.394H152.406V64.4102Z" fill="white"/>
<path d="M151.388 61.0156H152.044C152.157 61.0156 152.266 61.0605 152.346 61.1403C152.425 61.2202 152.47 61.3285 152.47 61.4414V62.3765C152.47 62.4895 152.425 62.5979 152.345 62.6779C152.265 62.7578 152.157 62.8027 152.044 62.8027H151.388C151.275 62.8027 151.167 62.7579 151.087 62.678C151.007 62.5982 150.962 62.4899 150.962 62.377V61.4414C150.962 61.3285 151.007 61.2202 151.087 61.1403C151.167 61.0605 151.275 61.0156 151.388 61.0156Z" fill="white"/>
<path d="M160.357 68.0823L158.029 67.5574C157.722 67.4999 157.428 67.389 157.16 67.2298C157.047 67.1278 156.961 66.9997 156.91 66.8567C156.859 66.7137 156.843 66.5603 156.865 66.41C156.841 66.1549 156.907 65.8995 157.052 65.6883C157.218 65.5279 157.437 65.4345 157.668 65.4261C158.055 65.3901 158.443 65.3792 158.832 65.3934C159.334 65.3934 159.839 65.4015 160.347 65.4178C160.857 65.4344 161.361 65.4534 161.865 65.4754L161.98 64.4588C161.652 64.4046 161.293 64.3607 160.906 64.328C160.517 64.2952 160.127 64.2679 159.734 64.246C159.339 64.224 158.968 64.2132 158.619 64.2132C158.025 64.1909 157.43 64.2404 156.847 64.3607C156.44 64.4371 156.077 64.6656 155.832 64.9999C155.585 65.427 155.471 65.9178 155.504 66.41C155.493 66.7816 155.554 67.1518 155.683 67.5003C155.801 67.7863 156.001 68.0313 156.257 68.2049C156.579 68.4108 156.934 68.5579 157.306 68.6394L159.601 69.1643C159.922 69.229 160.232 69.3393 160.521 69.492C160.645 69.5793 160.742 69.6989 160.803 69.8376C160.863 69.9763 160.885 70.129 160.865 70.2791C160.884 70.5348 160.808 70.7885 160.652 70.992C160.454 71.1769 160.199 71.2896 159.929 71.3118C159.462 71.3747 158.991 71.4021 158.519 71.3938H157.529C157.205 71.3938 156.896 71.3855 156.601 71.3694C156.306 71.3528 156.029 71.3391 155.765 71.3284L155.668 72.3445C156.284 72.4474 156.905 72.5131 157.529 72.5413C158.091 72.5633 158.515 72.5742 158.798 72.574C159.442 72.5859 160.085 72.5311 160.716 72.4104C161.159 72.3373 161.559 72.1039 161.84 71.7547C162.116 71.3145 162.246 70.7977 162.209 70.2791C162.254 69.7423 162.093 69.2084 161.757 68.7869C161.367 68.4232 160.882 68.1788 160.357 68.0823Z" fill="white"/>
<path d="M165.65 61.0156H166.306C166.42 61.0156 166.528 61.0607 166.609 61.1409C166.689 61.2211 166.734 61.3299 166.734 61.4434V62.3765C166.734 62.4895 166.689 62.5979 166.609 62.6779C166.529 62.7578 166.421 62.8027 166.308 62.8027H165.652C165.538 62.8027 165.43 62.7577 165.349 62.6775C165.269 62.5972 165.224 62.4884 165.224 62.375V61.4419C165.224 61.3288 165.269 61.2204 165.349 61.1405C165.429 61.0605 165.537 61.0156 165.65 61.0156Z" fill="white"/>
<path d="M166.667 64.4102H165.291V72.394H166.667V64.4102Z" fill="white"/>
<path d="M175.808 64.6226C174.394 64.0763 172.827 64.0763 171.414 64.6226C170.859 64.8987 170.43 65.3767 170.216 65.9585C169.724 67.5556 169.724 69.2638 170.216 70.8608C170.43 71.4428 170.858 71.9209 171.414 72.1968C172.827 72.743 174.394 72.743 175.808 72.1968C176.362 71.9214 176.787 71.4427 176.996 70.8608C177.477 69.2622 177.477 67.5571 176.996 65.9585C176.787 65.3768 176.361 64.8982 175.808 64.6226ZM175.701 70.2295C175.648 70.4238 175.557 70.6057 175.433 70.7647C175.309 70.9237 175.155 71.0566 174.98 71.1558C174.549 71.3551 174.077 71.4479 173.603 71.4263C173.131 71.4491 172.661 71.3563 172.234 71.1558C172.06 71.056 171.907 70.9227 171.785 70.7638C171.663 70.6048 171.573 70.4232 171.521 70.2295C171.235 69.0332 171.235 67.7862 171.521 66.5899C171.573 66.3961 171.663 66.2146 171.785 66.0556C171.907 65.8967 172.06 65.7635 172.234 65.6636C172.661 65.4631 173.131 65.3702 173.603 65.3931C174.077 65.3714 174.549 65.4642 174.98 65.6636C175.155 65.7628 175.309 65.8957 175.433 66.0547C175.557 66.2137 175.648 66.3956 175.701 66.5899C175.985 67.7865 175.985 69.0329 175.701 70.2295Z" fill="white"/>
<path d="M190.185 71.3446C189.885 71.3666 189.603 71.383 189.342 71.3939C189.08 71.4046 188.865 71.41 188.701 71.41C188.185 71.4321 187.671 71.3427 187.193 71.1478C187.004 71.0552 186.836 70.9255 186.698 70.7663C186.56 70.6072 186.455 70.4219 186.391 70.2215C186.205 69.6307 186.122 69.0124 186.144 68.3934C186.121 67.7773 186.204 67.1618 186.391 66.5741C186.456 66.3752 186.561 66.1915 186.699 66.0338C186.837 65.876 187.005 65.7475 187.193 65.6556C187.671 65.4612 188.185 65.3718 188.701 65.3934C188.986 65.3934 189.328 65.4015 189.726 65.4178C190.125 65.4344 190.506 65.4588 190.865 65.492L191.047 64.5902C190.767 64.4872 190.479 64.4104 190.185 64.3607C189.875 64.306 189.57 64.2679 189.275 64.246C188.98 64.224 188.713 64.2132 188.473 64.2132C187.714 64.1824 186.959 64.3195 186.26 64.6146C185.701 64.8826 185.267 65.3552 185.047 65.9344C184.766 66.7227 184.638 67.5573 184.67 68.3934C184.638 69.2289 184.763 70.063 185.037 70.8529C185.254 71.4332 185.686 71.9084 186.242 72.181C186.94 72.4818 187.697 72.6218 188.457 72.5907C188.931 72.5904 189.405 72.5574 189.875 72.4921C190.324 72.4328 190.765 72.3287 191.193 72.181L191.047 71.2465C190.773 71.2899 190.486 71.3226 190.185 71.3446Z" fill="white"/>
<path d="M199.595 64.623C198.901 64.3218 198.147 64.1817 197.39 64.2134C196.639 64.1825 195.891 64.3226 195.203 64.623C194.648 64.8992 194.219 65.3772 194.005 65.959C193.513 67.556 193.513 69.2643 194.005 70.8613C194.219 71.4433 194.647 71.9214 195.203 72.1973C195.891 72.4977 196.639 72.6378 197.39 72.6069C198.147 72.6386 198.901 72.4985 199.595 72.1973C200.15 71.9226 200.576 71.4437 200.785 70.8613C201.264 69.2623 201.264 67.558 200.785 65.959C200.576 65.3767 200.149 64.898 199.595 64.623ZM199.49 70.23C199.437 70.4246 199.346 70.6067 199.221 70.7657C199.097 70.9247 198.943 71.0575 198.767 71.1562C198.337 71.356 197.864 71.4488 197.39 71.4268C196.919 71.4494 196.449 71.3565 196.021 71.1562C195.67 70.9541 195.414 70.6209 195.308 70.23C195.024 69.0334 195.024 67.7869 195.308 66.5903C195.414 66.1994 195.67 65.8663 196.021 65.6641C196.449 65.4638 196.919 65.3709 197.39 65.3936C197.864 65.3715 198.337 65.4643 198.767 65.6641C198.943 65.7629 199.097 65.8957 199.221 66.0547C199.345 66.2137 199.437 66.3958 199.49 66.5903C199.774 67.7869 199.774 69.0334 199.49 70.23Z" fill="white"/>
<path d="M209.113 64.2126C208.485 64.2183 207.865 64.355 207.292 64.6139C206.667 64.8967 206.077 65.2515 205.534 65.6713L205.439 64.4094H204.259V72.3932H205.652V66.6507C206.264 66.2803 206.805 65.9752 207.259 65.7536C207.717 65.5215 208.222 65.398 208.736 65.3928C208.896 65.3766 209.059 65.3953 209.211 65.4476C209.364 65.4999 209.504 65.5847 209.621 65.696C209.829 66.0253 209.921 66.415 209.882 66.8029V72.3932H211.277V66.4094C211.321 66.1135 211.296 65.8114 211.204 65.5269C211.111 65.2424 210.954 64.9834 210.744 64.7703C210.534 64.5572 210.277 64.3958 209.994 64.299C209.711 64.2022 209.409 64.1726 209.113 64.2126Z" fill="white"/>
<path d="M219.113 68.0823L216.785 67.5574C216.478 67.4995 216.184 67.3886 215.916 67.2298C215.803 67.1275 215.718 66.9993 215.667 66.8564C215.615 66.7136 215.599 66.5603 215.621 66.41C215.596 66.1545 215.663 65.8988 215.81 65.6883C215.975 65.5283 216.194 65.4349 216.423 65.4261C216.81 65.3902 217.199 65.3792 217.588 65.3934C218.091 65.3934 218.597 65.4015 219.105 65.4178C219.613 65.4344 220.118 65.4536 220.621 65.4754L220.736 64.4588C220.408 64.4046 220.05 64.361 219.662 64.3279C219.275 64.2952 218.884 64.2679 218.49 64.2459C218.097 64.2239 217.724 64.2132 217.375 64.2132C216.781 64.1909 216.187 64.2404 215.605 64.3607C215.197 64.4371 214.834 64.6655 214.588 64.9998C214.341 65.427 214.227 65.9178 214.259 66.41C214.248 66.7818 214.31 67.1522 214.441 67.5002C214.558 67.7871 214.758 68.0324 215.015 68.2048C215.336 68.4108 215.691 68.5579 216.064 68.6394L218.359 69.1643C218.679 69.2289 218.988 69.3393 219.277 69.4919C219.401 69.579 219.499 69.6985 219.559 69.8373C219.62 69.9761 219.641 70.1289 219.621 70.2791C219.641 70.5348 219.565 70.7889 219.408 70.9919C219.21 71.1765 218.957 71.2892 218.687 71.3118C218.22 71.3746 217.748 71.402 217.277 71.3938H216.285C215.963 71.3938 215.654 71.3856 215.359 71.3694C215.064 71.3528 214.785 71.3391 214.523 71.3284L214.424 72.3445C215.039 72.4473 215.661 72.513 216.285 72.5412C216.847 72.5632 217.271 72.5741 217.556 72.574C218.2 72.5858 218.842 72.531 219.474 72.4104C219.916 72.3368 220.316 72.1034 220.597 71.7546C220.874 71.3145 221.003 70.7976 220.966 70.279C221.012 69.7423 220.851 69.2084 220.515 68.7868C220.125 68.4228 219.638 68.1783 219.113 68.0823Z" fill="white"/>
<path d="M229.377 70.2383C228.909 70.5443 228.425 70.8234 227.925 71.0742C227.51 71.2809 227.053 71.3902 226.589 71.394C226.413 71.4113 226.235 71.3926 226.065 71.339C225.896 71.2855 225.74 71.1982 225.605 71.0825C225.379 70.7762 225.279 70.3949 225.326 70.0171V64.4102H223.933V70.4102C223.889 70.7072 223.916 71.0104 224.009 71.2957C224.103 71.5809 224.262 71.8404 224.474 72.0535C224.685 72.2667 224.943 72.4277 225.228 72.5237C225.512 72.6198 225.815 72.6483 226.113 72.6069C226.726 72.6047 227.331 72.4764 227.892 72.2299C228.484 71.9622 229.042 71.6235 229.552 71.2213L229.654 72.394H230.769V64.4102H229.377V70.2383Z" fill="white"/>
<path d="M236.754 71.2627C236.458 71.2817 236.166 71.1846 235.941 70.9922C235.84 70.8872 235.763 70.7621 235.713 70.6252C235.664 70.4883 235.644 70.3425 235.654 70.1973L235.672 60.918H234.277V70.5088C234.259 70.7832 234.296 71.0586 234.388 71.3179C234.48 71.5773 234.623 71.8152 234.81 72.0171C234.999 72.1952 235.222 72.3335 235.466 72.4236C235.709 72.5137 235.969 72.5538 236.228 72.5415C236.359 72.5415 236.521 72.5332 236.713 72.5171C236.904 72.5005 237.09 72.4759 237.269 72.4434C237.412 72.4212 237.553 72.3828 237.687 72.3286L237.523 71.2627H236.754Z" fill="white"/>
<path d="M242.066 62.0488H240.671V64.4165L239.228 64.4912V65.5078H240.671V70.377C240.632 70.9604 240.82 71.5365 241.197 71.9839C241.397 72.1785 241.637 72.3286 241.899 72.4246C242.162 72.5206 242.441 72.5602 242.72 72.541C242.851 72.541 243.027 72.5327 243.246 72.5166C243.464 72.5 243.689 72.4756 243.917 72.4429C244.122 72.4149 244.324 72.3766 244.525 72.3281L244.361 71.2622H243.148C242.847 71.2923 242.547 71.2042 242.31 71.0166C242.125 70.7854 242.038 70.4914 242.066 70.1968V65.5078H244.607V64.4097H242.066V62.0488Z" fill="white"/>
<path d="M248.689 64.4102H247.312V72.394H248.689V64.4102Z" fill="white"/>
<path d="M247.671 61.0156H248.328C248.441 61.0156 248.549 61.0605 248.629 61.1403C248.709 61.2202 248.753 61.3285 248.753 61.4414V62.3765C248.753 62.4895 248.709 62.5979 248.629 62.6779C248.549 62.7578 248.44 62.8027 248.327 62.8027H247.671C247.558 62.8027 247.45 62.7579 247.37 62.678C247.29 62.5982 247.246 62.4899 247.246 62.377V61.4414C247.246 61.3285 247.29 61.2202 247.37 61.1403C247.45 61.0605 247.558 61.0156 247.671 61.0156Z" fill="white"/>
<path d="M257.099 64.2126C256.471 64.2183 255.851 64.355 255.279 64.6139C254.654 64.8967 254.063 65.2515 253.521 65.6713L253.425 64.4094H252.246V72.3932H253.638V66.6507C254.25 66.2803 254.792 65.9752 255.246 65.7536C255.704 65.5215 256.209 65.398 256.722 65.3928C256.883 65.3766 257.045 65.3953 257.198 65.4476C257.35 65.4999 257.49 65.5847 257.607 65.696C257.816 66.0253 257.908 66.415 257.869 66.8029V72.3932H259.263V66.4094C259.308 66.1135 259.283 65.8114 259.19 65.5269C259.097 65.2424 258.94 64.9834 258.73 64.7703C258.52 64.5572 258.263 64.3958 257.98 64.299C257.697 64.2022 257.396 64.1726 257.099 64.2126Z" fill="white"/>
<path d="M265.869 64.2125C265.182 64.1897 264.495 64.2782 263.836 64.4747C263.387 64.6072 263.004 64.9024 262.762 65.3024C262.531 65.7561 262.422 66.2613 262.443 66.7696C262.423 67.2648 262.533 67.7567 262.762 68.1964C262.942 68.4781 263.197 68.7038 263.498 68.848C263.337 68.9527 263.2 69.091 263.097 69.2535C262.968 69.4629 262.884 69.6977 262.853 69.942C262.82 70.1871 262.842 70.4365 262.918 70.672C262.996 70.9146 263.141 71.1303 263.336 71.2946C263.358 71.3142 263.39 71.3243 263.415 71.3422C263.179 71.463 262.955 71.6063 262.746 71.7701C262.535 71.939 262.366 72.1553 262.254 72.4015C262.142 72.6799 262.089 72.9785 262.098 73.2785C262.086 73.6703 262.153 74.0605 262.295 74.4259C262.429 74.7355 262.655 74.9961 262.943 75.1721C263.308 75.3862 263.712 75.5256 264.131 75.5822C264.733 75.6716 265.342 75.7126 265.951 75.7048C266.712 75.7255 267.472 75.6484 268.213 75.4753C268.691 75.3757 269.116 75.1009 269.402 74.7048C269.659 74.2569 269.781 73.7446 269.754 73.2292C269.79 72.6799 269.633 72.1352 269.312 71.6882C268.892 71.2675 268.332 71.0164 267.738 70.9831L264.754 70.508C264.63 70.5092 264.509 70.4803 264.399 70.424C264.289 70.3677 264.195 70.2857 264.124 70.1848C264.053 70.084 264.008 69.9674 263.992 69.8452C263.976 69.723 263.99 69.5987 264.033 69.4831C264.069 69.3578 264.124 69.2392 264.198 69.1318C264.742 69.25 265.297 69.3047 265.853 69.2946C266.541 69.318 267.227 69.2266 267.885 69.0241C268.333 68.8872 268.716 68.5896 268.959 68.1882C269.17 67.735 269.279 67.2412 269.279 66.7414C269.279 66.2415 269.17 65.7477 268.959 65.2946C268.954 65.2873 268.946 65.2828 268.942 65.2756L270.131 65.1799L270.213 64.4094H267.662C267.076 64.2655 266.473 64.1993 265.869 64.2125ZM267.885 72.213C268.055 72.2672 268.199 72.3843 268.287 72.5406C268.368 72.7378 268.405 72.9506 268.394 73.1636C268.412 73.4576 268.337 73.7498 268.181 73.9996C267.992 74.2234 267.726 74.3694 267.435 74.4097C266.94 74.4977 266.438 74.5362 265.935 74.5245C265.43 74.5352 264.925 74.4995 264.426 74.418C264.133 74.384 263.863 74.2404 263.672 74.0162C263.514 73.7611 263.439 73.4631 263.459 73.1636C263.453 72.943 263.49 72.7232 263.566 72.5162C263.642 72.3273 263.753 72.1547 263.894 72.0079C264.023 71.8776 264.161 71.7562 264.306 71.6444L267.017 72.0162C267.313 72.0504 267.603 72.1164 267.885 72.213ZM267.525 67.8849C266.998 68.112 266.431 68.2291 265.857 68.2291C265.284 68.2291 264.716 68.112 264.189 67.8849C263.889 67.5832 263.721 67.175 263.721 66.7494C263.721 66.3238 263.889 65.9155 264.189 65.6139C264.717 65.3921 265.284 65.2779 265.857 65.2779C266.43 65.2779 266.997 65.3921 267.525 65.6139C267.82 65.9185 267.984 66.3257 267.984 66.7494C267.984 67.1731 267.82 67.5802 267.525 67.8849Z" fill="white"/>
<path d="M104.687 51.0466L105.108 53.1524H108.363V41.6875H104.101V48.787C103.9 48.8927 103.712 48.9963 103.495 49.105C103.073 49.3135 102.628 49.4731 102.17 49.5806C101.65 49.7002 101.119 49.7582 100.586 49.7534C99.866 49.7917 99.1547 49.5833 98.5693 49.1626C97.9957 48.6367 97.6196 47.9301 97.5038 47.1606C97.2618 45.8791 97.1555 44.5757 97.1865 43.2719C97.1699 42.1493 97.2424 41.0271 97.4032 39.916C97.4897 39.2007 97.7302 38.5126 98.1083 37.8994C98.4227 37.438 98.885 37.0976 99.4189 36.9345C100.089 36.7454 100.783 36.658 101.479 36.6752C102.17 36.6752 102.832 36.6801 103.467 36.6899C104.101 36.6996 104.734 36.714 105.368 36.7329C106.002 36.7524 106.655 36.7812 107.326 36.8193L107.672 33.622C107.055 33.4296 106.424 33.2851 105.785 33.1899C105.142 33.0937 104.465 33.0169 103.755 32.9594C103.044 32.9018 102.256 32.873 101.392 32.873C99.6087 32.797 97.831 33.1269 96.1933 33.8379C94.8777 34.5019 93.8747 35.6549 93.3993 37.0498C92.7599 39.0297 92.472 41.1063 92.5487 43.1855C92.4969 45.1892 92.72 47.1906 93.2118 49.1338C93.5199 50.4515 94.2537 51.6311 95.2997 52.4898C96.3741 53.2379 97.6646 53.6124 98.9726 53.5557C99.9174 53.5722 100.857 53.406 101.738 53.066C102.48 52.7772 103.174 52.3791 103.798 51.8848C104.115 51.6276 104.412 51.3475 104.687 51.0466Z" fill="white"/>
<path d="M121.671 53.4408C123.019 53.4706 124.363 53.3008 125.661 52.9369C126.675 52.646 127.585 52.0712 128.283 51.2802C129.012 50.3708 129.511 49.2985 129.737 48.1547C130.075 46.5305 130.229 44.8734 130.198 43.2147C130.229 41.5559 130.075 39.8987 129.737 38.2743C129.511 37.1306 129.012 36.0584 128.283 35.1488C127.584 34.3585 126.674 33.7839 125.661 33.4926C124.363 33.1287 123.019 32.9589 121.671 32.9887C120.135 32.9887 118.738 33.0175 117.48 33.0751C116.222 33.1327 115.017 33.2 113.865 33.2768V53.1528C115.017 53.2294 116.227 53.2967 117.495 53.3544C118.762 53.412 120.154 53.4408 121.671 53.4408ZM121.671 36.3588C122.489 36.3144 123.299 36.5259 123.991 36.9638C124.634 37.496 125.064 38.2429 125.2 39.0668C125.475 40.4316 125.595 41.823 125.56 43.2148C125.596 44.6066 125.475 45.9979 125.2 47.3628C125.067 48.1837 124.636 48.927 123.991 49.4511C123.296 49.8799 122.487 50.086 121.671 50.042C120.442 50.042 119.323 50.0275 118.316 49.9985L118.272 49.997V36.3748C118.36 36.3739 118.443 36.3743 118.532 36.3734C119.454 36.3637 120.5 36.3588 121.671 36.3588Z" fill="white"/>
<path d="M147.568 33.5645C146.151 33.1289 144.671 32.9342 143.189 32.9884C141.999 32.9884 140.986 32.9931 140.15 33.0025C139.315 33.0128 138.542 33.0369 137.832 33.0748C137.121 33.1133 136.362 33.1806 135.555 33.2764V53.1524H139.962V45.7364C140.352 45.7839 140.755 45.8265 141.172 45.8644C142.017 45.9415 142.881 45.9799 143.765 45.9796C145.113 46.0286 146.459 45.8385 147.741 45.4181C148.208 45.2486 148.637 44.9865 149.001 44.6475C149.364 44.3084 149.656 43.8994 149.858 43.4449C150.346 42.1888 150.566 40.8448 150.505 39.4986C150.568 38.1496 150.337 36.8029 149.829 35.5519C149.605 35.0857 149.289 34.6695 148.901 34.328C148.512 33.9866 148.059 33.7269 147.568 33.5645ZM145.825 41.4283C145.747 41.6431 145.625 41.839 145.466 42.0029C145.307 42.1668 145.115 42.295 144.903 42.379C144.324 42.5771 143.715 42.6746 143.103 42.6671H139.962V36.3139C140.906 36.3057 141.945 36.3008 143.103 36.3008C143.715 36.2753 144.326 36.3683 144.903 36.5748C145.115 36.6631 145.306 36.7945 145.465 36.9605C145.624 37.1266 145.746 37.3238 145.825 37.5396C146.033 38.1708 146.126 38.8345 146.098 39.4986C146.125 40.1531 146.032 40.8069 145.825 41.4283Z" fill="white"/>
<path d="M171.188 53.1523L169.46 46.9589C169.347 46.3598 169.101 45.7937 168.74 45.3027C168.454 44.9254 168.096 44.6075 167.688 44.3667C167.355 44.1702 166.989 44.0337 166.608 43.9633V43.8194C167.425 43.7566 168.211 43.4783 168.885 43.0127C169.445 42.5854 169.862 41.9977 170.08 41.3276C170.332 40.5415 170.454 39.7191 170.439 38.8936C170.504 37.6611 170.241 36.4335 169.677 35.3359C169.133 34.4547 168.28 33.8077 167.285 33.521C165.905 33.1264 164.472 32.9467 163.037 32.9883C161.846 32.9883 160.828 32.993 159.983 33.0024C159.138 33.0127 158.36 33.0368 157.65 33.0747C156.939 33.1133 156.181 33.1805 155.374 33.2764V53.1524H159.724V45.3617C160.589 45.3704 161.63 45.3745 162.864 45.3745C163.358 45.3462 163.848 45.4775 164.261 45.749C164.659 46.1029 164.927 46.5793 165.024 47.103L166.551 53.1523H171.188ZM165.73 40.9384C165.643 41.1441 165.514 41.3289 165.35 41.4805C165.186 41.632 164.991 41.7469 164.779 41.8173C164.188 42.0006 163.569 42.0833 162.95 42.062H159.724V36.3142C160.679 36.3057 161.747 36.3007 162.95 36.3007C163.569 36.2795 164.188 36.3624 164.779 36.5459C164.99 36.615 165.183 36.7278 165.347 36.8767C165.511 37.0256 165.641 37.2073 165.73 37.4101C166.095 38.558 166.095 39.7906 165.73 40.9384Z" fill="white"/>
<path d="M195.73 49.8112C195.192 49.8878 194.645 49.9406 194.088 49.9694C193.531 49.9982 193.012 50.0223 192.533 50.0416C192.052 50.0607 191.659 50.0703 191.352 50.0704C190.653 50.1005 189.956 49.9827 189.306 49.7247C189.052 49.6022 188.825 49.4293 188.639 49.2163C188.453 49.0034 188.313 48.7549 188.226 48.486C187.976 47.685 187.864 46.8471 187.895 46.0084C187.864 45.184 187.976 44.3605 188.226 43.5743C188.314 43.3081 188.456 43.0624 188.641 42.8521C188.827 42.6417 189.053 42.471 189.306 42.3502C189.956 42.0923 190.653 41.9745 191.352 42.0045C191.909 42.0045 192.538 42.0141 193.239 42.0333C193.939 42.0529 194.673 42.0721 195.442 42.0909L195.903 39.4122C195.353 39.1722 194.778 38.9934 194.189 38.879C193.576 38.756 192.955 38.6694 192.332 38.6198C191.716 38.5724 191.15 38.5485 190.631 38.548C189.195 38.4915 187.762 38.7368 186.426 39.2682C185.387 39.7303 184.566 40.5766 184.136 41.63C183.613 43.0282 183.373 44.5166 183.43 46.0084C183.374 47.4991 183.609 48.9865 184.122 50.3873C184.543 51.4401 185.352 52.2909 186.382 52.7638C187.721 53.3077 189.16 53.5581 190.603 53.4982C191.577 53.4969 192.55 53.4198 193.512 53.2677C194.415 53.1362 195.297 52.8842 196.133 52.5187L195.73 49.8112Z" fill="white"/>
<path d="M213.892 41.6587C213.455 40.5975 212.624 39.7462 211.574 39.2822C208.801 38.3031 205.777 38.3031 203.004 39.2822C201.946 39.7447 201.106 40.5952 200.656 41.6587C200.122 43.0643 199.877 44.5634 199.936 46.0659C199.88 47.5497 200.125 49.0295 200.656 50.416C201.104 51.4774 201.945 52.324 203.004 52.7778C205.78 53.7381 208.798 53.7381 211.574 52.7778C212.625 52.3224 213.457 51.4751 213.892 50.416C214.414 49.0272 214.654 47.5485 214.599 46.0659C214.657 44.5646 214.417 43.0666 213.892 41.6587ZM209.903 48.7451C209.85 49.0124 209.744 49.2662 209.59 49.4913C209.437 49.7165 209.24 49.9085 209.011 50.0557C208.465 50.2933 207.877 50.416 207.282 50.416C206.687 50.416 206.099 50.2933 205.554 50.0557C205.324 49.9087 205.127 49.7168 204.973 49.4916C204.82 49.2664 204.713 49.0125 204.66 48.7451C204.462 47.8665 204.375 46.9663 204.401 46.0659C204.374 45.1561 204.461 44.2465 204.66 43.3584C204.714 43.0896 204.821 42.8342 204.975 42.6068C205.128 42.3794 205.325 42.1845 205.554 42.0332C206.096 41.7864 206.686 41.6587 207.282 41.6587C207.878 41.6587 208.468 41.7864 209.011 42.0332C209.239 42.1847 209.436 42.3796 209.589 42.607C209.742 42.8344 209.849 43.0897 209.903 43.3584C210.102 44.2465 210.189 45.1561 210.162 46.0659C210.189 46.9663 210.102 47.8665 209.903 48.7451Z" fill="white"/>
<path d="M234.733 42.2925C235.051 42.1951 235.381 42.1466 235.713 42.1485C235.931 42.1249 236.151 42.1474 236.359 42.2145C236.568 42.2815 236.76 42.3916 236.923 42.5376C237.187 42.9099 237.31 43.3645 237.269 43.8194V53.1524H241.503V42.4941C241.57 41.9599 241.514 41.4175 241.339 40.9083C241.164 40.3991 240.876 39.9366 240.495 39.5559C240.114 39.1752 239.652 38.8865 239.142 38.7118C238.633 38.5371 238.091 38.481 237.557 38.5478C236.561 38.5429 235.579 38.7749 234.69 39.2246C233.84 39.6756 233.054 40.2393 232.354 40.9006C232.212 40.3902 231.946 39.923 231.579 39.5415C231.188 39.1902 230.73 38.9212 230.233 38.7504C229.736 38.5797 229.209 38.5108 228.685 38.5478C227.684 38.5395 226.696 38.7716 225.804 39.2246C224.873 39.7253 224.015 40.3515 223.255 41.0856L222.924 38.9223H219.524V53.1523H223.787V43.332C224.18 43.0901 224.541 42.8769 224.839 42.7246C225.188 42.5393 225.555 42.3897 225.934 42.2783C226.248 42.1921 226.572 42.1484 226.898 42.1484C227.33 42.1132 227.759 42.2476 228.094 42.5229C228.241 42.7026 228.351 42.9097 228.418 43.1322C228.485 43.3547 228.507 43.5883 228.482 43.8193V53.1523H232.573V43.3885C232.983 43.1366 233.359 42.9153 233.668 42.7534C234.009 42.5691 234.366 42.4149 234.733 42.2925Z" fill="white"/>
<path d="M256.28 38.5769C255.518 38.5761 254.76 38.6927 254.034 38.9226C253.325 39.143 252.651 39.4631 252.032 39.8733C251.533 40.2049 251.087 40.61 250.709 41.075L250.375 38.9226H246.918V58.6258H251.181V55.198C251.201 54.5828 251.196 53.9633 251.167 53.3396C251.147 52.9117 251.112 52.51 251.079 52.1042C251.655 52.5444 252.304 52.8798 252.997 53.095C253.939 53.3862 254.92 53.5319 255.906 53.5271C256.938 53.5627 257.963 53.34 258.887 52.8792C259.744 52.3741 260.381 51.5675 260.673 50.6175C261.12 49.173 261.319 47.6635 261.263 46.1526C261.373 44.2121 260.976 42.2763 260.112 40.5354C259.718 39.8853 259.151 39.3578 258.474 39.0119C257.797 38.6659 257.037 38.5153 256.28 38.5769ZM256.64 48.9036C256.598 49.1545 256.506 49.3946 256.37 49.6097C256.234 49.8249 256.057 50.0109 255.848 50.157C255.395 50.3888 254.888 50.498 254.379 50.4739C253.772 50.4819 253.167 50.4092 252.579 50.2576C252.15 50.1409 251.678 50.0043 251.181 49.8561V43.1603C251.713 42.7957 252.271 42.4721 252.852 42.1922C253.385 41.9487 253.966 41.8257 254.552 41.8318C255.03 41.8099 255.502 41.9357 255.906 42.1922C256.304 42.5192 256.57 42.9797 256.655 43.4881C256.833 44.3743 256.91 45.2778 256.885 46.1814C256.913 47.0954 256.83 48.0093 256.64 48.9036Z" fill="white"/>
<path d="M272.181 50.0415C271.729 50.0734 271.281 49.9459 270.914 49.6812C270.764 49.5459 270.647 49.3783 270.572 49.1911C270.497 49.004 270.466 48.8022 270.481 48.6011L270.51 32.9883H266.247V49.667C266.217 50.191 266.302 50.7152 266.496 51.2028C266.69 51.6905 266.989 52.1297 267.371 52.4897C268.225 53.1985 269.315 53.5586 270.423 53.498C270.799 53.4936 271.174 53.4695 271.547 53.4258C271.989 53.3779 272.421 53.3107 272.843 53.2241C273.181 53.1649 273.51 53.0634 273.823 52.9219L273.333 50.0415L272.181 50.0415Z" fill="white"/>
<path d="M282.032 38.9229H277.797V53.1528H282.032V38.9229Z" fill="white"/>
<path d="M280.851 32.6425H279.007C278.833 32.6195 278.656 32.6375 278.489 32.695C278.323 32.7525 278.172 32.8479 278.049 32.9737C277.926 33.0995 277.834 33.2522 277.781 33.4198C277.727 33.5873 277.713 33.765 277.74 33.9389V35.4652C277.713 35.6391 277.727 35.8169 277.781 35.9844C277.834 36.1519 277.926 36.3046 278.049 36.4304C278.172 36.5562 278.323 36.6516 278.489 36.7091C278.656 36.7666 278.833 36.7846 279.007 36.7616H280.851C281.026 36.7845 281.203 36.7664 281.369 36.7089C281.535 36.6513 281.686 36.5559 281.809 36.4301C281.932 36.3043 282.023 36.1516 282.077 35.9842C282.131 35.8167 282.145 35.639 282.118 35.4652V33.9389C282.145 33.7651 282.131 33.5874 282.077 33.4199C282.023 33.2525 281.931 33.0998 281.809 32.974C281.686 32.8482 281.535 32.7528 281.369 32.6952C281.203 32.6377 281.026 32.6196 280.851 32.6425Z" fill="white"/>
<path d="M298.192 39.0228C297.221 38.6822 296.197 38.5212 295.168 38.5477C294.457 38.5477 293.65 38.5813 292.748 38.6483C291.845 38.7162 290.942 38.7979 290.04 38.8935C289.138 38.9896 288.341 39.1049 287.649 39.2392L288.053 42.0619C289.205 41.9852 290.328 41.9229 291.423 41.8749C292.518 41.8271 293.43 41.803 294.159 41.8026C294.796 41.7314 295.436 41.8953 295.96 42.2636C296.134 42.4641 296.265 42.6975 296.347 42.9499C296.428 43.2023 296.458 43.4686 296.435 43.7328V44.3954H291.278C290.143 44.3299 289.022 44.6665 288.11 45.3461C287.726 45.6687 287.423 46.0759 287.223 46.5357C287.023 46.9954 286.932 47.4953 286.958 47.996V49.4652C286.93 50.2487 287.141 51.0222 287.562 51.683C287.97 52.2817 288.54 52.7515 289.205 53.037C289.941 53.3534 290.736 53.5104 291.538 53.498C292.346 53.5119 293.149 53.365 293.9 53.0658C294.551 52.8015 295.162 52.4476 295.715 52.0146C296.142 51.677 296.533 51.2957 296.881 50.8767L297.328 53.1523H300.727V43.7616C300.781 42.6815 300.558 41.6056 300.079 40.6361C299.662 39.8911 298.993 39.319 298.192 39.0228ZM296.233 49.1771C295.691 49.5442 295.105 49.8441 294.49 50.0702C293.97 50.269 293.42 50.3763 292.863 50.3871C292.397 50.4288 291.933 50.2895 291.566 49.9979C291.426 49.851 291.318 49.6766 291.249 49.4857C291.179 49.2949 291.15 49.0917 291.163 48.8891V48.1977C291.144 47.8319 291.262 47.4721 291.495 47.1894C291.642 47.0516 291.818 46.9469 292.009 46.8823C292.2 46.8177 292.403 46.7947 292.603 46.8148L296.434 46.7974V49.0222C296.365 49.0718 296.305 49.1297 296.233 49.1771Z" fill="white"/>
<path d="M315.994 38.5479C314.906 38.5587 313.832 38.7941 312.839 39.2393C311.774 39.7142 310.78 40.3366 309.888 41.0882L309.512 38.9224H306.084V53.1524H310.347V43.3991C310.993 43.0662 311.657 42.769 312.335 42.5088C312.943 42.277 313.587 42.1549 314.237 42.1484C314.448 42.1269 314.661 42.1477 314.863 42.2096C315.066 42.2715 315.255 42.3732 315.417 42.5088C315.69 42.8882 315.813 43.3548 315.763 43.8193V53.1523H320.026V42.4941C320.026 39.8633 318.682 38.5479 315.994 38.5479Z" fill="white"/>
<path d="M335.495 49.9694C334.937 49.9982 334.418 50.0223 333.939 50.0416C333.459 50.0607 333.065 50.0703 332.758 50.0704C332.06 50.1005 331.362 49.9827 330.712 49.7247C330.458 49.6022 330.231 49.4293 330.045 49.2163C329.859 49.0034 329.719 48.7549 329.632 48.486C329.382 47.685 329.27 46.8471 329.301 46.0084C329.27 45.184 329.382 44.3605 329.632 43.5743C329.721 43.3081 329.862 43.0624 330.047 42.8521C330.233 42.6417 330.459 42.471 330.712 42.3502C331.362 42.0923 332.06 41.9745 332.758 42.0045C333.315 42.0045 333.944 42.0141 334.645 42.0333C335.345 42.0529 336.08 42.0721 336.848 42.0909L337.309 39.4122C336.759 39.1722 336.184 38.9934 335.595 38.879C334.982 38.756 334.362 38.6694 333.738 38.6198C333.123 38.5724 332.556 38.5485 332.038 38.548C330.601 38.4915 329.168 38.7368 327.833 39.2682C326.793 39.7303 325.972 40.5766 325.543 41.63C325.019 43.0282 324.779 44.5166 324.836 46.0084C324.78 47.4991 325.015 48.9865 325.528 50.3873C325.949 51.4401 326.758 52.2909 327.789 52.7638C329.127 53.3077 330.566 53.5581 332.009 53.4982C332.984 53.4969 333.956 53.4198 334.919 53.2677C335.822 53.1362 336.703 52.8842 337.54 52.5187L337.136 49.8112C336.598 49.8878 336.051 49.9406 335.495 49.9694Z" fill="white"/>
<path d="M354.421 46.3403C354.78 45.9488 355.052 45.4862 355.221 44.9825C355.39 44.4788 355.451 43.9453 355.4 43.4165C355.447 42.728 355.329 42.0382 355.056 41.4044C354.783 40.7706 354.363 40.2112 353.83 39.7725C352.783 38.9566 351.06 38.5486 348.659 38.5484C347.213 38.4941 345.771 38.7394 344.425 39.2686C343.368 39.73 342.524 40.5735 342.062 41.6304C341.506 43.0407 341.251 44.5517 341.313 46.0664C341.263 47.5043 341.514 48.9368 342.049 50.2725C342.521 51.3492 343.371 52.2153 344.439 52.7066C345.818 53.2878 347.308 53.5582 348.804 53.4986C349.495 53.4986 350.215 53.4649 350.964 53.3975C351.7 53.3321 352.431 53.2215 353.153 53.0665C353.81 52.931 354.448 52.7182 355.055 52.4327L354.651 49.8116C353.672 49.9268 352.697 50.0084 351.727 50.0562C350.757 50.1045 349.945 50.1286 349.293 50.1285C348.568 50.1621 347.845 50.0342 347.176 49.754C346.913 49.6174 346.681 49.4278 346.495 49.1972C346.309 48.9666 346.173 48.6999 346.096 48.4141C345.984 48.0527 345.907 47.6813 345.867 47.3052H350.934C352.176 47.4303 353.42 47.0861 354.421 46.3403ZM349.754 44.9146H345.793C345.803 44.2926 345.885 43.6739 346.038 43.0708C346.094 42.8141 346.206 42.5728 346.365 42.3637C346.524 42.1547 346.727 41.9831 346.96 41.8608C347.544 41.6231 348.173 41.5149 348.804 41.5439C349.457 41.4911 350.111 41.6261 350.69 41.9331C350.894 42.1014 351.053 42.3162 351.156 42.5594C351.259 42.8026 351.301 43.067 351.28 43.3301C351.303 43.7371 351.208 44.1422 351.007 44.4966C350.824 44.7754 350.407 44.9147 349.754 44.9146Z" fill="white"/>
<path d="M386.452 38.5478C385.456 38.5429 384.474 38.7749 383.585 39.2246C382.735 39.6756 381.949 40.2393 381.249 40.9006C381.108 40.3902 380.841 39.923 380.474 39.5415C380.083 39.1902 379.625 38.9212 379.128 38.7505C378.631 38.5797 378.104 38.5108 377.58 38.5478C376.579 38.5395 375.591 38.7716 374.699 39.2246C373.768 39.7253 372.91 40.3515 372.15 41.0856L371.819 38.9223H368.419V53.1523H372.682V43.332C373.075 43.0901 373.436 42.8769 373.734 42.7246C374.083 42.5393 374.45 42.3897 374.829 42.2783C375.143 42.1921 375.467 42.1484 375.793 42.1484C376.225 42.1132 376.654 42.2476 376.989 42.5229C377.136 42.7026 377.246 42.9097 377.313 43.1322C377.38 43.3547 377.402 43.5883 377.377 43.8193V53.1523H381.468V43.3885C381.878 43.1366 382.254 42.9153 382.563 42.7534C382.904 42.5691 383.261 42.4149 383.628 42.2924C383.946 42.1951 384.276 42.1466 384.608 42.1484C384.826 42.1249 385.046 42.1474 385.254 42.2144C385.463 42.2815 385.655 42.3916 385.818 42.5376C386.082 42.9099 386.205 43.3645 386.164 43.8193V53.1523H390.398V42.4941C390.465 41.9599 390.409 41.4175 390.234 40.9083C390.059 40.3991 389.771 39.9366 389.39 39.5559C389.009 39.1752 388.547 38.8865 388.037 38.7118C387.528 38.5371 386.986 38.481 386.452 38.5478Z" fill="white"/>
<path d="M406.357 39.0228C405.386 38.6822 404.362 38.5212 403.333 38.5477C402.622 38.5477 401.815 38.5813 400.913 38.6483C400.01 38.7162 399.107 38.7979 398.205 38.8935C397.303 38.9896 396.506 39.1049 395.814 39.2392L396.218 42.0619C397.37 41.9852 398.493 41.9229 399.588 41.8749C400.683 41.8271 401.595 41.803 402.324 41.8026C402.961 41.7314 403.601 41.8953 404.125 42.2636C404.299 42.4641 404.43 42.6975 404.512 42.9499C404.593 43.2023 404.623 43.4686 404.6 43.7328V44.3954H399.443C398.308 44.3299 397.187 44.6665 396.275 45.3461C395.891 45.6687 395.588 46.0759 395.388 46.5357C395.188 46.9954 395.097 47.4953 395.123 47.996V49.4652C395.095 50.2487 395.306 51.0222 395.727 51.683C396.135 52.2817 396.705 52.7516 397.37 53.037C398.106 53.3534 398.902 53.5104 399.703 53.498C400.511 53.5119 401.314 53.365 402.065 53.0658C402.716 52.8015 403.327 52.4476 403.88 52.0146C404.307 51.677 404.698 51.2957 405.046 50.8767L405.493 53.1523H408.892V43.7616C408.946 42.6815 408.723 41.6056 408.244 40.6361C407.827 39.891 407.158 39.319 406.357 39.0228ZM404.398 49.1771C403.856 49.5442 403.27 49.8441 402.655 50.0702C402.135 50.269 401.585 50.3763 401.028 50.3871C400.562 50.4288 400.098 50.2895 399.731 49.9979C399.591 49.851 399.483 49.6766 399.414 49.4857C399.344 49.2949 399.315 49.0917 399.328 48.8891V48.1977C399.309 47.8319 399.427 47.4721 399.66 47.1894C399.807 47.0516 399.983 46.9469 400.174 46.8823C400.365 46.8177 400.568 46.7947 400.768 46.8148L404.599 46.7974V49.0222C404.53 49.0718 404.47 49.1297 404.398 49.1771Z" fill="white"/>
<path d="M424.159 38.5479C423.071 38.5587 421.997 38.7941 421.004 39.2393C419.939 39.7142 418.945 40.3366 418.053 41.0882L417.677 38.9224H414.25V53.1524H418.512V43.3991C419.158 43.0662 419.822 42.769 420.5 42.5088C421.108 42.277 421.752 42.1549 422.402 42.1484C422.613 42.1269 422.826 42.1477 423.029 42.2096C423.231 42.2715 423.42 42.3732 423.583 42.5088C423.855 42.8882 423.978 43.3548 423.928 43.8193V53.1523H428.191V42.4941C428.191 39.8633 426.847 38.5479 424.159 38.5479Z" fill="white"/>
<path d="M444.121 39.0228C443.15 38.6822 442.125 38.5212 441.097 38.5477C440.386 38.5477 439.579 38.5813 438.677 38.6483C437.773 38.7162 436.871 38.7979 435.969 38.8935C435.066 38.9896 434.269 39.1049 433.578 39.2392L433.981 42.0619C435.134 41.9852 436.257 41.9229 437.351 41.8749C438.446 41.8271 439.358 41.803 440.088 41.8026C440.724 41.7314 441.365 41.8953 441.889 42.2636C442.062 42.4641 442.194 42.6975 442.275 42.9499C442.357 43.2023 442.387 43.4686 442.363 43.7328V44.3954H437.207C436.072 44.3299 434.95 44.6665 434.039 45.3461C433.655 45.6687 433.351 46.0759 433.151 46.5357C432.951 46.9954 432.861 47.4953 432.887 47.996V49.4652C432.858 50.2487 433.069 51.0222 433.491 51.683C433.898 52.2817 434.468 52.7515 435.134 53.037C435.87 53.3534 436.665 53.5104 437.467 53.498C438.275 53.5119 439.078 53.365 439.829 53.0658C440.48 52.8015 441.09 52.4476 441.643 52.0146C442.071 51.677 442.462 51.2957 442.809 50.8767L443.257 53.1523H446.656V43.7616C446.71 42.6815 446.487 41.6056 446.008 40.6361C445.591 39.891 444.922 39.319 444.121 39.0228ZM442.162 49.1771C441.619 49.5442 441.034 49.8441 440.419 50.0702C439.899 50.269 439.348 50.3763 438.792 50.3871C438.326 50.4288 437.861 50.2895 437.495 49.9979C437.355 49.851 437.247 49.6766 437.177 49.4857C437.108 49.2949 437.079 49.0917 437.092 48.8891V48.1977C437.072 47.8319 437.191 47.4721 437.424 47.1894C437.571 47.0516 437.746 46.9469 437.937 46.8823C438.129 46.8177 438.331 46.7947 438.532 46.8148L442.363 46.7974V49.0222C442.294 49.0718 442.233 49.1297 442.162 49.1771Z" fill="white"/>
<path d="M458.35 38.5478C457.01 38.5092 455.672 38.6644 454.376 39.0087C453.51 39.2234 452.749 39.739 452.229 40.4633C451.764 41.2508 451.539 42.1567 451.581 43.0702C451.538 43.9793 451.763 44.8809 452.229 45.6625C452.606 46.1997 453.129 46.6172 453.736 46.865C453.428 47.0276 453.159 47.2564 452.949 47.5351C452.671 47.9186 452.488 48.3631 452.417 48.8315C452.339 49.3101 452.384 49.8005 452.547 50.2572C452.693 50.6558 452.94 51.0103 453.262 51.2871C452.952 51.4217 452.655 51.5831 452.374 51.7694C451.918 52.0571 451.545 52.4595 451.293 52.9364C451.071 53.4192 450.963 53.9463 450.976 54.4774C450.956 55.1505 451.069 55.8209 451.307 56.4506C451.546 56.9985 451.962 57.45 452.489 57.7323C453.207 58.1071 453.988 58.3463 454.793 58.4379C456.02 58.598 457.257 58.6703 458.495 58.6542C459.963 58.6868 461.431 58.5613 462.873 58.2797C463.808 58.1239 464.656 57.6385 465.264 56.9115C465.814 56.0714 466.076 55.0759 466.013 54.0741C466.088 53.0002 465.76 51.9368 465.092 51.0927C464.223 50.3027 463.096 49.8571 461.923 49.8397L456.68 49.2347C456.482 49.2381 456.286 49.1925 456.11 49.102C455.935 49.0116 455.784 48.879 455.672 48.7162C455.596 48.5762 455.55 48.4217 455.538 48.2629C455.525 48.1041 455.546 47.9445 455.599 47.7943C455.645 47.654 455.714 47.522 455.802 47.4036C456.637 47.5154 457.479 47.5689 458.322 47.5638C459.658 47.6034 460.992 47.4481 462.283 47.1029C463.141 46.8881 463.892 46.3718 464.4 45.6483C464.853 44.867 465.073 43.9724 465.034 43.0702C465.053 42.351 464.927 41.6353 464.662 40.9664L466.445 40.7367L466.676 38.9222H461.944C460.766 38.6471 459.559 38.5213 458.35 38.5478ZM461.044 52.7924C461.318 52.8444 461.57 52.9802 461.764 53.1811C461.927 53.4172 462.003 53.702 461.98 53.9877C462.003 54.3403 461.895 54.6889 461.678 54.9672C461.381 55.2425 461.001 55.4098 460.597 55.4423C459.882 55.5417 459.16 55.5852 458.437 55.5722C457.739 55.5846 457.04 55.5411 456.348 55.4423C455.951 55.4106 455.578 55.2368 455.298 54.9525C455.088 54.6545 454.986 54.2938 455.01 53.9301C454.995 53.6121 455.059 53.2955 455.196 53.0082C455.36 52.7341 455.575 52.4944 455.83 52.3026C455.887 52.2568 455.963 52.1998 456.026 52.1501L459.647 52.5473C460.117 52.6019 460.583 52.6837 461.044 52.7924ZM460.482 44.5683C459.82 44.9209 459.069 45.0712 458.322 45.0004C457.566 45.0679 456.806 44.918 456.133 44.5683C455.917 44.3874 455.748 44.1562 455.643 43.8949C455.537 43.6337 455.497 43.3505 455.527 43.0703C455.496 42.7921 455.535 42.5107 455.641 42.2515C455.747 41.9924 455.916 41.7639 456.133 41.5869C456.81 41.248 457.568 41.1033 458.322 41.1689C459.067 41.1001 459.817 41.2451 460.482 41.5869C460.691 41.7692 460.852 41.9994 460.953 42.2577C461.053 42.5161 461.089 42.7949 461.058 43.0703C461.088 43.3478 461.051 43.6284 460.951 43.8888C460.851 44.1493 460.69 44.3822 460.482 44.5683Z" fill="white"/>
<path d="M483.096 46.3403C483.455 45.9488 483.727 45.4862 483.896 44.9825C484.065 44.4788 484.126 43.9453 484.075 43.4165C484.122 42.728 484.004 42.0382 483.731 41.4044C483.458 40.7706 483.038 40.2112 482.505 39.7725C481.458 38.9566 479.734 38.5486 477.334 38.5484C475.888 38.4942 474.446 38.7394 473.1 39.2686C472.043 39.73 471.199 40.5735 470.737 41.6304C470.181 43.0407 469.926 44.5517 469.988 46.0664C469.938 47.5043 470.189 48.9368 470.724 50.2725C471.196 51.3492 472.046 52.2153 473.114 52.7066C474.493 53.2878 475.983 53.5582 477.478 53.4986C478.17 53.4986 478.89 53.4649 479.639 53.3975C480.375 53.3321 481.106 53.2215 481.828 53.0664C482.485 52.931 483.123 52.7182 483.729 52.4326L483.326 49.8115C482.347 49.9268 481.372 50.0083 480.402 50.0562C479.432 50.1045 478.62 50.1286 477.968 50.1284C477.243 50.1621 476.52 50.0342 475.851 49.7539C475.588 49.6173 475.356 49.4278 475.17 49.1972C474.984 48.9665 474.848 48.6999 474.77 48.4141C474.659 48.0527 474.582 47.6813 474.542 47.3052H479.609C480.851 47.4303 482.095 47.0861 483.096 46.3403ZM478.429 44.9146H474.468C474.478 44.2926 474.56 43.6739 474.713 43.0708C474.769 42.8141 474.881 42.5728 475.04 42.3637C475.199 42.1547 475.402 41.9831 475.635 41.8608C476.219 41.6231 476.848 41.5149 477.478 41.5439C478.132 41.4911 478.786 41.6261 479.365 41.9331C479.569 42.1014 479.728 42.3162 479.831 42.5594C479.934 42.8026 479.976 43.067 479.955 43.3301C479.978 43.7371 479.883 44.1422 479.682 44.4966C479.499 44.7754 479.081 44.9147 478.429 44.9146Z" fill="white"/>
<path d="M498.304 32.9883V36.8482C498.304 37.4819 498.319 38.1012 498.347 38.7061C498.366 39.0982 498.4 39.4849 498.431 39.8729C497.878 39.4813 497.266 39.1799 496.619 38.98C495.681 38.691 494.705 38.5453 493.724 38.5479C492.686 38.5128 491.655 38.7407 490.728 39.2105C489.869 39.7156 489.228 40.5212 488.928 41.4717C488.48 42.9108 488.28 44.4157 488.337 45.9219C488.226 47.8643 488.629 49.8017 489.504 51.5391C489.911 52.1938 490.491 52.7233 491.179 53.069C491.868 53.4148 492.639 53.5633 493.407 53.4981C494.593 53.5372 495.768 53.2535 496.806 52.6773C497.582 52.2217 498.268 51.6278 498.83 50.9251L499.197 53.1524H502.568V32.9883H498.304ZM497.498 49.3643C497.156 49.5749 496.788 49.7396 496.403 49.854C495.98 49.9672 495.544 50.0206 495.107 50.0127C494.629 50.0329 494.155 49.918 493.739 49.6812C493.336 49.3907 493.058 48.9584 492.96 48.4712C492.77 47.6256 492.688 46.7593 492.715 45.8931C492.685 44.9736 492.772 44.0541 492.975 43.1567C493.072 42.6543 493.361 42.2096 493.782 41.918C494.226 41.6882 494.723 41.579 495.222 41.6011C495.835 41.5909 496.446 41.6685 497.037 41.8315C497.418 41.9448 497.85 42.0721 498.304 42.206V48.84C498.016 49.0358 497.742 49.2166 497.498 49.3643Z" fill="white"/>
<path d="M60.8587 16.4493L62.6351 13.1989C62.6945 13.0903 62.7794 12.9978 62.8825 12.9292C62.9855 12.8607 63.1037 12.8183 63.2269 12.8056L66.9115 12.4263C67.0532 12.4117 67.188 12.3577 67.3006 12.2705C67.4133 12.1833 67.4993 12.0664 67.5489 11.9329C67.5986 11.7993 67.6098 11.6546 67.5815 11.515C67.5532 11.3754 67.4864 11.2465 67.3886 11.1429L64.8461 8.44898C64.7612 8.35894 64.6994 8.24961 64.6661 8.1304C64.6328 8.01119 64.629 7.88567 64.655 7.76466L65.4328 4.14309C65.4627 4.00381 65.453 3.85894 65.4049 3.72485C65.3568 3.59077 65.2721 3.47283 65.1605 3.38437C65.0488 3.29591 64.9146 3.24045 64.7731 3.22428C64.6315 3.20811 64.4883 3.23186 64.3596 3.29286L61.012 4.87831C60.9001 4.9313 60.7771 4.95629 60.6534 4.95112C60.5297 4.94596 60.4091 4.9108 60.3021 4.84867L57.098 2.9898C56.9748 2.91832 56.834 2.88273 56.6917 2.88707C56.5493 2.89141 56.4109 2.9355 56.2923 3.01434C56.1737 3.09319 56.0795 3.20366 56.0204 3.33325C55.9612 3.46285 55.9395 3.6064 55.9577 3.74768L56.4312 7.4215C56.447 7.54426 56.4327 7.66902 56.3896 7.78504C56.3464 7.90106 56.2758 8.00486 56.1836 8.0875L53.4257 10.5602C53.3196 10.6553 53.2423 10.7781 53.2024 10.9149C53.1625 11.0516 53.1617 11.1968 53.2 11.334C53.2384 11.4712 53.3143 11.595 53.4193 11.6913C53.5243 11.7875 53.6541 11.8525 53.7941 11.8789L57.4344 12.5639C57.5561 12.5868 57.6703 12.6389 57.7673 12.7158C57.8643 12.7927 57.9412 12.892 57.9912 13.0052L59.4907 16.3923C59.5483 16.5225 59.6413 16.6341 59.7591 16.7142C59.8768 16.7944 60.0146 16.8401 60.157 16.846C60.2993 16.8519 60.4405 16.8179 60.5645 16.7478C60.6885 16.6777 60.7904 16.5743 60.8587 16.4493Z" fill="#FFDA6E"/>
<path d="M64.7822 40.7102L68.4828 40.872C68.6065 40.8775 68.727 40.9129 68.8339 40.9753C68.9408 41.0376 69.031 41.125 69.0967 41.2299L71.0612 44.3702C71.1368 44.4909 71.2446 44.5882 71.3725 44.6508C71.5004 44.7135 71.6433 44.7392 71.7851 44.7249C71.9268 44.7106 72.0617 44.6569 72.1745 44.57C72.2873 44.483 72.3736 44.3662 72.4235 44.2328L73.7211 40.7633C73.7644 40.6474 73.8354 40.5437 73.9277 40.4613C74.02 40.3789 74.131 40.3201 74.2511 40.2901L77.8447 39.3921C77.9829 39.3575 78.1087 39.285 78.2079 39.1827C78.307 39.0805 78.3755 38.9525 78.4057 38.8132C78.4359 38.674 78.4266 38.5291 78.3787 38.395C78.3308 38.2608 78.2464 38.1427 78.1349 38.054L75.2363 35.7479C75.1395 35.6708 75.0628 35.5714 75.0129 35.4581C74.963 35.3448 74.9415 35.2211 74.95 35.0976L75.2065 31.4022C75.2163 31.2601 75.1862 31.1181 75.1196 30.9922C75.0529 30.8663 74.9524 30.7616 74.8293 30.6898C74.7063 30.6181 74.5656 30.5822 74.4232 30.5862C74.2808 30.5903 74.1424 30.6341 74.0236 30.7127L70.9345 32.7569C70.8313 32.8252 70.713 32.8673 70.5899 32.8798C70.4667 32.8922 70.3424 32.8745 70.2276 32.8282L66.7925 31.4424C66.6604 31.3891 66.516 31.3738 66.3757 31.3983C66.2354 31.4228 66.1047 31.486 65.9984 31.5809C65.8921 31.6758 65.8145 31.7985 65.7744 31.9352C65.7342 32.0719 65.7331 32.2171 65.7712 32.3544L66.7607 35.924C66.7938 36.0432 66.7974 36.1687 66.7711 36.2897C66.7449 36.4106 66.6896 36.5234 66.6101 36.6182L64.2305 39.457C64.1391 39.5662 64.0799 39.6988 64.0599 39.8398C64.0398 39.9808 64.0596 40.1246 64.117 40.255C64.1744 40.3854 64.2671 40.4971 64.3846 40.5775C64.5022 40.658 64.6399 40.7039 64.7822 40.7102Z" fill="#FFDA6E"/>
<path d="M70.3302 28.5456L74.8825 25.8477C75.0346 25.7575 75.2064 25.7057 75.383 25.6968C75.5596 25.6878 75.7357 25.7218 75.8962 25.796L80.6994 28.0166C80.8841 28.102 81.089 28.134 81.291 28.109C81.493 28.084 81.6839 28.003 81.8422 27.8751C82.0005 27.7473 82.1199 27.5777 82.1869 27.3855C82.2539 27.1933 82.2657 26.9863 82.2212 26.7877L81.062 21.6246C81.0233 21.452 81.0271 21.2727 81.073 21.1019C81.119 20.9312 81.2058 20.7742 81.326 20.6444L84.9222 16.7626C85.0605 16.6133 85.1543 16.4283 85.1929 16.2285C85.2315 16.0287 85.2135 15.822 85.1408 15.632C85.0681 15.4419 84.9437 15.2759 84.7817 15.1528C84.6196 15.0298 84.4263 14.9545 84.2237 14.9355L78.9552 14.4424C78.7791 14.4259 78.6097 14.3669 78.4615 14.2704C78.3133 14.1739 78.1908 14.0428 78.1046 13.8884L75.5239 9.26866C75.4246 9.09101 75.2777 8.94467 75.0996 8.84619C74.9215 8.7477 74.7194 8.70101 74.5162 8.71138C74.313 8.72175 74.1167 8.78877 73.9496 8.90487C73.7825 9.02096 73.6511 9.1815 73.5705 9.36833L71.4735 14.2267C71.4034 14.3891 71.2949 14.5319 71.1574 14.643C71.0198 14.7541 70.8573 14.8301 70.6838 14.8644L65.4928 15.8912C65.2932 15.9307 65.1086 16.0252 64.9599 16.1642C64.8111 16.3031 64.7043 16.4809 64.6513 16.6774C64.5984 16.8739 64.6015 17.0813 64.6603 17.2761C64.719 17.4709 64.8312 17.6454 64.9839 17.7799L68.9565 21.2756C69.0892 21.3924 69.1916 21.5398 69.2547 21.7049C69.3179 21.8701 69.3399 22.0481 69.3189 22.2237L68.6914 27.478C68.6672 27.6801 68.7001 27.8849 68.7863 28.0692C68.8724 28.2536 69.0085 28.4101 69.179 28.5212C69.3495 28.6323 69.5477 28.6934 69.7511 28.6977C69.9546 28.7021 70.1552 28.6494 70.3302 28.5456Z" fill="#FFDA6E"/>
</g>
<defs>
<clipPath id="clip0_3357_5860">
<rect width="533" height="91.064" fill="white"/>
</clipPath>
</defs>
</svg>
