<svg width="164" height="164" viewBox="0 0 164 164" fill="none" xmlns="http://www.w3.org/2000/svg">
<path d="M44.6388 19.3201L36.2206 19.3201L43.031 24.2682L40.4297 32.2743L47.2401 27.3263L54.0506 32.2743L51.4492 24.2682L58.2597 19.3201L49.8415 19.3201L47.2401 11.3139L44.6388 19.3201Z" fill="white"/>
<path d="M9.87886 79.526L1.46069 79.526L8.27113 84.4741L5.66978 92.4802L12.4802 87.5322L19.2907 92.4802L16.6893 84.4741L23.4998 79.526L15.0816 79.526L12.4802 71.5198L9.87886 79.526Z" fill="white"/>
<path d="M19.1927 114.286L10.7746 114.286L17.585 119.234L14.9837 127.24L21.7941 122.292L28.6046 127.24L26.0032 119.234L32.8137 114.286L24.3955 114.286L21.7941 106.28L19.1927 114.286Z" fill="white"/>
<path d="M44.6387 139.732L36.2206 139.732L43.031 144.68L40.4297 152.686L47.2401 147.738L54.0506 152.686L51.4492 144.68L58.2597 139.732L49.8415 139.732L47.2401 131.726L44.6387 139.732Z" fill="white"/>
<path d="M79.3987 149.046L70.9805 149.046L77.791 153.994L75.1896 162L82 157.052L88.8105 162L86.2091 153.994L93.0196 149.046L84.6014 149.046L82 141.04L79.3987 149.046Z" fill="white"/>
<path d="M114.159 139.713L105.74 139.713L112.551 144.661L109.949 152.667L116.76 147.719L123.57 152.667L120.969 144.661L127.779 139.713L119.361 139.713L116.76 131.707L114.159 139.713Z" fill="white"/>
<path d="M139.605 114.286L131.186 114.286L137.997 119.234L135.395 127.24L142.206 122.292L149.016 127.24L146.415 119.234L153.225 114.286L144.807 114.286L142.206 106.28L139.605 114.286Z" fill="white"/>
<path d="M148.918 79.526L140.5 79.526L147.311 84.4741L144.709 92.4802L151.52 87.5322L158.33 92.4802L155.729 84.4741L162.539 79.526L154.121 79.526L151.52 71.5198L148.918 79.526Z" fill="white"/>
<path d="M79.3987 10.0062H70.9805L77.791 14.9542L75.1896 22.9604L82 18.0123L88.8105 22.9604L86.2091 14.9542L93.0196 10.0062H84.6014L82 2L79.3987 10.0062Z" fill="white"/>
<path d="M114.159 19.3201L105.74 19.32L112.551 24.2682L109.949 32.2743L116.76 27.3262L123.57 32.2743L120.969 24.2682L127.779 19.32L119.361 19.3201L116.76 11.3139L114.159 19.3201Z" fill="white"/>
<path d="M139.605 44.7661L131.186 44.766L137.997 49.7142L135.395 57.7203L142.206 52.7723L149.016 57.7203L146.415 49.7142L153.225 44.766L144.807 44.7661L142.206 36.7599L139.605 44.7661Z" fill="white"/>
<path d="M19.1928 44.7661L10.7746 44.7661L17.585 49.7142L14.9837 57.7203L21.7941 52.7723L28.6046 57.7203L26.0032 49.7142L32.8137 44.7661L24.3955 44.7661L21.7941 36.7599L19.1928 44.7661Z" fill="white"/>
<path fill-rule="evenodd" clip-rule="evenodd" d="M105.541 93.6806V70.3194H114.302C116.096 70.3194 117.602 70.6312 118.819 71.2547C120.043 71.8783 120.967 72.7528 121.591 73.8783C122.222 74.9962 122.537 76.3004 122.537 77.7909C122.537 79.289 122.218 80.5893 121.579 81.692C120.948 82.7871 120.017 83.635 118.785 84.2357C118.64 84.3052 118.492 84.3706 118.34 84.432L123.393 93.6806H118.671L114.08 85.1255H109.773V93.6806H105.541ZM113.674 81.6121C114.724 81.6121 115.583 81.4676 116.252 81.1786C116.921 80.882 117.416 80.4524 117.735 79.8896C118.062 79.3193 118.226 78.6197 118.226 77.7908C118.226 76.9619 118.062 76.2546 117.735 75.6691C117.408 75.0759 116.91 74.6273 116.241 74.3231C115.572 74.0113 114.709 73.8554 113.651 73.8554H109.773V81.6121H113.674Z" fill="white"/>
<path fill-rule="evenodd" clip-rule="evenodd" d="M86.154 93.6806V70.3194H94.9145C96.7092 70.3194 98.2149 70.654 99.4316 71.3232C100.656 71.9924 101.58 72.9125 102.203 74.0836C102.835 75.2471 103.15 76.5703 103.15 78.0532C103.15 79.5513 102.835 80.8821 102.203 82.0456C101.572 83.2091 100.641 84.1255 99.4088 84.7947C98.1769 85.4563 96.6597 85.7871 94.8575 85.7871H90.386V93.6806H86.154ZM94.2871 82.3079C95.3365 82.3079 96.1958 82.1254 96.865 81.7603C97.5342 81.3953 98.0285 80.8934 98.3479 80.2546C98.6749 79.6159 98.8384 78.882 98.8384 78.0531C98.8384 77.2242 98.6749 76.4942 98.3479 75.863C98.0285 75.2318 97.5304 74.7413 96.8536 74.3915C96.1844 74.0341 95.3213 73.8554 94.2643 73.8554H90.3859V82.3079H94.2871Z" fill="white"/>
<path d="M72.0796 93.6806H64.1632V70.3194H72.2393C74.5587 70.3194 76.5511 70.7871 78.2165 71.7224C79.8895 72.6502 81.1746 73.9848 82.072 75.7262C82.9693 77.4677 83.418 79.5513 83.418 81.9772C83.418 84.4106 82.9655 86.5019 82.0606 88.2509C81.1632 90 79.8667 91.3422 78.1708 92.2776C76.4826 93.2129 74.4522 93.6806 72.0796 93.6806ZM68.3952 90.019H71.8743C73.5016 90.019 74.8591 89.7224 75.9465 89.1293C77.034 88.5285 77.8514 87.635 78.399 86.4487C78.9465 85.2547 79.2203 83.7642 79.2203 81.9772C79.2203 80.1901 78.9465 78.7072 78.399 77.5285C77.8514 76.3422 77.0416 75.4563 75.9693 74.8707C74.9047 74.2776 73.5815 73.981 71.9997 73.981H68.3952V90.019Z" fill="white"/>
<path d="M56.0632 76.1255C56.3978 76.6122 56.6602 77.1635 56.8503 77.7795H61.1621C60.9872 76.6312 60.6183 75.5817 60.0556 74.6312C59.4929 73.6806 58.7742 72.8593 57.8997 72.1673C57.0328 71.4753 56.0404 70.943 54.9225 70.5703C53.8047 70.1901 52.5993 70 51.3066 70C49.778 70 48.3636 70.2738 47.0632 70.8213C45.7628 71.3612 44.6297 72.1521 43.664 73.1939C42.6982 74.2281 41.9453 75.4867 41.4054 76.9696C40.8731 78.4525 40.6069 80.1369 40.6069 82.0228C40.6069 84.4867 41.0594 86.616 41.9643 88.4106C42.8769 90.1977 44.1431 91.578 45.7628 92.5513C47.3902 93.5171 49.2799 94 51.432 94C53.3636 94 55.0746 93.6084 56.5651 92.8251C58.0556 92.0342 59.2267 90.9088 60.0784 89.4487C60.9301 87.9886 61.356 86.2586 61.356 84.2586V81.4525H51.8769V84.7605H57.2596C57.2398 85.8317 57.0045 86.7709 56.5537 87.5779C56.0822 88.4144 55.4092 89.0608 54.5347 89.5171C53.6678 89.9734 52.6412 90.2015 51.4548 90.2015C50.1469 90.2015 48.9986 89.8859 48.01 89.2548C47.0214 88.616 46.2495 87.6844 45.6944 86.4601C45.1393 85.2357 44.8617 83.7414 44.8617 81.9772C44.8617 80.2281 45.1393 78.7452 45.6944 77.5285C46.2571 76.3042 47.029 75.3764 48.01 74.7452C48.991 74.1141 50.1088 73.7985 51.3636 73.7985C52.0632 73.7985 52.7096 73.8897 53.3027 74.0722C53.8959 74.2471 54.4206 74.5095 54.8769 74.8593C55.3408 75.2091 55.7362 75.6312 56.0632 76.1255Z" fill="white"/>
</svg>
