<svg xmlns="http://www.w3.org/2000/svg" width="533" height="92" fill="none"><g clip-path="url(#A)"><path d="M498.095 18.724H86.513l.243-.263c.28-.305.505-.656.665-1.037.177-.411.275-.852.288-1.3.028-.912-.293-1.8-.898-2.484s-1.447-1.111-2.355-1.195l-4.531-.424-1.273-2.279-.651-1.166-.295-.528c-.314-.57-.778-1.044-1.341-1.37s-1.205-.492-1.856-.479-1.286.202-1.837.549-.996.838-1.289 1.419l-2.177-.895-1.75-.648.275-1.282.145-.676c.041-.207.063-.418.064-.629a3.25 3.25 0 0 0-.927-2.346 3.25 3.25 0 0 0-2.326-.976c-.484 0-.962.107-1.399.315l-2.106.998-.416.197-.859-.499-1.555-.902a3.33 3.33 0 0 0-4.092.67c-.384.473-.643 1.036-.752 1.635a96.23 96.23 0 0 0-15.133-1.166c-14.213 0-24.609 2.886-30.827 5.307a55.93 55.93 0 0 0-4.223 1.831C1.685 9.898.701 11.593.701 13.415v43.525c0 .94.256 1.858.78 2.638 3.699 5.509 13.885 18.392 34.515 30.158a4.8 4.8 0 0 0 4.758-.002l.253-.145 2.219-1.3 1.638-.997c.319-.197.686-.303 1.061-.303h452.171c9.053 0 17.735-3.596 24.136-9.997s9.998-15.083 9.998-24.136-3.597-17.735-9.998-24.136-15.083-9.997-24.136-9.997z" fill="#141414"/><g fill="#6ece9d"><path d="M62.966 42.64a3.26 3.26 0 0 1-1.138-1.378 3.33 3.33 0 0 1-.251-.887L42.879 58.003 26.348 41.471l6.621-6.621 9.884 9.884L65.779 21.81l-1.956-1.721-20.97 20.97-9.884-9.884L22.67 41.471l20.156 20.155 20.14-18.986zm-23.33 29.2a1.3 1.3 0 0 0-.597-.796C26.544 63.65 19.996 56.106 17.101 52.065V22.239c6.802-2.532 14.019-3.765 21.275-3.633a1.3 1.3 0 1 0 0-2.6c-10.877 0-18.554 2.262-23.078 4.159l-.797.334v32.389l.235.336c2.887 4.121 9.711 12.207 22.978 20.057a1.3 1.3 0 0 0 1.922-1.442zm1.421 9.749l1.822-1.055c17.237-10.202 24.961-21.289 27.008-24.62l.192-.313v-8.812c-.463-.265-.855-.641-1.139-1.093L67.567 43.5h-.087v11.362c-2.09 3.31-8.793 12.578-22.983 21.629l-1.863 1.158-1.836 1.091-2.421 1.368C19.939 70.031 11.643 58.611 9.274 54.856V17.729a43.62 43.62 0 0 1 5.159-2.389c7.658-2.84 15.776-4.237 23.942-4.12a74.4 74.4 0 0 1 12.502 1.026l-.027-.071c-.021-.055-.042-.111-.058-.169a3.24 3.24 0 0 1 .244-2.367A77.15 77.15 0 0 0 38.375 8.62a68.74 68.74 0 0 0-24.886 4.296 44.64 44.64 0 0 0-6.168 2.928l-.647.376v39.374l.192.313C9.06 59.479 17.775 71.972 37.759 82.73l.616.332.616-.332.14-.077.127-.07 1.798-.995z"/></g><g fill="#fff"><path d="M97.041 64.213a3.6 3.6 0 0 0-1.115.18 4.2 4.2 0 0 0-1.074.533 6.06 6.06 0 0 0-.891.764 5.7 5.7 0 0 0 .121-.854l.023-.934v-2.984h-1.393v11.099a6.68 6.68 0 0 0 .859.254l.959.181.969.106.885.033a4.69 4.69 0 0 0 1.713-.27 2.46 2.46 0 0 0 1.082-.803 3.37 3.37 0 0 0 .574-1.32c.122-.599.18-1.209.172-1.82.094-1.115-.152-2.232-.705-3.205-.257-.327-.59-.585-.97-.752a2.53 2.53 0 0 0-1.21-.207zm1.229 5.959c-.102.388-.344.724-.68.943a2.51 2.51 0 0 1-1.238.295c-.252 0-.516-.008-.795-.024a6.79 6.79 0 0 1-.852-.106l-.602-.146-.011-4.508a12.84 12.84 0 0 1 1.211-.847 2.39 2.39 0 0 1 1.246-.353 2.13 2.13 0 0 1 1.188.279c.304.224.512.555.582.926a7.37 7.37 0 0 1 .164 1.746 6.05 6.05 0 0 1-.213 1.795zm8.165.188l-.246.705-.095.263h-.233a3.85 3.85 0 0 0-.131-.484l-.164-.483-2.115-5.951h-1.493l2.903 7.623c.031.107.098.2.189.263a.51.51 0 0 0 .303.098h.323l-.143.344a3.87 3.87 0 0 1-.836 1.279 3.67 3.67 0 0 1-1.492.836l.13.918c.45-.012.894-.113 1.305-.295a3.39 3.39 0 0 0 .983-.68 4.52 4.52 0 0 0 .714-.926c.192-.33.356-.676.491-1.033l3.197-8.427h-1.508l-2.082 5.951zm13.639-.359l-.237.697-.254.697h-.214l-.229-.688-.246-.705-1.967-5.59h-1.492l2.918 7.64c.038.103.107.192.197.254s.19.092.295.09h1.262a.5.5 0 0 0 .303-.09c.089-.062.152-.153.189-.254l2.918-7.64h-1.474l-1.969 5.59zm11.158-5.55a4.18 4.18 0 0 0-1.5-.237l-1.279.049-1.354.131-1.221.18.131 1.033 1.862-.148 1.564-.065a1.9 1.9 0 0 1 1.287.32c.125.144.22.312.278.494s.078.373.06.563v.705h-3.328c-.59-.037-1.172.148-1.633.517a1.84 1.84 0 0 0-.582 1.451v.869a2.3 2.3 0 0 0 .305 1.221 1.9 1.9 0 0 0 .844.754 2.9 2.9 0 0 0 1.246.254 3.83 3.83 0 0 0 1.22-.188 4.93 4.93 0 0 0 1.034-.476 5.31 5.31 0 0 0 .802-.59l.239-.229.164 1.335h1.097V66.77a3.15 3.15 0 0 0-.31-1.524c-.204-.367-.532-.65-.926-.795zm-.828 6.189a4.96 4.96 0 0 1-1.172.533 3.73 3.73 0 0 1-1.041.172 1.33 1.33 0 0 1-.951-.287 1.23 1.23 0 0 1-.241-.425c-.051-.156-.069-.321-.054-.485v-.508c-.017-.283.064-.564.228-.795.104-.106.229-.189.368-.241a1.01 1.01 0 0 1 .435-.062l3.084-.013v1.612a4.54 4.54 0 0 1-.656.499zm7.984.623a1.14 1.14 0 0 1-.812-.27 1.03 1.03 0 0 1-.228-.367 1.02 1.02 0 0 1-.059-.428l.017-9.279h-1.394v9.591c-.019.274.019.55.111.809s.235.497.422.699a1.93 1.93 0 0 0 1.418.524c.131 0 .293-.008.484-.024l.557-.074a1.89 1.89 0 0 0 .418-.115l-.164-1.066h-.77zm6.606-1.262l-.237.697-.254.697h-.214l-.229-.688-.246-.705-1.967-5.59h-1.492l2.918 7.64c.038.103.107.192.197.254s.19.092.295.09h1.262a.5.5 0 0 0 .303-.09c.089-.062.152-.153.189-.254l2.918-7.64h-1.475l-1.968 5.59zm7.412-5.591h-1.377v7.984h1.377V64.41zm-1.018-3.394h.656a.43.43 0 0 1 .426.426v.935c0 .113-.045.221-.125.301s-.188.125-.301.125h-.656c-.113 0-.221-.045-.301-.125s-.125-.188-.125-.301v-.936c0-.113.045-.221.125-.301s.188-.125.301-.125zm8.969 7.066l-2.328-.525a2.66 2.66 0 0 1-.869-.328.92.92 0 0 1-.25-.373.93.93 0 0 1-.045-.447c-.024-.255.042-.51.187-.722.166-.16.385-.254.616-.262.387-.036.775-.047 1.164-.033l1.515.024 1.518.058.115-1.017-1.074-.131-1.172-.082-1.115-.033c-.594-.022-1.189.027-1.772.147a1.63 1.63 0 0 0-1.015.639c-.247.427-.361.918-.328 1.41a2.89 2.89 0 0 0 .179 1.09 1.58 1.58 0 0 0 .574.705 3.23 3.23 0 0 0 1.049.434l2.295.525c.321.065.631.175.92.328a.83.83 0 0 1 .282.346c.06.139.082.291.062.442.019.256-.057.509-.213.713-.198.185-.453.298-.723.32a9.33 9.33 0 0 1-1.41.082h-.99a17.15 17.15 0 0 1-.928-.024l-.836-.041-.097 1.016a15.55 15.55 0 0 0 1.861.197l1.269.033a9.27 9.27 0 0 0 1.918-.164 1.82 1.82 0 0 0 1.124-.656 2.45 2.45 0 0 0 .369-1.476 2.11 2.11 0 0 0-.452-1.492 2.79 2.79 0 0 0-1.4-.705zm5.293-7.066h.656a.43.43 0 0 1 .428.428v.933c0 .113-.045.221-.125.301s-.188.125-.301.125h-.656a.43.43 0 0 1-.428-.428v-.933c0-.113.045-.221.125-.301s.188-.125.301-.125zm1.017 3.394h-1.376v7.984h1.376V64.41zm9.141.213a6.1 6.1 0 0 0-4.394 0 2.43 2.43 0 0 0-1.198 1.336c-.492 1.597-.492 3.305 0 4.902.214.582.642 1.06 1.198 1.336a6.1 6.1 0 0 0 4.394 0c.554-.275.979-.754 1.188-1.336a8.51 8.51 0 0 0 0-4.902 2.4 2.4 0 0 0-1.188-1.336zm-.107 5.607a1.52 1.52 0 0 1-.268.535 1.53 1.53 0 0 1-.453.391 2.96 2.96 0 0 1-1.377.27 2.89 2.89 0 0 1-1.369-.27 1.52 1.52 0 0 1-.449-.392 1.53 1.53 0 0 1-.264-.534 7.83 7.83 0 0 1 0-3.64 1.53 1.53 0 0 1 .264-.534 1.52 1.52 0 0 1 .449-.392 2.89 2.89 0 0 1 1.369-.27c.474-.022.946.071 1.377.27a1.53 1.53 0 0 1 .453.391 1.52 1.52 0 0 1 .268.535 7.88 7.88 0 0 1 0 3.64zm14.484 1.115l-.843.049-.641.016c-.516.022-1.03-.067-1.508-.262a1.57 1.57 0 0 1-.495-.382 1.55 1.55 0 0 1-.307-.545c-.186-.591-.269-1.209-.247-1.828a5.34 5.34 0 0 1 .247-1.819c.065-.199.17-.383.308-.54a1.59 1.59 0 0 1 .494-.378 3.6 3.6 0 0 1 1.508-.262l1.025.024 1.139.074.182-.902a4.85 4.85 0 0 0-.862-.23l-.91-.115-.802-.033a5.15 5.15 0 0 0-2.213.401c-.559.268-.993.741-1.213 1.32-.281.788-.409 1.623-.377 2.459a6.72 6.72 0 0 0 .367 2.46 2.43 2.43 0 0 0 1.205 1.328 5.07 5.07 0 0 0 2.215.41 10.2 10.2 0 0 0 1.418-.099 6.7 6.7 0 0 0 1.318-.311l-.146-.934-.862.098zm9.41-6.722a5.01 5.01 0 0 0-2.205-.41c-.751-.031-1.499.109-2.187.41a2.43 2.43 0 0 0-1.198 1.336c-.492 1.597-.492 3.305 0 4.902.214.582.642 1.06 1.198 1.336a4.96 4.96 0 0 0 2.187.41 5.01 5.01 0 0 0 2.205-.41 2.39 2.39 0 0 0 1.19-1.336 8.54 8.54 0 0 0 0-4.902c-.209-.582-.636-1.061-1.19-1.336zm-.105 5.607c-.053.195-.144.377-.269.536s-.278.292-.454.391c-.43.2-.903.293-1.377.271a2.9 2.9 0 0 1-1.369-.271 1.53 1.53 0 0 1-.713-.926 7.88 7.88 0 0 1 0-3.64 1.53 1.53 0 0 1 .713-.926 2.9 2.9 0 0 1 1.369-.27c.474-.022.947.071 1.377.27a1.52 1.52 0 0 1 .723.927 7.88 7.88 0 0 1 0 3.64zm9.623-6.017a4.52 4.52 0 0 0-1.821.401 8.86 8.86 0 0 0-1.758 1.057l-.095-1.262h-1.18v7.984h1.393v-5.742l1.607-.897a3.34 3.34 0 0 1 1.477-.361 1.12 1.12 0 0 1 .885.303c.208.329.3.719.261 1.107v5.59h1.395v-5.984a1.94 1.94 0 0 0-.073-.883 1.93 1.93 0 0 0-1.21-1.228c-.283-.097-.585-.126-.881-.086zm10 3.869l-2.328-.525a2.68 2.68 0 0 1-.869-.328.92.92 0 0 1-.249-.373c-.052-.143-.068-.296-.046-.446a1.08 1.08 0 0 1 .189-.722c.165-.16.384-.253.613-.262a9.04 9.04 0 0 1 1.165-.033l1.517.024 1.516.058.115-1.017-1.074-.131-1.172-.082-1.115-.033c-.594-.022-1.188.027-1.77.147-.408.076-.771.305-1.017.639-.247.427-.361.918-.329 1.41-.011.372.051.742.182 1.09a1.56 1.56 0 0 0 .574.705 3.21 3.21 0 0 0 1.049.435l2.295.525a3.41 3.41 0 0 1 .918.328.82.82 0 0 1 .282.345.83.83 0 0 1 .062.442c.02.256-.056.51-.213.713-.198.185-.451.297-.721.32-.467.063-.939.09-1.41.082h-.992a17.13 17.13 0 0 1-.926-.024l-.836-.041-.099 1.016a15.55 15.55 0 0 0 1.861.197l1.271.033c.644.012 1.286-.043 1.918-.164a1.83 1.83 0 0 0 1.123-.656c.277-.44.406-.957.369-1.476.046-.537-.115-1.071-.451-1.492a2.79 2.79 0 0 0-1.402-.704zm10.264 2.156c-.468.306-.952.585-1.452.836a3.05 3.05 0 0 1-1.336.32 1.31 1.31 0 0 1-.524-.055 1.32 1.32 0 0 1-.46-.257c-.226-.306-.326-.688-.279-1.065V64.41h-1.393v6a1.94 1.94 0 0 0 .076.885 1.93 1.93 0 0 0 .465.758c.211.213.469.374.754.47a1.93 1.93 0 0 0 .885.083 4.46 4.46 0 0 0 1.779-.377c.592-.268 1.15-.606 1.66-1.009l.102 1.173h1.115V64.41h-1.392v5.828zm7.377 1.025a1.14 1.14 0 0 1-.813-.27c-.101-.105-.178-.23-.228-.367a1.04 1.04 0 0 1-.059-.428l.018-9.279h-1.395v9.591c-.018.274.019.55.111.809s.235.497.422.699a1.93 1.93 0 0 0 1.418.524l.485-.024.556-.074a1.89 1.89 0 0 0 .418-.115l-.164-1.066h-.769zm5.312-9.214h-1.395v2.368l-1.443.075v1.017h1.443v4.869a2.26 2.26 0 0 0 .526 1.607 1.99 1.99 0 0 0 1.523.557l.526-.024.671-.074c.205-.028.407-.066.608-.115l-.164-1.066h-1.213a1.16 1.16 0 0 1-.838-.246 1.14 1.14 0 0 1-.244-.82v-4.689h2.541V64.41h-2.541v-2.361zm6.623 2.361h-1.377v7.984h1.377V64.41zm-1.018-3.394h.657c.113 0 .221.045.301.125s.124.188.124.301v.935c0 .113-.044.221-.124.301a.43.43 0 0 1-.302.125h-.656c-.113 0-.221-.045-.301-.125s-.124-.188-.124-.301v-.936c0-.113.044-.221.124-.301s.188-.125.301-.125zm9.428 3.197c-.628.006-1.248.142-1.82.401a8.79 8.79 0 0 0-1.758 1.057l-.096-1.262h-1.179v7.984h1.392v-5.742l1.608-.897a3.34 3.34 0 0 1 1.476-.361 1.13 1.13 0 0 1 .476.055c.153.052.292.137.409.248a1.74 1.74 0 0 1 .262 1.107v5.59h1.394v-5.984c.045-.296.02-.598-.073-.883a1.93 1.93 0 0 0-1.21-1.228 1.92 1.92 0 0 0-.881-.086zm8.77 0c-.687-.023-1.374.066-2.033.262a1.88 1.88 0 0 0-1.074.828c-.231.454-.34.959-.319 1.467a2.84 2.84 0 0 0 .319 1.427c.18.282.435.507.736.652a1.34 1.34 0 0 0-.401.406 1.73 1.73 0 0 0-.244.688c-.033.245-.011.495.065.73a1.36 1.36 0 0 0 .418.623c.022.02.054.03.079.048a4.15 4.15 0 0 0-.669.428c-.211.169-.38.385-.492.631-.112.278-.165.577-.156.877a2.92 2.92 0 0 0 .197 1.147c.134.31.36.57.648.746a3.2 3.2 0 0 0 1.188.41 11.4 11.4 0 0 0 1.82.123 8.88 8.88 0 0 0 2.262-.23 1.96 1.96 0 0 0 1.189-.77c.257-.448.379-.96.352-1.476.036-.549-.121-1.094-.442-1.541a2.41 2.41 0 0 0-1.574-.705l-2.984-.475a.76.76 0 0 1-.762-.663c-.016-.122-.002-.247.041-.362a1.2 1.2 0 0 1 .165-.351 7.18 7.18 0 0 0 1.655.163 6.19 6.19 0 0 0 2.032-.27 1.91 1.91 0 0 0 1.074-.836c.211-.453.32-.947.32-1.447s-.109-.994-.32-1.447c-.005-.007-.013-.012-.017-.019l1.189-.096.082-.77h-2.551a6.89 6.89 0 0 0-1.793-.197zm2.016 8a.71.71 0 0 1 .402.328c.081.197.118.41.107.623.018.294-.057.586-.213.836a1.19 1.19 0 0 1-.746.41 7.56 7.56 0 0 1-1.5.115 8.29 8.29 0 0 1-1.509-.106 1.17 1.17 0 0 1-.754-.402 1.44 1.44 0 0 1-.213-.853 1.74 1.74 0 0 1 .107-.647 1.59 1.59 0 0 1 .328-.508 4.12 4.12 0 0 1 .412-.364l2.711.372a4.14 4.14 0 0 1 .868.197zm-.36-4.328c-.527.227-1.094.344-1.668.344s-1.141-.117-1.668-.344a1.61 1.61 0 0 1 0-2.271c.528-.222 1.095-.336 1.668-.336s1.14.114 1.668.336a1.63 1.63 0 0 1 0 2.271zM104.687 51.047l.421 2.106h3.255V41.688h-4.262v7.099l-.606.318a6.18 6.18 0 0 1-1.325.476 6.79 6.79 0 0 1-1.584.173 3.17 3.17 0 0 1-2.017-.591c-.574-.526-.95-1.232-1.065-2.002a18.58 18.58 0 0 1-.317-3.889 21.24 21.24 0 0 1 .217-3.356 4.98 4.98 0 0 1 .705-2.017c.314-.461.777-.802 1.311-.965a6.95 6.95 0 0 1 2.06-.259l1.988.015 1.901.043 1.958.086.346-3.197c-.617-.192-1.248-.337-1.887-.432l-2.03-.23-2.363-.086c-1.783-.076-3.561.254-5.199.965a5.63 5.63 0 0 0-2.794 3.212c-.639 1.98-.927 4.057-.851 6.136-.052 2.004.171 4.005.663 5.948.308 1.318 1.042 2.497 2.088 3.356 1.074.748 2.365 1.123 3.673 1.066.945.017 1.884-.15 2.765-.49a7.99 7.99 0 0 0 2.06-1.181 8.22 8.22 0 0 0 .889-.838zm16.984 2.394a13.66 13.66 0 0 0 3.99-.504 5.53 5.53 0 0 0 2.622-1.657 7.24 7.24 0 0 0 1.454-3.126 22.21 22.21 0 0 0 .461-4.94c.031-1.659-.123-3.316-.461-4.94-.226-1.144-.725-2.216-1.454-3.125a5.55 5.55 0 0 0-2.622-1.656 13.66 13.66 0 0 0-3.99-.504l-4.191.086-3.615.202v19.876l3.63.202 4.176.086zm0-17.082a3.94 3.94 0 0 1 2.32.605 3.46 3.46 0 0 1 1.209 2.103 18.63 18.63 0 0 1 .36 4.148 18.57 18.57 0 0 1-.36 4.148 3.39 3.39 0 0 1-1.209 2.088c-.695.429-1.504.635-2.32.591a113.76 113.76 0 0 1-3.355-.044l-.044-.002V36.375l.26-.001 3.139-.015zm25.897-2.794a13.25 13.25 0 0 0-4.379-.576l-3.039.014-2.318.072-2.277.202v19.876h4.407v-7.416l1.21.128 2.593.115c1.348.049 2.694-.141 3.976-.561.467-.169.896-.432 1.26-.771s.655-.748.857-1.203c.488-1.256.708-2.6.647-3.946.063-1.349-.168-2.696-.676-3.947-.224-.466-.54-.882-.928-1.224a3.85 3.85 0 0 0-1.333-.764zm-1.743 7.864a1.62 1.62 0 0 1-.359.575 1.61 1.61 0 0 1-.563.376 5.36 5.36 0 0 1-1.8.288h-3.141v-6.353l3.141-.013c.612-.026 1.223.067 1.8.274a1.66 1.66 0 0 1 .922.965c.208.631.301 1.295.273 1.959a5.4 5.4 0 0 1-.273 1.93zm25.363 11.723l-1.728-6.193a4.07 4.07 0 0 0-.72-1.656 3.65 3.65 0 0 0-1.052-.936 3.31 3.31 0 0 0-1.08-.403v-.144a4.63 4.63 0 0 0 2.277-.807 3.47 3.47 0 0 0 1.195-1.685c.252-.786.374-1.608.359-2.434a6.98 6.98 0 0 0-.762-3.558 4.17 4.17 0 0 0-2.392-1.815 13.98 13.98 0 0 0-4.248-.533l-3.054.014-2.333.072-2.276.202v19.876h4.35v-7.791l3.14.013c.494-.028.984.103 1.397.375.398.354.666.83.763 1.354l1.527 6.049h4.637zm-5.458-12.214a1.57 1.57 0 0 1-.951.879 5.55 5.55 0 0 1-1.829.245h-3.226v-5.748l3.226-.014a5.55 5.55 0 0 1 1.829.245 1.57 1.57 0 0 1 .568.331 1.58 1.58 0 0 1 .383.533 5.82 5.82 0 0 1 0 3.528zm30 8.873l-1.642.158-1.555.072-1.181.029a4.97 4.97 0 0 1-2.046-.346 2.09 2.09 0 0 1-.667-.508c-.186-.213-.326-.461-.413-.73a7.4 7.4 0 0 1-.331-2.478c-.031-.824.081-1.648.331-2.434.088-.266.23-.512.415-.722a2.09 2.09 0 0 1 .665-.502 4.97 4.97 0 0 1 2.046-.346l1.887.029 2.203.058.461-2.679a8.19 8.19 0 0 0-1.714-.533c-.613-.123-1.234-.21-1.857-.259l-1.701-.072a10.3 10.3 0 0 0-4.205.72 4.41 4.41 0 0 0-2.29 2.362 11.27 11.27 0 0 0-.706 4.378 11.48 11.48 0 0 0 .692 4.379 4.42 4.42 0 0 0 2.26 2.377 10.1 10.1 0 0 0 4.221.734 18.79 18.79 0 0 0 2.909-.23 10.22 10.22 0 0 0 2.621-.749l-.403-2.708zm18.162-8.152a4.45 4.45 0 0 0-2.318-2.376 12.87 12.87 0 0 0-8.57 0 4.51 4.51 0 0 0-2.348 2.377c-.534 1.406-.779 2.905-.72 4.407a11 11 0 0 0 .72 4.35 4.45 4.45 0 0 0 2.348 2.362 13.11 13.11 0 0 0 8.57 0c1.051-.455 1.883-1.303 2.318-2.362.522-1.389.762-2.867.707-4.35a11.36 11.36 0 0 0-.707-4.407zm-3.989 7.086c-.053.267-.159.521-.313.746a2.02 2.02 0 0 1-.579.564 4.33 4.33 0 0 1-1.729.36c-.595 0-1.183-.123-1.728-.36-.23-.147-.427-.339-.581-.564s-.26-.479-.313-.746c-.198-.879-.285-1.779-.259-2.679a10.9 10.9 0 0 1 .259-2.707 2.07 2.07 0 0 1 .315-.752 2.08 2.08 0 0 1 .579-.574 4.17 4.17 0 0 1 1.728-.374 4.18 4.18 0 0 1 1.729.374 2.09 2.09 0 0 1 .578.574 2.08 2.08 0 0 1 .314.751c.199.888.286 1.798.259 2.707a10.68 10.68 0 0 1-.259 2.679zm24.83-6.452a3.28 3.28 0 0 1 .98-.144c.218-.024.438-.001.646.066a1.56 1.56 0 0 1 .564.323 1.92 1.92 0 0 1 .346 1.282v9.333h4.234V42.494a3.53 3.53 0 0 0-1.008-2.938c-.381-.38-.843-.669-1.353-.844a3.53 3.53 0 0 0-1.585-.164 6.28 6.28 0 0 0-2.867.677c-.85.451-1.636 1.015-2.336 1.676-.142-.51-.408-.978-.775-1.359a3.92 3.92 0 0 0-2.894-.994 6.25 6.25 0 0 0-2.881.677 11.53 11.53 0 0 0-2.549 1.861l-.331-2.163h-3.4v14.23h4.263v-9.82l1.052-.607a5.86 5.86 0 0 1 1.095-.446 3.64 3.64 0 0 1 .964-.13 1.67 1.67 0 0 1 1.196.374 1.77 1.77 0 0 1 .324.609c.067.222.089.456.064.687v9.333h4.091v-9.764l1.095-.635a6.7 6.7 0 0 1 1.065-.461zm21.547-3.716c-.762-.001-1.52.116-2.246.346-.709.22-1.383.54-2.002.951-.499.332-.945.737-1.323 1.202l-.334-2.152h-3.457v19.703h4.263v-3.428l-.014-1.858-.088-1.235c.576.44 1.225.776 1.918.991a9.69 9.69 0 0 0 2.909.432 6.2 6.2 0 0 0 2.981-.648c.857-.505 1.494-1.312 1.786-2.262a13.42 13.42 0 0 0 .59-4.465 11.21 11.21 0 0 0-1.151-5.617c-.394-.65-.961-1.178-1.638-1.524a4.09 4.09 0 0 0-2.194-.435zm.36 10.327a1.91 1.91 0 0 1-.27.706c-.136.215-.313.401-.522.547a2.92 2.92 0 0 1-1.469.317 6.87 6.87 0 0 1-1.8-.216l-1.398-.401V43.16a12.69 12.69 0 0 1 1.671-.968c.533-.243 1.114-.367 1.7-.36a2.33 2.33 0 0 1 1.354.36 2.13 2.13 0 0 1 .749 1.296 11.99 11.99 0 0 1 .23 2.693 11.42 11.42 0 0 1-.245 2.722zm15.541 1.138a1.93 1.93 0 0 1-1.267-.36 1.32 1.32 0 0 1-.433-1.08l.029-15.613h-4.263v16.679a3.6 3.6 0 0 0 .249 1.536 3.59 3.59 0 0 0 .875 1.287 4.4 4.4 0 0 0 3.052 1.008 10.82 10.82 0 0 0 1.124-.072l1.296-.202c.338-.059.667-.161.98-.302l-.49-2.88h-1.152zm9.851-11.119h-4.235v14.23h4.235v-14.23zm-1.181-6.28h-1.844c-.174-.023-.351-.005-.518.053a1.13 1.13 0 0 0-.708.725 1.13 1.13 0 0 0-.041.519v1.526a1.13 1.13 0 0 0 .309.965 1.14 1.14 0 0 0 .958.332h1.844a1.13 1.13 0 0 0 .518-.053 1.14 1.14 0 0 0 .708-.725c.054-.167.068-.345.041-.519V33.94a1.13 1.13 0 0 0-.041-.519c-.054-.168-.146-.32-.268-.446s-.274-.221-.44-.279a1.13 1.13 0 0 0-.518-.053zm17.341 6.38c-.971-.341-1.995-.502-3.024-.475l-2.42.101-2.708.245-2.391.346.404 2.823 3.37-.187 2.736-.072c.637-.071 1.277.093 1.801.461a1.98 1.98 0 0 1 .387.686c.081.252.111.519.088.783v.663h-5.157a4.83 4.83 0 0 0-3.168.951 3.24 3.24 0 0 0-1.152 2.65v1.469a3.87 3.87 0 0 0 .604 2.218 3.8 3.8 0 0 0 1.643 1.354c.736.316 1.531.473 2.333.461a6.1 6.1 0 0 0 2.362-.432 7.54 7.54 0 0 0 1.815-1.051 7.82 7.82 0 0 0 1.166-1.138l.447 2.276h3.399v-9.391a6.34 6.34 0 0 0-.648-3.126 3.59 3.59 0 0 0-1.887-1.613zm-1.959 10.154a8.08 8.08 0 0 1-1.743.893c-.52.199-1.07.306-1.627.317-.466.042-.93-.098-1.297-.389-.14-.147-.248-.321-.317-.512a1.46 1.46 0 0 1-.086-.597v-.691c-.019-.366.099-.726.332-1.008a1.42 1.42 0 0 1 .514-.307 1.41 1.41 0 0 1 .594-.068l3.831-.017v2.225l-.201.155zm19.761-10.629a7.91 7.91 0 0 0-3.155.691 12.45 12.45 0 0 0-2.951 1.849l-.376-2.166h-3.428v14.23h4.263v-9.753c.646-.333 1.31-.63 1.988-.89.608-.232 1.252-.354 1.902-.36a1.59 1.59 0 0 1 .626.061c.203.062.392.164.554.299.273.379.396.846.346 1.31v9.333h4.263V42.494c0-2.631-1.344-3.946-4.032-3.946zm19.501 11.421l-1.556.072-1.181.029a4.97 4.97 0 0 1-2.046-.346 2.09 2.09 0 0 1-.667-.508c-.186-.213-.326-.461-.413-.73a7.4 7.4 0 0 1-.331-2.478c-.031-.824.081-1.648.331-2.434a2.1 2.1 0 0 1 .415-.722 2.09 2.09 0 0 1 .665-.502 4.97 4.97 0 0 1 2.046-.346l1.887.029 2.203.058.461-2.679a8.19 8.19 0 0 0-1.714-.533 15.68 15.68 0 0 0-1.857-.259l-1.7-.072a10.28 10.28 0 0 0-4.205.72 4.4 4.4 0 0 0-2.29 2.362 11.25 11.25 0 0 0-.707 4.378 11.48 11.48 0 0 0 .692 4.379 4.42 4.42 0 0 0 2.261 2.377 10.09 10.09 0 0 0 4.22.734 18.78 18.78 0 0 0 2.91-.23c.903-.131 1.784-.383 2.621-.749l-.404-2.708-1.641.158zm18.926-3.629c.359-.392.631-.854.8-1.358a3.78 3.78 0 0 0 .179-1.566 4.34 4.34 0 0 0-.344-2.012c-.273-.634-.693-1.193-1.226-1.632-1.047-.816-2.77-1.224-5.171-1.224a10.5 10.5 0 0 0-4.234.72 4.58 4.58 0 0 0-2.363 2.362 10.88 10.88 0 0 0-.749 4.436c-.05 1.438.201 2.87.736 4.206a4.8 4.8 0 0 0 2.39 2.434 10.19 10.19 0 0 0 4.365.792l2.16-.101c.736-.065 1.467-.176 2.189-.331.657-.136 1.295-.348 1.902-.634l-.404-2.621-2.924.245-2.434.072c-.725.034-1.448-.094-2.117-.375-.263-.137-.495-.326-.681-.557a2.13 2.13 0 0 1-.399-.783 5.83 5.83 0 0 1-.229-1.109h5.067a5 5 0 0 0 3.487-.965zm-4.667-1.426h-3.961a8.02 8.02 0 0 1 .245-1.844 1.8 1.8 0 0 1 .327-.707c.159-.209.362-.381.595-.503a4.36 4.36 0 0 1 1.844-.317 3.43 3.43 0 0 1 1.886.389 1.64 1.64 0 0 1 .59 1.397 2.12 2.12 0 0 1-.273 1.166c-.183.279-.6.418-1.253.418zm36.698-6.366a6.28 6.28 0 0 0-2.867.677c-.85.451-1.636 1.015-2.336 1.676-.141-.51-.408-.978-.775-1.359a3.92 3.92 0 0 0-1.346-.791c-.497-.171-1.024-.24-1.548-.203a6.25 6.25 0 0 0-2.881.677 11.53 11.53 0 0 0-2.549 1.861l-.331-2.163h-3.4v14.23h4.263v-9.82l1.052-.607a5.86 5.86 0 0 1 1.095-.446 3.64 3.64 0 0 1 .964-.13 1.67 1.67 0 0 1 1.196.374 1.77 1.77 0 0 1 .324.609c.067.222.089.456.064.687v9.333h4.091v-9.764l1.095-.635a6.71 6.71 0 0 1 1.065-.461 3.29 3.29 0 0 1 .98-.144 1.56 1.56 0 0 1 1.21.389 1.92 1.92 0 0 1 .346 1.282v9.333h4.234V42.494a3.53 3.53 0 0 0-1.008-2.938c-.381-.38-.843-.669-1.353-.844a3.53 3.53 0 0 0-1.585-.164zm19.905.475c-.971-.341-1.995-.502-3.024-.475l-2.42.101-2.708.245-2.391.346.404 2.823 3.37-.187 2.736-.072c.637-.071 1.277.093 1.801.461a1.98 1.98 0 0 1 .387.686c.081.252.111.519.088.783v.663h-5.157a4.83 4.83 0 0 0-3.168.951 3.24 3.24 0 0 0-1.152 2.65v1.469a3.87 3.87 0 0 0 .604 2.218 3.8 3.8 0 0 0 1.643 1.354 5.7 5.7 0 0 0 2.333.461 6.1 6.1 0 0 0 2.362-.432 7.54 7.54 0 0 0 1.815-1.051 7.82 7.82 0 0 0 1.166-1.138l.447 2.276h3.399v-9.391a6.34 6.34 0 0 0-.648-3.126 3.59 3.59 0 0 0-1.887-1.613zm-1.959 10.154a8.08 8.08 0 0 1-1.743.893c-.52.199-1.07.306-1.627.317-.466.042-.93-.098-1.297-.389-.14-.147-.248-.321-.317-.512a1.46 1.46 0 0 1-.086-.597v-.691c-.019-.366.099-.726.332-1.008a1.42 1.42 0 0 1 .514-.307 1.41 1.41 0 0 1 .594-.068l3.831-.017v2.225l-.201.155zm19.761-10.629a7.91 7.91 0 0 0-3.155.691 12.45 12.45 0 0 0-2.951 1.849l-.376-2.166h-3.427v14.23h4.262v-9.753c.646-.333 1.31-.63 1.988-.89.608-.232 1.252-.354 1.902-.36.211-.022.424-.001.627.061a1.6 1.6 0 0 1 .554.299 1.9 1.9 0 0 1 .345 1.31v9.333h4.263V42.494c0-2.631-1.344-3.946-4.032-3.946zm19.962.475c-.971-.341-1.996-.502-3.024-.475l-2.42.101-2.708.245-2.391.346.403 2.823 3.37-.187 2.737-.072a2.63 2.63 0 0 1 1.801.461c.173.201.305.434.386.686a1.96 1.96 0 0 1 .088.783v.663h-5.156a4.83 4.83 0 0 0-3.168.951c-.384.323-.688.73-.888 1.19a3.24 3.24 0 0 0-.264 1.46v1.469a3.86 3.86 0 0 0 .604 2.218 3.79 3.79 0 0 0 1.643 1.354c.736.316 1.531.473 2.333.461a6.1 6.1 0 0 0 2.362-.432c.651-.264 1.261-.618 1.814-1.051.428-.338.819-.719 1.166-1.138l.448 2.276h3.399v-9.391a6.34 6.34 0 0 0-.648-3.126 3.59 3.59 0 0 0-1.887-1.613zm-1.959 10.154c-.543.367-1.128.667-1.743.893a4.82 4.82 0 0 1-1.627.317 1.82 1.82 0 0 1-1.297-.389 1.48 1.48 0 0 1-.403-1.109v-.691a1.46 1.46 0 0 1 .332-1.008 1.41 1.41 0 0 1 .513-.307 1.42 1.42 0 0 1 .595-.068l3.831-.017v2.225l-.201.155zm16.188-10.629a13.91 13.91 0 0 0-3.974.461c-.866.215-1.627.73-2.147 1.455a4.7 4.7 0 0 0-.648 2.607 4.63 4.63 0 0 0 .648 2.592 3.42 3.42 0 0 0 1.507 1.203c-.308.163-.577.391-.787.67-.278.383-.461.828-.532 1.296a2.87 2.87 0 0 0 .13 1.426 2.49 2.49 0 0 0 .715 1.03 5.81 5.81 0 0 0-.888.482c-.456.288-.829.69-1.081 1.167-.222.483-.33 1.01-.317 1.541a5.15 5.15 0 0 0 .331 1.973 2.66 2.66 0 0 0 1.182 1.282 6.59 6.59 0 0 0 2.304.706 26 26 0 0 0 3.702.216 20.47 20.47 0 0 0 4.378-.375c.935-.156 1.783-.641 2.391-1.368.55-.84.812-1.836.749-2.837a4.32 4.32 0 0 0-.921-2.981 4.82 4.82 0 0 0-3.169-1.253l-5.243-.605a1.2 1.2 0 0 1-1.008-.518 1.13 1.13 0 0 1-.073-.922c.046-.14.115-.272.203-.391a18.16 18.16 0 0 0 2.52.16c1.336.04 2.67-.116 3.961-.461.858-.215 1.609-.731 2.117-1.455a4.73 4.73 0 0 0 .634-2.578 5.33 5.33 0 0 0-.372-2.104l1.783-.23.231-1.815h-4.732a14.41 14.41 0 0 0-3.594-.374zm2.694 14.245a1.35 1.35 0 0 1 .72.389c.163.236.239.521.216.807a1.44 1.44 0 0 1-.302.98 1.8 1.8 0 0 1-1.081.475c-.715.099-1.437.143-2.16.13a13.16 13.16 0 0 1-2.089-.13 1.66 1.66 0 0 1-1.05-.49c-.21-.298-.312-.659-.288-1.022a1.93 1.93 0 0 1 .186-.922 2.47 2.47 0 0 1 .634-.706l.196-.152 3.621.397a12.24 12.24 0 0 1 1.397.245zm-.562-8.224a3.82 3.82 0 0 1-2.16.432 3.98 3.98 0 0 1-2.189-.432c-.216-.181-.385-.412-.49-.673a1.71 1.71 0 0 1-.116-.825c-.031-.278.008-.56.114-.819a1.68 1.68 0 0 1 .492-.665 4.1 4.1 0 0 1 2.189-.418 3.93 3.93 0 0 1 2.16.418 1.72 1.72 0 0 1 .576 1.483 1.76 1.76 0 0 1-.107.819 1.75 1.75 0 0 1-.469.679zm22.614 1.771c.359-.392.631-.854.8-1.358a3.78 3.78 0 0 0 .179-1.566 4.34 4.34 0 0 0-.344-2.012c-.273-.634-.693-1.193-1.226-1.632-1.047-.816-2.771-1.224-5.171-1.224a10.5 10.5 0 0 0-4.234.72 4.58 4.58 0 0 0-2.363 2.362 10.88 10.88 0 0 0-.749 4.436c-.05 1.438.201 2.87.736 4.206a4.8 4.8 0 0 0 2.39 2.434 10.19 10.19 0 0 0 4.364.792l2.161-.101c.736-.065 1.467-.176 2.189-.331a8.47 8.47 0 0 0 1.901-.634l-.403-2.621-2.924.245-2.434.072a4.89 4.89 0 0 1-2.117-.374c-.263-.137-.495-.326-.681-.557a2.15 2.15 0 0 1-.4-.783 5.9 5.9 0 0 1-.228-1.109h5.067a5 5 0 0 0 3.487-.965zm-4.667-1.426h-3.961a8.02 8.02 0 0 1 .245-1.844 1.8 1.8 0 0 1 .327-.707c.159-.209.362-.381.595-.503a4.36 4.36 0 0 1 1.843-.317c.654-.053 1.308.082 1.887.389a1.64 1.64 0 0 1 .59 1.397 2.12 2.12 0 0 1-.273 1.166c-.183.279-.601.418-1.253.418zm19.875-11.926v3.86l.043 1.858.084 1.167a6.41 6.41 0 0 0-1.812-.893 9.73 9.73 0 0 0-2.895-.432 6.17 6.17 0 0 0-2.996.663 4.03 4.03 0 0 0-1.8 2.261 13.28 13.28 0 0 0-.591 4.45c-.111 1.942.292 3.88 1.167 5.617.407.655.987 1.184 1.675 1.53a4.18 4.18 0 0 0 2.228.429 6.56 6.56 0 0 0 3.399-.821 7.37 7.37 0 0 0 2.024-1.752l.367 2.227h3.371V32.988h-4.264zm-.806 16.376a4.57 4.57 0 0 1-1.095.49 4.69 4.69 0 0 1-1.296.159 2.55 2.55 0 0 1-1.368-.332 1.97 1.97 0 0 1-.779-1.21 10.3 10.3 0 0 1-.245-2.578 10.8 10.8 0 0 1 .26-2.736 1.96 1.96 0 0 1 .807-1.239 2.86 2.86 0 0 1 1.44-.317 6.43 6.43 0 0 1 1.815.23l1.267.375v6.634l-.806.524z"/></g><g fill="#ffda6e"><path d="M60.859 16.449l1.776-3.25a.76.76 0 0 1 .591-.394l3.685-.379a.77.77 0 0 0 .389-.156c.113-.087.199-.204.248-.338s.061-.278.033-.418-.095-.269-.193-.372l-2.542-2.694c-.085-.09-.147-.199-.18-.319a.77.77 0 0 1-.011-.366l.778-3.622c.03-.139.02-.284-.028-.418s-.133-.252-.244-.34-.246-.144-.387-.16-.285.008-.413.069l-3.348 1.585c-.112.053-.235.078-.359.073a.76.76 0 0 1-.351-.102L57.098 2.99a.77.77 0 0 0-.406-.103c-.142.004-.281.048-.399.127s-.213.189-.272.319-.081.273-.063.414l.473 3.674a.75.75 0 0 1-.042.364.77.77 0 0 1-.206.302l-2.758 2.473c-.106.095-.183.218-.223.355s-.041.282-.002.419.114.261.219.357.235.161.375.188l3.64.685a.76.76 0 0 1 .333.152c.097.077.174.176.224.289l1.499 3.387a.76.76 0 0 0 .268.322.77.77 0 0 0 .398.132c.142.006.284-.028.408-.098a.76.76 0 0 0 .294-.299zm3.923 24.261l3.701.162a.76.76 0 0 1 .351.103c.107.062.197.15.263.255l1.965 3.14c.076.121.183.218.311.281s.271.088.413.074.277-.068.389-.155.199-.204.249-.337l1.298-3.469a.75.75 0 0 1 .207-.302.77.77 0 0 1 .323-.171l3.594-.898a.77.77 0 0 0 .363-.209.76.76 0 0 0 .198-.369c.03-.139.021-.284-.027-.418s-.132-.252-.244-.341l-2.899-2.306c-.097-.077-.174-.177-.223-.29a.78.78 0 0 1-.063-.361l.257-3.695a.76.76 0 0 0-.377-.712.77.77 0 0 0-.406-.104c-.142.004-.281.048-.4.127l-3.089 2.044c-.103.068-.222.11-.345.123s-.248-.005-.362-.052l-3.435-1.386a.76.76 0 0 0-.417-.044c-.141.025-.271.088-.377.183s-.184.218-.224.354-.041.282-.003.419l.99 3.57a.76.76 0 0 1-.151.694l-2.38 2.839a.77.77 0 0 0-.171.383c-.02.141 0 .285.057.415s.15.242.268.322.255.126.398.133zm5.548-12.164l4.552-2.698a1.09 1.09 0 0 1 1.014-.052l4.803 2.221a1.09 1.09 0 0 0 1.522-1.229l-1.159-5.163a1.09 1.09 0 0 1 .264-.98l3.596-3.882a1.09 1.09 0 0 0-.698-1.828l-5.268-.493a1.09 1.09 0 0 1-.851-.554l-2.581-4.62a1.09 1.09 0 0 0-1.954.1l-2.097 4.858a1.09 1.09 0 0 1-.79.638l-5.191 1.027a1.09 1.09 0 0 0-.508 1.889l3.973 3.496a1.09 1.09 0 0 1 .362.948l-.627 5.254a1.09 1.09 0 0 0 1.639 1.067z"/></g></g><defs><clipPath id="A"><path fill="#fff" d="M0 0h533v91.064H0z"/></clipPath></defs></svg>