<svg xmlns="http://www.w3.org/2000/svg" width="64" height="48" fill="#fff"><path d="M9.358 20.031c-.104 0-.13-.052-.078-.13l.545-.701c.052-.078.182-.13.286-.13h9.27c.104 0 .13.078.078.156l-.441.675c-.052.078-.182.156-.26.156l-9.4-.026zm-3.921 2.388c-.104 0-.13-.052-.078-.13l.545-.701c.052-.078.182-.13.286-.13h11.841c.104 0 .156.078.13.156l-.208.623c-.026.104-.13.156-.234.156l-12.282.026zm6.284 2.387c-.104 0-.13-.078-.078-.156l.364-.649c.052-.078.156-.156.26-.156h5.193c.104 0 .156.078.156.182l-.052.623c0 .104-.104.182-.182.182l-5.661-.026z"/><path fill-rule="evenodd" d="M36.253 20.196l-1.94.509-.043.011c-.349.094-.385.104-.71-.271-.39-.441-.675-.727-1.22-.986-1.636-.805-3.22-.571-4.7.389-1.766 1.142-2.675 2.829-2.649 4.932.026 2.076 1.454 3.79 3.505 4.075 1.766.234 3.246-.389 4.415-1.713l.509-.689.192-.272H28.6c-.545 0-.675-.337-.493-.779l1.324-2.829a.7.7 0 0 1 .649-.415h8.357c.375-1.188.984-2.311 1.796-3.374 1.896-2.492 4.181-3.79 7.271-4.335 2.649-.467 5.142-.208 7.401 1.324 2.051 1.402 3.324 3.296 3.661 5.788.441 3.504-.571 6.359-2.986 8.799-1.714 1.739-3.817 2.829-6.232 3.322-.461.085-.921.126-1.375.166l-.703.068c-2.363-.052-4.518-.727-6.336-2.284-1.278-1.105-2.159-2.462-2.597-4.043a10.93 10.93 0 0 1-1.091 1.759c-1.87 2.466-4.311 3.997-7.401 4.412-2.545.337-4.908-.156-6.985-1.713-1.922-1.454-3.012-3.374-3.298-5.762-.338-2.829.493-5.373 2.207-7.605 1.844-2.414 4.285-3.945 7.271-4.49 2.441-.441 4.778-.156 6.881 1.272 1.376.908 2.363 2.154 3.012 3.66.156.234.052.363-.26.441l-2.423.633zm17.18 2.957l.018.278c-.13 2.232-1.246 3.893-3.298 4.958-1.376.701-2.804.779-4.233.156-1.87-.831-2.856-2.881-2.389-4.906.571-2.44 2.129-3.971 4.544-4.516 2.467-.571 4.83.883 5.297 3.452.037.184.047.368.06.579z"/></svg>