<svg xmlns="http://www.w3.org/2000/svg" width="282" height="144" fill="none"><g fill="#000"><rect x="173" y="12" width="79" height="32" rx="6" fill-opacity=".04"/><path d="M183.002 33v-8.12l-1.582.364v-1.092l2.17-.952h.952V33h-1.54zm7.451.168c-.887 0-1.652-.21-2.296-.63-.635-.429-1.125-1.022-1.47-1.778-.336-.765-.504-1.652-.504-2.66s.168-1.89.504-2.646c.345-.765.835-1.358 1.47-1.778.644-.429 1.409-.644 2.296-.644s1.647.215 2.282.644c.635.42 1.12 1.013 1.456 1.778.345.756.518 1.638.518 2.646s-.173 1.895-.518 2.66c-.336.756-.821 1.349-1.456 1.778-.635.42-1.395.63-2.282.63zm0-1.33c.532 0 1.003-.149 1.414-.448.42-.299.747-.728.98-1.288s.35-1.227.35-2.002-.117-1.442-.35-2.002-.56-.989-.98-1.288c-.411-.299-.882-.448-1.414-.448-.541 0-1.017.149-1.428.448s-.733.728-.966 1.288-.35 1.227-.35 2.002.117 1.442.35 2.002.555.989.966 1.288.887.448 1.428.448zm9.83 1.33c-.887 0-1.652-.21-2.296-.63-.635-.429-1.125-1.022-1.47-1.778-.336-.765-.504-1.652-.504-2.66s.168-1.89.504-2.646c.345-.765.835-1.358 1.47-1.778.644-.429 1.409-.644 2.296-.644s1.647.215 2.282.644c.635.42 1.12 1.013 1.456 1.778.345.756.518 1.638.518 2.646s-.173 1.895-.518 2.66c-.336.756-.821 1.349-1.456 1.778-.635.42-1.395.63-2.282.63zm0-1.33c.532 0 1.003-.149 1.414-.448.42-.299.747-.728.98-1.288s.35-1.227.35-2.002-.117-1.442-.35-2.002-.56-.989-.98-1.288c-.411-.299-.882-.448-1.414-.448-.541 0-1.017.149-1.428.448s-.733.728-.966 1.288-.35 1.227-.35 2.002.117 1.442.35 2.002.555.989.966 1.288.887.448 1.428.448zm12.672 1.33c-.719 0-1.349-.126-1.89-.378s-.966-.611-1.274-1.078c-.299-.467-.453-1.022-.462-1.666h1.568c.009.523.191.966.546 1.33s.854.546 1.498.546c.569 0 1.012-.135 1.33-.406a1.34 1.34 0 0 0 .49-1.064c0-.345-.08-.625-.238-.84-.15-.215-.36-.392-.63-.532-.262-.14-.565-.266-.91-.378l-1.092-.364c-.756-.252-1.326-.579-1.708-.98-.374-.401-.56-.929-.56-1.582-.01-.551.116-1.031.378-1.442.27-.411.644-.728 1.12-.952.485-.233 1.05-.35 1.694-.35.634 0 1.19.117 1.666.35.485.233.863.56 1.134.98.27.411.41.891.42 1.442h-1.568a1.4 1.4 0 0 0-.196-.714 1.54 1.54 0 0 0-.574-.574c-.252-.149-.56-.224-.924-.224-.467-.009-.854.107-1.162.35-.299.243-.448.579-.448 1.008 0 .383.112.677.336.882s.532.378.924.518l1.344.462a6.7 6.7 0 0 1 1.302.574c.382.224.686.518.91.882.233.364.35.826.35 1.386a2.69 2.69 0 0 1-.378 1.386c-.252.42-.63.765-1.134 1.036-.504.261-1.125.392-1.862.392zm7.292 0c-.588 0-1.073-.098-1.456-.294s-.667-.453-.854-.77c-.187-.327-.28-.681-.28-1.064 0-.672.261-1.204.784-1.596s1.269-.588 2.24-.588h1.82v-.126c0-.541-.149-.947-.448-1.218-.289-.271-.667-.406-1.134-.406-.411 0-.77.103-1.078.308-.299.196-.481.49-.546.882h-1.484c.047-.504.215-.933.504-1.288.299-.364.672-.639 1.12-.826.457-.196.957-.294 1.498-.294.971 0 1.722.257 2.254.77.532.504.798 1.195.798 2.072V33h-1.288l-.126-1.19a2.64 2.64 0 0 1-.854.966c-.373.261-.863.392-1.47.392zm.294-1.204c.401 0 .737-.093 1.008-.28.28-.196.495-.453.644-.77.159-.317.257-.667.294-1.05h-1.652c-.588 0-1.008.103-1.26.308-.243.205-.364.462-.364.77 0 .317.117.569.35.756.243.177.569.266.98.266zM225.715 33V22.92h1.484V33h-1.484zm6.612.168c-.682 0-1.288-.149-1.82-.448-.523-.308-.934-.733-1.232-1.274s-.448-1.171-.448-1.89c0-.728.144-1.367.434-1.918.298-.551.709-.98 1.232-1.288.532-.308 1.148-.462 1.848-.462.681 0 1.274.154 1.778.462.504.299.896.7 1.176 1.204s.42 1.059.42 1.666l-.014.308-.014.35h-5.404c.046.672.266 1.185.658 1.54a2.06 2.06 0 0 0 1.386.518c.42 0 .77-.093 1.05-.28a1.77 1.77 0 0 0 .644-.784h1.484c-.187.653-.56 1.199-1.12 1.638-.551.439-1.237.658-2.058.658zm0-6.062c-.495 0-.934.149-1.316.448-.383.289-.616.728-.7 1.316h3.92c-.028-.541-.22-.971-.574-1.288s-.798-.476-1.33-.476zm7.699 6.062c-.877 0-1.6-.215-2.17-.644a2.41 2.41 0 0 1-.98-1.708h1.498c.075.317.252.593.532.826.28.224.649.336 1.106.336.448 0 .775-.093.98-.28s.308-.401.308-.644c0-.355-.144-.593-.434-.714-.28-.131-.672-.247-1.176-.35a9.27 9.27 0 0 1-1.176-.336c-.382-.14-.704-.336-.966-.588-.252-.261-.378-.611-.378-1.05a1.91 1.91 0 0 1 .7-1.512c.467-.411 1.12-.616 1.96-.616.775 0 1.4.187 1.876.56.486.373.77.901.854 1.582h-1.428c-.046-.299-.186-.532-.42-.7-.224-.168-.527-.252-.91-.252-.373 0-.662.079-.868.238-.205.149-.308.345-.308.588s.14.434.42.574c.29.14.668.266 1.134.378.467.103.896.224 1.288.364.402.131.724.327.966.588s.364.644.364 1.148a1.93 1.93 0 0 1-.742 1.582c-.494.42-1.171.63-2.03.63z"/></g><path d="M57 132v-30h24v30m24 0V92h24v40m24 0V76h24v56m24 0V52h24v80" stroke="#ffda6e" stroke-width="2" stroke-linecap="round" stroke-linejoin="round"/><path d="M73 75a1 1 0 1 0 0 2v-2zm88-28a1 1 0 0 0-1-1h-9a1 1 0 1 0 0 2h8v8a1 1 0 1 0 2 0v-9zM73 77c44.475 0 72.222-13.808 87.707-29.293l-1.414-1.414C144.252 61.334 117.051 75 73 75v2z" fill="#000"/></svg>