<svg xmlns="http://www.w3.org/2000/svg" width="568" height="614" fill="none"><rect width="568" height="614" rx="8" fill="#f8f5ed"/><rect x="48" y="48" width="472" height="253" rx="12" fill="#fff"/><g clip-path="url(#A)"><g fill="#000"><path d="M85.136 220v-11.2h3.856c.885 0 1.611.149 2.176.448.576.299 1.003.704 1.28 1.216a3.41 3.41 0 0 1 .416 1.68c0 .693-.187 1.323-.56 1.888-.363.565-.933.971-1.712 1.216L92.976 220h-1.968l-2.176-4.512h-2V220h-1.696zm1.696-5.792h2.064c.768 0 1.328-.187 1.68-.56.363-.373.544-.859.544-1.456s-.176-1.072-.528-1.424c-.352-.363-.923-.544-1.712-.544h-2.048v3.984zm11.202 5.984c-.779 0-1.472-.171-2.08-.512a3.77 3.77 0 0 1-1.408-1.456c-.341-.619-.512-1.339-.512-2.16 0-.832.165-1.563.496-2.192.341-.629.811-1.12 1.408-1.472.608-.352 1.312-.528 2.112-.528.779 0 1.456.176 2.032.528.576.341 1.024.8 1.344 1.376s.48 1.211.48 1.904l-.016.352-.016.4h-6.176c.053.768.304 1.355.752 1.76.459.395.987.592 1.584.592.48 0 .88-.107 1.2-.32a2.02 2.02 0 0 0 .736-.896h1.696a3.58 3.58 0 0 1-1.28 1.872c-.629.501-1.413.752-2.352.752zm0-6.928a2.38 2.38 0 0 0-1.504.512c-.437.331-.704.832-.8 1.504h4.48c-.032-.619-.251-1.109-.656-1.472s-.912-.544-1.52-.544zm8.32 6.928c-.672 0-1.227-.112-1.664-.336s-.763-.517-.976-.88c-.214-.373-.32-.779-.32-1.216 0-.768.298-1.376.896-1.824s1.45-.672 2.56-.672h2.08v-.144c0-.619-.171-1.083-.512-1.392-.331-.309-.763-.464-1.296-.464-.47 0-.88.117-1.232.352-.342.224-.55.56-.624 1.008h-1.696c.053-.576.245-1.067.576-1.472.341-.416.768-.731 1.28-.944.522-.224 1.093-.336 1.712-.336 1.109 0 1.968.293 2.576.88.608.576.912 1.365.912 2.368V220h-1.472l-.144-1.36c-.224.437-.55.805-.976 1.104s-.987.448-1.68.448zm.336-1.376c.458 0 .842-.107 1.152-.32.32-.224.565-.517.736-.88.181-.363.293-.763.336-1.2h-1.888c-.672 0-1.152.117-1.44.352-.278.235-.416.528-.416.88 0 .363.133.651.4.864.277.203.65.304 1.12.304zm9.529 1.376c-.768 0-1.445-.181-2.032-.544a3.79 3.79 0 0 1-1.376-1.488c-.33-.629-.496-1.344-.496-2.144s.166-1.509.496-2.128c.331-.629.79-1.12 1.376-1.472.598-.363 1.28-.544 2.048-.544.63 0 1.179.123 1.648.368a2.7 2.7 0 0 1 1.12 1.04v-4.8h1.696V220h-1.52l-.176-1.232c-.256.373-.608.704-1.056.992s-1.024.432-1.728.432zm.304-1.472c.726 0 1.318-.251 1.776-.752.47-.501.704-1.147.704-1.936 0-.8-.234-1.445-.704-1.936-.458-.501-1.05-.752-1.776-.752s-1.322.251-1.792.752c-.469.491-.704 1.136-.704 1.936 0 .523.107.987.32 1.392a2.48 2.48 0 0 0 .88.96c.384.224.816.336 1.296.336zm9.69 1.28l4.128-11.2h1.856l4.096 11.2h-1.792l-.96-2.736h-4.576l-.96 2.736h-1.792zm3.232-4.08h3.616l-1.808-5.104-1.808 5.104zm8.346 4.08v-7.936h1.504l.128 1.392c.245-.491.602-.875 1.072-1.152.48-.288 1.029-.432 1.648-.432.96 0 1.712.299 2.256.896.554.597.832 1.488.832 2.672V220h-1.68v-4.384c0-1.536-.63-2.304-1.888-2.304-.63 0-1.152.224-1.568.672-.406.448-.608 1.088-.608 1.92V220h-1.696zm10.115 3.52l1.904-4.176h-.464l-3.136-7.28h1.84l2.432 5.872 2.544-5.872h1.792l-5.12 11.456h-1.792zm11.682-3.52l4.128-11.2h1.856l4.096 11.2h-1.792l-.96-2.736h-4.576l-.96 2.736h-1.792zm3.232-4.08h3.616l-1.808-5.104-1.808 5.104zm8.346 4.08v-7.936h1.52l.144 1.504c.277-.523.661-.933 1.152-1.232.501-.309 1.104-.464 1.808-.464v1.776h-.464c-.47 0-.891.08-1.264.24-.363.149-.656.411-.88.784-.214.363-.32.869-.32 1.52V220h-1.696zm9.406 0c-.779 0-1.397-.187-1.856-.56-.459-.384-.688-1.061-.688-2.032v-3.92h-1.36v-1.424h1.36l.208-2.016h1.488v2.016h2.24v1.424h-2.24v3.92c0 .437.091.741.272.912.192.16.517.24.976.24h.912V220h-1.312zm4.101-9.44a1.15 1.15 0 0 1-.8-.288 1.02 1.02 0 0 1-.304-.752c0-.299.101-.544.304-.736.213-.203.48-.304.8-.304a1.06 1.06 0 0 1 .784.304c.213.192.32.437.32.736s-.107.549-.32.752c-.203.192-.464.288-.784.288zm-.848 9.44v-7.936h1.696V220h-1.696zm7.695.192c-.779 0-1.478-.176-2.096-.528a3.85 3.85 0 0 1-1.44-1.456c-.342-.629-.512-1.355-.512-2.176s.17-1.541.512-2.16c.352-.629.832-1.12 1.44-1.472.618-.352 1.317-.528 2.096-.528.981 0 1.802.256 2.464.768.672.512 1.104 1.205 1.296 2.08h-1.776c-.107-.437-.342-.779-.704-1.024s-.79-.368-1.28-.368c-.416 0-.8.107-1.152.32-.352.203-.635.507-.848.912-.214.395-.32.885-.32 1.472s.106 1.083.32 1.488a2.33 2.33 0 0 0 .848.912c.352.213.736.32 1.152.32.49 0 .917-.123 1.28-.368s.597-.592.704-1.04h1.776a3.44 3.44 0 0 1-1.28 2.064c-.672.523-1.499.784-2.48.784zm5.599-.192v-11.52h1.696V220h-1.696zm7.556.192c-.779 0-1.472-.171-2.08-.512a3.76 3.76 0 0 1-1.408-1.456c-.342-.619-.512-1.339-.512-2.16 0-.832.165-1.563.496-2.192.341-.629.81-1.12 1.408-1.472.608-.352 1.312-.528 2.112-.528.778 0 1.456.176 2.032.528.576.341 1.024.8 1.344 1.376s.48 1.211.48 1.904l-.016.352-.016.4h-6.176c.053.768.304 1.355.752 1.76.458.395.986.592 1.584.592.48 0 .88-.107 1.2-.32.33-.224.576-.523.736-.896h1.696c-.214.747-.64 1.371-1.28 1.872-.63.501-1.414.752-2.352.752zm0-6.928c-.566 0-1.067.171-1.504.512-.438.331-.704.832-.8 1.504h4.48c-.032-.619-.251-1.109-.656-1.472s-.912-.544-1.52-.544zm13.375 6.928c-.758 0-1.44-.171-2.048-.512a3.88 3.88 0 0 1-1.424-1.456c-.352-.629-.528-1.36-.528-2.192s.176-1.557.528-2.176c.362-.629.848-1.115 1.456-1.456a3.98 3.98 0 0 1 2.032-.528c.757 0 1.434.176 2.032.528.608.341 1.088.827 1.44 1.456.362.619.544 1.344.544 2.176s-.182 1.563-.544 2.192a3.85 3.85 0 0 1-1.44 1.456c-.608.341-1.291.512-2.048.512zm0-1.456c.405 0 .778-.101 1.12-.304.352-.203.634-.501.848-.896.213-.405.32-.907.32-1.504s-.107-1.093-.32-1.488c-.203-.405-.48-.709-.832-.912-.342-.203-.715-.304-1.12-.304s-.784.101-1.136.304c-.342.203-.619.507-.832.912-.214.395-.32.891-.32 1.488s.106 1.099.32 1.504c.213.395.49.693.832.896a2.15 2.15 0 0 0 1.12.304zm5.866 1.264v-7.936h1.504l.128 1.392c.245-.491.602-.875 1.072-1.152.48-.288 1.029-.432 1.648-.432.96 0 1.712.299 2.256.896.554.597.832 1.488.832 2.672V220h-1.68v-4.384c0-1.536-.63-2.304-1.888-2.304-.63 0-1.152.224-1.568.672-.406.448-.608 1.088-.608 1.92V220h-1.696zm18.701.192c-1.11 0-2.08-.245-2.912-.736s-1.483-1.168-1.952-2.032c-.47-.875-.704-1.883-.704-3.024s.234-2.144.704-3.008c.469-.875 1.12-1.557 1.952-2.048s1.802-.736 2.912-.736 2.08.245 2.912.736a5.05 5.05 0 0 1 1.936 2.048c.469.864.704 1.867.704 3.008s-.235 2.149-.704 3.024c-.459.864-1.104 1.541-1.936 2.032s-1.803.736-2.912.736zm0-1.52c.768 0 1.434-.171 2-.512.576-.341 1.024-.832 1.344-1.472s.48-1.403.48-2.288-.16-1.648-.48-2.288-.768-1.131-1.344-1.472c-.566-.341-1.232-.512-2-.512s-1.44.171-2.016.512-1.024.832-1.344 1.472c-.31.64-.464 1.403-.464 2.288s.154 1.648.464 2.288c.32.64.768 1.131 1.344 1.472s1.248.512 2.016.512zm10.305 1.52c-.96 0-1.717-.299-2.272-.896-.544-.597-.816-1.488-.816-2.672v-4.56h1.696v4.384c0 1.536.629 2.304 1.888 2.304.629 0 1.147-.224 1.552-.672s.608-1.088.608-1.92v-4.096h1.696V220h-1.504l-.128-1.392c-.245.491-.608.88-1.088 1.168-.469.277-1.013.416-1.632.416zm6.509-.192v-7.936h1.52l.144 1.504c.278-.523.662-.933 1.152-1.232.502-.309 1.104-.464 1.808-.464v1.776h-.464c-.469 0-.89.08-1.264.24-.362.149-.656.411-.88.784-.213.363-.32.869-.32 1.52V220h-1.696zm10.174 0v-11.2h4.224c1.162 0 2.042.272 2.64.816a2.65 2.65 0 0 1 .896 2.048c0 .715-.192 1.285-.576 1.712-.384.416-.848.699-1.392.848a2.69 2.69 0 0 1 1.136.512c.341.256.608.576.8.96a2.75 2.75 0 0 1 .288 1.248c0 .576-.144 1.099-.432 1.568-.278.459-.688.821-1.232 1.088s-1.211.4-2 .4h-4.352zm1.696-6.4h2.32c.65 0 1.146-.149 1.488-.448.341-.309.512-.731.512-1.264 0-.523-.171-.939-.512-1.248-.331-.309-.838-.464-1.52-.464h-2.288v3.424zm0 5.008h2.432c.682 0 1.21-.16 1.584-.48.384-.32.576-.768.576-1.344s-.198-1.029-.592-1.36c-.395-.341-.928-.512-1.6-.512h-2.4v3.696zm8.115 1.392v-11.52h1.696V220h-1.696zm7.556.192c-.758 0-1.44-.171-2.048-.512a3.88 3.88 0 0 1-1.424-1.456c-.352-.629-.528-1.36-.528-2.192s.176-1.557.528-2.176c.362-.629.848-1.115 1.456-1.456a3.98 3.98 0 0 1 2.032-.528c.757 0 1.434.176 2.032.528.608.341 1.088.827 1.44 1.456.362.619.543 1.344.543 2.176s-.181 1.563-.543 2.192a3.85 3.85 0 0 1-1.44 1.456c-.608.341-1.291.512-2.048.512zm0-1.456c.405 0 .778-.101 1.12-.304.352-.203.634-.501.848-.896.213-.405.32-.907.32-1.504s-.107-1.093-.32-1.488c-.203-.405-.48-.709-.832-.912-.342-.203-.715-.304-1.12-.304s-.784.101-1.136.304c-.342.203-.619.507-.832.912-.214.395-.32.891-.32 1.488s.106 1.099.32 1.504c.213.395.49.693.832.896a2.15 2.15 0 0 0 1.12.304zm9.994 4.976c-.683 0-1.323-.117-1.92-.352a3.66 3.66 0 0 1-1.488-1.04c-.406-.459-.662-1.035-.768-1.728h1.68c.138.501.426.901.864 1.2.448.299.986.448 1.616.448a2.52 2.52 0 0 0 1.76-.672c.49-.437.736-1.099.736-1.984v-1.072c-.246.416-.614.784-1.104 1.104-.48.32-1.083.48-1.808.48a3.98 3.98 0 0 1-2.032-.528c-.598-.363-1.072-.853-1.424-1.472-.352-.629-.528-1.333-.528-2.112 0-.789.176-1.493.528-2.112a3.88 3.88 0 0 1 1.424-1.456c.608-.363 1.29-.544 2.048-.544.65 0 1.226.144 1.728.432.501.277.89.624 1.168 1.04l.16-1.28h1.536v7.456c0 .896-.187 1.653-.56 2.272-.363.629-.859 1.104-1.488 1.424-.63.331-1.339.496-2.128.496zm-.128-5.072c.501 0 .944-.112 1.328-.336a2.58 2.58 0 0 0 .912-.944c.224-.405.336-.864.336-1.376 0-.523-.112-.981-.336-1.376s-.528-.704-.912-.928-.827-.336-1.328-.336c-.491 0-.928.112-1.312.336s-.688.533-.912.928-.336.853-.336 1.376c0 .512.112.971.336 1.376a2.58 2.58 0 0 0 .912.944c.384.224.821.336 1.312.336zm161.871 1.552c-.736 0-1.366-.144-1.888-.432a3.28 3.28 0 0 1-1.232-1.152c-.288-.48-.464-1.003-.528-1.568h1.584c.096.555.325.981.688 1.28s.826.448 1.392.448c.778 0 1.418-.363 1.92-1.088.512-.736.784-1.861.816-3.376-.256.469-.656.869-1.2 1.2-.534.331-1.152.496-1.856.496a3.68 3.68 0 0 1-1.776-.448c-.555-.299-1.003-.715-1.344-1.248-.342-.544-.512-1.184-.512-1.92a3.73 3.73 0 0 1 .48-1.84c.32-.576.768-1.04 1.344-1.392.586-.363 1.28-.544 2.08-.544.821 0 1.514.155 2.08.464s1.018.72 1.36 1.232.586 1.088.735 1.728c.161.64.241 1.296.241 1.968 0 1.237-.176 2.32-.528 3.248-.342.928-.838 1.653-1.488 2.176-.651.512-1.44.768-2.368.768zm.08-5.648c.448 0 .848-.101 1.2-.304s.629-.469.832-.8c.213-.341.32-.715.32-1.12 0-.437-.107-.821-.32-1.152-.203-.341-.486-.608-.848-.8-.352-.192-.752-.288-1.2-.288s-.848.096-1.2.288a2.26 2.26 0 0 0-.848.8c-.203.331-.304.709-.304 1.136 0 .683.224 1.227.672 1.632s1.013.608 1.696.608zm10.381 5.648c-.821 0-1.515-.155-2.08-.464a3.93 3.93 0 0 1-1.376-1.232c-.341-.512-.587-1.088-.736-1.728a8.65 8.65 0 0 1-.224-1.968c0-1.237.171-2.32.512-3.248.352-.928.853-1.648 1.504-2.16.651-.523 1.44-.784 2.368-.784.736 0 1.365.144 1.888.432s.928.672 1.216 1.152a3.72 3.72 0 0 1 .544 1.568h-1.584c-.096-.555-.325-.981-.688-1.28s-.827-.448-1.392-.448c-.779 0-1.424.368-1.936 1.104-.501.725-.768 1.845-.8 3.36.256-.469.651-.869 1.184-1.2.544-.331 1.168-.496 1.872-.496.629 0 1.216.149 1.76.448a3.55 3.55 0 0 1 1.344 1.264c.352.533.528 1.168.528 1.904a3.73 3.73 0 0 1-.48 1.84 3.82 3.82 0 0 1-1.36 1.408c-.576.352-1.264.528-2.064.528zm-.096-1.472c.448 0 .848-.096 1.2-.288a2.18 2.18 0 0 0 .832-.784c.203-.341.304-.725.304-1.152 0-.683-.224-1.227-.672-1.632-.437-.405-.997-.608-1.68-.608-.448 0-.853.101-1.216.304a2.27 2.27 0 0 0-.832.816 2.07 2.07 0 0 0-.304 1.104 2.24 2.24 0 0 0 .304 1.168 2.3 2.3 0 0 0 .848.784 2.56 2.56 0 0 0 1.216.288zm11.197 1.28v-2.24h-5.616v-1.344l5.344-7.616h1.952v7.488h1.568v1.472h-1.568V220h-1.68zm-3.776-3.712h3.872v-5.616l-3.872 5.616z"/></g><rect x="72" y="231" width="105" height="2" rx="1" fill="#6ece9d"/></g><g clip-path="url(#B)"><g fill="#000"><path d="M88.448 176l-4.144-11.2h1.808l3.36 9.44 3.376-9.44h1.792L90.496 176h-2.048zm8.522-9.44a1.15 1.15 0 0 1-.8-.288 1.02 1.02 0 0 1-.304-.752c0-.299.101-.544.304-.736.213-.203.48-.304.8-.304a1.06 1.06 0 0 1 .784.304c.213.192.32.437.32.736s-.107.549-.32.752c-.203.192-.464.288-.784.288zm-.848 9.44v-7.936h1.696V176h-1.696zm7.103.192c-1.002 0-1.829-.245-2.48-.736s-1.024-1.141-1.12-1.952h1.712c.086.363.288.677.608.944.32.256.742.384 1.264.384.512 0 .886-.107 1.12-.32s.352-.459.352-.736c0-.405-.165-.677-.496-.816-.32-.149-.768-.283-1.344-.4-.448-.096-.896-.224-1.344-.384-.437-.16-.805-.384-1.104-.672-.288-.299-.432-.699-.432-1.2 0-.693.267-1.269.8-1.728.534-.469 1.28-.704 2.24-.704.886 0 1.6.213 2.144.64.555.427.88 1.029.976 1.808h-1.632c-.053-.341-.213-.608-.48-.8-.256-.192-.602-.288-1.04-.288-.426 0-.757.091-.992.272-.234.171-.352.395-.352.672s.16.496.48.656c.331.16.763.304 1.296.432a12.04 12.04 0 0 1 1.472.416c.459.149.827.373 1.104.672s.416.736.416 1.312c.011.725-.272 1.328-.848 1.808-.565.48-1.338.72-2.32.72zm5.98-9.632a1.15 1.15 0 0 1-.8-.288 1.02 1.02 0 0 1-.304-.752c0-.299.101-.544.304-.736.213-.203.48-.304.8-.304a1.06 1.06 0 0 1 .784.304c.213.192.32.437.32.736s-.107.549-.32.752c-.203.192-.464.288-.784.288zm-.848 9.44v-7.936h1.696V176h-1.696zm7.263 0c-.779 0-1.398-.187-1.856-.56-.459-.384-.688-1.061-.688-2.032v-3.92h-1.36v-1.424h1.36l.208-2.016h1.488v2.016h2.24v1.424h-2.24v3.92c0 .437.09.741.272.912.192.16.517.24.976.24h.912V176h-1.312zm7.236 0v-11.2h3.92c.874 0 1.6.149 2.176.448.576.288 1.002.688 1.28 1.2.288.501.432 1.072.432 1.712 0 .608-.139 1.168-.416 1.68-.267.501-.688.901-1.264 1.2s-1.312.448-2.208.448h-2.224V176h-1.696zm1.696-5.904h2.144c.8 0 1.37-.171 1.712-.512.352-.352.528-.827.528-1.424 0-.619-.176-1.099-.528-1.44-.342-.352-.912-.528-1.712-.528h-2.144v3.904zm7.724 5.904v-7.936h1.52l.144 1.504c.277-.523.661-.933 1.152-1.232.501-.309 1.104-.464 1.808-.464v1.776h-.464a3.18 3.18 0 0 0-1.264.24c-.363.149-.656.411-.88.784-.213.363-.32.869-.32 1.52V176h-1.696zm7.038-9.44c-.32 0-.586-.096-.8-.288-.202-.203-.304-.453-.304-.752a.97.97 0 0 1 .304-.736c.214-.203.48-.304.8-.304s.582.101.784.304c.214.192.32.437.32.736s-.106.549-.32.752c-.202.192-.464.288-.784.288zm-.848 9.44v-7.936h1.696V176h-1.696zm7.695.192c-.779 0-1.477-.176-2.096-.528a3.85 3.85 0 0 1-1.44-1.456c-.341-.629-.512-1.355-.512-2.176s.171-1.541.512-2.16c.352-.629.832-1.12 1.44-1.472.619-.352 1.317-.528 2.096-.528.981 0 1.803.256 2.464.768.672.512 1.104 1.205 1.296 2.08h-1.776a1.67 1.67 0 0 0-.704-1.024c-.363-.245-.789-.368-1.28-.368-.416 0-.8.107-1.152.32-.352.203-.635.507-.848.912-.213.395-.32.885-.32 1.472s.107 1.083.32 1.488a2.33 2.33 0 0 0 .848.912c.352.213.736.32 1.152.32.491 0 .917-.123 1.28-.368s.597-.592.704-1.04h1.776c-.181.853-.608 1.541-1.28 2.064s-1.499.784-2.48.784zm6.56-9.632a1.15 1.15 0 0 1-.8-.288 1.02 1.02 0 0 1-.304-.752c0-.299.101-.544.304-.736.213-.203.48-.304.8-.304a1.06 1.06 0 0 1 .784.304c.213.192.32.437.32.736s-.107.549-.32.752c-.203.192-.464.288-.784.288zm-.848 9.44v-7.936h1.696V176h-1.696zm3.934 0v-7.936h1.504l.128 1.392a2.73 2.73 0 0 1 1.072-1.152c.48-.288 1.03-.432 1.648-.432.96 0 1.712.299 2.256.896.555.597.832 1.488.832 2.672V176h-1.68v-4.384c0-1.536-.629-2.304-1.888-2.304-.629 0-1.152.224-1.568.672-.405.448-.608 1.088-.608 1.92V176h-1.696zm13.566 3.712c-.683 0-1.323-.117-1.92-.352a3.66 3.66 0 0 1-1.488-1.04c-.405-.459-.661-1.035-.768-1.728h1.68a2.09 2.09 0 0 0 .864 1.2c.448.299.987.448 1.616.448a2.52 2.52 0 0 0 1.76-.672c.491-.437.736-1.099.736-1.984v-1.072c-.245.416-.613.784-1.104 1.104-.48.32-1.083.48-1.808.48a3.98 3.98 0 0 1-2.032-.528c-.597-.363-1.072-.853-1.424-1.472-.352-.629-.528-1.333-.528-2.112 0-.789.176-1.493.528-2.112s.827-1.104 1.424-1.456c.608-.363 1.291-.544 2.048-.544.651 0 1.227.144 1.728.432.501.277.891.624 1.168 1.04l.16-1.28h1.536v7.456c0 .896-.187 1.653-.56 2.272-.363.629-.859 1.104-1.488 1.424-.629.331-1.339.496-2.128.496zm-.128-5.072c.501 0 .944-.112 1.328-.336a2.58 2.58 0 0 0 .912-.944c.224-.405.336-.864.336-1.376 0-.523-.112-.981-.336-1.376s-.528-.704-.912-.928-.827-.336-1.328-.336c-.491 0-.928.112-1.312.336s-.688.533-.912.928-.336.853-.336 1.376c0 .512.112.971.336 1.376a2.58 2.58 0 0 0 .912.944c.384.224.821.336 1.312.336zm10.548 1.36v-11.2h3.92c.875 0 1.6.149 2.176.448.576.288 1.003.688 1.28 1.2.288.501.432 1.072.432 1.712 0 .608-.138 1.168-.416 1.68-.266.501-.688.901-1.264 1.2s-1.312.448-2.208.448h-2.224V176h-1.696zm1.696-5.904h2.144c.8 0 1.371-.171 1.712-.512.352-.352.528-.827.528-1.424 0-.619-.176-1.099-.528-1.44-.341-.352-.912-.528-1.712-.528h-2.144v3.904zm9.975 6.096c-.672 0-1.227-.112-1.664-.336s-.763-.517-.976-.88c-.213-.373-.32-.779-.32-1.216 0-.768.299-1.376.896-1.824s1.451-.672 2.56-.672h2.08v-.144c0-.619-.171-1.083-.512-1.392-.331-.309-.763-.464-1.296-.464-.469 0-.88.117-1.232.352-.341.224-.549.56-.624 1.008h-1.696c.053-.576.245-1.067.576-1.472.341-.416.768-.731 1.28-.944a4.3 4.3 0 0 1 1.712-.336c1.109 0 1.968.293 2.576.88.608.576.912 1.365.912 2.368V176h-1.472l-.144-1.36c-.224.437-.549.805-.976 1.104s-.987.448-1.68.448zm.336-1.376c.459 0 .843-.107 1.152-.32.32-.224.565-.517.736-.88.181-.363.293-.763.336-1.2h-1.888c-.672 0-1.152.117-1.44.352-.277.235-.416.528-.416.88 0 .363.133.651.4.864.277.203.651.304 1.12.304zm10.042 4.896c-.683 0-1.323-.117-1.92-.352a3.66 3.66 0 0 1-1.488-1.04c-.406-.459-.662-1.035-.768-1.728h1.68c.138.501.426.901.864 1.2.448.299.986.448 1.616.448a2.52 2.52 0 0 0 1.76-.672c.49-.437.736-1.099.736-1.984v-1.072c-.246.416-.614.784-1.104 1.104-.48.32-1.083.48-1.808.48a3.98 3.98 0 0 1-2.032-.528c-.598-.363-1.072-.853-1.424-1.472-.352-.629-.528-1.333-.528-2.112 0-.789.176-1.493.528-2.112a3.88 3.88 0 0 1 1.424-1.456c.608-.363 1.29-.544 2.048-.544.65 0 1.226.144 1.728.432.501.277.89.624 1.168 1.04l.16-1.28h1.536v7.456c0 .896-.187 1.653-.56 2.272-.363.629-.859 1.104-1.488 1.424-.63.331-1.339.496-2.128.496zm-.128-5.072c.501 0 .944-.112 1.328-.336a2.58 2.58 0 0 0 .912-.944c.224-.405.336-.864.336-1.376 0-.523-.112-.981-.336-1.376s-.528-.704-.912-.928-.827-.336-1.328-.336c-.491 0-.928.112-1.312.336s-.688.533-.912.928-.336.853-.336 1.376c0 .512.112.971.336 1.376a2.58 2.58 0 0 0 .912.944c.384.224.821.336 1.312.336zm10.165 1.552c-.779 0-1.472-.171-2.08-.512a3.76 3.76 0 0 1-1.408-1.456c-.342-.619-.512-1.339-.512-2.16 0-.832.165-1.563.496-2.192.341-.629.81-1.12 1.408-1.472.608-.352 1.312-.528 2.112-.528.778 0 1.456.176 2.032.528.576.341 1.024.8 1.344 1.376s.48 1.211.48 1.904l-.016.352-.016.4h-6.176c.053.768.304 1.355.752 1.76.458.395.986.592 1.584.592.48 0 .88-.107 1.2-.32.33-.224.576-.523.736-.896h1.696c-.214.747-.64 1.371-1.28 1.872-.63.501-1.414.752-2.352.752zm0-6.928c-.566 0-1.067.171-1.504.512-.438.331-.704.832-.8 1.504h4.48c-.032-.619-.251-1.109-.656-1.472s-.912-.544-1.52-.544zM459.897 176v-9.28l-1.808.416v-1.248l2.48-1.088h1.088V176h-1.76zm4.644.096c-.32 0-.587-.101-.8-.304-.203-.213-.304-.464-.304-.752a1.02 1.02 0 0 1 .304-.752c.213-.213.48-.32.8-.32s.581.107.784.32a1.02 1.02 0 0 1 .304.752c0 .288-.101.539-.304.752a1.06 1.06 0 0 1-.784.304zm2.637-.096v-1.216l2.08-1.744a22.85 22.85 0 0 0 1.76-1.728c.522-.576.933-1.136 1.232-1.68.298-.555.448-1.088.448-1.6a2.61 2.61 0 0 0-.176-.96c-.118-.309-.31-.555-.576-.736-.267-.192-.624-.288-1.072-.288-.672 0-1.179.213-1.52.64-.331.427-.491.939-.48 1.536h-1.648c.01-.789.176-1.451.496-1.984.33-.533.768-.939 1.312-1.216.554-.277 1.178-.416 1.872-.416 1.056 0 1.898.299 2.528.896.64.587.96 1.408.96 2.464 0 .629-.155 1.253-.464 1.872a8.43 8.43 0 0 1-1.184 1.792c-.48.565-.998 1.099-1.552 1.6l-1.584 1.36h5.12V176h-7.552zm9.316 0v-11.52h1.696v6.864l3.04-3.28h2.032l-3.376 3.6 3.872 4.336h-2.144l-3.424-4.064V176h-1.696z"/></g><rect x="72" y="187" width="124" height="2" rx="1" fill="#6ece9d"/></g><g clip-path="url(#C)"><g fill="#000"><path d="M88.448 132l-4.144-11.2h1.808l3.36 9.44 3.376-9.44h1.792L90.496 132h-2.048zm8.522-9.44a1.15 1.15 0 0 1-.8-.288 1.02 1.02 0 0 1-.304-.752c0-.299.101-.544.304-.736.213-.203.48-.304.8-.304a1.06 1.06 0 0 1 .784.304c.213.192.32.437.32.736s-.107.549-.32.752c-.203.192-.464.288-.784.288zm-.848 9.44v-7.936h1.696V132h-1.696zm7.103.192c-1.002 0-1.829-.245-2.48-.736s-1.024-1.141-1.12-1.952h1.712c.086.363.288.677.608.944.32.256.742.384 1.264.384.512 0 .886-.107 1.12-.32s.352-.459.352-.736c0-.405-.165-.677-.496-.816-.32-.149-.768-.283-1.344-.4-.448-.096-.896-.224-1.344-.384-.437-.16-.805-.384-1.104-.672-.288-.299-.432-.699-.432-1.2 0-.693.267-1.269.8-1.728.534-.469 1.28-.704 2.24-.704.886 0 1.6.213 2.144.64.555.427.88 1.029.976 1.808h-1.632c-.053-.341-.213-.608-.48-.8-.256-.192-.602-.288-1.04-.288-.426 0-.757.091-.992.272-.234.171-.352.395-.352.672s.16.496.48.656c.331.16.763.304 1.296.432a12.04 12.04 0 0 1 1.472.416c.459.149.827.373 1.104.672s.416.736.416 1.312c.011.725-.272 1.328-.848 1.808-.565.48-1.338.72-2.32.72zm5.98-9.632a1.15 1.15 0 0 1-.8-.288 1.02 1.02 0 0 1-.304-.752c0-.299.101-.544.304-.736.213-.203.48-.304.8-.304a1.06 1.06 0 0 1 .784.304c.213.192.32.437.32.736s-.107.549-.32.752c-.203.192-.464.288-.784.288zm-.848 9.44v-7.936h1.696V132h-1.696zm7.263 0c-.779 0-1.398-.187-1.856-.56-.459-.384-.688-1.061-.688-2.032v-3.92h-1.36v-1.424h1.36l.208-2.016h1.488v2.016h2.24v1.424h-2.24v3.92c0 .437.09.741.272.912.192.16.517.24.976.24h.912V132h-1.312zm7.236 0v-11.2h3.92c.874 0 1.6.149 2.176.448.576.288 1.002.688 1.28 1.2.288.501.432 1.072.432 1.712 0 .608-.139 1.168-.416 1.68-.267.501-.688.901-1.264 1.2s-1.312.448-2.208.448h-2.224V132h-1.696zm1.696-5.904h2.144c.8 0 1.37-.171 1.712-.512.352-.352.528-.827.528-1.424 0-.619-.176-1.099-.528-1.44-.342-.352-.912-.528-1.712-.528h-2.144v3.904zm7.724 5.904v-7.936h1.52l.144 1.504c.277-.523.661-.933 1.152-1.232.501-.309 1.104-.464 1.808-.464v1.776h-.464a3.18 3.18 0 0 0-1.264.24c-.363.149-.656.411-.88.784-.213.363-.32.869-.32 1.52V132h-1.696zm9.572.192c-.758 0-1.44-.171-2.048-.512a3.88 3.88 0 0 1-1.424-1.456c-.352-.629-.528-1.36-.528-2.192s.176-1.557.528-2.176c.362-.629.848-1.115 1.456-1.456a3.98 3.98 0 0 1 2.032-.528c.757 0 1.434.176 2.032.528.608.341 1.088.827 1.44 1.456.362.619.543 1.344.543 2.176s-.181 1.563-.543 2.192a3.85 3.85 0 0 1-1.44 1.456c-.608.341-1.291.512-2.048.512zm0-1.456c.405 0 .778-.101 1.12-.304.352-.203.634-.501.848-.896.213-.405.32-.907.32-1.504s-.107-1.093-.32-1.488c-.203-.405-.48-.709-.832-.912-.342-.203-.715-.304-1.12-.304s-.784.101-1.136.304c-.342.203-.619.507-.832.912-.214.395-.32.891-.32 1.488s.106 1.099.32 1.504c.213.395.49.693.832.896a2.15 2.15 0 0 0 1.12.304zm9.482 1.456c-.768 0-1.446-.181-2.032-.544s-1.046-.859-1.376-1.488-.496-1.344-.496-2.144.165-1.509.496-2.128a3.66 3.66 0 0 1 1.376-1.472c.597-.363 1.28-.544 2.048-.544.629 0 1.178.123 1.648.368.48.245.853.592 1.12 1.04v-4.8h1.696V132h-1.52l-.176-1.232c-.256.373-.608.704-1.056.992s-1.024.432-1.728.432zm.304-1.472c.725 0 1.317-.251 1.776-.752.469-.501.704-1.147.704-1.936 0-.8-.235-1.445-.704-1.936-.459-.501-1.051-.752-1.776-.752s-1.323.251-1.792.752c-.47.491-.704 1.136-.704 1.936 0 .523.106.987.32 1.392a2.47 2.47 0 0 0 .88.96c.384.224.816.336 1.296.336zm9.242 1.472c-.96 0-1.717-.299-2.272-.896-.544-.597-.816-1.488-.816-2.672v-4.56h1.696v4.384c0 1.536.629 2.304 1.888 2.304.629 0 1.147-.224 1.552-.672s.608-1.088.608-1.92v-4.096h1.696V132h-1.504l-.128-1.392c-.245.491-.608.88-1.088 1.168-.469.277-1.013.416-1.632.416zm10.27 0c-.779 0-1.478-.176-2.096-.528a3.85 3.85 0 0 1-1.44-1.456c-.342-.629-.512-1.355-.512-2.176s.17-1.541.512-2.16c.352-.629.832-1.12 1.44-1.472.618-.352 1.317-.528 2.096-.528.981 0 1.802.256 2.464.768.672.512 1.104 1.205 1.296 2.08h-1.776c-.107-.437-.342-.779-.704-1.024s-.79-.368-1.28-.368c-.416 0-.8.107-1.152.32-.352.203-.635.507-.848.912-.214.395-.32.885-.32 1.472s.106 1.083.32 1.488a2.33 2.33 0 0 0 .848.912c.352.213.736.32 1.152.32.49 0 .917-.123 1.28-.368s.597-.592.704-1.04h1.776a3.44 3.44 0 0 1-1.28 2.064c-.672.523-1.499.784-2.48.784zm8.771-.192c-.779 0-1.398-.187-1.856-.56-.459-.384-.688-1.061-.688-2.032v-3.92h-1.36v-1.424h1.36l.208-2.016h1.488v2.016h2.24v1.424h-2.24v3.92c0 .437.09.741.272.912.192.16.517.24.976.24h.912V132h-1.312zm7.236 0v-11.2h3.92c.874 0 1.6.149 2.176.448.576.288 1.002.688 1.28 1.2.288.501.432 1.072.432 1.712 0 .608-.139 1.168-.416 1.68-.267.501-.688.901-1.264 1.2s-1.312.448-2.208.448h-2.224V132h-1.696zm1.696-5.904h2.144c.8 0 1.37-.171 1.712-.512.352-.352.528-.827.528-1.424 0-.619-.176-1.099-.528-1.44-.342-.352-.912-.528-1.712-.528h-2.144v3.904zm9.975 6.096c-.672 0-1.227-.112-1.664-.336s-.763-.517-.976-.88c-.214-.373-.32-.779-.32-1.216 0-.768.298-1.376.896-1.824s1.45-.672 2.56-.672h2.08v-.144c0-.619-.171-1.083-.512-1.392-.331-.309-.763-.464-1.296-.464-.47 0-.88.117-1.232.352-.342.224-.55.56-.624 1.008h-1.696c.053-.576.245-1.067.576-1.472.341-.416.768-.731 1.28-.944.522-.224 1.093-.336 1.712-.336 1.109 0 1.968.293 2.576.88.608.576.912 1.365.912 2.368V132h-1.472l-.144-1.36c-.224.437-.55.805-.976 1.104s-.987.448-1.68.448zm.336-1.376c.458 0 .842-.107 1.152-.32.32-.224.565-.517.736-.88.181-.363.293-.763.336-1.2h-1.888c-.672 0-1.152.117-1.44.352-.278.235-.416.528-.416.88 0 .363.133.651.4.864.277.203.65.304 1.12.304zm9.161-1.248c-.416 0-.8-.048-1.152-.144l-.688.672c.117.075.261.139.432.192a4.79 4.79 0 0 0 .72.144l1.264.128c1.056.096 1.819.352 2.288.768.469.405.704.949.704 1.632 0 .469-.128.912-.384 1.328-.245.427-.635.768-1.168 1.024-.523.267-1.195.4-2.016.4-1.109 0-2.011-.213-2.704-.64-.683-.416-1.024-1.051-1.024-1.904 0-.331.085-.661.256-.992.181-.32.464-.624.848-.912a4.34 4.34 0 0 1-.592-.304 5.12 5.12 0 0 1-.432-.352v-.384l1.376-1.408c-.619-.533-.928-1.232-.928-2.096 0-.523.123-.997.368-1.424a2.74 2.74 0 0 1 1.104-1.04c.48-.256 1.056-.384 1.728-.384.448 0 .864.064 1.248.192h2.96v1.12l-1.408.08a2.83 2.83 0 0 1 .384 1.456c0 .533-.128 1.013-.384 1.44-.245.427-.608.768-1.088 1.024-.469.256-1.04.384-1.712.384zm0-1.328c.491 0 .885-.128 1.184-.384.309-.267.464-.64.464-1.12 0-.491-.155-.864-.464-1.12-.299-.256-.693-.384-1.184-.384-.501 0-.907.128-1.216.384-.299.256-.448.629-.448 1.12 0 .48.149.853.448 1.12.309.256.715.384 1.216.384zm-2.128 4.768c0 .459.203.8.608 1.024.405.235.912.352 1.52.352.587 0 1.061-.128 1.424-.384.363-.245.544-.576.544-.992 0-.309-.123-.576-.368-.8-.245-.213-.709-.347-1.392-.4l-1.36-.144c-.373.203-.629.421-.768.656s-.208.464-.208.688zm11.248-.816c-.778 0-1.472-.171-2.08-.512-.597-.352-1.066-.837-1.408-1.456s-.512-1.339-.512-2.16c0-.832.166-1.563.496-2.192a3.75 3.75 0 0 1 1.408-1.472c.608-.352 1.312-.528 2.112-.528.779 0 1.456.176 2.032.528.576.341 1.024.8 1.344 1.376s.48 1.211.48 1.904l-.016.352-.016.4h-6.176c.054.768.304 1.355.752 1.76.459.395.987.592 1.584.592.48 0 .88-.107 1.2-.32a2.02 2.02 0 0 0 .736-.896h1.696a3.58 3.58 0 0 1-1.28 1.872c-.629.501-1.413.752-2.352.752zm0-6.928a2.38 2.38 0 0 0-1.504.512c-.437.331-.704.832-.8 1.504h4.48c-.032-.619-.25-1.109-.656-1.472s-.912-.544-1.52-.544zm239.904 6.928c-.725 0-1.387-.128-1.984-.384a3.28 3.28 0 0 1-1.408-1.2c-.352-.533-.539-1.2-.56-2h1.68c.021.597.224 1.104.608 1.52.395.405.949.608 1.664.608.683 0 1.205-.187 1.568-.56.363-.384.544-.859.544-1.424 0-.683-.245-1.189-.736-1.52-.48-.331-1.072-.496-1.776-.496h-.832v-1.408h.848c.629 0 1.136-.149 1.52-.448.395-.299.592-.72.592-1.264a1.46 1.46 0 0 0-.464-1.12c-.299-.288-.725-.432-1.28-.432-.576 0-1.029.171-1.36.512-.331.331-.512.747-.544 1.248h-1.68c.021-.651.181-1.216.48-1.696.309-.48.731-.853 1.264-1.12s1.147-.4 1.84-.4c.747 0 1.371.133 1.872.4.512.256.896.608 1.152 1.056a2.71 2.71 0 0 1 .4 1.44c0 .597-.165 1.12-.496 1.568a2.36 2.36 0 0 1-1.328.896c.64.139 1.168.453 1.584.944.416.48.624 1.104.624 1.872a3.49 3.49 0 0 1-.432 1.712c-.288.512-.715.923-1.28 1.232s-1.259.464-2.08.464zm6.493-.096c-.32 0-.587-.101-.8-.304-.203-.213-.304-.464-.304-.752a1.02 1.02 0 0 1 .304-.752c.213-.213.48-.32.8-.32s.581.107.784.32c.202.203.304.453.304.752a1.06 1.06 0 0 1-1.088 1.056zm6.765.096c-.79 0-1.472-.139-2.048-.416-.576-.288-1.035-.677-1.376-1.168-.331-.501-.534-1.067-.608-1.696h1.664c.106.533.373.976.8 1.328.426.341.954.512 1.584.512.469 0 .874-.112 1.216-.336a2.42 2.42 0 0 0 .8-.928c.192-.384.288-.816.288-1.296 0-.757-.214-1.36-.64-1.808-.427-.459-.966-.688-1.616-.688-.555 0-1.03.133-1.424.4a2.29 2.29 0 0 0-.864.976h-1.616l.96-6.272h6.048v1.488h-4.768l-.576 2.992c.245-.277.581-.507 1.008-.688.437-.192.928-.288 1.472-.288.757 0 1.408.176 1.952.528a3.35 3.35 0 0 1 1.248 1.392c.298.587.448 1.237.448 1.952 0 .747-.16 1.424-.48 2.032a3.69 3.69 0 0 1-1.376 1.456c-.587.352-1.286.528-2.096.528zm5.891-.192v-11.52h1.696v6.864l3.04-3.28h2.032l-3.376 3.6 3.872 4.336h-2.144l-3.424-4.064V132h-1.696z"/></g><rect x="72" y="143" width="166" height="2" rx="1" fill="#6ece9d"/></g><g clip-path="url(#D)"><g fill="#000"><path d="M88.832 264.192c-.821 0-1.541-.144-2.16-.432a3.44 3.44 0 0 1-1.456-1.232c-.341-.533-.517-1.168-.528-1.904h1.792c.011.597.219 1.104.624 1.52s.976.624 1.712.624c.651 0 1.157-.155 1.52-.464a1.53 1.53 0 0 0 .56-1.216c0-.395-.091-.715-.272-.96-.171-.245-.411-.448-.72-.608-.299-.16-.645-.304-1.04-.432l-1.248-.416c-.864-.288-1.515-.661-1.952-1.12-.427-.459-.64-1.061-.64-1.808-.011-.629.133-1.179.432-1.648a3.05 3.05 0 0 1 1.28-1.088c.555-.267 1.2-.4 1.936-.4.725 0 1.36.133 1.904.4a3.1 3.1 0 0 1 1.296 1.12c.309.469.469 1.019.48 1.648H90.56c0-.288-.075-.56-.224-.816-.149-.267-.368-.485-.656-.656s-.64-.256-1.056-.256c-.533-.011-.976.123-1.328.4-.341.277-.512.661-.512 1.152 0 .437.128.773.384 1.008s.608.432 1.056.592l1.536.528c.555.181 1.051.4 1.488.656s.784.592 1.04 1.008c.267.416.4.944.4 1.584 0 .565-.144 1.093-.432 1.584-.288.48-.72.875-1.296 1.184-.576.299-1.285.448-2.128.448zm6.606-9.632a1.15 1.15 0 0 1-.8-.288 1.02 1.02 0 0 1-.304-.752c0-.299.101-.544.304-.736.213-.203.48-.304.8-.304a1.06 1.06 0 0 1 .784.304c.213.192.32.437.32.736s-.107.549-.32.752c-.203.192-.464.288-.784.288zM94.59 264v-7.936h1.696V264H94.59zm8.063 3.712c-.683 0-1.323-.117-1.92-.352a3.66 3.66 0 0 1-1.488-1.04c-.405-.459-.661-1.035-.768-1.728h1.68a2.09 2.09 0 0 0 .864 1.2c.448.299.987.448 1.616.448a2.52 2.52 0 0 0 1.76-.672c.491-.437.736-1.099.736-1.984v-1.072c-.245.416-.613.784-1.104 1.104-.48.32-1.083.48-1.808.48a3.98 3.98 0 0 1-2.032-.528c-.597-.363-1.072-.853-1.424-1.472-.352-.629-.528-1.333-.528-2.112 0-.789.176-1.493.528-2.112s.827-1.104 1.424-1.456c.608-.363 1.291-.544 2.048-.544.651 0 1.227.144 1.728.432.501.277.891.624 1.168 1.04l.16-1.28h1.536v7.456c0 .896-.187 1.653-.56 2.272-.363.629-.859 1.104-1.488 1.424-.629.331-1.339.496-2.128.496zm-.128-5.072c.501 0 .944-.112 1.328-.336a2.58 2.58 0 0 0 .912-.944c.224-.405.336-.864.336-1.376 0-.523-.112-.981-.336-1.376s-.528-.704-.912-.928-.827-.336-1.328-.336c-.491 0-.928.112-1.312.336s-.688.533-.912.928-.336.853-.336 1.376c0 .512.112.971.336 1.376a2.58 2.58 0 0 0 .912.944c.384.224.821.336 1.312.336zm6.453 1.36v-7.936h1.504l.128 1.392a2.73 2.73 0 0 1 1.072-1.152c.48-.288 1.03-.432 1.648-.432.96 0 1.712.299 2.256.896.555.597.832 1.488.832 2.672V264h-1.68v-4.384c0-1.536-.629-2.304-1.888-2.304-.629 0-1.152.224-1.568.672-.405.448-.608 1.088-.608 1.92V264h-1.696zm17.725.192c-.8 0-1.525-.155-2.176-.464-.64-.32-1.152-.805-1.536-1.456-.373-.651-.56-1.477-.56-2.48V252.8h1.696v7.008c0 .981.235 1.701.704 2.16s1.104.688 1.904.688c.789 0 1.419-.229 1.888-.688s.704-1.179.704-2.16V252.8h1.696v6.992c0 1.003-.197 1.829-.592 2.48a3.62 3.62 0 0 1-1.568 1.456c-.651.309-1.371.464-2.16.464zm6.432 3.328v-11.456h1.52l.176 1.232c.256-.373.608-.704 1.056-.992s1.024-.432 1.728-.432c.768 0 1.445.181 2.032.544a3.79 3.79 0 0 1 1.376 1.488c.341.629.512 1.344.512 2.144s-.171 1.515-.512 2.144c-.331.619-.79 1.109-1.376 1.472-.587.352-1.27.528-2.048.528-.619 0-1.168-.123-1.648-.368a2.83 2.83 0 0 1-1.12-1.04v4.736h-1.696zm4.176-4.8c.725 0 1.322-.245 1.792-.736.469-.501.704-1.152.704-1.952 0-.523-.107-.987-.32-1.392a2.36 2.36 0 0 0-.88-.944c-.374-.235-.806-.352-1.296-.352-.726 0-1.323.251-1.792.752-.459.501-.688 1.147-.688 1.936 0 .8.229 1.451.688 1.952.469.491 1.066.736 1.792.736zm13.417 1.28c-.779 0-1.397-.187-1.856-.56-.459-.384-.688-1.061-.688-2.032v-3.92h-1.36v-1.424h1.36l.208-2.016h1.488v2.016h2.24v1.424h-2.24v3.92c0 .437.091.741.272.912.192.16.517.24.976.24h.912V264h-1.312zm6.65.192c-.758 0-1.44-.171-2.048-.512a3.88 3.88 0 0 1-1.424-1.456c-.352-.629-.528-1.36-.528-2.192s.176-1.557.528-2.176c.362-.629.848-1.115 1.456-1.456a3.98 3.98 0 0 1 2.032-.528c.757 0 1.434.176 2.032.528.608.341 1.088.827 1.44 1.456.362.619.544 1.344.544 2.176s-.182 1.563-.544 2.192a3.85 3.85 0 0 1-1.44 1.456c-.608.341-1.291.512-2.048.512zm0-1.456c.405 0 .778-.101 1.12-.304.352-.203.634-.501.848-.896.213-.405.32-.907.32-1.504s-.107-1.093-.32-1.488c-.203-.405-.48-.709-.832-.912-.342-.203-.715-.304-1.12-.304s-.784.101-1.136.304c-.342.203-.619.507-.832.912-.214.395-.32.891-.32 1.488s.106 1.099.32 1.504c.213.395.49.693.832.896a2.15 2.15 0 0 0 1.12.304zm13.545 1.456c-.725 0-1.387-.128-1.984-.384a3.28 3.28 0 0 1-1.408-1.2c-.352-.533-.539-1.2-.56-2h1.68c.021.597.224 1.104.608 1.52.395.405.949.608 1.664.608.683 0 1.205-.187 1.568-.56.363-.384.544-.859.544-1.424 0-.683-.245-1.189-.736-1.52-.48-.331-1.072-.496-1.776-.496h-.832v-1.408h.848c.629 0 1.136-.149 1.52-.448.395-.299.592-.72.592-1.264a1.46 1.46 0 0 0-.464-1.12c-.299-.288-.725-.432-1.28-.432-.576 0-1.029.171-1.36.512-.331.331-.512.747-.544 1.248h-1.68c.021-.651.181-1.216.48-1.696.309-.48.731-.853 1.264-1.12s1.147-.4 1.84-.4c.747 0 1.371.133 1.872.4.512.256.896.608 1.152 1.056a2.71 2.71 0 0 1 .4 1.44c0 .597-.165 1.12-.496 1.568a2.36 2.36 0 0 1-1.328.896c.64.139 1.168.453 1.584.944.416.48.624 1.104.624 1.872a3.49 3.49 0 0 1-.432 1.712c-.288.512-.715.923-1.28 1.232s-1.259.464-2.08.464zm10.365 0c-1.013 0-1.888-.24-2.624-.72-.725-.491-1.285-1.168-1.68-2.032-.384-.875-.576-1.888-.576-3.04s.192-2.16.576-3.024c.395-.875.955-1.552 1.68-2.032.736-.491 1.611-.736 2.624-.736s1.883.245 2.608.736c.725.48 1.28 1.157 1.664 2.032.395.864.592 1.872.592 3.024s-.197 2.165-.592 3.04c-.384.864-.939 1.541-1.664 2.032-.725.48-1.595.72-2.608.72zm0-1.52c.608 0 1.147-.171 1.616-.512.48-.341.853-.832 1.12-1.472s.4-1.403.4-2.288-.133-1.648-.4-2.288-.64-1.131-1.12-1.472c-.469-.341-1.008-.512-1.616-.512-.619 0-1.163.171-1.632.512s-.837.832-1.104 1.472-.4 1.403-.4 2.288.133 1.648.4 2.288.635 1.131 1.104 1.472 1.013.512 1.632.512zm6.53-2.608v-1.424h6.512v1.424h-6.512zm12.089 4.128c-.768 0-1.446-.181-2.032-.544s-1.046-.859-1.376-1.488-.496-1.344-.496-2.144.165-1.509.496-2.128a3.66 3.66 0 0 1 1.376-1.472c.597-.363 1.28-.544 2.048-.544.629 0 1.178.123 1.648.368.48.245.853.592 1.12 1.04v-4.8h1.696V264h-1.52l-.176-1.232c-.256.373-.608.704-1.056.992s-1.024.432-1.728.432zm.304-1.472c.725 0 1.317-.251 1.776-.752.469-.501.704-1.147.704-1.936 0-.8-.235-1.445-.704-1.936-.459-.501-1.051-.752-1.776-.752s-1.323.251-1.792.752c-.47.491-.704 1.136-.704 1.936 0 .523.106.987.32 1.392a2.47 2.47 0 0 0 .88.96c.384.224.816.336 1.296.336zm9.002 1.472c-.672 0-1.227-.112-1.664-.336s-.763-.517-.976-.88c-.213-.373-.32-.779-.32-1.216 0-.768.299-1.376.896-1.824s1.451-.672 2.56-.672h2.08v-.144c0-.619-.171-1.083-.512-1.392-.331-.309-.763-.464-1.296-.464-.469 0-.88.117-1.232.352-.341.224-.549.56-.624 1.008h-1.696c.053-.576.245-1.067.576-1.472.341-.416.768-.731 1.28-.944a4.3 4.3 0 0 1 1.712-.336c1.109 0 1.968.293 2.576.88.608.576.912 1.365.912 2.368V264h-1.472l-.144-1.36c-.224.437-.549.805-.976 1.104s-.987.448-1.68.448zm.336-1.376c.459 0 .843-.107 1.152-.32.32-.224.565-.517.736-.88.181-.363.293-.763.336-1.2h-1.888c-.672 0-1.152.117-1.44.352-.277.235-.416.528-.416.88 0 .363.133.651.4.864.277.203.651.304 1.12.304zm6.592 4.704l1.904-4.176h-.464l-3.136-7.28h1.84l2.432 5.872 2.544-5.872h1.792l-5.12 11.456h-1.792zm12.401-3.52v-11.2h7.024v1.376h-5.328v3.536h4.416v1.36h-4.416V264h-1.696zm8.624 0v-7.936h1.52l.144 1.504c.277-.523.661-.933 1.152-1.232.501-.309 1.104-.464 1.808-.464v1.776h-.464c-.47 0-.891.08-1.264.24-.363.149-.656.411-.88.784-.214.363-.32.869-.32 1.52V264h-1.696zm9.571.192c-.779 0-1.472-.171-2.08-.512a3.77 3.77 0 0 1-1.408-1.456c-.341-.619-.512-1.339-.512-2.16 0-.832.165-1.563.496-2.192.341-.629.811-1.12 1.408-1.472.608-.352 1.312-.528 2.112-.528.779 0 1.456.176 2.032.528.576.341 1.024.8 1.344 1.376s.48 1.211.48 1.904l-.016.352-.016.4h-6.176c.053.768.304 1.355.752 1.76.459.395.987.592 1.584.592.48 0 .88-.107 1.2-.32a2.02 2.02 0 0 0 .736-.896h1.696a3.58 3.58 0 0 1-1.28 1.872c-.629.501-1.413.752-2.352.752zm0-6.928a2.38 2.38 0 0 0-1.504.512c-.437.331-.704.832-.8 1.504h4.48c-.032-.619-.251-1.109-.656-1.472s-.912-.544-1.52-.544zm9.344 6.928c-.779 0-1.472-.171-2.08-.512a3.77 3.77 0 0 1-1.408-1.456c-.341-.619-.512-1.339-.512-2.16 0-.832.165-1.563.496-2.192.341-.629.811-1.12 1.408-1.472.608-.352 1.312-.528 2.112-.528.779 0 1.456.176 2.032.528.576.341 1.024.8 1.344 1.376s.48 1.211.48 1.904l-.016.352-.016.4h-6.176c.053.768.304 1.355.752 1.76.459.395.987.592 1.584.592.48 0 .88-.107 1.2-.32a2.02 2.02 0 0 0 .736-.896h1.696a3.58 3.58 0 0 1-1.28 1.872c-.629.501-1.413.752-2.352.752zm0-6.928a2.38 2.38 0 0 0-1.504.512c-.437.331-.704.832-.8 1.504h4.48c-.032-.619-.251-1.109-.656-1.472s-.912-.544-1.52-.544zM268.432 264v-9.824h-3.312V252.8h8.304v1.376h-3.296V264h-1.696zm5.671 0v-7.936h1.52l.144 1.504c.278-.523.662-.933 1.152-1.232.502-.309 1.104-.464 1.808-.464v1.776h-.464c-.469 0-.89.08-1.264.24-.362.149-.656.411-.88.784-.213.363-.32.869-.32 1.52V264h-1.696zm7.038-9.44c-.32 0-.586-.096-.8-.288-.202-.203-.304-.453-.304-.752a.97.97 0 0 1 .304-.736c.214-.203.48-.304.8-.304s.582.101.784.304c.214.192.32.437.32.736s-.106.549-.32.752c-.202.192-.464.288-.784.288zm-.848 9.44v-7.936h1.696V264h-1.696zm6.623.192c-.672 0-1.226-.112-1.664-.336s-.762-.517-.976-.88c-.213-.373-.32-.779-.32-1.216 0-.768.299-1.376.896-1.824s1.451-.672 2.56-.672h2.08v-.144c0-.619-.17-1.083-.512-1.392-.33-.309-.762-.464-1.296-.464-.469 0-.88.117-1.232.352-.341.224-.549.56-.624 1.008h-1.696c.054-.576.246-1.067.576-1.472a3.24 3.24 0 0 1 1.28-.944c.523-.224 1.094-.336 1.712-.336 1.11 0 1.968.293 2.576.88.608.576.912 1.365.912 2.368V264h-1.472l-.144-1.36c-.224.437-.549.805-.976 1.104s-.986.448-1.68.448zm.336-1.376c.459 0 .843-.107 1.152-.32.32-.224.566-.517.736-.88.182-.363.294-.763.336-1.2h-1.888c-.672 0-1.152.117-1.44.352-.277.235-.416.528-.416.88 0 .363.134.651.4.864.278.203.651.304 1.12.304zm5.914 1.184v-11.52h1.696V264h-1.696zm176.185.192c-.747 0-1.424-.133-2.032-.4-.598-.277-1.078-.661-1.44-1.152-.352-.491-.528-1.067-.528-1.728a3.07 3.07 0 0 1 .56-1.808 2.85 2.85 0 0 1 1.52-1.088c-.566-.224-1.003-.549-1.312-.976-.31-.437-.464-.917-.464-1.44 0-.544.144-1.04.432-1.488.288-.459.704-.821 1.248-1.088.554-.277 1.226-.416 2.016-.416s1.456.139 2 .416c.554.267.976.629 1.264 1.088.288.448.432.944.432 1.488 0 .512-.16.992-.48 1.44-.31.437-.747.763-1.312.976a2.86 2.86 0 0 1 1.504 1.104c.384.523.576 1.12.576 1.792 0 .661-.176 1.237-.528 1.728s-.832.875-1.44 1.152c-.598.267-1.27.4-2.016.4zm0-6.72c.618 0 1.104-.16 1.456-.48a1.57 1.57 0 0 0 .544-1.232c0-.565-.176-.997-.528-1.296s-.843-.448-1.472-.448-1.12.149-1.472.448-.528.731-.528 1.296c0 .501.176.912.528 1.232s.842.48 1.472.48zm0 5.28c.768 0 1.344-.181 1.728-.544.384-.373.576-.848.576-1.424 0-.64-.208-1.131-.624-1.472-.406-.352-.966-.528-1.68-.528s-1.28.176-1.696.528c-.416.341-.624.832-.624 1.472 0 .576.192 1.051.576 1.424.394.363.976.544 1.744.544zm9.436 1.44c-.736 0-1.366-.144-1.888-.432a3.28 3.28 0 0 1-1.232-1.152c-.288-.48-.464-1.003-.528-1.568h1.584c.096.555.325.981.688 1.28s.826.448 1.392.448c.778 0 1.418-.363 1.92-1.088.512-.736.784-1.861.816-3.376-.256.469-.656.869-1.2 1.2-.534.331-1.152.496-1.856.496a3.68 3.68 0 0 1-1.776-.448c-.555-.299-1.003-.715-1.344-1.248-.342-.544-.512-1.184-.512-1.92a3.73 3.73 0 0 1 .48-1.84c.32-.576.768-1.04 1.344-1.392.586-.363 1.28-.544 2.08-.544.821 0 1.514.155 2.08.464s1.018.72 1.36 1.232.586 1.088.736 1.728c.16.64.24 1.296.24 1.968 0 1.237-.176 2.32-.528 3.248-.342.928-.838 1.653-1.488 2.176-.651.512-1.44.768-2.368.768zm.08-5.648c.448 0 .848-.101 1.2-.304s.629-.469.832-.8c.213-.341.32-.715.32-1.12 0-.437-.107-.821-.32-1.152-.203-.341-.486-.608-.848-.8-.352-.192-.752-.288-1.2-.288s-.848.096-1.2.288a2.26 2.26 0 0 0-.848.8c-.203.331-.304.709-.304 1.136 0 .683.224 1.227.672 1.632s1.013.608 1.696.608z"/></g><rect x="72" y="275" width="47" height="2" rx="1" fill="#6ece9d"/></g><path d="M492.667 76.333l-5 5m5-5h-5m5 0v5m-13.334 8.334l5-5m-5 5v-5m0 5h5" stroke="#707070" stroke-width="2" stroke-miterlimit="10" stroke-linecap="round" stroke-linejoin="round"/><path d="M78.894 88.216c-1.248 0-2.328-.27-3.24-.81-.9-.552-1.596-1.314-2.088-2.286-.492-.984-.738-2.118-.738-3.402 0-1.296.246-2.43.738-3.402a5.55 5.55 0 0 1 2.088-2.304c.912-.552 1.992-.828 3.24-.828 1.476 0 2.682.36 3.618 1.08s1.53 1.728 1.782 3.024H82.17c-.168-.732-.528-1.314-1.08-1.746s-1.29-.648-2.214-.648c-1.26 0-2.256.432-2.988 1.296-.732.852-1.098 2.028-1.098 3.528 0 1.488.366 2.658 1.098 3.51s1.728 1.278 2.988 1.278c.924 0 1.662-.204 2.214-.612s.912-.966 1.08-1.674h2.124c-.252 1.248-.846 2.226-1.782 2.934s-2.142 1.062-3.618 1.062zm11.601 0c-.852 0-1.62-.192-2.304-.576-.672-.396-1.206-.942-1.602-1.638-.396-.708-.594-1.53-.594-2.466s.198-1.752.594-2.448c.408-.708.954-1.254 1.638-1.638.684-.396 1.446-.594 2.286-.594.852 0 1.614.198 2.286.594a4.17 4.17 0 0 1 1.62 1.638c.408.696.612 1.512.612 2.448s-.204 1.758-.612 2.466c-.396.696-.936 1.242-1.62 1.638-.684.384-1.452.576-2.304.576zm0-1.638c.456 0 .876-.114 1.26-.342a2.5 2.5 0 0 0 .954-1.008c.24-.456.36-1.02.36-1.692s-.12-1.23-.36-1.674c-.228-.456-.54-.798-.936-1.026-.384-.228-.804-.342-1.26-.342a2.52 2.52 0 0 0-1.278.342c-.384.228-.696.57-.936 1.026-.24.444-.36 1.002-.36 1.674s.12 1.236.36 1.692c.24.444.552.78.936 1.008s.804.342 1.26.342zM97.095 88v-8.928h1.692l.144 1.566c.276-.552.678-.984 1.206-1.296.54-.324 1.158-.486 1.854-.486 1.08 0 1.926.336 2.538 1.008.624.672.936 1.674.936 3.006V88h-1.89v-4.932c0-1.728-.708-2.592-2.124-2.592-.708 0-1.296.252-1.764.756-.456.504-.684 1.224-.684 2.16V88h-1.908zm12.978 0l-3.348-8.928h1.998l2.484 7.11 2.484-7.11h1.98L112.341 88h-2.268zm10.885.216c-.876 0-1.656-.192-2.34-.576a4.24 4.24 0 0 1-1.584-1.638c-.384-.696-.576-1.506-.576-2.43 0-.936.186-1.758.558-2.466a4.21 4.21 0 0 1 1.584-1.656c.684-.396 1.476-.594 2.376-.594.876 0 1.638.198 2.286.594a4.07 4.07 0 0 1 1.512 1.548c.36.648.54 1.362.54 2.142l-.018.396-.018.45h-6.948c.06.864.342 1.524.846 1.98a2.65 2.65 0 0 0 1.782.666c.54 0 .99-.12 1.35-.36a2.27 2.27 0 0 0 .828-1.008h1.908c-.24.84-.72 1.542-1.44 2.106-.708.564-1.59.846-2.646.846zm0-7.794c-.636 0-1.2.192-1.692.576-.492.372-.792.936-.9 1.692h5.04c-.036-.696-.282-1.248-.738-1.656s-1.026-.612-1.71-.612zM127.294 88v-8.928h1.71l.162 1.692a3.52 3.52 0 0 1 1.296-1.386c.564-.348 1.242-.522 2.034-.522v1.998h-.522c-.528 0-1.002.09-1.422.27a2.06 2.06 0 0 0-.99.882c-.24.408-.36.978-.36 1.71V88h-1.908zm10.402.216c-1.128 0-2.058-.276-2.79-.828a3.1 3.1 0 0 1-1.26-2.196h1.926c.096.408.324.762.684 1.062.36.288.834.432 1.422.432.576 0 .996-.12 1.26-.36s.396-.516.396-.828c0-.456-.186-.762-.558-.918-.36-.168-.864-.318-1.512-.45a11.92 11.92 0 0 1-1.512-.432c-.492-.18-.906-.432-1.242-.756-.324-.336-.486-.786-.486-1.35 0-.78.3-1.428.9-1.944.6-.528 1.44-.792 2.52-.792.996 0 1.8.24 2.412.72.624.48.99 1.158 1.098 2.034h-1.836a1.31 1.31 0 0 0-.54-.9c-.288-.216-.678-.324-1.17-.324-.48 0-.852.102-1.116.306-.264.192-.396.444-.396.756s.18.558.54.738c.372.18.858.342 1.458.486a13.65 13.65 0 0 1 1.656.468c.516.168.93.42 1.242.756s.468.828.468 1.476c.012.816-.306 1.494-.954 2.034-.636.54-1.506.81-2.61.81zm6.727-10.836c-.36 0-.66-.108-.9-.324a1.15 1.15 0 0 1-.342-.846 1.09 1.09 0 0 1 .342-.828c.24-.228.54-.342.9-.342s.654.114.882.342c.24.216.36.492.36.828a1.12 1.12 0 0 1-.36.846c-.228.216-.522.324-.882.324zM143.469 88v-8.928h1.908V88h-1.908zm8.602.216c-.852 0-1.62-.192-2.304-.576-.672-.396-1.206-.942-1.602-1.638-.396-.708-.594-1.53-.594-2.466s.198-1.752.594-2.448c.408-.708.954-1.254 1.638-1.638.684-.396 1.446-.594 2.286-.594.852 0 1.614.198 2.286.594a4.17 4.17 0 0 1 1.62 1.638c.408.696.612 1.512.612 2.448s-.204 1.758-.612 2.466c-.396.696-.936 1.242-1.62 1.638-.684.384-1.452.576-2.304.576zm0-1.638c.456 0 .876-.114 1.26-.342a2.5 2.5 0 0 0 .954-1.008c.24-.456.36-1.02.36-1.692s-.12-1.23-.36-1.674c-.228-.456-.54-.798-.936-1.026-.384-.228-.804-.342-1.26-.342a2.52 2.52 0 0 0-1.278.342c-.384.228-.696.57-.936 1.026-.24.444-.36 1.002-.36 1.674s.12 1.236.36 1.692c.24.444.552.78.936 1.008s.804.342 1.26.342zm6.6 1.422v-8.928h1.692l.144 1.566c.276-.552.678-.984 1.206-1.296.54-.324 1.158-.486 1.854-.486 1.08 0 1.926.336 2.538 1.008.624.672.936 1.674.936 3.006V88h-1.89v-4.932c0-1.728-.708-2.592-2.124-2.592-.708 0-1.296.252-1.764.756-.456.504-.684 1.224-.684 2.16V88h-1.908zm20.696.216c-1.188 0-2.226-.27-3.114-.81s-1.578-1.296-2.07-2.268-.738-2.106-.738-3.402c0-1.284.252-2.418.756-3.402s1.218-1.752 2.142-2.304c.936-.564 2.04-.846 3.312-.846 1.44 0 2.64.348 3.6 1.044s1.584 1.656 1.872 2.88h-2.16c-.192-.672-.57-1.2-1.134-1.584s-1.29-.576-2.178-.576c-1.32 0-2.358.426-3.114 1.278s-1.134 2.028-1.134 3.528.372 2.67 1.116 3.51 1.734 1.26 2.97 1.26c1.248 0 2.184-.354 2.808-1.062.636-.708 1.008-1.65 1.116-2.826h-3.42V81.16h5.346V88h-1.746l-.162-1.854c-.42.66-.948 1.17-1.584 1.53s-1.464.54-2.484.54zm12.396 0c-.852 0-1.62-.192-2.304-.576-.672-.396-1.206-.942-1.602-1.638-.396-.708-.594-1.53-.594-2.466s.198-1.752.594-2.448c.408-.708.954-1.254 1.638-1.638.684-.396 1.446-.594 2.286-.594.852 0 1.614.198 2.286.594a4.17 4.17 0 0 1 1.62 1.638c.408.696.612 1.512.612 2.448s-.204 1.758-.612 2.466c-.396.696-.936 1.242-1.62 1.638-.684.384-1.452.576-2.304.576zm0-1.638c.456 0 .876-.114 1.26-.342a2.5 2.5 0 0 0 .954-1.008c.24-.456.36-1.02.36-1.692s-.12-1.23-.36-1.674c-.228-.456-.54-.798-.936-1.026-.384-.228-.804-.342-1.26-.342a2.52 2.52 0 0 0-1.278.342c-.384.228-.696.57-.936 1.026-.24.444-.36 1.002-.36 1.674s.12 1.236.36 1.692c.24.444.552.78.936 1.008s.804.342 1.26.342zm9.623 1.638c-.756 0-1.38-.126-1.872-.378s-.858-.582-1.098-.99a2.71 2.71 0 0 1-.36-1.368c0-.864.336-1.548 1.008-2.052s1.632-.756 2.88-.756h2.34v-.162c0-.696-.192-1.218-.576-1.566-.372-.348-.858-.522-1.458-.522-.528 0-.99.132-1.386.396-.384.252-.618.63-.702 1.134h-1.908c.06-.648.276-1.2.648-1.656.384-.468.864-.822 1.44-1.062.588-.252 1.23-.378 1.926-.378 1.248 0 2.214.33 2.898.99.684.648 1.026 1.536 1.026 2.664V88h-1.656l-.162-1.53c-.252.492-.618.906-1.098 1.242s-1.11.504-1.89.504zm.378-1.548c.516 0 .948-.12 1.296-.36.36-.252.636-.582.828-.99a3.82 3.82 0 0 0 .378-1.35h-2.124c-.756 0-1.296.132-1.62.396-.312.264-.468.594-.468.99 0 .408.15.732.45.972.312.228.732.342 1.26.342zM208.417 88V75.04h1.908V88h-1.908zm7.888.216c-1.128 0-2.058-.276-2.79-.828a3.1 3.1 0 0 1-1.26-2.196h1.926c.096.408.324.762.684 1.062.36.288.834.432 1.422.432.576 0 .996-.12 1.26-.36s.396-.516.396-.828c0-.456-.186-.762-.558-.918-.36-.168-.864-.318-1.512-.45a11.92 11.92 0 0 1-1.512-.432c-.492-.18-.906-.432-1.242-.756-.324-.336-.486-.786-.486-1.35 0-.78.3-1.428.9-1.944.6-.528 1.44-.792 2.52-.792.996 0 1.8.24 2.412.72.624.48.99 1.158 1.098 2.034h-1.836a1.31 1.31 0 0 0-.54-.9c-.288-.216-.678-.324-1.17-.324-.48 0-.852.102-1.116.306-.264.192-.396.444-.396.756s.18.558.54.738c.372.18.858.342 1.458.486a13.65 13.65 0 0 1 1.656.468c.516.168.93.42 1.242.756s.468.828.468 1.476c.012.816-.306 1.494-.954 2.034-.636.54-1.506.81-2.61.81z" fill="#707070"/><rect x="48" y="313" width="472" height="253" rx="12" fill="#fff"/><path d="M492.667 341.333l-5 5m5-5h-5m5 0v5m-13.334 8.334l5-5m-5 5v-5m0 5h5" stroke="#707070" stroke-width="2" stroke-miterlimit="10" stroke-linecap="round" stroke-linejoin="round"/><path d="M73.278 353v-12.6h8.01v1.548h-6.102v3.924h5.562v1.512h-5.562v4.068h6.102V353h-8.01zm12.713 0l-3.348-8.928h1.998l2.484 7.11 2.484-7.11h1.98L88.259 353h-2.268zm10.885.216c-.876 0-1.656-.192-2.34-.576a4.24 4.24 0 0 1-1.584-1.638c-.384-.696-.576-1.506-.576-2.43 0-.936.186-1.758.558-2.466a4.21 4.21 0 0 1 1.584-1.656c.684-.396 1.476-.594 2.376-.594.876 0 1.638.198 2.286.594a4.07 4.07 0 0 1 1.512 1.548c.36.648.54 1.362.54 2.142l-.018.396-.018.45h-6.948c.06.864.342 1.524.846 1.98a2.65 2.65 0 0 0 1.782.666c.54 0 .99-.12 1.35-.36a2.27 2.27 0 0 0 .828-1.008h1.908c-.24.84-.72 1.542-1.44 2.106-.708.564-1.59.846-2.646.846zm0-7.794c-.636 0-1.2.192-1.692.576-.492.372-.792.936-.9 1.692h5.04c-.036-.696-.282-1.248-.738-1.656s-1.026-.612-1.71-.612zm6.336 7.578v-8.928h1.692l.144 1.566c.276-.552.678-.984 1.206-1.296.54-.324 1.158-.486 1.854-.486 1.08 0 1.926.336 2.538 1.008.624.672.936 1.674.936 3.006V353h-1.89v-4.932c0-1.728-.708-2.592-2.124-2.592-.708 0-1.296.252-1.764.756-.456.504-.684 1.224-.684 2.16V353h-1.908zm14.361 0c-.876 0-1.572-.21-2.088-.63-.516-.432-.774-1.194-.774-2.286v-4.41h-1.53v-1.602h1.53l.234-2.268h1.674v2.268h2.52v1.602h-2.52v4.41c0 .492.102.834.306 1.026.216.18.582.27 1.098.27h1.026V353h-1.476zm7.097.216c-1.128 0-2.058-.276-2.79-.828a3.1 3.1 0 0 1-1.26-2.196h1.926c.096.408.324.762.684 1.062.36.288.834.432 1.422.432.576 0 .996-.12 1.26-.36s.396-.516.396-.828c0-.456-.186-.762-.558-.918-.36-.168-.864-.318-1.512-.45a11.92 11.92 0 0 1-1.512-.432c-.492-.18-.906-.432-1.242-.756-.324-.336-.486-.786-.486-1.35 0-.78.3-1.428.9-1.944.6-.528 1.44-.792 2.52-.792.996 0 1.8.24 2.412.72.624.48.99 1.158 1.098 2.034h-1.836a1.31 1.31 0 0 0-.54-.9c-.288-.216-.678-.324-1.17-.324-.48 0-.852.102-1.116.306-.264.192-.396.444-.396.756s.18.558.54.738c.372.18.858.342 1.458.486a13.65 13.65 0 0 1 1.656.468c.516.168.93.42 1.242.756s.468.828.468 1.476c.012.816-.306 1.494-.954 2.034-.636.54-1.506.81-2.61.81z" fill="#707070"/><g clip-path="url(#E)" fill="#000"><path d="M88.832 485.192c-.821 0-1.541-.144-2.16-.432a3.44 3.44 0 0 1-1.456-1.232c-.341-.533-.517-1.168-.528-1.904h1.792c.011.597.219 1.104.624 1.52s.976.624 1.712.624c.651 0 1.157-.155 1.52-.464a1.53 1.53 0 0 0 .56-1.216c0-.395-.091-.715-.272-.96-.171-.245-.411-.448-.72-.608-.299-.16-.645-.304-1.04-.432l-1.248-.416c-.864-.288-1.515-.661-1.952-1.12-.427-.459-.64-1.061-.64-1.808-.011-.629.133-1.179.432-1.648a3.05 3.05 0 0 1 1.28-1.088c.555-.267 1.2-.4 1.936-.4.725 0 1.36.133 1.904.4a3.1 3.1 0 0 1 1.296 1.12c.309.469.469 1.019.48 1.648H90.56c0-.288-.075-.56-.224-.816-.149-.267-.368-.485-.656-.656s-.64-.256-1.056-.256c-.533-.011-.976.123-1.328.4-.341.277-.512.661-.512 1.152 0 .437.128.773.384 1.008s.608.432 1.056.592l1.536.528c.555.181 1.051.4 1.488.656s.784.592 1.04 1.008c.267.416.4.944.4 1.584 0 .565-.144 1.093-.432 1.584-.288.48-.72.875-1.296 1.184-.576.299-1.285.448-2.128.448zm6.606-9.632a1.15 1.15 0 0 1-.8-.288 1.02 1.02 0 0 1-.304-.752c0-.299.101-.544.304-.736.213-.203.48-.304.8-.304a1.06 1.06 0 0 1 .784.304c.213.192.32.437.32.736s-.107.549-.32.752c-.203.192-.464.288-.784.288zM94.59 485v-7.936h1.696V485H94.59zm8.063 3.712c-.683 0-1.323-.117-1.92-.352a3.66 3.66 0 0 1-1.488-1.04c-.405-.459-.661-1.035-.768-1.728h1.68a2.09 2.09 0 0 0 .864 1.2c.448.299.987.448 1.616.448a2.52 2.52 0 0 0 1.76-.672c.491-.437.736-1.099.736-1.984v-1.072c-.245.416-.613.784-1.104 1.104-.48.32-1.083.48-1.808.48a3.98 3.98 0 0 1-2.032-.528c-.597-.363-1.072-.853-1.424-1.472-.352-.629-.528-1.333-.528-2.112 0-.789.176-1.493.528-2.112s.827-1.104 1.424-1.456c.608-.363 1.291-.544 2.048-.544.651 0 1.227.144 1.728.432.501.277.891.624 1.168 1.04l.16-1.28h1.536v7.456c0 .896-.187 1.653-.56 2.272-.363.629-.859 1.104-1.488 1.424-.629.331-1.339.496-2.128.496zm-.128-5.072c.501 0 .944-.112 1.328-.336a2.58 2.58 0 0 0 .912-.944c.224-.405.336-.864.336-1.376 0-.523-.112-.981-.336-1.376s-.528-.704-.912-.928-.827-.336-1.328-.336c-.491 0-.928.112-1.312.336s-.688.533-.912.928-.336.853-.336 1.376c0 .512.112.971.336 1.376a2.58 2.58 0 0 0 .912.944c.384.224.821.336 1.312.336zm6.453 1.36v-7.936h1.504l.128 1.392a2.73 2.73 0 0 1 1.072-1.152c.48-.288 1.03-.432 1.648-.432.96 0 1.712.299 2.256.896.555.597.832 1.488.832 2.672V485h-1.68v-4.384c0-1.536-.629-2.304-1.888-2.304-.629 0-1.152.224-1.568.672-.405.448-.608 1.088-.608 1.92V485h-1.696zm17.725.192c-.8 0-1.525-.155-2.176-.464-.64-.32-1.152-.805-1.536-1.456-.373-.651-.56-1.477-.56-2.48V473.8h1.696v7.008c0 .981.235 1.701.704 2.16s1.104.688 1.904.688c.789 0 1.419-.229 1.888-.688s.704-1.179.704-2.16V473.8h1.696v6.992c0 1.003-.197 1.829-.592 2.48a3.62 3.62 0 0 1-1.568 1.456c-.651.309-1.371.464-2.16.464zm6.432 3.328v-11.456h1.52l.176 1.232c.256-.373.608-.704 1.056-.992s1.024-.432 1.728-.432c.768 0 1.445.181 2.032.544a3.79 3.79 0 0 1 1.376 1.488c.341.629.512 1.344.512 2.144s-.171 1.515-.512 2.144c-.331.619-.79 1.109-1.376 1.472-.587.352-1.27.528-2.048.528-.619 0-1.168-.123-1.648-.368a2.83 2.83 0 0 1-1.12-1.04v4.736h-1.696zm4.176-4.8c.725 0 1.322-.245 1.792-.736.469-.501.704-1.152.704-1.952 0-.523-.107-.987-.32-1.392a2.36 2.36 0 0 0-.88-.944c-.374-.235-.806-.352-1.296-.352-.726 0-1.323.251-1.792.752-.459.501-.688 1.147-.688 1.936 0 .8.229 1.451.688 1.952.469.491 1.066.736 1.792.736zm13.417 1.28c-.779 0-1.397-.187-1.856-.56-.459-.384-.688-1.061-.688-2.032v-3.92h-1.36v-1.424h1.36l.208-2.016h1.488v2.016h2.24v1.424h-2.24v3.92c0 .437.091.741.272.912.192.16.517.24.976.24h.912V485h-1.312zm6.65.192c-.758 0-1.44-.171-2.048-.512a3.88 3.88 0 0 1-1.424-1.456c-.352-.629-.528-1.36-.528-2.192s.176-1.557.528-2.176c.362-.629.848-1.115 1.456-1.456a3.98 3.98 0 0 1 2.032-.528c.757 0 1.434.176 2.032.528.608.341 1.088.827 1.44 1.456.362.619.544 1.344.544 2.176s-.182 1.563-.544 2.192a3.85 3.85 0 0 1-1.44 1.456c-.608.341-1.291.512-2.048.512zm0-1.456c.405 0 .778-.101 1.12-.304.352-.203.634-.501.848-.896.213-.405.32-.907.32-1.504s-.107-1.093-.32-1.488c-.203-.405-.48-.709-.832-.912-.342-.203-.715-.304-1.12-.304s-.784.101-1.136.304c-.342.203-.619.507-.832.912-.214.395-.32.891-.32 1.488s.106 1.099.32 1.504c.213.395.49.693.832.896a2.15 2.15 0 0 0 1.12.304zm9.961 1.264v-11.2h1.696l5.616 8.432V473.8h1.696V485h-1.696l-5.616-8.432V485h-1.696zm14.929.192c-.778 0-1.472-.171-2.08-.512-.597-.352-1.066-.837-1.408-1.456s-.512-1.339-.512-2.16c0-.832.166-1.563.496-2.192a3.75 3.75 0 0 1 1.408-1.472c.608-.352 1.312-.528 2.112-.528.779 0 1.456.176 2.032.528.576.341 1.024.8 1.344 1.376s.48 1.211.48 1.904l-.016.352-.016.4h-6.176c.054.768.304 1.355.752 1.76.459.395.987.592 1.584.592.48 0 .88-.107 1.2-.32a2.02 2.02 0 0 0 .736-.896h1.696a3.58 3.58 0 0 1-1.28 1.872c-.629.501-1.413.752-2.352.752zm0-6.928a2.38 2.38 0 0 0-1.504.512c-.437.331-.704.832-.8 1.504h4.48c-.032-.619-.25-1.109-.656-1.472s-.912-.544-1.52-.544zm6.904 6.736l-2.336-7.936h1.696l1.536 5.984 1.728-5.984h1.888l1.728 5.984 1.536-5.984h1.696L196.308 485h-1.744l-1.824-6.24-1.824 6.24h-1.744zm14.037.192c-1.003 0-1.83-.245-2.48-.736s-1.024-1.141-1.12-1.952h1.712c.085.363.288.677.608.944.32.256.741.384 1.264.384.512 0 .885-.107 1.12-.32s.352-.459.352-.736c0-.405-.166-.677-.496-.816-.32-.149-.768-.283-1.344-.4-.448-.096-.896-.224-1.344-.384-.438-.16-.806-.384-1.104-.672-.288-.299-.432-.699-.432-1.2a2.18 2.18 0 0 1 .8-1.728c.533-.469 1.28-.704 2.24-.704.885 0 1.6.213 2.144.64.554.427.88 1.029.976 1.808h-1.632a1.17 1.17 0 0 0-.48-.8c-.256-.192-.603-.288-1.04-.288-.427 0-.758.091-.992.272-.235.171-.352.395-.352.672s.16.496.48.656c.33.16.762.304 1.296.432a12.09 12.09 0 0 1 1.472.416c.458.149.826.373 1.104.672s.416.736.416 1.312c.01.725-.272 1.328-.848 1.808-.566.48-1.339.72-2.32.72zm5.019-.192v-11.52h1.696V485h-1.696zm7.556.192c-.779 0-1.472-.171-2.08-.512a3.77 3.77 0 0 1-1.408-1.456c-.341-.619-.512-1.339-.512-2.16 0-.832.165-1.563.496-2.192.341-.629.811-1.12 1.408-1.472.608-.352 1.312-.528 2.112-.528.779 0 1.456.176 2.032.528.576.341 1.024.8 1.344 1.376s.48 1.211.48 1.904l-.016.352-.016.4h-6.176c.053.768.304 1.355.752 1.76.459.395.987.592 1.584.592.48 0 .88-.107 1.2-.32a2.02 2.02 0 0 0 .736-.896h1.696a3.58 3.58 0 0 1-1.28 1.872c-.629.501-1.413.752-2.352.752zm0-6.928a2.38 2.38 0 0 0-1.504.512c-.437.331-.704.832-.8 1.504h4.48c-.032-.619-.251-1.109-.656-1.472s-.912-.544-1.52-.544zm8.757 6.736c-.779 0-1.398-.187-1.856-.56-.459-.384-.688-1.061-.688-2.032v-3.92h-1.36v-1.424h1.36l.208-2.016h1.488v2.016h2.24v1.424h-2.24v3.92c0 .437.09.741.272.912.192.16.517.24.976.24h.912V485h-1.312zm6.468 0c-.778 0-1.397-.187-1.856-.56-.458-.384-.688-1.061-.688-2.032v-3.92h-1.36v-1.424h1.36l.208-2.016h1.488v2.016h2.24v1.424h-2.24v3.92c0 .437.091.741.272.912.192.16.518.24.976.24h.912V485h-1.312zm6.65.192c-.779 0-1.472-.171-2.08-.512a3.77 3.77 0 0 1-1.408-1.456c-.341-.619-.512-1.339-.512-2.16 0-.832.165-1.563.496-2.192.341-.629.811-1.12 1.408-1.472.608-.352 1.312-.528 2.112-.528.779 0 1.456.176 2.032.528.576.341 1.024.8 1.344 1.376s.48 1.211.48 1.904l-.016.352-.016.4h-6.176c.053.768.304 1.355.752 1.76.459.395.987.592 1.584.592.48 0 .88-.107 1.2-.32a2.02 2.02 0 0 0 .736-.896h1.696a3.58 3.58 0 0 1-1.28 1.872c-.629.501-1.413.752-2.352.752zm0-6.928a2.38 2.38 0 0 0-1.504.512c-.437.331-.704.832-.8 1.504h4.48c-.032-.619-.251-1.109-.656-1.472s-.912-.544-1.52-.544zm5.632 6.736v-7.936h1.52l.144 1.504c.277-.523.661-.933 1.152-1.232.501-.309 1.104-.464 1.808-.464v1.776h-.464c-.47 0-.891.08-1.264.24-.363.149-.656.411-.88.784-.214.363-.32.869-.32 1.52V485h-1.696zm222.513 0v-9.28l-1.808.416v-1.248l2.48-1.088h1.088V485h-1.76zm5.187 0v-9.28l-1.808.416v-1.248l2.48-1.088h1.088V485h-1.76zm8.148.192c-.822 0-1.515-.155-2.08-.464a3.93 3.93 0 0 1-1.376-1.232c-.342-.512-.587-1.088-.736-1.728a8.65 8.65 0 0 1-.224-1.968c0-1.237.17-2.32.512-3.248.352-.928.853-1.648 1.504-2.16.65-.523 1.44-.784 2.368-.784.736 0 1.365.144 1.888.432a3.17 3.17 0 0 1 1.216 1.152c.298.48.48 1.003.544 1.568h-1.584c-.096-.555-.326-.981-.688-1.28s-.827-.448-1.392-.448c-.779 0-1.424.368-1.936 1.104-.502.725-.768 1.845-.8 3.36.256-.469.65-.869 1.184-1.2.544-.331 1.168-.496 1.872-.496.629 0 1.216.149 1.76.448.554.299 1.002.72 1.344 1.264.352.533.528 1.168.528 1.904a3.73 3.73 0 0 1-.48 1.84c-.32.576-.774 1.045-1.36 1.408-.576.352-1.264.528-2.064.528zm-.096-1.472c.448 0 .848-.096 1.2-.288a2.18 2.18 0 0 0 .832-.784c.202-.341.304-.725.304-1.152 0-.683-.224-1.227-.672-1.632-.438-.405-.998-.608-1.68-.608-.448 0-.854.101-1.216.304a2.26 2.26 0 0 0-.832.816 2.07 2.07 0 0 0-.304 1.104 2.24 2.24 0 0 0 .304 1.168 2.3 2.3 0 0 0 .848.784c.362.192.768.288 1.216.288z"/></g><g clip-path="url(#F)" fill="#000"><path d="M90.128 441.192c-1.109 0-2.069-.24-2.88-.72-.8-.491-1.419-1.168-1.856-2.032-.437-.875-.656-1.883-.656-3.024 0-1.152.219-2.16.656-3.024a4.93 4.93 0 0 1 1.856-2.048c.811-.491 1.771-.736 2.88-.736 1.312 0 2.384.32 3.216.96s1.36 1.536 1.584 2.688H93.04c-.149-.651-.469-1.168-.96-1.552s-1.147-.576-1.968-.576c-1.12 0-2.005.384-2.656 1.152-.651.757-.976 1.803-.976 3.136 0 1.323.325 2.363.976 3.12s1.536 1.136 2.656 1.136c.821 0 1.477-.181 1.968-.544s.811-.859.96-1.488h1.888c-.224 1.109-.752 1.979-1.584 2.608s-1.904.944-3.216.944zm6.6-.192v-11.52h1.696V441h-1.696zm4.804-9.44a1.15 1.15 0 0 1-.8-.288 1.02 1.02 0 0 1-.304-.752c0-.299.101-.544.304-.736.213-.203.48-.304.8-.304a1.06 1.06 0 0 1 .784.304c.213.192.32.437.32.736s-.107.549-.32.752c-.203.192-.464.288-.784.288zm-.848 9.44v-7.936h1.696V441h-1.696zm7.695.192c-.779 0-1.477-.176-2.096-.528a3.85 3.85 0 0 1-1.44-1.456c-.341-.629-.512-1.355-.512-2.176s.171-1.541.512-2.16c.352-.629.832-1.12 1.44-1.472.619-.352 1.317-.528 2.096-.528.981 0 1.803.256 2.464.768.672.512 1.104 1.205 1.296 2.08h-1.776a1.67 1.67 0 0 0-.704-1.024c-.363-.245-.789-.368-1.28-.368-.416 0-.8.107-1.152.32-.352.203-.635.507-.848.912-.213.395-.32.885-.32 1.472s.107 1.083.32 1.488a2.33 2.33 0 0 0 .848.912c.352.213.736.32 1.152.32.491 0 .917-.123 1.28-.368s.597-.592.704-1.04h1.776c-.181.853-.608 1.541-1.28 2.064s-1.499.784-2.48.784zm5.599-.192v-11.52h1.696v6.864l3.04-3.28h2.032l-3.376 3.6 3.872 4.336h-2.144l-3.424-4.064V441h-1.696zm12.674 0v-11.2h1.696v9.856h5.088V441h-6.784zm9.505-9.44a1.15 1.15 0 0 1-.8-.288 1.02 1.02 0 0 1-.304-.752c0-.299.101-.544.304-.736.213-.203.48-.304.8-.304a1.06 1.06 0 0 1 .784.304c.213.192.32.437.32.736s-.107.549-.32.752c-.203.192-.464.288-.784.288zm-.848 9.44v-7.936h1.696V441h-1.696zm3.935 0v-7.936h1.504l.128 1.392a2.72 2.72 0 0 1 1.072-1.152c.48-.288 1.029-.432 1.648-.432.96 0 1.712.299 2.256.896.555.597.832 1.488.832 2.672V441h-1.68v-4.384c0-1.536-.629-2.304-1.888-2.304-.629 0-1.152.224-1.568.672-.405.448-.608 1.088-.608 1.92V441h-1.696zm9.437 0v-11.52h1.696v6.864l3.04-3.28h2.032l-3.376 3.6 3.872 4.336h-2.144l-3.424-4.064V441h-1.696zm15.938 0c-.779 0-1.398-.187-1.856-.56-.459-.384-.688-1.061-.688-2.032v-3.92h-1.36v-1.424h1.36l.208-2.016h1.488v2.016h2.24v1.424h-2.24v3.92c0 .437.09.741.272.912.192.16.517.24.976.24h.912V441h-1.312zm6.649.192c-.757 0-1.44-.171-2.048-.512-.597-.352-1.072-.837-1.424-1.456-.352-.629-.528-1.36-.528-2.192s.176-1.557.528-2.176a3.82 3.82 0 0 1 1.456-1.456c.608-.352 1.286-.528 2.032-.528.758 0 1.435.176 2.032.528.608.341 1.088.827 1.44 1.456.363.619.544 1.344.544 2.176s-.181 1.563-.544 2.192a3.85 3.85 0 0 1-1.44 1.456c-.608.341-1.29.512-2.048.512zm0-1.456c.406 0 .779-.101 1.12-.304a2.22 2.22 0 0 0 .848-.896c.214-.405.32-.907.32-1.504s-.106-1.093-.32-1.488c-.202-.405-.48-.709-.832-.912-.341-.203-.714-.304-1.12-.304s-.784.101-1.136.304c-.341.203-.618.507-.832.912-.213.395-.32.891-.32 1.488s.107 1.099.32 1.504c.214.395.491.693.832.896a2.15 2.15 0 0 0 1.12.304zM183.854 441v-9.824h-3.312V429.8h8.304v1.376h-3.296V441h-1.696zm7.224 0l-2.336-7.936h1.696l1.536 5.984 1.728-5.984h1.888l1.728 5.984 1.536-5.984h1.696L198.214 441h-1.744l-1.824-6.24-1.824 6.24h-1.744zm11.829-9.44a1.15 1.15 0 0 1-.8-.288 1.02 1.02 0 0 1-.304-.752c0-.299.101-.544.304-.736.213-.203.48-.304.8-.304a1.06 1.06 0 0 1 .784.304c.213.192.32.437.32.736s-.107.549-.32.752c-.203.192-.464.288-.784.288zm-.848 9.44v-7.936h1.696V441h-1.696zm7.263 0c-.779 0-1.397-.187-1.856-.56-.459-.384-.688-1.061-.688-2.032v-3.92h-1.36v-1.424h1.36l.208-2.016h1.488v2.016h2.24v1.424h-2.24v3.92c0 .437.091.741.272.912.192.16.517.24.976.24h.912V441h-1.312zm6.469 0c-.779 0-1.398-.187-1.856-.56-.459-.384-.688-1.061-.688-2.032v-3.92h-1.36v-1.424h1.36l.208-2.016h1.488v2.016h2.24v1.424h-2.24v3.92c0 .437.09.741.272.912.192.16.517.24.976.24h.912V441h-1.312zm6.649.192c-.778 0-1.472-.171-2.08-.512-.597-.352-1.066-.837-1.408-1.456s-.512-1.339-.512-2.16c0-.832.166-1.563.496-2.192a3.75 3.75 0 0 1 1.408-1.472c.608-.352 1.312-.528 2.112-.528.779 0 1.456.176 2.032.528.576.341 1.024.8 1.344 1.376s.48 1.211.48 1.904l-.016.352-.016.4h-6.176c.054.768.304 1.355.752 1.76.459.395.987.592 1.584.592.48 0 .88-.107 1.2-.32a2.02 2.02 0 0 0 .736-.896h1.696a3.58 3.58 0 0 1-1.28 1.872c-.629.501-1.413.752-2.352.752zm0-6.928a2.38 2.38 0 0 0-1.504.512c-.437.331-.704.832-.8 1.504h4.48c-.032-.619-.25-1.109-.656-1.472s-.912-.544-1.52-.544zm5.632 6.736v-7.936h1.52l.144 1.504c.277-.523.661-.933 1.152-1.232.501-.309 1.104-.464 1.808-.464v1.776h-.464a3.18 3.18 0 0 0-1.264.24c-.363.149-.656.411-.88.784-.213.363-.32.869-.32 1.52V441h-1.696zm231.742.192c-.726 0-1.387-.128-1.984-.384a3.28 3.28 0 0 1-1.408-1.2c-.352-.533-.539-1.2-.56-2h1.68c.021.597.224 1.104.608 1.52.394.405.949.608 1.664.608.682 0 1.205-.187 1.568-.56.362-.384.544-.859.544-1.424 0-.683-.246-1.189-.736-1.52-.48-.331-1.072-.496-1.776-.496h-.832v-1.408h.848c.629 0 1.136-.149 1.52-.448.394-.299.592-.72.592-1.264a1.46 1.46 0 0 0-.464-1.12c-.299-.288-.726-.432-1.28-.432-.576 0-1.03.171-1.36.512-.331.331-.512.747-.544 1.248h-1.68c.021-.651.181-1.216.48-1.696.309-.48.73-.853 1.264-1.12s1.146-.4 1.84-.4c.746 0 1.37.133 1.872.4.512.256.896.608 1.152 1.056.266.437.4.917.4 1.44 0 .597-.166 1.12-.496 1.568s-.774.747-1.328.896c.64.139 1.168.453 1.584.944.416.48.624 1.104.624 1.872a3.49 3.49 0 0 1-.432 1.712c-.288.512-.715.923-1.28 1.232s-1.259.464-2.08.464zm9.469 0c-.726 0-1.387-.128-1.984-.384a3.28 3.28 0 0 1-1.408-1.2c-.352-.533-.539-1.2-.56-2h1.68c.021.597.224 1.104.608 1.52.394.405.949.608 1.664.608.682 0 1.205-.187 1.568-.56.362-.384.544-.859.544-1.424 0-.683-.246-1.189-.736-1.52-.48-.331-1.072-.496-1.776-.496h-.832v-1.408h.848c.629 0 1.136-.149 1.52-.448.394-.299.592-.72.592-1.264a1.46 1.46 0 0 0-.464-1.12c-.299-.288-.726-.432-1.281-.432-.575 0-1.029.171-1.359.512-.331.331-.512.747-.544 1.248h-1.68c.021-.651.181-1.216.48-1.696.309-.48.73-.853 1.264-1.12s1.146-.4 1.839-.4c.747 0 1.371.133 1.873.4.512.256.896.608 1.152 1.056.266.437.4.917.4 1.44 0 .597-.166 1.12-.496 1.568s-.774.747-1.328.896c.64.139 1.168.453 1.584.944.416.48.624 1.104.624 1.872a3.48 3.48 0 0 1-.433 1.712c-.287.512-.714.923-1.279 1.232s-1.259.464-2.08.464zm10.988-.192v-2.24h-5.616v-1.344l5.344-7.616h1.952v7.488h1.568v1.472h-1.568V441h-1.68zm-3.776-3.712h3.872v-5.616l-3.872 5.616z"/></g><g clip-path="url(#G)" fill="#000"><path d="M90.128 397.192c-1.109 0-2.069-.24-2.88-.72-.8-.491-1.419-1.168-1.856-2.032-.437-.875-.656-1.883-.656-3.024 0-1.152.219-2.16.656-3.024a4.93 4.93 0 0 1 1.856-2.048c.811-.491 1.771-.736 2.88-.736 1.312 0 2.384.32 3.216.96s1.36 1.536 1.584 2.688H93.04c-.149-.651-.469-1.168-.96-1.552s-1.147-.576-1.968-.576c-1.12 0-2.005.384-2.656 1.152-.651.757-.976 1.803-.976 3.136 0 1.323.325 2.363.976 3.12s1.536 1.136 2.656 1.136c.821 0 1.477-.181 1.968-.544s.811-.859.96-1.488h1.888c-.224 1.109-.752 1.979-1.584 2.608s-1.904.944-3.216.944zm6.6-.192v-11.52h1.696V397h-1.696zm4.804-9.44a1.15 1.15 0 0 1-.8-.288 1.02 1.02 0 0 1-.304-.752c0-.299.101-.544.304-.736.213-.203.48-.304.8-.304a1.06 1.06 0 0 1 .784.304c.213.192.32.437.32.736s-.107.549-.32.752c-.203.192-.464.288-.784.288zm-.848 9.44v-7.936h1.696V397h-1.696zm7.695.192c-.779 0-1.477-.176-2.096-.528a3.85 3.85 0 0 1-1.44-1.456c-.341-.629-.512-1.355-.512-2.176s.171-1.541.512-2.16c.352-.629.832-1.12 1.44-1.472.619-.352 1.317-.528 2.096-.528.981 0 1.803.256 2.464.768.672.512 1.104 1.205 1.296 2.08h-1.776a1.67 1.67 0 0 0-.704-1.024c-.363-.245-.789-.368-1.28-.368-.416 0-.8.107-1.152.32-.352.203-.635.507-.848.912-.213.395-.32.885-.32 1.472s.107 1.083.32 1.488a2.33 2.33 0 0 0 .848.912c.352.213.736.32 1.152.32.491 0 .917-.123 1.28-.368s.597-.592.704-1.04h1.776c-.181.853-.608 1.541-1.28 2.064s-1.499.784-2.48.784zm5.599-.192v-11.52h1.696v6.864l3.04-3.28h2.032l-3.376 3.6 3.872 4.336h-2.144l-3.424-4.064V397h-1.696zm12.034-7.44l1.536-3.76h1.184l-.896 3.76h-1.824zm2.8 0l1.536-3.76h1.184l-.896 3.76h-1.824zm8.145 7.632c-.821 0-1.541-.144-2.16-.432s-1.104-.699-1.456-1.232c-.341-.533-.517-1.168-.528-1.904h1.792c.011.597.219 1.104.624 1.52s.976.624 1.712.624c.651 0 1.157-.155 1.52-.464a1.53 1.53 0 0 0 .56-1.216c0-.395-.091-.715-.272-.96-.171-.245-.411-.448-.72-.608-.299-.16-.645-.304-1.04-.432l-1.248-.416c-.864-.288-1.515-.661-1.952-1.12-.427-.459-.64-1.061-.64-1.808-.011-.629.133-1.179.432-1.648.309-.469.736-.832 1.28-1.088.555-.267 1.2-.4 1.936-.4.725 0 1.36.133 1.904.4.555.267.987.64 1.296 1.12.309.469.469 1.019.48 1.648h-1.792c0-.288-.075-.56-.224-.816-.149-.267-.368-.485-.656-.656s-.64-.256-1.056-.256c-.533-.011-.976.123-1.328.4-.341.277-.512.661-.512 1.152 0 .437.128.773.384 1.008s.608.432 1.056.592l1.536.528c.555.181 1.051.4 1.488.656s.784.592 1.04 1.008c.267.416.4.944.4 1.584 0 .565-.144 1.093-.432 1.584-.288.48-.72.875-1.296 1.184-.576.299-1.285.448-2.128.448zm8.974-.192c-.778 0-1.397-.187-1.856-.56-.458-.384-.688-1.061-.688-2.032v-3.92h-1.36v-1.424h1.36l.208-2.016h1.488v2.016h2.24v1.424h-2.24v3.92c0 .437.091.741.272.912.192.16.518.24.976.24h.912V397h-1.312zm5.829.192c-.672 0-1.227-.112-1.664-.336s-.763-.517-.976-.88c-.213-.373-.32-.779-.32-1.216 0-.768.299-1.376.896-1.824s1.451-.672 2.56-.672h2.08v-.144c0-.619-.171-1.083-.512-1.392-.331-.309-.763-.464-1.296-.464-.469 0-.88.117-1.232.352-.341.224-.549.56-.624 1.008h-1.696c.053-.576.245-1.067.576-1.472.341-.416.768-.731 1.28-.944a4.3 4.3 0 0 1 1.712-.336c1.109 0 1.968.293 2.576.88.608.576.912 1.365.912 2.368V397h-1.472l-.144-1.36c-.224.437-.549.805-.976 1.104s-.987.448-1.68.448zm.336-1.376c.459 0 .843-.107 1.152-.32.32-.224.565-.517.736-.88.181-.363.293-.763.336-1.2h-1.888c-.672 0-1.152.117-1.44.352-.277.235-.416.528-.416.88 0 .363.133.651.4.864.277.203.651.304 1.12.304zM158.01 397v-7.936h1.52l.144 1.504c.277-.523.661-.933 1.152-1.232.501-.309 1.104-.464 1.808-.464v1.776h-.464c-.47 0-.891.08-1.264.24-.363.149-.656.411-.88.784-.214.363-.32.869-.32 1.52V397h-1.696zm9.406 0c-.779 0-1.398-.187-1.856-.56-.459-.384-.688-1.061-.688-2.032v-3.92h-1.36v-1.424h1.36l.208-2.016h1.488v2.016h2.24v1.424h-2.24v3.92c0 .437.09.741.272.912.192.16.517.24.976.24h.912V397h-1.312zm10.82.192c-.726 0-1.387-.128-1.984-.384a3.28 3.28 0 0 1-1.408-1.2c-.352-.533-.539-1.2-.56-2h1.68c.021.597.224 1.104.608 1.52.394.405.949.608 1.664.608.682 0 1.205-.187 1.568-.56.362-.384.544-.859.544-1.424 0-.683-.246-1.189-.736-1.52-.48-.331-1.072-.496-1.776-.496h-.832v-1.408h.848c.629 0 1.136-.149 1.52-.448.394-.299.592-.72.592-1.264a1.46 1.46 0 0 0-.464-1.12c-.299-.288-.726-.432-1.28-.432-.576 0-1.03.171-1.36.512-.331.331-.512.747-.544 1.248h-1.68c.021-.651.181-1.216.48-1.696.309-.48.73-.853 1.264-1.12s1.146-.4 1.84-.4c.746 0 1.37.133 1.872.4.512.256.896.608 1.152 1.056.266.437.4.917.4 1.44 0 .597-.166 1.12-.496 1.568s-.774.747-1.328.896c.64.139 1.168.453 1.584.944.416.48.624 1.104.624 1.872a3.49 3.49 0 0 1-.432 1.712c-.288.512-.715.923-1.28 1.232s-1.259.464-2.08.464zm10.364 0c-1.013 0-1.888-.24-2.624-.72-.725-.491-1.285-1.168-1.68-2.032-.384-.875-.576-1.888-.576-3.04s.192-2.16.576-3.024c.395-.875.955-1.552 1.68-2.032.736-.491 1.611-.736 2.624-.736s1.883.245 2.608.736c.726.48 1.28 1.157 1.664 2.032.395.864.592 1.872.592 3.024s-.197 2.165-.592 3.04c-.384.864-.938 1.541-1.664 2.032-.725.48-1.594.72-2.608.72zm0-1.52c.608 0 1.147-.171 1.616-.512.48-.341.854-.832 1.12-1.472s.4-1.403.4-2.288-.133-1.648-.4-2.288-.64-1.131-1.12-1.472c-.469-.341-1.008-.512-1.616-.512-.618 0-1.162.171-1.632.512s-.837.832-1.104 1.472-.4 1.403-.4 2.288.134 1.648.4 2.288.635 1.131 1.104 1.472 1.014.512 1.632.512zm6.531-2.608v-1.424h6.512v1.424h-6.512zm12.088 4.128c-.768 0-1.445-.181-2.032-.544a3.79 3.79 0 0 1-1.376-1.488c-.33-.629-.496-1.344-.496-2.144s.166-1.509.496-2.128c.331-.629.79-1.12 1.376-1.472.598-.363 1.28-.544 2.048-.544.63 0 1.179.123 1.648.368a2.7 2.7 0 0 1 1.12 1.04v-4.8h1.696V397h-1.52l-.176-1.232c-.256.373-.608.704-1.056.992s-1.024.432-1.728.432zm.304-1.472c.726 0 1.318-.251 1.776-.752.47-.501.704-1.147.704-1.936 0-.8-.234-1.445-.704-1.936-.458-.501-1.05-.752-1.776-.752s-1.322.251-1.792.752c-.469.491-.704 1.136-.704 1.936 0 .523.107.987.32 1.392a2.48 2.48 0 0 0 .88.96c.384.224.816.336 1.296.336zm9.003 1.472c-.672 0-1.227-.112-1.664-.336s-.763-.517-.976-.88c-.214-.373-.32-.779-.32-1.216 0-.768.298-1.376.896-1.824s1.45-.672 2.56-.672h2.08v-.144c0-.619-.171-1.083-.512-1.392-.331-.309-.763-.464-1.296-.464-.47 0-.88.117-1.232.352-.342.224-.55.56-.624 1.008h-1.696c.053-.576.245-1.067.576-1.472.341-.416.768-.731 1.28-.944.522-.224 1.093-.336 1.712-.336 1.109 0 1.968.293 2.576.88.608.576.912 1.365.912 2.368V397h-1.472l-.144-1.36c-.224.437-.55.805-.976 1.104s-.987.448-1.68.448zm.336-1.376c.458 0 .842-.107 1.152-.32.32-.224.565-.517.736-.88.181-.363.293-.763.336-1.2h-1.888c-.672 0-1.152.117-1.44.352-.278.235-.416.528-.416.88 0 .363.133.651.4.864.277.203.65.304 1.12.304zm6.591 4.704l1.904-4.176h-.464l-3.136-7.28h1.84l2.432 5.872 2.544-5.872h1.792l-5.12 11.456h-1.792zm12.402-3.52v-11.2h7.024v1.376h-5.328v3.536h4.416v1.36h-4.416V397h-1.696zm8.623 0v-7.936h1.52l.144 1.504c.278-.523.662-.933 1.152-1.232.502-.309 1.104-.464 1.808-.464v1.776h-.464c-.469 0-.89.08-1.264.24-.362.149-.656.411-.88.784-.213.363-.32.869-.32 1.52V397h-1.696zm9.572.192c-.779 0-1.472-.171-2.08-.512a3.76 3.76 0 0 1-1.408-1.456c-.342-.619-.512-1.339-.512-2.16 0-.832.165-1.563.496-2.192.341-.629.81-1.12 1.408-1.472.608-.352 1.312-.528 2.112-.528.778 0 1.456.176 2.032.528.576.341 1.024.8 1.344 1.376s.48 1.211.48 1.904l-.016.352-.016.4h-6.176c.053.768.304 1.355.752 1.76.458.395.986.592 1.584.592.48 0 .88-.107 1.2-.32.33-.224.576-.523.736-.896h1.696c-.214.747-.64 1.371-1.28 1.872-.63.501-1.414.752-2.352.752zm0-6.928c-.566 0-1.067.171-1.504.512-.438.331-.704.832-.8 1.504h4.48c-.032-.619-.251-1.109-.656-1.472s-.912-.544-1.52-.544zm9.343 6.928c-.778 0-1.472-.171-2.08-.512-.597-.352-1.066-.837-1.408-1.456s-.512-1.339-.512-2.16c0-.832.166-1.563.496-2.192a3.75 3.75 0 0 1 1.408-1.472c.608-.352 1.312-.528 2.112-.528.779 0 1.456.176 2.032.528.576.341 1.024.8 1.344 1.376s.48 1.211.48 1.904l-.016.352-.016.4h-6.176c.054.768.304 1.355.752 1.76.459.395.987.592 1.584.592.48 0 .88-.107 1.2-.32a2.02 2.02 0 0 0 .736-.896h1.696a3.58 3.58 0 0 1-1.28 1.872c-.629.501-1.413.752-2.352.752zm0-6.928a2.38 2.38 0 0 0-1.504.512c-.437.331-.704.832-.8 1.504h4.48c-.032-.619-.25-1.109-.656-1.472s-.912-.544-1.52-.544zM275.744 397v-9.824h-3.312V385.8h8.304v1.376h-3.296V397h-1.696zm5.672 0v-7.936h1.52l.144 1.504c.277-.523.661-.933 1.152-1.232.501-.309 1.104-.464 1.808-.464v1.776h-.464c-.47 0-.891.08-1.264.24-.363.149-.656.411-.88.784-.214.363-.32.869-.32 1.52V397h-1.696zm7.038-9.44a1.15 1.15 0 0 1-.8-.288 1.02 1.02 0 0 1-.304-.752c0-.299.101-.544.304-.736.213-.203.48-.304.8-.304a1.06 1.06 0 0 1 .784.304c.213.192.32.437.32.736s-.107.549-.32.752c-.203.192-.464.288-.784.288zm-.848 9.44v-7.936h1.696V397h-1.696zm6.623.192c-.672 0-1.227-.112-1.664-.336s-.763-.517-.976-.88c-.214-.373-.32-.779-.32-1.216 0-.768.298-1.376.896-1.824s1.45-.672 2.56-.672h2.08v-.144c0-.619-.171-1.083-.512-1.392-.331-.309-.763-.464-1.296-.464-.47 0-.88.117-1.232.352-.342.224-.55.56-.624 1.008h-1.696c.053-.576.245-1.067.576-1.472.341-.416.768-.731 1.28-.944.522-.224 1.093-.336 1.712-.336 1.109 0 1.968.293 2.576.88.608.576.912 1.365.912 2.368V397h-1.472l-.144-1.36c-.224.437-.55.805-.976 1.104s-.987.448-1.68.448zm.336-1.376c.458 0 .842-.107 1.152-.32.32-.224.565-.517.736-.88.181-.363.293-.763.336-1.2h-1.888c-.672 0-1.152.117-1.44.352-.278.235-.416.528-.416.88 0 .363.133.651.4.864.277.203.65.304 1.12.304zm5.913 1.184v-11.52h1.696V397h-1.696zm6.164-7.456l.896-3.76h1.824l-1.552 3.76h-1.168zm-2.8 0l.896-3.76h1.84l-1.552 3.76h-1.184zm160.182 7.648c-.789 0-1.472-.139-2.048-.416-.576-.288-1.034-.677-1.376-1.168-.33-.501-.533-1.067-.608-1.696h1.664c.107.533.374.976.8 1.328.427.341.955.512 1.584.512.47 0 .875-.112 1.216-.336a2.41 2.41 0 0 0 .8-.928c.192-.384.288-.816.288-1.296 0-.757-.213-1.36-.64-1.808-.426-.459-.965-.688-1.616-.688-.554 0-1.029.133-1.424.4-.394.256-.682.581-.864.976h-1.616l.96-6.272h6.048v1.488h-4.768l-.576 2.992c.246-.277.582-.507 1.008-.688.438-.192.928-.288 1.472-.288.758 0 1.408.176 1.952.528a3.35 3.35 0 0 1 1.248 1.392c.299.587.448 1.237.448 1.952 0 .747-.16 1.424-.48 2.032a3.68 3.68 0 0 1-1.376 1.456c-.586.352-1.285.528-2.096.528zm7.108-.192v-9.28l-1.808.416v-1.248l2.48-1.088h1.088V397h-1.76zm9.139 0v-2.24h-5.616v-1.344l5.344-7.616h1.952v7.488h1.568v1.472h-1.568V397h-1.68zm-3.776-3.712h3.872v-5.616l-3.872 5.616z"/></g><g clip-path="url(#H)" fill="#000"><path d="M88.832 529.192c-.821 0-1.541-.144-2.16-.432a3.44 3.44 0 0 1-1.456-1.232c-.341-.533-.517-1.168-.528-1.904h1.792c.011.597.219 1.104.624 1.52s.976.624 1.712.624c.651 0 1.157-.155 1.52-.464a1.53 1.53 0 0 0 .56-1.216c0-.395-.091-.715-.272-.96-.171-.245-.411-.448-.72-.608-.299-.16-.645-.304-1.04-.432l-1.248-.416c-.864-.288-1.515-.661-1.952-1.12-.427-.459-.64-1.061-.64-1.808-.011-.629.133-1.179.432-1.648a3.05 3.05 0 0 1 1.28-1.088c.555-.267 1.2-.4 1.936-.4.725 0 1.36.133 1.904.4a3.1 3.1 0 0 1 1.296 1.12c.309.469.469 1.019.48 1.648H90.56c0-.288-.075-.56-.224-.816-.149-.267-.368-.485-.656-.656s-.64-.256-1.056-.256c-.533-.011-.976.123-1.328.4-.341.277-.512.661-.512 1.152 0 .437.128.773.384 1.008s.608.432 1.056.592l1.536.528c.555.181 1.051.4 1.488.656s.784.592 1.04 1.008c.267.416.4.944.4 1.584 0 .565-.144 1.093-.432 1.584-.288.48-.72.875-1.296 1.184-.576.299-1.285.448-2.128.448zm8.574 0c-.96 0-1.717-.299-2.272-.896-.544-.597-.816-1.488-.816-2.672v-4.56h1.696v4.384c0 1.536.629 2.304 1.888 2.304.629 0 1.147-.224 1.552-.672s.608-1.088.608-1.92v-4.096h1.696V529h-1.504l-.128-1.392c-.245.491-.608.88-1.088 1.168-.469.277-1.013.416-1.632.416zm10.974 0c-.619 0-1.168-.123-1.648-.368a2.83 2.83 0 0 1-1.12-1.04l-.176 1.216h-1.52v-11.52h1.696v4.816c.256-.373.608-.704 1.056-.992s1.024-.432 1.728-.432c.768 0 1.445.181 2.032.544a3.79 3.79 0 0 1 1.376 1.488c.341.629.512 1.344.512 2.144s-.171 1.515-.512 2.144c-.331.619-.79 1.109-1.376 1.472-.587.352-1.27.528-2.048.528zm-.288-1.472c.725 0 1.322-.245 1.792-.736.469-.501.704-1.152.704-1.952 0-.523-.107-.987-.32-1.392a2.36 2.36 0 0 0-.88-.944c-.374-.235-.806-.352-1.296-.352-.726 0-1.323.251-1.792.752-.459.501-.688 1.147-.688 1.936 0 .8.229 1.451.688 1.952.469.491 1.066.736 1.792.736zm6.058 1.28v-7.936h1.504l.144 1.12a2.81 2.81 0 0 1 1.008-.96c.427-.235.917-.352 1.472-.352 1.259 0 2.133.496 2.624 1.488.288-.459.672-.821 1.152-1.088.491-.267 1.019-.4 1.584-.4.992 0 1.771.299 2.336.896s.848 1.488.848 2.672V529h-1.696v-4.384c0-1.536-.587-2.304-1.76-2.304a1.85 1.85 0 0 0-1.472.672c-.373.448-.56 1.088-.56 1.92V529h-1.696v-4.384c0-1.536-.592-2.304-1.776-2.304-.587 0-1.072.224-1.456.672-.373.448-.56 1.088-.56 1.92V529h-1.696zm15.616-9.44c-.32 0-.586-.096-.8-.288-.202-.203-.304-.453-.304-.752a.97.97 0 0 1 .304-.736c.214-.203.48-.304.8-.304s.582.101.784.304c.214.192.32.437.32.736s-.106.549-.32.752c-.202.192-.464.288-.784.288zm-.848 9.44v-7.936h1.696V529h-1.696zm7.263 0c-.778 0-1.397-.187-1.856-.56-.458-.384-.688-1.061-.688-2.032v-3.92h-1.36v-1.424h1.36l.208-2.016h1.488v2.016h2.24v1.424h-2.24v3.92c0 .437.091.741.272.912.192.16.518.24.976.24h.912V529h-1.312zm12.228.192c-1.109 0-2.069-.24-2.88-.72-.8-.491-1.418-1.168-1.856-2.032-.437-.875-.656-1.883-.656-3.024 0-1.152.219-2.16.656-3.024.438-.875 1.056-1.557 1.856-2.048.811-.491 1.771-.736 2.88-.736 1.312 0 2.384.32 3.216.96s1.36 1.536 1.584 2.688h-1.888c-.149-.651-.469-1.168-.96-1.552s-1.146-.576-1.968-.576c-1.12 0-2.005.384-2.656 1.152-.65.757-.976 1.803-.976 3.136 0 1.323.326 2.363.976 3.12s1.536 1.136 2.656 1.136c.822 0 1.478-.181 1.968-.544s.811-.859.96-1.488h1.888c-.224 1.109-.752 1.979-1.584 2.608s-1.904.944-3.216.944zm10.313 0c-.758 0-1.44-.171-2.048-.512a3.88 3.88 0 0 1-1.424-1.456c-.352-.629-.528-1.36-.528-2.192s.176-1.557.528-2.176c.362-.629.848-1.115 1.456-1.456a3.98 3.98 0 0 1 2.032-.528c.757 0 1.434.176 2.032.528.608.341 1.088.827 1.44 1.456.362.619.543 1.344.543 2.176s-.181 1.563-.543 2.192a3.85 3.85 0 0 1-1.44 1.456c-.608.341-1.291.512-2.048.512zm0-1.456c.405 0 .778-.101 1.12-.304.352-.203.634-.501.848-.896.213-.405.32-.907.32-1.504s-.107-1.093-.32-1.488c-.203-.405-.48-.709-.832-.912-.342-.203-.715-.304-1.12-.304s-.784.101-1.136.304c-.342.203-.619.507-.832.912-.214.395-.32.891-.32 1.488s.106 1.099.32 1.504c.213.395.49.693.832.896a2.15 2.15 0 0 0 1.12.304zm5.866 1.264v-7.936h1.504l.128 1.392c.245-.491.602-.875 1.072-1.152.48-.288 1.029-.432 1.648-.432.96 0 1.712.299 2.256.896.554.597.832 1.488.832 2.672V529h-1.68v-4.384c0-1.536-.63-2.304-1.888-2.304-.63 0-1.152.224-1.568.672-.406.448-.608 1.088-.608 1.92V529h-1.696zm12.765 0c-.779 0-1.397-.187-1.856-.56-.459-.384-.688-1.061-.688-2.032v-3.92h-1.36v-1.424h1.36l.208-2.016h1.488v2.016h2.24v1.424h-2.24v3.92c0 .437.091.741.272.912.192.16.517.24.976.24h.912V529h-1.312zm5.829.192c-.672 0-1.227-.112-1.664-.336s-.763-.517-.976-.88c-.213-.373-.32-.779-.32-1.216 0-.768.299-1.376.896-1.824s1.451-.672 2.56-.672h2.08v-.144c0-.619-.171-1.083-.512-1.392-.331-.309-.763-.464-1.296-.464-.469 0-.88.117-1.232.352-.341.224-.549.56-.624 1.008h-1.696c.053-.576.245-1.067.576-1.472.341-.416.768-.731 1.28-.944a4.3 4.3 0 0 1 1.712-.336c1.109 0 1.968.293 2.576.88.608.576.912 1.365.912 2.368V529h-1.472l-.144-1.36c-.224.437-.549.805-.976 1.104s-.987.448-1.68.448zm.336-1.376c.459 0 .843-.107 1.152-.32.32-.224.565-.517.736-.88.181-.363.293-.763.336-1.2h-1.888c-.672 0-1.152.117-1.44.352-.277.235-.416.528-.416.88 0 .363.133.651.4.864.277.203.651.304 1.12.304zm9.673 1.376c-.778 0-1.477-.176-2.096-.528a3.85 3.85 0 0 1-1.44-1.456c-.341-.629-.512-1.355-.512-2.176s.171-1.541.512-2.16c.352-.629.832-1.12 1.44-1.472.619-.352 1.318-.528 2.096-.528.982 0 1.803.256 2.464.768.672.512 1.104 1.205 1.296 2.08h-1.776c-.106-.437-.341-.779-.704-1.024s-.789-.368-1.28-.368c-.416 0-.8.107-1.152.32-.352.203-.634.507-.848.912-.213.395-.32.885-.32 1.472s.107 1.083.32 1.488c.214.395.496.699.848.912s.736.32 1.152.32c.491 0 .918-.123 1.28-.368a1.67 1.67 0 0 0 .704-1.04h1.776c-.181.853-.608 1.541-1.28 2.064s-1.498.784-2.48.784zm8.772-.192c-.779 0-1.398-.187-1.856-.56-.459-.384-.688-1.061-.688-2.032v-3.92h-1.36v-1.424h1.36l.208-2.016h1.488v2.016h2.24v1.424h-2.24v3.92c0 .437.09.741.272.912.192.16.517.24.976.24h.912V529h-1.312zm7.236 0v-11.2h7.024v1.376h-5.328v3.536h4.416v1.36h-4.416V529h-1.696zm11.944.192c-.757 0-1.44-.171-2.048-.512-.597-.352-1.072-.837-1.424-1.456-.352-.629-.528-1.36-.528-2.192s.176-1.557.528-2.176a3.82 3.82 0 0 1 1.456-1.456c.608-.352 1.286-.528 2.032-.528.758 0 1.435.176 2.032.528.608.341 1.088.827 1.44 1.456.363.619.544 1.344.544 2.176s-.181 1.563-.544 2.192a3.85 3.85 0 0 1-1.44 1.456c-.608.341-1.29.512-2.048.512zm0-1.456c.406 0 .779-.101 1.12-.304a2.22 2.22 0 0 0 .848-.896c.214-.405.32-.907.32-1.504s-.106-1.093-.32-1.488c-.202-.405-.48-.709-.832-.912-.341-.203-.714-.304-1.12-.304s-.784.101-1.136.304c-.341.203-.618.507-.832.912-.213.395-.32.891-.32 1.488s.107 1.099.32 1.504c.214.395.491.693.832.896a2.15 2.15 0 0 0 1.12.304zM227.01 529v-7.936h1.52l.144 1.504c.277-.523.661-.933 1.152-1.232.501-.309 1.104-.464 1.808-.464v1.776h-.464c-.47 0-.891.08-1.264.24-.363.149-.656.411-.88.784-.214.363-.32.869-.32 1.52V529h-1.696zm6.078 0v-7.936h1.504l.144 1.12a2.81 2.81 0 0 1 1.008-.96c.426-.235.917-.352 1.472-.352 1.258 0 2.133.496 2.624 1.488.288-.459.672-.821 1.152-1.088a3.26 3.26 0 0 1 1.584-.4c.992 0 1.77.299 2.336.896s.848 1.488.848 2.672V529h-1.696v-4.384c0-1.536-.587-2.304-1.76-2.304a1.85 1.85 0 0 0-1.472.672c-.374.448-.56 1.088-.56 1.92V529h-1.696v-4.384c0-1.536-.592-2.304-1.776-2.304-.587 0-1.072.224-1.456.672-.374.448-.56 1.088-.56 1.92V529h-1.696zm239.466 0v-9.28l-1.808.416v-1.248l2.48-1.088h1.088V529h-1.76zm4.819 0l4.336-9.744h-5.824V517.8h7.568v1.232L479.149 529h-1.776z"/></g><defs><clipPath id="A"><rect x="72" y="204" width="412" height="29" rx="4" fill="#fff"/></clipPath><clipPath id="B"><rect x="72" y="160" width="412" height="29" rx="4" fill="#fff"/></clipPath><clipPath id="C"><rect x="72" y="116" width="412" height="29" rx="4" fill="#fff"/></clipPath><clipPath id="D"><rect x="72" y="248" width="412" height="29" rx="4" fill="#fff"/></clipPath><clipPath id="E"><rect x="84" y="469" width="400" height="21" rx="4" fill="#fff"/></clipPath><clipPath id="F"><rect x="84" y="425" width="400" height="21" rx="4" fill="#fff"/></clipPath><clipPath id="G"><rect x="84" y="381" width="400" height="21" rx="4" fill="#fff"/></clipPath><clipPath id="H"><rect x="84" y="513" width="400" height="21" rx="4" fill="#fff"/></clipPath></defs></svg>