<svg xmlns="http://www.w3.org/2000/svg" width="448" height="48" fill="none"><path d="M168.459 37.059c-2.365 0-4.659-.776-6.883-2.294-2.258-1.553-3.705-3.706-4.411-6.459l3.811-1.553c.459 1.765 1.377 3.282 2.789 4.482 1.411 1.235 2.964 1.835 4.729 1.835 1.8 0 3.353-.459 4.624-1.412s1.906-2.224 1.906-3.847c0-1.8-.636-3.212-1.906-4.165-1.271-.988-3.318-1.906-6.071-2.718-2.859-.918-5.047-2.082-6.494-3.494-1.482-1.447-2.224-3.247-2.224-5.506 0-2.329.918-4.341 2.753-6.071s4.236-2.576 7.2-2.576c2.753 0 4.977.671 6.671 2.047 1.729 1.376 2.823 2.859 3.353 4.482l-3.812 1.588c-.282-1.024-.953-1.976-2.012-2.859s-2.435-1.306-4.129-1.306c-1.588 0-2.965.459-4.094 1.341s-1.694 2.012-1.694 3.318c0 1.2.529 2.223 1.553 3.035s2.576 1.588 4.588 2.223l3.988 1.482c1.059.494 2.153 1.129 3.247 1.906 1.094.812 1.941 1.8 2.471 2.965.564 1.2.847 2.576.847 4.129s-.318 2.965-.988 4.2c-.636 1.235-1.518 2.224-2.577 2.929a13.58 13.58 0 0 1-3.459 1.659c-1.235.459-2.506.635-3.776.635zm24.388 0c-3.353 0-6.071-1.129-8.153-3.353s-3.141-5.047-3.141-8.435c0-3.212 1.023-6 3.035-8.329 2.047-2.329 4.624-3.494 7.8-3.494 3.283 0 5.894 1.059 7.871 3.212s2.965 5.012 2.965 8.577l-.036.777h-17.47c.106 2.223.882 3.988 2.223 5.294 1.377 1.306 2.965 1.941 4.8 1.941 2.965 0 5.012-1.271 6.071-3.812l3.706 1.553c-.706 1.729-1.906 3.141-3.565 4.306-1.659 1.2-3.671 1.765-6.106 1.765zm5.965-14.435c-.106-1.271-.671-2.471-1.73-3.6s-2.647-1.729-4.764-1.729c-1.553 0-2.859.494-3.989 1.447S186.424 21 186 22.623h12.812zm14.259 14.435c-2.365 0-4.306-.671-5.895-2.047-1.588-1.341-2.364-3.141-2.364-5.365 0-2.4.917-4.306 2.788-5.682s4.165-2.047 6.918-2.047c2.435 0 4.447.459 6 1.341v-.635c0-1.623-.565-2.929-1.659-3.918-1.13-.988-2.471-1.482-4.094-1.482-1.2 0-2.294.282-3.283.847s-1.658 1.341-2.011 2.365l-3.812-1.623c.494-1.341 1.518-2.541 3.035-3.671s3.494-1.694 5.965-1.694c2.823 0 5.188.812 7.059 2.471s2.788 3.988 2.788 6.988v13.447h-3.988v-3.071h-.177c-1.659 2.541-4.094 3.776-7.27 3.776zm.67-3.776c1.73 0 3.283-.635 4.659-1.906 1.412-1.271 2.118-2.788 2.118-4.553-1.165-.953-2.93-1.447-5.294-1.447-2.012 0-3.53.424-4.553 1.306s-1.553 1.906-1.553 3.071c0 1.094.458 1.941 1.411 2.576s2.012.953 3.212.953zm18.883 3.07h-4.165v-22.13h3.988v3.6h.177c.423-1.2 1.27-2.188 2.611-2.965 1.306-.776 2.577-1.165 3.812-1.165s2.259.177 3.106.53l-1.588 3.882c-.53-.212-1.271-.318-2.224-.318-1.517 0-2.823.6-3.988 1.8s-1.729 2.753-1.729 4.659v12.106zm20.505.706c-3.317 0-6.035-1.129-8.188-3.353-2.153-2.259-3.212-5.047-3.212-8.435s1.059-6.177 3.212-8.435 4.871-3.353 8.188-3.353c2.471 0 4.518.6 6.142 1.8s2.823 2.718 3.564 4.553l-3.811 1.588c-1.13-2.788-3.212-4.165-6.177-4.165-1.835 0-3.459.741-4.871 2.259s-2.117 3.423-2.117 5.753.706 4.235 2.117 5.753 3.036 2.259 4.871 2.259c3.106 0 5.224-1.376 6.424-4.165l3.706 1.588c-.742 1.8-1.977 3.318-3.636 4.553-1.694 1.2-3.741 1.8-6.212 1.8zm16.518-33.036v10.2l-.176 3.071h.176c.6-1.059 1.553-1.941 2.859-2.682s2.682-1.094 4.165-1.094c2.753 0 4.835.847 6.282 2.541s2.153 3.953 2.153 6.776v13.518h-4.165V23.435c0-4.094-1.835-6.141-5.47-6.141-1.73 0-3.106.671-4.2 2.047s-1.624 2.965-1.624 4.765v12.247h-4.165V4.023h4.165zm40.377 33.036c-4.765 0-8.753-1.623-11.965-4.835s-4.835-7.235-4.835-12.071 1.623-8.824 4.835-12.071c3.212-3.212 7.2-4.835 11.965-4.835 4.87 0 8.823 1.765 11.894 5.294l-2.894 2.788c-2.189-2.753-5.189-4.094-9-4.094-3.53 0-6.495 1.2-8.93 3.565s-3.635 5.506-3.635 9.353 1.2 6.988 3.635 9.353 5.4 3.565 8.93 3.565c3.882 0 7.2-1.553 9.952-4.694l2.895 2.894c-1.483 1.765-3.318 3.176-5.542 4.235-2.258 1.059-4.694 1.553-7.305 1.553zm17.647-20.188c2.153-2.259 4.87-3.353 8.188-3.353s6.035 1.129 8.188 3.353c2.153 2.259 3.212 5.047 3.212 8.435s-1.059 6.176-3.212 8.435-4.871 3.353-8.188 3.353-6.035-1.13-8.188-3.353c-2.153-2.259-3.212-5.047-3.212-8.435s1.059-6.212 3.212-8.435zm3.07 14.224c1.447 1.447 3.141 2.188 5.083 2.188s3.635-.741 5.082-2.188 2.153-3.388 2.153-5.788-.706-4.341-2.153-5.788-3.141-2.188-5.082-2.188-3.636.741-5.083 2.188-2.153 3.388-2.153 5.788c.036 2.4.741 4.306 2.153 5.788zm23.4-16.871v3.071h.177c.6-1.059 1.553-1.941 2.858-2.682s2.683-1.094 4.165-1.094c2.753 0 4.835.847 6.283 2.541s2.152 3.953 2.152 6.776v13.518h-4.164V23.435c0-4.094-1.836-6.141-5.471-6.141-1.729 0-3.106.671-4.2 2.047s-1.623 2.965-1.623 4.765v12.247h-4.165V14.224h3.988zm27.741 22.835c-2.47 0-4.517-.6-6.106-1.8a10.49 10.49 0 0 1-3.529-4.518l3.706-1.553c1.165 2.788 3.176 4.165 6 4.165 1.306 0 2.365-.282 3.176-.847s1.236-1.341 1.236-2.259c0-1.447-1.024-2.435-3.036-2.929l-4.482-1.094c-1.412-.353-2.753-1.059-4.023-2.047-1.271-1.024-1.906-2.365-1.906-4.094 0-1.941.882-3.529 2.611-4.765s3.777-1.835 6.177-1.835c1.941 0 3.706.459 5.223 1.341a7.24 7.24 0 0 1 3.283 3.812l-3.6 1.482c-.812-1.941-2.506-2.929-5.047-2.929-1.236 0-2.259.247-3.106.776s-1.271 1.2-1.271 2.082c0 1.271.988 2.118 2.93 2.576l4.376 1.023c2.082.494 3.6 1.306 4.624 2.471.988 1.165 1.482 2.506 1.482 3.988 0 1.977-.812 3.635-2.435 4.977s-3.741 1.977-6.283 1.977zm13.483-20.188c2.153-2.259 4.87-3.353 8.188-3.353s6.035 1.129 8.188 3.353c2.153 2.259 3.212 5.047 3.212 8.435s-1.059 6.176-3.212 8.435-4.87 3.353-8.188 3.353-6.035-1.13-8.188-3.353c-2.153-2.259-3.212-5.047-3.212-8.435s1.059-6.212 3.212-8.435zm3.106 14.224c1.447 1.447 3.141 2.188 5.082 2.188s3.635-.741 5.082-2.188 2.153-3.388 2.153-5.788-.706-4.341-2.153-5.788-3.141-2.188-5.082-2.188-3.635.741-5.082 2.188-2.153 3.388-2.153 5.788.705 4.306 2.153 5.788zm23.611 5.258h-4.164V4.023h4.164v32.329zm14.294.706c-3.353 0-6.07-1.129-8.153-3.353s-3.141-5.047-3.141-8.435c0-3.212 1.024-6 3.036-8.329 2.047-2.329 4.623-3.494 7.8-3.494 3.282 0 5.894 1.059 7.87 3.212s2.965 5.012 2.965 8.577l-.035.777h-17.471c.106 2.223.882 3.988 2.224 5.294 1.376 1.306 2.964 1.941 4.8 1.941 2.964 0 5.011-1.271 6.07-3.812l3.706 1.553c-.706 1.73-1.906 3.141-3.565 4.306-1.658 1.2-3.706 1.765-6.106 1.765zm5.965-14.435c-.106-1.271-.67-2.471-1.729-3.6s-2.647-1.729-4.765-1.729c-1.553 0-2.859.494-3.988 1.447s-1.906 2.259-2.33 3.882h12.812zM.247 18.565c0-10.2 8.577-18.53 18.812-18.53 5.647 0 9.671 2.224 12.706 5.118L28.2 8.718c-2.153-2.047-5.118-3.6-9.141-3.6-7.447 0-13.271 6-13.271 13.447s5.824 13.447 13.271 13.447c4.835 0 7.588-1.941 9.353-3.706 1.447-1.447 2.4-3.529 2.753-6.353H19.059v-5.047h17.047c.177.918.282 1.977.282 3.177 0 3.812-1.023 8.506-4.376 11.824-3.247 3.388-7.412 5.188-12.918 5.188C8.824 37.059.247 28.765.247 18.565zm49.871-5.33c-6.6 0-11.965 5.012-11.965 11.929 0 6.882 5.365 11.929 11.965 11.929s11.965-5.047 11.965-11.929c0-6.918-5.365-11.929-11.965-11.929zm0 19.129c-3.6 0-6.741-2.965-6.741-7.235 0-4.306 3.106-7.235 6.741-7.235 3.6 0 6.741 2.929 6.741 7.235 0 4.271-3.141 7.235-6.741 7.235zm26.117-19.129c-6.6 0-11.965 5.012-11.965 11.929 0 6.882 5.365 11.929 11.965 11.929S88.2 32.047 88.2 25.165c0-6.918-5.365-11.929-11.965-11.929zm0 19.129c-3.6 0-6.741-2.965-6.741-7.235 0-4.306 3.106-7.235 6.741-7.235s6.741 2.929 6.741 7.235c0 4.271-3.141 7.235-6.741 7.235zm32.047-18.423v1.941h-.176c-1.165-1.412-3.424-2.682-6.282-2.682-5.965 0-11.436 5.224-11.436 11.965 0 6.671 5.471 11.894 11.436 11.894 2.858 0 5.117-1.271 6.282-2.718h.176v1.729c0 4.553-2.435 6.988-6.353 6.988-3.211 0-5.188-2.294-6-4.235l-4.553 1.906c1.306 3.176 4.8 7.059 10.589 7.059 6.141 0 11.329-3.6 11.329-12.423V13.941h-5.012zm-6 18.424c-3.6 0-6.635-3.035-6.635-7.2 0-4.2 3.035-7.271 6.635-7.271 3.565 0 6.353 3.071 6.353 7.271.036 4.2-2.788 7.2-6.353 7.2zm19.836-31.059h-5.224v35.047h5.224V1.306zm14.364 31.059c-2.682 0-4.553-1.235-5.788-3.6l15.953-6.6-.529-1.341c-.989-2.682-4.024-7.588-10.2-7.588-6.142 0-11.259 4.835-11.259 11.929 0 6.671 5.047 11.929 11.823 11.929 5.471 0 8.612-3.353 9.953-5.294l-4.059-2.718c-1.376 1.977-3.211 3.282-5.894 3.282zm-.388-14.541c2.082 0 3.847 1.024 4.412 2.541l-10.659 4.412c-.141-4.588 3.565-6.953 6.247-6.953z" fill="#fff"/><defs /></svg>