<svg xmlns="http://www.w3.org/2000/svg" width="64" height="48" fill="none" xmlns:v="https://vecta.io/nano"><path fill-rule="evenodd" d="M50.436 13.597a.6.6 0 0 1 .021.155v8.157c0 .105-.028.207-.08.298s-.128.166-.219.218l-6.846 3.942v7.812c0 .213-.113.409-.297.516l-14.29 8.227c-.033.019-.068.031-.104.043-.013.005-.026.013-.04.016a.6.6 0 0 1-.305 0c-.016-.005-.031-.013-.047-.019-.033-.012-.067-.022-.098-.04l-14.287-8.227c-.091-.052-.166-.127-.219-.218s-.08-.193-.08-.298V9.709c0-.054.007-.106.021-.156.005-.017.015-.033.021-.05.011-.031.022-.063.038-.092.011-.019.027-.035.041-.053.017-.024.033-.048.053-.069s.039-.03.059-.045.041-.037.065-.051l7.145-4.113c.09-.052.193-.079.297-.079s.207.027.297.079l7.144 4.113h.002c.024.015.044.033.065.051s.041.028.058.045c.021.022.036.046.053.07.013.018.03.033.04.053.017.03.027.061.039.092.006.017.016.033.021.051a.6.6 0 0 1 .021.155v15.284l5.953-3.428v-7.813a.6.6 0 0 1 .021-.155c.005-.018.015-.034.021-.051.012-.031.022-.063.039-.092.011-.019.028-.035.04-.053.018-.024.033-.048.053-.069s.039-.03.058-.045.042-.037.065-.051l7.146-4.113c.09-.052.193-.08.297-.08s.207.027.297.08l7.144 4.113c.025.015.045.034.067.051l.057.045c.021.022.036.046.053.07.013.018.03.033.04.053.017.029.027.061.039.092.007.017.016.033.021.051zm-1.17 7.968v-6.783l-2.5 1.439-3.454 1.989v6.783l5.955-3.428h-.001zm-7.144 12.27v-6.787l-3.397 1.94-9.701 5.537v6.851l13.099-7.541zM14.735 10.738v23.096l13.097 7.54v-6.85l-6.842-3.872-.002-.001-.003-.002c-.023-.013-.042-.033-.064-.049s-.04-.027-.056-.043l-.001-.002c-.019-.019-.033-.042-.049-.062s-.033-.037-.045-.058l-.001-.002c-.013-.022-.022-.049-.031-.074s-.022-.043-.028-.067-.009-.059-.012-.088c-.003-.022-.009-.045-.009-.067v-.002-15.969l-3.453-1.989-2.5-1.438zm6.549-4.456l-5.952 3.426 5.951 3.426 5.952-3.427-5.952-3.426h.002zm3.096 21.383l3.453-1.988V10.738l-2.5 1.439-3.454 1.989v14.939l2.501-1.44zm18.338-17.34l-5.952 3.426 5.952 3.426 5.951-3.427-5.951-3.426zm-.596 7.884l-3.454-1.989-2.5-1.439v6.783l3.453 1.988 2.501 1.44v-6.783zM28.427 33.495l8.73-4.984 4.364-2.49-5.947-3.424-6.847 3.942-6.241 3.593 5.942 3.363z" fill="#fff"/></svg>