<svg xmlns="http://www.w3.org/2000/svg" width="684" height="72" fill="#fff" xmlns:v="https://vecta.io/nano"><path fill-rule="evenodd" d="M94.867 16.585v32.464h11.83v5.599H88.569V16.585h6.298zm34.064 16.149V29.31h5.969v25.338h-5.97v-3.426c-.802 1.269-1.944 2.266-3.424 2.991s-2.965 1.087-4.462 1.087c-1.935 0-3.707-.354-5.312-1.06-1.563-.676-2.971-1.666-4.136-2.909-1.151-1.234-2.06-2.672-2.682-4.241a13.61 13.61 0 0 1-.959-5.111c0-1.776.32-3.47.959-5.084a13.46 13.46 0 0 1 2.682-4.267c1.165-1.243 2.573-2.233 4.136-2.91 1.605-.707 3.377-1.061 5.312-1.061 1.497 0 2.985.364 4.463 1.089s2.621 1.722 3.424 2.989zm-.549 12.343c.368-.991.554-2.041.549-3.098a8.8 8.8 0 0 0-.549-3.101 7.85 7.85 0 0 0-1.532-2.555 7.43 7.43 0 0 0-2.382-1.74c-.933-.434-1.964-.652-3.096-.652s-2.154.218-3.067.652-1.698 1.016-2.354 1.74a7.46 7.46 0 0 0-1.505 2.555c-.351.996-.527 2.044-.521 3.1 0 1.088.173 2.122.521 3.098a7.45 7.45 0 0 0 1.505 2.556c.662.729 1.462 1.321 2.354 1.74.913.436 1.935.652 3.067.652s2.165-.217 3.096-.651c.902-.414 1.713-1.006 2.382-1.74a7.84 7.84 0 0 0 1.532-2.556zm11.227 9.569V29.309h16.212v5.831h-10.243v19.506h-5.969zm37.844-21.913V29.31h5.969v25.338h-5.97v-3.426c-.804 1.269-1.944 2.266-3.424 2.991s-2.965 1.087-4.462 1.087c-1.936 0-3.706-.354-5.312-1.06a12.42 12.42 0 0 1-4.135-2.909c-1.151-1.234-2.061-2.672-2.683-4.241a13.61 13.61 0 0 1-.959-5.111c0-1.776.319-3.47.959-5.084.618-1.579 1.528-3.026 2.683-4.267a12.43 12.43 0 0 1 4.135-2.91c1.606-.707 3.376-1.061 5.312-1.061 1.497 0 2.985.364 4.464 1.089s2.618 1.722 3.423 2.989zm-.549 12.343c.367-.991.553-2.041.548-3.098 0-1.089-.184-2.122-.548-3.101-.343-.942-.863-1.809-1.533-2.555a7.43 7.43 0 0 0-2.382-1.74c-.931-.434-1.963-.652-3.094-.652s-2.155.218-3.068.652-1.697 1.016-2.354 1.74a7.46 7.46 0 0 0-1.506 2.555c-.351.996-.527 2.044-.521 3.1 0 1.088.173 2.122.521 3.098.325.944.838 1.814 1.506 2.556.663.729 1.463 1.321 2.354 1.74.913.436 1.936.652 3.068.652s2.164-.217 3.094-.651c.902-.414 1.713-1.006 2.382-1.74a7.84 7.84 0 0 0 1.533-2.556zm30.45-15.768h6.046l-9.798 25.338h-7.501l-9.798-25.338h6.046l7.502 19.403 7.503-19.403zm19.065-.651c8.129 0 13.671 7.151 12.63 15.522h-19.803c0 2.186 2.222 6.411 7.501 6.411 4.541 0 7.583-3.965 7.585-3.968l4.032 3.098c-3.604 3.823-6.557 5.578-11.18 5.578-8.262 0-13.86-5.189-13.86-13.321 0-7.357 5.786-13.321 13.095-13.321zm-7.158 11.118h14.306c-.044-.488-.819-6.412-7.195-6.412s-7.064 5.923-7.111 6.412zm23.676 14.87V16.585h5.97v38.062h-5.97zM70.403 16.288a1.14 1.14 0 0 1 .04.294v15.454c0 .199-.053.394-.153.566s-.244.314-.417.412l-13.064 7.468v14.802c-.001.199-.053.393-.154.565s-.244.313-.416.411L28.971 71.85c-.062.037-.132.058-.198.082-.027.008-.051.024-.076.031a1.15 1.15 0 0 1-.583 0c-.031-.008-.059-.025-.089-.037a1.02 1.02 0 0 1-.187-.076L.569 56.263c-.173-.098-.316-.241-.416-.413S0 55.483 0 55.284V8.921a1.13 1.13 0 0 1 .04-.294c.008-.034.028-.064.04-.095.023-.059.042-.12.074-.175.021-.037.052-.066.076-.099.034-.045.062-.093.102-.133.033-.033.075-.057.112-.085s.078-.068.124-.095l.001-.001L14.204.15c.172-.098.367-.149.566-.149s.393.052.566.149l13.635 7.794h.003c.045.028.082.065.124.096.037.028.078.052.11.085.04.04.068.088.102.132.025.034.057.064.078.1.031.055.051.116.074.175.011.031.03.061.04.095.026.096.038.195.038.294v28.958l11.363-6.495V16.582a1.13 1.13 0 0 1 .038-.294c.01-.034.028-.062.041-.095.021-.059.041-.12.072-.175.021-.037.052-.066.078-.099.034-.045.062-.093.102-.132.033-.032.074-.057.11-.085.042-.033.079-.071.126-.096v-.001L55.105 7.81c.173-.098.368-.15.567-.15s.394.052.567.15l13.634 7.794c.048.028.086.065.129.096.035.028.078.054.11.085.04.04.068.088.1.132.025.034.057.064.078.1.032.055.051.116.073.175.013.033.031.061.04.095zM68.17 31.384V18.533l-11.362 6.495v12.851l11.362-6.495zM54.536 54.632v-12.86L29.54 55.938v12.98l24.997-14.289v.003zM2.272 10.872v43.76l24.995 14.289V55.942L14.21 48.606l-.003-.004-.006-.001c-.045-.026-.081-.062-.122-.093s-.076-.051-.109-.082l-.003-.004c-.037-.035-.062-.079-.093-.119s-.062-.069-.085-.109l-.001-.004c-.025-.043-.041-.093-.059-.142-.018-.041-.042-.081-.054-.126-.015-.054-.017-.112-.024-.167-.004-.043-.017-.084-.017-.127V17.366L2.272 10.872zM14.77 2.429L3.414 8.922l11.356 6.491 11.357-6.492L14.77 2.429zm12.498 36.749V10.872l-11.362 6.495v28.304l11.362-6.494zm28.405-29.087l-11.357 6.491 11.357 6.492 11.356-6.492-11.356-6.491zm-1.136 14.937l-11.362-6.495v12.851l11.362 6.495V25.028zM28.402 53.987l24.985-14.161-11.349-6.488-24.977 14.277 11.341 6.372z"/><path d="M321.09 56.255l1.198-5.716 1.064-5.099.24-1.142 1.941-9.389h7.442l1.304-6.213h-7.777l.517-2.596c.289-1.418.815-2.48 1.577-3.191s1.813-1.063 3.153-1.063a9.36 9.36 0 0 1 2.257.276 10.51 10.51 0 0 1 2.122.773l1.957-6.627a12.52 12.52 0 0 0-2.026-.676c-.802-.199-1.615-.347-2.435-.442a21.62 21.62 0 0 0-2.553-.151c-1.342 0-2.628.161-3.86.484-1.22.316-2.366.869-3.372 1.629-1.015.765-1.898 1.799-2.652 3.107s-1.327 2.936-1.727 4.887l-.829 4.018.088-.428h-4.507l-1.305 6.213h4.514l-.066.318-.357 1.702-.176.839-.79 3.796-.569 2.762-1.291 6.2-1.184 5.729h8.102zm23.147-27.612l-.776 1.997 3.635 2.558c.197.136.301.392.273.65l-.013.076-.245 1.12c-.061.281-.275.485-.527.503l-3.209.214 2.744 1.915c.197.136.301.393.271.65l-.011.077-.245 1.119c-.061.283-.275.487-.527.503l-3.209.215 2.744 1.913c.197.137.301.393.271.65l-.013.077-.244 1.118c-.062.283-.276.487-.526.503l-3.209.217 2.744 1.913c.195.136.301.392.271.65l-.013.077-.244 1.119c-.062.283-.276.487-.526.503l-3.211.215 2.746 1.913c.195.137.299.393.271.65l-.013.077-.244 1.118c-.062.283-.276.487-.528.503l-4.5.398-.559 2.401h-3.594l1.11-4.413c.063-.281.276-.485.528-.502l3.207-.217-2.743-1.913a.7.7 0 0 1-.224-.288.71.71 0 0 1-.048-.361l.014-.076.245-1.12c.061-.281.274-.485.526-.503l3.208-.215-2.742-1.913a.7.7 0 0 1-.272-.65l.012-.077.245-1.118c.061-.283.274-.487.526-.503l3.209-.217-2.743-1.911a.7.7 0 0 1-.272-.65l.013-.077.244-1.118c.061-.283.274-.487.526-.503l3.209-.217-2.743-1.913a.7.7 0 0 1-.272-.65l.013-.077.244-1.119c.062-.283.276-.487.526-.503l3.211-.215-2.747-1.913a.7.7 0 0 1-.271-.65l.013-.077.5-1.778 3.962-.153h.002zM347 15.249c1.474 0 2.566.502 3.274 1.505s.924 2.204.641 3.602c-.321 1.604-.982 2.684-1.984 3.247s-2.25.842-3.742.842c-1.455 0-2.551-.438-3.288-1.313s-.946-2.122-.625-3.742c.301-1.472.962-2.532 1.984-3.175s2.267-.967 3.74-.967zm31.965 12.703c2.609 0 4.757.441 6.443 1.324s2.855 2.14 3.507 3.77.735 3.566.247 5.813l-.573 2.803-1.115 5.288-.91 4.362-1.047 4.943h-7.013l.352-3.671h-.625a10.88 10.88 0 0 1-2.215 2.415c-.787.624-1.674 1.11-2.624 1.436a9.35 9.35 0 0 1-3.046.484c-1.721 0-3.161-.428-4.323-1.283-1.152-.847-2.001-2.043-2.418-3.411-.454-1.416-.5-2.964-.138-4.639.273-1.29.712-2.365 1.319-3.23s1.343-1.574 2.204-2.127a11.63 11.63 0 0 1 2.854-1.311 21.72 21.72 0 0 1 3.249-.732l8.51-1.354c.181-.827.114-1.551-.204-2.168s-.883-1.096-1.699-1.436-1.858-.51-3.127-.51a15.14 15.14 0 0 0-2.08.151 23.25 23.25 0 0 0-2.297.442l-2.46.717-2.598 1.008 1.279-7.236 2.228-.648 2.639-.594 2.84-.443c.971-.11 1.917-.165 2.841-.165zm1.63 14.606c-.292.207-.601.387-.924.539-.362.174-.861.349-1.496.525l-2.582.622c-.656.15-1.301.343-1.931.579a3.79 3.79 0 0 0-1.441.938c-.38.406-.635.931-.761 1.576-.181 1.012-.009 1.799.516 2.36s1.242.842 2.148.842c.653 0 1.31-.143 1.972-.428a7.19 7.19 0 0 0 1.903-1.229c.607-.535 1.165-1.168 1.672-1.905l.924-4.42zm39.526-9.688c-.284-1.387-.865-2.492-1.74-3.318-1.135-1.067-2.714-1.601-4.745-1.601-1.251 0-2.451.22-3.603.663a12.18 12.18 0 0 0-3.181 1.809c-.937.73-1.766 1.589-2.461 2.553h-.679l.571-4.694-6.853.415-1.386 6.668-1.277 6.201-.572 2.76-1.305 6.2-1.195 5.729h8.129l1.167-5.688 1.226-5.826 1.168-5.716a19.56 19.56 0 0 1 1.755-1.823 7.91 7.91 0 0 1 1.849-1.271 4.62 4.62 0 0 1 2.052-.469c1.269 0 2.08.502 2.435 1.505s.357 2.332.011 3.991l-.788 3.81-1.195 5.8-1.17 5.688h8.103l1.209-5.729 1.291-6.201.64-3.092.557-2.65-.039.181.057-.066 1.18-1.196.298-.273c.561-.508 1.187-.94 1.862-1.283a4.52 4.52 0 0 1 2.052-.484c1.27 0 2.081.502 2.435 1.505s.357 2.332.013 3.991l-.79 3.81-1.182 5.813-1.181 5.675h8.129l1.167-5.716 1.306-6.213.64-3.092.556-2.651c.691-3.222.472-5.798-.651-7.731s-3.073-2.9-5.846-2.9c-1.25 0-2.456.225-3.617.674a12.64 12.64 0 0 0-3.221 1.837 13.07 13.07 0 0 0-2.543 2.624h-.595l-.043-.219v.002zm35.148-4.918c2.845 0 5.166.525 6.961 1.574s3.01 2.522 3.643 4.418.643 4.104.028 6.627l-.449 1.711-.37 1.171-.133.377h-16.646l-.005.109c-.038 1.053.115 1.971.46 2.749.517 1.169 1.372 2.045 2.57 2.624s2.664.87 4.403.87c.761 0 1.609-.069 2.543-.207a18.75 18.75 0 0 0 2.786-.635 12.85 12.85 0 0 0 2.556-1.091l-1.087 7.014c-.49.296-1.161.571-2.012.829s-1.835.469-2.95.635a24.75 24.75 0 0 1-3.603.247c-3.263 0-5.987-.638-8.17-1.918a10.47 10.47 0 0 1-4.622-5.454c-.898-2.355-1.02-5.153-.368-8.394.544-2.67 1.469-4.999 2.775-6.987s2.944-3.53 4.919-4.625 4.233-1.642 6.771-1.642zm.164 5.826c-.926 0-1.826.248-2.706.745s-1.663 1.27-2.352 2.319c-.444.693-.801 1.438-1.064 2.217l-.082.242 9.826-.207.033-.237c.133-1.212-.043-2.298-.53-3.257-.615-1.215-1.658-1.822-3.125-1.822zm20.484 22.476l1.168-5.675 1.225-5.839 1.168-5.716a17.8 17.8 0 0 1 1.781-1.822 8.22 8.22 0 0 1 1.903-1.272c.662-.312 1.382-.469 2.162-.469 1.432 0 2.339.502 2.719 1.505s.389 2.332.028 3.99l-.79 3.81-2.365 11.488h8.13l1.209-5.729 1.265-6.201.666-3.092.558-2.65c.671-3.222.434-5.798-.707-7.731s-3.181-2.9-6.118-2.9a10.54 10.54 0 0 0-3.71.663 12.1 12.1 0 0 0-3.251 1.809c-.943.727-1.776 1.587-2.474 2.553h-.679l.571-4.694-6.853.415-1.386 6.683-1.277 6.185-.572 2.762-2.5 11.929h8.129zm35.961.747c.653 0 1.359-.061 2.121-.181.721-.11 1.434-.267 2.135-.469.661-.192 1.182-.419 1.562-.676l.87-6.765c-.707.497-1.409.847-2.107 1.049a6.92 6.92 0 0 1-1.916.303c-1.324 0-2.225-.461-2.706-1.38s-.529-2.265-.149-4.032l2.052-9.942h8.09l1.304-6.213h-8.099l.054-.26.339-1.615.107-.513.829-3.949.844-4.073-8.32 1.464-1.102 5.301-.689 3.29-.076.355h-4.387l-1.306 6.213h4.402l-.035.168-.098.482-.829 4.004-.747 3.589-.735 3.52c-.489 2.339-.435 4.273.164 5.8s1.627 2.665 3.086 3.411S509.776 57 511.878 57zM357.523 50.54l-1.168 5.716h-8.133l1.196-5.729 1.306-6.201 3.154-15.297 1.414-6.655 1.36-6.599 8.268-.717-1.402 6.695-1.508 7.25-3.181 15.297-1.306 6.241zm237.208-28.445h14.238c4.179.035 7.207 1.234 9.085 3.595s2.497 5.586 1.859 9.674c-.248 1.868-.797 3.701-1.647 5.498-.815 1.797-1.948 3.419-3.4 4.864-1.771 1.833-3.666 2.996-5.685 3.489a26.33 26.33 0 0 1-6.269.74h-6.375L594.518 60h-7.384l7.597-37.905zm6.216 6.027l-3.188 15.86a3.9 3.9 0 0 0 .638.053h.743c3.401.035 6.234-.3 8.501-1.005 2.266-.74 3.789-3.313 4.569-7.718.637-3.701 0-5.833-1.913-6.397-1.877-.564-4.232-.828-7.066-.793l-1.222.053h-1.115l.053-.053zM628.327 12h7.332l-2.072 10.098h6.587c3.613.07 6.305.811 8.076 2.22 1.806 1.41 2.337 4.088 1.593 8.036l-3.559 17.605h-7.438l3.4-16.812c.354-1.762.248-3.013-.318-3.754s-1.789-1.11-3.666-1.11l-5.897-.053-4.357 21.728h-7.331L628.327 12zm29.39 10.095h14.238c4.18.035 7.208 1.234 9.085 3.595s2.497 5.586 1.859 9.674c-.248 1.868-.797 3.701-1.647 5.498-.814 1.797-1.948 3.419-3.4 4.864-1.771 1.833-3.665 2.996-5.684 3.489a26.31 26.31 0 0 1-6.269.74h-6.375L657.505 60h-7.385l7.597-37.905zm6.216 6.027l-3.187 15.86a3.89 3.89 0 0 0 .637.053h.744c3.4.035 6.233-.3 8.5-1.005 2.267-.74 3.79-3.313 4.569-7.718.638-3.701 0-5.833-1.913-6.397-1.877-.564-4.232-.828-7.065-.793l-1.222.053h-1.116l.053-.053z"/></svg>
