<svg width="122" height="38" viewBox="0 0 122 38" fill="none" xmlns="http://www.w3.org/2000/svg">
<path d="M37 30.6066V7.65574H45.0328C46.8251 7.65574 48.3115 7.96175 49.4918 8.57377C50.6721 9.16393 51.5464 9.98361 52.1148 11.0328C52.7049 12.0601 53 13.2295 53 14.541C53 15.7869 52.7158 16.9344 52.1475 17.9836C51.6011 19.0109 50.7377 19.8306 49.5574 20.4426C48.377 21.0546 46.8689 21.3607 45.0328 21.3607H40.4754V30.6066H37ZM40.4754 18.5082H44.8689C46.5082 18.5082 47.6776 18.1585 48.377 17.459C49.0984 16.7377 49.459 15.765 49.459 14.541C49.459 13.2732 49.0984 12.2896 48.377 11.5902C47.6776 10.8689 46.5082 10.5082 44.8689 10.5082H40.4754V18.5082Z" fill="white"/>
<path d="M56.9598 11.2623C56.304 11.2623 55.7576 11.0656 55.3204 10.6721C54.9051 10.2568 54.6975 9.74317 54.6975 9.13115C54.6975 8.51913 54.9051 8.01639 55.3204 7.62295C55.7576 7.20765 56.304 7 56.9598 7C57.6155 7 58.151 7.20765 58.5663 7.62295C59.0035 8.01639 59.2221 8.51913 59.2221 9.13115C59.2221 9.74317 59.0035 10.2568 58.5663 10.6721C58.151 11.0656 57.6155 11.2623 56.9598 11.2623ZM55.2221 30.6066V14.3443H58.6975V30.6066H55.2221Z" fill="white"/>
<path d="M61.9739 30.6066V14.3443H65.0886L65.3837 17.4262C65.952 16.3552 66.7389 15.5137 67.7444 14.9016C68.7717 14.2678 70.0067 13.9508 71.4493 13.9508V17.5902H70.4985C69.5367 17.5902 68.6733 17.7541 67.9083 18.082C67.1651 18.388 66.564 18.9235 66.105 19.6885C65.6679 20.4317 65.4493 21.4699 65.4493 22.8033V30.6066H61.9739Z" fill="white"/>
<path d="M79.6094 31C77.5547 31 75.8607 30.4973 74.5274 29.4918C73.1941 28.4863 72.429 27.153 72.2323 25.4918H75.7405C75.9154 26.235 76.3307 26.8798 76.9864 27.4262C77.6422 27.9508 78.5055 28.2131 79.5766 28.2131C80.6258 28.2131 81.3908 27.9945 81.8717 27.5574C82.3525 27.1202 82.593 26.6175 82.593 26.0492C82.593 25.2186 82.2542 24.6612 81.5766 24.377C80.9208 24.071 80.0028 23.7978 78.8225 23.5574C77.9045 23.3607 76.9864 23.0984 76.0684 22.7705C75.1722 22.4426 74.4181 21.9836 73.8061 21.3934C73.2159 20.7814 72.9208 19.9617 72.9208 18.9344C72.9208 17.5137 73.4673 16.3333 74.5602 15.3934C75.6531 14.4317 77.1831 13.9508 79.1504 13.9508C80.9646 13.9508 82.429 14.388 83.5438 15.2623C84.6804 16.1366 85.3471 17.3716 85.5438 18.9672H82.1995C82.0902 18.2678 81.7624 17.7213 81.2159 17.3279C80.6913 16.9344 79.981 16.7377 79.0848 16.7377C78.2105 16.7377 77.5329 16.9235 77.052 17.2951C76.5711 17.6448 76.3307 18.1038 76.3307 18.6721C76.3307 19.2404 76.6586 19.6885 77.3143 20.0164C77.9919 20.3443 78.8771 20.6393 79.97 20.9016C81.0629 21.1421 82.0684 21.4262 82.9864 21.7541C83.9263 22.0601 84.6804 22.5191 85.2487 23.1311C85.817 23.7432 86.1012 24.6393 86.1012 25.8197C86.123 27.306 85.5438 28.541 84.3635 29.5246C83.205 30.5082 81.6203 31 79.6094 31Z" fill="white"/>
<path d="M96.2887 31C94.693 31 93.2614 30.6393 91.9936 29.918C90.7477 29.1967 89.7641 28.2022 89.0428 26.9344C88.3433 25.6448 87.9936 24.1585 87.9936 22.4754C87.9936 20.7924 88.3433 19.3169 89.0428 18.0492C89.7641 16.7596 90.7477 15.7541 91.9936 15.0328C93.2614 14.3115 94.693 13.9508 96.2887 13.9508C98.2996 13.9508 99.9827 14.4754 101.338 15.5246C102.715 16.5738 103.6 17.9945 103.994 19.7869H100.354C100.136 18.8907 99.6548 18.1913 98.9116 17.6885C98.1684 17.1858 97.2941 16.9344 96.2887 16.9344C95.4362 16.9344 94.6493 17.153 93.928 17.5902C93.2067 18.0055 92.6275 18.6284 92.1903 19.459C91.7531 20.2678 91.5346 21.2732 91.5346 22.4754C91.5346 23.6776 91.7531 24.694 92.1903 25.5246C92.6275 26.3333 93.2067 26.9563 93.928 27.3934C94.6493 27.8306 95.4362 28.0492 96.2887 28.0492C97.2941 28.0492 98.1684 27.7978 98.9116 27.2951C99.6548 26.7923 100.136 26.082 100.354 25.1639H103.994C103.622 26.9126 102.748 28.3224 101.371 29.3934C99.9936 30.4645 98.2996 31 96.2887 31Z" fill="white"/>
<path d="M106.451 30.6066V7H109.927V16.9672C110.473 16.0273 111.227 15.2951 112.189 14.7705C113.173 14.224 114.255 13.9508 115.435 13.9508C117.38 13.9508 118.91 14.5628 120.025 15.7869C121.14 17.0109 121.697 18.8361 121.697 21.2623V30.6066H118.255V21.6229C118.255 18.4754 116.998 16.9016 114.484 16.9016C113.173 16.9016 112.08 17.3607 111.205 18.2787C110.353 19.1967 109.927 20.5082 109.927 22.2131V30.6066H106.451Z" fill="white"/>
<path d="M1 24C7.62741 24 13 18.6274 13 12C13 5.37259 7.62741 6.40675e-08 1 1.43099e-07L1 24Z" fill="white"/>
<path d="M25 14C18.3726 14 13 19.3726 13 26C13 32.6274 18.3726 38 25 38L25 14Z" fill="white"/>
<circle cx="21" cy="6" r="5" fill="white"/>
<circle cx="5" cy="32" r="5" fill="white"/>
</svg>
