<svg xmlns="http://www.w3.org/2000/svg" width="64" height="48" fill="#fff" xmlns:v="https://vecta.io/nano"><path d="M32 28.117c2.1 0 3.803-1.703 3.803-3.803S34.1 20.511 32 20.511s-3.803 1.703-3.803 3.803S29.9 28.117 32 28.117z"/><path fill-rule="evenodd" d="M28.12 17.593l-2.064 3.289-1.816 3.432 1.816 3.432 2.064 3.289 3.88.143 3.88-.143 2.064-3.289 1.816-3.432-1.816-3.432-2.064-3.289L32 17.45l-3.88.143zm-2.379.237l-1.291 2.124-1.194 2.18-1.344-3.645 3.828-.659zm3.775-2.179L32 15.595l2.485.056L32 12.665l-2.485 2.986zm1.191-4.319c-1.221 1.321-2.438 2.828-3.611 4.485a44.44 44.44 0 0 0-5.69.885l-.474-2.276c-.302-1.886-.309-3.476-.051-4.685s.756-1.935 1.381-2.296 1.502-.429 2.679-.048 2.55 1.182 4.032 2.386l1.734 1.549zm2.588 0c1.222 1.321 2.438 2.828 3.611 4.485 2.022.187 3.935.487 5.69.885l.474-2.276c.302-1.886.309-3.476.051-4.685s-.756-1.935-1.381-2.296-1.502-.429-2.679-.048-2.55 1.182-4.032 2.386l-1.734 1.549zm11.099 5.826l.508-2.439c.323-2.017.356-3.855.033-5.366s-1.03-2.8-2.268-3.514-2.707-.683-4.178-.207-3.046 1.423-4.631 2.712L32 10.003l-1.858-1.66c-1.585-1.288-3.16-2.236-4.631-2.712s-2.939-.508-4.177.207-1.945 2.003-2.268 3.514-.29 3.349.033 5.366l.508 2.439-2.366.78c-1.908.729-3.517 1.619-4.664 2.655s-1.91 2.291-1.91 3.721.762 2.686 1.91 3.721 2.755 1.926 4.664 2.655l2.366.78-.508 2.439c-.323 2.017-.356 3.855-.033 5.366s1.03 2.8 2.268 3.514 2.707.683 4.177.207 3.046-1.423 4.631-2.712L32 38.625l1.858 1.66c1.585 1.288 3.16 2.236 4.631 2.712s2.939.508 4.178-.207 1.945-2.003 2.268-3.514.29-3.349-.033-5.366l-.508-2.439 2.367-.78c1.908-.729 3.516-1.619 4.664-2.655s1.91-2.292 1.91-3.721-.762-2.686-1.91-3.721-2.756-1.926-4.664-2.655l-2.367-.78zm-2.305 1.331l-3.828-.659 1.291 2.124 1.194 2.18 1.344-3.645zm-.277 5.824a44.44 44.44 0 0 0 2.079-5.37l2.209.727c1.785.681 3.165 1.47 4.083 2.299s1.298 1.622 1.298 2.344-.38 1.516-1.298 2.344-2.298 1.617-4.083 2.299l-2.209.727a44.44 44.44 0 0 0-2.079-5.37zm-1.066 2.179l-1.194 2.18-1.291 2.124 3.828-.659-1.344-3.645zm1.851 5.432c-1.755.397-3.668.698-5.69.885-1.173 1.658-2.389 3.164-3.611 4.485l1.734 1.549c1.482 1.205 2.855 2.006 4.032 2.386s2.054.313 2.679-.048 1.123-1.087 1.381-2.296.252-2.799-.051-4.685l-.474-2.276zM32 35.963a41.03 41.03 0 0 0 2.485-2.986L32 33.033a54.56 54.56 0 0 1-2.485-.056L32 35.963zm-6.26-5.166l-1.291-2.124-1.194-2.18-1.344 3.645 3.828.659zm-4.336 1.128c1.755.397 3.668.698 5.69.885 1.173 1.658 2.39 3.164 3.611 4.485l-1.734 1.549c-1.482 1.205-2.855 2.006-4.032 2.386s-2.054.313-2.679-.048-1.123-1.087-1.381-2.296-.252-2.799.051-4.685l.474-2.276zm-1.294-2.242l-2.209-.727c-1.784-.681-3.165-1.47-4.083-2.299s-1.297-1.622-1.297-2.344.38-1.516 1.297-2.344 2.298-1.617 4.083-2.299l2.209-.727c.534 1.719 1.23 3.525 2.079 5.37-.849 1.845-1.545 3.651-2.079 5.37z"/></svg>