<svg xmlns="http://www.w3.org/2000/svg" xmlns:xlink="http://www.w3.org/1999/xlink" width="282" height="144" fill="none"><style><![CDATA[.B{fill-opacity:.04}]]></style><rect width="282" height="144" rx="12" fill="url(#A)"/><g fill="#fff"><rect x="12" y="12" width="116" height="32" rx="6" class="B"/><rect x="16" y="16" width="24" height="24" rx="12" class="B"/><path d="M27.233 33v-8.12l-1.582.364v-1.092l2.17-.952h.952V33h-1.54zm23.351 1.442l3.5-12.236h1.456l-3.514 12.236h-1.442zm8.84-1.274c-.663 0-1.26-.149-1.792-.448-.523-.308-.938-.733-1.246-1.274-.308-.551-.462-1.19-.462-1.918s.154-1.363.462-1.904a3.34 3.34 0 0 1 1.274-1.274c.532-.308 1.125-.462 1.778-.462.663 0 1.255.154 1.778.462.532.299.952.723 1.26 1.274.317.541.476 1.176.476 1.904s-.159 1.367-.476 1.918a3.37 3.37 0 0 1-1.26 1.274c-.532.299-1.129.448-1.792.448zm0-1.274c.355 0 .681-.089.98-.266.308-.177.555-.439.742-.784.187-.355.28-.793.28-1.316s-.093-.957-.28-1.302c-.177-.355-.42-.621-.728-.798-.299-.177-.625-.266-.98-.266a1.96 1.96 0 0 0-.994.266c-.299.177-.541.443-.728.798-.187.345-.28.779-.28 1.302s.093.961.28 1.316c.187.345.429.607.728.784s.625.266.98.266zM66.147 33l-2.604-6.944h1.554l1.932 5.53 1.932-5.53h1.54L67.911 33h-1.764zm8.466.168c-.681 0-1.288-.149-1.82-.448a3.3 3.3 0 0 1-1.232-1.274c-.299-.541-.448-1.171-.448-1.89 0-.728.145-1.367.434-1.918a3.27 3.27 0 0 1 1.232-1.288c.532-.308 1.148-.462 1.848-.462.681 0 1.274.154 1.778.462.504.299.896.7 1.176 1.204a3.37 3.37 0 0 1 .42 1.666l-.014.308-.014.35h-5.404c.047.672.266 1.185.658 1.54a2.06 2.06 0 0 0 1.386.518c.42 0 .77-.093 1.05-.28.289-.196.504-.457.644-.784h1.484a3.14 3.14 0 0 1-1.12 1.638c-.551.439-1.237.658-2.058.658zm0-6.062a2.08 2.08 0 0 0-1.316.448c-.383.289-.616.728-.7 1.316h3.92c-.028-.541-.219-.971-.574-1.288s-.798-.476-1.33-.476zM79.541 33v-6.944h1.33l.126 1.316c.243-.457.579-.817 1.008-1.078.439-.271.966-.406 1.582-.406v1.554h-.406c-.411 0-.779.07-1.106.21-.317.131-.574.359-.77.686-.187.317-.28.761-.28 1.33V33h-1.484zm7.264 0l-2.604-6.944h1.554l1.932 5.53 1.932-5.53h1.54L88.569 33h-1.764zm6.413-8.26c-.28 0-.513-.084-.7-.252-.177-.177-.266-.397-.266-.658a.85.85 0 0 1 .266-.644c.187-.177.42-.266.7-.266s.509.089.686.266c.187.168.28.383.28.644a.87.87 0 0 1-.28.658c-.177.168-.406.252-.686.252zM92.476 33v-6.944h1.484V33h-1.484zm6.691.168c-.681 0-1.288-.149-1.82-.448a3.3 3.3 0 0 1-1.232-1.274c-.299-.541-.448-1.171-.448-1.89 0-.728.145-1.367.434-1.918a3.27 3.27 0 0 1 1.232-1.288c.532-.308 1.148-.462 1.848-.462.681 0 1.274.154 1.778.462.504.299.896.7 1.176 1.204a3.37 3.37 0 0 1 .42 1.666l-.014.308-.014.35h-5.404c.047.672.266 1.185.658 1.54.401.345.863.518 1.386.518.42 0 .77-.093 1.05-.28a1.76 1.76 0 0 0 .644-.784h1.484c-.186.653-.56 1.199-1.12 1.638-.55.439-1.236.658-2.058.658zm0-6.062a2.08 2.08 0 0 0-1.316.448c-.383.289-.616.728-.7 1.316h3.92c-.028-.541-.219-.971-.574-1.288s-.798-.476-1.33-.476zM105.208 33l-2.044-6.944h1.484l1.344 5.236 1.512-5.236h1.652l1.512 5.236 1.344-5.236h1.484L111.452 33h-1.526l-1.596-5.46-1.596 5.46h-1.526z"/><rect x="154" y="100" width="116" height="32" rx="6" class="B"/><rect x="158" y="104" width="24" height="24" rx="12" class="B"/><path d="M169.487 121.168c-.634 0-1.213-.112-1.736-.336-.513-.233-.924-.583-1.232-1.05s-.471-1.05-.49-1.75h1.47a2 2 0 0 0 .532 1.33c.346.355.831.532 1.456.532.598 0 1.055-.163 1.372-.49.318-.336.476-.751.476-1.246 0-.597-.214-1.041-.644-1.33-.42-.289-.938-.434-1.554-.434h-.728v-1.232h.742c.551 0 .994-.131 1.33-.392.346-.261.518-.63.518-1.106 0-.401-.135-.728-.406-.98-.261-.252-.634-.378-1.12-.378-.504 0-.9.149-1.19.448-.289.289-.448.653-.476 1.092h-1.47c.019-.569.159-1.064.42-1.484.271-.42.64-.747 1.106-.98s1.004-.35 1.61-.35c.654 0 1.2.117 1.638.35.448.224.784.532 1.008.924a2.37 2.37 0 0 1 .35 1.26c0 .523-.144.98-.434 1.372a2.07 2.07 0 0 1-1.162.784c.56.121 1.022.397 1.386.826.364.42.546.966.546 1.638 0 .541-.126 1.041-.378 1.498-.252.448-.625.807-1.12 1.078s-1.101.406-1.82.406zm23.326 1.274l3.5-12.236h1.456l-3.514 12.236h-1.442zm8.882-1.274c-.682 0-1.293-.154-1.834-.462-.532-.308-.952-.733-1.26-1.274-.299-.551-.448-1.185-.448-1.904s.149-1.349.448-1.89a3.34 3.34 0 0 1 1.26-1.288c.541-.308 1.152-.462 1.834-.462.858 0 1.577.224 2.156.672.588.448.966 1.055 1.134 1.82h-1.554c-.094-.383-.299-.681-.616-.896a1.95 1.95 0 0 0-1.12-.322c-.364 0-.7.093-1.008.28-.308.177-.556.443-.742.798-.187.345-.28.775-.28 1.288s.093.947.28 1.302c.186.345.434.611.742.798s.644.28 1.008.28a1.95 1.95 0 0 0 1.12-.322 1.47 1.47 0 0 0 .616-.91h1.554c-.159.747-.532 1.349-1.12 1.806s-1.312.686-2.17.686zm4.899-.168v-10.08h1.484v4.256a2.47 2.47 0 0 1 .966-.938 2.81 2.81 0 0 1 1.386-.35c.831 0 1.484.261 1.96.784s.714 1.302.714 2.338V121h-1.47v-3.836c0-1.344-.536-2.016-1.61-2.016-.56 0-1.026.196-1.4.588-.364.392-.546.952-.546 1.68V121h-1.484zm11.506.168c-.681 0-1.288-.149-1.82-.448a3.3 3.3 0 0 1-1.232-1.274c-.299-.541-.448-1.171-.448-1.89 0-.728.145-1.367.434-1.918a3.27 3.27 0 0 1 1.232-1.288c.532-.308 1.148-.462 1.848-.462.681 0 1.274.154 1.778.462.504.299.896.7 1.176 1.204a3.37 3.37 0 0 1 .42 1.666l-.014.308-.014.35h-5.404c.047.672.266 1.185.658 1.54.401.345.863.518 1.386.518.42 0 .77-.093 1.05-.28.289-.196.504-.457.644-.784h1.484a3.14 3.14 0 0 1-1.12 1.638c-.551.439-1.237.658-2.058.658zm0-6.062c-.495 0-.933.149-1.316.448-.383.289-.616.728-.7 1.316h3.92c-.028-.541-.219-.971-.574-1.288s-.798-.476-1.33-.476zm8.218 6.062c-.681 0-1.293-.154-1.834-.462-.532-.308-.952-.733-1.26-1.274-.299-.551-.448-1.185-.448-1.904s.149-1.349.448-1.89a3.34 3.34 0 0 1 1.26-1.288c.541-.308 1.153-.462 1.834-.462.859 0 1.577.224 2.156.672.588.448.966 1.055 1.134 1.82h-1.554a1.46 1.46 0 0 0-.616-.896c-.317-.215-.691-.322-1.12-.322-.364 0-.7.093-1.008.28-.308.177-.555.443-.742.798-.187.345-.28.775-.28 1.288s.093.947.28 1.302c.187.345.434.611.742.798s.644.28 1.008.28c.429 0 .803-.107 1.12-.322s.523-.518.616-.91h1.554c-.159.747-.532 1.349-1.12 1.806s-1.311.686-2.17.686zm4.899-.168v-10.08h1.484v6.006l2.66-2.87h1.778l-2.954 3.15 3.388 3.794h-1.876l-2.996-3.556V121h-1.484zm10.221.168c-.663 0-1.26-.149-1.792-.448-.523-.308-.938-.733-1.246-1.274-.308-.551-.462-1.19-.462-1.918s.154-1.363.462-1.904c.317-.551.742-.975 1.274-1.274.532-.308 1.125-.462 1.778-.462.663 0 1.255.154 1.778.462.532.299.952.723 1.26 1.274.317.541.476 1.176.476 1.904s-.159 1.367-.476 1.918c-.308.541-.728.966-1.26 1.274-.532.299-1.129.448-1.792.448zm0-1.274c.355 0 .681-.089.98-.266.308-.177.555-.439.742-.784.187-.355.28-.793.28-1.316s-.093-.957-.28-1.302c-.177-.355-.42-.621-.728-.798-.299-.177-.625-.266-.98-.266a1.96 1.96 0 0 0-.994.266c-.299.177-.541.443-.728.798-.187.345-.28.779-.28 1.302s.093.961.28 1.316c.187.345.429.607.728.784s.625.266.98.266zm7.695 1.274c-.84 0-1.503-.261-1.988-.784-.476-.523-.714-1.302-.714-2.338v-3.99h1.484v3.836c0 1.344.55 2.016 1.652 2.016a1.75 1.75 0 0 0 1.358-.588c.354-.392.532-.952.532-1.68v-3.584h1.484V121h-1.316l-.112-1.218c-.215.429-.532.77-.952 1.022-.411.243-.887.364-1.428.364zm8.608-.168c-.682 0-1.223-.163-1.624-.49-.402-.336-.602-.929-.602-1.778v-3.43h-1.19v-1.246h1.19l.182-1.764h1.302v1.764h1.96v1.246h-1.96v3.43c0 .383.079.649.238.798.168.14.452.21.854.21h.798V121h-1.148z"/><rect x="84" y="56" width="116" height="32" rx="6" class="B"/><rect x="88" y="60" width="24" height="24" rx="12" class="B"/><path d="M96.292 77v-1.064l1.82-1.526c.579-.513 1.092-1.017 1.54-1.512.457-.504.817-.994 1.078-1.47.261-.485.392-.952.392-1.4a2.27 2.27 0 0 0-.154-.84c-.103-.271-.271-.485-.504-.644-.233-.168-.546-.252-.938-.252-.588 0-1.031.187-1.33.56-.289.373-.429.821-.42 1.344h-1.442c.009-.691.154-1.269.434-1.736a2.86 2.86 0 0 1 1.148-1.064c.485-.243 1.031-.364 1.638-.364.924 0 1.661.261 2.212.784.56.513.84 1.232.84 2.156 0 .551-.135 1.097-.406 1.638a7.35 7.35 0 0 1-1.036 1.568 14.82 14.82 0 0 1-1.358 1.4l-1.386 1.19h4.48V77h-6.608zm26.534 1.442l3.5-12.236h1.456l-3.514 12.236h-1.442zm6.261 1.638V70.056h1.33l.154 1.078c.224-.327.532-.616.924-.868s.896-.378 1.512-.378c.672 0 1.265.159 1.778.476a3.3 3.3 0 0 1 1.204 1.302c.299.551.448 1.176.448 1.876s-.149 1.325-.448 1.876c-.289.541-.69.971-1.204 1.288-.513.308-1.11.462-1.792.462-.541 0-1.022-.107-1.442-.322-.41-.215-.737-.518-.98-.91v4.144h-1.484zm3.654-4.2c.635 0 1.158-.215 1.568-.644.411-.439.616-1.008.616-1.708 0-.457-.093-.863-.28-1.218a2.05 2.05 0 0 0-.77-.826c-.326-.205-.704-.308-1.134-.308-.634 0-1.157.219-1.568.658-.401.439-.602 1.003-.602 1.694 0 .7.201 1.269.602 1.708.411.429.934.644 1.568.644zm5.301 1.12v-6.944h1.33l.126 1.316a2.74 2.74 0 0 1 1.008-1.078c.439-.271.966-.406 1.582-.406v1.554h-.406c-.41 0-.779.07-1.106.21-.317.131-.574.359-.77.686-.186.317-.28.761-.28 1.33V77h-1.484zm8.375.168c-.662 0-1.26-.149-1.792-.448a3.41 3.41 0 0 1-1.246-1.274c-.308-.551-.462-1.19-.462-1.918s.154-1.363.462-1.904c.318-.551.742-.975 1.274-1.274.532-.308 1.125-.462 1.778-.462.663 0 1.256.154 1.778.462.532.299.952.723 1.26 1.274.318.541.476 1.176.476 1.904s-.158 1.367-.476 1.918a3.37 3.37 0 0 1-1.26 1.274c-.532.299-1.129.448-1.792.448zm0-1.274a1.88 1.88 0 0 0 .98-.266 1.94 1.94 0 0 0 .742-.784c.187-.355.28-.793.28-1.316s-.093-.957-.28-1.302c-.177-.355-.42-.621-.728-.798a1.88 1.88 0 0 0-.98-.266 1.96 1.96 0 0 0-.994.266c-.298.177-.541.443-.728.798-.186.345-.28.779-.28 1.302s.094.961.28 1.316c.187.345.43.607.728.784s.626.266.98.266zm8.297 1.274c-.672 0-1.264-.159-1.778-.476s-.914-.751-1.204-1.302-.434-1.176-.434-1.876.145-1.321.434-1.862c.29-.551.691-.98 1.204-1.288.523-.317 1.12-.476 1.792-.476.551 0 1.032.107 1.442.322.42.215.747.518.98.91v-4.2h1.484V77h-1.33l-.154-1.078c-.224.327-.532.616-.924.868s-.896.378-1.512.378zm.266-1.288c.635 0 1.153-.219 1.554-.658.411-.439.616-1.003.616-1.694 0-.7-.205-1.265-.616-1.694-.401-.439-.919-.658-1.554-.658s-1.157.219-1.568.658c-.41.429-.616.994-.616 1.694 0 .457.094.863.28 1.218s.444.635.77.84c.336.196.714.294 1.134.294zm8.087 1.288c-.84 0-1.502-.261-1.988-.784-.476-.523-.714-1.302-.714-2.338v-3.99h1.484v3.836c0 1.344.551 2.016 1.652 2.016.551 0 1.004-.196 1.358-.588s.532-.952.532-1.68v-3.584h1.484V77h-1.316l-.112-1.218c-.214.429-.532.77-.952 1.022-.41.243-.886.364-1.428.364zm8.986 0c-.681 0-1.292-.154-1.834-.462a3.37 3.37 0 0 1-1.26-1.274c-.298-.551-.448-1.185-.448-1.904s.15-1.349.448-1.89a3.34 3.34 0 0 1 1.26-1.288c.542-.308 1.153-.462 1.834-.462.859 0 1.578.224 2.156.672a3.02 3.02 0 0 1 1.134 1.82h-1.554c-.093-.383-.298-.681-.616-.896s-.69-.322-1.12-.322a1.91 1.91 0 0 0-1.008.28c-.308.177-.555.443-.742.798-.186.345-.28.775-.28 1.288s.094.947.28 1.302c.187.345.434.611.742.798a1.91 1.91 0 0 0 1.008.28c.43 0 .803-.107 1.12-.322s.523-.518.616-.91h1.554a3 3 0 0 1-1.12 1.806c-.588.457-1.311.686-2.17.686zm7.675-.168c-.681 0-1.223-.163-1.624-.49-.401-.336-.602-.929-.602-1.778v-3.43h-1.19v-1.246h1.19l.182-1.764h1.302v1.764h1.96v1.246h-1.96v3.43c0 .383.079.649.238.798.168.14.453.21.854.21h.798V77h-1.148zM127 92a1 1 0 1 0-2 0h2zm23.707 24.707a1 1 0 0 0 0-1.414l-6.364-6.364a1 1 0 0 0-1.414 1.414l5.657 5.657-5.657 5.657a1 1 0 0 0 1.414 1.414l6.364-6.364zM125 92c0 8.67 1.728 14.999 5.864 19.136S141.33 117 150 117v-2c-8.473 0-14.144-1.701-17.721-5.279S127 100.473 127 92h-2zm7-63a1 1 0 1 1 0-2v2zm24.707 23.707a1 1 0 0 1-1.414 0l-6.364-6.364a1 1 0 0 1 1.414-1.414L156 50.586l5.657-5.657a1 1 0 0 1 1.414 1.414l-6.364 6.364zM132 27c8.67 0 14.999 1.728 19.136 5.864S157 43.33 157 52h-2c0-8.473-1.701-14.144-5.279-17.721S140.473 29 132 29v-2z"/></g><g clip-path="url(#N)"><path d="M214 18h-22v14h22V18z" fill="#000"/><path d="M214 22.667h-22V32h22v-9.333z" fill="#d00"/><path d="M214 27.334h-22V32h22v-4.667z" fill="#ffce00"/></g><g clip-path="url(#O)"><g clip-path="url(#P)"><path d="M234.864 22.363v-1.54c0-.261.213-.474.474-.474s.474.213.474.474v1.54c0 .261-.213.474-.474.474s-.474-.213-.474-.474z" fill="#00b7f9"/><path d="M238.106 16.72h-6.004c-.017 0-.033.011-.038.027-.479 1.285-.859 2.617-1.137 3.958-.263 1.317-.428 2.663-.486 4.009-.001.023.017.043.041.043h1.809a.68.68 0 0 1 .673.744c-.131 1.378-.132 2.774.01 4.153.002.024.024.042.048.037 1.093-.208 2.495-.694 3.804-1.793.204-.166.502-.137.668.062s.142.497-.057.668c-1.487 1.243-3.08 1.78-4.302 2.007-.021.004-.035.024-.032.045a20.99 20.99 0 0 0 .559 2.575c.005.018.021.031.04.031h4.369c1.068 0 1.934-.866 1.934-1.935V18.619a1.9 1.9 0 0 0-1.899-1.899zm-2.294 5.643c0 .261-.213.474-.474.474s-.474-.213-.474-.474v-1.54c0-.261.214-.474.474-.474s.474.213.474.474v1.54z" fill="#e1e1e1"/><path d="M237.437 28.627c-1.502 1.256-3.113 1.791-4.34 2.014a21.15 21.15 0 0 0 .573 2.644h-9.773c-1.048 0-1.897-.849-1.897-1.897V18.622a1.9 1.9 0 0 1 1.901-1.902h8.172a27.1 27.1 0 0 0-1.146 3.985c-.266 1.332-.431 2.691-.488 4.051h1.852a.68.68 0 0 1 .673.744c-.132 1.393-.132 2.805.014 4.198 1.1-.204 2.521-.687 3.848-1.8.204-.166.502-.137.668.062s.142.498-.057.668z" fill="#00b7f9"/><path d="M233.67 33.285c-.246-.867-.44-1.753-.573-2.644l-.109-.843c-.005-.033-.005-.066-.01-.099-.146-1.393-.146-2.805-.014-4.198a.68.68 0 0 0-.673-.744h-1.852c.057-1.36.222-2.72.488-4.051.279-1.35.663-2.691 1.146-3.985l.114-.294-.881-.346-.237.64a26.54 26.54 0 0 0-1.071 3.8 26.91 26.91 0 0 0-.516 4.487.66.66 0 0 0 .194.493c.123.128.303.204.488.204h1.829c-.114 1.369-.1 2.753.043 4.118l.009.076.114.862c.123.853.303 1.696.526 2.525l.407 1.331.9-.308-.322-1.023z" fill="#00a0d1"/><g fill="#37474f"><path d="M237.437 28.627c-1.502 1.256-3.113 1.791-4.34 2.014a8.91 8.91 0 0 1-.938.118l-.669.028c-3.037 0-5.169-1.511-5.946-2.161-.204-.171-.227-.469-.062-.668a.48.48 0 0 1 .669-.062c.696.588 2.61 1.943 5.339 1.943l.545-.019a8.34 8.34 0 0 0 .943-.123c1.1-.204 2.521-.687 3.848-1.801a.48.48 0 0 1 .668.062c.17.199.142.498-.057.668zm-10.307-5.79c-.262 0-.474-.212-.474-.474v-1.539c0-.262.212-.474.474-.474s.473.212.473.474v1.539c0 .262-.211.474-.473.474zm8.682-2.014v1.54c0 .261-.213.474-.474.474s-.474-.213-.474-.474v-1.54c0-.261.213-.474.474-.474s.474.213.474.474z"/></g></g></g><g clip-path="url(#Q)"><path d="M265.081 22.043c-.379-.912-1.148-1.897-1.75-2.208a9.07 9.07 0 0 1 .883 2.647l.002.015c-.987-2.458-2.658-3.451-4.025-5.609l-.205-.334-.096-.18a1.53 1.53 0 0 1-.13-.346c-.01-.019-.015-.022-.02-.022-.018 0-.02.002-.021.002l-.003-.002c-2.191 1.283-2.935 3.658-3.003 4.846a4.36 4.36 0 0 0-2.401.925 2.62 2.62 0 0 0-.225-.171 4.05 4.05 0 0 1-.025-2.132 6.47 6.47 0 0 0-2.1 1.623h-.004c-.345-.438-.321-1.883-.301-2.185-.103.041-.2.093-.292.155-.305.218-.59.462-.852.73-.299.303-.572.63-.816.979v.001-.002c-.56.795-.958 1.693-1.17 2.643l-.012.058-.086.545a8.68 8.68 0 0 0-.143 1.222v.045c.004 2.183.826 4.285 2.304 5.892s3.505 2.6 5.68 2.786 4.34-.452 6.069-1.785 2.894-3.266 3.267-5.417l.04-.338a8.98 8.98 0 0 0-.566-4.382l.001.001zm-10.055 6.829l.121.059.006.004-.127-.063zm9.19-6.373v-.008l.002.009-.002-.001z" fill="url(#B)"/><use xlink:href="#R" fill="url(#C)"/><use xlink:href="#R" fill="url(#D)"/><path d="M260.84 23.067l.054.04c-.219-.389-.491-.744-.81-1.057-2.712-2.712-.71-5.879-.373-6.041l.003-.005c-2.191 1.283-2.935 3.658-3.002 4.846l.306-.016a4.4 4.4 0 0 1 2.212.601c.671.392 1.227.955 1.61 1.631h0z" fill="url(#E)"/><use xlink:href="#S" fill="url(#F)"/><use xlink:href="#S" fill="url(#G)"/><path d="M253.903 21.487l.18.12a4.04 4.04 0 0 1-.024-2.132c-.805.39-1.52.942-2.1 1.623.042-.001 1.308-.024 1.944.39z" fill="url(#H)"/><path d="M248.364 25.494c.674 3.977 4.279 7.016 8.371 7.131 3.789.107 6.208-2.092 7.208-4.236a7.9 7.9 0 0 0 .271-5.888v-.008l.002.006c.309 2.021-.719 3.977-2.326 5.303l-.005.011c-3.13 2.55-6.126 1.538-6.732 1.125l-.127-.063c-1.825-.872-2.579-2.534-2.417-3.961a2.24 2.24 0 0 1-2.067-1.3c.48-.293 1.026-.459 1.587-.482a3.29 3.29 0 0 1 1.621.353c1.033.469 2.208.515 3.275.129-.004-.071-1.522-.675-2.114-1.258-.316-.312-.466-.462-.599-.575a2.64 2.64 0 0 0-.225-.171l-.18-.12c-.637-.414-1.902-.391-1.944-.39h-.004c-.346-.438-.321-1.883-.302-2.185-.102.041-.199.093-.291.155a6.35 6.35 0 0 0-.852.73c-.3.302-.574.628-.819.976v.001-.002a7.37 7.37 0 0 0-1.171 2.643c-.004.018-.314 1.373-.161 2.075h.001z" fill="url(#I)"/><path d="M260.084 22.05a4.76 4.76 0 0 1 .81 1.058l.131.107c1.978 1.823.941 4.4.864 4.583 1.607-1.324 2.634-3.282 2.325-5.303-.986-2.46-2.66-3.453-4.024-5.611l-.206-.334-.096-.18a1.63 1.63 0 0 1-.13-.346c-.009-.019-.014-.022-.02-.022-.017 0-.019.002-.02.002-.344.163-2.345 3.332.367 6.042l-.001.004z" fill="url(#J)"/><path d="M261.025 23.216a1.79 1.79 0 0 0-.131-.107l-.054-.04c-.614-.425-1.364-.607-2.104-.511 3.138 1.569 2.296 6.971-2.052 6.768a3.88 3.88 0 0 1-1.135-.219l-.257-.105-.147-.07.006.004c.607.414 3.602 1.425 6.733-1.125l.005-.011c.078-.182 1.114-2.759-.865-4.583l.001-.001z" fill="url(#K)"/><path d="M253.091 26.074s.402-1.501 2.883-1.501c.268 0 1.035-.748 1.049-.965-1.067.386-2.242.34-3.275-.129a3.29 3.29 0 0 0-3.207.129 2.23 2.23 0 0 0 .84.956 2.24 2.24 0 0 0 1.226.344c-.162 1.426.592 3.088 2.417 3.961l.121.059c-1.065-.55-1.945-1.591-2.054-2.854v-.001z" fill="url(#L)"/><path d="M265.081 22.043c-.379-.912-1.148-1.897-1.75-2.208a9.07 9.07 0 0 1 .883 2.647l.002.015c-.986-2.458-2.658-3.451-4.025-5.609l-.205-.334-.096-.18a1.53 1.53 0 0 1-.13-.346c-.01-.019-.015-.022-.02-.022-.018 0-.02.002-.021.002l-.003-.002c-2.191 1.283-2.935 3.658-3.002 4.846l.306-.016a4.4 4.4 0 0 1 2.212.601c.671.392 1.227.955 1.61 1.631a3.01 3.01 0 0 0-2.103-.511c3.137 1.569 2.295 6.971-2.053 6.768a3.88 3.88 0 0 1-1.135-.219l-.256-.105-.147-.07.006.004-.127-.063.121.059c-1.066-.55-1.945-1.591-2.055-2.854 0 0 .403-1.501 2.883-1.501.268 0 1.036-.748 1.049-.965-.003-.071-1.521-.675-2.113-1.258l-.6-.575a2.62 2.62 0 0 0-.225-.171 4.05 4.05 0 0 1-.024-2.132c-.805.39-1.52.942-2.1 1.623h-.004c-.346-.438-.322-1.883-.302-2.185-.102.041-.2.093-.291.155-.305.218-.591.462-.853.73a7.66 7.66 0 0 0-.815.979v.001-.002a7.37 7.37 0 0 0-1.171 2.642l-.011.058-.101.55c-.067.402-.11.808-.129 1.216v.045c.004 2.183.826 4.285 2.304 5.892s3.505 2.601 5.68 2.786 4.341-.452 6.069-1.785 2.895-3.266 3.268-5.417l.039-.338a8.97 8.97 0 0 0-.566-4.382h.001zm-.866.448l.002.009-.002-.009z" fill="url(#M)"/></g><defs><radialGradient id="A" cx="0" cy="0" r="1" gradientTransform="translate(141 72) rotate(90) scale(72 141)" xlink:href="#T"><stop stop-color="#fff" stop-opacity=".15"/><stop offset="1" stop-color="#fff" stop-opacity="0"/></radialGradient><linearGradient id="B" x1="263.926" y1="18.792" x2="249.443" y2="32.765" xlink:href="#T"><stop offset=".048" stop-color="#fff44f"/><stop offset=".111" stop-color="#ffe847"/><stop offset=".225" stop-color="#ffc830"/><stop offset=".368" stop-color="#ff980e"/><stop offset=".401" stop-color="#ff8b16"/><stop offset=".462" stop-color="#ff672a"/><stop offset=".534" stop-color="#ff3647"/><stop offset=".705" stop-color="#e31587"/></linearGradient><radialGradient id="C" cx="0" cy="0" r="1" gradientTransform="translate(263.366 18.0298) scale(18.1868)" xlink:href="#T"><stop offset=".129" stop-color="#ffbd4f"/><stop offset=".186" stop-color="#ffac31"/><stop offset=".247" stop-color="#ff9d17"/><stop offset=".283" stop-color="#ff980e"/><stop offset=".403" stop-color="#ff563b"/><stop offset=".467" stop-color="#ff3750"/><stop offset=".71" stop-color="#f5156c"/><stop offset=".782" stop-color="#eb0878"/><stop offset=".86" stop-color="#e50080"/></radialGradient><radialGradient id="D" cx="0" cy="0" r="1" gradientTransform="matrix(18.1868,0,0,18.1868,256.613,25.4576)" xlink:href="#T"><stop offset=".3" stop-color="#960e18"/><stop offset=".351" stop-color="#b11927" stop-opacity=".74"/><stop offset=".435" stop-color="#db293d" stop-opacity=".343"/><stop offset=".497" stop-color="#f5334b" stop-opacity=".094"/><stop offset=".53" stop-color="#ff3750" stop-opacity="0"/></radialGradient><radialGradient id="E" cx="0" cy="0" r="1" gradientTransform="translate(258.864 13.9781) scale(13.1742)" xlink:href="#T"><stop offset=".132" stop-color="#fff44f"/><stop offset=".252" stop-color="#ffdc3e"/><stop offset=".506" stop-color="#ff9d12"/><stop offset=".526" stop-color="#ff980e"/></radialGradient><radialGradient id="F" cx="0" cy="0" r="1" gradientTransform="translate(254.587 30.1842) scale(8.659)" xlink:href="#T"><stop offset=".353" stop-color="#3a8ee6"/><stop offset=".472" stop-color="#5c79f0"/><stop offset=".669" stop-color="#9059ff"/><stop offset="1" stop-color="#c139e6"/></radialGradient><radialGradient id="G" cx="0" cy="0" r="1" gradientTransform="matrix(4.4631504507982,-1.0790571259853747,1.2633062230722247,5.225233774210201,257.493,23.8963)" xlink:href="#T"><stop offset=".206" stop-color="#9059ff" stop-opacity="0"/><stop offset=".278" stop-color="#8c4ff3" stop-opacity=".064"/><stop offset=".747" stop-color="#7716a8" stop-opacity=".45"/><stop offset=".975" stop-color="#6e008b" stop-opacity=".6"/></radialGradient><radialGradient id="H" cx="0" cy="0" r="1" gradientTransform="translate(256.388 17.3543) scale(6.23034)" xlink:href="#T"><stop stop-color="#ffe226"/><stop offset=".121" stop-color="#ffdb27"/><stop offset=".295" stop-color="#ffc82a"/><stop offset=".502" stop-color="#ffa930"/><stop offset=".732" stop-color="#ff7e37"/><stop offset=".792" stop-color="#ff7139"/></radialGradient><radialGradient id="I" cx="0" cy="0" r="1" gradientTransform="translate(261.34 13.303) scale(26.5825)" xlink:href="#T"><stop offset=".113" stop-color="#fff44f"/><stop offset=".456" stop-color="#ff980e"/><stop offset=".622" stop-color="#ff5634"/><stop offset=".716" stop-color="#ff3647"/><stop offset=".904" stop-color="#e31587"/></radialGradient><radialGradient id="J" cx="0" cy="0" r="1" gradientTransform="translate(259.13 14.7769) rotate(83.976) scale(19.48 12.7846)" xlink:href="#T"><stop stop-color="#fff44f"/><stop offset=".06" stop-color="#ffe847"/><stop offset=".168" stop-color="#ffc830"/><stop offset=".304" stop-color="#ff980e"/><stop offset=".356" stop-color="#ff8b16"/><stop offset=".455" stop-color="#ff672a"/><stop offset=".57" stop-color="#ff3647"/><stop offset=".737" stop-color="#e31587"/></radialGradient><radialGradient id="K" cx="0" cy="0" r="1" gradientTransform="translate(256.388 19.6052) scale(16.5932 16.5932)" xlink:href="#T"><stop offset=".137" stop-color="#fff44f"/><stop offset=".48" stop-color="#ff980e"/><stop offset=".592" stop-color="#ff5634"/><stop offset=".655" stop-color="#ff3647"/><stop offset=".904" stop-color="#e31587"/></radialGradient><radialGradient id="L" cx="0" cy="0" r="1" gradientTransform="translate(260.665 20.5056) scale(18.1621)" xlink:href="#T"><stop offset=".094" stop-color="#fff44f"/><stop offset=".231" stop-color="#ffe141"/><stop offset=".509" stop-color="#ffaf1e"/><stop offset=".626" stop-color="#ff980e"/></radialGradient><linearGradient id="M" x1="263.751" y1="18.718" x2="251.429" y2="31.041" xlink:href="#T"><stop offset=".167" stop-color="#fff44f" stop-opacity=".8"/><stop offset=".266" stop-color="#fff44f" stop-opacity=".634"/><stop offset=".489" stop-color="#fff44f" stop-opacity=".217"/><stop offset=".6" stop-color="#fff44f" stop-opacity="0"/></linearGradient><clipPath id="N"><rect x="192" y="18" width="22" height="14" rx="2" fill="#fff"/></clipPath><clipPath id="O"><path fill="#fff" transform="translate(222 16)" d="M0 0h18v18H0z"/></clipPath><clipPath id="P"><path fill="#fff" transform="translate(222 16.72)" d="M0 0h18v16.565H0z"/></clipPath><clipPath id="Q"><path fill="#fff" transform="translate(248 16)" d="M0 0h18v18H0z"/></clipPath><path id="R" d="M265.081 22.043c-.379-.912-1.148-1.897-1.75-2.208a9.07 9.07 0 0 1 .883 2.647v.008l.002.009a7.9 7.9 0 0 1-.272 5.888c-1 2.145-3.419 4.344-7.207 4.236-4.092-.116-7.698-3.153-8.371-7.131-.123-.627 0-.945.062-1.455-.084.396-.131.799-.14 1.204v.045a8.72 8.72 0 0 0 7.983 8.677c2.176.185 4.341-.452 6.07-1.785s2.894-3.266 3.267-5.417l.039-.338a8.97 8.97 0 0 0-.565-4.382l-.001.001z"/><path id="S" d="M257.023 23.61c-.015.217-.781.965-1.049.965-2.481 0-2.884 1.501-2.884 1.501.11 1.264.991 2.305 2.055 2.854l.147.07.256.105c.366.129.748.203 1.136.219 4.348.204 5.19-5.199 2.052-6.768.74-.096 1.49.086 2.104.511-.384-.676-.939-1.239-1.611-1.631a4.4 4.4 0 0 0-2.211-.601c-.104 0-.205.009-.307.015a4.37 4.37 0 0 0-2.402.925c.133.113.284.263.6.575.592.583 2.11 1.187 2.113 1.258l.001.002z"/><linearGradient id="T" gradientUnits="userSpaceOnUse"/></defs></svg>