<svg xmlns="http://www.w3.org/2000/svg" width="504" height="264" fill="#fff"><path d="M47.98 72c0 9.508 5.525 17.725 13.538 21.618L50.06 62.224A23.93 23.93 0 0 0 47.98 72zm40.237-1.212c0-2.969-1.066-5.025-1.981-6.625-1.218-1.979-2.359-3.654-2.359-5.633 0-2.208 1.675-4.264 4.034-4.264.106 0 .208.013.311.019a23.93 23.93 0 0 0-16.221-6.306c-8.392 0-15.775 4.305-20.07 10.827l1.546.029c2.513 0 6.402-.305 6.402-.305 1.295-.076 1.447 1.825.154 1.979 0 0-1.301.153-2.749.229l8.747 26.019 5.257-15.766-3.742-10.254c-1.294-.076-2.519-.229-2.519-.229-1.294-.076-1.143-2.055.152-1.979 0 0 3.967.305 6.327.305 2.512 0 6.402-.305 6.402-.305 1.296-.076 1.448 1.825.154 1.979 0 0-1.304.153-2.749.229l8.681 25.822 2.396-8.007c1.038-3.322 1.829-5.709 1.829-7.765zm-15.795 3.313l-7.207 20.942a24.01 24.01 0 0 0 6.786.978c2.797 0 5.48-.483 7.977-1.362a2.1 2.1 0 0 1-.171-.331L72.423 74.1zm20.656-13.625a18.43 18.43 0 0 1 .162 2.47c0 2.437-.455 5.178-1.826 8.604l-7.337 21.214c7.141-4.164 11.945-11.901 11.945-20.763a23.89 23.89 0 0 0-2.943-11.525zM72.001 44C56.562 44 44 56.561 44 72s12.562 28.001 28.001 28.001S100.003 87.441 100.003 72 87.44 44 72.001 44zm0 54.718C57.27 98.718 45.284 86.732 45.284 72s11.985-26.716 26.717-26.716S98.717 57.269 98.717 72 86.732 98.718 72.001 98.718zM173 48h37.333v18.667h-18.666L173 48zm0 18.667h18.667l18.666 18.667H173V66.667zm0 18.667h18.667V104L173 85.333z"/><path d="M342.247 55l-17.869 35.368h-16.784l7.478-14.658h-.335c-6.17 8.109-15.374 13.447-28.49 14.658V75.913s8.39-.502 13.323-5.752h-13.323V55h14.973v12.469l.336-.001L307.675 55h11.324v12.39h.336L325.683 55h16.564zm114.379 2.564a.82.82 0 0 1 .028.209v10.972c0 .141-.037.279-.108.401a.8.8 0 0 1-.294.293l-9.209 5.302V85.25a.8.8 0 0 1-.4.694L427.42 97.01c-.044.025-.092.041-.14.058-.018.006-.035.017-.054.022-.134.035-.276.035-.41 0-.022-.006-.042-.018-.063-.026-.044-.016-.09-.03-.132-.054l-19.219-11.066a.8.8 0 0 1-.294-.293c-.071-.122-.108-.26-.108-.401V52.334a.82.82 0 0 1 .028-.21c.006-.023.02-.044.028-.067.015-.042.029-.085.051-.124.015-.026.037-.047.055-.071.023-.032.044-.065.071-.093s.053-.04.079-.06.055-.05.088-.069l9.611-5.533c.122-.07.26-.107.4-.107s.278.037.4.107l9.61 5.533h.002c.032.02.059.045.088.068s.055.038.078.06c.028.029.048.062.072.094.017.024.04.045.054.071.023.04.036.082.052.124.008.023.022.044.028.068a.82.82 0 0 1 .028.209v20.559l8.008-4.611v-10.51a.81.81 0 0 1 .028-.208c.007-.024.02-.045.028-.068.016-.042.03-.085.052-.124.015-.026.037-.047.054-.071.024-.032.044-.065.072-.093s.052-.04.078-.06.056-.05.088-.069l9.612-5.533c.122-.07.26-.107.4-.107s.278.037.4.107l9.61 5.533c.034.02.06.045.09.068l.077.06c.028.029.048.062.072.094.018.024.04.045.054.071.023.039.036.082.052.124.009.023.022.044.028.068zm-1.574 10.718v-9.124l-3.363 1.936-4.646 2.675v9.124l8.01-4.611h-.001zm-9.61 16.505v-9.13l-4.57 2.61-13.05 7.448v9.216l17.62-10.144zm-36.84-31.068v31.068L426.22 94.93v-9.214l-9.204-5.209-.003-.002-.004-.002c-.031-.018-.057-.044-.086-.066s-.054-.036-.076-.058l-.002-.003c-.026-.025-.044-.056-.066-.084s-.044-.05-.06-.078l-.001-.003c-.018-.03-.029-.066-.042-.1s-.03-.058-.038-.09c-.01-.038-.012-.079-.016-.118-.004-.03-.012-.06-.012-.09v-.002V58.33l-4.645-2.676-3.363-1.935zm8.81-5.994l-8.007 4.609 8.005 4.609 8.006-4.61-8.006-4.608h.002zm4.164 28.764l4.645-2.674V53.719l-3.363 1.936-4.646 2.675v20.096l3.364-1.937zm24.667-23.325l-8.006 4.609 8.006 4.609 8.005-4.61-8.005-4.608zm-.801 10.605l-4.646-2.675-3.363-1.936v9.124l4.645 2.674 3.364 1.937v-9.124zM427.02 84.33l11.743-6.704 5.87-3.35-8-4.606-9.211 5.303-8.395 4.833 7.993 4.524z" fill-rule="evenodd"/><path d="M38.037 186.046c-.156 0-.195-.078-.117-.195l.818-1.051c.078-.117.273-.195.428-.195h13.905c.156 0 .195.117.117.234l-.662 1.012c-.078.117-.273.234-.389.234l-14.1-.039zm-5.881 3.582c-.156 0-.195-.078-.117-.195l.818-1.051c.078-.117.273-.195.428-.195h17.761c.156 0 .234.117.195.234l-.312.934c-.039.156-.195.234-.35.234l-18.424.039zm9.426 3.582c-.156 0-.195-.117-.117-.234l.545-.973c.078-.117.234-.234.389-.234h7.79c.156 0 .234.117.234.273l-.078.934c0 .156-.156.273-.273.273l-8.491-.039z"/><path fill-rule="evenodd" d="M78.379 186.294l-2.91.764-.064.017c-.523.141-.578.156-1.065-.406-.584-.662-1.013-1.09-1.831-1.48-2.454-1.207-4.83-.856-7.05.584-2.649 1.713-4.012 4.244-3.973 7.398.039 3.114 2.181 5.684 5.258 6.112 2.649.351 4.869-.584 6.622-2.569l.763-1.033.288-.408H66.9c-.818 0-1.013-.506-.74-1.168l1.986-4.244c.117-.233.389-.623.974-.623h12.535c.563-1.782 1.476-3.467 2.695-5.061 2.843-3.738 6.271-5.684 10.906-6.502 3.973-.701 7.712-.311 11.101 1.986 3.077 2.102 4.986 4.944 5.492 8.682.662 5.256-.857 9.539-4.479 13.198-2.571 2.609-5.726 4.244-9.349 4.984-.691.128-1.382.188-2.062.248l-1.054.102c-3.544-.078-6.777-1.09-9.504-3.426-1.918-1.657-3.239-3.693-3.895-6.064-.456.92-1 1.8-1.636 2.638-2.804 3.699-6.466 5.996-11.101 6.619-3.817.506-7.362-.234-10.478-2.57-2.882-2.18-4.518-5.061-4.947-8.643-.506-4.244.74-8.059 3.311-11.408 2.766-3.62 6.427-5.918 10.906-6.735 3.661-.662 7.167-.234 10.322 1.908 2.064 1.362 3.545 3.231 4.518 5.489.234.351.078.545-.389.662l-3.634.949zm25.77 4.436l.027.416c-.195 3.348-1.87 5.84-4.947 7.436-2.064 1.052-4.207 1.168-6.349.234-2.804-1.246-4.285-4.322-3.584-7.358.857-3.66 3.194-5.957 6.816-6.775 3.7-.856 7.245 1.324 7.946 5.178.055.276.071.552.09.869z"/><path d="M191.789 183.401l-6.467-11.201h-9.257l15.724 27.235 15.724-27.235h-9.257l-6.467 11.201zm17.877-11.201l-17.877 30.964-17.877-30.964h-10.123l28 48.5 28-48.5h-10.123zM312 198.175c3.15 0 5.704-2.554 5.704-5.704s-2.554-5.704-5.704-5.704-5.704 2.554-5.704 5.704 2.554 5.704 5.704 5.704z"/><path d="M306.18 182.39l-3.096 4.933-2.724 5.148 2.724 5.148 3.096 4.933 5.82.215 5.82-.215 3.096-4.933 2.724-5.148-2.724-5.148-3.096-4.933-5.82-.215-5.82.215zm-3.569.356l-1.937 3.186-1.791 3.27-2.015-5.468 5.743-.988zm5.662-3.269l3.727-.084 3.727.084-3.727-4.479-3.727 4.479zm1.786-6.479c-1.833 1.982-3.658 4.242-5.417 6.729-3.033.28-5.902.731-8.535 1.326l-.712-3.414c-.453-2.829-.464-5.214-.076-7.027s1.135-2.903 2.072-3.444 2.254-.644 4.019-.073 3.824 1.773 6.047 3.58l2.602 2.323zm3.882 0c1.833 1.982 3.658 4.242 5.417 6.729 3.033.28 5.902.731 8.535 1.326l.712-3.414c.453-2.829.464-5.214.076-7.027s-1.135-2.903-2.072-3.444-2.254-.644-4.019-.073-3.824 1.773-6.047 3.58l-2.602 2.323zm16.649 8.74l.762-3.659c.485-3.025.535-5.782.05-8.049s-1.545-4.2-3.402-5.272-4.06-1.024-6.266-.31-4.569 2.135-6.946 4.067l-2.788 2.49-2.788-2.49c-2.377-1.932-4.74-3.353-6.946-4.067s-4.409-.762-6.266.31-2.917 3.005-3.402 5.272-.435 5.024.05 8.049l.762 3.659-3.55 1.169c-2.862 1.093-5.275 2.428-6.996 3.982S280 190.326 280 192.471s1.144 4.028 2.864 5.582 4.134 2.889 6.996 3.982l3.55 1.169-.762 3.659c-.485 3.025-.535 5.782-.05 8.049s1.545 4.2 3.402 5.272 4.06 1.024 6.266.31 4.569-2.135 6.946-4.067l2.788-2.49 2.788 2.49c2.377 1.932 4.74 3.353 6.946 4.067s4.409.762 6.266-.31 2.917-3.005 3.402-5.272.435-5.024-.05-8.049l-.762-3.659 3.55-1.169c2.862-1.093 5.275-2.429 6.996-3.982s2.864-3.438 2.864-5.582-1.144-4.028-2.864-5.582-4.134-2.889-6.996-3.982l-3.55-1.169zm-3.458 1.996l-5.743-.988 1.937 3.186 1.791 3.27 2.015-5.468zm-.416 8.737c1.274-2.767 2.318-5.477 3.118-8.055l3.313 1.091c2.677 1.022 4.747 2.205 6.124 3.448s1.946 2.433 1.946 3.516-.569 2.273-1.946 3.516-3.447 2.426-6.124 3.448l-3.313 1.091c-.8-2.578-1.844-5.288-3.118-8.055zm-1.599 3.269l-1.791 3.27-1.937 3.186 5.743-.989-2.015-5.467zm2.776 8.148c-2.633.596-5.502 1.047-8.535 1.327-1.759 2.487-3.584 4.747-5.417 6.728l2.602 2.324c2.223 1.807 4.283 3.009 6.047 3.58s3.081.468 4.019-.073 1.684-1.63 2.072-3.444.377-4.198-.076-7.027l-.712-3.415zM312 209.944l3.727-4.479-3.727.084c-1.26 0-2.504-.028-3.727-.084l3.727 4.479zm-9.389-7.748l-1.937-3.186-1.791-3.27-2.015 5.467 5.743.989zm-6.504 1.692c2.633.596 5.502 1.047 8.535 1.327 1.76 2.487 3.584 4.747 5.417 6.728l-2.602 2.324c-2.223 1.807-4.283 3.009-6.047 3.58s-3.081.468-4.019-.073-1.684-1.63-2.072-3.444-.377-4.198.076-7.027l.712-3.415zm-1.941-3.362l-3.313-1.091c-2.677-1.022-4.747-2.205-6.124-3.448s-1.946-2.433-1.946-3.516.569-2.273 1.946-3.516 3.447-2.426 6.124-3.448l3.313-1.091c.8 2.578 1.844 5.288 3.118 8.055-1.274 2.767-2.318 5.477-3.118 8.055zM460 192c0 15.464-12.536 28-28 28s-28-12.536-28-28 12.536-28 28-28 28 12.536 28 28zm-50 .4c0 5.4 2.2 11 6.4 15.2s9.8 6.2 15.4 6.4L410 192.4zm.6-5.2l26.2 26.2c9.8-2.2 17.2-11 17.2-21.4h-14v4h9.6c-1.4 6-5.8 11-11.6 13l-23-23c2.6-7 9.2-12 17-12 6 0 11.4 3 14.8 7.6l3-2.6c-4-5.4-10.4-9-17.8-9-10.4 0-19.2 7.4-21.4 17.2z" fill-rule="evenodd"/></svg>
