<svg xmlns="http://www.w3.org/2000/svg" width="282" height="144" fill="none"><path fill="url(#A)" d="M0 0h282v144H0z"/><path d="M80 61a1 1 0 1 0 0 2v-2zm58-18a1 1 0 0 0-1-1h-9a1 1 0 1 0 0 2h8v8a1 1 0 1 0 2 0v-9zM80 63c29.212 0 47.485-9.071 57.707-19.293l-1.414-1.414C126.515 52.071 108.788 61 80 61v2zm0 20a1 1 0 1 1 0-2v2zm58 18a1 1 0 0 1-1 1h-9a1 1 0 1 1 0-2h8v-8a1 1 0 1 1 2 0v9zM80 81c29.212 0 47.485 9.071 57.707 19.293l-1.414 1.414C126.515 91.929 108.788 83 80 83v-2zm0-10a1 1 0 1 0 0 2v-2zm107.207 1.707a1 1 0 0 0 0-1.414l-6.364-6.364a1 1 0 0 0-1.414 1.414L185.086 72l-5.657 5.657a1 1 0 0 0 1.414 1.414l6.364-6.364zM80 73h.147.148.148.149.15.151.152.152.153.154.154.155.156.157.157.158.159.16.16.161.162.162.163.164.165.165.166.167.167.168.169.169.17.171.172.172.173.173.174.175.175.176.177.177.178.179.179.18.181.181.182.182.183.184.184.185.185.186.187.187.188.188.189.19.19.191.191.192.192.193.194.194.195.195.196.196.197.197.198.198.199.199.2.2.201.201.202.203.203.203.204.204.205.205.206.206.207.207.208.208.209.209.21.21.211.211.212.212.212.213.213.214.214.215.215.215.216.216.217.216.218.218.218.218.219.22.219.22.221.221.221.222.221.223.222.223.224.223.224.225.225.225.225.226.226.226.227.227.227.228.228.228.228.229.229.23.229.23.23.231.231.231.231.232.232.232.232.233.233.233.233.234.233.235.234.234.235.235.235.236.235.236.236.236.237.236.237.237.237.238.237.238.238.238.238.239.238.239.239.239.239.239.24.239.24.24.24.24.24.241.24.241.24.241.241.241.241.241.242.241.241.242.242.241.242.242.242.242.242.242.242.242.242.243.242.242.243.242.243.242.243.242.243.242.243.242.243.242.243.243.242.243.242.243.242.243.242.242.243.242.242.242.243.242.242.242.242.242.242.241.242.242.241.242.241.241.241.241.241.241.241.241.24.241.24.24.24.24.24.24.24.239.239.239.239.239.239.238.239.238.238.238.238.237.238.237.237.236.237.236.237.236.235.236.235.235.235.235.235.234.234.234.233.234.233.232.233.232.232.232.232.231.231.231.23.231.229.23.229.229.229.229.228.228.227.228.226.227.226.226.226.225.225.225.224.224.224.223.223.223.222.222.221.222.22.221.22.219.22.219.218.218.218.217.217.217.216.215.216.215.214.214.214.213.213.212.212.211.211.211.21.209.209.209.208.208.208.206.207.206.205.205.204.204.204.203.202.202.201.201.201.2.199.199.198.198.197.197.196.196.195.194.194.194.193.192.192.191.19.19.19.189.188.188.187.186.186.186.184.184.184.183.182.182.181.18.18.179.179.178.177.177.176.175.174.174.174.173.172.171.171.17.169.169.168.167.166.166.165.165.164.163.162.162.161.16.16.158.158.158.156.156.155.155.153.153.152.152.15.15.149.148.148.147.146.145.144.144.143.142.141.14.14.139.138.137.136.136.135.134.133.132v-2h-.132-.133-.134-.135-.136-.136-.137-.138-.139-.14-.14-.141-.142-.143-.144-.144-.145-.146-.147-.148-.148-.149-.15-.15-.152-.152-.153-.153-.155-.155-.156-.156-.158-.158-.158-.16-.16-.161-.162-.162-.163-.164-.165-.165-.166-.166-.167-.168-.169-.169-.17-.171-.171-.172-.173-.174-.174-.174-.175-.176-.177-.177-.178-.179-.179-.18-.18-.181-.182-.182-.183-.184-.184-.184-.186-.186-.186-.187-.188-.188-.189-.19-.19-.19-.191-.192-.192-.193-.194-.194-.194-.195-.196-.196-.197-.197-.198-.198-.199-.199-.2-.201-.201-.201-.202-.202-.203-.204-.204-.204-.205-.205-.206-.207-.206-.208-.208-.208-.209-.209-.209-.21-.211-.211-.211-.212-.212-.213-.213-.214-.214-.214-.215-.216-.215-.216-.217-.217-.217-.218-.218-.218-.219-.22-.219-.22-.221-.22-.222-.221-.222-.222-.223-.223-.223-.224-.224-.224-.225-.225-.225-.226-.226-.226-.227-.226-.228-.227-.228-.228-.229-.229-.229-.229-.23-.229-.231-.23-.231-.231-.231-.232-.232-.232-.232-.233-.232-.233-.234-.233-.234-.234-.234-.235-.235-.235-.235-.235-.236-.235-.236-.237-.236-.237-.236-.237-.237-.238-.237-.238-.238-.238-.238-.239-.238-.239-.239-.239-.239-.239-.239-.24-.24-.24-.24-.24-.24-.24-.241-.24-.241-.241-.241-.241-.241-.241-.241-.241-.242-.241-.242-.242-.241-.242-.242-.242-.242-.242-.242-.243-.242-.242-.242-.243-.242-.242-.243-.242-.243-.242-.243-.242-.243-.243-.242-.243-.242-.243-.242-.243-.242-.243-.242-.243-.242-.243-.242-.242-.243-.242-.242-.242-.242-.242-.242-.242-.242-.242-.241-.242-.242-.241-.241-.242-.241-.241-.241-.241-.241-.24-.241-.24-.241-.24-.24-.24-.24-.24-.239-.24-.239-.239-.239-.239-.239-.238-.239-.238-.238-.238-.238-.237-.238-.237-.237-.237-.236-.237-.236-.236-.236-.235-.236-.235-.235-.235-.234-.234-.235-.233-.234-.233-.233-.233-.233-.232-.232-.232-.232-.231-.231-.231-.231-.23-.23-.229-.23-.229-.229-.228-.228-.228-.228-.227-.227-.227-.226-.226-.226-.225-.225-.225-.225-.224-.223-.224-.223-.222-.223-.221-.222-.221-.221-.221-.22-.219-.22-.219-.218-.218-.218-.218-.216-.217-.216-.216-.215-.215-.215-.214-.214-.213-.213-.212-.212-.212-.211-.211-.21-.21-.209-.209-.208-.208-.207-.207-.206-.206-.205-.205-.204-.204-.203-.203-.203-.202-.201-.201-.2-.2-.199-.199-.198-.198-.197-.197-.196-.196-.195-.195-.194-.194-.193-.192-.192-.191-.191-.19-.19-.189-.188-.188-.187-.187-.186-.185-.185-.184-.184-.183-.182-.182-.181-.181-.18-.179-.179-.178-.177-.177-.176-.175-.175-.174-.173-.173-.172-.172-.171-.17-.169-.169-.168-.167-.167-.166-.165-.165-.164-.163-.162-.162-.161-.16-.16-.159-.158-.157-.157-.156-.155-.154-.154-.153-.152-.152-.151-.15-.149-.148-.148H80v2z" fill="#6ece9d"/><path d="M146.433 27.287a4.201 4.201 0 1 1-4.201-4.204h4.201v4.204zm2.1 0a4.201 4.201 0 1 1 8.401 0v10.51a4.201 4.201 0 1 1-8.401 0v-10.51zm4.2-16.879a4.2 4.2 0 1 1 4.201-4.204v4.204h-4.201zm0 2.134a4.204 4.204 0 1 1 0 8.408H142.2a4.204 4.204 0 1 1 0-8.408h10.533zm16.834 4.203a4.201 4.201 0 1 1 4.201 4.204h-4.201v-4.204zm-2.1 0a4.201 4.201 0 1 1-8.401 0V6.204a4.201 4.201 0 1 1 8.401 0v10.541zm-4.2 16.847a4.204 4.204 0 1 1 0 8.408 4.2 4.2 0 0 1-4.201-4.204v-4.204h4.201zm0-2.102a4.204 4.204 0 1 1 0-8.408H173.8a4.204 4.204 0 1 1 0 8.408h-10.533zM196.04 87l10.32-28H211l10.24 28h-4.48l-2.4-6.84h-11.44l-2.4 6.84h-4.48zm8.08-10.2h9.04l-4.52-12.76-4.52 12.76zM223.545 87V59h9.8c2.186 0 4 .373 5.44 1.12 1.44.72 2.506 1.72 3.2 3 .72 1.253 1.08 2.68 1.08 4.28 0 1.52-.347 2.92-1.04 4.2-.667 1.253-1.72 2.253-3.16 3s-3.28 1.12-5.52 1.12h-5.56V87h-4.24zm4.24-14.76h5.36c2 0 3.426-.427 4.28-1.28.88-.88 1.32-2.067 1.32-3.56 0-1.547-.44-2.747-1.32-3.6-.854-.88-2.28-1.32-4.28-1.32h-5.36v9.76zM245.656 87V59h4.24v28h-4.24zm-79.304 33.903c.292-.034.571-.036.827 0 .149-.341.175-.929.041-1.569-.199-.952-.468-1.529-1.024-1.439s-.576.779-.377 1.731c.111.536.31.993.533 1.277zm-4.777.753c.399.175.643.29.738.189.062-.063.043-.183-.052-.338-.196-.32-.601-.646-1.029-.828-.877-.377-1.922-.251-2.728.329-.267.194-.52.465-.484.628.012.054.052.093.146.106.218.025.986-.362 1.869-.416.626-.039 1.142.155 1.54.33zm-.8.457c-.518.082-.805.253-.988.412-.157.137-.253.289-.253.395 0 .05.023.08.039.094.023.022.052.033.085.033.118 0 .379-.104.379-.104.722-.258 1.197-.227 1.669-.174.261.03.383.046.441-.044.016-.026.037-.081-.015-.165-.119-.199-.643-.532-1.357-.447zm3.963 1.677c.353.173.74.105.866-.152s-.058-.604-.409-.777-.739-.105-.865.152.057.604.408.777zm2.263-1.977c-.285-.005-.522.308-.529.7s.221.714.507.719.522-.309.529-.701-.221-.714-.507-.718zm-19.206 7.07c-.072-.09-.188-.062-.301-.036-.078.018-.168.04-.266.038-.211-.003-.389-.095-.488-.248-.131-.2-.123-.498.021-.84l.067-.153c.229-.515.614-1.375.183-2.196-.325-.618-.854-1.003-1.489-1.083-.611-.077-1.24.148-1.64.591-.632.697-.732 1.648-.609 1.982.044.123.114.157.167.164.107.014.266-.064.365-.332l.028-.086c.044-.142.127-.407.263-.618a1.12 1.12 0 0 1 .717-.494c.304-.066.615-.007.875.163.443.291.614.833.425 1.35-.098.268-.257.781-.222 1.202.07.853.594 1.194 1.066 1.231.457.018.777-.24.859-.427.046-.111.005-.178-.021-.208zm26.421-1.558l-.288-.976c-.156-.5-.316-.852-.316-.852.625-.938.636-1.776.553-2.249-.088-.588-.333-1.089-.828-1.607s-1.502-1.048-2.921-1.447l-.745-.207c-.003-.031-.039-1.754-.072-2.495-.022-.536-.07-1.37-.328-2.193-.308-1.114-.847-2.087-1.518-2.711 1.853-1.92 3.009-4.037 3.007-5.853-.004-3.491-4.293-4.547-9.577-2.359l-1.12.475-2.054-2.012c-6.023-5.255-24.859 15.683-18.836 20.768l1.316 1.115c-.342.886-.475 1.898-.366 2.987.14 1.4.862 2.742 2.033 3.777 1.11.985 2.57 1.607 3.988 1.605 2.343 5.401 7.697 8.714 13.976 8.9 6.734.201 12.388-2.961 14.757-8.637.155-.398.813-2.193.813-3.778 0-1.591-.899-2.251-1.474-2.251zm-27.555 4.251c-.204.034-.413.049-.623.044-2.035-.054-4.231-1.886-4.45-4.058-.242-2.4.984-4.247 3.156-4.686a3.64 3.64 0 0 1 .911-.066c1.217.067 3.01 1.001 3.42 3.652.364 2.348-.212 4.738-2.414 5.114zm-2.271-10.136c-1.352.263-2.544 1.029-3.273 2.087-.436-.362-1.247-1.066-1.389-1.34-1.163-2.21 1.269-6.505 2.969-8.929 4.199-5.993 10.777-10.531 13.822-9.708.495.14 2.135 2.041 2.135 2.041s-3.044 1.688-5.867 4.043c-3.802 2.93-6.676 7.187-8.397 11.806zm21.351 9.238a.12.12 0 0 0 .07-.119c-.007-.062-.062-.106-.122-.1 0 0-3.186.472-6.198-.63.329-1.067 1.201-.681 2.518-.575 2.376.142 4.504-.206 6.078-.657 1.364-.391 3.154-1.162 4.545-2.26.468 1.031.635 2.164.635 2.164s.363-.065.666.123c.288.176.497.543.353 1.491-.292 1.771-1.045 3.21-2.311 4.533-.77.829-1.706 1.551-2.776 2.075a11.73 11.73 0 0 1-1.812.766c-4.772 1.558-9.656-.155-11.23-3.834-.126-.276-.232-.567-.315-.869-.671-2.425-.101-5.333 1.678-7.165v-.002c.11-.116.223-.253.223-.426 0-.146-.092-.297-.172-.405-.622-.903-2.781-2.443-2.348-5.423.31-2.141 2.183-3.648 3.929-3.558l.442.026c.756.044 1.416.142 2.04.168 1.042.046 1.979-.106 3.089-1.032.374-.312.675-.583 1.183-.668.054-.01.186-.057.452-.044s.529.088.761.243c.89.593 1.016 2.027 1.061 3.075l.125 2.464c.057.951.306 1.086.811 1.253.284.093.549.163.937.272 1.178.332 1.877.667 2.318 1.098.262.269.385.555.422.828.139 1.012-.787 2.265-3.236 3.401-2.678 1.243-5.928 1.558-8.173 1.308l-.787-.088c-1.796-.242-2.82 2.079-1.742 3.669.694 1.026 2.586 1.692 4.479 1.692 4.34 0 7.676-1.854 8.917-3.454.038-.047.041-.054.1-.142s.011-.142-.065-.091c-1.014.694-5.518 3.447-10.334 2.619 0 0-.584-.096-1.12-.304-.424-.165-1.313-.573-1.421-1.486 3.882 1.2 6.33.064 6.33.064zm-6.158-.727h0zm-7.437-16.718c1.493-1.726 3.332-3.225 4.978-4.068.057-.029.117.033.086.089-.13.236-.382.743-.462 1.128-.013.06.052.104.103.07 1.024-.699 2.807-1.447 4.37-1.543.067-.005.099.082.045.122a3.71 3.71 0 0 0-.687.69c-.033.044-.002.106.052.106 1.098.008 2.646.392 3.653.957.069.037.02.169-.057.153-1.525-.349-4.024-.616-6.618.018-2.316.565-4.084 1.437-5.374 2.376-.062.049-.141-.036-.089-.098zM29.385 79.231A16.62 16.62 0 0 0 46 62.615 16.62 16.62 0 0 0 29.385 46v33.231zm33.23-13.846A16.62 16.62 0 0 0 46 82a16.62 16.62 0 0 0 16.615 16.615v-33.23zM64 54.308c0 3.824-3.1 6.923-6.923 6.923s-6.923-3.099-6.923-6.923 3.099-6.923 6.923-6.923S64 50.484 64 54.308zm-22.154 36c0 3.824-3.099 6.923-6.923 6.923S28 94.131 28 90.308s3.1-6.923 6.923-6.923 6.923 3.1 6.923 6.923z" fill="#fff"/><defs><radialGradient id="A" cx="0" cy="0" r="1" gradientUnits="userSpaceOnUse" gradientTransform="translate(141 72) rotate(90) scale(72 141)"><stop stop-color="#6ece9d" stop-opacity=".15"/><stop offset="1" stop-color="#6ece9d" stop-opacity="0"/></radialGradient></defs></svg>