<svg width="282" height="144" viewBox="0 0 282 144" fill="none" xmlns="http://www.w3.org/2000/svg">
<rect width="282" height="144" fill="url(#paint0_radial_3813_6598)"/>
<path d="M75 61C74.4477 61 74 61.4477 74 62C74 62.5523 74.4477 63 75 63V61ZM133 43C133 42.4477 132.552 42 132 42H123C122.448 42 122 42.4477 122 43C122 43.5523 122.448 44 123 44H131V52C131 52.5523 131.448 53 132 53C132.552 53 133 52.5523 133 52V43ZM75 63C104.212 63 122.485 53.9292 132.707 43.7071L131.293 42.2929C121.515 52.0708 103.788 61 75 61V63Z" fill="#6ECE9D"/>
<path d="M75 83C74.4477 83 74 82.5523 74 82C74 81.4477 74.4477 81 75 81V83ZM133 101C133 101.552 132.552 102 132 102H123C122.448 102 122 101.552 122 101C122 100.448 122.448 100 123 100H131V92C131 91.4477 131.448 91 132 91C132.552 91 133 91.4477 133 92V101ZM75 81C104.212 81 122.485 90.0708 132.707 100.293L131.293 101.707C121.515 91.9292 103.788 83 75 83V81Z" fill="#6ECE9D"/>
<path d="M75 71C74.4477 71 74 71.4477 74 72C74 72.5523 74.4477 73 75 73V71ZM182.207 72.7071C182.598 72.3166 182.598 71.6834 182.207 71.2929L175.843 64.9289C175.453 64.5384 174.819 64.5384 174.429 64.9289C174.038 65.3195 174.038 65.9526 174.429 66.3431L180.086 72L174.429 77.6569C174.038 78.0474 174.038 78.6805 174.429 79.0711C174.819 79.4616 175.453 79.4616 175.843 79.0711L182.207 72.7071ZM75 73C75.0488 73 75.0978 73 75.1469 73C75.196 73 75.2452 73 75.2945 73C75.3439 73 75.3933 73 75.4429 73C75.4925 73 75.5423 73 75.5921 73C75.642 73 75.692 73 75.7421 73C75.7922 73 75.8424 73 75.8928 73C75.9432 73 75.9937 73 76.0443 73C76.0949 73 76.1456 73 76.1965 73C76.2474 73 76.2984 73 76.3495 73C76.4006 73 76.4519 73 76.5032 73C76.5546 73 76.6061 73 76.6577 73C76.7093 73 76.7611 73 76.8129 73C76.8648 73 76.9168 73 76.9689 73C77.021 73 77.0732 73 77.1256 73C77.178 73 77.2304 73 77.283 73C77.3356 73 77.3884 73 77.4412 73C77.4941 73 77.547 73 77.6001 73C77.6532 73 77.7064 73 77.7597 73C77.8131 73 77.8665 73 77.9201 73C77.9736 73 78.0273 73 78.0811 73C78.1349 73 78.1889 73 78.2429 73C78.2969 73 78.3511 73 78.4054 73C78.4597 73 78.5141 73 78.5686 73C78.6231 73 78.6777 73 78.7325 73C78.7872 73 78.8421 73 78.8971 73C78.9521 73 79.0072 73 79.0624 73C79.1176 73 79.1729 73 79.2284 73C79.2838 73 79.3394 73 79.3951 73C79.4508 73 79.5066 73 79.5625 73C79.6184 73 79.6744 73 79.7305 73C79.7867 73 79.8429 73 79.8993 73C79.9557 73 80.0121 73 80.0687 73C80.1253 73 80.182 73 80.2388 73C80.2957 73 80.3526 73 80.4096 73C80.4667 73 80.5238 73 80.5811 73C80.6383 73 80.6957 73 80.7532 73C80.8107 73 80.8683 73 80.926 73C80.9837 73 81.0415 73 81.0994 73C81.1574 73 81.2154 73 81.2736 73C81.3317 73 81.39 73 81.4483 73C81.5067 73 81.5652 73 81.6237 73C81.6823 73 81.741 73 81.7998 73C81.8586 73 81.9175 73 81.9765 73C82.0355 73 82.0946 73 82.1539 73C82.2131 73 82.2724 73 82.3319 73C82.3913 73 82.4508 73 82.5105 73C82.5701 73 82.6299 73 82.6898 73C82.7496 73 82.8096 73 82.8696 73C82.9297 73 82.9899 73 83.0502 73C83.1104 73 83.1708 73 83.2313 73C83.2918 73 83.3524 73 83.4131 73C83.4738 73 83.5346 73 83.5955 73C83.6564 73 83.7174 73 83.7785 73C83.8396 73 83.9008 73 83.9621 73C84.0234 73 84.0848 73 84.1463 73C84.2078 73 84.2694 73 84.3311 73C84.3928 73 84.4546 73 84.5165 73C84.5784 73 84.6404 73 84.7025 73C84.7646 73 84.8268 73 84.8892 73C84.9515 73 85.0139 73 85.0764 73C85.1389 73 85.2015 73 85.2642 73C85.3269 73 85.3897 73 85.4525 73C85.5154 73 85.5784 73 85.6415 73C85.7046 73 85.7678 73 85.8311 73C85.8943 73 85.9577 73 86.0212 73C86.0846 73 86.1482 73 86.2119 73C86.2755 73 86.3393 73 86.4031 73C86.467 73 86.5309 73 86.595 73C86.659 73 86.7231 73 86.7874 73C86.8516 73 86.9159 73 86.9803 73C87.0447 73 87.1092 73 87.1738 73C87.2384 73 87.3031 73 87.3679 73C87.4327 73 87.4976 73 87.5625 73C87.6275 73 87.6926 73 87.7577 73C87.8228 73 87.8881 73 87.9534 73C88.0187 73 88.0842 73 88.1497 73C88.2152 73 88.2808 73 88.3465 73C88.4122 73 88.4779 73 88.5438 73C88.6097 73 88.6756 73 88.7417 73C88.8077 73 88.8738 73 88.94 73C89.0063 73 89.0726 73 89.139 73C89.2054 73 89.2718 73 89.3384 73C89.405 73 89.4716 73 89.5384 73C89.6051 73 89.6719 73 89.7388 73C89.8058 73 89.8728 73 89.9398 73C90.0069 73 90.0741 73 90.1413 73C90.2086 73 90.2759 73 90.3433 73C90.4108 73 90.4783 73 90.5459 73C90.6134 73 90.6811 73 90.7489 73C90.8166 73 90.8845 73 90.9524 73C91.0203 73 91.0883 73 91.1564 73C91.2245 73 91.2926 73 91.3609 73C91.4291 73 91.4975 73 91.5659 73C91.6343 73 91.7028 73 91.7713 73C91.8399 73 91.9086 73 91.9773 73C92.046 73 92.1148 73 92.1837 73C92.2526 73 92.3216 73 92.3906 73C92.4597 73 92.5288 73 92.598 73C92.6672 73 92.7365 73 92.8058 73C92.8752 73 92.9446 73 93.0142 73C93.0837 73 93.1533 73 93.2229 73C93.2926 73 93.3624 73 93.4322 73C93.502 73 93.5719 73 93.6419 73C93.7118 73 93.7819 73 93.852 73C93.9221 73 93.9923 73 94.0626 73C94.1329 73 94.2032 73 94.2737 73C94.3441 73 94.4146 73 94.4852 73C94.5557 73 94.6264 73 94.6971 73C94.7678 73 94.8386 73 94.9094 73C94.9803 73 95.0512 73 95.1223 73C95.1933 73 95.2643 73 95.3355 73C95.4066 73 95.4779 73 95.5491 73C95.6204 73 95.6918 73 95.7632 73C95.8347 73 95.9062 73 95.9777 73C96.0493 73 96.121 73 96.1927 73C96.2644 73 96.3362 73 96.408 73C96.4799 73 96.5518 73 96.6238 73C96.6958 73 96.7678 73 96.8399 73C96.9121 73 96.9843 73 97.0565 73C97.1288 73 97.2011 73 97.2735 73C97.3459 73 97.4183 73 97.4909 73C97.5634 73 97.636 73 97.7086 73C97.7813 73 97.854 73 97.9268 73C97.9996 73 98.0724 73 98.1454 73C98.2183 73 98.2913 73 98.3643 73C98.4374 73 98.5105 73 98.5836 73C98.6568 73 98.73 73 98.8033 73C98.8766 73 98.95 73 99.0234 73C99.0969 73 99.1704 73 99.2439 73C99.3174 73 99.3911 73 99.4647 73C99.5384 73 99.6121 73 99.6859 73C99.7597 73 99.8336 73 99.9075 73C99.9814 73 100.055 73 100.129 73C100.203 73 100.278 73 100.352 73C100.426 73 100.5 73 100.574 73C100.649 73 100.723 73 100.797 73C100.872 73 100.946 73 101.021 73C101.095 73 101.17 73 101.244 73C101.319 73 101.394 73 101.468 73C101.543 73 101.618 73 101.693 73C101.768 73 101.843 73 101.918 73C101.993 73 102.068 73 102.143 73C102.218 73 102.293 73 102.368 73C102.443 73 102.518 73 102.594 73C102.669 73 102.744 73 102.82 73C102.895 73 102.971 73 103.046 73C103.122 73 103.197 73 103.273 73C103.348 73 103.424 73 103.5 73C103.575 73 103.651 73 103.727 73C103.803 73 103.879 73 103.955 73C104.031 73 104.107 73 104.183 73C104.259 73 104.335 73 104.411 73C104.487 73 104.563 73 104.639 73C104.715 73 104.792 73 104.868 73C104.944 73 105.021 73 105.097 73C105.174 73 105.25 73 105.327 73C105.403 73 105.48 73 105.556 73C105.633 73 105.709 73 105.786 73C105.863 73 105.94 73 106.016 73C106.093 73 106.17 73 106.247 73C106.324 73 106.401 73 106.478 73C106.555 73 106.632 73 106.709 73C106.786 73 106.863 73 106.94 73C107.017 73 107.094 73 107.172 73C107.249 73 107.326 73 107.404 73C107.481 73 107.558 73 107.636 73C107.713 73 107.791 73 107.868 73C107.946 73 108.023 73 108.101 73C108.178 73 108.256 73 108.334 73C108.411 73 108.489 73 108.567 73C108.644 73 108.722 73 108.8 73C108.878 73 108.956 73 109.034 73C109.112 73 109.189 73 109.267 73C109.345 73 109.423 73 109.502 73C109.58 73 109.658 73 109.736 73C109.814 73 109.892 73 109.97 73C110.049 73 110.127 73 110.205 73C110.283 73 110.362 73 110.44 73C110.518 73 110.597 73 110.675 73C110.754 73 110.832 73 110.911 73C110.989 73 111.068 73 111.146 73C111.225 73 111.303 73 111.382 73C111.461 73 111.539 73 111.618 73C111.697 73 111.776 73 111.854 73C111.933 73 112.012 73 112.091 73C112.17 73 112.248 73 112.327 73C112.406 73 112.485 73 112.564 73C112.643 73 112.722 73 112.801 73C112.88 73 112.959 73 113.038 73C113.117 73 113.197 73 113.276 73C113.355 73 113.434 73 113.513 73C113.592 73 113.672 73 113.751 73C113.83 73 113.91 73 113.989 73C114.068 73 114.148 73 114.227 73C114.306 73 114.386 73 114.465 73C114.545 73 114.624 73 114.704 73C114.783 73 114.863 73 114.942 73C115.022 73 115.101 73 115.181 73C115.26 73 115.34 73 115.42 73C115.499 73 115.579 73 115.659 73C115.738 73 115.818 73 115.898 73C115.978 73 116.057 73 116.137 73C116.217 73 116.297 73 116.377 73C116.456 73 116.536 73 116.616 73C116.696 73 116.776 73 116.856 73C116.936 73 117.016 73 117.096 73C117.176 73 117.256 73 117.336 73C117.416 73 117.496 73 117.576 73C117.656 73 117.736 73 117.816 73C117.896 73 117.976 73 118.057 73C118.137 73 118.217 73 118.297 73C118.377 73 118.457 73 118.538 73C118.618 73 118.698 73 118.778 73C118.859 73 118.939 73 119.019 73C119.099 73 119.18 73 119.26 73C119.34 73 119.421 73 119.501 73C119.581 73 119.662 73 119.742 73C119.822 73 119.903 73 119.983 73C120.064 73 120.144 73 120.225 73C120.305 73 120.385 73 120.466 73C120.546 73 120.627 73 120.707 73C120.788 73 120.868 73 120.949 73C121.029 73 121.11 73 121.191 73C121.271 73 121.352 73 121.432 73C121.513 73 121.593 73 121.674 73C121.755 73 121.835 73 121.916 73C121.996 73 122.077 73 122.158 73C122.238 73 122.319 73 122.4 73C122.48 73 122.561 73 122.642 73C122.722 73 122.803 73 122.884 73C122.965 73 123.045 73 123.126 73C123.207 73 123.287 73 123.368 73C123.449 73 123.53 73 123.61 73C123.691 73 123.772 73 123.853 73C123.933 73 124.014 73 124.095 73C124.176 73 124.257 73 124.337 73C124.418 73 124.499 73 124.58 73C124.661 73 124.741 73 124.822 73C124.903 73 124.984 73 125.065 73C125.145 73 125.226 73 125.307 73C125.388 73 125.469 73 125.55 73C125.63 73 125.711 73 125.792 73C125.873 73 125.954 73 126.035 73C126.115 73 126.196 73 126.277 73C126.358 73 126.439 73 126.52 73C126.601 73 126.681 73 126.762 73C126.843 73 126.924 73 127.005 73C127.086 73 127.167 73 127.247 73C127.328 73 127.409 73 127.49 73C127.571 73 127.652 73 127.733 73C127.813 73 127.894 73 127.975 73C128.056 73 128.137 73 128.218 73C128.298 73 128.379 73 128.46 73C128.541 73 128.622 73 128.703 73C128.783 73 128.864 73 128.945 73C129.026 73 129.107 73 129.188 73C129.268 73 129.349 73 129.43 73C129.511 73 129.592 73 129.672 73C129.753 73 129.834 73 129.915 73C129.995 73 130.076 73 130.157 73C130.238 73 130.318 73 130.399 73C130.48 73 130.561 73 130.641 73C130.722 73 130.803 73 130.884 73C130.964 73 131.045 73 131.126 73C131.206 73 131.287 73 131.368 73C131.449 73 131.529 73 131.61 73C131.691 73 131.771 73 131.852 73C131.932 73 132.013 73 132.094 73C132.174 73 132.255 73 132.336 73C132.416 73 132.497 73 132.577 73C132.658 73 132.738 73 132.819 73C132.9 73 132.98 73 133.061 73C133.141 73 133.222 73 133.302 73C133.383 73 133.463 73 133.544 73C133.624 73 133.704 73 133.785 73C133.865 73 133.946 73 134.026 73C134.107 73 134.187 73 134.267 73C134.348 73 134.428 73 134.508 73C134.589 73 134.669 73 134.749 73C134.83 73 134.91 73 134.99 73C135.071 73 135.151 73 135.231 73C135.311 73 135.392 73 135.472 73C135.552 73 135.632 73 135.712 73C135.793 73 135.873 73 135.953 73C136.033 73 136.113 73 136.193 73C136.273 73 136.353 73 136.433 73C136.513 73 136.593 73 136.673 73C136.753 73 136.833 73 136.913 73C136.993 73 137.073 73 137.153 73C137.233 73 137.313 73 137.393 73C137.473 73 137.553 73 137.633 73C137.712 73 137.792 73 137.872 73C137.952 73 138.032 73 138.111 73C138.191 73 138.271 73 138.35 73C138.43 73 138.51 73 138.589 73C138.669 73 138.749 73 138.828 73C138.908 73 138.987 73 139.067 73C139.146 73 139.226 73 139.305 73C139.385 73 139.464 73 139.544 73C139.623 73 139.703 73 139.782 73C139.861 73 139.941 73 140.02 73C140.099 73 140.179 73 140.258 73C140.337 73 140.416 73 140.496 73C140.575 73 140.654 73 140.733 73C140.812 73 140.891 73 140.971 73C141.05 73 141.129 73 141.208 73C141.287 73 141.366 73 141.445 73C141.524 73 141.603 73 141.681 73C141.76 73 141.839 73 141.918 73C141.997 73 142.076 73 142.154 73C142.233 73 142.312 73 142.391 73C142.469 73 142.548 73 142.627 73C142.705 73 142.784 73 142.862 73C142.941 73 143.019 73 143.098 73C143.176 73 143.255 73 143.333 73C143.412 73 143.49 73 143.568 73C143.647 73 143.725 73 143.803 73C143.882 73 143.96 73 144.038 73C144.116 73 144.194 73 144.273 73C144.351 73 144.429 73 144.507 73C144.585 73 144.663 73 144.741 73C144.819 73 144.897 73 144.975 73C145.053 73 145.13 73 145.208 73C145.286 73 145.364 73 145.442 73C145.519 73 145.597 73 145.675 73C145.752 73 145.83 73 145.907 73C145.985 73 146.063 73 146.14 73C146.218 73 146.295 73 146.372 73C146.45 73 146.527 73 146.604 73C146.682 73 146.759 73 146.836 73C146.913 73 146.991 73 147.068 73C147.145 73 147.222 73 147.299 73C147.376 73 147.453 73 147.53 73C147.607 73 147.684 73 147.761 73C147.838 73 147.915 73 147.991 73C148.068 73 148.145 73 148.222 73C148.298 73 148.375 73 148.451 73C148.528 73 148.605 73 148.681 73C148.758 73 148.834 73 148.91 73C148.987 73 149.063 73 149.139 73C149.216 73 149.292 73 149.368 73C149.444 73 149.521 73 149.597 73C149.673 73 149.749 73 149.825 73C149.901 73 149.977 73 150.053 73C150.129 73 150.205 73 150.28 73C150.356 73 150.432 73 150.508 73C150.583 73 150.659 73 150.734 73C150.81 73 150.886 73 150.961 73C151.037 73 151.112 73 151.187 73C151.263 73 151.338 73 151.413 73C151.489 73 151.564 73 151.639 73C151.714 73 151.789 73 151.864 73C151.939 73 152.014 73 152.089 73C152.164 73 152.239 73 152.314 73C152.389 73 152.464 73 152.538 73C152.613 73 152.688 73 152.762 73C152.837 73 152.911 73 152.986 73C153.06 73 153.135 73 153.209 73C153.284 73 153.358 73 153.432 73C153.506 73 153.581 73 153.655 73C153.729 73 153.803 73 153.877 73C153.951 73 154.025 73 154.099 73C154.173 73 154.247 73 154.32 73C154.394 73 154.468 73 154.542 73C154.615 73 154.689 73 154.762 73C154.836 73 154.909 73 154.983 73C155.056 73 155.13 73 155.203 73C155.276 73 155.349 73 155.422 73C155.496 73 155.569 73 155.642 73C155.715 73 155.788 73 155.861 73C155.933 73 156.006 73 156.079 73C156.152 73 156.225 73 156.297 73C156.37 73 156.442 73 156.515 73C156.587 73 156.66 73 156.732 73C156.805 73 156.877 73 156.949 73C157.021 73 157.094 73 157.166 73C157.238 73 157.31 73 157.382 73C157.454 73 157.526 73 157.597 73C157.669 73 157.741 73 157.813 73C157.884 73 157.956 73 158.028 73C158.099 73 158.171 73 158.242 73C158.313 73 158.385 73 158.456 73C158.527 73 158.599 73 158.67 73C158.741 73 158.812 73 158.883 73C158.954 73 159.025 73 159.096 73C159.166 73 159.237 73 159.308 73C159.379 73 159.449 73 159.52 73C159.59 73 159.661 73 159.731 73C159.802 73 159.872 73 159.942 73C160.012 73 160.083 73 160.153 73C160.223 73 160.293 73 160.363 73C160.433 73 160.503 73 160.572 73C160.642 73 160.712 73 160.781 73C160.851 73 160.921 73 160.99 73C161.06 73 161.129 73 161.198 73C161.268 73 161.337 73 161.406 73C161.475 73 161.545 73 161.614 73C161.683 73 161.751 73 161.82 73C161.889 73 161.958 73 162.027 73C162.095 73 162.164 73 162.233 73C162.301 73 162.37 73 162.438 73C162.506 73 162.575 73 162.643 73C162.711 73 162.779 73 162.847 73C162.915 73 162.983 73 163.051 73C163.119 73 163.187 73 163.255 73C163.322 73 163.39 73 163.458 73C163.525 73 163.593 73 163.66 73C163.727 73 163.795 73 163.862 73C163.929 73 163.996 73 164.063 73C164.13 73 164.197 73 164.264 73C164.331 73 164.398 73 164.465 73C164.531 73 164.598 73 164.665 73C164.731 73 164.798 73 164.864 73C164.93 73 164.997 73 165.063 73C165.129 73 165.195 73 165.261 73C165.327 73 165.393 73 165.459 73C165.525 73 165.59 73 165.656 73C165.722 73 165.787 73 165.853 73C165.918 73 165.984 73 166.049 73C166.114 73 166.18 73 166.245 73C166.31 73 166.375 73 166.44 73C166.505 73 166.569 73 166.634 73C166.699 73 166.764 73 166.828 73C166.893 73 166.957 73 167.022 73C167.086 73 167.15 73 167.215 73C167.279 73 167.343 73 167.407 73C167.471 73 167.535 73 167.599 73C167.662 73 167.726 73 167.79 73C167.853 73 167.917 73 167.98 73C168.044 73 168.107 73 168.17 73C168.234 73 168.297 73 168.36 73C168.423 73 168.486 73 168.549 73C168.612 73 168.674 73 168.737 73C168.8 73 168.862 73 168.925 73C168.987 73 169.05 73 169.112 73C169.174 73 169.236 73 169.298 73C169.36 73 169.422 73 169.484 73C169.546 73 169.608 73 169.67 73C169.731 73 169.793 73 169.854 73C169.916 73 169.977 73 170.038 73C170.1 73 170.161 73 170.222 73C170.283 73 170.344 73 170.405 73C170.466 73 170.527 73 170.587 73C170.648 73 170.708 73 170.769 73C170.829 73 170.89 73 170.95 73C171.01 73 171.07 73 171.13 73C171.19 73 171.25 73 171.31 73C171.37 73 171.43 73 171.489 73C171.549 73 171.608 73 171.668 73C171.727 73 171.786 73 171.846 73C171.905 73 171.964 73 172.023 73C172.082 73 172.141 73 172.2 73C172.258 73 172.317 73 172.376 73C172.434 73 172.492 73 172.551 73C172.609 73 172.667 73 172.725 73C172.784 73 172.842 73 172.899 73C172.957 73 173.015 73 173.073 73C173.131 73 173.188 73 173.246 73C173.303 73 173.36 73 173.418 73C173.475 73 173.532 73 173.589 73C173.646 73 173.703 73 173.76 73C173.816 73 173.873 73 173.93 73C173.986 73 174.043 73 174.099 73C174.155 73 174.211 73 174.268 73C174.324 73 174.38 73 174.436 73C174.491 73 174.547 73 174.603 73C174.658 73 174.714 73 174.769 73C174.825 73 174.88 73 174.935 73C174.99 73 175.046 73 175.1 73C175.155 73 175.21 73 175.265 73C175.32 73 175.374 73 175.429 73C175.483 73 175.538 73 175.592 73C175.646 73 175.7 73 175.754 73C175.808 73 175.862 73 175.916 73C175.97 73 176.023 73 176.077 73C176.13 73 176.184 73 176.237 73C176.29 73 176.344 73 176.397 73C176.45 73 176.503 73 176.555 73C176.608 73 176.661 73 176.713 73C176.766 73 176.818 73 176.871 73C176.923 73 176.975 73 177.027 73C177.079 73 177.131 73 177.183 73C177.235 73 177.287 73 177.338 73C177.39 73 177.441 73 177.493 73C177.544 73 177.595 73 177.646 73C177.697 73 177.748 73 177.799 73C177.85 73 177.901 73 177.951 73C178.002 73 178.052 73 178.103 73C178.153 73 178.203 73 178.253 73C178.303 73 178.353 73 178.403 73C178.453 73 178.503 73 178.552 73C178.602 73 178.651 73 178.7 73C178.75 73 178.799 73 178.848 73C178.897 73 178.946 73 178.995 73C179.043 73 179.092 73 179.141 73C179.189 73 179.238 73 179.286 73C179.334 73 179.382 73 179.43 73C179.478 73 179.526 73 179.574 73C179.622 73 179.669 73 179.717 73C179.764 73 179.812 73 179.859 73C179.906 73 179.953 73 180 73C180.047 73 180.094 73 180.14 73C180.187 73 180.234 73 180.28 73C180.326 73 180.373 73 180.419 73C180.465 73 180.511 73 180.557 73C180.603 73 180.648 73 180.694 73C180.74 73 180.785 73 180.83 73C180.876 73 180.921 73 180.966 73C181.011 73 181.056 73 181.101 73C181.146 73 181.19 73 181.235 73C181.279 73 181.324 73 181.368 73C181.412 73 181.456 73 181.5 73V71C181.456 71 181.412 71 181.368 71C181.324 71 181.279 71 181.235 71C181.19 71 181.146 71 181.101 71C181.056 71 181.011 71 180.966 71C180.921 71 180.876 71 180.83 71C180.785 71 180.74 71 180.694 71C180.648 71 180.603 71 180.557 71C180.511 71 180.465 71 180.419 71C180.373 71 180.326 71 180.28 71C180.234 71 180.187 71 180.14 71C180.094 71 180.047 71 180 71C179.953 71 179.906 71 179.859 71C179.812 71 179.764 71 179.717 71C179.669 71 179.622 71 179.574 71C179.526 71 179.478 71 179.43 71C179.382 71 179.334 71 179.286 71C179.238 71 179.189 71 179.141 71C179.092 71 179.043 71 178.995 71C178.946 71 178.897 71 178.848 71C178.799 71 178.75 71 178.7 71C178.651 71 178.602 71 178.552 71C178.503 71 178.453 71 178.403 71C178.353 71 178.303 71 178.253 71C178.203 71 178.153 71 178.103 71C178.052 71 178.002 71 177.951 71C177.901 71 177.85 71 177.799 71C177.748 71 177.697 71 177.646 71C177.595 71 177.544 71 177.493 71C177.441 71 177.39 71 177.338 71C177.287 71 177.235 71 177.183 71C177.131 71 177.079 71 177.027 71C176.975 71 176.923 71 176.871 71C176.818 71 176.766 71 176.713 71C176.661 71 176.608 71 176.555 71C176.503 71 176.45 71 176.397 71C176.344 71 176.29 71 176.237 71C176.184 71 176.13 71 176.077 71C176.023 71 175.97 71 175.916 71C175.862 71 175.808 71 175.754 71C175.7 71 175.646 71 175.592 71C175.538 71 175.483 71 175.429 71C175.374 71 175.32 71 175.265 71C175.21 71 175.155 71 175.1 71C175.046 71 174.99 71 174.935 71C174.88 71 174.825 71 174.769 71C174.714 71 174.658 71 174.603 71C174.547 71 174.491 71 174.436 71C174.38 71 174.324 71 174.268 71C174.211 71 174.155 71 174.099 71C174.043 71 173.986 71 173.93 71C173.873 71 173.816 71 173.76 71C173.703 71 173.646 71 173.589 71C173.532 71 173.475 71 173.418 71C173.36 71 173.303 71 173.246 71C173.188 71 173.131 71 173.073 71C173.015 71 172.957 71 172.899 71C172.842 71 172.784 71 172.725 71C172.667 71 172.609 71 172.551 71C172.492 71 172.434 71 172.376 71C172.317 71 172.258 71 172.2 71C172.141 71 172.082 71 172.023 71C171.964 71 171.905 71 171.846 71C171.786 71 171.727 71 171.668 71C171.608 71 171.549 71 171.489 71C171.43 71 171.37 71 171.31 71C171.25 71 171.19 71 171.13 71C171.07 71 171.01 71 170.95 71C170.89 71 170.829 71 170.769 71C170.708 71 170.648 71 170.587 71C170.527 71 170.466 71 170.405 71C170.344 71 170.283 71 170.222 71C170.161 71 170.1 71 170.038 71C169.977 71 169.916 71 169.854 71C169.793 71 169.731 71 169.67 71C169.608 71 169.546 71 169.484 71C169.422 71 169.36 71 169.298 71C169.236 71 169.174 71 169.112 71C169.05 71 168.987 71 168.925 71C168.862 71 168.8 71 168.737 71C168.674 71 168.612 71 168.549 71C168.486 71 168.423 71 168.36 71C168.297 71 168.234 71 168.17 71C168.107 71 168.044 71 167.98 71C167.917 71 167.853 71 167.79 71C167.726 71 167.662 71 167.599 71C167.535 71 167.471 71 167.407 71C167.343 71 167.279 71 167.215 71C167.15 71 167.086 71 167.022 71C166.957 71 166.893 71 166.828 71C166.764 71 166.699 71 166.634 71C166.569 71 166.505 71 166.44 71C166.375 71 166.31 71 166.245 71C166.18 71 166.114 71 166.049 71C165.984 71 165.918 71 165.853 71C165.787 71 165.722 71 165.656 71C165.59 71 165.525 71 165.459 71C165.393 71 165.327 71 165.261 71C165.195 71 165.129 71 165.063 71C164.997 71 164.93 71 164.864 71C164.798 71 164.731 71 164.665 71C164.598 71 164.531 71 164.465 71C164.398 71 164.331 71 164.264 71C164.197 71 164.13 71 164.063 71C163.996 71 163.929 71 163.862 71C163.795 71 163.727 71 163.66 71C163.593 71 163.525 71 163.458 71C163.39 71 163.322 71 163.255 71C163.187 71 163.119 71 163.051 71C162.983 71 162.915 71 162.847 71C162.779 71 162.711 71 162.643 71C162.575 71 162.506 71 162.438 71C162.37 71 162.301 71 162.233 71C162.164 71 162.095 71 162.027 71C161.958 71 161.889 71 161.82 71C161.751 71 161.683 71 161.614 71C161.545 71 161.475 71 161.406 71C161.337 71 161.268 71 161.198 71C161.129 71 161.06 71 160.99 71C160.921 71 160.851 71 160.781 71C160.712 71 160.642 71 160.572 71C160.503 71 160.433 71 160.363 71C160.293 71 160.223 71 160.153 71C160.083 71 160.012 71 159.942 71C159.872 71 159.802 71 159.731 71C159.661 71 159.59 71 159.52 71C159.449 71 159.379 71 159.308 71C159.237 71 159.166 71 159.096 71C159.025 71 158.954 71 158.883 71C158.812 71 158.741 71 158.67 71C158.599 71 158.527 71 158.456 71C158.385 71 158.313 71 158.242 71C158.171 71 158.099 71 158.028 71C157.956 71 157.884 71 157.813 71C157.741 71 157.669 71 157.597 71C157.526 71 157.454 71 157.382 71C157.31 71 157.238 71 157.166 71C157.094 71 157.021 71 156.949 71C156.877 71 156.805 71 156.732 71C156.66 71 156.587 71 156.515 71C156.442 71 156.37 71 156.297 71C156.225 71 156.152 71 156.079 71C156.006 71 155.933 71 155.861 71C155.788 71 155.715 71 155.642 71C155.569 71 155.496 71 155.422 71C155.349 71 155.276 71 155.203 71C155.13 71 155.056 71 154.983 71C154.909 71 154.836 71 154.762 71C154.689 71 154.615 71 154.542 71C154.468 71 154.394 71 154.32 71C154.247 71 154.173 71 154.099 71C154.025 71 153.951 71 153.877 71C153.803 71 153.729 71 153.655 71C153.581 71 153.506 71 153.432 71C153.358 71 153.284 71 153.209 71C153.135 71 153.06 71 152.986 71C152.911 71 152.837 71 152.762 71C152.688 71 152.613 71 152.538 71C152.464 71 152.389 71 152.314 71C152.239 71 152.164 71 152.089 71C152.014 71 151.939 71 151.864 71C151.789 71 151.714 71 151.639 71C151.564 71 151.489 71 151.413 71C151.338 71 151.263 71 151.187 71C151.112 71 151.037 71 150.961 71C150.886 71 150.81 71 150.734 71C150.659 71 150.583 71 150.508 71C150.432 71 150.356 71 150.28 71C150.205 71 150.129 71 150.053 71C149.977 71 149.901 71 149.825 71C149.749 71 149.673 71 149.597 71C149.521 71 149.444 71 149.368 71C149.292 71 149.216 71 149.139 71C149.063 71 148.987 71 148.91 71C148.834 71 148.758 71 148.681 71C148.605 71 148.528 71 148.451 71C148.375 71 148.298 71 148.222 71C148.145 71 148.068 71 147.991 71C147.915 71 147.838 71 147.761 71C147.684 71 147.607 71 147.53 71C147.453 71 147.376 71 147.299 71C147.222 71 147.145 71 147.068 71C146.991 71 146.913 71 146.836 71C146.759 71 146.682 71 146.604 71C146.527 71 146.45 71 146.372 71C146.295 71 146.218 71 146.14 71C146.063 71 145.985 71 145.907 71C145.83 71 145.752 71 145.675 71C145.597 71 145.519 71 145.442 71C145.364 71 145.286 71 145.208 71C145.13 71 145.053 71 144.975 71C144.897 71 144.819 71 144.741 71C144.663 71 144.585 71 144.507 71C144.429 71 144.351 71 144.273 71C144.194 71 144.116 71 144.038 71C143.96 71 143.882 71 143.803 71C143.725 71 143.647 71 143.568 71C143.49 71 143.412 71 143.333 71C143.255 71 143.176 71 143.098 71C143.019 71 142.941 71 142.862 71C142.784 71 142.705 71 142.627 71C142.548 71 142.469 71 142.391 71C142.312 71 142.233 71 142.154 71C142.076 71 141.997 71 141.918 71C141.839 71 141.76 71 141.681 71C141.603 71 141.524 71 141.445 71C141.366 71 141.287 71 141.208 71C141.129 71 141.05 71 140.971 71C140.891 71 140.812 71 140.733 71C140.654 71 140.575 71 140.496 71C140.416 71 140.337 71 140.258 71C140.179 71 140.099 71 140.02 71C139.941 71 139.861 71 139.782 71C139.703 71 139.623 71 139.544 71C139.464 71 139.385 71 139.305 71C139.226 71 139.146 71 139.067 71C138.987 71 138.908 71 138.828 71C138.749 71 138.669 71 138.589 71C138.51 71 138.43 71 138.35 71C138.271 71 138.191 71 138.111 71C138.032 71 137.952 71 137.872 71C137.792 71 137.712 71 137.633 71C137.553 71 137.473 71 137.393 71C137.313 71 137.233 71 137.153 71C137.073 71 136.993 71 136.913 71C136.833 71 136.753 71 136.673 71C136.593 71 136.513 71 136.433 71C136.353 71 136.273 71 136.193 71C136.113 71 136.033 71 135.953 71C135.873 71 135.793 71 135.712 71C135.632 71 135.552 71 135.472 71C135.392 71 135.311 71 135.231 71C135.151 71 135.071 71 134.99 71C134.91 71 134.83 71 134.749 71C134.669 71 134.589 71 134.508 71C134.428 71 134.348 71 134.267 71C134.187 71 134.107 71 134.026 71C133.946 71 133.865 71 133.785 71C133.704 71 133.624 71 133.544 71C133.463 71 133.383 71 133.302 71C133.222 71 133.141 71 133.061 71C132.98 71 132.9 71 132.819 71C132.738 71 132.658 71 132.577 71C132.497 71 132.416 71 132.336 71C132.255 71 132.174 71 132.094 71C132.013 71 131.932 71 131.852 71C131.771 71 131.691 71 131.61 71C131.529 71 131.449 71 131.368 71C131.287 71 131.206 71 131.126 71C131.045 71 130.964 71 130.884 71C130.803 71 130.722 71 130.641 71C130.561 71 130.48 71 130.399 71C130.318 71 130.238 71 130.157 71C130.076 71 129.995 71 129.915 71C129.834 71 129.753 71 129.672 71C129.592 71 129.511 71 129.43 71C129.349 71 129.268 71 129.188 71C129.107 71 129.026 71 128.945 71C128.864 71 128.783 71 128.703 71C128.622 71 128.541 71 128.46 71C128.379 71 128.298 71 128.218 71C128.137 71 128.056 71 127.975 71C127.894 71 127.813 71 127.733 71C127.652 71 127.571 71 127.49 71C127.409 71 127.328 71 127.247 71C127.167 71 127.086 71 127.005 71C126.924 71 126.843 71 126.762 71C126.681 71 126.601 71 126.52 71C126.439 71 126.358 71 126.277 71C126.196 71 126.115 71 126.035 71C125.954 71 125.873 71 125.792 71C125.711 71 125.63 71 125.55 71C125.469 71 125.388 71 125.307 71C125.226 71 125.145 71 125.065 71C124.984 71 124.903 71 124.822 71C124.741 71 124.661 71 124.58 71C124.499 71 124.418 71 124.337 71C124.257 71 124.176 71 124.095 71C124.014 71 123.933 71 123.853 71C123.772 71 123.691 71 123.61 71C123.53 71 123.449 71 123.368 71C123.287 71 123.207 71 123.126 71C123.045 71 122.965 71 122.884 71C122.803 71 122.722 71 122.642 71C122.561 71 122.48 71 122.4 71C122.319 71 122.238 71 122.158 71C122.077 71 121.996 71 121.916 71C121.835 71 121.755 71 121.674 71C121.593 71 121.513 71 121.432 71C121.352 71 121.271 71 121.191 71C121.11 71 121.029 71 120.949 71C120.868 71 120.788 71 120.707 71C120.627 71 120.546 71 120.466 71C120.385 71 120.305 71 120.225 71C120.144 71 120.064 71 119.983 71C119.903 71 119.822 71 119.742 71C119.662 71 119.581 71 119.501 71C119.421 71 119.34 71 119.26 71C119.18 71 119.099 71 119.019 71C118.939 71 118.859 71 118.778 71C118.698 71 118.618 71 118.538 71C118.457 71 118.377 71 118.297 71C118.217 71 118.137 71 118.057 71C117.976 71 117.896 71 117.816 71C117.736 71 117.656 71 117.576 71C117.496 71 117.416 71 117.336 71C117.256 71 117.176 71 117.096 71C117.016 71 116.936 71 116.856 71C116.776 71 116.696 71 116.616 71C116.536 71 116.456 71 116.377 71C116.297 71 116.217 71 116.137 71C116.057 71 115.978 71 115.898 71C115.818 71 115.738 71 115.659 71C115.579 71 115.499 71 115.42 71C115.34 71 115.26 71 115.181 71C115.101 71 115.022 71 114.942 71C114.863 71 114.783 71 114.704 71C114.624 71 114.545 71 114.465 71C114.386 71 114.306 71 114.227 71C114.148 71 114.068 71 113.989 71C113.91 71 113.83 71 113.751 71C113.672 71 113.592 71 113.513 71C113.434 71 113.355 71 113.276 71C113.197 71 113.117 71 113.038 71C112.959 71 112.88 71 112.801 71C112.722 71 112.643 71 112.564 71C112.485 71 112.406 71 112.327 71C112.248 71 112.17 71 112.091 71C112.012 71 111.933 71 111.854 71C111.776 71 111.697 71 111.618 71C111.539 71 111.461 71 111.382 71C111.303 71 111.225 71 111.146 71C111.068 71 110.989 71 110.911 71C110.832 71 110.754 71 110.675 71C110.597 71 110.518 71 110.44 71C110.362 71 110.283 71 110.205 71C110.127 71 110.049 71 109.97 71C109.892 71 109.814 71 109.736 71C109.658 71 109.58 71 109.502 71C109.423 71 109.345 71 109.267 71C109.189 71 109.112 71 109.034 71C108.956 71 108.878 71 108.8 71C108.722 71 108.644 71 108.567 71C108.489 71 108.411 71 108.334 71C108.256 71 108.178 71 108.101 71C108.023 71 107.946 71 107.868 71C107.791 71 107.713 71 107.636 71C107.558 71 107.481 71 107.404 71C107.326 71 107.249 71 107.172 71C107.094 71 107.017 71 106.94 71C106.863 71 106.786 71 106.709 71C106.632 71 106.555 71 106.478 71C106.401 71 106.324 71 106.247 71C106.17 71 106.093 71 106.016 71C105.94 71 105.863 71 105.786 71C105.709 71 105.633 71 105.556 71C105.48 71 105.403 71 105.327 71C105.25 71 105.174 71 105.097 71C105.021 71 104.944 71 104.868 71C104.792 71 104.715 71 104.639 71C104.563 71 104.487 71 104.411 71C104.335 71 104.259 71 104.183 71C104.107 71 104.031 71 103.955 71C103.879 71 103.803 71 103.727 71C103.651 71 103.575 71 103.5 71C103.424 71 103.348 71 103.273 71C103.197 71 103.122 71 103.046 71C102.971 71 102.895 71 102.82 71C102.744 71 102.669 71 102.594 71C102.518 71 102.443 71 102.368 71C102.293 71 102.218 71 102.143 71C102.068 71 101.993 71 101.918 71C101.843 71 101.768 71 101.693 71C101.618 71 101.543 71 101.468 71C101.394 71 101.319 71 101.244 71C101.17 71 101.095 71 101.021 71C100.946 71 100.872 71 100.797 71C100.723 71 100.649 71 100.574 71C100.5 71 100.426 71 100.352 71C100.278 71 100.203 71 100.129 71C100.055 71 99.9814 71 99.9075 71C99.8336 71 99.7597 71 99.6859 71C99.6121 71 99.5384 71 99.4647 71C99.3911 71 99.3174 71 99.2439 71C99.1704 71 99.0969 71 99.0234 71C98.95 71 98.8766 71 98.8033 71C98.73 71 98.6568 71 98.5836 71C98.5105 71 98.4374 71 98.3643 71C98.2913 71 98.2183 71 98.1454 71C98.0724 71 97.9996 71 97.9268 71C97.854 71 97.7813 71 97.7086 71C97.636 71 97.5634 71 97.4909 71C97.4183 71 97.3459 71 97.2735 71C97.2011 71 97.1288 71 97.0565 71C96.9843 71 96.9121 71 96.8399 71C96.7678 71 96.6958 71 96.6238 71C96.5518 71 96.4799 71 96.408 71C96.3362 71 96.2644 71 96.1927 71C96.121 71 96.0493 71 95.9777 71C95.9062 71 95.8347 71 95.7632 71C95.6918 71 95.6204 71 95.5491 71C95.4779 71 95.4066 71 95.3355 71C95.2643 71 95.1933 71 95.1223 71C95.0512 71 94.9803 71 94.9094 71C94.8386 71 94.7678 71 94.6971 71C94.6264 71 94.5557 71 94.4852 71C94.4146 71 94.3441 71 94.2737 71C94.2032 71 94.1329 71 94.0626 71C93.9923 71 93.9221 71 93.852 71C93.7819 71 93.7118 71 93.6419 71C93.5719 71 93.502 71 93.4322 71C93.3624 71 93.2926 71 93.2229 71C93.1533 71 93.0837 71 93.0142 71C92.9446 71 92.8752 71 92.8058 71C92.7365 71 92.6672 71 92.598 71C92.5288 71 92.4597 71 92.3906 71C92.3216 71 92.2526 71 92.1837 71C92.1148 71 92.046 71 91.9773 71C91.9086 71 91.8399 71 91.7713 71C91.7028 71 91.6343 71 91.5659 71C91.4975 71 91.4291 71 91.3609 71C91.2926 71 91.2245 71 91.1564 71C91.0883 71 91.0203 71 90.9524 71C90.8845 71 90.8166 71 90.7489 71C90.6811 71 90.6134 71 90.5459 71C90.4783 71 90.4108 71 90.3433 71C90.2759 71 90.2086 71 90.1413 71C90.0741 71 90.0069 71 89.9398 71C89.8728 71 89.8058 71 89.7388 71C89.6719 71 89.6051 71 89.5384 71C89.4716 71 89.405 71 89.3384 71C89.2718 71 89.2054 71 89.139 71C89.0726 71 89.0063 71 88.94 71C88.8738 71 88.8077 71 88.7417 71C88.6756 71 88.6097 71 88.5438 71C88.4779 71 88.4122 71 88.3465 71C88.2808 71 88.2152 71 88.1497 71C88.0842 71 88.0187 71 87.9534 71C87.8881 71 87.8228 71 87.7577 71C87.6926 71 87.6275 71 87.5625 71C87.4976 71 87.4327 71 87.3679 71C87.3031 71 87.2384 71 87.1738 71C87.1092 71 87.0447 71 86.9803 71C86.9159 71 86.8516 71 86.7874 71C86.7231 71 86.659 71 86.595 71C86.5309 71 86.467 71 86.4031 71C86.3393 71 86.2755 71 86.2119 71C86.1482 71 86.0846 71 86.0212 71C85.9577 71 85.8943 71 85.8311 71C85.7678 71 85.7046 71 85.6415 71C85.5784 71 85.5154 71 85.4525 71C85.3897 71 85.3269 71 85.2642 71C85.2015 71 85.1389 71 85.0764 71C85.0139 71 84.9515 71 84.8892 71C84.8268 71 84.7646 71 84.7025 71C84.6404 71 84.5784 71 84.5165 71C84.4546 71 84.3928 71 84.3311 71C84.2694 71 84.2078 71 84.1463 71C84.0848 71 84.0234 71 83.9621 71C83.9008 71 83.8396 71 83.7785 71C83.7174 71 83.6564 71 83.5955 71C83.5346 71 83.4738 71 83.4131 71C83.3524 71 83.2918 71 83.2313 71C83.1708 71 83.1104 71 83.0502 71C82.9899 71 82.9297 71 82.8696 71C82.8096 71 82.7496 71 82.6898 71C82.6299 71 82.5701 71 82.5105 71C82.4508 71 82.3913 71 82.3319 71C82.2724 71 82.2131 71 82.1539 71C82.0946 71 82.0355 71 81.9765 71C81.9175 71 81.8586 71 81.7998 71C81.741 71 81.6823 71 81.6237 71C81.5652 71 81.5067 71 81.4483 71C81.39 71 81.3317 71 81.2736 71C81.2154 71 81.1574 71 81.0994 71C81.0415 71 80.9837 71 80.926 71C80.8683 71 80.8107 71 80.7532 71C80.6957 71 80.6383 71 80.5811 71C80.5238 71 80.4667 71 80.4096 71C80.3526 71 80.2957 71 80.2388 71C80.182 71 80.1253 71 80.0687 71C80.0121 71 79.9557 71 79.8993 71C79.8429 71 79.7867 71 79.7305 71C79.6744 71 79.6184 71 79.5625 71C79.5066 71 79.4508 71 79.3951 71C79.3394 71 79.2838 71 79.2284 71C79.1729 71 79.1176 71 79.0624 71C79.0072 71 78.9521 71 78.8971 71C78.8421 71 78.7872 71 78.7325 71C78.6777 71 78.6231 71 78.5686 71C78.5141 71 78.4597 71 78.4054 71C78.3511 71 78.2969 71 78.2429 71C78.1889 71 78.1349 71 78.0811 71C78.0273 71 77.9736 71 77.9201 71C77.8665 71 77.8131 71 77.7597 71C77.7064 71 77.6532 71 77.6001 71C77.547 71 77.4941 71 77.4412 71C77.3884 71 77.3356 71 77.283 71C77.2304 71 77.178 71 77.1256 71C77.0732 71 77.021 71 76.9689 71C76.9168 71 76.8648 71 76.8129 71C76.7611 71 76.7093 71 76.6577 71C76.6061 71 76.5546 71 76.5032 71C76.4519 71 76.4006 71 76.3495 71C76.2984 71 76.2474 71 76.1965 71C76.1456 71 76.0949 71 76.0443 71C75.9937 71 75.9432 71 75.8928 71C75.8424 71 75.7922 71 75.7421 71C75.692 71 75.642 71 75.5921 71C75.5423 71 75.4925 71 75.4429 71C75.3933 71 75.3439 71 75.2945 71C75.2452 71 75.196 71 75.1469 71C75.0978 71 75.0488 71 75 71V73Z" fill="#6ECE9D"/>
<path d="M147.424 27.7164C147.424 30.2456 145.379 32.2897 142.85 32.2897C140.321 32.2897 138.277 30.2456 138.277 27.7164C138.277 25.1873 140.321 23.1432 142.85 23.1432H147.424V27.7164ZM149.71 27.7164C149.71 25.1873 151.754 23.1432 154.283 23.1432C156.813 23.1432 158.857 25.1873 158.857 27.7164V39.1495C158.857 41.6786 156.813 43.7227 154.283 43.7227C151.754 43.7227 149.71 41.6786 149.71 39.1495V27.7164Z" fill="white"/>
<path d="M154.283 9.35422C151.754 9.35422 149.71 7.31013 149.71 4.78099C149.71 2.25186 151.754 0.207764 154.283 0.207764C156.813 0.207764 158.857 2.25186 158.857 4.78099V9.35422H154.283ZM154.283 11.6755C156.813 11.6755 158.857 13.7196 158.857 16.2487C158.857 18.7778 156.813 20.8219 154.283 20.8219H142.816C140.287 20.8219 138.242 18.7778 138.242 16.2487C138.242 13.7196 140.287 11.6755 142.816 11.6755H154.283Z" fill="white"/>
<path d="M172.611 16.2487C172.611 13.7196 174.655 11.6755 177.184 11.6755C179.713 11.6755 181.757 13.7196 181.757 16.2487C181.757 18.7778 179.713 20.8219 177.184 20.8219H172.611V16.2487ZM170.324 16.2487C170.324 18.7778 168.28 20.8219 165.751 20.8219C163.222 20.8219 161.178 18.7778 161.178 16.2487V4.78099C161.178 2.25186 163.222 0.207764 165.751 0.207764C168.28 0.207764 170.324 2.25186 170.324 4.78099V16.2487Z" fill="white"/>
<path d="M165.751 34.5763C168.28 34.5763 170.324 36.6204 170.324 39.1495C170.324 41.6786 168.28 43.7227 165.751 43.7227C163.222 43.7227 161.178 41.6786 161.178 39.1495V34.5763H165.751ZM165.751 32.2897C163.222 32.2897 161.178 30.2456 161.178 27.7164C161.178 25.1873 163.222 23.1432 165.751 23.1432H177.219C179.748 23.1432 181.792 25.1873 181.792 27.7164C181.792 30.2456 179.748 32.2897 177.219 32.2897H165.751Z" fill="white"/>
<path d="M193.248 89L205.632 55.4H211.2L223.488 89H218.112L215.232 80.792H201.504L198.624 89H193.248ZM202.944 76.76H213.792L208.368 61.448L202.944 76.76ZM226.254 89V55.4H238.014C240.638 55.4 242.814 55.848 244.542 56.744C246.27 57.608 247.55 58.808 248.382 60.344C249.246 61.848 249.678 63.56 249.678 65.48C249.678 67.304 249.262 68.984 248.43 70.52C247.63 72.024 246.366 73.224 244.638 74.12C242.91 75.016 240.702 75.464 238.014 75.464H231.342V89H226.254ZM231.342 71.288H237.774C240.174 71.288 241.886 70.776 242.91 69.752C243.966 68.696 244.494 67.272 244.494 65.48C244.494 63.624 243.966 62.184 242.91 61.16C241.886 60.104 240.174 59.576 237.774 59.576H231.342V71.288ZM252.787 89V55.4H257.875V89H252.787Z" fill="white"/>
<path d="M169.186 120.793C169.507 120.755 169.814 120.753 170.096 120.793C170.26 120.417 170.289 119.771 170.141 119.067C169.922 118.02 169.626 117.385 169.015 117.484C168.403 117.583 168.381 118.341 168.6 119.388C168.722 119.977 168.941 120.48 169.186 120.793Z" fill="white"/>
<path d="M163.932 121.621C164.37 121.813 164.64 121.941 164.744 121.829C164.812 121.759 164.79 121.628 164.686 121.457C164.471 121.105 164.025 120.746 163.555 120.547C162.59 120.132 161.44 120.27 160.553 120.908C160.26 121.122 159.982 121.42 160.021 121.599C160.034 121.659 160.079 121.702 160.181 121.716C160.422 121.743 161.266 121.317 162.238 121.258C162.926 121.215 163.494 121.429 163.932 121.621Z" fill="white"/>
<path d="M163.052 122.124C162.482 122.214 162.166 122.402 161.965 122.577C161.793 122.727 161.687 122.894 161.687 123.011C161.687 123.067 161.712 123.099 161.73 123.115C161.755 123.139 161.787 123.151 161.823 123.151C161.952 123.151 162.24 123.036 162.24 123.036C163.034 122.753 163.556 122.787 164.076 122.846C164.363 122.878 164.498 122.896 164.56 122.797C164.578 122.769 164.602 122.708 164.544 122.616C164.413 122.397 163.837 122.03 163.052 122.124Z" fill="white"/>
<path d="M167.411 123.969C167.799 124.159 168.225 124.084 168.363 123.802C168.501 123.52 168.3 123.137 167.914 122.947C167.526 122.756 167.1 122.832 166.962 123.114C166.822 123.396 167.025 123.778 167.411 123.969Z" fill="white"/>
<path d="M169.901 121.793C169.586 121.788 169.326 122.133 169.319 122.564C169.311 122.995 169.561 123.349 169.875 123.354C170.19 123.36 170.45 123.015 170.457 122.584C170.465 122.153 170.215 121.799 169.901 121.793Z" fill="white"/>
<path d="M148.774 129.571C148.695 129.472 148.567 129.503 148.443 129.531C148.357 129.551 148.258 129.575 148.15 129.573C147.919 129.569 147.723 129.469 147.613 129.3C147.47 129.081 147.479 128.752 147.637 128.376C147.658 128.326 147.683 128.27 147.71 128.208C147.962 127.642 148.386 126.695 147.911 125.792C147.554 125.113 146.972 124.689 146.273 124.601C145.601 124.516 144.91 124.764 144.47 125.251C143.775 126.018 143.665 127.063 143.8 127.432C143.848 127.566 143.926 127.604 143.983 127.611C144.102 127.627 144.276 127.541 144.385 127.247C144.393 127.225 144.403 127.193 144.416 127.151C144.464 126.995 144.556 126.704 144.705 126.472C144.885 126.192 145.165 125.998 145.494 125.928C145.828 125.856 146.171 125.921 146.456 126.108C146.943 126.428 147.132 127.024 146.923 127.593C146.816 127.888 146.641 128.452 146.679 128.915C146.756 129.853 147.333 130.228 147.852 130.27C148.355 130.289 148.707 130.006 148.797 129.799C148.847 129.677 148.802 129.603 148.774 129.571Z" fill="white"/>
<path d="M177.836 127.857C177.817 127.789 177.693 127.333 177.52 126.783C177.348 126.234 177.172 125.846 177.172 125.846C177.86 124.815 177.872 123.893 177.781 123.372C177.684 122.726 177.414 122.174 176.87 121.605C176.327 121.035 175.217 120.452 173.656 120.013C173.479 119.963 172.89 119.801 172.837 119.785C172.834 119.751 172.794 117.856 172.758 117.041C172.733 116.451 172.681 115.534 172.397 114.628C172.058 113.403 171.465 112.333 170.727 111.647C172.766 109.534 174.037 107.206 174.035 105.209C174.03 101.369 169.313 100.206 163.501 102.613C163.495 102.615 162.278 103.133 162.269 103.136C162.263 103.131 160.043 100.952 160.009 100.923C153.384 95.143 132.665 118.174 139.29 123.767L140.737 124.994C140.362 125.968 140.215 127.081 140.335 128.279C140.489 129.819 141.283 131.295 142.571 132.434C143.793 133.517 145.399 134.202 146.958 134.2C149.535 140.14 155.425 143.784 162.331 143.989C169.739 144.21 175.957 140.733 178.564 134.489C178.734 134.051 179.458 132.077 179.458 130.333C179.458 128.583 178.469 127.857 177.836 127.857ZM147.527 132.533C147.302 132.571 147.073 132.587 146.841 132.581C144.603 132.522 142.187 130.507 141.946 128.118C141.68 125.477 143.029 123.446 145.418 122.963C145.704 122.905 146.049 122.871 146.421 122.891C147.759 122.964 149.731 123.992 150.182 126.907C150.582 129.49 149.948 132.12 147.527 132.533ZM145.028 121.384C143.541 121.673 142.23 122.515 141.429 123.679C140.949 123.281 140.057 122.506 139.9 122.205C138.621 119.774 141.296 115.05 143.166 112.383C147.786 105.791 155.021 100.799 158.371 101.705C158.915 101.859 160.718 103.95 160.718 103.95C160.718 103.95 157.37 105.807 154.265 108.397C150.083 111.62 146.922 116.302 145.028 121.384ZM168.514 131.545C168.562 131.525 168.597 131.47 168.591 131.414C168.584 131.346 168.523 131.297 168.456 131.304C168.456 131.304 164.952 131.823 161.64 130.611C162.001 129.438 162.96 129.862 164.41 129.979C167.023 130.135 169.364 129.752 171.095 129.257C172.595 128.826 174.564 127.978 176.094 126.771C176.609 127.904 176.793 129.151 176.793 129.151C176.793 129.151 177.191 129.079 177.526 129.285C177.842 129.479 178.072 129.883 177.914 130.925C177.592 132.874 176.764 134.457 175.372 135.912C174.524 136.824 173.495 137.618 172.318 138.195C171.693 138.523 171.027 138.807 170.325 139.037C165.076 140.751 159.704 138.866 157.972 134.819C157.834 134.516 157.717 134.196 157.625 133.864C156.887 131.197 157.514 127.997 159.472 125.982V125.98C159.592 125.853 159.716 125.702 159.716 125.512C159.716 125.352 159.616 125.185 159.528 125.066C158.843 124.073 156.469 122.379 156.945 119.101C157.286 116.746 159.346 115.088 161.266 115.187C161.428 115.196 161.591 115.205 161.753 115.216C162.585 115.264 163.31 115.372 163.996 115.401C165.142 115.451 166.173 115.284 167.395 114.265C167.806 113.922 168.137 113.624 168.695 113.531C168.755 113.52 168.9 113.468 169.193 113.482C169.491 113.498 169.775 113.579 170.03 113.75C171.009 114.402 171.147 115.979 171.197 117.132C171.226 117.791 171.305 119.385 171.334 119.843C171.397 120.888 171.672 121.037 172.227 121.22C172.539 121.323 172.83 121.4 173.258 121.52C174.553 121.885 175.322 122.253 175.807 122.727C176.096 123.024 176.23 123.338 176.272 123.638C176.424 124.752 175.406 126.129 172.712 127.38C169.766 128.746 166.191 129.093 163.722 128.818C163.533 128.797 162.859 128.721 162.856 128.721C160.88 128.456 159.754 131.008 160.939 132.757C161.703 133.885 163.785 134.618 165.866 134.618C170.641 134.618 174.31 132.58 175.675 130.819C175.717 130.767 175.72 130.76 175.785 130.663C175.851 130.562 175.798 130.507 175.713 130.562C174.598 131.326 169.644 134.354 164.347 133.444C164.347 133.444 163.704 133.338 163.115 133.109C162.648 132.928 161.67 132.479 161.552 131.475C165.821 132.795 168.514 131.545 168.514 131.545ZM161.74 130.746C161.742 130.747 161.742 130.749 161.742 130.749L161.74 130.746ZM153.56 112.356C155.202 110.457 157.225 108.809 159.035 107.882C159.098 107.849 159.165 107.918 159.131 107.979C158.987 108.239 158.71 108.796 158.622 109.22C158.608 109.286 158.68 109.335 158.735 109.297C159.862 108.528 161.823 107.706 163.542 107.6C163.616 107.594 163.652 107.69 163.592 107.734C163.33 107.936 163.044 108.212 162.836 108.492C162.8 108.541 162.834 108.609 162.894 108.609C164.101 108.618 165.803 109.04 166.912 109.662C166.987 109.703 166.933 109.849 166.849 109.831C165.171 109.446 162.423 109.153 159.569 109.85C157.022 110.472 155.076 111.431 153.657 112.464C153.589 112.518 153.503 112.424 153.56 112.356Z" fill="white"/>
<path d="M21.5385 79.923C31.7345 79.923 40 71.6575 40 61.4615C40 51.2655 31.7345 43 21.5385 43L21.5385 79.923Z" fill="white"/>
<path d="M58.4615 64.5384C48.2655 64.5384 40 72.8039 40 82.9999C40 93.1959 48.2655 101.461 58.4615 101.461V64.5384Z" fill="white"/>
<path d="M60 52.2309C60 56.4792 56.556 59.9232 52.3077 59.9232C48.0594 59.9232 44.6154 56.4792 44.6154 52.2309C44.6154 47.9825 48.0594 44.5386 52.3077 44.5386C56.556 44.5386 60 47.9825 60 52.2309Z" fill="white"/>
<path d="M35.3846 92.2307C35.3846 96.479 31.9406 99.923 27.6923 99.923C23.444 99.923 20 96.479 20 92.2307C20 87.9823 23.444 84.5384 27.6923 84.5384C31.9406 84.5384 35.3846 87.9823 35.3846 92.2307Z" fill="white"/>
<defs>
<radialGradient id="paint0_radial_3813_6598" cx="0" cy="0" r="1" gradientUnits="userSpaceOnUse" gradientTransform="translate(141 72) rotate(90) scale(72 141)">
<stop stop-color="#6ECE9D" stop-opacity="0.15"/>
<stop offset="1" stop-color="#6ECE9D" stop-opacity="0"/>
</radialGradient>
</defs>
</svg>
