<svg xmlns="http://www.w3.org/2000/svg" width="64" height="48" fill="#fff"><path d="M15.987 24c0 6.339 3.684 11.817 9.025 14.412l-7.639-20.929A15.95 15.95 0 0 0 15.987 24zm26.824-.808c0-1.979-.711-3.35-1.321-4.416-.812-1.319-1.573-2.436-1.573-3.755 0-1.472 1.116-2.842 2.689-2.842.071 0 .138.009.208.013C39.965 9.582 36.169 7.988 32 7.988c-5.594 0-10.516 2.87-13.38 7.218l1.031.019c1.675 0 4.268-.203 4.268-.203.863-.051.965 1.217.103 1.319 0 0-.867.102-1.833.153L28.02 33.84l3.505-10.51-2.495-6.836c-.862-.051-1.679-.153-1.679-.153-.863-.051-.762-1.37.101-1.319 0 0 2.645.203 4.218.203 1.675 0 4.268-.203 4.268-.203.864-.051.965 1.217.103 1.319 0 0-.869.102-1.833.153l5.787 17.214 1.597-5.338c.692-2.215 1.219-3.806 1.219-5.177zm-10.529 2.209l-4.805 13.962c1.435.422 2.952.652 4.524.652a15.98 15.98 0 0 0 5.318-.908c-.043-.069-.082-.141-.114-.221L32.282 25.4zm13.77-9.084a12.3 12.3 0 0 1 .108 1.647c0 1.625-.303 3.452-1.218 5.736L40.05 37.843c4.761-2.776 7.963-7.934 7.963-13.842 0-2.784-.711-5.402-1.962-7.683zM32.001 5.333c-10.293 0-18.667 8.374-18.667 18.667s8.374 18.668 18.667 18.668S50.669 34.294 50.669 24 42.293 5.333 32.001 5.333zm0 36.479C22.18 41.812 14.19 33.821 14.19 24S22.18 6.189 32.001 6.189s17.81 7.99 17.81 17.811-7.99 17.812-17.81 17.812z"/></svg>